%TF.GenerationSoftware,KiCad,Pcbnew,10.0.1*%
%TF.CreationDate,2026-09-01T23:54:32+05:30*%
%TF.ProjectId,pcb,7063622e-6b69-4636-9164-5f7063625858,rev?*%
%TF.SameCoordinates,Original*%
%TF.FileFunction,Legend,Bot*%
%TF.FilePolarity,Positive*%
%FSLAX46Y46*%
G04 Gerber Fmt 4.6, Leading zero omitted, Abs format (unit mm)*
G04 Created by KiCad (PCBNEW 10.0.1) date 2026-09-01 23:54:32*
%MOMM*%
%LPD*%
G01*
G04 APERTURE LIST*
%ADD10C,0.150000*%
%ADD11C,0.120000*%
G04 APERTURE END LIST*
D10*
X168666666Y-100524819D02*
X168999999Y-100048628D01*
X169238094Y-100524819D02*
X169238094Y-99524819D01*
X169238094Y-99524819D02*
X168857142Y-99524819D01*
X168857142Y-99524819D02*
X168761904Y-99572438D01*
X168761904Y-99572438D02*
X168714285Y-99620057D01*
X168714285Y-99620057D02*
X168666666Y-99715295D01*
X168666666Y-99715295D02*
X168666666Y-99858152D01*
X168666666Y-99858152D02*
X168714285Y-99953390D01*
X168714285Y-99953390D02*
X168761904Y-100001009D01*
X168761904Y-100001009D02*
X168857142Y-100048628D01*
X168857142Y-100048628D02*
X169238094Y-100048628D01*
X167809523Y-99524819D02*
X167999999Y-99524819D01*
X167999999Y-99524819D02*
X168095237Y-99572438D01*
X168095237Y-99572438D02*
X168142856Y-99620057D01*
X168142856Y-99620057D02*
X168238094Y-99762914D01*
X168238094Y-99762914D02*
X168285713Y-99953390D01*
X168285713Y-99953390D02*
X168285713Y-100334342D01*
X168285713Y-100334342D02*
X168238094Y-100429580D01*
X168238094Y-100429580D02*
X168190475Y-100477200D01*
X168190475Y-100477200D02*
X168095237Y-100524819D01*
X168095237Y-100524819D02*
X167904761Y-100524819D01*
X167904761Y-100524819D02*
X167809523Y-100477200D01*
X167809523Y-100477200D02*
X167761904Y-100429580D01*
X167761904Y-100429580D02*
X167714285Y-100334342D01*
X167714285Y-100334342D02*
X167714285Y-100096247D01*
X167714285Y-100096247D02*
X167761904Y-100001009D01*
X167761904Y-100001009D02*
X167809523Y-99953390D01*
X167809523Y-99953390D02*
X167904761Y-99905771D01*
X167904761Y-99905771D02*
X168095237Y-99905771D01*
X168095237Y-99905771D02*
X168190475Y-99953390D01*
X168190475Y-99953390D02*
X168238094Y-100001009D01*
X168238094Y-100001009D02*
X168285713Y-100096247D01*
%TO.C,R6*%
D11*
X168737258Y-100977500D02*
X168262742Y-100977500D01*
X168737258Y-102022500D02*
X168262742Y-102022500D01*
%TD*%
M02*
