%TF.GenerationSoftware,KiCad,Pcbnew,10.0.1*%
%TF.CreationDate,2026-09-01T23:54:31+05:30*%
%TF.ProjectId,pcb,7063622e-6b69-4636-9164-5f7063625858,rev?*%
%TF.SameCoordinates,Original*%
%TF.FileFunction,Copper,L2,Bot*%
%TF.FilePolarity,Positive*%
%FSLAX46Y46*%
G04 Gerber Fmt 4.6, Leading zero omitted, Abs format (unit mm)*
G04 Created by KiCad (PCBNEW 10.0.1) date 2026-09-01 23:54:31*
%MOMM*%
%LPD*%
G01*
G04 APERTURE LIST*
G04 Aperture macros list*
%AMRoundRect*
0 Rectangle with rounded corners*
0 $1 Rounding radius*
0 $2 $3 $4 $5 $6 $7 $8 $9 X,Y pos of 4 corners*
0 Add a 4 corners polygon primitive as box body*
4,1,4,$2,$3,$4,$5,$6,$7,$8,$9,$2,$3,0*
0 Add four circle primitives for the rounded corners*
1,1,$1+$1,$2,$3*
1,1,$1+$1,$4,$5*
1,1,$1+$1,$6,$7*
1,1,$1+$1,$8,$9*
0 Add four rect primitives between the rounded corners*
20,1,$1+$1,$2,$3,$4,$5,0*
20,1,$1+$1,$4,$5,$6,$7,0*
20,1,$1+$1,$6,$7,$8,$9,0*
20,1,$1+$1,$8,$9,$2,$3,0*%
G04 Aperture macros list end*
%TA.AperFunction,ComponentPad*%
%ADD10C,5.400000*%
%TD*%
%TA.AperFunction,ComponentPad*%
%ADD11RoundRect,0.190500X-0.444500X1.079500X-0.444500X-1.079500X0.444500X-1.079500X0.444500X1.079500X0*%
%TD*%
%TA.AperFunction,ComponentPad*%
%ADD12RoundRect,0.250000X1.050000X1.050000X-1.050000X1.050000X-1.050000X-1.050000X1.050000X-1.050000X0*%
%TD*%
%TA.AperFunction,ComponentPad*%
%ADD13C,2.600000*%
%TD*%
%TA.AperFunction,ComponentPad*%
%ADD14R,1.700000X1.700000*%
%TD*%
%TA.AperFunction,ComponentPad*%
%ADD15C,1.700000*%
%TD*%
%TA.AperFunction,ComponentPad*%
%ADD16R,2.000000X2.000000*%
%TD*%
%TA.AperFunction,ComponentPad*%
%ADD17C,2.000000*%
%TD*%
%TA.AperFunction,ComponentPad*%
%ADD18RoundRect,0.250000X0.750000X-0.750000X0.750000X0.750000X-0.750000X0.750000X-0.750000X-0.750000X0*%
%TD*%
%TA.AperFunction,ComponentPad*%
%ADD19RoundRect,0.250000X-0.750000X0.750000X-0.750000X-0.750000X0.750000X-0.750000X0.750000X0.750000X0*%
%TD*%
%TA.AperFunction,ComponentPad*%
%ADD20O,1.900000X1.524000*%
%TD*%
%TA.AperFunction,SMDPad,CuDef*%
%ADD21RoundRect,0.200000X0.200000X0.275000X-0.200000X0.275000X-0.200000X-0.275000X0.200000X-0.275000X0*%
%TD*%
%TA.AperFunction,ViaPad*%
%ADD22C,0.600000*%
%TD*%
%TA.AperFunction,Conductor*%
%ADD23C,0.300000*%
%TD*%
G04 APERTURE END LIST*
D10*
%TO.P,H1,1,1_1*%
%TO.N,unconnected-(H1-Pad1)*%
X116000000Y-80000000D03*
%TD*%
D11*
%TO.P,U2,1,VCC_1*%
%TO.N,+5V*%
X160810000Y-126722000D03*
D12*
%TO.P,U2,2,B_2*%
%TO.N,unconnected-(U2-B-Pad2)_1*%
X159516000Y-119356000D03*
D11*
%TO.N,unconnected-(U2-B-Pad2)*%
X158270000Y-126722000D03*
%TO.P,U2,3,A_3*%
%TO.N,unconnected-(U2-A-Pad3)*%
X155730000Y-126722000D03*
D13*
%TO.N,unconnected-(U2-A-Pad3)_1*%
X154436000Y-119356000D03*
D11*
%TO.P,U2,4,GND_4*%
%TO.N,GND*%
X153190000Y-126722000D03*
%TO.P,U2,5,RO_5*%
%TO.N,/RX*%
X160810000Y-85320000D03*
%TO.P,U2,6,~{RE}_6*%
%TO.N,/RTS*%
X158270000Y-85320000D03*
%TO.P,U2,7,DE_7*%
X155730000Y-85320000D03*
%TO.P,U2,8,DI_8*%
%TO.N,/TX*%
X153190000Y-85320000D03*
%TD*%
D14*
%TO.P,J4,1,Pin_1_1*%
%TO.N,/LED_R*%
X152000000Y-78500000D03*
D15*
%TO.P,J4,2,Pin_2_2*%
%TO.N,GND*%
X154540000Y-78500000D03*
%TO.P,J4,3,Pin_3_3*%
%TO.N,/LED_G*%
X157080000Y-78500000D03*
%TO.P,J4,4,Pin_4_4*%
%TO.N,/LED_B*%
X159620000Y-78500000D03*
%TD*%
D10*
%TO.P,H4,1,1_1*%
%TO.N,unconnected-(H4-Pad1)*%
X175000000Y-80000000D03*
%TD*%
D16*
%TO.P,BZ1,1,+_1*%
%TO.N,+5V*%
X172000000Y-86000000D03*
D17*
%TO.P,BZ1,2,-_2*%
%TO.N,Net-(BZ1--)*%
X172000000Y-93600000D03*
%TD*%
D18*
%TO.P,J3,1,Pin_1_1*%
%TO.N,Net-(J3-Pin_1)*%
X174000000Y-118500000D03*
D17*
%TO.P,J3,2,Pin_2_2*%
%TO.N,GND*%
X174000000Y-115960000D03*
%TD*%
D10*
%TO.P,H3,1,1_1*%
%TO.N,unconnected-(H3-Pad1)*%
X175000000Y-125000000D03*
%TD*%
D19*
%TO.P,J5,1,Pin_1_1*%
%TO.N,GND*%
X116500000Y-112960000D03*
D17*
%TO.P,J5,2,Pin_2_2*%
%TO.N,+5V*%
X116500000Y-115500000D03*
%TD*%
D18*
%TO.P,J2,1,Pin_1_1*%
%TO.N,Net-(J2-Pin_1)*%
X174000000Y-101500000D03*
D17*
%TO.P,J2,2,Pin_2_2*%
%TO.N,GND*%
X174000000Y-98960000D03*
%TD*%
D20*
%TO.P,U1,1,VIN_1*%
%TO.N,+5V*%
X122072460Y-118519813D03*
%TO.P,U1,2,GND_2*%
%TO.N,GND*%
X122072460Y-115979813D03*
%TO.P,U1,3,GPIO13_3*%
%TO.N,unconnected-(U1-GPIO13-Pad3)*%
X122072460Y-113439813D03*
%TO.P,U1,4,GPIO12_4*%
%TO.N,unconnected-(U1-GPIO12-Pad4)*%
X122072460Y-110899813D03*
%TO.P,U1,5,GPIO14_5*%
%TO.N,Net-(U1-GPIO14)*%
X122072460Y-108359813D03*
%TO.P,U1,6,GPIO27_6*%
%TO.N,Net-(U1-GPIO27)*%
X122072460Y-105819813D03*
%TO.P,U1,7,GPIO26_7*%
%TO.N,unconnected-(U1-GPIO26-Pad7)*%
X122072460Y-103279813D03*
%TO.P,U1,8,GPIO25_8*%
%TO.N,unconnected-(U1-GPIO25-Pad8)*%
X122072460Y-100739813D03*
%TO.P,U1,9,GPIO33_9*%
%TO.N,unconnected-(U1-GPIO33-Pad9)*%
X122072460Y-98199813D03*
%TO.P,U1,10,GPIO32_10*%
%TO.N,unconnected-(U1-GPIO32-Pad10)*%
X122072460Y-95659813D03*
%TO.P,U1,11,GPIO35_11*%
%TO.N,unconnected-(U1-GPIO35-Pad11)*%
X122072460Y-93119813D03*
%TO.P,U1,12,GPIO34_12*%
%TO.N,unconnected-(U1-GPIO34-Pad12)*%
X122072460Y-90579813D03*
%TO.P,U1,13,GPIO39_13*%
%TO.N,unconnected-(U1-GPIO39-Pad13)*%
X122072460Y-88039813D03*
%TO.P,U1,14,GPIO36_14*%
%TO.N,unconnected-(U1-GPIO36-Pad14)*%
X122072460Y-85499813D03*
%TO.P,U1,15,EN_15*%
%TO.N,unconnected-(U1-EN-Pad15)*%
X122072460Y-82959813D03*
%TO.P,U1,16,3.3v_16*%
%TO.N,unconnected-(U1-3.3v-Pad16)*%
X147472460Y-118519813D03*
%TO.P,U1,17,GND_17*%
%TO.N,GND*%
X147472460Y-115979813D03*
%TO.P,U1,18,GPIO15_18*%
%TO.N,Net-(J1-Pin_1)*%
X147472460Y-113439813D03*
%TO.P,U1,19,GPIO2_19*%
%TO.N,unconnected-(U1-GPIO2-Pad19)*%
X147472460Y-110899813D03*
%TO.P,U1,20,GPIO4_20*%
%TO.N,Net-(U1-GPIO4)*%
X147472460Y-108359813D03*
%TO.P,U1,21,GPIO16_21*%
%TO.N,/RX*%
X147472460Y-105819813D03*
%TO.P,U1,22,GPIO17_22*%
%TO.N,/TX*%
X147472460Y-103279813D03*
%TO.P,U1,23,GPIO5_23*%
%TO.N,/RTS*%
X147472460Y-100739813D03*
%TO.P,U1,24,GPIO18_24*%
%TO.N,/LED_B*%
X147472460Y-98199813D03*
%TO.P,U1,25,GPIO19_25*%
%TO.N,/LED_G*%
X147472460Y-95659813D03*
%TO.P,U1,26,GPIO21_26*%
%TO.N,/LED_R*%
X147472460Y-93119813D03*
%TO.P,U1,27,GPIO3_27*%
%TO.N,unconnected-(U1-GPIO3-Pad27)*%
X147472460Y-90579813D03*
%TO.P,U1,28,GPIO1_28*%
%TO.N,unconnected-(U1-GPIO1-Pad28)*%
X147472460Y-88039813D03*
%TO.P,U1,29,GPIO22_29*%
%TO.N,unconnected-(U1-GPIO22-Pad29)*%
X147472460Y-85499813D03*
%TO.P,U1,30,GPIO23_30*%
%TO.N,unconnected-(U1-GPIO23-Pad30)*%
X147472460Y-82959813D03*
%TD*%
D18*
%TO.P,J1,1,Pin_1_1*%
%TO.N,Net-(J1-Pin_1)*%
X174000000Y-110000000D03*
D17*
%TO.P,J1,2,Pin_2_2*%
%TO.N,GND*%
X174000000Y-107460000D03*
%TD*%
D10*
%TO.P,H2,1,1_1*%
%TO.N,unconnected-(H2-Pad1)*%
X116000000Y-125000000D03*
%TD*%
D21*
%TO.P,R6,1*%
%TO.N,Net-(J2-Pin_1)*%
X169325000Y-101500000D03*
%TO.P,R6,2*%
%TO.N,Net-(U1-GPIO27)*%
X167675000Y-101500000D03*
%TD*%
D22*
%TO.N,Net-(U1-GPIO4)*%
X163000000Y-107500000D03*
%TO.N,GND*%
X144500000Y-117000000D03*
X125000000Y-117000000D03*
X115500000Y-110500000D03*
X151500000Y-125500000D03*
X174500000Y-97000000D03*
X143500000Y-117000000D03*
X175500000Y-114000000D03*
X151500000Y-126500000D03*
X114500000Y-110500000D03*
X113500000Y-110500000D03*
X173500000Y-97000000D03*
X172500000Y-114000000D03*
X175500000Y-97000000D03*
X145500000Y-117000000D03*
X151500000Y-127500000D03*
X172500000Y-105500000D03*
X151500000Y-124500000D03*
X124000000Y-117000000D03*
X175500000Y-105500000D03*
X127000000Y-117000000D03*
X172500000Y-97000000D03*
X116500000Y-110500000D03*
X173500000Y-114000000D03*
X174500000Y-114000000D03*
X142500000Y-117000000D03*
X126000000Y-117000000D03*
X174500000Y-105500000D03*
X173500000Y-105500000D03*
%TO.N,Net-(U1-GPIO14)*%
X163000000Y-115000000D03*
%TO.N,/RTS*%
X154000000Y-99500000D03*
%TO.N,Net-(J1-Pin_1)*%
X157500000Y-111500000D03*
%TD*%
%TO.N,Net-(U1-GPIO4)*%
D23*
X162140187Y-108359813D02*
X147472460Y-108359813D01*
X163000000Y-107500000D02*
X162140187Y-108359813D01*
%TO.N,Net-(U1-GPIO14)*%
X124359813Y-108359813D02*
X122072460Y-108359813D01*
X163000000Y-115000000D02*
X160159759Y-112159759D01*
X128159759Y-112159759D02*
X124359813Y-108359813D01*
X160159759Y-112159759D02*
X128159759Y-112159759D01*
%TO.N,/RX*%
X160810000Y-100440000D02*
X160810000Y-85320000D01*
X147472460Y-105819813D02*
X155430187Y-105819813D01*
X155430187Y-105819813D02*
X160810000Y-100440000D01*
%TO.N,/RTS*%
X158270000Y-85320000D02*
X155730000Y-85320000D01*
X155730000Y-85320000D02*
X155730000Y-97770000D01*
X155730000Y-97770000D02*
X154000000Y-99500000D01*
%TO.N,/TX*%
X153190000Y-85320000D02*
X153190000Y-99310000D01*
X153190000Y-99310000D02*
X149220187Y-103279813D01*
X149220187Y-103279813D02*
X147472460Y-103279813D01*
%TO.N,Net-(J2-Pin_1)*%
X174000000Y-101500000D02*
X169325000Y-101500000D01*
%TO.N,Net-(U1-GPIO27)*%
X167675000Y-101500000D02*
X162500000Y-101500000D01*
X126000000Y-107000000D02*
X124819813Y-105819813D01*
X124819813Y-105819813D02*
X122072460Y-105819813D01*
X162500000Y-101500000D02*
X157000000Y-107000000D01*
X157000000Y-107000000D02*
X126000000Y-107000000D01*
%TO.N,Net-(J1-Pin_1)*%
X159000000Y-110000000D02*
X157500000Y-111500000D01*
X174000000Y-110000000D02*
X159000000Y-110000000D01*
%TD*%
%TA.AperFunction,Conductor*%
%TO.N,GND*%
G36*
X176003736Y-76500726D02*
G01*
X176293796Y-76518271D01*
X176308659Y-76520076D01*
X176590797Y-76571780D01*
X176605334Y-76575363D01*
X176879182Y-76660698D01*
X176893163Y-76666000D01*
X177154734Y-76783724D01*
X177167987Y-76790680D01*
X177413458Y-76939071D01*
X177425776Y-76947573D01*
X177541790Y-77038464D01*
X177651573Y-77124474D01*
X177662781Y-77134404D01*
X177865595Y-77337218D01*
X177875525Y-77348426D01*
X177970686Y-77469890D01*
X178052422Y-77574217D01*
X178060928Y-77586541D01*
X178209319Y-77832012D01*
X178216277Y-77845269D01*
X178224706Y-77863997D01*
X178330878Y-78099901D01*
X178333994Y-78106823D01*
X178339304Y-78120825D01*
X178424635Y-78394664D01*
X178428219Y-78409202D01*
X178479923Y-78691340D01*
X178481728Y-78706205D01*
X178499274Y-78996263D01*
X178499500Y-79003750D01*
X178499500Y-125996249D01*
X178499274Y-126003736D01*
X178481728Y-126293794D01*
X178479923Y-126308659D01*
X178428219Y-126590797D01*
X178424635Y-126605335D01*
X178339304Y-126879174D01*
X178333994Y-126893176D01*
X178216277Y-127154730D01*
X178209319Y-127167987D01*
X178060928Y-127413458D01*
X178052422Y-127425782D01*
X177875525Y-127651573D01*
X177865595Y-127662781D01*
X177662781Y-127865595D01*
X177651573Y-127875525D01*
X177425782Y-128052422D01*
X177413458Y-128060928D01*
X177167987Y-128209319D01*
X177154730Y-128216277D01*
X176893176Y-128333994D01*
X176879174Y-128339304D01*
X176605335Y-128424635D01*
X176590797Y-128428219D01*
X176308659Y-128479923D01*
X176293794Y-128481728D01*
X176003736Y-128499274D01*
X175996249Y-128499500D01*
X161833084Y-128499500D01*
X161766045Y-128479815D01*
X161720290Y-128427011D01*
X161710346Y-128357853D01*
X161739371Y-128294297D01*
X161745403Y-128287819D01*
X161802439Y-128230783D01*
X161815415Y-128209319D01*
X161845077Y-128160251D01*
X161889251Y-128087178D01*
X161939173Y-127926971D01*
X161945500Y-127857347D01*
X161945499Y-125586654D01*
X161945499Y-125586653D01*
X161945499Y-125586645D01*
X161939174Y-125517033D01*
X161939171Y-125517022D01*
X161889252Y-125356824D01*
X161889250Y-125356820D01*
X161802443Y-125213222D01*
X161802439Y-125213217D01*
X161683782Y-125094560D01*
X161683777Y-125094556D01*
X161540180Y-125007750D01*
X161540179Y-125007749D01*
X161540178Y-125007749D01*
X161379971Y-124957827D01*
X161379969Y-124957826D01*
X161379967Y-124957826D01*
X161331221Y-124953396D01*
X161310347Y-124951500D01*
X161310344Y-124951500D01*
X160309645Y-124951500D01*
X160240033Y-124957825D01*
X160240022Y-124957828D01*
X160079824Y-125007747D01*
X160079820Y-125007749D01*
X159936222Y-125094556D01*
X159936217Y-125094560D01*
X159817560Y-125213217D01*
X159817556Y-125213222D01*
X159730750Y-125356819D01*
X159730750Y-125356820D01*
X159730749Y-125356822D01*
X159705788Y-125436925D01*
X159680826Y-125517032D01*
X159674500Y-125586655D01*
X159674500Y-127857354D01*
X159680825Y-127926966D01*
X159680828Y-127926977D01*
X159730747Y-128087175D01*
X159730749Y-128087179D01*
X159817556Y-128230777D01*
X159817560Y-128230782D01*
X159874597Y-128287819D01*
X159908082Y-128349142D01*
X159903098Y-128418834D01*
X159861226Y-128474767D01*
X159795762Y-128499184D01*
X159786916Y-128499500D01*
X159293084Y-128499500D01*
X159226045Y-128479815D01*
X159180290Y-128427011D01*
X159170346Y-128357853D01*
X159199371Y-128294297D01*
X159205403Y-128287819D01*
X159262439Y-128230783D01*
X159275415Y-128209319D01*
X159305077Y-128160251D01*
X159349251Y-128087178D01*
X159399173Y-127926971D01*
X159405500Y-127857347D01*
X159405499Y-125586654D01*
X159405499Y-125586653D01*
X159405499Y-125586645D01*
X159399174Y-125517033D01*
X159399171Y-125517022D01*
X159349252Y-125356824D01*
X159349250Y-125356820D01*
X159262443Y-125213222D01*
X159262439Y-125213217D01*
X159143782Y-125094560D01*
X159143777Y-125094556D01*
X159000180Y-125007750D01*
X159000179Y-125007749D01*
X159000178Y-125007749D01*
X158839971Y-124957827D01*
X158839969Y-124957826D01*
X158839967Y-124957826D01*
X158791221Y-124953396D01*
X158770347Y-124951500D01*
X158770344Y-124951500D01*
X157769645Y-124951500D01*
X157700033Y-124957825D01*
X157700022Y-124957828D01*
X157539824Y-125007747D01*
X157539820Y-125007749D01*
X157396222Y-125094556D01*
X157396217Y-125094560D01*
X157277560Y-125213217D01*
X157277556Y-125213222D01*
X157190750Y-125356819D01*
X157190750Y-125356820D01*
X157190749Y-125356822D01*
X157165788Y-125436925D01*
X157140826Y-125517032D01*
X157134500Y-125586655D01*
X157134500Y-127857354D01*
X157140825Y-127926966D01*
X157140828Y-127926977D01*
X157190747Y-128087175D01*
X157190749Y-128087179D01*
X157277556Y-128230777D01*
X157277560Y-128230782D01*
X157334597Y-128287819D01*
X157368082Y-128349142D01*
X157363098Y-128418834D01*
X157321226Y-128474767D01*
X157255762Y-128499184D01*
X157246916Y-128499500D01*
X156753084Y-128499500D01*
X156686045Y-128479815D01*
X156640290Y-128427011D01*
X156630346Y-128357853D01*
X156659371Y-128294297D01*
X156665403Y-128287819D01*
X156722439Y-128230783D01*
X156735415Y-128209319D01*
X156765077Y-128160251D01*
X156809251Y-128087178D01*
X156859173Y-127926971D01*
X156865500Y-127857347D01*
X156865499Y-125586654D01*
X156865499Y-125586653D01*
X156865499Y-125586645D01*
X156859174Y-125517033D01*
X156859171Y-125517022D01*
X156809252Y-125356824D01*
X156809250Y-125356820D01*
X156722443Y-125213222D01*
X156722439Y-125213217D01*
X156603782Y-125094560D01*
X156603777Y-125094556D01*
X156460180Y-125007750D01*
X156460179Y-125007749D01*
X156460178Y-125007749D01*
X156299971Y-124957827D01*
X156299969Y-124957826D01*
X156299967Y-124957826D01*
X156251221Y-124953396D01*
X156230347Y-124951500D01*
X156230344Y-124951500D01*
X155229645Y-124951500D01*
X155160033Y-124957825D01*
X155160022Y-124957828D01*
X154999824Y-125007747D01*
X154999820Y-125007749D01*
X154856222Y-125094556D01*
X154856217Y-125094560D01*
X154737560Y-125213217D01*
X154737556Y-125213222D01*
X154650750Y-125356819D01*
X154650750Y-125356820D01*
X154650749Y-125356822D01*
X154625788Y-125436925D01*
X154600826Y-125517032D01*
X154594500Y-125586655D01*
X154594500Y-127857354D01*
X154600825Y-127926966D01*
X154600828Y-127926977D01*
X154650747Y-128087175D01*
X154650749Y-128087179D01*
X154737556Y-128230777D01*
X154737560Y-128230782D01*
X154794597Y-128287819D01*
X154828082Y-128349142D01*
X154823098Y-128418834D01*
X154781226Y-128474767D01*
X154715762Y-128499184D01*
X154706916Y-128499500D01*
X154212376Y-128499500D01*
X154145337Y-128479815D01*
X154099582Y-128427011D01*
X154089638Y-128357853D01*
X154118663Y-128294297D01*
X154124695Y-128287819D01*
X154182042Y-128230471D01*
X154182045Y-128230467D01*
X154268789Y-128086973D01*
X154318677Y-127926876D01*
X154325000Y-127857298D01*
X154325000Y-126972000D01*
X153505686Y-126972000D01*
X153510080Y-126967606D01*
X153562741Y-126876394D01*
X153590000Y-126774661D01*
X153590000Y-126669339D01*
X153562741Y-126567606D01*
X153510080Y-126476394D01*
X153505686Y-126472000D01*
X154324999Y-126472000D01*
X154324999Y-125586691D01*
X154318678Y-125517124D01*
X154318676Y-125517116D01*
X154268791Y-125357029D01*
X154268790Y-125357027D01*
X154182045Y-125213532D01*
X154182042Y-125213528D01*
X154063471Y-125094957D01*
X154063467Y-125094954D01*
X153919973Y-125008210D01*
X153759876Y-124958322D01*
X153690298Y-124952000D01*
X153440000Y-124952000D01*
X153440000Y-126406314D01*
X153435606Y-126401920D01*
X153344394Y-126349259D01*
X153242661Y-126322000D01*
X153137339Y-126322000D01*
X153035606Y-126349259D01*
X152944394Y-126401920D01*
X152940000Y-126406314D01*
X152940000Y-124952000D01*
X152689691Y-124952000D01*
X152620123Y-124958321D01*
X152620116Y-124958323D01*
X152460029Y-125008208D01*
X152460027Y-125008209D01*
X152316532Y-125094954D01*
X152316528Y-125094957D01*
X152197957Y-125213528D01*
X152197954Y-125213532D01*
X152111210Y-125357026D01*
X152061322Y-125517123D01*
X152055000Y-125586701D01*
X152055000Y-126472000D01*
X152874314Y-126472000D01*
X152869920Y-126476394D01*
X152817259Y-126567606D01*
X152790000Y-126669339D01*
X152790000Y-126774661D01*
X152817259Y-126876394D01*
X152869920Y-126967606D01*
X152874314Y-126972000D01*
X152055001Y-126972000D01*
X152055001Y-127857308D01*
X152061321Y-127926875D01*
X152061323Y-127926883D01*
X152111208Y-128086970D01*
X152111209Y-128086972D01*
X152197954Y-128230467D01*
X152197957Y-128230471D01*
X152255305Y-128287819D01*
X152288790Y-128349142D01*
X152283806Y-128418834D01*
X152241934Y-128474767D01*
X152176470Y-128499184D01*
X152167624Y-128499500D01*
X115003751Y-128499500D01*
X114996264Y-128499274D01*
X114706205Y-128481728D01*
X114691340Y-128479923D01*
X114409202Y-128428219D01*
X114394664Y-128424635D01*
X114120825Y-128339304D01*
X114106827Y-128333995D01*
X113954096Y-128265256D01*
X113845269Y-128216277D01*
X113832012Y-128209319D01*
X113586541Y-128060928D01*
X113574217Y-128052422D01*
X113348426Y-127875525D01*
X113337218Y-127865595D01*
X113134404Y-127662781D01*
X113124474Y-127651573D01*
X113095284Y-127614315D01*
X112947573Y-127425776D01*
X112939071Y-127413458D01*
X112790680Y-127167987D01*
X112783722Y-127154730D01*
X112775293Y-127136002D01*
X112666000Y-126893163D01*
X112660698Y-126879182D01*
X112575363Y-126605334D01*
X112571780Y-126590797D01*
X112520076Y-126308659D01*
X112518271Y-126293794D01*
X112500726Y-126003736D01*
X112500500Y-125996249D01*
X112500500Y-124820259D01*
X112799500Y-124820259D01*
X112799500Y-125179740D01*
X112839746Y-125536935D01*
X112839748Y-125536951D01*
X112919737Y-125887407D01*
X112919741Y-125887419D01*
X113038465Y-126226711D01*
X113194432Y-126550579D01*
X113194434Y-126550582D01*
X113385685Y-126854956D01*
X113609812Y-127136003D01*
X113863997Y-127390188D01*
X114145044Y-127614315D01*
X114449418Y-127805566D01*
X114773292Y-127961536D01*
X115028119Y-128050703D01*
X115112580Y-128080258D01*
X115112592Y-128080262D01*
X115463052Y-128160252D01*
X115820260Y-128200499D01*
X115820261Y-128200500D01*
X115820264Y-128200500D01*
X116179739Y-128200500D01*
X116179739Y-128200499D01*
X116536948Y-128160252D01*
X116887408Y-128080262D01*
X117226708Y-127961536D01*
X117550582Y-127805566D01*
X117854956Y-127614315D01*
X118136003Y-127390188D01*
X118390188Y-127136003D01*
X118614315Y-126854956D01*
X118805566Y-126550582D01*
X118961536Y-126226708D01*
X119080262Y-125887408D01*
X119160252Y-125536948D01*
X119200500Y-125179736D01*
X119200500Y-124820264D01*
X119200499Y-124820259D01*
X171799500Y-124820259D01*
X171799500Y-125179740D01*
X171839746Y-125536935D01*
X171839748Y-125536951D01*
X171919737Y-125887407D01*
X171919741Y-125887419D01*
X172038465Y-126226711D01*
X172194432Y-126550579D01*
X172194434Y-126550582D01*
X172385685Y-126854956D01*
X172609812Y-127136003D01*
X172863997Y-127390188D01*
X173145044Y-127614315D01*
X173449418Y-127805566D01*
X173773292Y-127961536D01*
X174028119Y-128050703D01*
X174112580Y-128080258D01*
X174112592Y-128080262D01*
X174463052Y-128160252D01*
X174820260Y-128200499D01*
X174820261Y-128200500D01*
X174820264Y-128200500D01*
X175179739Y-128200500D01*
X175179739Y-128200499D01*
X175536948Y-128160252D01*
X175887408Y-128080262D01*
X176226708Y-127961536D01*
X176550582Y-127805566D01*
X176854956Y-127614315D01*
X177136003Y-127390188D01*
X177390188Y-127136003D01*
X177614315Y-126854956D01*
X177805566Y-126550582D01*
X177961536Y-126226708D01*
X178080262Y-125887408D01*
X178160252Y-125536948D01*
X178200500Y-125179736D01*
X178200500Y-124820264D01*
X178160252Y-124463052D01*
X178080262Y-124112592D01*
X177961536Y-123773292D01*
X177805566Y-123449418D01*
X177614315Y-123145044D01*
X177390188Y-122863997D01*
X177136003Y-122609812D01*
X176854956Y-122385685D01*
X176550582Y-122194434D01*
X176550579Y-122194432D01*
X176226711Y-122038465D01*
X175887419Y-121919741D01*
X175887407Y-121919737D01*
X175536951Y-121839748D01*
X175536935Y-121839746D01*
X175179740Y-121799500D01*
X175179736Y-121799500D01*
X174820264Y-121799500D01*
X174820259Y-121799500D01*
X174463064Y-121839746D01*
X174463048Y-121839748D01*
X174112592Y-121919737D01*
X174112580Y-121919741D01*
X173773288Y-122038465D01*
X173449420Y-122194432D01*
X173145045Y-122385684D01*
X172863997Y-122609811D01*
X172609811Y-122863997D01*
X172385684Y-123145045D01*
X172194432Y-123449420D01*
X172038465Y-123773288D01*
X171919741Y-124112580D01*
X171919737Y-124112592D01*
X171839748Y-124463048D01*
X171839746Y-124463064D01*
X171799500Y-124820259D01*
X119200499Y-124820259D01*
X119160252Y-124463052D01*
X119080262Y-124112592D01*
X118961536Y-123773292D01*
X118805566Y-123449418D01*
X118614315Y-123145044D01*
X118390188Y-122863997D01*
X118136003Y-122609812D01*
X117854956Y-122385685D01*
X117550582Y-122194434D01*
X117550579Y-122194432D01*
X117226711Y-122038465D01*
X116887419Y-121919741D01*
X116887407Y-121919737D01*
X116536951Y-121839748D01*
X116536935Y-121839746D01*
X116179740Y-121799500D01*
X116179736Y-121799500D01*
X115820264Y-121799500D01*
X115820259Y-121799500D01*
X115463064Y-121839746D01*
X115463048Y-121839748D01*
X115112592Y-121919737D01*
X115112580Y-121919741D01*
X114773288Y-122038465D01*
X114449420Y-122194432D01*
X114145045Y-122385684D01*
X113863997Y-122609811D01*
X113609811Y-122863997D01*
X113385684Y-123145045D01*
X113194432Y-123449420D01*
X113038465Y-123773288D01*
X112919741Y-124112580D01*
X112919737Y-124112592D01*
X112839748Y-124463048D01*
X112839746Y-124463064D01*
X112799500Y-124820259D01*
X112500500Y-124820259D01*
X112500500Y-115381902D01*
X114999500Y-115381902D01*
X114999500Y-115618097D01*
X115036446Y-115851368D01*
X115109433Y-116075996D01*
X115211000Y-116275330D01*
X115216657Y-116286433D01*
X115355483Y-116477510D01*
X115522490Y-116644517D01*
X115713567Y-116783343D01*
X115803378Y-116829104D01*
X115924003Y-116890566D01*
X115924005Y-116890566D01*
X115924008Y-116890568D01*
X116044412Y-116929689D01*
X116148631Y-116963553D01*
X116381903Y-117000500D01*
X116381908Y-117000500D01*
X116618097Y-117000500D01*
X116851368Y-116963553D01*
X116916442Y-116942409D01*
X117075992Y-116890568D01*
X117286433Y-116783343D01*
X117477510Y-116644517D01*
X117644517Y-116477510D01*
X117783343Y-116286433D01*
X117890568Y-116075992D01*
X117963553Y-115851368D01*
X117976482Y-115769737D01*
X118000500Y-115618097D01*
X118000500Y-115381902D01*
X117963553Y-115148631D01*
X117890566Y-114924003D01*
X117810315Y-114766503D01*
X117783343Y-114713567D01*
X117644517Y-114522490D01*
X117644508Y-114522481D01*
X117641353Y-114518786D01*
X117643022Y-114517360D01*
X117613910Y-114464045D01*
X117618894Y-114394353D01*
X117660766Y-114338420D01*
X117669980Y-114332148D01*
X117718343Y-114302317D01*
X117842315Y-114178345D01*
X117934356Y-114029124D01*
X117934358Y-114029119D01*
X117989505Y-113862697D01*
X117989506Y-113862690D01*
X117999999Y-113759986D01*
X118000000Y-113759973D01*
X118000000Y-113210000D01*
X117048482Y-113210000D01*
X117059111Y-113191591D01*
X117100000Y-113038991D01*
X117100000Y-112881009D01*
X117059111Y-112728409D01*
X117048482Y-112710000D01*
X117999999Y-112710000D01*
X117999999Y-112160028D01*
X117999998Y-112160013D01*
X117989505Y-112057302D01*
X117934358Y-111890880D01*
X117934356Y-111890875D01*
X117842315Y-111741654D01*
X117718345Y-111617684D01*
X117569124Y-111525643D01*
X117569119Y-111525641D01*
X117402697Y-111470494D01*
X117402690Y-111470493D01*
X117299986Y-111460000D01*
X116750000Y-111460000D01*
X116750000Y-112411517D01*
X116731591Y-112400889D01*
X116578991Y-112360000D01*
X116421009Y-112360000D01*
X116268409Y-112400889D01*
X116250000Y-112411517D01*
X116250000Y-111460000D01*
X115700028Y-111460000D01*
X115700012Y-111460001D01*
X115597302Y-111470494D01*
X115430880Y-111525641D01*
X115430875Y-111525643D01*
X115281654Y-111617684D01*
X115157684Y-111741654D01*
X115065643Y-111890875D01*
X115065641Y-111890880D01*
X115010494Y-112057302D01*
X115010493Y-112057309D01*
X115000000Y-112160013D01*
X115000000Y-112710000D01*
X115951518Y-112710000D01*
X115940889Y-112728409D01*
X115900000Y-112881009D01*
X115900000Y-113038991D01*
X115940889Y-113191591D01*
X115951518Y-113210000D01*
X115000001Y-113210000D01*
X115000001Y-113759986D01*
X115010494Y-113862697D01*
X115065641Y-114029119D01*
X115065643Y-114029124D01*
X115157684Y-114178345D01*
X115281655Y-114302316D01*
X115281659Y-114302319D01*
X115330020Y-114332149D01*
X115376745Y-114384097D01*
X115387966Y-114453059D01*
X115360123Y-114517141D01*
X115358632Y-114518773D01*
X115358647Y-114518786D01*
X115355485Y-114522488D01*
X115355483Y-114522490D01*
X115321040Y-114569897D01*
X115216657Y-114713566D01*
X115109433Y-114924003D01*
X115036446Y-115148631D01*
X114999500Y-115381902D01*
X112500500Y-115381902D01*
X112500500Y-84624000D01*
X112520185Y-84556961D01*
X112572989Y-84511206D01*
X112624500Y-84500000D01*
X120806967Y-84500000D01*
X120874006Y-84519685D01*
X120919761Y-84572489D01*
X120929705Y-84641647D01*
X120907285Y-84696885D01*
X120804675Y-84838115D01*
X120714454Y-85015180D01*
X120714453Y-85015183D01*
X120653047Y-85204175D01*
X120621960Y-85400452D01*
X120621960Y-85599173D01*
X120653047Y-85795450D01*
X120714453Y-85984442D01*
X120714454Y-85984445D01*
X120761539Y-86076853D01*
X120804673Y-86161507D01*
X120921479Y-86322277D01*
X121061996Y-86462794D01*
X121222766Y-86579600D01*
X121341292Y-86639992D01*
X121379240Y-86659328D01*
X121430036Y-86707303D01*
X121446831Y-86775124D01*
X121424293Y-86841259D01*
X121379240Y-86880298D01*
X121222765Y-86960026D01*
X121061993Y-87076834D01*
X120921481Y-87217346D01*
X120804673Y-87378118D01*
X120714454Y-87555180D01*
X120714453Y-87555183D01*
X120653047Y-87744175D01*
X120621960Y-87940452D01*
X120621960Y-88139173D01*
X120653047Y-88335450D01*
X120714453Y-88524442D01*
X120714454Y-88524445D01*
X120804673Y-88701507D01*
X120921479Y-88862277D01*
X121061996Y-89002794D01*
X121222766Y-89119600D01*
X121341292Y-89179992D01*
X121379240Y-89199328D01*
X121430036Y-89247303D01*
X121446831Y-89315124D01*
X121424293Y-89381259D01*
X121379240Y-89420298D01*
X121222765Y-89500026D01*
X121061993Y-89616834D01*
X120921481Y-89757346D01*
X120804673Y-89918118D01*
X120714454Y-90095180D01*
X120714453Y-90095183D01*
X120653047Y-90284175D01*
X120621960Y-90480452D01*
X120621960Y-90679173D01*
X120653047Y-90875450D01*
X120714453Y-91064442D01*
X120714454Y-91064445D01*
X120804673Y-91241507D01*
X120921479Y-91402277D01*
X121061996Y-91542794D01*
X121222766Y-91659600D01*
X121341292Y-91719992D01*
X121379240Y-91739328D01*
X121430036Y-91787303D01*
X121446831Y-91855124D01*
X121424293Y-91921259D01*
X121379240Y-91960298D01*
X121222765Y-92040026D01*
X121061993Y-92156834D01*
X120921481Y-92297346D01*
X120804673Y-92458118D01*
X120714454Y-92635180D01*
X120714453Y-92635183D01*
X120653047Y-92824175D01*
X120621960Y-93020452D01*
X120621960Y-93219173D01*
X120653047Y-93415450D01*
X120714453Y-93604442D01*
X120714454Y-93604445D01*
X120804673Y-93781507D01*
X120921479Y-93942277D01*
X121061996Y-94082794D01*
X121222766Y-94199600D01*
X121341292Y-94259992D01*
X121379240Y-94279328D01*
X121430036Y-94327303D01*
X121446831Y-94395124D01*
X121424293Y-94461259D01*
X121379240Y-94500298D01*
X121222765Y-94580026D01*
X121061993Y-94696834D01*
X120921481Y-94837346D01*
X120804673Y-94998118D01*
X120714454Y-95175180D01*
X120714453Y-95175183D01*
X120653047Y-95364175D01*
X120621960Y-95560452D01*
X120621960Y-95759173D01*
X120653047Y-95955450D01*
X120714453Y-96144442D01*
X120714454Y-96144445D01*
X120804673Y-96321507D01*
X120921479Y-96482277D01*
X121061996Y-96622794D01*
X121222766Y-96739600D01*
X121341292Y-96799992D01*
X121379240Y-96819328D01*
X121430036Y-96867303D01*
X121446831Y-96935124D01*
X121424293Y-97001259D01*
X121379240Y-97040298D01*
X121222765Y-97120026D01*
X121061993Y-97236834D01*
X120921481Y-97377346D01*
X120804673Y-97538118D01*
X120714454Y-97715180D01*
X120714453Y-97715183D01*
X120653047Y-97904175D01*
X120621960Y-98100452D01*
X120621960Y-98299173D01*
X120653047Y-98495450D01*
X120714453Y-98684442D01*
X120714454Y-98684445D01*
X120794707Y-98841947D01*
X120804673Y-98861507D01*
X120921479Y-99022277D01*
X121061996Y-99162794D01*
X121222766Y-99279600D01*
X121318557Y-99328408D01*
X121379240Y-99359328D01*
X121430036Y-99407303D01*
X121446831Y-99475124D01*
X121424293Y-99541259D01*
X121379240Y-99580298D01*
X121222765Y-99660026D01*
X121061993Y-99776834D01*
X120921481Y-99917346D01*
X120804673Y-100078118D01*
X120714454Y-100255180D01*
X120714453Y-100255183D01*
X120653047Y-100444175D01*
X120640325Y-100524500D01*
X120621960Y-100640452D01*
X120621960Y-100839174D01*
X120624414Y-100854667D01*
X120653047Y-101035450D01*
X120714453Y-101224442D01*
X120714454Y-101224445D01*
X120804673Y-101401507D01*
X120921479Y-101562277D01*
X121061996Y-101702794D01*
X121222766Y-101819600D01*
X121341292Y-101879992D01*
X121379240Y-101899328D01*
X121430036Y-101947303D01*
X121446831Y-102015124D01*
X121424293Y-102081259D01*
X121379240Y-102120298D01*
X121222765Y-102200026D01*
X121061993Y-102316834D01*
X120921481Y-102457346D01*
X120804673Y-102618118D01*
X120714454Y-102795180D01*
X120714453Y-102795183D01*
X120653047Y-102984175D01*
X120621960Y-103180452D01*
X120621960Y-103379173D01*
X120653047Y-103575450D01*
X120714453Y-103764442D01*
X120714454Y-103764445D01*
X120786232Y-103905315D01*
X120804673Y-103941507D01*
X120921479Y-104102277D01*
X121061996Y-104242794D01*
X121222766Y-104359600D01*
X121341292Y-104419992D01*
X121379240Y-104439328D01*
X121430036Y-104487303D01*
X121446831Y-104555124D01*
X121424293Y-104621259D01*
X121379240Y-104660298D01*
X121222765Y-104740026D01*
X121061993Y-104856834D01*
X120921481Y-104997346D01*
X120804673Y-105158118D01*
X120714454Y-105335180D01*
X120714453Y-105335183D01*
X120653047Y-105524175D01*
X120621960Y-105720452D01*
X120621960Y-105919173D01*
X120653047Y-106115450D01*
X120714453Y-106304442D01*
X120714454Y-106304445D01*
X120798969Y-106470313D01*
X120804673Y-106481507D01*
X120921479Y-106642277D01*
X121061996Y-106782794D01*
X121222766Y-106899600D01*
X121341292Y-106959992D01*
X121379240Y-106979328D01*
X121430036Y-107027303D01*
X121446831Y-107095124D01*
X121424293Y-107161259D01*
X121379240Y-107200298D01*
X121222765Y-107280026D01*
X121061993Y-107396834D01*
X120921481Y-107537346D01*
X120804673Y-107698118D01*
X120714454Y-107875180D01*
X120714453Y-107875183D01*
X120653047Y-108064175D01*
X120621960Y-108260452D01*
X120621960Y-108459173D01*
X120653047Y-108655450D01*
X120714453Y-108844442D01*
X120714454Y-108844445D01*
X120786232Y-108985315D01*
X120804673Y-109021507D01*
X120921479Y-109182277D01*
X121061996Y-109322794D01*
X121222766Y-109439600D01*
X121330960Y-109494728D01*
X121379240Y-109519328D01*
X121430036Y-109567303D01*
X121446831Y-109635124D01*
X121424293Y-109701259D01*
X121379240Y-109740298D01*
X121222765Y-109820026D01*
X121061993Y-109936834D01*
X120921481Y-110077346D01*
X120804673Y-110238118D01*
X120714454Y-110415180D01*
X120714453Y-110415183D01*
X120653047Y-110604175D01*
X120621960Y-110800452D01*
X120621960Y-110999173D01*
X120653047Y-111195450D01*
X120714453Y-111384442D01*
X120714454Y-111384445D01*
X120773588Y-111500500D01*
X120804673Y-111561507D01*
X120921479Y-111722277D01*
X121061996Y-111862794D01*
X121222766Y-111979600D01*
X121341292Y-112039992D01*
X121379240Y-112059328D01*
X121430036Y-112107303D01*
X121446831Y-112175124D01*
X121424293Y-112241259D01*
X121379240Y-112280298D01*
X121222765Y-112360026D01*
X121061993Y-112476834D01*
X120921481Y-112617346D01*
X120804673Y-112778118D01*
X120714454Y-112955180D01*
X120714453Y-112955183D01*
X120653047Y-113144175D01*
X120621960Y-113340452D01*
X120621960Y-113539173D01*
X120653047Y-113735450D01*
X120714453Y-113924442D01*
X120714454Y-113924445D01*
X120771523Y-114036447D01*
X120804673Y-114101507D01*
X120921479Y-114262277D01*
X121061996Y-114402794D01*
X121222766Y-114519600D01*
X121379792Y-114599609D01*
X121430587Y-114647582D01*
X121447382Y-114715403D01*
X121424845Y-114781538D01*
X121379792Y-114820577D01*
X121223029Y-114900452D01*
X121062320Y-115017216D01*
X121062319Y-115017216D01*
X120921863Y-115157672D01*
X120921863Y-115157673D01*
X120805101Y-115318380D01*
X120714916Y-115495377D01*
X120653534Y-115684295D01*
X120646325Y-115729812D01*
X120646325Y-115729813D01*
X121756774Y-115729813D01*
X121752380Y-115734207D01*
X121699719Y-115825419D01*
X121672460Y-115927152D01*
X121672460Y-116032474D01*
X121699719Y-116134207D01*
X121752380Y-116225419D01*
X121756774Y-116229813D01*
X120646325Y-116229813D01*
X120653534Y-116275330D01*
X120714916Y-116464248D01*
X120805101Y-116641245D01*
X120921863Y-116801952D01*
X120921863Y-116801953D01*
X121062319Y-116942409D01*
X121223027Y-117059171D01*
X121379791Y-117139047D01*
X121430587Y-117187022D01*
X121447382Y-117254843D01*
X121424844Y-117320978D01*
X121379791Y-117360017D01*
X121222765Y-117440026D01*
X121061993Y-117556834D01*
X120921481Y-117697346D01*
X120804673Y-117858118D01*
X120714454Y-118035180D01*
X120714453Y-118035183D01*
X120653047Y-118224175D01*
X120621960Y-118420452D01*
X120621960Y-118619173D01*
X120653047Y-118815450D01*
X120714453Y-119004442D01*
X120714454Y-119004445D01*
X120802699Y-119177632D01*
X120804673Y-119181507D01*
X120921479Y-119342277D01*
X121061996Y-119482794D01*
X121222766Y-119599600D01*
X121309609Y-119643848D01*
X121399827Y-119689818D01*
X121399830Y-119689819D01*
X121455830Y-119708014D01*
X121588824Y-119751226D01*
X121785099Y-119782313D01*
X121785100Y-119782313D01*
X122359820Y-119782313D01*
X122359821Y-119782313D01*
X122556096Y-119751226D01*
X122745092Y-119689818D01*
X122922154Y-119599600D01*
X123082924Y-119482794D01*
X123223441Y-119342277D01*
X123340247Y-119181507D01*
X123430465Y-119004445D01*
X123491873Y-118815449D01*
X123522960Y-118619174D01*
X123522960Y-118420452D01*
X123491873Y-118224177D01*
X123430465Y-118035181D01*
X123430465Y-118035180D01*
X123340246Y-117858118D01*
X123325153Y-117837344D01*
X123223441Y-117697349D01*
X123082924Y-117556832D01*
X122922154Y-117440026D01*
X122765127Y-117360016D01*
X122714332Y-117312042D01*
X122697537Y-117244221D01*
X122720074Y-117178086D01*
X122765128Y-117139047D01*
X122921892Y-117059171D01*
X123082599Y-116942409D01*
X123082600Y-116942409D01*
X123223056Y-116801953D01*
X123223056Y-116801952D01*
X123339818Y-116641245D01*
X123430003Y-116464248D01*
X123491385Y-116275330D01*
X123498594Y-116229813D01*
X122388146Y-116229813D01*
X122392540Y-116225419D01*
X122445201Y-116134207D01*
X122472460Y-116032474D01*
X122472460Y-115927152D01*
X122445201Y-115825419D01*
X122392540Y-115734207D01*
X122388146Y-115729813D01*
X123498595Y-115729813D01*
X123498594Y-115729812D01*
X123491385Y-115684295D01*
X123430003Y-115495377D01*
X123339818Y-115318380D01*
X123223056Y-115157673D01*
X123223056Y-115157672D01*
X123082600Y-115017216D01*
X122921892Y-114900454D01*
X122765128Y-114820578D01*
X122714332Y-114772603D01*
X122697537Y-114704782D01*
X122720075Y-114638647D01*
X122765127Y-114599609D01*
X122922154Y-114519600D01*
X123082924Y-114402794D01*
X123223441Y-114262277D01*
X123340247Y-114101507D01*
X123430465Y-113924445D01*
X123491873Y-113735449D01*
X123522960Y-113539174D01*
X123522960Y-113340452D01*
X123491873Y-113144177D01*
X123457696Y-113038991D01*
X123430466Y-112955183D01*
X123430465Y-112955180D01*
X123366653Y-112829944D01*
X123340247Y-112778119D01*
X123223441Y-112617349D01*
X123082924Y-112476832D01*
X122922154Y-112360026D01*
X122765678Y-112280297D01*
X122714883Y-112232323D01*
X122698088Y-112164502D01*
X122720625Y-112098367D01*
X122765678Y-112059328D01*
X122922154Y-111979600D01*
X123082924Y-111862794D01*
X123223441Y-111722277D01*
X123340247Y-111561507D01*
X123430465Y-111384445D01*
X123491873Y-111195449D01*
X123522960Y-110999174D01*
X123522960Y-110800452D01*
X123491873Y-110604177D01*
X123430465Y-110415181D01*
X123430465Y-110415180D01*
X123340246Y-110238118D01*
X123223441Y-110077349D01*
X123082924Y-109936832D01*
X122922154Y-109820026D01*
X122765678Y-109740297D01*
X122714883Y-109692323D01*
X122698088Y-109624502D01*
X122720625Y-109558367D01*
X122765678Y-109519328D01*
X122922154Y-109439600D01*
X123082924Y-109322794D01*
X123223441Y-109182277D01*
X123311243Y-109061428D01*
X123366573Y-109018762D01*
X123411561Y-109010313D01*
X124039005Y-109010313D01*
X124106044Y-109029998D01*
X124126686Y-109046632D01*
X125958265Y-110878210D01*
X127654483Y-112574428D01*
X127745090Y-112665035D01*
X127745091Y-112665036D01*
X127851625Y-112736220D01*
X127851631Y-112736223D01*
X127851632Y-112736224D01*
X127970015Y-112785260D01*
X127970019Y-112785260D01*
X127970020Y-112785261D01*
X128095687Y-112810259D01*
X128095690Y-112810259D01*
X145990871Y-112810259D01*
X146057910Y-112829944D01*
X146103665Y-112882748D01*
X146113609Y-112951906D01*
X146108802Y-112972577D01*
X146053047Y-113144175D01*
X146021960Y-113340452D01*
X146021960Y-113539173D01*
X146053047Y-113735450D01*
X146114453Y-113924442D01*
X146114454Y-113924445D01*
X146171523Y-114036447D01*
X146204673Y-114101507D01*
X146321479Y-114262277D01*
X146461996Y-114402794D01*
X146622766Y-114519600D01*
X146779792Y-114599609D01*
X146830587Y-114647582D01*
X146847382Y-114715403D01*
X146824845Y-114781538D01*
X146779792Y-114820577D01*
X146623029Y-114900452D01*
X146462320Y-115017216D01*
X146462319Y-115017216D01*
X146321863Y-115157672D01*
X146321863Y-115157673D01*
X146205101Y-115318380D01*
X146114916Y-115495377D01*
X146053534Y-115684295D01*
X146046325Y-115729812D01*
X146046325Y-115729813D01*
X147156774Y-115729813D01*
X147152380Y-115734207D01*
X147099719Y-115825419D01*
X147072460Y-115927152D01*
X147072460Y-116032474D01*
X147099719Y-116134207D01*
X147152380Y-116225419D01*
X147156774Y-116229813D01*
X146046325Y-116229813D01*
X146053534Y-116275330D01*
X146114916Y-116464248D01*
X146205101Y-116641245D01*
X146321863Y-116801952D01*
X146321863Y-116801953D01*
X146462319Y-116942409D01*
X146623027Y-117059171D01*
X146779791Y-117139047D01*
X146830587Y-117187022D01*
X146847382Y-117254843D01*
X146824844Y-117320978D01*
X146779791Y-117360017D01*
X146622765Y-117440026D01*
X146461993Y-117556834D01*
X146321481Y-117697346D01*
X146204673Y-117858118D01*
X146114454Y-118035180D01*
X146114453Y-118035183D01*
X146053047Y-118224175D01*
X146021960Y-118420452D01*
X146021960Y-118619173D01*
X146053047Y-118815450D01*
X146114453Y-119004442D01*
X146114454Y-119004445D01*
X146202699Y-119177632D01*
X146204673Y-119181507D01*
X146321479Y-119342277D01*
X146461996Y-119482794D01*
X146622766Y-119599600D01*
X146709609Y-119643848D01*
X146799827Y-119689818D01*
X146799830Y-119689819D01*
X146855830Y-119708014D01*
X146988824Y-119751226D01*
X147185099Y-119782313D01*
X147185100Y-119782313D01*
X147759820Y-119782313D01*
X147759821Y-119782313D01*
X147956096Y-119751226D01*
X148145092Y-119689818D01*
X148322154Y-119599600D01*
X148482924Y-119482794D01*
X148623441Y-119342277D01*
X148699206Y-119237995D01*
X152635500Y-119237995D01*
X152635500Y-119474004D01*
X152635501Y-119474020D01*
X152666306Y-119708010D01*
X152727394Y-119935993D01*
X152817714Y-120154045D01*
X152817719Y-120154056D01*
X152888677Y-120276957D01*
X152935727Y-120358450D01*
X152935729Y-120358453D01*
X152935730Y-120358454D01*
X153079406Y-120545697D01*
X153079412Y-120545704D01*
X153246295Y-120712587D01*
X153246302Y-120712593D01*
X153262909Y-120725336D01*
X153433550Y-120856273D01*
X153564918Y-120932118D01*
X153637943Y-120974280D01*
X153637948Y-120974282D01*
X153637951Y-120974284D01*
X153856007Y-121064606D01*
X154083986Y-121125693D01*
X154317989Y-121156500D01*
X154317996Y-121156500D01*
X154554004Y-121156500D01*
X154554011Y-121156500D01*
X154788014Y-121125693D01*
X155015993Y-121064606D01*
X155234049Y-120974284D01*
X155438450Y-120856273D01*
X155625699Y-120712592D01*
X155792592Y-120545699D01*
X155936273Y-120358450D01*
X156054284Y-120154049D01*
X156144606Y-119935993D01*
X156205693Y-119708014D01*
X156236500Y-119474011D01*
X156236500Y-119237989D01*
X156205693Y-119003986D01*
X156144606Y-118776007D01*
X156054284Y-118557951D01*
X156054282Y-118557948D01*
X156054280Y-118557943D01*
X155974899Y-118420452D01*
X155936273Y-118353550D01*
X155861414Y-118255992D01*
X155861407Y-118255983D01*
X157715500Y-118255983D01*
X157715500Y-120456001D01*
X157715501Y-120456018D01*
X157726000Y-120558796D01*
X157726001Y-120558799D01*
X157776962Y-120712587D01*
X157781186Y-120725334D01*
X157873288Y-120874656D01*
X157997344Y-120998712D01*
X158146666Y-121090814D01*
X158313203Y-121145999D01*
X158415991Y-121156500D01*
X160616008Y-121156499D01*
X160718797Y-121145999D01*
X160885334Y-121090814D01*
X161034656Y-120998712D01*
X161158712Y-120874656D01*
X161250814Y-120725334D01*
X161305999Y-120558797D01*
X161316500Y-120456009D01*
X161316499Y-118255992D01*
X161305999Y-118153203D01*
X161250814Y-117986666D01*
X161158712Y-117837344D01*
X161034656Y-117713288D01*
X161013085Y-117699983D01*
X172499500Y-117699983D01*
X172499500Y-119300001D01*
X172499501Y-119300018D01*
X172510000Y-119402796D01*
X172510001Y-119402799D01*
X172533599Y-119474011D01*
X172565186Y-119569334D01*
X172657288Y-119718656D01*
X172781344Y-119842712D01*
X172930666Y-119934814D01*
X173097203Y-119989999D01*
X173199991Y-120000500D01*
X174800008Y-120000499D01*
X174902797Y-119989999D01*
X175069334Y-119934814D01*
X175218656Y-119842712D01*
X175342712Y-119718656D01*
X175434814Y-119569334D01*
X175489999Y-119402797D01*
X175500500Y-119300009D01*
X175500499Y-117699992D01*
X175489999Y-117597203D01*
X175434814Y-117430666D01*
X175342712Y-117281344D01*
X175218656Y-117157288D01*
X175069334Y-117065186D01*
X174902797Y-117010001D01*
X174902795Y-117010000D01*
X174800016Y-116999500D01*
X174737308Y-116999500D01*
X174670269Y-116979815D01*
X174649627Y-116963181D01*
X174211059Y-116524612D01*
X174231591Y-116519111D01*
X174368408Y-116440119D01*
X174480119Y-116328408D01*
X174559111Y-116191591D01*
X174564612Y-116171058D01*
X175222658Y-116829105D01*
X175222658Y-116829104D01*
X175282914Y-116746169D01*
X175282918Y-116746163D01*
X175390102Y-116535802D01*
X175463065Y-116311247D01*
X175500000Y-116078052D01*
X175500000Y-115841947D01*
X175463065Y-115608752D01*
X175390102Y-115384197D01*
X175282914Y-115173828D01*
X175222658Y-115090894D01*
X175222658Y-115090893D01*
X174564612Y-115748940D01*
X174559111Y-115728409D01*
X174480119Y-115591592D01*
X174368408Y-115479881D01*
X174231591Y-115400889D01*
X174211059Y-115395387D01*
X174869105Y-114737340D01*
X174869104Y-114737338D01*
X174786174Y-114677087D01*
X174575802Y-114569897D01*
X174351247Y-114496934D01*
X174351248Y-114496934D01*
X174118052Y-114460000D01*
X173881948Y-114460000D01*
X173648752Y-114496934D01*
X173424197Y-114569897D01*
X173213830Y-114677084D01*
X173130894Y-114737340D01*
X173788941Y-115395387D01*
X173768409Y-115400889D01*
X173631592Y-115479881D01*
X173519881Y-115591592D01*
X173440889Y-115728409D01*
X173435387Y-115748940D01*
X172777340Y-115090894D01*
X172717084Y-115173830D01*
X172609897Y-115384197D01*
X172536934Y-115608752D01*
X172500000Y-115841947D01*
X172500000Y-116078052D01*
X172536934Y-116311247D01*
X172609897Y-116535802D01*
X172717087Y-116746174D01*
X172777338Y-116829104D01*
X172777340Y-116829105D01*
X173435387Y-116171058D01*
X173440889Y-116191591D01*
X173519881Y-116328408D01*
X173631592Y-116440119D01*
X173768409Y-116519111D01*
X173788940Y-116524612D01*
X173350371Y-116963181D01*
X173289048Y-116996666D01*
X173262692Y-116999500D01*
X173199999Y-116999500D01*
X173199980Y-116999501D01*
X173097203Y-117010000D01*
X173097200Y-117010001D01*
X172930668Y-117065185D01*
X172930663Y-117065187D01*
X172781342Y-117157289D01*
X172657289Y-117281342D01*
X172565187Y-117430663D01*
X172565186Y-117430666D01*
X172510001Y-117597203D01*
X172510001Y-117597204D01*
X172510000Y-117597204D01*
X172499500Y-117699983D01*
X161013085Y-117699983D01*
X160885334Y-117621186D01*
X160718797Y-117566001D01*
X160718795Y-117566000D01*
X160616010Y-117555500D01*
X158415998Y-117555500D01*
X158415981Y-117555501D01*
X158313203Y-117566000D01*
X158313200Y-117566001D01*
X158146668Y-117621185D01*
X158146663Y-117621187D01*
X157997342Y-117713289D01*
X157873289Y-117837342D01*
X157781187Y-117986663D01*
X157781185Y-117986668D01*
X157776962Y-117999412D01*
X157726001Y-118153203D01*
X157726001Y-118153204D01*
X157726000Y-118153204D01*
X157715500Y-118255983D01*
X155861407Y-118255983D01*
X155792593Y-118166302D01*
X155792587Y-118166295D01*
X155625704Y-117999412D01*
X155625697Y-117999406D01*
X155438454Y-117855730D01*
X155438453Y-117855729D01*
X155438450Y-117855727D01*
X155356957Y-117808677D01*
X155234056Y-117737719D01*
X155234045Y-117737714D01*
X155015993Y-117647394D01*
X154788010Y-117586306D01*
X154554020Y-117555501D01*
X154554017Y-117555500D01*
X154554011Y-117555500D01*
X154317989Y-117555500D01*
X154317983Y-117555500D01*
X154317979Y-117555501D01*
X154083989Y-117586306D01*
X153856006Y-117647394D01*
X153637954Y-117737714D01*
X153637943Y-117737719D01*
X153433545Y-117855730D01*
X153246302Y-117999406D01*
X153246295Y-117999412D01*
X153079412Y-118166295D01*
X153079406Y-118166302D01*
X152935730Y-118353545D01*
X152817719Y-118557943D01*
X152817714Y-118557954D01*
X152727394Y-118776006D01*
X152666306Y-119003989D01*
X152635501Y-119237979D01*
X152635500Y-119237995D01*
X148699206Y-119237995D01*
X148740247Y-119181507D01*
X148741189Y-119179657D01*
X148742222Y-119177632D01*
X148830465Y-119004445D01*
X148830466Y-119004442D01*
X148832679Y-118997628D01*
X148891873Y-118815449D01*
X148922960Y-118619174D01*
X148922960Y-118420452D01*
X148891873Y-118224177D01*
X148830465Y-118035181D01*
X148830465Y-118035180D01*
X148740246Y-117858118D01*
X148725153Y-117837344D01*
X148623441Y-117697349D01*
X148482924Y-117556832D01*
X148322154Y-117440026D01*
X148165127Y-117360016D01*
X148114332Y-117312042D01*
X148097537Y-117244221D01*
X148120074Y-117178086D01*
X148165128Y-117139047D01*
X148321892Y-117059171D01*
X148482599Y-116942409D01*
X148482600Y-116942409D01*
X148623056Y-116801953D01*
X148623056Y-116801952D01*
X148739818Y-116641245D01*
X148830003Y-116464248D01*
X148891385Y-116275330D01*
X148898594Y-116229813D01*
X147788146Y-116229813D01*
X147792540Y-116225419D01*
X147845201Y-116134207D01*
X147872460Y-116032474D01*
X147872460Y-115927152D01*
X147845201Y-115825419D01*
X147792540Y-115734207D01*
X147788146Y-115729813D01*
X148898595Y-115729813D01*
X148898594Y-115729812D01*
X148891385Y-115684295D01*
X148830003Y-115495377D01*
X148739818Y-115318380D01*
X148623056Y-115157673D01*
X148623056Y-115157672D01*
X148482600Y-115017216D01*
X148321892Y-114900454D01*
X148165128Y-114820578D01*
X148114332Y-114772603D01*
X148097537Y-114704782D01*
X148120075Y-114638647D01*
X148165127Y-114599609D01*
X148322154Y-114519600D01*
X148482924Y-114402794D01*
X148623441Y-114262277D01*
X148740247Y-114101507D01*
X148830465Y-113924445D01*
X148891873Y-113735449D01*
X148922960Y-113539174D01*
X148922960Y-113340452D01*
X148891873Y-113144177D01*
X148874046Y-113089313D01*
X148836118Y-112972577D01*
X148834123Y-112902735D01*
X148870204Y-112842903D01*
X148932905Y-112812075D01*
X148954049Y-112810259D01*
X159838951Y-112810259D01*
X159905990Y-112829944D01*
X159926632Y-112846578D01*
X162182984Y-115102930D01*
X162216469Y-115164253D01*
X162216920Y-115166420D01*
X162230261Y-115233489D01*
X162230264Y-115233501D01*
X162290602Y-115379172D01*
X162290609Y-115379185D01*
X162378210Y-115510288D01*
X162378213Y-115510292D01*
X162489707Y-115621786D01*
X162489711Y-115621789D01*
X162620814Y-115709390D01*
X162620827Y-115709397D01*
X162680725Y-115734207D01*
X162766503Y-115769737D01*
X162921153Y-115800499D01*
X162921156Y-115800500D01*
X162921158Y-115800500D01*
X163078844Y-115800500D01*
X163078845Y-115800499D01*
X163233497Y-115769737D01*
X163379179Y-115709394D01*
X163510289Y-115621789D01*
X163621789Y-115510289D01*
X163709394Y-115379179D01*
X163769737Y-115233497D01*
X163800500Y-115078842D01*
X163800500Y-114921158D01*
X163800500Y-114921155D01*
X163778149Y-114808791D01*
X163778149Y-114808790D01*
X163769738Y-114766510D01*
X163769737Y-114766503D01*
X163769735Y-114766498D01*
X163709397Y-114620827D01*
X163709390Y-114620814D01*
X163621789Y-114489711D01*
X163621786Y-114489707D01*
X163510292Y-114378213D01*
X163510288Y-114378210D01*
X163379185Y-114290609D01*
X163379172Y-114290602D01*
X163233501Y-114230264D01*
X163233489Y-114230261D01*
X163166420Y-114216920D01*
X163104509Y-114184535D01*
X163102930Y-114182984D01*
X160574433Y-111654486D01*
X160574432Y-111654485D01*
X160519355Y-111617684D01*
X160467886Y-111583294D01*
X160349503Y-111534258D01*
X160349497Y-111534256D01*
X160223830Y-111509259D01*
X160223828Y-111509259D01*
X158710049Y-111509259D01*
X158643010Y-111489574D01*
X158597255Y-111436770D01*
X158587311Y-111367612D01*
X158616336Y-111304056D01*
X158622368Y-111297578D01*
X159233127Y-110686819D01*
X159294450Y-110653334D01*
X159320808Y-110650500D01*
X172375501Y-110650500D01*
X172442540Y-110670185D01*
X172488295Y-110722989D01*
X172499501Y-110774500D01*
X172499501Y-110800018D01*
X172510000Y-110902796D01*
X172510001Y-110902799D01*
X172541937Y-110999173D01*
X172565186Y-111069334D01*
X172657288Y-111218656D01*
X172781344Y-111342712D01*
X172930666Y-111434814D01*
X173097203Y-111489999D01*
X173199991Y-111500500D01*
X174800008Y-111500499D01*
X174902797Y-111489999D01*
X175069334Y-111434814D01*
X175218656Y-111342712D01*
X175342712Y-111218656D01*
X175434814Y-111069334D01*
X175489999Y-110902797D01*
X175500500Y-110800009D01*
X175500499Y-109199992D01*
X175489999Y-109097203D01*
X175434814Y-108930666D01*
X175342712Y-108781344D01*
X175218656Y-108657288D01*
X175069334Y-108565186D01*
X174902797Y-108510001D01*
X174902795Y-108510000D01*
X174800016Y-108499500D01*
X174737308Y-108499500D01*
X174670269Y-108479815D01*
X174649627Y-108463181D01*
X174211059Y-108024612D01*
X174231591Y-108019111D01*
X174368408Y-107940119D01*
X174480119Y-107828408D01*
X174559111Y-107691591D01*
X174564612Y-107671058D01*
X175222658Y-108329105D01*
X175222658Y-108329104D01*
X175282914Y-108246169D01*
X175282918Y-108246163D01*
X175390102Y-108035802D01*
X175463065Y-107811247D01*
X175500000Y-107578052D01*
X175500000Y-107341947D01*
X175463065Y-107108752D01*
X175390102Y-106884197D01*
X175282914Y-106673828D01*
X175222658Y-106590894D01*
X175222658Y-106590893D01*
X174564612Y-107248940D01*
X174559111Y-107228409D01*
X174480119Y-107091592D01*
X174368408Y-106979881D01*
X174231591Y-106900889D01*
X174211059Y-106895387D01*
X174869105Y-106237340D01*
X174869104Y-106237338D01*
X174786174Y-106177087D01*
X174575802Y-106069897D01*
X174351247Y-105996934D01*
X174351248Y-105996934D01*
X174118052Y-105960000D01*
X173881948Y-105960000D01*
X173648752Y-105996934D01*
X173424197Y-106069897D01*
X173213830Y-106177084D01*
X173130894Y-106237340D01*
X173788941Y-106895387D01*
X173768409Y-106900889D01*
X173631592Y-106979881D01*
X173519881Y-107091592D01*
X173440889Y-107228409D01*
X173435387Y-107248940D01*
X172777340Y-106590894D01*
X172717084Y-106673830D01*
X172609897Y-106884197D01*
X172536934Y-107108752D01*
X172500000Y-107341947D01*
X172500000Y-107578052D01*
X172536934Y-107811247D01*
X172609897Y-108035802D01*
X172717087Y-108246174D01*
X172777338Y-108329104D01*
X172777340Y-108329105D01*
X173435387Y-107671058D01*
X173440889Y-107691591D01*
X173519881Y-107828408D01*
X173631592Y-107940119D01*
X173768409Y-108019111D01*
X173788940Y-108024612D01*
X173350371Y-108463181D01*
X173289048Y-108496666D01*
X173262692Y-108499500D01*
X173199999Y-108499500D01*
X173199980Y-108499501D01*
X173097203Y-108510000D01*
X173097200Y-108510001D01*
X172930668Y-108565185D01*
X172930663Y-108565187D01*
X172781342Y-108657289D01*
X172657289Y-108781342D01*
X172565187Y-108930663D01*
X172565186Y-108930666D01*
X172510001Y-109097203D01*
X172510001Y-109097204D01*
X172510000Y-109097204D01*
X172499500Y-109199983D01*
X172499500Y-109225500D01*
X172479815Y-109292539D01*
X172427011Y-109338294D01*
X172375500Y-109349500D01*
X158935929Y-109349500D01*
X158810261Y-109374497D01*
X158810255Y-109374499D01*
X158691870Y-109423535D01*
X158585331Y-109494722D01*
X158585324Y-109494728D01*
X157397068Y-110682984D01*
X157335745Y-110716469D01*
X157333579Y-110716920D01*
X157266508Y-110730261D01*
X157266498Y-110730264D01*
X157120827Y-110790602D01*
X157120814Y-110790609D01*
X156989711Y-110878210D01*
X156989707Y-110878213D01*
X156878213Y-110989707D01*
X156878210Y-110989711D01*
X156790609Y-111120814D01*
X156790602Y-111120827D01*
X156730264Y-111266498D01*
X156730261Y-111266508D01*
X156701828Y-111409451D01*
X156669443Y-111471362D01*
X156608727Y-111505936D01*
X156580211Y-111509259D01*
X148960582Y-111509259D01*
X148893543Y-111489574D01*
X148847788Y-111436770D01*
X148837844Y-111367612D01*
X148842651Y-111346941D01*
X148884332Y-111218657D01*
X148891873Y-111195449D01*
X148922960Y-110999174D01*
X148922960Y-110800452D01*
X148891873Y-110604177D01*
X148830465Y-110415181D01*
X148830465Y-110415180D01*
X148740246Y-110238118D01*
X148623441Y-110077349D01*
X148482924Y-109936832D01*
X148322154Y-109820026D01*
X148165678Y-109740297D01*
X148114883Y-109692323D01*
X148098088Y-109624502D01*
X148120625Y-109558367D01*
X148165678Y-109519328D01*
X148322154Y-109439600D01*
X148482924Y-109322794D01*
X148623441Y-109182277D01*
X148711243Y-109061428D01*
X148766573Y-109018762D01*
X148811561Y-109010313D01*
X162204258Y-109010313D01*
X162288802Y-108993495D01*
X162329931Y-108985314D01*
X162448314Y-108936278D01*
X162462801Y-108926598D01*
X162554856Y-108865090D01*
X163102931Y-108317012D01*
X163164250Y-108283530D01*
X163166329Y-108283096D01*
X163233497Y-108269737D01*
X163379179Y-108209394D01*
X163510289Y-108121789D01*
X163621789Y-108010289D01*
X163709394Y-107879179D01*
X163711051Y-107875180D01*
X163730424Y-107828408D01*
X163769737Y-107733497D01*
X163800500Y-107578842D01*
X163800500Y-107421158D01*
X163800500Y-107421155D01*
X163788587Y-107361267D01*
X163788587Y-107361266D01*
X163769738Y-107266510D01*
X163769738Y-107266508D01*
X163769737Y-107266503D01*
X163726144Y-107161259D01*
X163709397Y-107120827D01*
X163709390Y-107120814D01*
X163621789Y-106989711D01*
X163621786Y-106989707D01*
X163510292Y-106878213D01*
X163510288Y-106878210D01*
X163379185Y-106790609D01*
X163379172Y-106790602D01*
X163233501Y-106730264D01*
X163233489Y-106730261D01*
X163078845Y-106699500D01*
X163078842Y-106699500D01*
X162921158Y-106699500D01*
X162921155Y-106699500D01*
X162766510Y-106730261D01*
X162766498Y-106730264D01*
X162620827Y-106790602D01*
X162620814Y-106790609D01*
X162489711Y-106878210D01*
X162489707Y-106878213D01*
X162378213Y-106989707D01*
X162378210Y-106989711D01*
X162290609Y-107120814D01*
X162290602Y-107120827D01*
X162230264Y-107266498D01*
X162230261Y-107266508D01*
X162216920Y-107333580D01*
X162184535Y-107395491D01*
X162182984Y-107397069D01*
X161907060Y-107672994D01*
X161845737Y-107706479D01*
X161819379Y-107709313D01*
X157509996Y-107709313D01*
X157442957Y-107689628D01*
X157397202Y-107636824D01*
X157387258Y-107567666D01*
X157416283Y-107504110D01*
X157422315Y-107497632D01*
X158723029Y-106196918D01*
X162733127Y-102186819D01*
X162794450Y-102153334D01*
X162820808Y-102150500D01*
X166813511Y-102150500D01*
X166880550Y-102170185D01*
X166914237Y-102204808D01*
X166914906Y-102204285D01*
X166919531Y-102210189D01*
X167039811Y-102330469D01*
X167039813Y-102330470D01*
X167039815Y-102330472D01*
X167185394Y-102418478D01*
X167347804Y-102469086D01*
X167418384Y-102475500D01*
X167418387Y-102475500D01*
X167931613Y-102475500D01*
X167931616Y-102475500D01*
X168002196Y-102469086D01*
X168164606Y-102418478D01*
X168310185Y-102330472D01*
X168340649Y-102300008D01*
X168412319Y-102228339D01*
X168473642Y-102194854D01*
X168543334Y-102199838D01*
X168587681Y-102228339D01*
X168689811Y-102330469D01*
X168689813Y-102330470D01*
X168689815Y-102330472D01*
X168835394Y-102418478D01*
X168997804Y-102469086D01*
X169068384Y-102475500D01*
X169068387Y-102475500D01*
X169581613Y-102475500D01*
X169581616Y-102475500D01*
X169652196Y-102469086D01*
X169814606Y-102418478D01*
X169960185Y-102330472D01*
X170080472Y-102210185D01*
X170080474Y-102210180D01*
X170085094Y-102204285D01*
X170086117Y-102205087D01*
X170131904Y-102163160D01*
X170186489Y-102150500D01*
X172375501Y-102150500D01*
X172442540Y-102170185D01*
X172488295Y-102222989D01*
X172499501Y-102274500D01*
X172499501Y-102300018D01*
X172510000Y-102402796D01*
X172510001Y-102402799D01*
X172565185Y-102569331D01*
X172565187Y-102569336D01*
X172600069Y-102625888D01*
X172657288Y-102718656D01*
X172781344Y-102842712D01*
X172930666Y-102934814D01*
X173097203Y-102989999D01*
X173199991Y-103000500D01*
X174800008Y-103000499D01*
X174902797Y-102989999D01*
X175069334Y-102934814D01*
X175218656Y-102842712D01*
X175342712Y-102718656D01*
X175434814Y-102569334D01*
X175489999Y-102402797D01*
X175500500Y-102300009D01*
X175500499Y-100699992D01*
X175493322Y-100629738D01*
X175489999Y-100597203D01*
X175489998Y-100597200D01*
X175468033Y-100530914D01*
X175434814Y-100430666D01*
X175342712Y-100281344D01*
X175218656Y-100157288D01*
X175069334Y-100065186D01*
X174902797Y-100010001D01*
X174902795Y-100010000D01*
X174800016Y-99999500D01*
X174737308Y-99999500D01*
X174670269Y-99979815D01*
X174649627Y-99963181D01*
X174211059Y-99524612D01*
X174231591Y-99519111D01*
X174368408Y-99440119D01*
X174480119Y-99328408D01*
X174559111Y-99191591D01*
X174564612Y-99171058D01*
X175222658Y-99829105D01*
X175222658Y-99829104D01*
X175282914Y-99746169D01*
X175282918Y-99746163D01*
X175390102Y-99535802D01*
X175463065Y-99311247D01*
X175500000Y-99078052D01*
X175500000Y-98841947D01*
X175463065Y-98608752D01*
X175390102Y-98384197D01*
X175282914Y-98173828D01*
X175222658Y-98090894D01*
X175222658Y-98090893D01*
X174564612Y-98748940D01*
X174559111Y-98728409D01*
X174480119Y-98591592D01*
X174368408Y-98479881D01*
X174231591Y-98400889D01*
X174211059Y-98395387D01*
X174869105Y-97737340D01*
X174869104Y-97737338D01*
X174786174Y-97677087D01*
X174575802Y-97569897D01*
X174351247Y-97496934D01*
X174351248Y-97496934D01*
X174118052Y-97460000D01*
X173881948Y-97460000D01*
X173648752Y-97496934D01*
X173424197Y-97569897D01*
X173213830Y-97677084D01*
X173130894Y-97737340D01*
X173788941Y-98395387D01*
X173768409Y-98400889D01*
X173631592Y-98479881D01*
X173519881Y-98591592D01*
X173440889Y-98728409D01*
X173435387Y-98748940D01*
X172777340Y-98090894D01*
X172717084Y-98173830D01*
X172609897Y-98384197D01*
X172536934Y-98608752D01*
X172500000Y-98841947D01*
X172500000Y-99078052D01*
X172536934Y-99311247D01*
X172609897Y-99535802D01*
X172717087Y-99746174D01*
X172777338Y-99829104D01*
X172777340Y-99829105D01*
X173435387Y-99171058D01*
X173440889Y-99191591D01*
X173519881Y-99328408D01*
X173631592Y-99440119D01*
X173768409Y-99519111D01*
X173788940Y-99524612D01*
X173350371Y-99963181D01*
X173289048Y-99996666D01*
X173262692Y-99999500D01*
X173199999Y-99999500D01*
X173199980Y-99999501D01*
X173097203Y-100010000D01*
X173097200Y-100010001D01*
X172930668Y-100065185D01*
X172930663Y-100065187D01*
X172781342Y-100157289D01*
X172657289Y-100281342D01*
X172565187Y-100430663D01*
X172565185Y-100430668D01*
X172560709Y-100444177D01*
X172510001Y-100597203D01*
X172510001Y-100597204D01*
X172510000Y-100597204D01*
X172499500Y-100699983D01*
X172499500Y-100725500D01*
X172479815Y-100792539D01*
X172427011Y-100838294D01*
X172375500Y-100849500D01*
X170186489Y-100849500D01*
X170119450Y-100829815D01*
X170085762Y-100795191D01*
X170085094Y-100795715D01*
X170080468Y-100789810D01*
X169960188Y-100669530D01*
X169912087Y-100640452D01*
X169814606Y-100581522D01*
X169652196Y-100530914D01*
X169652194Y-100530913D01*
X169652192Y-100530913D01*
X169602778Y-100526423D01*
X169581616Y-100524500D01*
X169068384Y-100524500D01*
X169049145Y-100526248D01*
X168997807Y-100530913D01*
X168835393Y-100581522D01*
X168689811Y-100669530D01*
X168689810Y-100669531D01*
X168587681Y-100771661D01*
X168526358Y-100805146D01*
X168456666Y-100800162D01*
X168412319Y-100771661D01*
X168310188Y-100669530D01*
X168262087Y-100640452D01*
X168164606Y-100581522D01*
X168002196Y-100530914D01*
X168002194Y-100530913D01*
X168002192Y-100530913D01*
X167952778Y-100526423D01*
X167931616Y-100524500D01*
X167418384Y-100524500D01*
X167399145Y-100526248D01*
X167347807Y-100530913D01*
X167185393Y-100581522D01*
X167039811Y-100669530D01*
X166919531Y-100789810D01*
X166914906Y-100795715D01*
X166913882Y-100794912D01*
X166868096Y-100836840D01*
X166813511Y-100849500D01*
X162435929Y-100849500D01*
X162310261Y-100874497D01*
X162310251Y-100874500D01*
X162261220Y-100894810D01*
X162191881Y-100923530D01*
X162191863Y-100923540D01*
X162085332Y-100994721D01*
X162085325Y-100994727D01*
X156766873Y-106313181D01*
X156705550Y-106346666D01*
X156679192Y-106349500D01*
X156119809Y-106349500D01*
X156052770Y-106329815D01*
X156007015Y-106277011D01*
X155997071Y-106207853D01*
X156026096Y-106144297D01*
X156032128Y-106137819D01*
X161315272Y-100854674D01*
X161315277Y-100854669D01*
X161386466Y-100748126D01*
X161426646Y-100651122D01*
X161435501Y-100629744D01*
X161455160Y-100530914D01*
X161460500Y-100504071D01*
X161460500Y-93481902D01*
X170499500Y-93481902D01*
X170499500Y-93718097D01*
X170536446Y-93951368D01*
X170609433Y-94175996D01*
X170698718Y-94351226D01*
X170716657Y-94386433D01*
X170855483Y-94577510D01*
X171022490Y-94744517D01*
X171213567Y-94883343D01*
X171312991Y-94934002D01*
X171424003Y-94990566D01*
X171424005Y-94990566D01*
X171424008Y-94990568D01*
X171447248Y-94998119D01*
X171648631Y-95063553D01*
X171881903Y-95100500D01*
X171881908Y-95100500D01*
X172118097Y-95100500D01*
X172351368Y-95063553D01*
X172575992Y-94990568D01*
X172786433Y-94883343D01*
X172977510Y-94744517D01*
X173144517Y-94577510D01*
X173283343Y-94386433D01*
X173390568Y-94175992D01*
X173463553Y-93951368D01*
X173464993Y-93942277D01*
X173500500Y-93718097D01*
X173500500Y-93481902D01*
X173463553Y-93248631D01*
X173390566Y-93024003D01*
X173283342Y-92813566D01*
X173144517Y-92622490D01*
X172977510Y-92455483D01*
X172786433Y-92316657D01*
X172748533Y-92297346D01*
X172575996Y-92209433D01*
X172351368Y-92136446D01*
X172118097Y-92099500D01*
X172118092Y-92099500D01*
X171881908Y-92099500D01*
X171881903Y-92099500D01*
X171648631Y-92136446D01*
X171424003Y-92209433D01*
X171213566Y-92316657D01*
X171104550Y-92395862D01*
X171022490Y-92455483D01*
X171022488Y-92455485D01*
X171022487Y-92455485D01*
X170855485Y-92622487D01*
X170855485Y-92622488D01*
X170855483Y-92622490D01*
X170846261Y-92635183D01*
X170716657Y-92813566D01*
X170609433Y-93024003D01*
X170536446Y-93248631D01*
X170499500Y-93481902D01*
X161460500Y-93481902D01*
X161460500Y-87150283D01*
X161480185Y-87083244D01*
X161532989Y-87037489D01*
X161533608Y-87037208D01*
X161540174Y-87034252D01*
X161540178Y-87034251D01*
X161614089Y-86989570D01*
X161683777Y-86947443D01*
X161683778Y-86947441D01*
X161683783Y-86947439D01*
X161802439Y-86828783D01*
X161889251Y-86685178D01*
X161939173Y-86524971D01*
X161945500Y-86455347D01*
X161945499Y-84952135D01*
X170499500Y-84952135D01*
X170499500Y-87047870D01*
X170499501Y-87047876D01*
X170505908Y-87107483D01*
X170556202Y-87242328D01*
X170556206Y-87242335D01*
X170642452Y-87357544D01*
X170642455Y-87357547D01*
X170757664Y-87443793D01*
X170757671Y-87443797D01*
X170892517Y-87494091D01*
X170892516Y-87494091D01*
X170899444Y-87494835D01*
X170952127Y-87500500D01*
X173047872Y-87500499D01*
X173107483Y-87494091D01*
X173242331Y-87443796D01*
X173357546Y-87357546D01*
X173443796Y-87242331D01*
X173494091Y-87107483D01*
X173500500Y-87047873D01*
X173500499Y-84952128D01*
X173494091Y-84892517D01*
X173473800Y-84838115D01*
X173443797Y-84757671D01*
X173443793Y-84757664D01*
X173357547Y-84642455D01*
X173357544Y-84642452D01*
X173242335Y-84556206D01*
X173242328Y-84556202D01*
X173107482Y-84505908D01*
X173107483Y-84505908D01*
X173047883Y-84499501D01*
X173047881Y-84499500D01*
X173047873Y-84499500D01*
X173047864Y-84499500D01*
X170952129Y-84499500D01*
X170952123Y-84499501D01*
X170892516Y-84505908D01*
X170757671Y-84556202D01*
X170757664Y-84556206D01*
X170642455Y-84642452D01*
X170642452Y-84642455D01*
X170556206Y-84757664D01*
X170556202Y-84757671D01*
X170505908Y-84892517D01*
X170499501Y-84952116D01*
X170499501Y-84952123D01*
X170499500Y-84952135D01*
X161945499Y-84952135D01*
X161945499Y-84184654D01*
X161945499Y-84184653D01*
X161945499Y-84184645D01*
X161939174Y-84115033D01*
X161939171Y-84115022D01*
X161889252Y-83954824D01*
X161889250Y-83954820D01*
X161802443Y-83811222D01*
X161802439Y-83811217D01*
X161683782Y-83692560D01*
X161683777Y-83692556D01*
X161540180Y-83605750D01*
X161540179Y-83605749D01*
X161540178Y-83605749D01*
X161379971Y-83555827D01*
X161379969Y-83555826D01*
X161379967Y-83555826D01*
X161331221Y-83551396D01*
X161310347Y-83549500D01*
X161310344Y-83549500D01*
X160309645Y-83549500D01*
X160240033Y-83555825D01*
X160240022Y-83555828D01*
X160079824Y-83605747D01*
X160079820Y-83605749D01*
X159936222Y-83692556D01*
X159936217Y-83692560D01*
X159817560Y-83811217D01*
X159817556Y-83811222D01*
X159730750Y-83954819D01*
X159680826Y-84115032D01*
X159674500Y-84184655D01*
X159674500Y-86455354D01*
X159680825Y-86524966D01*
X159680828Y-86524977D01*
X159730747Y-86685175D01*
X159730749Y-86685179D01*
X159817556Y-86828777D01*
X159817560Y-86828782D01*
X159936217Y-86947439D01*
X159936222Y-86947443D01*
X160079820Y-87034250D01*
X160086392Y-87037208D01*
X160139446Y-87082672D01*
X160159498Y-87149603D01*
X160159500Y-87150283D01*
X160159500Y-100119192D01*
X160139815Y-100186231D01*
X160123181Y-100206873D01*
X155197060Y-105132994D01*
X155135737Y-105166479D01*
X155109379Y-105169313D01*
X148811561Y-105169313D01*
X148744522Y-105149628D01*
X148711243Y-105118198D01*
X148623443Y-104997352D01*
X148623438Y-104997346D01*
X148482926Y-104856834D01*
X148482924Y-104856832D01*
X148322154Y-104740026D01*
X148165678Y-104660297D01*
X148114883Y-104612323D01*
X148098088Y-104544502D01*
X148120625Y-104478367D01*
X148165678Y-104439328D01*
X148322154Y-104359600D01*
X148482924Y-104242794D01*
X148623441Y-104102277D01*
X148711243Y-103981428D01*
X148766573Y-103938762D01*
X148811561Y-103930313D01*
X149284258Y-103930313D01*
X149368802Y-103913495D01*
X149409931Y-103905314D01*
X149528314Y-103856278D01*
X149531023Y-103854467D01*
X149531959Y-103853843D01*
X149567178Y-103830310D01*
X149634856Y-103785090D01*
X153306254Y-100113691D01*
X153367575Y-100080208D01*
X153437267Y-100085192D01*
X153481614Y-100113693D01*
X153489707Y-100121786D01*
X153489711Y-100121789D01*
X153620814Y-100209390D01*
X153620827Y-100209397D01*
X153731359Y-100255180D01*
X153766503Y-100269737D01*
X153921153Y-100300499D01*
X153921156Y-100300500D01*
X153921158Y-100300500D01*
X154078844Y-100300500D01*
X154078845Y-100300499D01*
X154233497Y-100269737D01*
X154379179Y-100209394D01*
X154510289Y-100121789D01*
X154621789Y-100010289D01*
X154709394Y-99879179D01*
X154769737Y-99733497D01*
X154783079Y-99666416D01*
X154815463Y-99604509D01*
X154816958Y-99602986D01*
X156235276Y-98184670D01*
X156291548Y-98100452D01*
X156306464Y-98078129D01*
X156306465Y-98078127D01*
X156355501Y-97959744D01*
X156366554Y-97904177D01*
X156380500Y-97834069D01*
X156380500Y-87150283D01*
X156400185Y-87083244D01*
X156452989Y-87037489D01*
X156453608Y-87037208D01*
X156460174Y-87034252D01*
X156460178Y-87034251D01*
X156534089Y-86989570D01*
X156603777Y-86947443D01*
X156603778Y-86947441D01*
X156603783Y-86947439D01*
X156722439Y-86828783D01*
X156809251Y-86685178D01*
X156859173Y-86524971D01*
X156865500Y-86455347D01*
X156865500Y-86094500D01*
X156868050Y-86085814D01*
X156866762Y-86076853D01*
X156877740Y-86052812D01*
X156885185Y-86027461D01*
X156892025Y-86021533D01*
X156895787Y-86013297D01*
X156918021Y-85999007D01*
X156937989Y-85981706D01*
X156948503Y-85979418D01*
X156954565Y-85975523D01*
X156989500Y-85970500D01*
X157010501Y-85970500D01*
X157077540Y-85990185D01*
X157123295Y-86042989D01*
X157134501Y-86094500D01*
X157134501Y-86455354D01*
X157140825Y-86524966D01*
X157140828Y-86524977D01*
X157190747Y-86685175D01*
X157190749Y-86685179D01*
X157277556Y-86828777D01*
X157277560Y-86828782D01*
X157396217Y-86947439D01*
X157396222Y-86947443D01*
X157516815Y-87020343D01*
X157539822Y-87034251D01*
X157700029Y-87084173D01*
X157769653Y-87090500D01*
X158770346Y-87090499D01*
X158770353Y-87090499D01*
X158839966Y-87084174D01*
X158839969Y-87084173D01*
X158839971Y-87084173D01*
X159000178Y-87034251D01*
X159074089Y-86989570D01*
X159143777Y-86947443D01*
X159143778Y-86947441D01*
X159143783Y-86947439D01*
X159262439Y-86828783D01*
X159349251Y-86685178D01*
X159399173Y-86524971D01*
X159405500Y-86455347D01*
X159405499Y-84184654D01*
X159405499Y-84184653D01*
X159405499Y-84184645D01*
X159399174Y-84115033D01*
X159399171Y-84115022D01*
X159349252Y-83954824D01*
X159349250Y-83954820D01*
X159262443Y-83811222D01*
X159262439Y-83811217D01*
X159143782Y-83692560D01*
X159143777Y-83692556D01*
X159000180Y-83605750D01*
X159000179Y-83605749D01*
X159000178Y-83605749D01*
X158839971Y-83555827D01*
X158839969Y-83555826D01*
X158839967Y-83555826D01*
X158791221Y-83551396D01*
X158770347Y-83549500D01*
X158770344Y-83549500D01*
X157769645Y-83549500D01*
X157700033Y-83555825D01*
X157700022Y-83555828D01*
X157539824Y-83605747D01*
X157539820Y-83605749D01*
X157396222Y-83692556D01*
X157396217Y-83692560D01*
X157277560Y-83811217D01*
X157277556Y-83811222D01*
X157190750Y-83954819D01*
X157140826Y-84115032D01*
X157134500Y-84184655D01*
X157134500Y-84545500D01*
X157131949Y-84554185D01*
X157133238Y-84563147D01*
X157122259Y-84587187D01*
X157114815Y-84612539D01*
X157107974Y-84618466D01*
X157104213Y-84626703D01*
X157081978Y-84640992D01*
X157062011Y-84658294D01*
X157051496Y-84660581D01*
X157045435Y-84664477D01*
X157010500Y-84669500D01*
X156989499Y-84669500D01*
X156922460Y-84649815D01*
X156876705Y-84597011D01*
X156865499Y-84545500D01*
X156865499Y-84184645D01*
X156859174Y-84115033D01*
X156859171Y-84115022D01*
X156809252Y-83954824D01*
X156809250Y-83954820D01*
X156722443Y-83811222D01*
X156722439Y-83811217D01*
X156603782Y-83692560D01*
X156603777Y-83692556D01*
X156460180Y-83605750D01*
X156460179Y-83605749D01*
X156460178Y-83605749D01*
X156299971Y-83555827D01*
X156299969Y-83555826D01*
X156299967Y-83555826D01*
X156251221Y-83551396D01*
X156230347Y-83549500D01*
X156230344Y-83549500D01*
X155229645Y-83549500D01*
X155160033Y-83555825D01*
X155160022Y-83555828D01*
X154999824Y-83605747D01*
X154999820Y-83605749D01*
X154856222Y-83692556D01*
X154856217Y-83692560D01*
X154737560Y-83811217D01*
X154737556Y-83811222D01*
X154650750Y-83954819D01*
X154600826Y-84115032D01*
X154594500Y-84184655D01*
X154594500Y-86455354D01*
X154600825Y-86524966D01*
X154600828Y-86524977D01*
X154650747Y-86685175D01*
X154650749Y-86685179D01*
X154737556Y-86828777D01*
X154737560Y-86828782D01*
X154856217Y-86947439D01*
X154856222Y-86947443D01*
X154999820Y-87034250D01*
X155006392Y-87037208D01*
X155059446Y-87082672D01*
X155079498Y-87149603D01*
X155079500Y-87150283D01*
X155079500Y-97449191D01*
X155059815Y-97516230D01*
X155043181Y-97536872D01*
X154052181Y-98527872D01*
X153990858Y-98561357D01*
X153921166Y-98556373D01*
X153865233Y-98514501D01*
X153840816Y-98449037D01*
X153840500Y-98440191D01*
X153840500Y-87150283D01*
X153860185Y-87083244D01*
X153912989Y-87037489D01*
X153913608Y-87037208D01*
X153920174Y-87034252D01*
X153920178Y-87034251D01*
X153994089Y-86989570D01*
X154063777Y-86947443D01*
X154063778Y-86947441D01*
X154063783Y-86947439D01*
X154182439Y-86828783D01*
X154269251Y-86685178D01*
X154319173Y-86524971D01*
X154325500Y-86455347D01*
X154325499Y-84184654D01*
X154325499Y-84184653D01*
X154325499Y-84184645D01*
X154319174Y-84115033D01*
X154319171Y-84115022D01*
X154269252Y-83954824D01*
X154269250Y-83954820D01*
X154182443Y-83811222D01*
X154182439Y-83811217D01*
X154063782Y-83692560D01*
X154063777Y-83692556D01*
X153920180Y-83605750D01*
X153920179Y-83605749D01*
X153920178Y-83605749D01*
X153759971Y-83555827D01*
X153759969Y-83555826D01*
X153759967Y-83555826D01*
X153711221Y-83551396D01*
X153690347Y-83549500D01*
X153690344Y-83549500D01*
X152689645Y-83549500D01*
X152620033Y-83555825D01*
X152620022Y-83555828D01*
X152459824Y-83605747D01*
X152459820Y-83605749D01*
X152316222Y-83692556D01*
X152316217Y-83692560D01*
X152197560Y-83811217D01*
X152197556Y-83811222D01*
X152110750Y-83954819D01*
X152060826Y-84115032D01*
X152054500Y-84184655D01*
X152054500Y-86455354D01*
X152060825Y-86524966D01*
X152060828Y-86524977D01*
X152110747Y-86685175D01*
X152110749Y-86685179D01*
X152197556Y-86828777D01*
X152197560Y-86828782D01*
X152316217Y-86947439D01*
X152316222Y-86947443D01*
X152459820Y-87034250D01*
X152466392Y-87037208D01*
X152519446Y-87082672D01*
X152539498Y-87149603D01*
X152539500Y-87150283D01*
X152539500Y-98989192D01*
X152519815Y-99056231D01*
X152503181Y-99076873D01*
X148987060Y-102592994D01*
X148960132Y-102607697D01*
X148934314Y-102624290D01*
X148928113Y-102625181D01*
X148925737Y-102626479D01*
X148899379Y-102629313D01*
X148811561Y-102629313D01*
X148744522Y-102609628D01*
X148711243Y-102578198D01*
X148623443Y-102457352D01*
X148623438Y-102457346D01*
X148482926Y-102316834D01*
X148482924Y-102316832D01*
X148322154Y-102200026D01*
X148165678Y-102120297D01*
X148114883Y-102072323D01*
X148098088Y-102004502D01*
X148120625Y-101938367D01*
X148165678Y-101899328D01*
X148322154Y-101819600D01*
X148482924Y-101702794D01*
X148623441Y-101562277D01*
X148740247Y-101401507D01*
X148830465Y-101224445D01*
X148891873Y-101035449D01*
X148922960Y-100839174D01*
X148922960Y-100640452D01*
X148891873Y-100444177D01*
X148835195Y-100269738D01*
X148830466Y-100255183D01*
X148830465Y-100255180D01*
X148762498Y-100121789D01*
X148740247Y-100078119D01*
X148623441Y-99917349D01*
X148482924Y-99776832D01*
X148322154Y-99660026D01*
X148165678Y-99580297D01*
X148114883Y-99532323D01*
X148098088Y-99464502D01*
X148120625Y-99398367D01*
X148165678Y-99359328D01*
X148322154Y-99279600D01*
X148482924Y-99162794D01*
X148623441Y-99022277D01*
X148740247Y-98861507D01*
X148830465Y-98684445D01*
X148891873Y-98495449D01*
X148922960Y-98299174D01*
X148922960Y-98100452D01*
X148891873Y-97904177D01*
X148830465Y-97715181D01*
X148830465Y-97715180D01*
X148784495Y-97624962D01*
X148740247Y-97538119D01*
X148623441Y-97377349D01*
X148482924Y-97236832D01*
X148322154Y-97120026D01*
X148165678Y-97040297D01*
X148114883Y-96992323D01*
X148098088Y-96924502D01*
X148120625Y-96858367D01*
X148165678Y-96819328D01*
X148322154Y-96739600D01*
X148482924Y-96622794D01*
X148623441Y-96482277D01*
X148740247Y-96321507D01*
X148830465Y-96144445D01*
X148891873Y-95955449D01*
X148922960Y-95759174D01*
X148922960Y-95560452D01*
X148891873Y-95364177D01*
X148830465Y-95175181D01*
X148830465Y-95175180D01*
X148740246Y-94998118D01*
X148734759Y-94990566D01*
X148623441Y-94837349D01*
X148482924Y-94696832D01*
X148322154Y-94580026D01*
X148165678Y-94500297D01*
X148114883Y-94452323D01*
X148098088Y-94384502D01*
X148120625Y-94318367D01*
X148165678Y-94279328D01*
X148322154Y-94199600D01*
X148482924Y-94082794D01*
X148623441Y-93942277D01*
X148740247Y-93781507D01*
X148830465Y-93604445D01*
X148891873Y-93415449D01*
X148922960Y-93219174D01*
X148922960Y-93020452D01*
X148891873Y-92824177D01*
X148830465Y-92635181D01*
X148830465Y-92635180D01*
X148740246Y-92458118D01*
X148738332Y-92455483D01*
X148623441Y-92297349D01*
X148482924Y-92156832D01*
X148322154Y-92040026D01*
X148165678Y-91960297D01*
X148114883Y-91912323D01*
X148098088Y-91844502D01*
X148120625Y-91778367D01*
X148165678Y-91739328D01*
X148322154Y-91659600D01*
X148482924Y-91542794D01*
X148623441Y-91402277D01*
X148740247Y-91241507D01*
X148830465Y-91064445D01*
X148891873Y-90875449D01*
X148922960Y-90679174D01*
X148922960Y-90480452D01*
X148891873Y-90284177D01*
X148830465Y-90095181D01*
X148830465Y-90095180D01*
X148740246Y-89918118D01*
X148623441Y-89757349D01*
X148482924Y-89616832D01*
X148322154Y-89500026D01*
X148165678Y-89420297D01*
X148114883Y-89372323D01*
X148098088Y-89304502D01*
X148120625Y-89238367D01*
X148165678Y-89199328D01*
X148322154Y-89119600D01*
X148482924Y-89002794D01*
X148623441Y-88862277D01*
X148740247Y-88701507D01*
X148830465Y-88524445D01*
X148891873Y-88335449D01*
X148922960Y-88139174D01*
X148922960Y-87940452D01*
X148891873Y-87744177D01*
X148830465Y-87555181D01*
X148830465Y-87555180D01*
X148740246Y-87378118D01*
X148623441Y-87217349D01*
X148482924Y-87076832D01*
X148322154Y-86960026D01*
X148165678Y-86880297D01*
X148114883Y-86832323D01*
X148098088Y-86764502D01*
X148120625Y-86698367D01*
X148165678Y-86659328D01*
X148322154Y-86579600D01*
X148482924Y-86462794D01*
X148623441Y-86322277D01*
X148740247Y-86161507D01*
X148830465Y-85984445D01*
X148891873Y-85795449D01*
X148922960Y-85599174D01*
X148922960Y-85400452D01*
X148891873Y-85204177D01*
X148830465Y-85015181D01*
X148830465Y-85015180D01*
X148767964Y-84892517D01*
X148740247Y-84838119D01*
X148637635Y-84696885D01*
X148614155Y-84631079D01*
X148629980Y-84563025D01*
X148680086Y-84514330D01*
X148737953Y-84500000D01*
X149998239Y-84500000D01*
X149998240Y-84500000D01*
X150001490Y-78000000D01*
X150001689Y-77602135D01*
X150649500Y-77602135D01*
X150649500Y-79397870D01*
X150649501Y-79397876D01*
X150655908Y-79457483D01*
X150706202Y-79592328D01*
X150706206Y-79592335D01*
X150792452Y-79707544D01*
X150792455Y-79707547D01*
X150907664Y-79793793D01*
X150907671Y-79793797D01*
X151042517Y-79844091D01*
X151042516Y-79844091D01*
X151049444Y-79844835D01*
X151102127Y-79850500D01*
X152897872Y-79850499D01*
X152957483Y-79844091D01*
X153092331Y-79793796D01*
X153207546Y-79707546D01*
X153293796Y-79592331D01*
X153344091Y-79457483D01*
X153350500Y-79397873D01*
X153350499Y-79373979D01*
X153353330Y-79360963D01*
X153363940Y-79341525D01*
X153370179Y-79320275D01*
X153386803Y-79299643D01*
X153386808Y-79299636D01*
X153386811Y-79299634D01*
X153386818Y-79299626D01*
X154057037Y-78629408D01*
X154074075Y-78692993D01*
X154139901Y-78807007D01*
X154232993Y-78900099D01*
X154347007Y-78965925D01*
X154410590Y-78982962D01*
X153778282Y-79615269D01*
X153778282Y-79615270D01*
X153832449Y-79654624D01*
X154021782Y-79751095D01*
X154223870Y-79816757D01*
X154433754Y-79850000D01*
X154646246Y-79850000D01*
X154856127Y-79816757D01*
X154856130Y-79816757D01*
X155058217Y-79751095D01*
X155247554Y-79654622D01*
X155301716Y-79615270D01*
X155301717Y-79615270D01*
X154669408Y-78982962D01*
X154732993Y-78965925D01*
X154847007Y-78900099D01*
X154940099Y-78807007D01*
X155005925Y-78692993D01*
X155022962Y-78629408D01*
X155655270Y-79261717D01*
X155655270Y-79261716D01*
X155694622Y-79207555D01*
X155699232Y-79198507D01*
X155747205Y-79147709D01*
X155815025Y-79130912D01*
X155881161Y-79153447D01*
X155920204Y-79198504D01*
X155924949Y-79207817D01*
X156049890Y-79379786D01*
X156200213Y-79530109D01*
X156372179Y-79655048D01*
X156372181Y-79655049D01*
X156372184Y-79655051D01*
X156561588Y-79751557D01*
X156763757Y-79817246D01*
X156973713Y-79850500D01*
X156973714Y-79850500D01*
X157186286Y-79850500D01*
X157186287Y-79850500D01*
X157396243Y-79817246D01*
X157598412Y-79751557D01*
X157787816Y-79655051D01*
X157874138Y-79592335D01*
X157959786Y-79530109D01*
X157959788Y-79530106D01*
X157959792Y-79530104D01*
X158110104Y-79379792D01*
X158110106Y-79379788D01*
X158110109Y-79379786D01*
X158235048Y-79207820D01*
X158235050Y-79207817D01*
X158235051Y-79207816D01*
X158239514Y-79199054D01*
X158287488Y-79148259D01*
X158355308Y-79131463D01*
X158421444Y-79153999D01*
X158460486Y-79199056D01*
X158464951Y-79207820D01*
X158589890Y-79379786D01*
X158740213Y-79530109D01*
X158912179Y-79655048D01*
X158912181Y-79655049D01*
X158912184Y-79655051D01*
X159101588Y-79751557D01*
X159303757Y-79817246D01*
X159513713Y-79850500D01*
X159513714Y-79850500D01*
X159726286Y-79850500D01*
X159726287Y-79850500D01*
X159917220Y-79820259D01*
X171799500Y-79820259D01*
X171799500Y-80179740D01*
X171839746Y-80536935D01*
X171839748Y-80536951D01*
X171919737Y-80887407D01*
X171919741Y-80887419D01*
X172038465Y-81226711D01*
X172194432Y-81550579D01*
X172194434Y-81550582D01*
X172385685Y-81854956D01*
X172609812Y-82136003D01*
X172863997Y-82390188D01*
X173145044Y-82614315D01*
X173449418Y-82805566D01*
X173773292Y-82961536D01*
X174028119Y-83050703D01*
X174112580Y-83080258D01*
X174112592Y-83080262D01*
X174463052Y-83160252D01*
X174820260Y-83200499D01*
X174820261Y-83200500D01*
X174820264Y-83200500D01*
X175179739Y-83200500D01*
X175179739Y-83200499D01*
X175536948Y-83160252D01*
X175887408Y-83080262D01*
X176226708Y-82961536D01*
X176550582Y-82805566D01*
X176854956Y-82614315D01*
X177136003Y-82390188D01*
X177390188Y-82136003D01*
X177614315Y-81854956D01*
X177805566Y-81550582D01*
X177961536Y-81226708D01*
X178080262Y-80887408D01*
X178160252Y-80536948D01*
X178200500Y-80179736D01*
X178200500Y-79820264D01*
X178160252Y-79463052D01*
X178080262Y-79112592D01*
X177961536Y-78773292D01*
X177805566Y-78449418D01*
X177614315Y-78145044D01*
X177390188Y-77863997D01*
X177136003Y-77609812D01*
X177126376Y-77602135D01*
X176960546Y-77469890D01*
X176854956Y-77385685D01*
X176550582Y-77194434D01*
X176550579Y-77194432D01*
X176226711Y-77038465D01*
X175887419Y-76919741D01*
X175887407Y-76919737D01*
X175536951Y-76839748D01*
X175536935Y-76839746D01*
X175179740Y-76799500D01*
X175179736Y-76799500D01*
X174820264Y-76799500D01*
X174820259Y-76799500D01*
X174463064Y-76839746D01*
X174463048Y-76839748D01*
X174112592Y-76919737D01*
X174112580Y-76919741D01*
X173773288Y-77038465D01*
X173449420Y-77194432D01*
X173145045Y-77385684D01*
X172863997Y-77609811D01*
X172609811Y-77863997D01*
X172385684Y-78145045D01*
X172194432Y-78449420D01*
X172038465Y-78773288D01*
X171919741Y-79112580D01*
X171919737Y-79112592D01*
X171839748Y-79463048D01*
X171839746Y-79463064D01*
X171799500Y-79820259D01*
X159917220Y-79820259D01*
X159936243Y-79817246D01*
X160138412Y-79751557D01*
X160327816Y-79655051D01*
X160414138Y-79592335D01*
X160499786Y-79530109D01*
X160499788Y-79530106D01*
X160499792Y-79530104D01*
X160650104Y-79379792D01*
X160650106Y-79379788D01*
X160650109Y-79379786D01*
X160775048Y-79207820D01*
X160775050Y-79207817D01*
X160775051Y-79207816D01*
X160871557Y-79018412D01*
X160937246Y-78816243D01*
X160970500Y-78606287D01*
X160970500Y-78393713D01*
X160937246Y-78183757D01*
X160871557Y-77981588D01*
X160775051Y-77792184D01*
X160775049Y-77792181D01*
X160775048Y-77792179D01*
X160650109Y-77620213D01*
X160499786Y-77469890D01*
X160327820Y-77344951D01*
X160138414Y-77248444D01*
X160138413Y-77248443D01*
X160138412Y-77248443D01*
X159936243Y-77182754D01*
X159936241Y-77182753D01*
X159936240Y-77182753D01*
X159774957Y-77157208D01*
X159726287Y-77149500D01*
X159513713Y-77149500D01*
X159465042Y-77157208D01*
X159303760Y-77182753D01*
X159101585Y-77248444D01*
X158912179Y-77344951D01*
X158740213Y-77469890D01*
X158589890Y-77620213D01*
X158464949Y-77792182D01*
X158460484Y-77800946D01*
X158412509Y-77851742D01*
X158344688Y-77868536D01*
X158278553Y-77845998D01*
X158239516Y-77800946D01*
X158235050Y-77792182D01*
X158110109Y-77620213D01*
X157959786Y-77469890D01*
X157787820Y-77344951D01*
X157598414Y-77248444D01*
X157598413Y-77248443D01*
X157598412Y-77248443D01*
X157396243Y-77182754D01*
X157396241Y-77182753D01*
X157396240Y-77182753D01*
X157234957Y-77157208D01*
X157186287Y-77149500D01*
X156973713Y-77149500D01*
X156925042Y-77157208D01*
X156763760Y-77182753D01*
X156561585Y-77248444D01*
X156372179Y-77344951D01*
X156200213Y-77469890D01*
X156049890Y-77620213D01*
X155924949Y-77792182D01*
X155920202Y-77801499D01*
X155872227Y-77852293D01*
X155804405Y-77869087D01*
X155738271Y-77846548D01*
X155699234Y-77801495D01*
X155694626Y-77792452D01*
X155655270Y-77738282D01*
X155655269Y-77738282D01*
X155022962Y-78370590D01*
X155005925Y-78307007D01*
X154940099Y-78192993D01*
X154847007Y-78099901D01*
X154732993Y-78034075D01*
X154669409Y-78017037D01*
X155301716Y-77384728D01*
X155247550Y-77345375D01*
X155058217Y-77248904D01*
X154856129Y-77183242D01*
X154646246Y-77150000D01*
X154433754Y-77150000D01*
X154223872Y-77183242D01*
X154223869Y-77183242D01*
X154021782Y-77248904D01*
X153832439Y-77345380D01*
X153778282Y-77384727D01*
X153778282Y-77384728D01*
X154410591Y-78017037D01*
X154347007Y-78034075D01*
X154232993Y-78099901D01*
X154139901Y-78192993D01*
X154074075Y-78307007D01*
X154057037Y-78370591D01*
X153386818Y-77700372D01*
X153353333Y-77639049D01*
X153353330Y-77639036D01*
X153350499Y-77626015D01*
X153350499Y-77602128D01*
X153344091Y-77542517D01*
X153315926Y-77467002D01*
X153293798Y-77407673D01*
X153293793Y-77407664D01*
X153207547Y-77292455D01*
X153207544Y-77292452D01*
X153092335Y-77206206D01*
X153092328Y-77206202D01*
X152957482Y-77155908D01*
X152957483Y-77155908D01*
X152897883Y-77149501D01*
X152897881Y-77149500D01*
X152897873Y-77149500D01*
X152897864Y-77149500D01*
X151102129Y-77149500D01*
X151102123Y-77149501D01*
X151042516Y-77155908D01*
X150907671Y-77206202D01*
X150907664Y-77206206D01*
X150792455Y-77292452D01*
X150792452Y-77292455D01*
X150706206Y-77407664D01*
X150706202Y-77407671D01*
X150655908Y-77542517D01*
X150649501Y-77602116D01*
X150649500Y-77602135D01*
X150001689Y-77602135D01*
X150001691Y-77598744D01*
X150002178Y-76624438D01*
X150021896Y-76557408D01*
X150074723Y-76511680D01*
X150126178Y-76500500D01*
X175934108Y-76500500D01*
X175996249Y-76500500D01*
X176003736Y-76500726D01*
G37*
%TD.AperFunction*%
%TD*%
M02*
