M48
; DRILL file KiCad 10.0.6-10.0.6~ubuntu24.04.1 date 2026-09-01T17:50:54
; FORMAT={-:-/ absolute / metric / decimal}
; #@! TF.CreationDate,2026-09-01T17:50:54+05:30
; #@! TF.GenerationSoftware,Kicad,Pcbnew,10.0.6-10.0.6~ubuntu24.04.1
; #@! TF.FileFunction,Plated,1,2,PTH
FMAT,2
METRIC
; #@! TA.AperFunction,Plated,PTH,ViaDrill
T1C0.300
; #@! TA.AperFunction,Plated,PTH,ComponentDrill
T2C0.800
; #@! TA.AperFunction,Plated,PTH,ComponentDrill
T3C1.000
; #@! TA.AperFunction,Plated,PTH,ComponentDrill
T4C1.200
; #@! TA.AperFunction,Plated,PTH,ComponentDrill
T5C1.300
; #@! TA.AperFunction,Plated,PTH,ComponentDrill
T6C2.700
%
G90
G05
T1
X113.5Y-110.5
X114.5Y-110.5
X115.5Y-110.5
X116.5Y-110.5
X124.0Y-117.0
X125.0Y-117.0
X126.0Y-117.0
X127.0Y-117.0
X142.5Y-117.0
X143.5Y-117.0
X144.5Y-117.0
X145.5Y-117.0
X151.5Y-124.5
X151.5Y-125.5
X151.5Y-126.5
X151.5Y-127.5
X154.0Y-99.5
X157.5Y-111.5
X163.0Y-107.5
X163.0Y-115.0
X172.5Y-97.0
X172.5Y-105.5
X172.5Y-114.0
X173.5Y-97.0
X173.5Y-105.5
X173.5Y-114.0
X174.5Y-97.0
X174.5Y-105.5
X174.5Y-114.0
X175.5Y-97.0
X175.5Y-105.5
X175.5Y-114.0
T2
X122.072Y-82.96
X122.072Y-85.5
X122.072Y-88.04
X122.072Y-90.58
X122.072Y-93.12
X122.072Y-95.66
X122.072Y-98.2
X122.072Y-100.74
X122.072Y-103.28
X122.072Y-105.82
X122.072Y-108.36
X122.072Y-110.9
X122.072Y-113.44
X122.072Y-115.98
X122.072Y-118.52
X147.472Y-82.96
X147.472Y-85.5
X147.472Y-88.04
X147.472Y-90.58
X147.472Y-93.12
X147.472Y-95.66
X147.472Y-98.2
X147.472Y-100.74
X147.472Y-103.28
X147.472Y-105.82
X147.472Y-108.36
X147.472Y-110.9
X147.472Y-113.44
X147.472Y-115.98
X147.472Y-118.52
X153.19Y-85.32
X153.19Y-126.722
X155.73Y-85.32
X155.73Y-126.722
X158.27Y-85.32
X158.27Y-126.722
X160.81Y-85.32
X160.81Y-126.722
T3
X152.0Y-78.5
X154.54Y-78.5
X157.08Y-78.5
X159.62Y-78.5
X172.0Y-86.0
X172.0Y-93.6
T4
X116.5Y-112.96
X116.5Y-115.5
X174.0Y-98.96
X174.0Y-101.5
X174.0Y-107.46
X174.0Y-110.0
X174.0Y-115.96
X174.0Y-118.5
T5
X154.436Y-119.356
X159.516Y-119.356
T6
X116.0Y-80.0
X116.0Y-125.0
X175.0Y-80.0
X175.0Y-125.0
M30
