M48
; DRILL file KiCad 10.0.2 date 2026-05-22T13:30:20
; FORMAT={-:-/ absolute / metric / decimal}
; #@! TF.CreationDate,2026-05-22T13:30:20+05:30
; #@! TF.GenerationSoftware,Kicad,Pcbnew,10.0.2
; #@! TF.FileFunction,Plated,1,2,PTH
FMAT,2
METRIC
; #@! TA.AperFunction,Plated,PTH,ComponentDrill
T1C0.800
; #@! TA.AperFunction,Plated,PTH,ComponentDrill
T2C1.000
; #@! TA.AperFunction,Plated,PTH,ComponentDrill
T3C1.300
%
G90
G05
T1
X121.947Y-89.432
X121.947Y-91.972
X121.947Y-94.512
X121.947Y-97.052
X121.947Y-99.592
X121.947Y-102.132
X121.947Y-104.672
X121.947Y-107.212
X121.947Y-109.752
X121.947Y-112.292
X121.947Y-114.832
X121.947Y-117.372
X121.947Y-119.912
X121.947Y-122.452
X121.947Y-124.992
X147.347Y-89.432
X147.347Y-91.972
X147.347Y-94.512
X147.347Y-97.052
X147.347Y-99.592
X147.347Y-102.132
X147.347Y-104.672
X147.347Y-107.212
X147.347Y-109.752
X147.347Y-112.292
X147.347Y-114.832
X147.347Y-117.372
X147.347Y-119.912
X147.347Y-122.452
X147.347Y-124.992
T2
X115.944Y-89.407
X115.944Y-91.947
X115.944Y-94.487
X115.944Y-97.027
X115.944Y-99.567
X115.944Y-102.107
X115.944Y-104.647
X115.944Y-107.187
X115.944Y-109.727
X115.944Y-112.267
X115.944Y-114.807
X115.944Y-117.347
X115.944Y-119.887
X115.944Y-122.427
X115.944Y-124.967
X153.4Y-89.44
X153.4Y-91.98
X153.4Y-94.52
X153.4Y-97.06
X153.4Y-99.6
X153.4Y-102.14
X153.4Y-104.68
X153.4Y-107.22
X153.4Y-109.76
X153.4Y-112.3
X153.4Y-114.84
X153.4Y-117.38
X153.4Y-119.92
X153.4Y-122.46
X153.4Y-125.0
X153.42Y-133.0
X155.96Y-133.0
X158.5Y-133.0
X161.04Y-133.0
X163.5Y-110.5
X163.5Y-113.04
X163.5Y-115.58
X163.5Y-118.12
X163.5Y-120.66
X163.5Y-123.2
X164.245Y-81.915
X164.245Y-84.455
X164.245Y-86.995
X164.245Y-89.535
X164.245Y-92.075
X164.245Y-94.615
X164.245Y-97.155
X164.245Y-99.695
X164.245Y-102.235
X164.245Y-104.775
X166.04Y-110.5
X166.04Y-113.04
X166.04Y-115.58
X166.04Y-118.12
X166.04Y-120.66
X166.04Y-123.2
X168.58Y-110.5
X168.58Y-113.04
X168.58Y-115.58
X168.58Y-118.12
X168.58Y-120.66
X168.58Y-123.2
X171.12Y-110.5
X171.12Y-113.04
X171.12Y-115.58
X171.12Y-118.12
X171.12Y-120.66
X171.12Y-123.2
X173.66Y-110.5
X173.66Y-113.04
X173.66Y-115.58
X173.66Y-118.12
X173.66Y-120.66
X173.66Y-123.2
X176.0Y-81.915
X176.0Y-84.455
X176.0Y-86.995
X176.0Y-89.535
X176.0Y-92.075
X176.0Y-94.615
X176.0Y-97.155
X176.0Y-99.695
X176.0Y-102.235
X176.0Y-104.775
X176.2Y-110.5
X176.2Y-113.04
X176.2Y-115.58
X176.2Y-118.12
X176.2Y-120.66
X176.2Y-123.2
X178.74Y-110.5
X178.74Y-113.04
X178.74Y-115.58
X178.74Y-118.12
X178.74Y-120.66
X178.74Y-123.2
T3
X186.957Y-87.718
X186.957Y-92.798
X186.957Y-97.878
X186.957Y-102.958
X186.957Y-108.038
X186.957Y-113.118
X186.957Y-118.198
X187.0Y-124.92
X187.0Y-130.0
M30
