M48
; DRILL file KiCad 10.0.5-10.0.5~ubuntu24.04.1 date 2026-08-03T14:43:24
; FORMAT={-:-/ absolute / metric / decimal}
; #@! TF.CreationDate,2026-08-03T14:43:24+05:30
; #@! TF.GenerationSoftware,Kicad,Pcbnew,10.0.5-10.0.5~ubuntu24.04.1
; #@! TF.FileFunction,Plated,1,2,PTH
FMAT,2
METRIC
; #@! TA.AperFunction,Plated,PTH,ComponentDrill
T1C0.800
; #@! TA.AperFunction,Plated,PTH,ComponentDrill
T2C1.000
; #@! TA.AperFunction,Plated,PTH,ComponentDrill
T3C1.200
; #@! TA.AperFunction,Plated,PTH,ComponentDrill
T4C1.300
; #@! TA.AperFunction,Plated,PTH,ComponentDrill
T5C2.700
%
G90
G05
T1
X121.852Y-83.0
X121.852Y-85.54
X121.852Y-88.08
X121.852Y-90.62
X121.852Y-93.16
X121.852Y-95.7
X121.852Y-98.24
X121.852Y-100.78
X121.852Y-103.32
X121.852Y-105.86
X121.852Y-108.4
X121.852Y-110.94
X121.852Y-113.48
X121.852Y-116.02
X121.852Y-118.56
X147.252Y-83.0
X147.252Y-85.54
X147.252Y-88.08
X147.252Y-90.62
X147.252Y-93.16
X147.252Y-95.7
X147.252Y-98.24
X147.252Y-100.78
X147.252Y-103.32
X147.252Y-105.86
X147.252Y-108.4
X147.252Y-110.94
X147.252Y-113.48
X147.252Y-116.02
X147.252Y-118.56
X153.174Y-85.464
X153.174Y-126.866
X155.714Y-85.464
X155.714Y-126.866
X158.254Y-85.464
X158.254Y-126.866
X160.794Y-85.464
X160.794Y-126.866
T2
X114.795Y-117.295
X114.795Y-119.835
X152.19Y-78.5
X154.73Y-78.5
X157.27Y-78.5
X159.81Y-78.5
X171.5Y-78.7
X171.5Y-86.3
T3
X174.15Y-113.68
X174.15Y-116.221
X174.155Y-96.96
X174.155Y-99.5
X174.155Y-105.18
X174.155Y-107.721
T4
X154.42Y-119.5
X159.5Y-119.5
T5
X116.0Y-80.0
X116.0Y-125.0
X175.0Y-125.0
M30
