%TF.GenerationSoftware,KiCad,Pcbnew,10.0.3-10.0.3~ubuntu24.04.1*%
%TF.CreationDate,2026-05-25T19:03:21+05:30*%
%TF.ProjectId,pcb,7063622e-6b69-4636-9164-5f7063625858,rev?*%
%TF.SameCoordinates,Original*%
%TF.FileFunction,Copper,L2,Bot*%
%TF.FilePolarity,Positive*%
%FSLAX46Y46*%
G04 Gerber Fmt 4.6, Leading zero omitted, Abs format (unit mm)*
G04 Created by KiCad (PCBNEW 10.0.3-10.0.3~ubuntu24.04.1) date 2026-05-25 19:03:21*
%MOMM*%
%LPD*%
G01*
G04 APERTURE LIST*
G04 Aperture macros list*
%AMRoundRect*
0 Rectangle with rounded corners*
0 $1 Rounding radius*
0 $2 $3 $4 $5 $6 $7 $8 $9 X,Y pos of 4 corners*
0 Add a 4 corners polygon primitive as box body*
4,1,4,$2,$3,$4,$5,$6,$7,$8,$9,$2,$3,0*
0 Add four circle primitives for the rounded corners*
1,1,$1+$1,$2,$3*
1,1,$1+$1,$4,$5*
1,1,$1+$1,$6,$7*
1,1,$1+$1,$8,$9*
0 Add four rect primitives between the rounded corners*
20,1,$1+$1,$2,$3,$4,$5,0*
20,1,$1+$1,$4,$5,$6,$7,0*
20,1,$1+$1,$6,$7,$8,$9,0*
20,1,$1+$1,$8,$9,$2,$3,0*%
G04 Aperture macros list end*
%TA.AperFunction,ComponentPad*%
%ADD10RoundRect,0.250000X1.050000X-1.050000X1.050000X1.050000X-1.050000X1.050000X-1.050000X-1.050000X0*%
%TD*%
%TA.AperFunction,ComponentPad*%
%ADD11C,2.600000*%
%TD*%
%TA.AperFunction,ComponentPad*%
%ADD12R,1.700000X1.700000*%
%TD*%
%TA.AperFunction,ComponentPad*%
%ADD13C,1.700000*%
%TD*%
%TA.AperFunction,ComponentPad*%
%ADD14C,5.400000*%
%TD*%
%TA.AperFunction,ComponentPad*%
%ADD15O,1.900000X1.524000*%
%TD*%
%TA.AperFunction,ComponentPad*%
%ADD16RoundRect,0.250000X1.050000X1.050000X-1.050000X1.050000X-1.050000X-1.050000X1.050000X-1.050000X0*%
%TD*%
%TA.AperFunction,ViaPad*%
%ADD17C,0.600000*%
%TD*%
%TA.AperFunction,Conductor*%
%ADD18C,0.200000*%
%TD*%
G04 APERTURE END LIST*
D10*
%TO.P,J3,1,Pin_1_1*%
%TO.N,/F{slash}R_OUT*%
X183457300Y-118197700D03*
D11*
%TO.P,J3,2,Pin_2_2*%
%TO.N,/EN_OUT*%
X183457300Y-113117700D03*
%TO.P,J3,3,Pin_3_3*%
%TO.N,/BRK_OUT*%
X183457300Y-108037700D03*
%TO.P,J3,4,Pin_4_4*%
%TO.N,/SPEED_OUT*%
X183457300Y-102957700D03*
%TO.P,J3,5,Pin_5_5*%
%TO.N,/ALM_OUT*%
X183457300Y-97877700D03*
%TO.P,J3,6,Pin_6_6*%
%TO.N,GND*%
X183457300Y-92797700D03*
%TO.P,J3,7,Pin_7_7*%
%TO.N,/SV_OUT*%
X183457300Y-87717700D03*
%TD*%
D12*
%TO.P,J2,1,Pin_1_1*%
%TO.N,+5V*%
X173500000Y-91915000D03*
D13*
%TO.P,J2,2,Pin_2_2*%
%TO.N,/SV_OUT*%
X173500000Y-94455000D03*
%TO.P,J2,3,Pin_3_3*%
%TO.N,/ALM_OUT*%
X173500000Y-96995000D03*
%TO.P,J2,4,Pin_4_4*%
%TO.N,/SPEED_OUT*%
X173500000Y-99535000D03*
%TO.P,J2,5,Pin_5_5*%
%TO.N,/BRK_OUT*%
X173500000Y-102075000D03*
%TO.P,J2,6,Pin_6_6*%
%TO.N,/F{slash}R_OUT*%
X173500000Y-104615000D03*
%TO.P,J2,7,Pin_7_7*%
%TO.N,unconnected-(J2-Pin_7-Pad7)*%
X173500000Y-107155000D03*
%TO.P,J2,8,Pin_8_8*%
%TO.N,unconnected-(J2-Pin_8-Pad8)*%
X173500000Y-109695000D03*
%TO.P,J2,9,Pin_9_9*%
%TO.N,unconnected-(J2-Pin_9-Pad9)*%
X173500000Y-112235000D03*
%TO.P,J2,10,Pin_10_10*%
%TO.N,GND*%
X173500000Y-114775000D03*
%TD*%
D14*
%TO.P,H1,1,1_1*%
%TO.N,GND*%
X116000000Y-80000000D03*
%TD*%
D12*
%TO.P,J8,1,Pin_1_1*%
%TO.N,/LED_R*%
X160040000Y-79000000D03*
D13*
%TO.P,J8,2,Pin_2_2*%
%TO.N,GND*%
X157500000Y-79000000D03*
%TO.P,J8,3,Pin_3_3*%
%TO.N,/LED_G*%
X154960000Y-79000000D03*
%TO.P,J8,4,Pin_4_4*%
%TO.N,/LED_B*%
X152420000Y-79000000D03*
%TD*%
D14*
%TO.P,H4,1,1_1*%
%TO.N,GND*%
X188000000Y-127000000D03*
%TD*%
%TO.P,H3,1,1_1*%
%TO.N,GND*%
X187987000Y-80000000D03*
%TD*%
D12*
%TO.P,J5,1,Pin_1_1*%
%TO.N,/SWITCH*%
X115944100Y-121467200D03*
D13*
%TO.P,J5,2,Pin_2_2*%
%TO.N,Net-(J5-Pin_2)*%
X115944100Y-118927200D03*
%TO.P,J5,3,Pin_3_3*%
%TO.N,Net-(J5-Pin_3)*%
X115944100Y-116387200D03*
%TO.P,J5,4,Pin_4_4*%
%TO.N,Net-(J5-Pin_4)*%
X115944100Y-113847200D03*
%TO.P,J5,5,Pin_5_5*%
%TO.N,/LED_R*%
X115944100Y-111307200D03*
%TO.P,J5,6,Pin_6_6*%
%TO.N,/LED_G*%
X115944100Y-108767200D03*
%TO.P,J5,7,Pin_7_7*%
%TO.N,/LED_B*%
X115944100Y-106227200D03*
%TO.P,J5,8,Pin_8_8*%
%TO.N,Net-(J5-Pin_8)*%
X115944100Y-103687200D03*
%TO.P,J5,9,Pin_9_9*%
%TO.N,Net-(J5-Pin_9)*%
X115944100Y-101147200D03*
%TO.P,J5,10,Pin_10_10*%
%TO.N,Net-(J5-Pin_10)*%
X115944100Y-98607200D03*
%TO.P,J5,11,Pin_11_11*%
%TO.N,Net-(J5-Pin_11)*%
X115944100Y-96067200D03*
%TO.P,J5,12,Pin_12_12*%
%TO.N,Net-(J5-Pin_12)*%
X115944100Y-93527200D03*
%TO.P,J5,13,Pin_13_13*%
%TO.N,Net-(J5-Pin_13)*%
X115944100Y-90987200D03*
%TO.P,J5,14,Pin_14_14*%
%TO.N,GND*%
X115944100Y-88447200D03*
%TO.P,J5,15,Pin_15_15*%
%TO.N,+3V3*%
X115944100Y-85907200D03*
%TD*%
D12*
%TO.P,J1,1,Pin_1_1*%
%TO.N,+3V3*%
X161245000Y-91915000D03*
D13*
%TO.P,J1,2,Pin_2_2*%
%TO.N,/SV*%
X161245000Y-94455000D03*
%TO.P,J1,3,Pin_3_3*%
%TO.N,/ALM*%
X161245000Y-96995000D03*
%TO.P,J1,4,Pin_4_4*%
%TO.N,/SPEED*%
X161245000Y-99535000D03*
%TO.P,J1,5,Pin_5_5*%
%TO.N,/BRK*%
X161245000Y-102075000D03*
%TO.P,J1,6,Pin_6_6*%
%TO.N,/F{slash}R*%
X161245000Y-104615000D03*
%TO.P,J1,7,Pin_7_7*%
%TO.N,unconnected-(J1-Pin_7-Pad7)*%
X161245000Y-107155000D03*
%TO.P,J1,8,Pin_8_8*%
%TO.N,unconnected-(J1-Pin_8-Pad8)*%
X161245000Y-109695000D03*
%TO.P,J1,9,Pin_9_9*%
%TO.N,unconnected-(J1-Pin_9-Pad9)*%
X161245000Y-112235000D03*
%TO.P,J1,10,Pin_10_10*%
%TO.N,unconnected-(J1-Pin_10-Pad10)*%
X161245000Y-114775000D03*
%TD*%
D15*
%TO.P,U1,1,VIN_1*%
%TO.N,+5V*%
X147346640Y-84432487D03*
%TO.P,U1,2,GND_2*%
%TO.N,GND*%
X147346640Y-86972487D03*
%TO.P,U1,3,GPIO13_3*%
%TO.N,/SV*%
X147346640Y-89512487D03*
%TO.P,U1,4,GPIO12_4*%
%TO.N,Net-(J6-Pin_12)*%
X147346640Y-92052487D03*
%TO.P,U1,5,GPIO14_5*%
%TO.N,/ALM*%
X147346640Y-94592487D03*
%TO.P,U1,6,GPIO27_6*%
%TO.N,/SPEED*%
X147346640Y-97132487D03*
%TO.P,U1,7,GPIO26_7*%
%TO.N,/BRK*%
X147346640Y-99672487D03*
%TO.P,U1,8,GPIO25_8*%
%TO.N,/F{slash}R*%
X147346640Y-102212487D03*
%TO.P,U1,9,GPIO33_9*%
%TO.N,/EN_GPIO*%
X147346640Y-104752487D03*
%TO.P,U1,10,GPIO32_10*%
%TO.N,Net-(J6-Pin_6)*%
X147346640Y-107292487D03*
%TO.P,U1,11,GPIO35_11*%
%TO.N,Net-(J6-Pin_5)*%
X147346640Y-109832487D03*
%TO.P,U1,12,GPIO34_12*%
%TO.N,Net-(J6-Pin_4)*%
X147346640Y-112372487D03*
%TO.P,U1,13,GPIO39_13*%
%TO.N,Net-(J6-Pin_3)*%
X147346640Y-114912487D03*
%TO.P,U1,14,GPIO36_14*%
%TO.N,Net-(J6-Pin_2)*%
X147346640Y-117452487D03*
%TO.P,U1,15,EN_15*%
%TO.N,Net-(J6-Pin_1)*%
X147346640Y-119992487D03*
%TO.P,U1,16,3.3v_16*%
%TO.N,+3V3*%
X121946640Y-84432487D03*
%TO.P,U1,17,GND_17*%
%TO.N,GND*%
X121946640Y-86972487D03*
%TO.P,U1,18,GPIO15_18*%
%TO.N,Net-(J5-Pin_13)*%
X121946640Y-89512487D03*
%TO.P,U1,19,GPIO2_19*%
%TO.N,Net-(J5-Pin_12)*%
X121946640Y-92052487D03*
%TO.P,U1,20,GPIO4_20*%
%TO.N,Net-(J5-Pin_11)*%
X121946640Y-94592487D03*
%TO.P,U1,21,GPIO16_21*%
%TO.N,Net-(J5-Pin_10)*%
X121946640Y-97132487D03*
%TO.P,U1,22,GPIO17_22*%
%TO.N,Net-(J5-Pin_9)*%
X121946640Y-99672487D03*
%TO.P,U1,23,GPIO5_23*%
%TO.N,Net-(J5-Pin_8)*%
X121946640Y-102212487D03*
%TO.P,U1,24,GPIO18_24*%
%TO.N,/LED_B*%
X121946640Y-104752487D03*
%TO.P,U1,25,GPIO19_25*%
%TO.N,/LED_G*%
X121946640Y-107292487D03*
%TO.P,U1,26,GPIO21_26*%
%TO.N,/LED_R*%
X121946640Y-109832487D03*
%TO.P,U1,27,GPIO3_27*%
%TO.N,Net-(J5-Pin_4)*%
X121946640Y-112372487D03*
%TO.P,U1,28,GPIO1_28*%
%TO.N,Net-(J5-Pin_3)*%
X121946640Y-114912487D03*
%TO.P,U1,29,GPIO22_29*%
%TO.N,Net-(J5-Pin_2)*%
X121946640Y-117452487D03*
%TO.P,U1,30,GPIO23_30*%
%TO.N,/SWITCH*%
X121946640Y-119992487D03*
%TD*%
D12*
%TO.P,J6,1,Pin_1_1*%
%TO.N,Net-(J6-Pin_1)*%
X153500000Y-121500000D03*
D13*
%TO.P,J6,2,Pin_2_2*%
%TO.N,Net-(J6-Pin_2)*%
X153500000Y-118960000D03*
%TO.P,J6,3,Pin_3_3*%
%TO.N,Net-(J6-Pin_3)*%
X153500000Y-116420000D03*
%TO.P,J6,4,Pin_4_4*%
%TO.N,Net-(J6-Pin_4)*%
X153500000Y-113880000D03*
%TO.P,J6,5,Pin_5_5*%
%TO.N,Net-(J6-Pin_5)*%
X153500000Y-111340000D03*
%TO.P,J6,6,Pin_6_6*%
%TO.N,Net-(J6-Pin_6)*%
X153500000Y-108800000D03*
%TO.P,J6,7,Pin_7_7*%
%TO.N,/EN_GPIO*%
X153500000Y-106260000D03*
%TO.P,J6,8,Pin_8_8*%
%TO.N,/F{slash}R*%
X153500000Y-103720000D03*
%TO.P,J6,9,Pin_9_9*%
%TO.N,/BRK*%
X153500000Y-101180000D03*
%TO.P,J6,10,Pin_10_10*%
%TO.N,/SPEED*%
X153500000Y-98640000D03*
%TO.P,J6,11,Pin_11_11*%
%TO.N,/ALM*%
X153500000Y-96100000D03*
%TO.P,J6,12,Pin_12_12*%
%TO.N,Net-(J6-Pin_12)*%
X153500000Y-93560000D03*
%TO.P,J6,13,Pin_13_13*%
%TO.N,/SV*%
X153500000Y-91020000D03*
%TO.P,J6,14,Pin_14_14*%
%TO.N,GND*%
X153500000Y-88480000D03*
%TO.P,J6,15,Pin_15_15*%
%TO.N,+5V*%
X153500000Y-85940000D03*
%TD*%
D16*
%TO.P,J7,1,Pin_1_1*%
%TO.N,/SWITCH*%
X172080000Y-82000000D03*
D11*
%TO.P,J7,2,Pin_2_2*%
%TO.N,GND*%
X167000000Y-82000000D03*
%TD*%
D14*
%TO.P,H2,1,1_1*%
%TO.N,GND*%
X116000000Y-127000000D03*
%TD*%
D17*
%TO.N,/EN_OUT*%
X168000000Y-118500000D03*
%TO.N,/LED_R*%
X156500000Y-86000000D03*
%TO.N,/LED_G*%
X150000000Y-83000000D03*
%TO.N,+3V3*%
X123500000Y-82000000D03*
%TD*%
%TO.N,/EN_OUT*%
D18*
X168000000Y-118500000D02*
X178075000Y-118500000D01*
X178075000Y-118500000D02*
X183457300Y-113117700D01*
%TO.N,/LED_R*%
X141000000Y-126000000D02*
X124832487Y-109832487D01*
X156500000Y-124000000D02*
X154500000Y-126000000D01*
X154500000Y-126000000D02*
X141000000Y-126000000D01*
X124832487Y-109832487D02*
X121946640Y-109832487D01*
X156500000Y-86000000D02*
X156500000Y-124000000D01*
%TO.N,/LED_G*%
X150000000Y-83000000D02*
X146239127Y-83000000D01*
X124000000Y-105239127D02*
X124000000Y-106500000D01*
X146239127Y-83000000D02*
X124000000Y-105239127D01*
X124000000Y-106500000D02*
X123207513Y-107292487D01*
X123207513Y-107292487D02*
X121946640Y-107292487D01*
%TO.N,/SWITCH*%
X168500000Y-114500000D02*
X155500000Y-127500000D01*
X168500000Y-88500000D02*
X168500000Y-114500000D01*
X155500000Y-127500000D02*
X131500000Y-127500000D01*
X172080000Y-84920000D02*
X168500000Y-88500000D01*
X123992487Y-119992487D02*
X121946640Y-119992487D01*
X172080000Y-82000000D02*
X172080000Y-84920000D01*
X131500000Y-127500000D02*
X123992487Y-119992487D01*
%TO.N,+3V3*%
X123500000Y-82000000D02*
X153500000Y-82000000D01*
X153500000Y-82000000D02*
X161245000Y-89745000D01*
X161245000Y-89745000D02*
X161245000Y-91915000D01*
%TD*%
%TA.AperFunction,Conductor*%
%TO.N,GND*%
G36*
X153266942Y-82620185D02*
G01*
X153287584Y-82636819D01*
X155921662Y-85270897D01*
X155955147Y-85332220D01*
X155950163Y-85401912D01*
X155921662Y-85446259D01*
X155878213Y-85489707D01*
X155878210Y-85489711D01*
X155790609Y-85620814D01*
X155790602Y-85620827D01*
X155730264Y-85766498D01*
X155730261Y-85766510D01*
X155699500Y-85921153D01*
X155699500Y-86078846D01*
X155730261Y-86233489D01*
X155730264Y-86233501D01*
X155790602Y-86379172D01*
X155790609Y-86379185D01*
X155878602Y-86510874D01*
X155899480Y-86577551D01*
X155899500Y-86579765D01*
X155899500Y-123699903D01*
X155879815Y-123766942D01*
X155863181Y-123787584D01*
X154287584Y-125363181D01*
X154226261Y-125396666D01*
X154199903Y-125399500D01*
X141300097Y-125399500D01*
X141233058Y-125379815D01*
X141212416Y-125363181D01*
X125320077Y-109470842D01*
X125320075Y-109470839D01*
X125201204Y-109351968D01*
X125201196Y-109351962D01*
X125086273Y-109285612D01*
X125086272Y-109285611D01*
X125070808Y-109276683D01*
X125064272Y-109272910D01*
X124911544Y-109231986D01*
X124753430Y-109231986D01*
X124745834Y-109231986D01*
X124745818Y-109231987D01*
X123321370Y-109231987D01*
X123254331Y-109212302D01*
X123217448Y-109174620D01*
X123217291Y-109174735D01*
X123216512Y-109173663D01*
X123215640Y-109172772D01*
X123214429Y-109170796D01*
X123174791Y-109116239D01*
X123097621Y-109010023D01*
X122957104Y-108869506D01*
X122796334Y-108752700D01*
X122639858Y-108672971D01*
X122589063Y-108624997D01*
X122572268Y-108557176D01*
X122594805Y-108491041D01*
X122639858Y-108452002D01*
X122796334Y-108372274D01*
X122957104Y-108255468D01*
X123097621Y-108114951D01*
X123214427Y-107954181D01*
X123214431Y-107954174D01*
X123216972Y-107950029D01*
X123218044Y-107950686D01*
X123233997Y-107933786D01*
X123251773Y-107910787D01*
X123258924Y-107907380D01*
X123262014Y-107904108D01*
X123283006Y-107894350D01*
X123287650Y-107892698D01*
X123439298Y-107852064D01*
X123489417Y-107823126D01*
X123576229Y-107773007D01*
X123688033Y-107661203D01*
X123688033Y-107661201D01*
X123698241Y-107650994D01*
X123698243Y-107650991D01*
X124358506Y-106990728D01*
X124358511Y-106990724D01*
X124368714Y-106980520D01*
X124368716Y-106980520D01*
X124480520Y-106868716D01*
X124532657Y-106778412D01*
X124559577Y-106731785D01*
X124600501Y-106579057D01*
X124600501Y-106420943D01*
X124600501Y-106413348D01*
X124600500Y-106413330D01*
X124600500Y-105539223D01*
X124620185Y-105472184D01*
X124636814Y-105451547D01*
X145684459Y-84403901D01*
X145745782Y-84370417D01*
X145815474Y-84375401D01*
X145871407Y-84417273D01*
X145895824Y-84482737D01*
X145896140Y-84491583D01*
X145896140Y-84531847D01*
X145927227Y-84728124D01*
X145988633Y-84917116D01*
X145988634Y-84917119D01*
X146061543Y-85060208D01*
X146078853Y-85094181D01*
X146195659Y-85254951D01*
X146336176Y-85395468D01*
X146496946Y-85512274D01*
X146653972Y-85592283D01*
X146704767Y-85640256D01*
X146721562Y-85708077D01*
X146699025Y-85774212D01*
X146653972Y-85813251D01*
X146497209Y-85893126D01*
X146336500Y-86009890D01*
X146336499Y-86009890D01*
X146196043Y-86150346D01*
X146196043Y-86150347D01*
X146079281Y-86311054D01*
X145989096Y-86488051D01*
X145927714Y-86676969D01*
X145920505Y-86722486D01*
X145920505Y-86722487D01*
X147030954Y-86722487D01*
X147026560Y-86726881D01*
X146973899Y-86818093D01*
X146946640Y-86919826D01*
X146946640Y-87025148D01*
X146973899Y-87126881D01*
X147026560Y-87218093D01*
X147030954Y-87222487D01*
X145920505Y-87222487D01*
X145927714Y-87268004D01*
X145989096Y-87456922D01*
X146079281Y-87633919D01*
X146196043Y-87794626D01*
X146196043Y-87794627D01*
X146336499Y-87935083D01*
X146497207Y-88051845D01*
X146653971Y-88131721D01*
X146704767Y-88179696D01*
X146721562Y-88247517D01*
X146699024Y-88313652D01*
X146653971Y-88352691D01*
X146496945Y-88432700D01*
X146336173Y-88549508D01*
X146195661Y-88690020D01*
X146078853Y-88850792D01*
X145988634Y-89027854D01*
X145988633Y-89027857D01*
X145927227Y-89216849D01*
X145896140Y-89413126D01*
X145896140Y-89611847D01*
X145927227Y-89808124D01*
X145988633Y-89997116D01*
X145988634Y-89997119D01*
X146061543Y-90140208D01*
X146078853Y-90174181D01*
X146195659Y-90334951D01*
X146336176Y-90475468D01*
X146496946Y-90592274D01*
X146553728Y-90621206D01*
X146653420Y-90672002D01*
X146704216Y-90719977D01*
X146721011Y-90787798D01*
X146698473Y-90853933D01*
X146653420Y-90892972D01*
X146496945Y-90972700D01*
X146336173Y-91089508D01*
X146195661Y-91230020D01*
X146078853Y-91390792D01*
X145988634Y-91567854D01*
X145988633Y-91567857D01*
X145927227Y-91756849D01*
X145896140Y-91953126D01*
X145896140Y-92151847D01*
X145927227Y-92348124D01*
X145988633Y-92537116D01*
X145988634Y-92537119D01*
X146059227Y-92675663D01*
X146078853Y-92714181D01*
X146195659Y-92874951D01*
X146336176Y-93015468D01*
X146496946Y-93132274D01*
X146615472Y-93192666D01*
X146653420Y-93212002D01*
X146704216Y-93259977D01*
X146721011Y-93327798D01*
X146698473Y-93393933D01*
X146653420Y-93432972D01*
X146496945Y-93512700D01*
X146336173Y-93629508D01*
X146195661Y-93770020D01*
X146078853Y-93930792D01*
X145988634Y-94107854D01*
X145988633Y-94107857D01*
X145927227Y-94296849D01*
X145896140Y-94493126D01*
X145896140Y-94691847D01*
X145927227Y-94888124D01*
X145988633Y-95077116D01*
X145988634Y-95077119D01*
X146061543Y-95220208D01*
X146078853Y-95254181D01*
X146195659Y-95414951D01*
X146336176Y-95555468D01*
X146496946Y-95672274D01*
X146615472Y-95732666D01*
X146653420Y-95752002D01*
X146704216Y-95799977D01*
X146721011Y-95867798D01*
X146698473Y-95933933D01*
X146653420Y-95972972D01*
X146496945Y-96052700D01*
X146336173Y-96169508D01*
X146195661Y-96310020D01*
X146078853Y-96470792D01*
X145988634Y-96647854D01*
X145988633Y-96647857D01*
X145927227Y-96836849D01*
X145896140Y-97033126D01*
X145896140Y-97231847D01*
X145927227Y-97428124D01*
X145988633Y-97617116D01*
X145988634Y-97617119D01*
X146061273Y-97759679D01*
X146078853Y-97794181D01*
X146195659Y-97954951D01*
X146336176Y-98095468D01*
X146496946Y-98212274D01*
X146615472Y-98272666D01*
X146653420Y-98292002D01*
X146704216Y-98339977D01*
X146721011Y-98407798D01*
X146698473Y-98473933D01*
X146653420Y-98512972D01*
X146496945Y-98592700D01*
X146336173Y-98709508D01*
X146195661Y-98850020D01*
X146078853Y-99010792D01*
X145988634Y-99187854D01*
X145988633Y-99187857D01*
X145927227Y-99376849D01*
X145896140Y-99573126D01*
X145896140Y-99771847D01*
X145927227Y-99968124D01*
X145988633Y-100157116D01*
X145988634Y-100157119D01*
X146061543Y-100300208D01*
X146078853Y-100334181D01*
X146195659Y-100494951D01*
X146336176Y-100635468D01*
X146496946Y-100752274D01*
X146615472Y-100812666D01*
X146653420Y-100832002D01*
X146704216Y-100879977D01*
X146721011Y-100947798D01*
X146698473Y-101013933D01*
X146653420Y-101052972D01*
X146496945Y-101132700D01*
X146336173Y-101249508D01*
X146195661Y-101390020D01*
X146078853Y-101550792D01*
X145988634Y-101727854D01*
X145988633Y-101727857D01*
X145927227Y-101916849D01*
X145896140Y-102113126D01*
X145896140Y-102311847D01*
X145927227Y-102508124D01*
X145988633Y-102697116D01*
X145988634Y-102697119D01*
X146061273Y-102839679D01*
X146078853Y-102874181D01*
X146195659Y-103034951D01*
X146336176Y-103175468D01*
X146496946Y-103292274D01*
X146615472Y-103352666D01*
X146653420Y-103372002D01*
X146704216Y-103419977D01*
X146721011Y-103487798D01*
X146698473Y-103553933D01*
X146653420Y-103592972D01*
X146496945Y-103672700D01*
X146336173Y-103789508D01*
X146195661Y-103930020D01*
X146078853Y-104090792D01*
X145988634Y-104267854D01*
X145988633Y-104267857D01*
X145927227Y-104456849D01*
X145896140Y-104653126D01*
X145896140Y-104851847D01*
X145927227Y-105048124D01*
X145988633Y-105237116D01*
X145988634Y-105237119D01*
X146061543Y-105380208D01*
X146078853Y-105414181D01*
X146195659Y-105574951D01*
X146336176Y-105715468D01*
X146496946Y-105832274D01*
X146615472Y-105892666D01*
X146653420Y-105912002D01*
X146704216Y-105959977D01*
X146721011Y-106027798D01*
X146698473Y-106093933D01*
X146653420Y-106132972D01*
X146496945Y-106212700D01*
X146336173Y-106329508D01*
X146195661Y-106470020D01*
X146078853Y-106630792D01*
X145988634Y-106807854D01*
X145988633Y-106807857D01*
X145927227Y-106996849D01*
X145896140Y-107193126D01*
X145896140Y-107391847D01*
X145927227Y-107588124D01*
X145988633Y-107777116D01*
X145988634Y-107777119D01*
X146061273Y-107919679D01*
X146078853Y-107954181D01*
X146195659Y-108114951D01*
X146336176Y-108255468D01*
X146496946Y-108372274D01*
X146615472Y-108432666D01*
X146653420Y-108452002D01*
X146704216Y-108499977D01*
X146721011Y-108567798D01*
X146698473Y-108633933D01*
X146653420Y-108672972D01*
X146496945Y-108752700D01*
X146336173Y-108869508D01*
X146195661Y-109010020D01*
X146078853Y-109170792D01*
X145988634Y-109347854D01*
X145988633Y-109347857D01*
X145927227Y-109536849D01*
X145896140Y-109733126D01*
X145896140Y-109931847D01*
X145927227Y-110128124D01*
X145988633Y-110317116D01*
X145988634Y-110317119D01*
X146047673Y-110432987D01*
X146078853Y-110494181D01*
X146195659Y-110654951D01*
X146336176Y-110795468D01*
X146496946Y-110912274D01*
X146615472Y-110972666D01*
X146653420Y-110992002D01*
X146704216Y-111039977D01*
X146721011Y-111107798D01*
X146698473Y-111173933D01*
X146653420Y-111212972D01*
X146496945Y-111292700D01*
X146336173Y-111409508D01*
X146195661Y-111550020D01*
X146078853Y-111710792D01*
X145988634Y-111887854D01*
X145988633Y-111887857D01*
X145927227Y-112076849D01*
X145896140Y-112273126D01*
X145896140Y-112471847D01*
X145927227Y-112668124D01*
X145988633Y-112857116D01*
X145988634Y-112857119D01*
X146061273Y-112999679D01*
X146078853Y-113034181D01*
X146195659Y-113194951D01*
X146336176Y-113335468D01*
X146496946Y-113452274D01*
X146611391Y-113510587D01*
X146653420Y-113532002D01*
X146704216Y-113579977D01*
X146721011Y-113647798D01*
X146698473Y-113713933D01*
X146653420Y-113752972D01*
X146496945Y-113832700D01*
X146336173Y-113949508D01*
X146195661Y-114090020D01*
X146078853Y-114250792D01*
X145988634Y-114427854D01*
X145988633Y-114427857D01*
X145927227Y-114616849D01*
X145896140Y-114813126D01*
X145896140Y-115011847D01*
X145927227Y-115208124D01*
X145988633Y-115397116D01*
X145988634Y-115397119D01*
X146059764Y-115536717D01*
X146078853Y-115574181D01*
X146195659Y-115734951D01*
X146336176Y-115875468D01*
X146496946Y-115992274D01*
X146564226Y-116026555D01*
X146653420Y-116072002D01*
X146704216Y-116119977D01*
X146721011Y-116187798D01*
X146698473Y-116253933D01*
X146653420Y-116292972D01*
X146496945Y-116372700D01*
X146336173Y-116489508D01*
X146195661Y-116630020D01*
X146078853Y-116790792D01*
X145988634Y-116967854D01*
X145988633Y-116967857D01*
X145927227Y-117156849D01*
X145896140Y-117353126D01*
X145896140Y-117551847D01*
X145927227Y-117748124D01*
X145988633Y-117937116D01*
X145988634Y-117937119D01*
X146061543Y-118080208D01*
X146078853Y-118114181D01*
X146195659Y-118274951D01*
X146336176Y-118415468D01*
X146496946Y-118532274D01*
X146615472Y-118592666D01*
X146653420Y-118612002D01*
X146704216Y-118659977D01*
X146721011Y-118727798D01*
X146698473Y-118793933D01*
X146653420Y-118832972D01*
X146496945Y-118912700D01*
X146336173Y-119029508D01*
X146195661Y-119170020D01*
X146078853Y-119330792D01*
X145988634Y-119507854D01*
X145988633Y-119507857D01*
X145927227Y-119696849D01*
X145896140Y-119893126D01*
X145896140Y-120091847D01*
X145927227Y-120288124D01*
X145988633Y-120477116D01*
X145988634Y-120477119D01*
X146052331Y-120602129D01*
X146078853Y-120654181D01*
X146195659Y-120814951D01*
X146336176Y-120955468D01*
X146496946Y-121072274D01*
X146583789Y-121116522D01*
X146674007Y-121162492D01*
X146674010Y-121162493D01*
X146768506Y-121193196D01*
X146863004Y-121223900D01*
X147059279Y-121254987D01*
X147059280Y-121254987D01*
X147634000Y-121254987D01*
X147634001Y-121254987D01*
X147830276Y-121223900D01*
X148019272Y-121162492D01*
X148196334Y-121072274D01*
X148357104Y-120955468D01*
X148497621Y-120814951D01*
X148614427Y-120654181D01*
X148704645Y-120477119D01*
X148766053Y-120288123D01*
X148797140Y-120091848D01*
X148797140Y-119893126D01*
X148766053Y-119696851D01*
X148723872Y-119567031D01*
X148704646Y-119507857D01*
X148704645Y-119507854D01*
X148645607Y-119391987D01*
X148614427Y-119330793D01*
X148497621Y-119170023D01*
X148357104Y-119029506D01*
X148196334Y-118912700D01*
X148039858Y-118832971D01*
X147989063Y-118784997D01*
X147972268Y-118717176D01*
X147994805Y-118651041D01*
X148039858Y-118612002D01*
X148196334Y-118532274D01*
X148357104Y-118415468D01*
X148497621Y-118274951D01*
X148614427Y-118114181D01*
X148704645Y-117937119D01*
X148766053Y-117748123D01*
X148797140Y-117551848D01*
X148797140Y-117353126D01*
X148766053Y-117156851D01*
X148713434Y-116994904D01*
X148704646Y-116967857D01*
X148704645Y-116967854D01*
X148658675Y-116877636D01*
X148614427Y-116790793D01*
X148497621Y-116630023D01*
X148357104Y-116489506D01*
X148196334Y-116372700D01*
X148039858Y-116292971D01*
X147989063Y-116244997D01*
X147972268Y-116177176D01*
X147994805Y-116111041D01*
X148039858Y-116072002D01*
X148196334Y-115992274D01*
X148357104Y-115875468D01*
X148497621Y-115734951D01*
X148614427Y-115574181D01*
X148704645Y-115397119D01*
X148766053Y-115208123D01*
X148797140Y-115011848D01*
X148797140Y-114813126D01*
X148766053Y-114616851D01*
X148735349Y-114522353D01*
X148704646Y-114427857D01*
X148704645Y-114427854D01*
X148622655Y-114266942D01*
X148614427Y-114250793D01*
X148497621Y-114090023D01*
X148357104Y-113949506D01*
X148196334Y-113832700D01*
X148039858Y-113752971D01*
X147989063Y-113704997D01*
X147972268Y-113637176D01*
X147994805Y-113571041D01*
X148039858Y-113532002D01*
X148196334Y-113452274D01*
X148357104Y-113335468D01*
X148497621Y-113194951D01*
X148614427Y-113034181D01*
X148704645Y-112857119D01*
X148766053Y-112668123D01*
X148797140Y-112471848D01*
X148797140Y-112273126D01*
X148766053Y-112076851D01*
X148735349Y-111982353D01*
X148704646Y-111887857D01*
X148704645Y-111887854D01*
X148640063Y-111761106D01*
X148614427Y-111710793D01*
X148497621Y-111550023D01*
X148357104Y-111409506D01*
X148196334Y-111292700D01*
X148039858Y-111212971D01*
X147989063Y-111164997D01*
X147972268Y-111097176D01*
X147994805Y-111031041D01*
X148039858Y-110992002D01*
X148196334Y-110912274D01*
X148357104Y-110795468D01*
X148497621Y-110654951D01*
X148614427Y-110494181D01*
X148704645Y-110317119D01*
X148766053Y-110128123D01*
X148797140Y-109931848D01*
X148797140Y-109733126D01*
X148766053Y-109536851D01*
X148735349Y-109442353D01*
X148704646Y-109347857D01*
X148704645Y-109347854D01*
X148645607Y-109231987D01*
X148614427Y-109170793D01*
X148497621Y-109010023D01*
X148357104Y-108869506D01*
X148196334Y-108752700D01*
X148039858Y-108672971D01*
X147989063Y-108624997D01*
X147972268Y-108557176D01*
X147994805Y-108491041D01*
X148039858Y-108452002D01*
X148196334Y-108372274D01*
X148357104Y-108255468D01*
X148497621Y-108114951D01*
X148614427Y-107954181D01*
X148704645Y-107777119D01*
X148766053Y-107588123D01*
X148797140Y-107391848D01*
X148797140Y-107193126D01*
X148766053Y-106996851D01*
X148735349Y-106902353D01*
X148704646Y-106807857D01*
X148704645Y-106807854D01*
X148640063Y-106681106D01*
X148614427Y-106630793D01*
X148497621Y-106470023D01*
X148357104Y-106329506D01*
X148196334Y-106212700D01*
X148039858Y-106132971D01*
X147989063Y-106084997D01*
X147972268Y-106017176D01*
X147994805Y-105951041D01*
X148039858Y-105912002D01*
X148196334Y-105832274D01*
X148357104Y-105715468D01*
X148497621Y-105574951D01*
X148614427Y-105414181D01*
X148704645Y-105237119D01*
X148766053Y-105048123D01*
X148797140Y-104851848D01*
X148797140Y-104653126D01*
X148766053Y-104456851D01*
X148735349Y-104362353D01*
X148704646Y-104267857D01*
X148704645Y-104267854D01*
X148643268Y-104147397D01*
X148614427Y-104090793D01*
X148497621Y-103930023D01*
X148357104Y-103789506D01*
X148196334Y-103672700D01*
X148039858Y-103592971D01*
X147989063Y-103544997D01*
X147972268Y-103477176D01*
X147994805Y-103411041D01*
X148039858Y-103372002D01*
X148196334Y-103292274D01*
X148357104Y-103175468D01*
X148497621Y-103034951D01*
X148614427Y-102874181D01*
X148704645Y-102697119D01*
X148766053Y-102508123D01*
X148797140Y-102311848D01*
X148797140Y-102113126D01*
X148766053Y-101916851D01*
X148735349Y-101822353D01*
X148704646Y-101727857D01*
X148704645Y-101727854D01*
X148640063Y-101601106D01*
X148614427Y-101550793D01*
X148497621Y-101390023D01*
X148357104Y-101249506D01*
X148196334Y-101132700D01*
X148039858Y-101052971D01*
X147989063Y-101004997D01*
X147972268Y-100937176D01*
X147994805Y-100871041D01*
X148039858Y-100832002D01*
X148196334Y-100752274D01*
X148357104Y-100635468D01*
X148497621Y-100494951D01*
X148614427Y-100334181D01*
X148704645Y-100157119D01*
X148766053Y-99968123D01*
X148797140Y-99771848D01*
X148797140Y-99573126D01*
X148766053Y-99376851D01*
X148735349Y-99282353D01*
X148704646Y-99187857D01*
X148704645Y-99187854D01*
X148643268Y-99067397D01*
X148614427Y-99010793D01*
X148497621Y-98850023D01*
X148357104Y-98709506D01*
X148196334Y-98592700D01*
X148039858Y-98512971D01*
X147989063Y-98464997D01*
X147972268Y-98397176D01*
X147994805Y-98331041D01*
X148039858Y-98292002D01*
X148196334Y-98212274D01*
X148357104Y-98095468D01*
X148497621Y-97954951D01*
X148614427Y-97794181D01*
X148704645Y-97617119D01*
X148766053Y-97428123D01*
X148797140Y-97231848D01*
X148797140Y-97033126D01*
X148766053Y-96836851D01*
X148735349Y-96742353D01*
X148704646Y-96647857D01*
X148704645Y-96647854D01*
X148640063Y-96521106D01*
X148614427Y-96470793D01*
X148497621Y-96310023D01*
X148357104Y-96169506D01*
X148196334Y-96052700D01*
X148039858Y-95972971D01*
X147989063Y-95924997D01*
X147972268Y-95857176D01*
X147994805Y-95791041D01*
X148039858Y-95752002D01*
X148196334Y-95672274D01*
X148357104Y-95555468D01*
X148497621Y-95414951D01*
X148614427Y-95254181D01*
X148704645Y-95077119D01*
X148766053Y-94888123D01*
X148797140Y-94691848D01*
X148797140Y-94493126D01*
X148766053Y-94296851D01*
X148704645Y-94107855D01*
X148704645Y-94107854D01*
X148658675Y-94017636D01*
X148614427Y-93930793D01*
X148497621Y-93770023D01*
X148357104Y-93629506D01*
X148196334Y-93512700D01*
X148039858Y-93432971D01*
X147989063Y-93384997D01*
X147972268Y-93317176D01*
X147994805Y-93251041D01*
X148039858Y-93212002D01*
X148196334Y-93132274D01*
X148357104Y-93015468D01*
X148497621Y-92874951D01*
X148614427Y-92714181D01*
X148704645Y-92537119D01*
X148766053Y-92348123D01*
X148797140Y-92151848D01*
X148797140Y-91953126D01*
X148766053Y-91756851D01*
X148704645Y-91567855D01*
X148704645Y-91567854D01*
X148614426Y-91390792D01*
X148592360Y-91360421D01*
X148497621Y-91230023D01*
X148357104Y-91089506D01*
X148257494Y-91017135D01*
X148246531Y-91009170D01*
X148246526Y-91009166D01*
X148196334Y-90972700D01*
X148039858Y-90892971D01*
X147989063Y-90844997D01*
X147972268Y-90777176D01*
X147994805Y-90711041D01*
X148039858Y-90672002D01*
X148196334Y-90592274D01*
X148357104Y-90475468D01*
X148497621Y-90334951D01*
X148614427Y-90174181D01*
X148704645Y-89997119D01*
X148766053Y-89808123D01*
X148797140Y-89611848D01*
X148797140Y-89413126D01*
X148766053Y-89216851D01*
X148735349Y-89122353D01*
X148704646Y-89027857D01*
X148704645Y-89027854D01*
X148614426Y-88850792D01*
X148601902Y-88833554D01*
X148497621Y-88690023D01*
X148357104Y-88549506D01*
X148310651Y-88515756D01*
X148246586Y-88469210D01*
X148246582Y-88469207D01*
X148196334Y-88432700D01*
X148039307Y-88352690D01*
X147988512Y-88304716D01*
X147971717Y-88236895D01*
X147994254Y-88170760D01*
X148039308Y-88131721D01*
X148196072Y-88051845D01*
X148356779Y-87935083D01*
X148356780Y-87935083D01*
X148497236Y-87794627D01*
X148497236Y-87794626D01*
X148613998Y-87633919D01*
X148704183Y-87456922D01*
X148765565Y-87268004D01*
X148772774Y-87222487D01*
X147662326Y-87222487D01*
X147666720Y-87218093D01*
X147719381Y-87126881D01*
X147746640Y-87025148D01*
X147746640Y-86919826D01*
X147719381Y-86818093D01*
X147666720Y-86726881D01*
X147662326Y-86722487D01*
X148772775Y-86722487D01*
X148772774Y-86722486D01*
X148765565Y-86676969D01*
X148704183Y-86488051D01*
X148613998Y-86311054D01*
X148497236Y-86150347D01*
X148497236Y-86150346D01*
X148356780Y-86009890D01*
X148245664Y-85929159D01*
X148196072Y-85893128D01*
X148079465Y-85833713D01*
X152149500Y-85833713D01*
X152149500Y-86046286D01*
X152176606Y-86217430D01*
X152182754Y-86256243D01*
X152237786Y-86425614D01*
X152248444Y-86458414D01*
X152344951Y-86647820D01*
X152469890Y-86819786D01*
X152620213Y-86970109D01*
X152792179Y-87095048D01*
X152792181Y-87095049D01*
X152792184Y-87095051D01*
X152801493Y-87099794D01*
X152852290Y-87147766D01*
X152869087Y-87215587D01*
X152846552Y-87281722D01*
X152801505Y-87320760D01*
X152792446Y-87325376D01*
X152792440Y-87325380D01*
X152738282Y-87364727D01*
X152738282Y-87364728D01*
X153370591Y-87997037D01*
X153307007Y-88014075D01*
X153192993Y-88079901D01*
X153099901Y-88172993D01*
X153034075Y-88287007D01*
X153017037Y-88350591D01*
X152384728Y-87718282D01*
X152384727Y-87718282D01*
X152345380Y-87772439D01*
X152248904Y-87961782D01*
X152183242Y-88163869D01*
X152183242Y-88163872D01*
X152150000Y-88373753D01*
X152150000Y-88586246D01*
X152183242Y-88796127D01*
X152183242Y-88796130D01*
X152248904Y-88998217D01*
X152345375Y-89187550D01*
X152384728Y-89241716D01*
X153017037Y-88609408D01*
X153034075Y-88672993D01*
X153099901Y-88787007D01*
X153192993Y-88880099D01*
X153307007Y-88945925D01*
X153370590Y-88962962D01*
X152738282Y-89595269D01*
X152738282Y-89595270D01*
X152792452Y-89634626D01*
X152792451Y-89634626D01*
X152801495Y-89639234D01*
X152852292Y-89687208D01*
X152869087Y-89755029D01*
X152846550Y-89821164D01*
X152801499Y-89860202D01*
X152792182Y-89864949D01*
X152620213Y-89989890D01*
X152469890Y-90140213D01*
X152344951Y-90312179D01*
X152248444Y-90501585D01*
X152182753Y-90703760D01*
X152152785Y-90892972D01*
X152149500Y-90913713D01*
X152149500Y-91126287D01*
X152182754Y-91336243D01*
X152237786Y-91505614D01*
X152248444Y-91538414D01*
X152344951Y-91727820D01*
X152469890Y-91899786D01*
X152620213Y-92050109D01*
X152792182Y-92175050D01*
X152800946Y-92179516D01*
X152851742Y-92227491D01*
X152868536Y-92295312D01*
X152845998Y-92361447D01*
X152800946Y-92400484D01*
X152792182Y-92404949D01*
X152620213Y-92529890D01*
X152469890Y-92680213D01*
X152344951Y-92852179D01*
X152248444Y-93041585D01*
X152182753Y-93243760D01*
X152154409Y-93422721D01*
X152149500Y-93453713D01*
X152149500Y-93666287D01*
X152182754Y-93876243D01*
X152237786Y-94045614D01*
X152248444Y-94078414D01*
X152344951Y-94267820D01*
X152469890Y-94439786D01*
X152620213Y-94590109D01*
X152792182Y-94715050D01*
X152800946Y-94719516D01*
X152851742Y-94767491D01*
X152868536Y-94835312D01*
X152845998Y-94901447D01*
X152800946Y-94940484D01*
X152792182Y-94944949D01*
X152620213Y-95069890D01*
X152469890Y-95220213D01*
X152344951Y-95392179D01*
X152248444Y-95581585D01*
X152182753Y-95783760D01*
X152149500Y-95993713D01*
X152149500Y-96206286D01*
X152176606Y-96377430D01*
X152182754Y-96416243D01*
X152237786Y-96585614D01*
X152248444Y-96618414D01*
X152344951Y-96807820D01*
X152469890Y-96979786D01*
X152620213Y-97130109D01*
X152792182Y-97255050D01*
X152800946Y-97259516D01*
X152851742Y-97307491D01*
X152868536Y-97375312D01*
X152845998Y-97441447D01*
X152800946Y-97480484D01*
X152792182Y-97484949D01*
X152620213Y-97609890D01*
X152469890Y-97760213D01*
X152344951Y-97932179D01*
X152248444Y-98121585D01*
X152182753Y-98323760D01*
X152149500Y-98533713D01*
X152149500Y-98746286D01*
X152170702Y-98880154D01*
X152182754Y-98956243D01*
X152237786Y-99125614D01*
X152248444Y-99158414D01*
X152344951Y-99347820D01*
X152469890Y-99519786D01*
X152620213Y-99670109D01*
X152792182Y-99795050D01*
X152800946Y-99799516D01*
X152851742Y-99847491D01*
X152868536Y-99915312D01*
X152845998Y-99981447D01*
X152800946Y-100020484D01*
X152792182Y-100024949D01*
X152620213Y-100149890D01*
X152469890Y-100300213D01*
X152344951Y-100472179D01*
X152248444Y-100661585D01*
X152182753Y-100863760D01*
X152149500Y-101073713D01*
X152149500Y-101286286D01*
X152176606Y-101457430D01*
X152182754Y-101496243D01*
X152237786Y-101665614D01*
X152248444Y-101698414D01*
X152344951Y-101887820D01*
X152469890Y-102059786D01*
X152620213Y-102210109D01*
X152792182Y-102335050D01*
X152800946Y-102339516D01*
X152851742Y-102387491D01*
X152868536Y-102455312D01*
X152845998Y-102521447D01*
X152800946Y-102560484D01*
X152792182Y-102564949D01*
X152620213Y-102689890D01*
X152469890Y-102840213D01*
X152344951Y-103012179D01*
X152248444Y-103201585D01*
X152182753Y-103403760D01*
X152149500Y-103613713D01*
X152149500Y-103826286D01*
X152170702Y-103960154D01*
X152182754Y-104036243D01*
X152237786Y-104205614D01*
X152248444Y-104238414D01*
X152344951Y-104427820D01*
X152469890Y-104599786D01*
X152620213Y-104750109D01*
X152792182Y-104875050D01*
X152800946Y-104879516D01*
X152851742Y-104927491D01*
X152868536Y-104995312D01*
X152845998Y-105061447D01*
X152800946Y-105100484D01*
X152792182Y-105104949D01*
X152620213Y-105229890D01*
X152469890Y-105380213D01*
X152344951Y-105552179D01*
X152248444Y-105741585D01*
X152182753Y-105943760D01*
X152149500Y-106153713D01*
X152149500Y-106366286D01*
X152176606Y-106537430D01*
X152182754Y-106576243D01*
X152216826Y-106681106D01*
X152248443Y-106778412D01*
X152344951Y-106967820D01*
X152469890Y-107139786D01*
X152620213Y-107290109D01*
X152792182Y-107415050D01*
X152800946Y-107419516D01*
X152851742Y-107467491D01*
X152868536Y-107535312D01*
X152845998Y-107601447D01*
X152800946Y-107640484D01*
X152792182Y-107644949D01*
X152620213Y-107769890D01*
X152469890Y-107920213D01*
X152344951Y-108092179D01*
X152248444Y-108281585D01*
X152182753Y-108483760D01*
X152149500Y-108693713D01*
X152149500Y-108906286D01*
X152170702Y-109040154D01*
X152182754Y-109116243D01*
X152237786Y-109285614D01*
X152248444Y-109318414D01*
X152344951Y-109507820D01*
X152469890Y-109679786D01*
X152620213Y-109830109D01*
X152792182Y-109955050D01*
X152800946Y-109959516D01*
X152851742Y-110007491D01*
X152868536Y-110075312D01*
X152845998Y-110141447D01*
X152800946Y-110180484D01*
X152792182Y-110184949D01*
X152620213Y-110309890D01*
X152469890Y-110460213D01*
X152344951Y-110632179D01*
X152248444Y-110821585D01*
X152182753Y-111023760D01*
X152149500Y-111233713D01*
X152149500Y-111446286D01*
X152176606Y-111617430D01*
X152182754Y-111656243D01*
X152237786Y-111825614D01*
X152248444Y-111858414D01*
X152344951Y-112047820D01*
X152469890Y-112219786D01*
X152620213Y-112370109D01*
X152792182Y-112495050D01*
X152800946Y-112499516D01*
X152851742Y-112547491D01*
X152868536Y-112615312D01*
X152845998Y-112681447D01*
X152800946Y-112720484D01*
X152792182Y-112724949D01*
X152620213Y-112849890D01*
X152469890Y-113000213D01*
X152344951Y-113172179D01*
X152248444Y-113361585D01*
X152182753Y-113563760D01*
X152149500Y-113773713D01*
X152149500Y-113986286D01*
X152170702Y-114120154D01*
X152182754Y-114196243D01*
X152237786Y-114365614D01*
X152248444Y-114398414D01*
X152344951Y-114587820D01*
X152469890Y-114759786D01*
X152620213Y-114910109D01*
X152792182Y-115035050D01*
X152800946Y-115039516D01*
X152851742Y-115087491D01*
X152868536Y-115155312D01*
X152845998Y-115221447D01*
X152800946Y-115260484D01*
X152792182Y-115264949D01*
X152620213Y-115389890D01*
X152469890Y-115540213D01*
X152344951Y-115712179D01*
X152248444Y-115901585D01*
X152182753Y-116103760D01*
X152149500Y-116313713D01*
X152149500Y-116526286D01*
X152173694Y-116679044D01*
X152182754Y-116736243D01*
X152237786Y-116905614D01*
X152248444Y-116938414D01*
X152344951Y-117127820D01*
X152469890Y-117299786D01*
X152620213Y-117450109D01*
X152792182Y-117575050D01*
X152800946Y-117579516D01*
X152851742Y-117627491D01*
X152868536Y-117695312D01*
X152845998Y-117761447D01*
X152800946Y-117800484D01*
X152792182Y-117804949D01*
X152620213Y-117929890D01*
X152469890Y-118080213D01*
X152344951Y-118252179D01*
X152248444Y-118441585D01*
X152182753Y-118643760D01*
X152149500Y-118853713D01*
X152149500Y-119066286D01*
X152181723Y-119269738D01*
X152182754Y-119276243D01*
X152237786Y-119445614D01*
X152248444Y-119478414D01*
X152344951Y-119667820D01*
X152469890Y-119839786D01*
X152583430Y-119953326D01*
X152616915Y-120014649D01*
X152611931Y-120084341D01*
X152570059Y-120140274D01*
X152539083Y-120157189D01*
X152407669Y-120206203D01*
X152407664Y-120206206D01*
X152292455Y-120292452D01*
X152292452Y-120292455D01*
X152206206Y-120407664D01*
X152206202Y-120407671D01*
X152155908Y-120542517D01*
X152149501Y-120602116D01*
X152149501Y-120602123D01*
X152149500Y-120602135D01*
X152149500Y-122397870D01*
X152149501Y-122397876D01*
X152155908Y-122457483D01*
X152206202Y-122592328D01*
X152206206Y-122592335D01*
X152292452Y-122707544D01*
X152292455Y-122707547D01*
X152407664Y-122793793D01*
X152407671Y-122793797D01*
X152542517Y-122844091D01*
X152542516Y-122844091D01*
X152549444Y-122844835D01*
X152602127Y-122850500D01*
X154397872Y-122850499D01*
X154457483Y-122844091D01*
X154592331Y-122793796D01*
X154707546Y-122707546D01*
X154793796Y-122592331D01*
X154844091Y-122457483D01*
X154850500Y-122397873D01*
X154850499Y-120602128D01*
X154844091Y-120542517D01*
X154831857Y-120509717D01*
X154793797Y-120407671D01*
X154793793Y-120407664D01*
X154707547Y-120292455D01*
X154707544Y-120292452D01*
X154592335Y-120206206D01*
X154592328Y-120206202D01*
X154460917Y-120157189D01*
X154404983Y-120115318D01*
X154380566Y-120049853D01*
X154395418Y-119981580D01*
X154416563Y-119953332D01*
X154530104Y-119839792D01*
X154553935Y-119806992D01*
X154655048Y-119667820D01*
X154655047Y-119667820D01*
X154655051Y-119667816D01*
X154751557Y-119478412D01*
X154817246Y-119276243D01*
X154850500Y-119066287D01*
X154850500Y-118853713D01*
X154817246Y-118643757D01*
X154751557Y-118441588D01*
X154655051Y-118252184D01*
X154655049Y-118252181D01*
X154655048Y-118252179D01*
X154530109Y-118080213D01*
X154379786Y-117929890D01*
X154207820Y-117804951D01*
X154207115Y-117804591D01*
X154199054Y-117800485D01*
X154148259Y-117752512D01*
X154131463Y-117684692D01*
X154153999Y-117618556D01*
X154199054Y-117579515D01*
X154207816Y-117575051D01*
X154252966Y-117542248D01*
X154379786Y-117450109D01*
X154379788Y-117450106D01*
X154379792Y-117450104D01*
X154530104Y-117299792D01*
X154530106Y-117299788D01*
X154530109Y-117299786D01*
X154655048Y-117127820D01*
X154655047Y-117127820D01*
X154655051Y-117127816D01*
X154751557Y-116938412D01*
X154817246Y-116736243D01*
X154850500Y-116526287D01*
X154850500Y-116313713D01*
X154817246Y-116103757D01*
X154751557Y-115901588D01*
X154655051Y-115712184D01*
X154655049Y-115712181D01*
X154655048Y-115712179D01*
X154530109Y-115540213D01*
X154379786Y-115389890D01*
X154207820Y-115264951D01*
X154207115Y-115264591D01*
X154199054Y-115260485D01*
X154148259Y-115212512D01*
X154131463Y-115144692D01*
X154153999Y-115078556D01*
X154199054Y-115039515D01*
X154207816Y-115035051D01*
X154252966Y-115002248D01*
X154379786Y-114910109D01*
X154379788Y-114910106D01*
X154379792Y-114910104D01*
X154530104Y-114759792D01*
X154530106Y-114759788D01*
X154530109Y-114759786D01*
X154655048Y-114587820D01*
X154655047Y-114587820D01*
X154655051Y-114587816D01*
X154751557Y-114398412D01*
X154817246Y-114196243D01*
X154850500Y-113986287D01*
X154850500Y-113773713D01*
X154817246Y-113563757D01*
X154751557Y-113361588D01*
X154655051Y-113172184D01*
X154655049Y-113172181D01*
X154655048Y-113172179D01*
X154530109Y-113000213D01*
X154379786Y-112849890D01*
X154207820Y-112724951D01*
X154207115Y-112724591D01*
X154199054Y-112720485D01*
X154148259Y-112672512D01*
X154131463Y-112604692D01*
X154153999Y-112538556D01*
X154199054Y-112499515D01*
X154207816Y-112495051D01*
X154252966Y-112462248D01*
X154379786Y-112370109D01*
X154379788Y-112370106D01*
X154379792Y-112370104D01*
X154530104Y-112219792D01*
X154530106Y-112219788D01*
X154530109Y-112219786D01*
X154655048Y-112047820D01*
X154655047Y-112047820D01*
X154655051Y-112047816D01*
X154751557Y-111858412D01*
X154817246Y-111656243D01*
X154850500Y-111446287D01*
X154850500Y-111233713D01*
X154817246Y-111023757D01*
X154751557Y-110821588D01*
X154655051Y-110632184D01*
X154655049Y-110632181D01*
X154655048Y-110632179D01*
X154530109Y-110460213D01*
X154379786Y-110309890D01*
X154207820Y-110184951D01*
X154207115Y-110184591D01*
X154199054Y-110180485D01*
X154148259Y-110132512D01*
X154131463Y-110064692D01*
X154153999Y-109998556D01*
X154199054Y-109959515D01*
X154207816Y-109955051D01*
X154252966Y-109922248D01*
X154379786Y-109830109D01*
X154379788Y-109830106D01*
X154379792Y-109830104D01*
X154530104Y-109679792D01*
X154530106Y-109679788D01*
X154530109Y-109679786D01*
X154655048Y-109507820D01*
X154655047Y-109507820D01*
X154655051Y-109507816D01*
X154751557Y-109318412D01*
X154817246Y-109116243D01*
X154850500Y-108906287D01*
X154850500Y-108693713D01*
X154817246Y-108483757D01*
X154751557Y-108281588D01*
X154655051Y-108092184D01*
X154655049Y-108092181D01*
X154655048Y-108092179D01*
X154530109Y-107920213D01*
X154379786Y-107769890D01*
X154207820Y-107644951D01*
X154207115Y-107644591D01*
X154199054Y-107640485D01*
X154148259Y-107592512D01*
X154131463Y-107524692D01*
X154153999Y-107458556D01*
X154199054Y-107419515D01*
X154207816Y-107415051D01*
X154252966Y-107382248D01*
X154379786Y-107290109D01*
X154379788Y-107290106D01*
X154379792Y-107290104D01*
X154530104Y-107139792D01*
X154530106Y-107139788D01*
X154530109Y-107139786D01*
X154655048Y-106967820D01*
X154655047Y-106967820D01*
X154655051Y-106967816D01*
X154751557Y-106778412D01*
X154817246Y-106576243D01*
X154850500Y-106366287D01*
X154850500Y-106153713D01*
X154817246Y-105943757D01*
X154751557Y-105741588D01*
X154655051Y-105552184D01*
X154655049Y-105552181D01*
X154655048Y-105552179D01*
X154530109Y-105380213D01*
X154379786Y-105229890D01*
X154207820Y-105104951D01*
X154207115Y-105104591D01*
X154199054Y-105100485D01*
X154148259Y-105052512D01*
X154131463Y-104984692D01*
X154153999Y-104918556D01*
X154199054Y-104879515D01*
X154207816Y-104875051D01*
X154252966Y-104842248D01*
X154379786Y-104750109D01*
X154379788Y-104750106D01*
X154379792Y-104750104D01*
X154530104Y-104599792D01*
X154530106Y-104599788D01*
X154530109Y-104599786D01*
X154655048Y-104427820D01*
X154655047Y-104427820D01*
X154655051Y-104427816D01*
X154751557Y-104238412D01*
X154817246Y-104036243D01*
X154850500Y-103826287D01*
X154850500Y-103613713D01*
X154817246Y-103403757D01*
X154751557Y-103201588D01*
X154655051Y-103012184D01*
X154655049Y-103012181D01*
X154655048Y-103012179D01*
X154530109Y-102840213D01*
X154379786Y-102689890D01*
X154207820Y-102564951D01*
X154207115Y-102564591D01*
X154199054Y-102560485D01*
X154148259Y-102512512D01*
X154131463Y-102444692D01*
X154153999Y-102378556D01*
X154199054Y-102339515D01*
X154207816Y-102335051D01*
X154252966Y-102302248D01*
X154379786Y-102210109D01*
X154379788Y-102210106D01*
X154379792Y-102210104D01*
X154530104Y-102059792D01*
X154530106Y-102059788D01*
X154530109Y-102059786D01*
X154655048Y-101887820D01*
X154655047Y-101887820D01*
X154655051Y-101887816D01*
X154751557Y-101698412D01*
X154817246Y-101496243D01*
X154850500Y-101286287D01*
X154850500Y-101073713D01*
X154817246Y-100863757D01*
X154751557Y-100661588D01*
X154655051Y-100472184D01*
X154655049Y-100472181D01*
X154655048Y-100472179D01*
X154530109Y-100300213D01*
X154379786Y-100149890D01*
X154207820Y-100024951D01*
X154207115Y-100024591D01*
X154199054Y-100020485D01*
X154148259Y-99972512D01*
X154131463Y-99904692D01*
X154153999Y-99838556D01*
X154199054Y-99799515D01*
X154207816Y-99795051D01*
X154252966Y-99762248D01*
X154379786Y-99670109D01*
X154379788Y-99670106D01*
X154379792Y-99670104D01*
X154530104Y-99519792D01*
X154530106Y-99519788D01*
X154530109Y-99519786D01*
X154655048Y-99347820D01*
X154655047Y-99347820D01*
X154655051Y-99347816D01*
X154751557Y-99158412D01*
X154817246Y-98956243D01*
X154850500Y-98746287D01*
X154850500Y-98533713D01*
X154817246Y-98323757D01*
X154751557Y-98121588D01*
X154655051Y-97932184D01*
X154655049Y-97932181D01*
X154655048Y-97932179D01*
X154530109Y-97760213D01*
X154379786Y-97609890D01*
X154207820Y-97484951D01*
X154207115Y-97484591D01*
X154199054Y-97480485D01*
X154148259Y-97432512D01*
X154131463Y-97364692D01*
X154153999Y-97298556D01*
X154199054Y-97259515D01*
X154207816Y-97255051D01*
X154252966Y-97222248D01*
X154379786Y-97130109D01*
X154379788Y-97130106D01*
X154379792Y-97130104D01*
X154530104Y-96979792D01*
X154530106Y-96979788D01*
X154530109Y-96979786D01*
X154655048Y-96807820D01*
X154655047Y-96807820D01*
X154655051Y-96807816D01*
X154751557Y-96618412D01*
X154817246Y-96416243D01*
X154850500Y-96206287D01*
X154850500Y-95993713D01*
X154817246Y-95783757D01*
X154751557Y-95581588D01*
X154655051Y-95392184D01*
X154655049Y-95392181D01*
X154655048Y-95392179D01*
X154530109Y-95220213D01*
X154379786Y-95069890D01*
X154207820Y-94944951D01*
X154207115Y-94944591D01*
X154199054Y-94940485D01*
X154148259Y-94892512D01*
X154131463Y-94824692D01*
X154153999Y-94758556D01*
X154199054Y-94719515D01*
X154207816Y-94715051D01*
X154252966Y-94682248D01*
X154379786Y-94590109D01*
X154379788Y-94590106D01*
X154379792Y-94590104D01*
X154530104Y-94439792D01*
X154530106Y-94439788D01*
X154530109Y-94439786D01*
X154655048Y-94267820D01*
X154655047Y-94267820D01*
X154655051Y-94267816D01*
X154751557Y-94078412D01*
X154817246Y-93876243D01*
X154850500Y-93666287D01*
X154850500Y-93453713D01*
X154817246Y-93243757D01*
X154751557Y-93041588D01*
X154655051Y-92852184D01*
X154655049Y-92852181D01*
X154655048Y-92852179D01*
X154530109Y-92680213D01*
X154379786Y-92529890D01*
X154207820Y-92404951D01*
X154207115Y-92404591D01*
X154199054Y-92400485D01*
X154148259Y-92352512D01*
X154131463Y-92284692D01*
X154153999Y-92218556D01*
X154199054Y-92179515D01*
X154207816Y-92175051D01*
X154252966Y-92142248D01*
X154379786Y-92050109D01*
X154379788Y-92050106D01*
X154379792Y-92050104D01*
X154530104Y-91899792D01*
X154530106Y-91899788D01*
X154530109Y-91899786D01*
X154655048Y-91727820D01*
X154655047Y-91727820D01*
X154655051Y-91727816D01*
X154751557Y-91538412D01*
X154817246Y-91336243D01*
X154850500Y-91126287D01*
X154850500Y-90913713D01*
X154817246Y-90703757D01*
X154751557Y-90501588D01*
X154655051Y-90312184D01*
X154655049Y-90312181D01*
X154655048Y-90312179D01*
X154530109Y-90140213D01*
X154379786Y-89989890D01*
X154207817Y-89864949D01*
X154198504Y-89860204D01*
X154147707Y-89812230D01*
X154130912Y-89744409D01*
X154153449Y-89678274D01*
X154198507Y-89639232D01*
X154207555Y-89634622D01*
X154261716Y-89595270D01*
X154261717Y-89595270D01*
X153629408Y-88962962D01*
X153692993Y-88945925D01*
X153807007Y-88880099D01*
X153900099Y-88787007D01*
X153965925Y-88672993D01*
X153982962Y-88609408D01*
X154615270Y-89241717D01*
X154615270Y-89241716D01*
X154654622Y-89187554D01*
X154751095Y-88998217D01*
X154816757Y-88796130D01*
X154816757Y-88796127D01*
X154850000Y-88586246D01*
X154850000Y-88373753D01*
X154816757Y-88163872D01*
X154816757Y-88163869D01*
X154751095Y-87961782D01*
X154654624Y-87772449D01*
X154615270Y-87718282D01*
X154615269Y-87718282D01*
X153982962Y-88350590D01*
X153965925Y-88287007D01*
X153900099Y-88172993D01*
X153807007Y-88079901D01*
X153692993Y-88014075D01*
X153629409Y-87997037D01*
X154261716Y-87364728D01*
X154207547Y-87325373D01*
X154207547Y-87325372D01*
X154198500Y-87320763D01*
X154147706Y-87272788D01*
X154130912Y-87204966D01*
X154153451Y-87138832D01*
X154198508Y-87099793D01*
X154207816Y-87095051D01*
X154304030Y-87025148D01*
X154379786Y-86970109D01*
X154379788Y-86970106D01*
X154379792Y-86970104D01*
X154530104Y-86819792D01*
X154530106Y-86819788D01*
X154530109Y-86819786D01*
X154655048Y-86647820D01*
X154655047Y-86647820D01*
X154655051Y-86647816D01*
X154751557Y-86458412D01*
X154817246Y-86256243D01*
X154850500Y-86046287D01*
X154850500Y-85833713D01*
X154817246Y-85623757D01*
X154751557Y-85421588D01*
X154655051Y-85232184D01*
X154655049Y-85232181D01*
X154655048Y-85232179D01*
X154530109Y-85060213D01*
X154379786Y-84909890D01*
X154207820Y-84784951D01*
X154018414Y-84688444D01*
X154018413Y-84688443D01*
X154018412Y-84688443D01*
X153816243Y-84622754D01*
X153816241Y-84622753D01*
X153816240Y-84622753D01*
X153654957Y-84597208D01*
X153606287Y-84589500D01*
X153393713Y-84589500D01*
X153345042Y-84597208D01*
X153183760Y-84622753D01*
X152981585Y-84688444D01*
X152792179Y-84784951D01*
X152620213Y-84909890D01*
X152469890Y-85060213D01*
X152344951Y-85232179D01*
X152248444Y-85421585D01*
X152182753Y-85623760D01*
X152149500Y-85833713D01*
X148079465Y-85833713D01*
X148039308Y-85813252D01*
X147988512Y-85765277D01*
X147971717Y-85697456D01*
X147994255Y-85631321D01*
X148039307Y-85592283D01*
X148196334Y-85512274D01*
X148357104Y-85395468D01*
X148497621Y-85254951D01*
X148614427Y-85094181D01*
X148704645Y-84917119D01*
X148766053Y-84728123D01*
X148797140Y-84531848D01*
X148797140Y-84333126D01*
X148766053Y-84136851D01*
X148704645Y-83947855D01*
X148704645Y-83947854D01*
X148650829Y-83842237D01*
X148619522Y-83780794D01*
X148606627Y-83712126D01*
X148632903Y-83647386D01*
X148690009Y-83607128D01*
X148730008Y-83600500D01*
X149420234Y-83600500D01*
X149487273Y-83620185D01*
X149489125Y-83621398D01*
X149620814Y-83709390D01*
X149620827Y-83709397D01*
X149766498Y-83769735D01*
X149766503Y-83769737D01*
X149918639Y-83799999D01*
X149921153Y-83800499D01*
X149921156Y-83800500D01*
X149921158Y-83800500D01*
X150078844Y-83800500D01*
X150078845Y-83800499D01*
X150233497Y-83769737D01*
X150346166Y-83723067D01*
X150379172Y-83709397D01*
X150379172Y-83709396D01*
X150379179Y-83709394D01*
X150510289Y-83621789D01*
X150621789Y-83510289D01*
X150709394Y-83379179D01*
X150769737Y-83233497D01*
X150800500Y-83078842D01*
X150800500Y-82921158D01*
X150800500Y-82921155D01*
X150800499Y-82921153D01*
X150769738Y-82766510D01*
X150769737Y-82766503D01*
X150769732Y-82766492D01*
X150767969Y-82760676D01*
X150770720Y-82759841D01*
X150764497Y-82702641D01*
X150795691Y-82640122D01*
X150855734Y-82604392D01*
X150886555Y-82600500D01*
X153199903Y-82600500D01*
X153266942Y-82620185D01*
G37*
%TD.AperFunction*%
%TA.AperFunction,Conductor*%
G36*
X189003736Y-76500726D02*
G01*
X189293796Y-76518271D01*
X189308659Y-76520076D01*
X189590797Y-76571780D01*
X189605334Y-76575363D01*
X189879182Y-76660698D01*
X189893163Y-76666000D01*
X190154734Y-76783724D01*
X190167987Y-76790680D01*
X190413458Y-76939071D01*
X190425776Y-76947573D01*
X190651573Y-77124474D01*
X190662781Y-77134404D01*
X190865595Y-77337218D01*
X190875525Y-77348426D01*
X191052422Y-77574217D01*
X191060928Y-77586541D01*
X191209319Y-77832012D01*
X191216277Y-77845269D01*
X191331878Y-78102123D01*
X191333994Y-78106823D01*
X191339304Y-78120825D01*
X191424635Y-78394664D01*
X191428219Y-78409202D01*
X191479923Y-78691340D01*
X191481728Y-78706205D01*
X191499274Y-78996263D01*
X191499500Y-79003750D01*
X191499500Y-127996249D01*
X191499274Y-128003736D01*
X191481728Y-128293794D01*
X191479923Y-128308659D01*
X191428219Y-128590797D01*
X191424635Y-128605335D01*
X191339304Y-128879174D01*
X191333994Y-128893176D01*
X191216277Y-129154730D01*
X191209319Y-129167987D01*
X191060928Y-129413458D01*
X191052422Y-129425782D01*
X190875525Y-129651573D01*
X190865595Y-129662781D01*
X190662781Y-129865595D01*
X190651573Y-129875525D01*
X190425782Y-130052422D01*
X190413458Y-130060928D01*
X190167987Y-130209319D01*
X190154730Y-130216277D01*
X189893176Y-130333994D01*
X189879174Y-130339304D01*
X189605335Y-130424635D01*
X189590797Y-130428219D01*
X189308659Y-130479923D01*
X189293794Y-130481728D01*
X189003736Y-130499274D01*
X188996249Y-130499500D01*
X115003751Y-130499500D01*
X114996264Y-130499274D01*
X114706205Y-130481728D01*
X114691340Y-130479923D01*
X114409202Y-130428219D01*
X114394664Y-130424635D01*
X114120825Y-130339304D01*
X114106827Y-130333995D01*
X113954096Y-130265256D01*
X113845269Y-130216277D01*
X113832012Y-130209319D01*
X113586541Y-130060928D01*
X113574217Y-130052422D01*
X113348426Y-129875525D01*
X113337218Y-129865595D01*
X113134404Y-129662781D01*
X113124474Y-129651573D01*
X112947573Y-129425776D01*
X112939071Y-129413458D01*
X112790680Y-129167987D01*
X112783722Y-129154730D01*
X112666000Y-128893163D01*
X112660698Y-128879182D01*
X112575363Y-128605334D01*
X112571780Y-128590797D01*
X112520076Y-128308659D01*
X112518271Y-128293794D01*
X112500726Y-128003736D01*
X112500500Y-127996249D01*
X112500500Y-85800913D01*
X114593600Y-85800913D01*
X114593600Y-86013486D01*
X114625901Y-86217430D01*
X114626854Y-86223443D01*
X114671584Y-86361108D01*
X114692544Y-86425614D01*
X114789051Y-86615020D01*
X114913990Y-86786986D01*
X115064313Y-86937309D01*
X115236279Y-87062248D01*
X115236281Y-87062249D01*
X115236284Y-87062251D01*
X115245593Y-87066994D01*
X115296390Y-87114966D01*
X115313187Y-87182787D01*
X115290652Y-87248922D01*
X115245605Y-87287960D01*
X115236546Y-87292576D01*
X115236540Y-87292580D01*
X115182382Y-87331927D01*
X115182382Y-87331928D01*
X115814691Y-87964237D01*
X115751107Y-87981275D01*
X115637093Y-88047101D01*
X115544001Y-88140193D01*
X115478175Y-88254207D01*
X115461137Y-88317791D01*
X114828828Y-87685482D01*
X114828827Y-87685482D01*
X114789480Y-87739639D01*
X114693004Y-87928982D01*
X114627342Y-88131069D01*
X114627342Y-88131072D01*
X114594100Y-88340953D01*
X114594100Y-88553446D01*
X114627342Y-88763327D01*
X114627342Y-88763330D01*
X114693004Y-88965417D01*
X114789475Y-89154750D01*
X114828828Y-89208916D01*
X115461137Y-88576608D01*
X115478175Y-88640193D01*
X115544001Y-88754207D01*
X115637093Y-88847299D01*
X115751107Y-88913125D01*
X115814690Y-88930162D01*
X115182382Y-89562469D01*
X115182382Y-89562470D01*
X115236552Y-89601826D01*
X115236551Y-89601826D01*
X115245595Y-89606434D01*
X115296392Y-89654408D01*
X115313187Y-89722229D01*
X115290650Y-89788364D01*
X115245599Y-89827402D01*
X115236282Y-89832149D01*
X115064313Y-89957090D01*
X114913990Y-90107413D01*
X114789051Y-90279379D01*
X114692544Y-90468785D01*
X114626853Y-90670960D01*
X114597873Y-90853933D01*
X114593600Y-90880913D01*
X114593600Y-91093487D01*
X114626854Y-91303443D01*
X114660948Y-91408374D01*
X114692544Y-91505614D01*
X114789051Y-91695020D01*
X114913990Y-91866986D01*
X115064313Y-92017309D01*
X115236282Y-92142250D01*
X115245046Y-92146716D01*
X115295842Y-92194691D01*
X115312636Y-92262512D01*
X115290098Y-92328647D01*
X115245046Y-92367684D01*
X115236282Y-92372149D01*
X115064313Y-92497090D01*
X114913990Y-92647413D01*
X114789051Y-92819379D01*
X114692544Y-93008785D01*
X114626853Y-93210960D01*
X114597873Y-93393933D01*
X114593600Y-93420913D01*
X114593600Y-93633487D01*
X114626854Y-93843443D01*
X114637511Y-93876243D01*
X114692544Y-94045614D01*
X114789051Y-94235020D01*
X114913990Y-94406986D01*
X115064313Y-94557309D01*
X115236282Y-94682250D01*
X115245046Y-94686716D01*
X115295842Y-94734691D01*
X115312636Y-94802512D01*
X115290098Y-94868647D01*
X115245046Y-94907684D01*
X115236282Y-94912149D01*
X115064313Y-95037090D01*
X114913990Y-95187413D01*
X114789051Y-95359379D01*
X114692544Y-95548785D01*
X114626853Y-95750960D01*
X114593600Y-95960913D01*
X114593600Y-96173486D01*
X114625901Y-96377430D01*
X114626854Y-96383443D01*
X114671584Y-96521108D01*
X114692544Y-96585614D01*
X114789051Y-96775020D01*
X114913990Y-96946986D01*
X115064313Y-97097309D01*
X115236282Y-97222250D01*
X115245046Y-97226716D01*
X115295842Y-97274691D01*
X115312636Y-97342512D01*
X115290098Y-97408647D01*
X115245046Y-97447684D01*
X115236282Y-97452149D01*
X115064313Y-97577090D01*
X114913990Y-97727413D01*
X114789051Y-97899379D01*
X114692544Y-98088785D01*
X114626853Y-98290960D01*
X114593600Y-98500913D01*
X114593600Y-98713486D01*
X114619997Y-98880154D01*
X114626854Y-98923443D01*
X114673628Y-99067399D01*
X114692544Y-99125614D01*
X114789051Y-99315020D01*
X114913990Y-99486986D01*
X115064313Y-99637309D01*
X115236282Y-99762250D01*
X115245046Y-99766716D01*
X115295842Y-99814691D01*
X115312636Y-99882512D01*
X115290098Y-99948647D01*
X115245046Y-99987684D01*
X115236282Y-99992149D01*
X115064313Y-100117090D01*
X114913990Y-100267413D01*
X114789051Y-100439379D01*
X114692544Y-100628785D01*
X114626853Y-100830960D01*
X114593600Y-101040913D01*
X114593600Y-101253486D01*
X114625901Y-101457430D01*
X114626854Y-101463443D01*
X114671584Y-101601108D01*
X114692544Y-101665614D01*
X114789051Y-101855020D01*
X114913990Y-102026986D01*
X115064313Y-102177309D01*
X115236282Y-102302250D01*
X115245046Y-102306716D01*
X115295842Y-102354691D01*
X115312636Y-102422512D01*
X115290098Y-102488647D01*
X115245046Y-102527684D01*
X115236282Y-102532149D01*
X115064313Y-102657090D01*
X114913990Y-102807413D01*
X114789051Y-102979379D01*
X114692544Y-103168785D01*
X114626853Y-103370960D01*
X114593600Y-103580913D01*
X114593600Y-103793486D01*
X114619997Y-103960154D01*
X114626854Y-104003443D01*
X114673628Y-104147399D01*
X114692544Y-104205614D01*
X114789051Y-104395020D01*
X114913990Y-104566986D01*
X115064313Y-104717309D01*
X115236282Y-104842250D01*
X115245046Y-104846716D01*
X115295842Y-104894691D01*
X115312636Y-104962512D01*
X115290098Y-105028647D01*
X115245046Y-105067684D01*
X115236282Y-105072149D01*
X115064313Y-105197090D01*
X114913990Y-105347413D01*
X114789051Y-105519379D01*
X114692544Y-105708785D01*
X114626853Y-105910960D01*
X114593600Y-106120913D01*
X114593600Y-106333486D01*
X114625901Y-106537430D01*
X114626854Y-106543443D01*
X114688050Y-106731785D01*
X114692544Y-106745614D01*
X114789051Y-106935020D01*
X114913990Y-107106986D01*
X115064313Y-107257309D01*
X115236282Y-107382250D01*
X115245046Y-107386716D01*
X115295842Y-107434691D01*
X115312636Y-107502512D01*
X115290098Y-107568647D01*
X115245046Y-107607684D01*
X115236282Y-107612149D01*
X115064313Y-107737090D01*
X114913990Y-107887413D01*
X114789051Y-108059379D01*
X114692544Y-108248785D01*
X114626853Y-108450960D01*
X114593600Y-108660913D01*
X114593600Y-108873486D01*
X114619997Y-109040154D01*
X114626854Y-109083443D01*
X114688416Y-109272911D01*
X114692544Y-109285614D01*
X114789051Y-109475020D01*
X114913990Y-109646986D01*
X115064313Y-109797309D01*
X115236282Y-109922250D01*
X115245046Y-109926716D01*
X115295842Y-109974691D01*
X115312636Y-110042512D01*
X115290098Y-110108647D01*
X115245046Y-110147684D01*
X115236282Y-110152149D01*
X115064313Y-110277090D01*
X114913990Y-110427413D01*
X114789051Y-110599379D01*
X114692544Y-110788785D01*
X114626853Y-110990960D01*
X114593600Y-111200913D01*
X114593600Y-111413486D01*
X114625901Y-111617430D01*
X114626854Y-111623443D01*
X114671584Y-111761108D01*
X114692544Y-111825614D01*
X114789051Y-112015020D01*
X114913990Y-112186986D01*
X115064313Y-112337309D01*
X115236282Y-112462250D01*
X115245046Y-112466716D01*
X115295842Y-112514691D01*
X115312636Y-112582512D01*
X115290098Y-112648647D01*
X115245046Y-112687684D01*
X115236282Y-112692149D01*
X115064313Y-112817090D01*
X114913990Y-112967413D01*
X114789051Y-113139379D01*
X114692544Y-113328785D01*
X114626853Y-113530960D01*
X114593600Y-113740913D01*
X114593600Y-113953486D01*
X114619997Y-114120154D01*
X114626854Y-114163443D01*
X114673628Y-114307399D01*
X114692544Y-114365614D01*
X114789051Y-114555020D01*
X114913990Y-114726986D01*
X115064313Y-114877309D01*
X115236282Y-115002250D01*
X115245046Y-115006716D01*
X115295842Y-115054691D01*
X115312636Y-115122512D01*
X115290098Y-115188647D01*
X115245046Y-115227684D01*
X115236282Y-115232149D01*
X115064313Y-115357090D01*
X114913990Y-115507413D01*
X114789051Y-115679379D01*
X114692544Y-115868785D01*
X114626853Y-116070960D01*
X114593600Y-116280913D01*
X114593600Y-116493486D01*
X114622989Y-116679044D01*
X114626854Y-116703443D01*
X114637511Y-116736243D01*
X114692544Y-116905614D01*
X114789051Y-117095020D01*
X114913990Y-117266986D01*
X115064313Y-117417309D01*
X115236282Y-117542250D01*
X115245046Y-117546716D01*
X115295842Y-117594691D01*
X115312636Y-117662512D01*
X115290098Y-117728647D01*
X115245046Y-117767684D01*
X115236282Y-117772149D01*
X115064313Y-117897090D01*
X114913990Y-118047413D01*
X114789051Y-118219379D01*
X114692544Y-118408785D01*
X114626853Y-118610960D01*
X114593600Y-118820913D01*
X114593600Y-119033486D01*
X114621461Y-119209397D01*
X114626854Y-119243443D01*
X114688416Y-119432911D01*
X114692544Y-119445614D01*
X114789051Y-119635020D01*
X114913990Y-119806986D01*
X115027530Y-119920526D01*
X115061015Y-119981849D01*
X115056031Y-120051541D01*
X115014159Y-120107474D01*
X114983183Y-120124389D01*
X114851769Y-120173403D01*
X114851764Y-120173406D01*
X114736555Y-120259652D01*
X114736552Y-120259655D01*
X114650306Y-120374864D01*
X114650302Y-120374871D01*
X114600008Y-120509717D01*
X114596482Y-120542517D01*
X114593601Y-120569323D01*
X114593600Y-120569335D01*
X114593600Y-122365070D01*
X114593601Y-122365076D01*
X114600008Y-122424683D01*
X114650302Y-122559528D01*
X114650306Y-122559535D01*
X114736552Y-122674744D01*
X114736555Y-122674747D01*
X114851764Y-122760993D01*
X114851771Y-122760997D01*
X114986617Y-122811291D01*
X114986616Y-122811291D01*
X114993544Y-122812035D01*
X115046227Y-122817700D01*
X116841972Y-122817699D01*
X116901583Y-122811291D01*
X117036431Y-122760996D01*
X117151646Y-122674746D01*
X117237896Y-122559531D01*
X117288191Y-122424683D01*
X117294600Y-122365073D01*
X117294599Y-120569328D01*
X117288191Y-120509717D01*
X117250130Y-120407671D01*
X117237897Y-120374871D01*
X117237893Y-120374864D01*
X117151647Y-120259655D01*
X117151644Y-120259652D01*
X117036435Y-120173406D01*
X117036428Y-120173402D01*
X116905017Y-120124389D01*
X116849083Y-120082518D01*
X116824666Y-120017053D01*
X116839518Y-119948780D01*
X116860663Y-119920532D01*
X116974204Y-119806992D01*
X117099151Y-119635016D01*
X117195657Y-119445612D01*
X117261346Y-119243443D01*
X117294600Y-119033487D01*
X117294600Y-118820913D01*
X117261346Y-118610957D01*
X117195657Y-118408788D01*
X117099151Y-118219384D01*
X117099149Y-118219381D01*
X117099148Y-118219379D01*
X116974209Y-118047413D01*
X116823886Y-117897090D01*
X116651920Y-117772151D01*
X116651215Y-117771791D01*
X116643154Y-117767685D01*
X116592359Y-117719712D01*
X116575563Y-117651892D01*
X116598099Y-117585756D01*
X116643154Y-117546715D01*
X116651916Y-117542251D01*
X116673889Y-117526286D01*
X116823886Y-117417309D01*
X116823888Y-117417306D01*
X116823892Y-117417304D01*
X116974204Y-117266992D01*
X116974206Y-117266988D01*
X116974209Y-117266986D01*
X117097207Y-117097692D01*
X117099151Y-117095016D01*
X117195657Y-116905612D01*
X117261346Y-116703443D01*
X117294600Y-116493487D01*
X117294600Y-116280913D01*
X117261346Y-116070957D01*
X117195657Y-115868788D01*
X117099151Y-115679384D01*
X117099149Y-115679381D01*
X117099148Y-115679379D01*
X116974209Y-115507413D01*
X116823886Y-115357090D01*
X116651920Y-115232151D01*
X116651215Y-115231791D01*
X116643154Y-115227685D01*
X116592359Y-115179712D01*
X116575563Y-115111892D01*
X116598099Y-115045756D01*
X116643154Y-115006715D01*
X116651916Y-115002251D01*
X116681826Y-114980520D01*
X116823886Y-114877309D01*
X116823888Y-114877306D01*
X116823892Y-114877304D01*
X116974204Y-114726992D01*
X116974206Y-114726988D01*
X116974209Y-114726986D01*
X117099148Y-114555020D01*
X117099147Y-114555020D01*
X117099151Y-114555016D01*
X117195657Y-114365612D01*
X117261346Y-114163443D01*
X117294600Y-113953487D01*
X117294600Y-113740913D01*
X117261346Y-113530957D01*
X117195657Y-113328788D01*
X117099151Y-113139384D01*
X117099149Y-113139381D01*
X117099148Y-113139379D01*
X116974209Y-112967413D01*
X116823886Y-112817090D01*
X116651920Y-112692151D01*
X116651215Y-112691791D01*
X116643154Y-112687685D01*
X116592359Y-112639712D01*
X116575563Y-112571892D01*
X116598099Y-112505756D01*
X116643154Y-112466715D01*
X116651916Y-112462251D01*
X116673889Y-112446286D01*
X116823886Y-112337309D01*
X116823888Y-112337306D01*
X116823892Y-112337304D01*
X116974204Y-112186992D01*
X116974206Y-112186988D01*
X116974209Y-112186986D01*
X117099148Y-112015020D01*
X117099147Y-112015020D01*
X117099151Y-112015016D01*
X117195657Y-111825612D01*
X117261346Y-111623443D01*
X117294600Y-111413487D01*
X117294600Y-111200913D01*
X117261346Y-110990957D01*
X117195657Y-110788788D01*
X117099151Y-110599384D01*
X117099149Y-110599381D01*
X117099148Y-110599379D01*
X116974209Y-110427413D01*
X116823886Y-110277090D01*
X116651920Y-110152151D01*
X116651215Y-110151791D01*
X116643154Y-110147685D01*
X116592359Y-110099712D01*
X116575563Y-110031892D01*
X116598099Y-109965756D01*
X116643154Y-109926715D01*
X116651916Y-109922251D01*
X116673889Y-109906286D01*
X116823886Y-109797309D01*
X116823888Y-109797306D01*
X116823892Y-109797304D01*
X116974204Y-109646992D01*
X116974206Y-109646988D01*
X116974209Y-109646986D01*
X117099148Y-109475020D01*
X117099147Y-109475020D01*
X117099151Y-109475016D01*
X117195657Y-109285612D01*
X117261346Y-109083443D01*
X117294600Y-108873487D01*
X117294600Y-108660913D01*
X117261346Y-108450957D01*
X117195657Y-108248788D01*
X117099151Y-108059384D01*
X117099149Y-108059381D01*
X117099148Y-108059379D01*
X116974209Y-107887413D01*
X116823886Y-107737090D01*
X116651920Y-107612151D01*
X116651215Y-107611791D01*
X116643154Y-107607685D01*
X116592359Y-107559712D01*
X116575563Y-107491892D01*
X116598099Y-107425756D01*
X116643154Y-107386715D01*
X116651916Y-107382251D01*
X116673889Y-107366286D01*
X116823886Y-107257309D01*
X116823888Y-107257306D01*
X116823892Y-107257304D01*
X116974204Y-107106992D01*
X116974206Y-107106988D01*
X116974209Y-107106986D01*
X117099148Y-106935020D01*
X117099147Y-106935020D01*
X117099151Y-106935016D01*
X117195657Y-106745612D01*
X117261346Y-106543443D01*
X117294600Y-106333487D01*
X117294600Y-106120913D01*
X117261346Y-105910957D01*
X117195657Y-105708788D01*
X117099151Y-105519384D01*
X117099149Y-105519381D01*
X117099148Y-105519379D01*
X116974209Y-105347413D01*
X116823886Y-105197090D01*
X116651920Y-105072151D01*
X116651215Y-105071791D01*
X116643154Y-105067685D01*
X116592359Y-105019712D01*
X116575563Y-104951892D01*
X116598099Y-104885756D01*
X116643154Y-104846715D01*
X116651916Y-104842251D01*
X116690037Y-104814555D01*
X116823886Y-104717309D01*
X116823888Y-104717306D01*
X116823892Y-104717304D01*
X116974204Y-104566992D01*
X116974206Y-104566988D01*
X116974209Y-104566986D01*
X117099148Y-104395020D01*
X117099147Y-104395020D01*
X117099151Y-104395016D01*
X117195657Y-104205612D01*
X117261346Y-104003443D01*
X117294600Y-103793487D01*
X117294600Y-103580913D01*
X117261346Y-103370957D01*
X117195657Y-103168788D01*
X117099151Y-102979384D01*
X117099149Y-102979381D01*
X117099148Y-102979379D01*
X116974209Y-102807413D01*
X116823886Y-102657090D01*
X116651920Y-102532151D01*
X116651215Y-102531791D01*
X116643154Y-102527685D01*
X116592359Y-102479712D01*
X116575563Y-102411892D01*
X116598099Y-102345756D01*
X116643154Y-102306715D01*
X116651916Y-102302251D01*
X116673889Y-102286286D01*
X116823886Y-102177309D01*
X116823888Y-102177306D01*
X116823892Y-102177304D01*
X116974204Y-102026992D01*
X116974206Y-102026988D01*
X116974209Y-102026986D01*
X117099148Y-101855020D01*
X117099147Y-101855020D01*
X117099151Y-101855016D01*
X117195657Y-101665612D01*
X117261346Y-101463443D01*
X117294600Y-101253487D01*
X117294600Y-101040913D01*
X117261346Y-100830957D01*
X117195657Y-100628788D01*
X117099151Y-100439384D01*
X117099149Y-100439381D01*
X117099148Y-100439379D01*
X116974209Y-100267413D01*
X116823886Y-100117090D01*
X116651920Y-99992151D01*
X116651215Y-99991791D01*
X116643154Y-99987685D01*
X116592359Y-99939712D01*
X116575563Y-99871892D01*
X116598099Y-99805756D01*
X116643154Y-99766715D01*
X116651916Y-99762251D01*
X116673889Y-99746286D01*
X116823886Y-99637309D01*
X116823888Y-99637306D01*
X116823892Y-99637304D01*
X116974204Y-99486992D01*
X116974206Y-99486988D01*
X116974209Y-99486986D01*
X117099148Y-99315020D01*
X117099147Y-99315020D01*
X117099151Y-99315016D01*
X117195657Y-99125612D01*
X117261346Y-98923443D01*
X117294600Y-98713487D01*
X117294600Y-98500913D01*
X117261346Y-98290957D01*
X117195657Y-98088788D01*
X117099151Y-97899384D01*
X117099149Y-97899381D01*
X117099148Y-97899379D01*
X116974209Y-97727413D01*
X116823886Y-97577090D01*
X116651920Y-97452151D01*
X116651215Y-97451791D01*
X116643154Y-97447685D01*
X116592359Y-97399712D01*
X116575563Y-97331892D01*
X116598099Y-97265756D01*
X116643154Y-97226715D01*
X116651916Y-97222251D01*
X116673889Y-97206286D01*
X116823886Y-97097309D01*
X116823888Y-97097306D01*
X116823892Y-97097304D01*
X116974204Y-96946992D01*
X116974206Y-96946988D01*
X116974209Y-96946986D01*
X117099148Y-96775020D01*
X117099147Y-96775020D01*
X117099151Y-96775016D01*
X117195657Y-96585612D01*
X117261346Y-96383443D01*
X117294600Y-96173487D01*
X117294600Y-95960913D01*
X117261346Y-95750957D01*
X117195657Y-95548788D01*
X117099151Y-95359384D01*
X117099149Y-95359381D01*
X117099148Y-95359379D01*
X116974209Y-95187413D01*
X116823886Y-95037090D01*
X116651920Y-94912151D01*
X116651215Y-94911791D01*
X116643154Y-94907685D01*
X116592359Y-94859712D01*
X116575563Y-94791892D01*
X116598099Y-94725756D01*
X116643154Y-94686715D01*
X116651916Y-94682251D01*
X116673889Y-94666286D01*
X116823886Y-94557309D01*
X116823888Y-94557306D01*
X116823892Y-94557304D01*
X116974204Y-94406992D01*
X116974206Y-94406988D01*
X116974209Y-94406986D01*
X117099148Y-94235020D01*
X117099147Y-94235020D01*
X117099151Y-94235016D01*
X117195657Y-94045612D01*
X117261346Y-93843443D01*
X117294600Y-93633487D01*
X117294600Y-93420913D01*
X117261346Y-93210957D01*
X117195657Y-93008788D01*
X117099151Y-92819384D01*
X117099149Y-92819381D01*
X117099148Y-92819379D01*
X116974209Y-92647413D01*
X116823886Y-92497090D01*
X116651920Y-92372151D01*
X116651215Y-92371791D01*
X116643154Y-92367685D01*
X116592359Y-92319712D01*
X116575563Y-92251892D01*
X116598099Y-92185756D01*
X116643154Y-92146715D01*
X116651916Y-92142251D01*
X116673889Y-92126286D01*
X116823886Y-92017309D01*
X116823888Y-92017306D01*
X116823892Y-92017304D01*
X116974204Y-91866992D01*
X116974206Y-91866988D01*
X116974209Y-91866986D01*
X117099148Y-91695020D01*
X117099147Y-91695020D01*
X117099151Y-91695016D01*
X117195657Y-91505612D01*
X117261346Y-91303443D01*
X117294600Y-91093487D01*
X117294600Y-90880913D01*
X117261346Y-90670957D01*
X117195657Y-90468788D01*
X117099151Y-90279384D01*
X117099149Y-90279381D01*
X117099148Y-90279379D01*
X116974209Y-90107413D01*
X116823886Y-89957090D01*
X116651917Y-89832149D01*
X116642604Y-89827404D01*
X116591807Y-89779430D01*
X116575012Y-89711609D01*
X116597549Y-89645474D01*
X116642607Y-89606432D01*
X116651655Y-89601822D01*
X116705816Y-89562470D01*
X116705817Y-89562470D01*
X116639282Y-89495935D01*
X116073508Y-88930162D01*
X116137093Y-88913125D01*
X116251107Y-88847299D01*
X116344199Y-88754207D01*
X116410025Y-88640193D01*
X116427062Y-88576609D01*
X117059370Y-89208917D01*
X117059370Y-89208916D01*
X117098722Y-89154754D01*
X117195195Y-88965417D01*
X117260857Y-88763330D01*
X117260857Y-88763327D01*
X117294100Y-88553446D01*
X117294100Y-88340953D01*
X117260857Y-88131072D01*
X117260857Y-88131069D01*
X117195195Y-87928982D01*
X117098724Y-87739649D01*
X117059370Y-87685482D01*
X117059369Y-87685482D01*
X116427062Y-88317790D01*
X116410025Y-88254207D01*
X116344199Y-88140193D01*
X116251107Y-88047101D01*
X116137093Y-87981275D01*
X116073509Y-87964237D01*
X116705816Y-87331928D01*
X116651647Y-87292573D01*
X116651647Y-87292572D01*
X116642600Y-87287963D01*
X116591806Y-87239988D01*
X116575012Y-87172166D01*
X116597551Y-87106032D01*
X116642608Y-87066993D01*
X116651916Y-87062251D01*
X116731107Y-87004715D01*
X116823886Y-86937309D01*
X116823888Y-86937306D01*
X116823892Y-86937304D01*
X116974204Y-86786992D01*
X116974206Y-86786988D01*
X116974209Y-86786986D01*
X117099148Y-86615020D01*
X117099147Y-86615020D01*
X117099151Y-86615016D01*
X117195657Y-86425612D01*
X117261346Y-86223443D01*
X117294600Y-86013487D01*
X117294600Y-85800913D01*
X117261346Y-85590957D01*
X117195657Y-85388788D01*
X117099151Y-85199384D01*
X117099149Y-85199381D01*
X117099148Y-85199379D01*
X116974209Y-85027413D01*
X116823886Y-84877090D01*
X116651920Y-84752151D01*
X116462514Y-84655644D01*
X116462513Y-84655643D01*
X116462512Y-84655643D01*
X116260343Y-84589954D01*
X116260341Y-84589953D01*
X116260340Y-84589953D01*
X116099057Y-84564408D01*
X116050387Y-84556700D01*
X115837813Y-84556700D01*
X115789142Y-84564408D01*
X115627860Y-84589953D01*
X115425685Y-84655644D01*
X115236279Y-84752151D01*
X115064313Y-84877090D01*
X114913990Y-85027413D01*
X114789051Y-85199379D01*
X114692544Y-85388785D01*
X114626853Y-85590960D01*
X114593600Y-85800913D01*
X112500500Y-85800913D01*
X112500500Y-84333126D01*
X120496140Y-84333126D01*
X120496140Y-84531847D01*
X120527227Y-84728124D01*
X120588633Y-84917116D01*
X120588634Y-84917119D01*
X120661543Y-85060208D01*
X120678853Y-85094181D01*
X120795659Y-85254951D01*
X120936176Y-85395468D01*
X121096946Y-85512274D01*
X121253972Y-85592283D01*
X121304767Y-85640256D01*
X121321562Y-85708077D01*
X121299025Y-85774212D01*
X121253972Y-85813251D01*
X121097209Y-85893126D01*
X120936500Y-86009890D01*
X120936499Y-86009890D01*
X120796043Y-86150346D01*
X120796043Y-86150347D01*
X120679281Y-86311054D01*
X120589096Y-86488051D01*
X120527714Y-86676969D01*
X120520505Y-86722486D01*
X120520505Y-86722487D01*
X121630954Y-86722487D01*
X121626560Y-86726881D01*
X121573899Y-86818093D01*
X121546640Y-86919826D01*
X121546640Y-87025148D01*
X121573899Y-87126881D01*
X121626560Y-87218093D01*
X121630954Y-87222487D01*
X120520505Y-87222487D01*
X120527714Y-87268004D01*
X120589096Y-87456922D01*
X120679281Y-87633919D01*
X120796043Y-87794626D01*
X120796043Y-87794627D01*
X120936499Y-87935083D01*
X121097207Y-88051845D01*
X121253971Y-88131721D01*
X121304767Y-88179696D01*
X121321562Y-88247517D01*
X121299024Y-88313652D01*
X121253971Y-88352691D01*
X121096945Y-88432700D01*
X120936173Y-88549508D01*
X120795661Y-88690020D01*
X120678853Y-88850792D01*
X120588634Y-89027854D01*
X120588633Y-89027857D01*
X120527227Y-89216849D01*
X120496140Y-89413126D01*
X120496140Y-89611847D01*
X120527227Y-89808124D01*
X120588633Y-89997116D01*
X120588634Y-89997119D01*
X120661543Y-90140208D01*
X120678853Y-90174181D01*
X120795659Y-90334951D01*
X120936176Y-90475468D01*
X121096946Y-90592274D01*
X121153728Y-90621206D01*
X121253420Y-90672002D01*
X121304216Y-90719977D01*
X121321011Y-90787798D01*
X121298473Y-90853933D01*
X121253420Y-90892972D01*
X121096945Y-90972700D01*
X120936173Y-91089508D01*
X120795661Y-91230020D01*
X120678853Y-91390792D01*
X120588634Y-91567854D01*
X120588633Y-91567857D01*
X120527227Y-91756849D01*
X120496140Y-91953126D01*
X120496140Y-92151847D01*
X120527227Y-92348124D01*
X120588633Y-92537116D01*
X120588634Y-92537119D01*
X120659227Y-92675663D01*
X120678853Y-92714181D01*
X120795659Y-92874951D01*
X120936176Y-93015468D01*
X121096946Y-93132274D01*
X121215472Y-93192666D01*
X121253420Y-93212002D01*
X121304216Y-93259977D01*
X121321011Y-93327798D01*
X121298473Y-93393933D01*
X121253420Y-93432972D01*
X121096945Y-93512700D01*
X120936173Y-93629508D01*
X120795661Y-93770020D01*
X120678853Y-93930792D01*
X120588634Y-94107854D01*
X120588633Y-94107857D01*
X120527227Y-94296849D01*
X120496140Y-94493126D01*
X120496140Y-94691847D01*
X120527227Y-94888124D01*
X120588633Y-95077116D01*
X120588634Y-95077119D01*
X120661543Y-95220208D01*
X120678853Y-95254181D01*
X120795659Y-95414951D01*
X120936176Y-95555468D01*
X121096946Y-95672274D01*
X121215472Y-95732666D01*
X121253420Y-95752002D01*
X121304216Y-95799977D01*
X121321011Y-95867798D01*
X121298473Y-95933933D01*
X121253420Y-95972972D01*
X121096945Y-96052700D01*
X120936173Y-96169508D01*
X120795661Y-96310020D01*
X120678853Y-96470792D01*
X120588634Y-96647854D01*
X120588633Y-96647857D01*
X120527227Y-96836849D01*
X120496140Y-97033126D01*
X120496140Y-97231847D01*
X120527227Y-97428124D01*
X120588633Y-97617116D01*
X120588634Y-97617119D01*
X120661273Y-97759679D01*
X120678853Y-97794181D01*
X120795659Y-97954951D01*
X120936176Y-98095468D01*
X121096946Y-98212274D01*
X121215472Y-98272666D01*
X121253420Y-98292002D01*
X121304216Y-98339977D01*
X121321011Y-98407798D01*
X121298473Y-98473933D01*
X121253420Y-98512972D01*
X121096945Y-98592700D01*
X120936173Y-98709508D01*
X120795661Y-98850020D01*
X120678853Y-99010792D01*
X120588634Y-99187854D01*
X120588633Y-99187857D01*
X120527227Y-99376849D01*
X120496140Y-99573126D01*
X120496140Y-99771847D01*
X120527227Y-99968124D01*
X120588633Y-100157116D01*
X120588634Y-100157119D01*
X120661543Y-100300208D01*
X120678853Y-100334181D01*
X120795659Y-100494951D01*
X120936176Y-100635468D01*
X121096946Y-100752274D01*
X121215472Y-100812666D01*
X121253420Y-100832002D01*
X121304216Y-100879977D01*
X121321011Y-100947798D01*
X121298473Y-101013933D01*
X121253420Y-101052972D01*
X121096945Y-101132700D01*
X120936173Y-101249508D01*
X120795661Y-101390020D01*
X120678853Y-101550792D01*
X120588634Y-101727854D01*
X120588633Y-101727857D01*
X120527227Y-101916849D01*
X120496140Y-102113126D01*
X120496140Y-102311847D01*
X120527227Y-102508124D01*
X120588633Y-102697116D01*
X120588634Y-102697119D01*
X120661273Y-102839679D01*
X120678853Y-102874181D01*
X120795659Y-103034951D01*
X120936176Y-103175468D01*
X121096946Y-103292274D01*
X121215472Y-103352666D01*
X121253420Y-103372002D01*
X121304216Y-103419977D01*
X121321011Y-103487798D01*
X121298473Y-103553933D01*
X121253420Y-103592972D01*
X121096945Y-103672700D01*
X120936173Y-103789508D01*
X120795661Y-103930020D01*
X120678853Y-104090792D01*
X120588634Y-104267854D01*
X120588633Y-104267857D01*
X120527227Y-104456849D01*
X120496140Y-104653126D01*
X120496140Y-104851847D01*
X120527227Y-105048124D01*
X120588633Y-105237116D01*
X120588634Y-105237119D01*
X120661543Y-105380208D01*
X120678853Y-105414181D01*
X120795659Y-105574951D01*
X120936176Y-105715468D01*
X121096946Y-105832274D01*
X121215472Y-105892666D01*
X121253420Y-105912002D01*
X121304216Y-105959977D01*
X121321011Y-106027798D01*
X121298473Y-106093933D01*
X121253420Y-106132972D01*
X121096945Y-106212700D01*
X120936173Y-106329508D01*
X120795661Y-106470020D01*
X120678853Y-106630792D01*
X120588634Y-106807854D01*
X120588633Y-106807857D01*
X120527227Y-106996849D01*
X120496140Y-107193126D01*
X120496140Y-107391847D01*
X120527227Y-107588124D01*
X120588633Y-107777116D01*
X120588634Y-107777119D01*
X120661273Y-107919679D01*
X120678853Y-107954181D01*
X120795659Y-108114951D01*
X120936176Y-108255468D01*
X121096946Y-108372274D01*
X121215472Y-108432666D01*
X121253420Y-108452002D01*
X121304216Y-108499977D01*
X121321011Y-108567798D01*
X121298473Y-108633933D01*
X121253420Y-108672972D01*
X121096945Y-108752700D01*
X120936173Y-108869508D01*
X120795661Y-109010020D01*
X120678853Y-109170792D01*
X120588634Y-109347854D01*
X120588633Y-109347857D01*
X120527227Y-109536849D01*
X120496140Y-109733126D01*
X120496140Y-109931847D01*
X120527227Y-110128124D01*
X120588633Y-110317116D01*
X120588634Y-110317119D01*
X120647673Y-110432987D01*
X120678853Y-110494181D01*
X120795659Y-110654951D01*
X120936176Y-110795468D01*
X121096946Y-110912274D01*
X121215472Y-110972666D01*
X121253420Y-110992002D01*
X121304216Y-111039977D01*
X121321011Y-111107798D01*
X121298473Y-111173933D01*
X121253420Y-111212972D01*
X121096945Y-111292700D01*
X120936173Y-111409508D01*
X120795661Y-111550020D01*
X120678853Y-111710792D01*
X120588634Y-111887854D01*
X120588633Y-111887857D01*
X120527227Y-112076849D01*
X120496140Y-112273126D01*
X120496140Y-112471847D01*
X120527227Y-112668124D01*
X120588633Y-112857116D01*
X120588634Y-112857119D01*
X120661273Y-112999679D01*
X120678853Y-113034181D01*
X120795659Y-113194951D01*
X120936176Y-113335468D01*
X121096946Y-113452274D01*
X121211391Y-113510587D01*
X121253420Y-113532002D01*
X121304216Y-113579977D01*
X121321011Y-113647798D01*
X121298473Y-113713933D01*
X121253420Y-113752972D01*
X121096945Y-113832700D01*
X120936173Y-113949508D01*
X120795661Y-114090020D01*
X120678853Y-114250792D01*
X120588634Y-114427854D01*
X120588633Y-114427857D01*
X120527227Y-114616849D01*
X120496140Y-114813126D01*
X120496140Y-115011847D01*
X120527227Y-115208124D01*
X120588633Y-115397116D01*
X120588634Y-115397119D01*
X120659764Y-115536717D01*
X120678853Y-115574181D01*
X120795659Y-115734951D01*
X120936176Y-115875468D01*
X121096946Y-115992274D01*
X121164226Y-116026555D01*
X121253420Y-116072002D01*
X121304216Y-116119977D01*
X121321011Y-116187798D01*
X121298473Y-116253933D01*
X121253420Y-116292972D01*
X121096945Y-116372700D01*
X120936173Y-116489508D01*
X120795661Y-116630020D01*
X120678853Y-116790792D01*
X120588634Y-116967854D01*
X120588633Y-116967857D01*
X120527227Y-117156849D01*
X120496140Y-117353126D01*
X120496140Y-117551847D01*
X120527227Y-117748124D01*
X120588633Y-117937116D01*
X120588634Y-117937119D01*
X120661543Y-118080208D01*
X120678853Y-118114181D01*
X120795659Y-118274951D01*
X120936176Y-118415468D01*
X121096946Y-118532274D01*
X121215472Y-118592666D01*
X121253420Y-118612002D01*
X121304216Y-118659977D01*
X121321011Y-118727798D01*
X121298473Y-118793933D01*
X121253420Y-118832972D01*
X121096945Y-118912700D01*
X120936173Y-119029508D01*
X120795661Y-119170020D01*
X120678853Y-119330792D01*
X120588634Y-119507854D01*
X120588633Y-119507857D01*
X120527227Y-119696849D01*
X120496140Y-119893126D01*
X120496140Y-120091847D01*
X120527227Y-120288124D01*
X120588633Y-120477116D01*
X120588634Y-120477119D01*
X120652331Y-120602129D01*
X120678853Y-120654181D01*
X120795659Y-120814951D01*
X120936176Y-120955468D01*
X121096946Y-121072274D01*
X121183789Y-121116522D01*
X121274007Y-121162492D01*
X121274010Y-121162493D01*
X121368506Y-121193196D01*
X121463004Y-121223900D01*
X121659279Y-121254987D01*
X121659280Y-121254987D01*
X122234000Y-121254987D01*
X122234001Y-121254987D01*
X122430276Y-121223900D01*
X122619272Y-121162492D01*
X122796334Y-121072274D01*
X122957104Y-120955468D01*
X123097621Y-120814951D01*
X123214427Y-120654181D01*
X123214429Y-120654176D01*
X123215640Y-120652202D01*
X123216296Y-120651608D01*
X123217291Y-120650239D01*
X123217578Y-120650447D01*
X123267450Y-120605324D01*
X123321370Y-120592987D01*
X123692390Y-120592987D01*
X123759429Y-120612672D01*
X123780070Y-120629305D01*
X131131284Y-127980520D01*
X131131286Y-127980521D01*
X131131290Y-127980524D01*
X131268209Y-128059573D01*
X131268216Y-128059577D01*
X131420943Y-128100501D01*
X131420945Y-128100501D01*
X131586654Y-128100501D01*
X131586670Y-128100500D01*
X155413331Y-128100500D01*
X155413347Y-128100501D01*
X155420943Y-128100501D01*
X155579054Y-128100501D01*
X155579057Y-128100501D01*
X155731785Y-128059577D01*
X155781904Y-128030639D01*
X155868716Y-127980520D01*
X155980520Y-127868716D01*
X155980520Y-127868714D01*
X155990728Y-127858507D01*
X155990730Y-127858504D01*
X165428081Y-118421153D01*
X167199500Y-118421153D01*
X167199500Y-118578846D01*
X167230261Y-118733489D01*
X167230264Y-118733501D01*
X167290602Y-118879172D01*
X167290609Y-118879185D01*
X167378210Y-119010288D01*
X167378213Y-119010292D01*
X167489707Y-119121786D01*
X167489711Y-119121789D01*
X167620814Y-119209390D01*
X167620827Y-119209397D01*
X167703023Y-119243443D01*
X167766503Y-119269737D01*
X167907087Y-119297701D01*
X167921153Y-119300499D01*
X167921156Y-119300500D01*
X167921158Y-119300500D01*
X168078844Y-119300500D01*
X168078845Y-119300499D01*
X168233497Y-119269737D01*
X168379179Y-119209394D01*
X168438102Y-119170023D01*
X168510875Y-119121398D01*
X168577553Y-119100520D01*
X168579766Y-119100500D01*
X177988331Y-119100500D01*
X177988347Y-119100501D01*
X177995943Y-119100501D01*
X178154054Y-119100501D01*
X178154057Y-119100501D01*
X178306785Y-119059577D01*
X178365390Y-119025741D01*
X178443716Y-118980520D01*
X178555520Y-118868716D01*
X178555520Y-118868714D01*
X178565724Y-118858511D01*
X178565727Y-118858506D01*
X180326550Y-117097683D01*
X181656800Y-117097683D01*
X181656800Y-119297701D01*
X181656801Y-119297718D01*
X181667300Y-119400496D01*
X181667301Y-119400499D01*
X181704239Y-119511968D01*
X181722486Y-119567034D01*
X181814588Y-119716356D01*
X181938644Y-119840412D01*
X182087966Y-119932514D01*
X182254503Y-119987699D01*
X182357291Y-119998200D01*
X184557308Y-119998199D01*
X184660097Y-119987699D01*
X184826634Y-119932514D01*
X184975956Y-119840412D01*
X185100012Y-119716356D01*
X185192114Y-119567034D01*
X185247299Y-119400497D01*
X185257800Y-119297709D01*
X185257799Y-117097692D01*
X185247299Y-116994903D01*
X185192114Y-116828366D01*
X185100012Y-116679044D01*
X184975956Y-116554988D01*
X184826634Y-116462886D01*
X184660097Y-116407701D01*
X184660095Y-116407700D01*
X184557310Y-116397200D01*
X182357298Y-116397200D01*
X182357281Y-116397201D01*
X182254503Y-116407700D01*
X182254500Y-116407701D01*
X182087968Y-116462885D01*
X182087963Y-116462887D01*
X181938642Y-116554989D01*
X181814589Y-116679042D01*
X181722487Y-116828363D01*
X181722486Y-116828366D01*
X181667301Y-116994903D01*
X181667301Y-116994904D01*
X181667300Y-116994904D01*
X181656800Y-117097683D01*
X180326550Y-117097683D01*
X182621172Y-114803062D01*
X182682493Y-114769579D01*
X182752185Y-114774563D01*
X182756262Y-114776167D01*
X182877307Y-114826306D01*
X183105286Y-114887393D01*
X183339289Y-114918200D01*
X183339296Y-114918200D01*
X183575304Y-114918200D01*
X183575311Y-114918200D01*
X183809314Y-114887393D01*
X184037293Y-114826306D01*
X184255349Y-114735984D01*
X184459750Y-114617973D01*
X184646999Y-114474292D01*
X184813892Y-114307399D01*
X184957573Y-114120150D01*
X185075584Y-113915749D01*
X185165906Y-113697693D01*
X185226993Y-113469714D01*
X185257800Y-113235711D01*
X185257800Y-112999689D01*
X185226993Y-112765686D01*
X185165906Y-112537707D01*
X185075584Y-112319651D01*
X185075582Y-112319648D01*
X185075580Y-112319643D01*
X184998993Y-112186992D01*
X184957573Y-112115250D01*
X184813892Y-111928001D01*
X184813887Y-111927995D01*
X184647004Y-111761112D01*
X184646997Y-111761106D01*
X184459754Y-111617430D01*
X184459753Y-111617429D01*
X184459750Y-111617427D01*
X184342998Y-111550020D01*
X184255356Y-111499419D01*
X184255345Y-111499414D01*
X184037293Y-111409094D01*
X183809310Y-111348006D01*
X183575320Y-111317201D01*
X183575317Y-111317200D01*
X183575311Y-111317200D01*
X183339289Y-111317200D01*
X183339283Y-111317200D01*
X183339279Y-111317201D01*
X183105289Y-111348006D01*
X182877306Y-111409094D01*
X182659254Y-111499414D01*
X182659243Y-111499419D01*
X182454845Y-111617430D01*
X182267602Y-111761106D01*
X182267595Y-111761112D01*
X182100712Y-111927995D01*
X182100706Y-111928002D01*
X181957030Y-112115245D01*
X181839019Y-112319643D01*
X181839014Y-112319654D01*
X181748694Y-112537706D01*
X181687606Y-112765689D01*
X181656801Y-112999679D01*
X181656800Y-112999695D01*
X181656800Y-113235704D01*
X181656801Y-113235720D01*
X181687606Y-113469710D01*
X181748695Y-113697697D01*
X181798814Y-113818694D01*
X181806283Y-113888164D01*
X181775008Y-113950643D01*
X181771934Y-113953828D01*
X177862584Y-117863181D01*
X177801261Y-117896666D01*
X177774903Y-117899500D01*
X168579766Y-117899500D01*
X168512727Y-117879815D01*
X168510875Y-117878602D01*
X168379185Y-117790609D01*
X168379172Y-117790602D01*
X168233501Y-117730264D01*
X168233489Y-117730261D01*
X168078845Y-117699500D01*
X168078842Y-117699500D01*
X167921158Y-117699500D01*
X167921155Y-117699500D01*
X167766510Y-117730261D01*
X167766498Y-117730264D01*
X167620827Y-117790602D01*
X167620814Y-117790609D01*
X167489711Y-117878210D01*
X167489707Y-117878213D01*
X167378213Y-117989707D01*
X167378210Y-117989711D01*
X167290609Y-118120814D01*
X167290602Y-118120827D01*
X167230264Y-118266498D01*
X167230261Y-118266510D01*
X167199500Y-118421153D01*
X165428081Y-118421153D01*
X168858506Y-114990728D01*
X168858511Y-114990724D01*
X168868714Y-114980520D01*
X168868716Y-114980520D01*
X168980520Y-114868716D01*
X169043407Y-114759792D01*
X169059577Y-114731785D01*
X169100500Y-114579058D01*
X169100500Y-114420943D01*
X169100500Y-91017135D01*
X172149500Y-91017135D01*
X172149500Y-92812870D01*
X172149501Y-92812876D01*
X172155908Y-92872483D01*
X172206202Y-93007328D01*
X172206206Y-93007335D01*
X172292452Y-93122544D01*
X172292455Y-93122547D01*
X172407664Y-93208793D01*
X172407671Y-93208797D01*
X172539082Y-93257810D01*
X172595016Y-93299681D01*
X172619433Y-93365145D01*
X172604582Y-93433418D01*
X172583431Y-93461673D01*
X172469889Y-93575215D01*
X172344951Y-93747179D01*
X172248444Y-93936585D01*
X172182753Y-94138760D01*
X172149500Y-94348713D01*
X172149500Y-94561286D01*
X172182159Y-94767491D01*
X172182754Y-94771243D01*
X172239195Y-94944951D01*
X172248444Y-94973414D01*
X172344951Y-95162820D01*
X172469890Y-95334786D01*
X172620213Y-95485109D01*
X172792182Y-95610050D01*
X172800946Y-95614516D01*
X172851742Y-95662491D01*
X172868536Y-95730312D01*
X172845998Y-95796447D01*
X172800946Y-95835484D01*
X172792182Y-95839949D01*
X172620213Y-95964890D01*
X172469890Y-96115213D01*
X172344951Y-96287179D01*
X172248444Y-96476585D01*
X172182753Y-96678760D01*
X172149500Y-96888713D01*
X172149500Y-97101286D01*
X172182159Y-97307491D01*
X172182754Y-97311243D01*
X172239195Y-97484951D01*
X172248444Y-97513414D01*
X172344951Y-97702820D01*
X172469890Y-97874786D01*
X172620213Y-98025109D01*
X172792182Y-98150050D01*
X172800946Y-98154516D01*
X172851742Y-98202491D01*
X172868536Y-98270312D01*
X172845998Y-98336447D01*
X172800946Y-98375484D01*
X172792182Y-98379949D01*
X172620213Y-98504890D01*
X172469890Y-98655213D01*
X172344951Y-98827179D01*
X172248444Y-99016585D01*
X172182753Y-99218760D01*
X172157714Y-99376851D01*
X172149500Y-99428713D01*
X172149500Y-99641287D01*
X172159534Y-99704644D01*
X172182159Y-99847491D01*
X172182754Y-99851243D01*
X172239195Y-100024951D01*
X172248444Y-100053414D01*
X172344951Y-100242820D01*
X172469890Y-100414786D01*
X172620213Y-100565109D01*
X172792182Y-100690050D01*
X172800946Y-100694516D01*
X172851742Y-100742491D01*
X172868536Y-100810312D01*
X172845998Y-100876447D01*
X172800946Y-100915484D01*
X172792182Y-100919949D01*
X172620213Y-101044890D01*
X172469890Y-101195213D01*
X172344951Y-101367179D01*
X172248444Y-101556585D01*
X172182753Y-101758760D01*
X172149500Y-101968713D01*
X172149500Y-102181286D01*
X172182159Y-102387491D01*
X172182754Y-102391243D01*
X172239195Y-102564951D01*
X172248444Y-102593414D01*
X172344951Y-102782820D01*
X172469890Y-102954786D01*
X172620213Y-103105109D01*
X172792182Y-103230050D01*
X172800946Y-103234516D01*
X172851742Y-103282491D01*
X172868536Y-103350312D01*
X172845998Y-103416447D01*
X172800946Y-103455484D01*
X172792182Y-103459949D01*
X172620213Y-103584890D01*
X172469890Y-103735213D01*
X172344951Y-103907179D01*
X172248444Y-104096585D01*
X172182753Y-104298760D01*
X172157714Y-104456851D01*
X172149500Y-104508713D01*
X172149500Y-104721287D01*
X172155411Y-104758605D01*
X172182159Y-104927491D01*
X172182754Y-104931243D01*
X172239195Y-105104951D01*
X172248444Y-105133414D01*
X172344951Y-105322820D01*
X172469890Y-105494786D01*
X172620213Y-105645109D01*
X172792182Y-105770050D01*
X172800946Y-105774516D01*
X172851742Y-105822491D01*
X172868536Y-105890312D01*
X172845998Y-105956447D01*
X172800946Y-105995484D01*
X172792182Y-105999949D01*
X172620213Y-106124890D01*
X172469890Y-106275213D01*
X172344951Y-106447179D01*
X172248444Y-106636585D01*
X172182753Y-106838760D01*
X172149500Y-107048713D01*
X172149500Y-107261286D01*
X172182159Y-107467491D01*
X172182754Y-107471243D01*
X172239195Y-107644951D01*
X172248444Y-107673414D01*
X172344951Y-107862820D01*
X172469890Y-108034786D01*
X172620213Y-108185109D01*
X172792182Y-108310050D01*
X172800946Y-108314516D01*
X172851742Y-108362491D01*
X172868536Y-108430312D01*
X172845998Y-108496447D01*
X172800946Y-108535484D01*
X172792182Y-108539949D01*
X172620213Y-108664890D01*
X172469890Y-108815213D01*
X172344951Y-108987179D01*
X172248444Y-109176585D01*
X172182753Y-109378760D01*
X172157714Y-109536851D01*
X172149500Y-109588713D01*
X172149500Y-109801287D01*
X172159534Y-109864644D01*
X172182159Y-110007491D01*
X172182754Y-110011243D01*
X172239195Y-110184951D01*
X172248444Y-110213414D01*
X172344951Y-110402820D01*
X172469890Y-110574786D01*
X172620213Y-110725109D01*
X172792182Y-110850050D01*
X172800946Y-110854516D01*
X172851742Y-110902491D01*
X172868536Y-110970312D01*
X172845998Y-111036447D01*
X172800946Y-111075484D01*
X172792182Y-111079949D01*
X172620213Y-111204890D01*
X172469890Y-111355213D01*
X172344951Y-111527179D01*
X172248444Y-111716585D01*
X172182753Y-111918760D01*
X172149500Y-112128713D01*
X172149500Y-112341286D01*
X172182159Y-112547491D01*
X172182754Y-112551243D01*
X172239195Y-112724951D01*
X172248444Y-112753414D01*
X172344951Y-112942820D01*
X172469890Y-113114786D01*
X172620213Y-113265109D01*
X172792179Y-113390048D01*
X172792181Y-113390049D01*
X172792184Y-113390051D01*
X172801493Y-113394794D01*
X172852290Y-113442766D01*
X172869087Y-113510587D01*
X172846552Y-113576722D01*
X172801505Y-113615760D01*
X172792446Y-113620376D01*
X172792440Y-113620380D01*
X172738282Y-113659727D01*
X172738282Y-113659728D01*
X173370591Y-114292037D01*
X173307007Y-114309075D01*
X173192993Y-114374901D01*
X173099901Y-114467993D01*
X173034075Y-114582007D01*
X173017037Y-114645591D01*
X172384728Y-114013282D01*
X172384727Y-114013282D01*
X172345380Y-114067439D01*
X172248904Y-114256782D01*
X172183242Y-114458869D01*
X172183242Y-114458872D01*
X172150000Y-114668753D01*
X172150000Y-114881246D01*
X172183242Y-115091127D01*
X172183242Y-115091130D01*
X172248904Y-115293217D01*
X172345375Y-115482550D01*
X172384728Y-115536716D01*
X173017037Y-114904408D01*
X173034075Y-114967993D01*
X173099901Y-115082007D01*
X173192993Y-115175099D01*
X173307007Y-115240925D01*
X173370590Y-115257962D01*
X172738282Y-115890269D01*
X172738282Y-115890270D01*
X172792449Y-115929624D01*
X172981782Y-116026095D01*
X173183870Y-116091757D01*
X173393754Y-116125000D01*
X173606246Y-116125000D01*
X173816127Y-116091757D01*
X173816130Y-116091757D01*
X174018217Y-116026095D01*
X174207554Y-115929622D01*
X174261716Y-115890270D01*
X174261717Y-115890270D01*
X173629408Y-115257962D01*
X173692993Y-115240925D01*
X173807007Y-115175099D01*
X173900099Y-115082007D01*
X173965925Y-114967993D01*
X173982962Y-114904408D01*
X174615270Y-115536717D01*
X174615270Y-115536716D01*
X174654622Y-115482554D01*
X174751095Y-115293217D01*
X174816757Y-115091130D01*
X174816757Y-115091127D01*
X174850000Y-114881246D01*
X174850000Y-114668753D01*
X174816757Y-114458872D01*
X174816757Y-114458869D01*
X174751095Y-114256782D01*
X174654624Y-114067449D01*
X174615270Y-114013282D01*
X174615269Y-114013282D01*
X173982962Y-114645590D01*
X173965925Y-114582007D01*
X173900099Y-114467993D01*
X173807007Y-114374901D01*
X173692993Y-114309075D01*
X173629409Y-114292037D01*
X174261716Y-113659728D01*
X174207547Y-113620373D01*
X174207547Y-113620372D01*
X174198500Y-113615763D01*
X174147706Y-113567788D01*
X174130912Y-113499966D01*
X174153451Y-113433832D01*
X174198508Y-113394793D01*
X174207816Y-113390051D01*
X174292142Y-113328785D01*
X174379786Y-113265109D01*
X174379788Y-113265106D01*
X174379792Y-113265104D01*
X174530104Y-113114792D01*
X174530106Y-113114788D01*
X174530109Y-113114786D01*
X174655048Y-112942820D01*
X174655047Y-112942820D01*
X174655051Y-112942816D01*
X174751557Y-112753412D01*
X174817246Y-112551243D01*
X174850500Y-112341287D01*
X174850500Y-112128713D01*
X174817246Y-111918757D01*
X174751557Y-111716588D01*
X174655051Y-111527184D01*
X174655049Y-111527181D01*
X174655048Y-111527179D01*
X174530109Y-111355213D01*
X174379786Y-111204890D01*
X174207820Y-111079951D01*
X174207115Y-111079591D01*
X174199054Y-111075485D01*
X174148259Y-111027512D01*
X174131463Y-110959692D01*
X174153999Y-110893556D01*
X174199054Y-110854515D01*
X174207816Y-110850051D01*
X174292142Y-110788785D01*
X174379786Y-110725109D01*
X174379788Y-110725106D01*
X174379792Y-110725104D01*
X174530104Y-110574792D01*
X174530106Y-110574788D01*
X174530109Y-110574786D01*
X174655048Y-110402820D01*
X174655047Y-110402820D01*
X174655051Y-110402816D01*
X174751557Y-110213412D01*
X174817246Y-110011243D01*
X174850500Y-109801287D01*
X174850500Y-109588713D01*
X174817246Y-109378757D01*
X174751557Y-109176588D01*
X174655051Y-108987184D01*
X174655049Y-108987181D01*
X174655048Y-108987179D01*
X174530109Y-108815213D01*
X174379786Y-108664890D01*
X174207820Y-108539951D01*
X174207115Y-108539591D01*
X174199054Y-108535485D01*
X174148259Y-108487512D01*
X174131463Y-108419692D01*
X174153999Y-108353556D01*
X174199054Y-108314515D01*
X174207816Y-108310051D01*
X174292142Y-108248785D01*
X174379786Y-108185109D01*
X174379788Y-108185106D01*
X174379792Y-108185104D01*
X174530104Y-108034792D01*
X174530106Y-108034788D01*
X174530109Y-108034786D01*
X174613726Y-107919695D01*
X181656800Y-107919695D01*
X181656800Y-108155704D01*
X181656801Y-108155720D01*
X181685310Y-108372273D01*
X181687607Y-108389714D01*
X181727863Y-108539951D01*
X181748694Y-108617693D01*
X181839014Y-108835745D01*
X181839019Y-108835756D01*
X181879741Y-108906287D01*
X181957027Y-109040150D01*
X181957029Y-109040153D01*
X181957030Y-109040154D01*
X182100706Y-109227397D01*
X182100712Y-109227404D01*
X182267595Y-109394287D01*
X182267602Y-109394293D01*
X182367359Y-109470839D01*
X182454850Y-109537973D01*
X182586218Y-109613818D01*
X182659243Y-109655980D01*
X182659248Y-109655982D01*
X182659251Y-109655984D01*
X182877307Y-109746306D01*
X183105286Y-109807393D01*
X183339289Y-109838200D01*
X183339296Y-109838200D01*
X183575304Y-109838200D01*
X183575311Y-109838200D01*
X183809314Y-109807393D01*
X184037293Y-109746306D01*
X184255349Y-109655984D01*
X184459750Y-109537973D01*
X184646999Y-109394292D01*
X184813892Y-109227399D01*
X184957573Y-109040150D01*
X185075584Y-108835749D01*
X185165906Y-108617693D01*
X185226993Y-108389714D01*
X185257800Y-108155711D01*
X185257800Y-107919689D01*
X185226993Y-107685686D01*
X185165906Y-107457707D01*
X185075584Y-107239651D01*
X185075582Y-107239648D01*
X185075580Y-107239643D01*
X184998993Y-107106992D01*
X184957573Y-107035250D01*
X184813892Y-106848001D01*
X184813887Y-106847995D01*
X184647004Y-106681112D01*
X184646997Y-106681106D01*
X184459754Y-106537430D01*
X184459753Y-106537429D01*
X184459750Y-106537427D01*
X184342998Y-106470020D01*
X184255356Y-106419419D01*
X184255345Y-106419414D01*
X184037293Y-106329094D01*
X183809310Y-106268006D01*
X183575320Y-106237201D01*
X183575317Y-106237200D01*
X183575311Y-106237200D01*
X183339289Y-106237200D01*
X183339283Y-106237200D01*
X183339279Y-106237201D01*
X183105289Y-106268006D01*
X182877306Y-106329094D01*
X182659254Y-106419414D01*
X182659243Y-106419419D01*
X182454845Y-106537430D01*
X182267602Y-106681106D01*
X182267595Y-106681112D01*
X182100712Y-106847995D01*
X182100706Y-106848002D01*
X181957030Y-107035245D01*
X181839019Y-107239643D01*
X181839014Y-107239654D01*
X181748694Y-107457706D01*
X181687606Y-107685689D01*
X181656801Y-107919679D01*
X181656800Y-107919695D01*
X174613726Y-107919695D01*
X174655051Y-107862816D01*
X174656828Y-107859330D01*
X174719111Y-107737090D01*
X174751557Y-107673412D01*
X174817246Y-107471243D01*
X174850500Y-107261287D01*
X174850500Y-107048713D01*
X174817246Y-106838757D01*
X174751557Y-106636588D01*
X174655051Y-106447184D01*
X174655049Y-106447181D01*
X174655048Y-106447179D01*
X174530109Y-106275213D01*
X174379786Y-106124890D01*
X174207820Y-105999951D01*
X174207115Y-105999591D01*
X174199054Y-105995485D01*
X174148259Y-105947512D01*
X174131463Y-105879692D01*
X174153999Y-105813556D01*
X174199054Y-105774515D01*
X174207816Y-105770051D01*
X174292142Y-105708785D01*
X174379786Y-105645109D01*
X174379788Y-105645106D01*
X174379792Y-105645104D01*
X174530104Y-105494792D01*
X174530106Y-105494788D01*
X174530109Y-105494786D01*
X174655048Y-105322820D01*
X174655047Y-105322820D01*
X174655051Y-105322816D01*
X174751557Y-105133412D01*
X174817246Y-104931243D01*
X174850500Y-104721287D01*
X174850500Y-104508713D01*
X174817246Y-104298757D01*
X174751557Y-104096588D01*
X174655051Y-103907184D01*
X174655049Y-103907181D01*
X174655048Y-103907179D01*
X174530109Y-103735213D01*
X174379786Y-103584890D01*
X174207820Y-103459951D01*
X174207115Y-103459591D01*
X174199054Y-103455485D01*
X174148259Y-103407512D01*
X174131463Y-103339692D01*
X174153999Y-103273556D01*
X174199054Y-103234515D01*
X174207816Y-103230051D01*
X174292142Y-103168785D01*
X174379786Y-103105109D01*
X174379788Y-103105106D01*
X174379792Y-103105104D01*
X174530104Y-102954792D01*
X174530106Y-102954788D01*
X174530109Y-102954786D01*
X174613726Y-102839695D01*
X181656800Y-102839695D01*
X181656800Y-103075704D01*
X181656801Y-103075720D01*
X181685310Y-103292273D01*
X181687607Y-103309714D01*
X181727863Y-103459951D01*
X181748694Y-103537693D01*
X181839014Y-103755745D01*
X181839019Y-103755756D01*
X181879741Y-103826287D01*
X181957027Y-103960150D01*
X181957029Y-103960153D01*
X181957030Y-103960154D01*
X182100706Y-104147397D01*
X182100712Y-104147404D01*
X182267595Y-104314287D01*
X182267601Y-104314292D01*
X182454850Y-104457973D01*
X182586218Y-104533818D01*
X182659243Y-104575980D01*
X182659248Y-104575982D01*
X182659251Y-104575984D01*
X182877307Y-104666306D01*
X183105286Y-104727393D01*
X183339289Y-104758200D01*
X183339296Y-104758200D01*
X183575304Y-104758200D01*
X183575311Y-104758200D01*
X183809314Y-104727393D01*
X184037293Y-104666306D01*
X184255349Y-104575984D01*
X184459750Y-104457973D01*
X184646999Y-104314292D01*
X184813892Y-104147399D01*
X184957573Y-103960150D01*
X185075584Y-103755749D01*
X185165906Y-103537693D01*
X185226993Y-103309714D01*
X185257800Y-103075711D01*
X185257800Y-102839689D01*
X185226993Y-102605686D01*
X185165906Y-102377707D01*
X185075584Y-102159651D01*
X185075582Y-102159648D01*
X185075580Y-102159643D01*
X184998993Y-102026992D01*
X184957573Y-101955250D01*
X184813892Y-101768001D01*
X184813887Y-101767995D01*
X184647004Y-101601112D01*
X184646997Y-101601106D01*
X184459754Y-101457430D01*
X184459753Y-101457429D01*
X184459750Y-101457427D01*
X184342998Y-101390020D01*
X184255356Y-101339419D01*
X184255345Y-101339414D01*
X184037293Y-101249094D01*
X183809310Y-101188006D01*
X183575320Y-101157201D01*
X183575317Y-101157200D01*
X183575311Y-101157200D01*
X183339289Y-101157200D01*
X183339283Y-101157200D01*
X183339279Y-101157201D01*
X183105289Y-101188006D01*
X182877306Y-101249094D01*
X182659254Y-101339414D01*
X182659243Y-101339419D01*
X182454845Y-101457430D01*
X182267602Y-101601106D01*
X182267595Y-101601112D01*
X182100712Y-101767995D01*
X182100706Y-101768002D01*
X181957030Y-101955245D01*
X181839019Y-102159643D01*
X181839014Y-102159654D01*
X181748694Y-102377706D01*
X181687606Y-102605689D01*
X181656801Y-102839679D01*
X181656800Y-102839695D01*
X174613726Y-102839695D01*
X174655051Y-102782816D01*
X174656828Y-102779330D01*
X174719111Y-102657090D01*
X174751557Y-102593412D01*
X174817246Y-102391243D01*
X174850500Y-102181287D01*
X174850500Y-101968713D01*
X174817246Y-101758757D01*
X174751557Y-101556588D01*
X174655051Y-101367184D01*
X174655049Y-101367181D01*
X174655048Y-101367179D01*
X174530109Y-101195213D01*
X174379786Y-101044890D01*
X174207820Y-100919951D01*
X174207115Y-100919591D01*
X174199054Y-100915485D01*
X174148259Y-100867512D01*
X174131463Y-100799692D01*
X174153999Y-100733556D01*
X174199054Y-100694515D01*
X174207816Y-100690051D01*
X174292142Y-100628785D01*
X174379786Y-100565109D01*
X174379788Y-100565106D01*
X174379792Y-100565104D01*
X174530104Y-100414792D01*
X174530106Y-100414788D01*
X174530109Y-100414786D01*
X174655048Y-100242820D01*
X174655047Y-100242820D01*
X174655051Y-100242816D01*
X174751557Y-100053412D01*
X174817246Y-99851243D01*
X174850500Y-99641287D01*
X174850500Y-99428713D01*
X174817246Y-99218757D01*
X174751557Y-99016588D01*
X174655051Y-98827184D01*
X174655049Y-98827181D01*
X174655048Y-98827179D01*
X174530109Y-98655213D01*
X174379786Y-98504890D01*
X174207820Y-98379951D01*
X174207115Y-98379591D01*
X174199054Y-98375485D01*
X174148259Y-98327512D01*
X174131463Y-98259692D01*
X174153999Y-98193556D01*
X174199054Y-98154515D01*
X174207816Y-98150051D01*
X174292142Y-98088785D01*
X174379786Y-98025109D01*
X174379788Y-98025106D01*
X174379792Y-98025104D01*
X174530104Y-97874792D01*
X174530106Y-97874788D01*
X174530109Y-97874786D01*
X174613726Y-97759695D01*
X181656800Y-97759695D01*
X181656800Y-97995704D01*
X181656801Y-97995720D01*
X181685310Y-98212273D01*
X181687607Y-98229714D01*
X181727863Y-98379951D01*
X181748694Y-98457693D01*
X181839014Y-98675745D01*
X181839019Y-98675756D01*
X181879741Y-98746287D01*
X181957027Y-98880150D01*
X181957029Y-98880153D01*
X181957030Y-98880154D01*
X182100706Y-99067397D01*
X182100712Y-99067404D01*
X182267595Y-99234287D01*
X182267601Y-99234292D01*
X182454850Y-99377973D01*
X182586218Y-99453818D01*
X182659243Y-99495980D01*
X182659248Y-99495982D01*
X182659251Y-99495984D01*
X182877307Y-99586306D01*
X183105286Y-99647393D01*
X183339289Y-99678200D01*
X183339296Y-99678200D01*
X183575304Y-99678200D01*
X183575311Y-99678200D01*
X183809314Y-99647393D01*
X184037293Y-99586306D01*
X184255349Y-99495984D01*
X184459750Y-99377973D01*
X184646999Y-99234292D01*
X184813892Y-99067399D01*
X184957573Y-98880150D01*
X185075584Y-98675749D01*
X185165906Y-98457693D01*
X185226993Y-98229714D01*
X185257800Y-97995711D01*
X185257800Y-97759689D01*
X185226993Y-97525686D01*
X185165906Y-97297707D01*
X185075584Y-97079651D01*
X185075582Y-97079648D01*
X185075580Y-97079643D01*
X184998993Y-96946992D01*
X184957573Y-96875250D01*
X184813892Y-96688001D01*
X184813887Y-96687995D01*
X184647004Y-96521112D01*
X184646997Y-96521106D01*
X184459754Y-96377430D01*
X184459753Y-96377429D01*
X184459750Y-96377427D01*
X184342998Y-96310020D01*
X184255356Y-96259419D01*
X184255345Y-96259414D01*
X184037293Y-96169094D01*
X183809310Y-96108006D01*
X183575320Y-96077201D01*
X183575317Y-96077200D01*
X183575311Y-96077200D01*
X183339289Y-96077200D01*
X183339283Y-96077200D01*
X183339279Y-96077201D01*
X183105289Y-96108006D01*
X182877306Y-96169094D01*
X182659254Y-96259414D01*
X182659243Y-96259419D01*
X182454845Y-96377430D01*
X182267602Y-96521106D01*
X182267595Y-96521112D01*
X182100712Y-96687995D01*
X182100706Y-96688002D01*
X181957030Y-96875245D01*
X181839019Y-97079643D01*
X181839014Y-97079654D01*
X181748694Y-97297706D01*
X181687606Y-97525689D01*
X181656801Y-97759679D01*
X181656800Y-97759695D01*
X174613726Y-97759695D01*
X174655051Y-97702816D01*
X174656828Y-97699330D01*
X174719111Y-97577090D01*
X174751557Y-97513412D01*
X174817246Y-97311243D01*
X174850500Y-97101287D01*
X174850500Y-96888713D01*
X174817246Y-96678757D01*
X174751557Y-96476588D01*
X174655051Y-96287184D01*
X174655049Y-96287181D01*
X174655048Y-96287179D01*
X174530109Y-96115213D01*
X174379786Y-95964890D01*
X174207820Y-95839951D01*
X174207115Y-95839591D01*
X174199054Y-95835485D01*
X174148259Y-95787512D01*
X174131463Y-95719692D01*
X174153999Y-95653556D01*
X174199054Y-95614515D01*
X174207816Y-95610051D01*
X174292142Y-95548785D01*
X174379786Y-95485109D01*
X174379788Y-95485106D01*
X174379792Y-95485104D01*
X174530104Y-95334792D01*
X174530106Y-95334788D01*
X174530109Y-95334786D01*
X174655048Y-95162820D01*
X174655047Y-95162820D01*
X174655051Y-95162816D01*
X174751557Y-94973412D01*
X174817246Y-94771243D01*
X174850500Y-94561287D01*
X174850500Y-94348713D01*
X174817246Y-94138757D01*
X174751557Y-93936588D01*
X174655051Y-93747184D01*
X174655049Y-93747181D01*
X174655048Y-93747179D01*
X174530109Y-93575213D01*
X174416569Y-93461673D01*
X174383084Y-93400350D01*
X174388068Y-93330658D01*
X174429940Y-93274725D01*
X174460915Y-93257810D01*
X174592331Y-93208796D01*
X174707546Y-93122546D01*
X174793796Y-93007331D01*
X174844091Y-92872483D01*
X174850500Y-92812873D01*
X174850500Y-92679714D01*
X181657300Y-92679714D01*
X181657300Y-92915685D01*
X181688099Y-93149614D01*
X181749170Y-93377537D01*
X181839460Y-93595519D01*
X181839465Y-93595528D01*
X181957444Y-93799871D01*
X181957445Y-93799872D01*
X182020021Y-93881423D01*
X182856258Y-93045187D01*
X182881278Y-93105590D01*
X182952412Y-93212051D01*
X183042949Y-93302588D01*
X183149410Y-93373722D01*
X183209811Y-93398741D01*
X182373575Y-94234977D01*
X182455127Y-94297554D01*
X182455128Y-94297555D01*
X182659471Y-94415534D01*
X182659480Y-94415539D01*
X182877463Y-94505829D01*
X182877461Y-94505829D01*
X183105385Y-94566900D01*
X183339314Y-94597699D01*
X183339329Y-94597700D01*
X183575271Y-94597700D01*
X183575285Y-94597699D01*
X183809214Y-94566900D01*
X184037137Y-94505829D01*
X184255119Y-94415539D01*
X184255128Y-94415534D01*
X184459481Y-94297550D01*
X184541023Y-94234979D01*
X184541023Y-94234976D01*
X183704787Y-93398741D01*
X183765190Y-93373722D01*
X183871651Y-93302588D01*
X183962188Y-93212051D01*
X184033322Y-93105590D01*
X184058341Y-93045188D01*
X184894576Y-93881423D01*
X184894579Y-93881423D01*
X184957150Y-93799881D01*
X185075134Y-93595528D01*
X185075139Y-93595519D01*
X185165429Y-93377537D01*
X185226500Y-93149614D01*
X185257299Y-92915685D01*
X185257300Y-92915671D01*
X185257300Y-92679728D01*
X185257299Y-92679714D01*
X185226500Y-92445785D01*
X185165429Y-92217862D01*
X185075139Y-91999880D01*
X185075134Y-91999871D01*
X184957155Y-91795528D01*
X184957154Y-91795527D01*
X184894577Y-91713975D01*
X184058341Y-92550211D01*
X184033322Y-92489810D01*
X183962188Y-92383349D01*
X183871651Y-92292812D01*
X183765190Y-92221678D01*
X183704788Y-92196658D01*
X184541023Y-91360421D01*
X184459472Y-91297845D01*
X184459471Y-91297844D01*
X184255128Y-91179865D01*
X184255119Y-91179860D01*
X184037136Y-91089570D01*
X184037138Y-91089570D01*
X183809214Y-91028499D01*
X183575285Y-90997700D01*
X183339314Y-90997700D01*
X183105385Y-91028499D01*
X182877462Y-91089570D01*
X182659480Y-91179860D01*
X182659471Y-91179865D01*
X182455128Y-91297844D01*
X182455118Y-91297850D01*
X182373575Y-91360420D01*
X182373575Y-91360421D01*
X183209812Y-92196658D01*
X183149410Y-92221678D01*
X183042949Y-92292812D01*
X182952412Y-92383349D01*
X182881278Y-92489810D01*
X182856258Y-92550211D01*
X182020021Y-91713975D01*
X182020020Y-91713975D01*
X181957450Y-91795518D01*
X181957444Y-91795528D01*
X181839465Y-91999871D01*
X181839460Y-91999880D01*
X181749170Y-92217862D01*
X181688099Y-92445785D01*
X181657300Y-92679714D01*
X174850500Y-92679714D01*
X174850499Y-91017128D01*
X174844091Y-90957517D01*
X174827753Y-90913713D01*
X174793797Y-90822671D01*
X174793793Y-90822664D01*
X174707547Y-90707455D01*
X174707544Y-90707452D01*
X174592335Y-90621206D01*
X174592328Y-90621202D01*
X174457482Y-90570908D01*
X174457483Y-90570908D01*
X174397883Y-90564501D01*
X174397881Y-90564500D01*
X174397873Y-90564500D01*
X174397864Y-90564500D01*
X172602129Y-90564500D01*
X172602123Y-90564501D01*
X172542516Y-90570908D01*
X172407671Y-90621202D01*
X172407664Y-90621206D01*
X172292455Y-90707452D01*
X172292452Y-90707455D01*
X172206206Y-90822664D01*
X172206202Y-90822671D01*
X172155908Y-90957517D01*
X172149501Y-91017116D01*
X172149501Y-91017123D01*
X172149500Y-91017135D01*
X169100500Y-91017135D01*
X169100500Y-88800097D01*
X169120185Y-88733058D01*
X169136819Y-88712416D01*
X170249540Y-87599695D01*
X181656800Y-87599695D01*
X181656800Y-87835704D01*
X181656801Y-87835720D01*
X181685254Y-88051845D01*
X181687607Y-88069714D01*
X181714682Y-88170760D01*
X181748694Y-88297693D01*
X181839014Y-88515745D01*
X181839019Y-88515756D01*
X181909977Y-88638657D01*
X181957027Y-88720150D01*
X181957029Y-88720153D01*
X181957030Y-88720154D01*
X182100706Y-88907397D01*
X182100712Y-88907404D01*
X182267595Y-89074287D01*
X182267601Y-89074292D01*
X182454850Y-89217973D01*
X182586218Y-89293818D01*
X182659243Y-89335980D01*
X182659248Y-89335982D01*
X182659251Y-89335984D01*
X182877307Y-89426306D01*
X183105286Y-89487393D01*
X183339289Y-89518200D01*
X183339296Y-89518200D01*
X183575304Y-89518200D01*
X183575311Y-89518200D01*
X183809314Y-89487393D01*
X184037293Y-89426306D01*
X184255349Y-89335984D01*
X184459750Y-89217973D01*
X184646999Y-89074292D01*
X184813892Y-88907399D01*
X184957573Y-88720150D01*
X185075584Y-88515749D01*
X185165906Y-88297693D01*
X185226993Y-88069714D01*
X185257800Y-87835711D01*
X185257800Y-87599689D01*
X185226993Y-87365686D01*
X185165906Y-87137707D01*
X185075584Y-86919651D01*
X185075582Y-86919648D01*
X185075580Y-86919643D01*
X184998993Y-86786992D01*
X184957573Y-86715250D01*
X184813892Y-86528001D01*
X184813887Y-86527995D01*
X184647004Y-86361112D01*
X184646997Y-86361106D01*
X184459754Y-86217430D01*
X184459753Y-86217429D01*
X184459750Y-86217427D01*
X184378257Y-86170377D01*
X184255356Y-86099419D01*
X184255345Y-86099414D01*
X184037293Y-86009094D01*
X183809310Y-85948006D01*
X183575320Y-85917201D01*
X183575317Y-85917200D01*
X183575311Y-85917200D01*
X183339289Y-85917200D01*
X183339283Y-85917200D01*
X183339279Y-85917201D01*
X183105289Y-85948006D01*
X182877306Y-86009094D01*
X182659254Y-86099414D01*
X182659243Y-86099419D01*
X182454845Y-86217430D01*
X182267602Y-86361106D01*
X182267595Y-86361112D01*
X182100712Y-86527995D01*
X182100706Y-86528002D01*
X181957030Y-86715245D01*
X181839019Y-86919643D01*
X181839014Y-86919654D01*
X181748694Y-87137706D01*
X181687606Y-87365689D01*
X181656801Y-87599679D01*
X181656800Y-87599695D01*
X170249540Y-87599695D01*
X170824087Y-87025148D01*
X172560520Y-85288716D01*
X172639577Y-85151784D01*
X172680501Y-84999057D01*
X172680501Y-84840942D01*
X172680501Y-84833347D01*
X172680500Y-84833329D01*
X172680500Y-83924499D01*
X172700185Y-83857460D01*
X172752989Y-83811705D01*
X172804500Y-83800499D01*
X173180002Y-83800499D01*
X173180008Y-83800499D01*
X173282797Y-83789999D01*
X173449334Y-83734814D01*
X173598656Y-83642712D01*
X173722712Y-83518656D01*
X173814814Y-83369334D01*
X173869999Y-83202797D01*
X173880500Y-83100009D01*
X173880499Y-80899992D01*
X173869999Y-80797203D01*
X173814814Y-80630666D01*
X173722712Y-80481344D01*
X173598656Y-80357288D01*
X173495720Y-80293797D01*
X173449336Y-80265187D01*
X173449331Y-80265185D01*
X173406810Y-80251095D01*
X173282797Y-80210001D01*
X173282795Y-80210000D01*
X173180010Y-80199500D01*
X170979998Y-80199500D01*
X170979981Y-80199501D01*
X170877203Y-80210000D01*
X170877200Y-80210001D01*
X170710668Y-80265185D01*
X170710663Y-80265187D01*
X170561342Y-80357289D01*
X170437289Y-80481342D01*
X170345187Y-80630663D01*
X170345186Y-80630666D01*
X170290001Y-80797203D01*
X170290001Y-80797204D01*
X170290000Y-80797204D01*
X170279500Y-80899983D01*
X170279500Y-83100001D01*
X170279501Y-83100018D01*
X170290000Y-83202796D01*
X170290001Y-83202799D01*
X170339674Y-83352700D01*
X170345186Y-83369334D01*
X170437288Y-83518656D01*
X170561344Y-83642712D01*
X170710666Y-83734814D01*
X170877203Y-83789999D01*
X170979991Y-83800500D01*
X171355500Y-83800499D01*
X171422539Y-83820183D01*
X171468294Y-83872987D01*
X171479500Y-83924499D01*
X171479500Y-84619902D01*
X171459815Y-84686941D01*
X171443181Y-84707583D01*
X168133781Y-88016982D01*
X168133772Y-88016991D01*
X168131286Y-88019478D01*
X168131284Y-88019480D01*
X168019480Y-88131284D01*
X168003283Y-88159339D01*
X167996909Y-88170378D01*
X167996908Y-88170380D01*
X167940424Y-88268213D01*
X167940423Y-88268215D01*
X167899499Y-88420943D01*
X167899499Y-88420945D01*
X167899499Y-88589046D01*
X167899500Y-88589059D01*
X167899500Y-114199903D01*
X167879815Y-114266942D01*
X167863181Y-114287584D01*
X155287584Y-126863181D01*
X155226261Y-126896666D01*
X155199903Y-126899500D01*
X131800098Y-126899500D01*
X131733059Y-126879815D01*
X131712417Y-126863181D01*
X124480077Y-119630842D01*
X124480075Y-119630839D01*
X124361204Y-119511968D01*
X124361196Y-119511962D01*
X124246273Y-119445612D01*
X124246272Y-119445611D01*
X124230808Y-119436683D01*
X124224272Y-119432910D01*
X124071544Y-119391986D01*
X123913430Y-119391986D01*
X123905834Y-119391986D01*
X123905818Y-119391987D01*
X123321370Y-119391987D01*
X123254331Y-119372302D01*
X123217448Y-119334620D01*
X123217291Y-119334735D01*
X123216512Y-119333663D01*
X123215640Y-119332772D01*
X123214429Y-119330796D01*
X123192417Y-119300499D01*
X123097621Y-119170023D01*
X122957104Y-119029506D01*
X122796334Y-118912700D01*
X122639858Y-118832971D01*
X122589063Y-118784997D01*
X122572268Y-118717176D01*
X122594805Y-118651041D01*
X122639858Y-118612002D01*
X122796334Y-118532274D01*
X122957104Y-118415468D01*
X123097621Y-118274951D01*
X123214427Y-118114181D01*
X123304645Y-117937119D01*
X123366053Y-117748123D01*
X123397140Y-117551848D01*
X123397140Y-117353126D01*
X123366053Y-117156851D01*
X123313434Y-116994904D01*
X123304646Y-116967857D01*
X123304645Y-116967854D01*
X123258675Y-116877636D01*
X123214427Y-116790793D01*
X123097621Y-116630023D01*
X122957104Y-116489506D01*
X122796334Y-116372700D01*
X122639858Y-116292971D01*
X122589063Y-116244997D01*
X122572268Y-116177176D01*
X122594805Y-116111041D01*
X122639858Y-116072002D01*
X122796334Y-115992274D01*
X122957104Y-115875468D01*
X123097621Y-115734951D01*
X123214427Y-115574181D01*
X123304645Y-115397119D01*
X123366053Y-115208123D01*
X123397140Y-115011848D01*
X123397140Y-114813126D01*
X123366053Y-114616851D01*
X123335349Y-114522353D01*
X123304646Y-114427857D01*
X123304645Y-114427854D01*
X123222655Y-114266942D01*
X123214427Y-114250793D01*
X123097621Y-114090023D01*
X122957104Y-113949506D01*
X122796334Y-113832700D01*
X122639858Y-113752971D01*
X122589063Y-113704997D01*
X122572268Y-113637176D01*
X122594805Y-113571041D01*
X122639858Y-113532002D01*
X122796334Y-113452274D01*
X122957104Y-113335468D01*
X123097621Y-113194951D01*
X123214427Y-113034181D01*
X123304645Y-112857119D01*
X123366053Y-112668123D01*
X123397140Y-112471848D01*
X123397140Y-112273126D01*
X123366053Y-112076851D01*
X123335349Y-111982353D01*
X123304646Y-111887857D01*
X123304645Y-111887854D01*
X123240063Y-111761106D01*
X123214427Y-111710793D01*
X123097621Y-111550023D01*
X122957104Y-111409506D01*
X122796334Y-111292700D01*
X122639858Y-111212971D01*
X122589063Y-111164997D01*
X122572268Y-111097176D01*
X122594805Y-111031041D01*
X122639858Y-110992002D01*
X122796334Y-110912274D01*
X122957104Y-110795468D01*
X123097621Y-110654951D01*
X123214427Y-110494181D01*
X123214429Y-110494176D01*
X123215640Y-110492202D01*
X123216296Y-110491608D01*
X123217291Y-110490239D01*
X123217578Y-110490447D01*
X123267450Y-110445324D01*
X123321370Y-110432987D01*
X124532390Y-110432987D01*
X124599429Y-110452672D01*
X124620071Y-110469306D01*
X140515139Y-126364374D01*
X140515149Y-126364385D01*
X140519479Y-126368715D01*
X140519480Y-126368716D01*
X140631284Y-126480520D01*
X140718095Y-126530639D01*
X140718097Y-126530641D01*
X140756151Y-126552611D01*
X140768215Y-126559577D01*
X140920943Y-126600500D01*
X154413331Y-126600500D01*
X154413347Y-126600501D01*
X154420943Y-126600501D01*
X154579054Y-126600501D01*
X154579057Y-126600501D01*
X154731785Y-126559577D01*
X154781904Y-126530639D01*
X154868716Y-126480520D01*
X154980520Y-126368716D01*
X154980520Y-126368714D01*
X154990728Y-126358507D01*
X154990730Y-126358504D01*
X156868713Y-124480521D01*
X156868716Y-124480520D01*
X156980520Y-124368716D01*
X157030639Y-124281904D01*
X157059577Y-124231785D01*
X157100500Y-124079057D01*
X157100500Y-123920943D01*
X157100500Y-86749097D01*
X157120185Y-86682058D01*
X157172989Y-86636303D01*
X157242147Y-86626359D01*
X157305703Y-86655384D01*
X157312181Y-86661416D01*
X160608181Y-89957416D01*
X160641666Y-90018739D01*
X160644500Y-90045097D01*
X160644500Y-90440500D01*
X160624815Y-90507539D01*
X160572011Y-90553294D01*
X160520501Y-90564500D01*
X160347130Y-90564500D01*
X160347123Y-90564501D01*
X160287516Y-90570908D01*
X160152671Y-90621202D01*
X160152664Y-90621206D01*
X160037455Y-90707452D01*
X160037452Y-90707455D01*
X159951206Y-90822664D01*
X159951202Y-90822671D01*
X159900908Y-90957517D01*
X159894501Y-91017116D01*
X159894501Y-91017123D01*
X159894500Y-91017135D01*
X159894500Y-92812870D01*
X159894501Y-92812876D01*
X159900908Y-92872483D01*
X159951202Y-93007328D01*
X159951206Y-93007335D01*
X160037452Y-93122544D01*
X160037455Y-93122547D01*
X160152664Y-93208793D01*
X160152671Y-93208797D01*
X160284082Y-93257810D01*
X160340016Y-93299681D01*
X160364433Y-93365145D01*
X160349582Y-93433418D01*
X160328431Y-93461673D01*
X160214889Y-93575215D01*
X160089951Y-93747179D01*
X159993444Y-93936585D01*
X159927753Y-94138760D01*
X159894500Y-94348713D01*
X159894500Y-94561286D01*
X159927159Y-94767491D01*
X159927754Y-94771243D01*
X159984195Y-94944951D01*
X159993444Y-94973414D01*
X160089951Y-95162820D01*
X160214890Y-95334786D01*
X160365213Y-95485109D01*
X160537182Y-95610050D01*
X160545946Y-95614516D01*
X160596742Y-95662491D01*
X160613536Y-95730312D01*
X160590998Y-95796447D01*
X160545946Y-95835484D01*
X160537182Y-95839949D01*
X160365213Y-95964890D01*
X160214890Y-96115213D01*
X160089951Y-96287179D01*
X159993444Y-96476585D01*
X159927753Y-96678760D01*
X159894500Y-96888713D01*
X159894500Y-97101286D01*
X159927159Y-97307491D01*
X159927754Y-97311243D01*
X159984195Y-97484951D01*
X159993444Y-97513414D01*
X160089951Y-97702820D01*
X160214890Y-97874786D01*
X160365213Y-98025109D01*
X160537182Y-98150050D01*
X160545946Y-98154516D01*
X160596742Y-98202491D01*
X160613536Y-98270312D01*
X160590998Y-98336447D01*
X160545946Y-98375484D01*
X160537182Y-98379949D01*
X160365213Y-98504890D01*
X160214890Y-98655213D01*
X160089951Y-98827179D01*
X159993444Y-99016585D01*
X159927753Y-99218760D01*
X159902714Y-99376851D01*
X159894500Y-99428713D01*
X159894500Y-99641287D01*
X159904534Y-99704644D01*
X159927159Y-99847491D01*
X159927754Y-99851243D01*
X159984195Y-100024951D01*
X159993444Y-100053414D01*
X160089951Y-100242820D01*
X160214890Y-100414786D01*
X160365213Y-100565109D01*
X160537182Y-100690050D01*
X160545946Y-100694516D01*
X160596742Y-100742491D01*
X160613536Y-100810312D01*
X160590998Y-100876447D01*
X160545946Y-100915484D01*
X160537182Y-100919949D01*
X160365213Y-101044890D01*
X160214890Y-101195213D01*
X160089951Y-101367179D01*
X159993444Y-101556585D01*
X159927753Y-101758760D01*
X159894500Y-101968713D01*
X159894500Y-102181286D01*
X159927159Y-102387491D01*
X159927754Y-102391243D01*
X159984195Y-102564951D01*
X159993444Y-102593414D01*
X160089951Y-102782820D01*
X160214890Y-102954786D01*
X160365213Y-103105109D01*
X160537182Y-103230050D01*
X160545946Y-103234516D01*
X160596742Y-103282491D01*
X160613536Y-103350312D01*
X160590998Y-103416447D01*
X160545946Y-103455484D01*
X160537182Y-103459949D01*
X160365213Y-103584890D01*
X160214890Y-103735213D01*
X160089951Y-103907179D01*
X159993444Y-104096585D01*
X159927753Y-104298760D01*
X159902714Y-104456851D01*
X159894500Y-104508713D01*
X159894500Y-104721287D01*
X159900411Y-104758605D01*
X159927159Y-104927491D01*
X159927754Y-104931243D01*
X159984195Y-105104951D01*
X159993444Y-105133414D01*
X160089951Y-105322820D01*
X160214890Y-105494786D01*
X160365213Y-105645109D01*
X160537182Y-105770050D01*
X160545946Y-105774516D01*
X160596742Y-105822491D01*
X160613536Y-105890312D01*
X160590998Y-105956447D01*
X160545946Y-105995484D01*
X160537182Y-105999949D01*
X160365213Y-106124890D01*
X160214890Y-106275213D01*
X160089951Y-106447179D01*
X159993444Y-106636585D01*
X159927753Y-106838760D01*
X159894500Y-107048713D01*
X159894500Y-107261286D01*
X159927159Y-107467491D01*
X159927754Y-107471243D01*
X159984195Y-107644951D01*
X159993444Y-107673414D01*
X160089951Y-107862820D01*
X160214890Y-108034786D01*
X160365213Y-108185109D01*
X160537182Y-108310050D01*
X160545946Y-108314516D01*
X160596742Y-108362491D01*
X160613536Y-108430312D01*
X160590998Y-108496447D01*
X160545946Y-108535484D01*
X160537182Y-108539949D01*
X160365213Y-108664890D01*
X160214890Y-108815213D01*
X160089951Y-108987179D01*
X159993444Y-109176585D01*
X159927753Y-109378760D01*
X159902714Y-109536851D01*
X159894500Y-109588713D01*
X159894500Y-109801287D01*
X159904534Y-109864644D01*
X159927159Y-110007491D01*
X159927754Y-110011243D01*
X159984195Y-110184951D01*
X159993444Y-110213414D01*
X160089951Y-110402820D01*
X160214890Y-110574786D01*
X160365213Y-110725109D01*
X160537182Y-110850050D01*
X160545946Y-110854516D01*
X160596742Y-110902491D01*
X160613536Y-110970312D01*
X160590998Y-111036447D01*
X160545946Y-111075484D01*
X160537182Y-111079949D01*
X160365213Y-111204890D01*
X160214890Y-111355213D01*
X160089951Y-111527179D01*
X159993444Y-111716585D01*
X159927753Y-111918760D01*
X159894500Y-112128713D01*
X159894500Y-112341286D01*
X159927159Y-112547491D01*
X159927754Y-112551243D01*
X159984195Y-112724951D01*
X159993444Y-112753414D01*
X160089951Y-112942820D01*
X160214890Y-113114786D01*
X160365213Y-113265109D01*
X160537182Y-113390050D01*
X160545946Y-113394516D01*
X160596742Y-113442491D01*
X160613536Y-113510312D01*
X160590998Y-113576447D01*
X160545946Y-113615484D01*
X160537182Y-113619949D01*
X160365213Y-113744890D01*
X160214890Y-113895213D01*
X160089951Y-114067179D01*
X159993444Y-114256585D01*
X159927753Y-114458760D01*
X159902714Y-114616851D01*
X159894500Y-114668713D01*
X159894500Y-114881287D01*
X159904534Y-114944644D01*
X159927735Y-115091127D01*
X159927754Y-115091243D01*
X159984195Y-115264951D01*
X159993444Y-115293414D01*
X160089951Y-115482820D01*
X160214890Y-115654786D01*
X160365213Y-115805109D01*
X160537179Y-115930048D01*
X160537181Y-115930049D01*
X160537184Y-115930051D01*
X160726588Y-116026557D01*
X160928757Y-116092246D01*
X161138713Y-116125500D01*
X161138714Y-116125500D01*
X161351286Y-116125500D01*
X161351287Y-116125500D01*
X161561243Y-116092246D01*
X161763412Y-116026557D01*
X161952816Y-115930051D01*
X162037142Y-115868785D01*
X162124786Y-115805109D01*
X162124788Y-115805106D01*
X162124792Y-115805104D01*
X162275104Y-115654792D01*
X162275106Y-115654788D01*
X162275109Y-115654786D01*
X162400048Y-115482820D01*
X162400047Y-115482820D01*
X162400051Y-115482816D01*
X162496557Y-115293412D01*
X162562246Y-115091243D01*
X162595500Y-114881287D01*
X162595500Y-114668713D01*
X162562246Y-114458757D01*
X162496557Y-114256588D01*
X162400051Y-114067184D01*
X162400049Y-114067181D01*
X162400048Y-114067179D01*
X162275109Y-113895213D01*
X162124786Y-113744890D01*
X161952820Y-113619951D01*
X161944600Y-113615763D01*
X161944054Y-113615485D01*
X161893259Y-113567512D01*
X161876463Y-113499692D01*
X161898999Y-113433556D01*
X161944054Y-113394515D01*
X161952816Y-113390051D01*
X162037142Y-113328785D01*
X162124786Y-113265109D01*
X162124788Y-113265106D01*
X162124792Y-113265104D01*
X162275104Y-113114792D01*
X162275106Y-113114788D01*
X162275109Y-113114786D01*
X162400048Y-112942820D01*
X162400047Y-112942820D01*
X162400051Y-112942816D01*
X162496557Y-112753412D01*
X162562246Y-112551243D01*
X162595500Y-112341287D01*
X162595500Y-112128713D01*
X162562246Y-111918757D01*
X162496557Y-111716588D01*
X162400051Y-111527184D01*
X162400049Y-111527181D01*
X162400048Y-111527179D01*
X162275109Y-111355213D01*
X162124786Y-111204890D01*
X161952820Y-111079951D01*
X161952115Y-111079591D01*
X161944054Y-111075485D01*
X161893259Y-111027512D01*
X161876463Y-110959692D01*
X161898999Y-110893556D01*
X161944054Y-110854515D01*
X161952816Y-110850051D01*
X162037142Y-110788785D01*
X162124786Y-110725109D01*
X162124788Y-110725106D01*
X162124792Y-110725104D01*
X162275104Y-110574792D01*
X162275106Y-110574788D01*
X162275109Y-110574786D01*
X162400048Y-110402820D01*
X162400047Y-110402820D01*
X162400051Y-110402816D01*
X162496557Y-110213412D01*
X162562246Y-110011243D01*
X162595500Y-109801287D01*
X162595500Y-109588713D01*
X162562246Y-109378757D01*
X162496557Y-109176588D01*
X162400051Y-108987184D01*
X162400049Y-108987181D01*
X162400048Y-108987179D01*
X162275109Y-108815213D01*
X162124786Y-108664890D01*
X161952820Y-108539951D01*
X161952115Y-108539591D01*
X161944054Y-108535485D01*
X161893259Y-108487512D01*
X161876463Y-108419692D01*
X161898999Y-108353556D01*
X161944054Y-108314515D01*
X161952816Y-108310051D01*
X162037142Y-108248785D01*
X162124786Y-108185109D01*
X162124788Y-108185106D01*
X162124792Y-108185104D01*
X162275104Y-108034792D01*
X162275106Y-108034788D01*
X162275109Y-108034786D01*
X162400048Y-107862820D01*
X162400047Y-107862820D01*
X162400051Y-107862816D01*
X162496557Y-107673412D01*
X162562246Y-107471243D01*
X162595500Y-107261287D01*
X162595500Y-107048713D01*
X162562246Y-106838757D01*
X162496557Y-106636588D01*
X162400051Y-106447184D01*
X162400049Y-106447181D01*
X162400048Y-106447179D01*
X162275109Y-106275213D01*
X162124786Y-106124890D01*
X161952820Y-105999951D01*
X161952115Y-105999591D01*
X161944054Y-105995485D01*
X161893259Y-105947512D01*
X161876463Y-105879692D01*
X161898999Y-105813556D01*
X161944054Y-105774515D01*
X161952816Y-105770051D01*
X162037142Y-105708785D01*
X162124786Y-105645109D01*
X162124788Y-105645106D01*
X162124792Y-105645104D01*
X162275104Y-105494792D01*
X162275106Y-105494788D01*
X162275109Y-105494786D01*
X162400048Y-105322820D01*
X162400047Y-105322820D01*
X162400051Y-105322816D01*
X162496557Y-105133412D01*
X162562246Y-104931243D01*
X162595500Y-104721287D01*
X162595500Y-104508713D01*
X162562246Y-104298757D01*
X162496557Y-104096588D01*
X162400051Y-103907184D01*
X162400049Y-103907181D01*
X162400048Y-103907179D01*
X162275109Y-103735213D01*
X162124786Y-103584890D01*
X161952820Y-103459951D01*
X161952115Y-103459591D01*
X161944054Y-103455485D01*
X161893259Y-103407512D01*
X161876463Y-103339692D01*
X161898999Y-103273556D01*
X161944054Y-103234515D01*
X161952816Y-103230051D01*
X162037142Y-103168785D01*
X162124786Y-103105109D01*
X162124788Y-103105106D01*
X162124792Y-103105104D01*
X162275104Y-102954792D01*
X162275106Y-102954788D01*
X162275109Y-102954786D01*
X162400048Y-102782820D01*
X162400047Y-102782820D01*
X162400051Y-102782816D01*
X162496557Y-102593412D01*
X162562246Y-102391243D01*
X162595500Y-102181287D01*
X162595500Y-101968713D01*
X162562246Y-101758757D01*
X162496557Y-101556588D01*
X162400051Y-101367184D01*
X162400049Y-101367181D01*
X162400048Y-101367179D01*
X162275109Y-101195213D01*
X162124786Y-101044890D01*
X161952820Y-100919951D01*
X161952115Y-100919591D01*
X161944054Y-100915485D01*
X161893259Y-100867512D01*
X161876463Y-100799692D01*
X161898999Y-100733556D01*
X161944054Y-100694515D01*
X161952816Y-100690051D01*
X162037142Y-100628785D01*
X162124786Y-100565109D01*
X162124788Y-100565106D01*
X162124792Y-100565104D01*
X162275104Y-100414792D01*
X162275106Y-100414788D01*
X162275109Y-100414786D01*
X162400048Y-100242820D01*
X162400047Y-100242820D01*
X162400051Y-100242816D01*
X162496557Y-100053412D01*
X162562246Y-99851243D01*
X162595500Y-99641287D01*
X162595500Y-99428713D01*
X162562246Y-99218757D01*
X162496557Y-99016588D01*
X162400051Y-98827184D01*
X162400049Y-98827181D01*
X162400048Y-98827179D01*
X162275109Y-98655213D01*
X162124786Y-98504890D01*
X161952820Y-98379951D01*
X161952115Y-98379591D01*
X161944054Y-98375485D01*
X161893259Y-98327512D01*
X161876463Y-98259692D01*
X161898999Y-98193556D01*
X161944054Y-98154515D01*
X161952816Y-98150051D01*
X162037142Y-98088785D01*
X162124786Y-98025109D01*
X162124788Y-98025106D01*
X162124792Y-98025104D01*
X162275104Y-97874792D01*
X162275106Y-97874788D01*
X162275109Y-97874786D01*
X162400048Y-97702820D01*
X162400047Y-97702820D01*
X162400051Y-97702816D01*
X162496557Y-97513412D01*
X162562246Y-97311243D01*
X162595500Y-97101287D01*
X162595500Y-96888713D01*
X162562246Y-96678757D01*
X162496557Y-96476588D01*
X162400051Y-96287184D01*
X162400049Y-96287181D01*
X162400048Y-96287179D01*
X162275109Y-96115213D01*
X162124786Y-95964890D01*
X161952820Y-95839951D01*
X161952115Y-95839591D01*
X161944054Y-95835485D01*
X161893259Y-95787512D01*
X161876463Y-95719692D01*
X161898999Y-95653556D01*
X161944054Y-95614515D01*
X161952816Y-95610051D01*
X162037142Y-95548785D01*
X162124786Y-95485109D01*
X162124788Y-95485106D01*
X162124792Y-95485104D01*
X162275104Y-95334792D01*
X162275106Y-95334788D01*
X162275109Y-95334786D01*
X162400048Y-95162820D01*
X162400047Y-95162820D01*
X162400051Y-95162816D01*
X162496557Y-94973412D01*
X162562246Y-94771243D01*
X162595500Y-94561287D01*
X162595500Y-94348713D01*
X162562246Y-94138757D01*
X162496557Y-93936588D01*
X162400051Y-93747184D01*
X162400049Y-93747181D01*
X162400048Y-93747179D01*
X162275109Y-93575213D01*
X162161569Y-93461673D01*
X162128084Y-93400350D01*
X162133068Y-93330658D01*
X162174940Y-93274725D01*
X162205915Y-93257810D01*
X162337331Y-93208796D01*
X162452546Y-93122546D01*
X162538796Y-93007331D01*
X162589091Y-92872483D01*
X162595500Y-92812873D01*
X162595499Y-91017128D01*
X162589091Y-90957517D01*
X162572753Y-90913713D01*
X162538797Y-90822671D01*
X162538793Y-90822664D01*
X162452547Y-90707455D01*
X162452544Y-90707452D01*
X162337335Y-90621206D01*
X162337328Y-90621202D01*
X162202482Y-90570908D01*
X162202483Y-90570908D01*
X162142883Y-90564501D01*
X162142881Y-90564500D01*
X162142873Y-90564500D01*
X162142865Y-90564500D01*
X161969500Y-90564500D01*
X161902461Y-90544815D01*
X161856706Y-90492011D01*
X161845500Y-90440500D01*
X161845500Y-89834059D01*
X161845501Y-89834046D01*
X161845501Y-89665945D01*
X161845501Y-89665943D01*
X161804577Y-89513215D01*
X161754400Y-89426306D01*
X161725520Y-89376284D01*
X161613716Y-89264480D01*
X161613715Y-89264479D01*
X161609385Y-89260149D01*
X161609374Y-89260139D01*
X154231249Y-81882014D01*
X165200000Y-81882014D01*
X165200000Y-82117985D01*
X165230799Y-82351914D01*
X165291870Y-82579837D01*
X165382160Y-82797819D01*
X165382165Y-82797828D01*
X165500144Y-83002171D01*
X165500145Y-83002172D01*
X165562721Y-83083723D01*
X166398958Y-82247487D01*
X166423978Y-82307890D01*
X166495112Y-82414351D01*
X166585649Y-82504888D01*
X166692110Y-82576022D01*
X166752511Y-82601041D01*
X165916275Y-83437277D01*
X165997827Y-83499854D01*
X165997828Y-83499855D01*
X166202171Y-83617834D01*
X166202180Y-83617839D01*
X166420163Y-83708129D01*
X166420161Y-83708129D01*
X166648085Y-83769200D01*
X166882014Y-83799999D01*
X166882029Y-83800000D01*
X167117971Y-83800000D01*
X167117985Y-83799999D01*
X167351914Y-83769200D01*
X167579837Y-83708129D01*
X167797819Y-83617839D01*
X167797828Y-83617834D01*
X168002181Y-83499850D01*
X168083723Y-83437279D01*
X168083723Y-83437276D01*
X167247487Y-82601041D01*
X167307890Y-82576022D01*
X167414351Y-82504888D01*
X167504888Y-82414351D01*
X167576022Y-82307890D01*
X167601041Y-82247488D01*
X168437276Y-83083723D01*
X168437279Y-83083723D01*
X168499850Y-83002181D01*
X168617834Y-82797828D01*
X168617839Y-82797819D01*
X168708129Y-82579837D01*
X168769200Y-82351914D01*
X168799999Y-82117985D01*
X168800000Y-82117971D01*
X168800000Y-81882028D01*
X168799999Y-81882014D01*
X168769200Y-81648085D01*
X168708129Y-81420162D01*
X168617839Y-81202180D01*
X168617834Y-81202171D01*
X168499855Y-80997828D01*
X168499854Y-80997827D01*
X168437277Y-80916275D01*
X167601041Y-81752511D01*
X167576022Y-81692110D01*
X167504888Y-81585649D01*
X167414351Y-81495112D01*
X167307890Y-81423978D01*
X167247488Y-81398958D01*
X168083723Y-80562721D01*
X168002172Y-80500145D01*
X168002171Y-80500144D01*
X167797828Y-80382165D01*
X167797819Y-80382160D01*
X167579836Y-80291870D01*
X167579838Y-80291870D01*
X167351914Y-80230799D01*
X167117985Y-80200000D01*
X166882014Y-80200000D01*
X166648085Y-80230799D01*
X166420162Y-80291870D01*
X166202180Y-80382160D01*
X166202171Y-80382165D01*
X165997828Y-80500144D01*
X165997818Y-80500150D01*
X165916275Y-80562720D01*
X165916275Y-80562721D01*
X166752512Y-81398958D01*
X166692110Y-81423978D01*
X166585649Y-81495112D01*
X166495112Y-81585649D01*
X166423978Y-81692110D01*
X166398958Y-81752512D01*
X165562721Y-80916275D01*
X165562720Y-80916275D01*
X165500150Y-80997818D01*
X165500144Y-80997828D01*
X165382165Y-81202171D01*
X165382160Y-81202180D01*
X165291870Y-81420162D01*
X165230799Y-81648085D01*
X165200000Y-81882014D01*
X154231249Y-81882014D01*
X153987590Y-81638355D01*
X153987588Y-81638352D01*
X153868717Y-81519481D01*
X153868716Y-81519480D01*
X153781904Y-81469360D01*
X153781904Y-81469359D01*
X153781900Y-81469358D01*
X153731785Y-81440423D01*
X153579057Y-81399499D01*
X153420943Y-81399499D01*
X153413347Y-81399499D01*
X153413331Y-81399500D01*
X124079766Y-81399500D01*
X124012727Y-81379815D01*
X124010875Y-81378602D01*
X123879185Y-81290609D01*
X123879172Y-81290602D01*
X123733501Y-81230264D01*
X123733489Y-81230261D01*
X123578845Y-81199500D01*
X123578842Y-81199500D01*
X123421158Y-81199500D01*
X123421155Y-81199500D01*
X123266510Y-81230261D01*
X123266498Y-81230264D01*
X123120827Y-81290602D01*
X123120814Y-81290609D01*
X122989711Y-81378210D01*
X122989707Y-81378213D01*
X122878213Y-81489707D01*
X122878210Y-81489711D01*
X122790609Y-81620814D01*
X122790602Y-81620827D01*
X122730264Y-81766498D01*
X122730261Y-81766510D01*
X122699500Y-81921153D01*
X122699500Y-82078846D01*
X122730261Y-82233489D01*
X122730264Y-82233501D01*
X122790602Y-82379172D01*
X122790609Y-82379185D01*
X122878210Y-82510288D01*
X122878213Y-82510292D01*
X122989707Y-82621786D01*
X122989711Y-82621789D01*
X123120814Y-82709390D01*
X123120827Y-82709397D01*
X123258695Y-82766503D01*
X123266503Y-82769737D01*
X123407680Y-82797819D01*
X123421153Y-82800499D01*
X123421156Y-82800500D01*
X123421158Y-82800500D01*
X123578844Y-82800500D01*
X123578845Y-82800499D01*
X123733497Y-82769737D01*
X123879179Y-82709394D01*
X123933663Y-82672989D01*
X124010875Y-82621398D01*
X124077553Y-82600520D01*
X124079766Y-82600500D01*
X145490029Y-82600500D01*
X145557068Y-82620185D01*
X145602823Y-82672989D01*
X145612767Y-82742147D01*
X145583742Y-82805703D01*
X145577710Y-82812181D01*
X123608821Y-104781070D01*
X123547498Y-104814555D01*
X123477806Y-104809571D01*
X123421873Y-104767699D01*
X123397456Y-104702235D01*
X123397140Y-104693389D01*
X123397140Y-104653126D01*
X123384921Y-104575980D01*
X123366053Y-104456851D01*
X123335349Y-104362353D01*
X123304646Y-104267857D01*
X123304645Y-104267854D01*
X123243268Y-104147397D01*
X123214427Y-104090793D01*
X123097621Y-103930023D01*
X122957104Y-103789506D01*
X122796334Y-103672700D01*
X122639858Y-103592971D01*
X122589063Y-103544997D01*
X122572268Y-103477176D01*
X122594805Y-103411041D01*
X122639858Y-103372002D01*
X122796334Y-103292274D01*
X122957104Y-103175468D01*
X123097621Y-103034951D01*
X123214427Y-102874181D01*
X123304645Y-102697119D01*
X123366053Y-102508123D01*
X123397140Y-102311848D01*
X123397140Y-102113126D01*
X123366053Y-101916851D01*
X123335349Y-101822353D01*
X123304646Y-101727857D01*
X123304645Y-101727854D01*
X123240063Y-101601106D01*
X123214427Y-101550793D01*
X123097621Y-101390023D01*
X122957104Y-101249506D01*
X122796334Y-101132700D01*
X122639858Y-101052971D01*
X122589063Y-101004997D01*
X122572268Y-100937176D01*
X122594805Y-100871041D01*
X122639858Y-100832002D01*
X122796334Y-100752274D01*
X122957104Y-100635468D01*
X123097621Y-100494951D01*
X123214427Y-100334181D01*
X123304645Y-100157119D01*
X123366053Y-99968123D01*
X123397140Y-99771848D01*
X123397140Y-99573126D01*
X123366053Y-99376851D01*
X123335349Y-99282353D01*
X123304646Y-99187857D01*
X123304645Y-99187854D01*
X123243268Y-99067397D01*
X123214427Y-99010793D01*
X123097621Y-98850023D01*
X122957104Y-98709506D01*
X122796334Y-98592700D01*
X122639858Y-98512971D01*
X122589063Y-98464997D01*
X122572268Y-98397176D01*
X122594805Y-98331041D01*
X122639858Y-98292002D01*
X122796334Y-98212274D01*
X122957104Y-98095468D01*
X123097621Y-97954951D01*
X123214427Y-97794181D01*
X123304645Y-97617119D01*
X123366053Y-97428123D01*
X123397140Y-97231848D01*
X123397140Y-97033126D01*
X123366053Y-96836851D01*
X123335349Y-96742353D01*
X123304646Y-96647857D01*
X123304645Y-96647854D01*
X123240063Y-96521106D01*
X123214427Y-96470793D01*
X123097621Y-96310023D01*
X122957104Y-96169506D01*
X122796334Y-96052700D01*
X122639858Y-95972971D01*
X122589063Y-95924997D01*
X122572268Y-95857176D01*
X122594805Y-95791041D01*
X122639858Y-95752002D01*
X122796334Y-95672274D01*
X122957104Y-95555468D01*
X123097621Y-95414951D01*
X123214427Y-95254181D01*
X123304645Y-95077119D01*
X123366053Y-94888123D01*
X123397140Y-94691848D01*
X123397140Y-94493126D01*
X123366053Y-94296851D01*
X123304645Y-94107855D01*
X123304645Y-94107854D01*
X123258675Y-94017636D01*
X123214427Y-93930793D01*
X123097621Y-93770023D01*
X122957104Y-93629506D01*
X122796334Y-93512700D01*
X122639858Y-93432971D01*
X122589063Y-93384997D01*
X122572268Y-93317176D01*
X122594805Y-93251041D01*
X122639858Y-93212002D01*
X122796334Y-93132274D01*
X122957104Y-93015468D01*
X123097621Y-92874951D01*
X123214427Y-92714181D01*
X123304645Y-92537119D01*
X123366053Y-92348123D01*
X123397140Y-92151848D01*
X123397140Y-91953126D01*
X123366053Y-91756851D01*
X123304645Y-91567855D01*
X123304645Y-91567854D01*
X123214426Y-91390792D01*
X123192360Y-91360421D01*
X123097621Y-91230023D01*
X122957104Y-91089506D01*
X122796334Y-90972700D01*
X122639858Y-90892971D01*
X122589063Y-90844997D01*
X122572268Y-90777176D01*
X122594805Y-90711041D01*
X122639858Y-90672002D01*
X122796334Y-90592274D01*
X122957104Y-90475468D01*
X123097621Y-90334951D01*
X123214427Y-90174181D01*
X123304645Y-89997119D01*
X123366053Y-89808123D01*
X123397140Y-89611848D01*
X123397140Y-89413126D01*
X123366053Y-89216851D01*
X123335349Y-89122353D01*
X123304646Y-89027857D01*
X123304645Y-89027854D01*
X123214426Y-88850792D01*
X123201902Y-88833554D01*
X123097621Y-88690023D01*
X122957104Y-88549506D01*
X122796334Y-88432700D01*
X122639307Y-88352690D01*
X122588512Y-88304716D01*
X122571717Y-88236895D01*
X122594254Y-88170760D01*
X122639308Y-88131721D01*
X122796072Y-88051845D01*
X122956779Y-87935083D01*
X122956780Y-87935083D01*
X123097236Y-87794627D01*
X123097236Y-87794626D01*
X123213998Y-87633919D01*
X123304183Y-87456922D01*
X123365565Y-87268004D01*
X123372774Y-87222487D01*
X122262326Y-87222487D01*
X122266720Y-87218093D01*
X122319381Y-87126881D01*
X122346640Y-87025148D01*
X122346640Y-86919826D01*
X122319381Y-86818093D01*
X122266720Y-86726881D01*
X122262326Y-86722487D01*
X123372775Y-86722487D01*
X123372774Y-86722486D01*
X123365565Y-86676969D01*
X123304183Y-86488051D01*
X123213998Y-86311054D01*
X123097236Y-86150347D01*
X123097236Y-86150346D01*
X122956780Y-86009890D01*
X122796072Y-85893128D01*
X122639308Y-85813252D01*
X122588512Y-85765277D01*
X122571717Y-85697456D01*
X122594255Y-85631321D01*
X122639307Y-85592283D01*
X122796334Y-85512274D01*
X122957104Y-85395468D01*
X123097621Y-85254951D01*
X123214427Y-85094181D01*
X123304645Y-84917119D01*
X123366053Y-84728123D01*
X123397140Y-84531848D01*
X123397140Y-84333126D01*
X123366053Y-84136851D01*
X123304645Y-83947855D01*
X123304645Y-83947854D01*
X123258586Y-83857460D01*
X123214427Y-83770793D01*
X123097621Y-83610023D01*
X122957104Y-83469506D01*
X122796334Y-83352700D01*
X122619272Y-83262481D01*
X122619269Y-83262480D01*
X122430277Y-83201074D01*
X122332138Y-83185530D01*
X122234001Y-83169987D01*
X121659279Y-83169987D01*
X121593854Y-83180349D01*
X121463002Y-83201074D01*
X121274010Y-83262480D01*
X121274007Y-83262481D01*
X121096945Y-83352700D01*
X120936173Y-83469508D01*
X120795661Y-83610020D01*
X120678853Y-83770792D01*
X120588634Y-83947854D01*
X120588633Y-83947857D01*
X120527227Y-84136849D01*
X120496140Y-84333126D01*
X112500500Y-84333126D01*
X112500500Y-79003750D01*
X112500726Y-78996263D01*
X112506929Y-78893713D01*
X151069500Y-78893713D01*
X151069500Y-79106286D01*
X151102753Y-79316239D01*
X151168444Y-79518414D01*
X151264951Y-79707820D01*
X151389890Y-79879786D01*
X151540213Y-80030109D01*
X151712179Y-80155048D01*
X151712181Y-80155049D01*
X151712184Y-80155051D01*
X151901588Y-80251557D01*
X152103757Y-80317246D01*
X152313713Y-80350500D01*
X152313714Y-80350500D01*
X152526286Y-80350500D01*
X152526287Y-80350500D01*
X152736243Y-80317246D01*
X152938412Y-80251557D01*
X153127816Y-80155051D01*
X153214138Y-80092335D01*
X153299786Y-80030109D01*
X153299788Y-80030106D01*
X153299792Y-80030104D01*
X153450104Y-79879792D01*
X153450106Y-79879788D01*
X153450109Y-79879786D01*
X153575048Y-79707820D01*
X153575047Y-79707820D01*
X153575051Y-79707816D01*
X153579514Y-79699054D01*
X153627488Y-79648259D01*
X153695308Y-79631463D01*
X153761444Y-79653999D01*
X153800486Y-79699056D01*
X153804951Y-79707820D01*
X153929890Y-79879786D01*
X154080213Y-80030109D01*
X154252179Y-80155048D01*
X154252181Y-80155049D01*
X154252184Y-80155051D01*
X154441588Y-80251557D01*
X154643757Y-80317246D01*
X154853713Y-80350500D01*
X154853714Y-80350500D01*
X155066286Y-80350500D01*
X155066287Y-80350500D01*
X155276243Y-80317246D01*
X155478412Y-80251557D01*
X155667816Y-80155051D01*
X155754138Y-80092335D01*
X155839786Y-80030109D01*
X155839788Y-80030106D01*
X155839792Y-80030104D01*
X155990104Y-79879792D01*
X155990106Y-79879788D01*
X155990109Y-79879786D01*
X156057515Y-79787007D01*
X156115051Y-79707816D01*
X156119793Y-79698508D01*
X156167763Y-79647711D01*
X156235583Y-79630911D01*
X156301719Y-79653445D01*
X156340763Y-79698500D01*
X156345373Y-79707547D01*
X156384728Y-79761716D01*
X157017037Y-79129408D01*
X157034075Y-79192993D01*
X157099901Y-79307007D01*
X157192993Y-79400099D01*
X157307007Y-79465925D01*
X157370590Y-79482962D01*
X156738282Y-80115269D01*
X156738282Y-80115270D01*
X156792449Y-80154624D01*
X156981782Y-80251095D01*
X157183870Y-80316757D01*
X157393754Y-80350000D01*
X157606246Y-80350000D01*
X157816127Y-80316757D01*
X157816130Y-80316757D01*
X158018217Y-80251095D01*
X158207554Y-80154622D01*
X158261716Y-80115270D01*
X158261717Y-80115270D01*
X157629408Y-79482962D01*
X157692993Y-79465925D01*
X157807007Y-79400099D01*
X157900099Y-79307007D01*
X157965925Y-79192993D01*
X157982962Y-79129408D01*
X158653181Y-79799628D01*
X158686666Y-79860951D01*
X158689500Y-79887300D01*
X158689500Y-79897865D01*
X158689501Y-79897876D01*
X158695908Y-79957483D01*
X158746202Y-80092328D01*
X158746206Y-80092335D01*
X158832452Y-80207544D01*
X158832455Y-80207547D01*
X158947664Y-80293793D01*
X158947671Y-80293797D01*
X159082517Y-80344091D01*
X159082516Y-80344091D01*
X159089444Y-80344835D01*
X159142127Y-80350500D01*
X160937872Y-80350499D01*
X160997483Y-80344091D01*
X161132331Y-80293796D01*
X161247546Y-80207546D01*
X161333796Y-80092331D01*
X161384091Y-79957483D01*
X161390500Y-79897873D01*
X161390499Y-78102128D01*
X161384091Y-78042517D01*
X161333796Y-77907669D01*
X161333795Y-77907668D01*
X161333793Y-77907664D01*
X161247547Y-77792455D01*
X161247544Y-77792452D01*
X161132335Y-77706206D01*
X161132328Y-77706202D01*
X160997482Y-77655908D01*
X160997483Y-77655908D01*
X160937883Y-77649501D01*
X160937881Y-77649500D01*
X160937873Y-77649500D01*
X160937864Y-77649500D01*
X159142129Y-77649500D01*
X159142123Y-77649501D01*
X159082516Y-77655908D01*
X158947671Y-77706202D01*
X158947664Y-77706206D01*
X158832455Y-77792452D01*
X158832452Y-77792455D01*
X158746206Y-77907664D01*
X158746202Y-77907671D01*
X158695908Y-78042517D01*
X158689501Y-78102116D01*
X158689501Y-78102123D01*
X158689500Y-78102135D01*
X158689500Y-78112690D01*
X158669815Y-78179729D01*
X158653181Y-78200371D01*
X157982962Y-78870590D01*
X157965925Y-78807007D01*
X157900099Y-78692993D01*
X157807007Y-78599901D01*
X157692993Y-78534075D01*
X157629409Y-78517037D01*
X158261716Y-77884728D01*
X158207550Y-77845375D01*
X158018217Y-77748904D01*
X157816129Y-77683242D01*
X157606246Y-77650000D01*
X157393754Y-77650000D01*
X157183872Y-77683242D01*
X157183869Y-77683242D01*
X156981782Y-77748904D01*
X156792439Y-77845380D01*
X156738282Y-77884727D01*
X156738282Y-77884728D01*
X157370591Y-78517037D01*
X157307007Y-78534075D01*
X157192993Y-78599901D01*
X157099901Y-78692993D01*
X157034075Y-78807007D01*
X157017037Y-78870591D01*
X156384728Y-78238282D01*
X156384727Y-78238282D01*
X156345380Y-78292440D01*
X156345376Y-78292446D01*
X156340760Y-78301505D01*
X156292781Y-78352297D01*
X156224959Y-78369087D01*
X156158826Y-78346543D01*
X156119794Y-78301493D01*
X156115051Y-78292184D01*
X156115049Y-78292181D01*
X156115048Y-78292179D01*
X155990109Y-78120213D01*
X155839786Y-77969890D01*
X155667820Y-77844951D01*
X155478414Y-77748444D01*
X155478413Y-77748443D01*
X155478412Y-77748443D01*
X155276243Y-77682754D01*
X155276241Y-77682753D01*
X155276240Y-77682753D01*
X155114957Y-77657208D01*
X155066287Y-77649500D01*
X154853713Y-77649500D01*
X154805042Y-77657208D01*
X154643760Y-77682753D01*
X154441585Y-77748444D01*
X154252179Y-77844951D01*
X154080213Y-77969890D01*
X153929890Y-78120213D01*
X153804949Y-78292182D01*
X153800484Y-78300946D01*
X153752509Y-78351742D01*
X153684688Y-78368536D01*
X153618553Y-78345998D01*
X153579516Y-78300946D01*
X153575050Y-78292182D01*
X153450109Y-78120213D01*
X153299786Y-77969890D01*
X153127820Y-77844951D01*
X152938414Y-77748444D01*
X152938413Y-77748443D01*
X152938412Y-77748443D01*
X152736243Y-77682754D01*
X152736241Y-77682753D01*
X152736240Y-77682753D01*
X152574957Y-77657208D01*
X152526287Y-77649500D01*
X152313713Y-77649500D01*
X152265042Y-77657208D01*
X152103760Y-77682753D01*
X151901585Y-77748444D01*
X151712179Y-77844951D01*
X151540213Y-77969890D01*
X151389890Y-78120213D01*
X151264951Y-78292179D01*
X151168444Y-78481585D01*
X151102753Y-78683760D01*
X151069500Y-78893713D01*
X112506929Y-78893713D01*
X112507677Y-78881354D01*
X112518271Y-78706205D01*
X112520076Y-78691340D01*
X112571780Y-78409202D01*
X112575364Y-78394664D01*
X112590529Y-78345998D01*
X112660699Y-78120812D01*
X112665997Y-78106842D01*
X112783727Y-77845258D01*
X112790680Y-77832012D01*
X112880909Y-77682754D01*
X112939075Y-77586534D01*
X112947567Y-77574230D01*
X113124481Y-77348417D01*
X113134396Y-77337226D01*
X113337226Y-77134396D01*
X113348417Y-77124481D01*
X113574230Y-76947567D01*
X113586534Y-76939075D01*
X113832012Y-76790680D01*
X113845258Y-76783727D01*
X114106842Y-76665997D01*
X114120812Y-76660699D01*
X114394668Y-76575362D01*
X114409198Y-76571780D01*
X114691344Y-76520075D01*
X114706201Y-76518271D01*
X114996264Y-76500726D01*
X115003751Y-76500500D01*
X115065892Y-76500500D01*
X188934108Y-76500500D01*
X188996249Y-76500500D01*
X189003736Y-76500726D01*
G37*
%TD.AperFunction*%
%TD*%
M02*
