%TF.GenerationSoftware,KiCad,Pcbnew,10.0.3-10.0.3~ubuntu24.04.1*%
%TF.CreationDate,2026-05-25T19:03:21+05:30*%
%TF.ProjectId,pcb,7063622e-6b69-4636-9164-5f7063625858,rev?*%
%TF.SameCoordinates,Original*%
%TF.FileFunction,Legend,Top*%
%TF.FilePolarity,Positive*%
%FSLAX46Y46*%
G04 Gerber Fmt 4.6, Leading zero omitted, Abs format (unit mm)*
G04 Created by KiCad (PCBNEW 10.0.3-10.0.3~ubuntu24.04.1) date 2026-05-25 19:03:21*
%MOMM*%
%LPD*%
G01*
G04 APERTURE LIST*
%ADD10C,0.080000*%
%ADD11C,0.100000*%
%ADD12C,0.150000*%
%ADD13C,0.120000*%
%ADD14C,0.200000*%
G04 APERTURE END LIST*
D10*
X163378821Y-91597935D02*
X163645488Y-92397935D01*
X163645488Y-92397935D02*
X163912154Y-91597935D01*
X164635964Y-92321744D02*
X164597868Y-92359840D01*
X164597868Y-92359840D02*
X164483583Y-92397935D01*
X164483583Y-92397935D02*
X164407392Y-92397935D01*
X164407392Y-92397935D02*
X164293106Y-92359840D01*
X164293106Y-92359840D02*
X164216916Y-92283649D01*
X164216916Y-92283649D02*
X164178821Y-92207459D01*
X164178821Y-92207459D02*
X164140725Y-92055078D01*
X164140725Y-92055078D02*
X164140725Y-91940792D01*
X164140725Y-91940792D02*
X164178821Y-91788411D01*
X164178821Y-91788411D02*
X164216916Y-91712220D01*
X164216916Y-91712220D02*
X164293106Y-91636030D01*
X164293106Y-91636030D02*
X164407392Y-91597935D01*
X164407392Y-91597935D02*
X164483583Y-91597935D01*
X164483583Y-91597935D02*
X164597868Y-91636030D01*
X164597868Y-91636030D02*
X164635964Y-91674125D01*
X165435964Y-92321744D02*
X165397868Y-92359840D01*
X165397868Y-92359840D02*
X165283583Y-92397935D01*
X165283583Y-92397935D02*
X165207392Y-92397935D01*
X165207392Y-92397935D02*
X165093106Y-92359840D01*
X165093106Y-92359840D02*
X165016916Y-92283649D01*
X165016916Y-92283649D02*
X164978821Y-92207459D01*
X164978821Y-92207459D02*
X164940725Y-92055078D01*
X164940725Y-92055078D02*
X164940725Y-91940792D01*
X164940725Y-91940792D02*
X164978821Y-91788411D01*
X164978821Y-91788411D02*
X165016916Y-91712220D01*
X165016916Y-91712220D02*
X165093106Y-91636030D01*
X165093106Y-91636030D02*
X165207392Y-91597935D01*
X165207392Y-91597935D02*
X165283583Y-91597935D01*
X165283583Y-91597935D02*
X165397868Y-91636030D01*
X165397868Y-91636030D02*
X165435964Y-91674125D01*
X165740725Y-92169363D02*
X166121678Y-92169363D01*
X165664535Y-92397935D02*
X165931202Y-91597935D01*
X165931202Y-91597935D02*
X166197868Y-92397935D01*
X167264535Y-92664601D02*
X167264535Y-91521744D01*
X168331202Y-91597935D02*
X168597869Y-92397935D01*
X168597869Y-92397935D02*
X168864535Y-91597935D01*
X169588345Y-92321744D02*
X169550249Y-92359840D01*
X169550249Y-92359840D02*
X169435964Y-92397935D01*
X169435964Y-92397935D02*
X169359773Y-92397935D01*
X169359773Y-92397935D02*
X169245487Y-92359840D01*
X169245487Y-92359840D02*
X169169297Y-92283649D01*
X169169297Y-92283649D02*
X169131202Y-92207459D01*
X169131202Y-92207459D02*
X169093106Y-92055078D01*
X169093106Y-92055078D02*
X169093106Y-91940792D01*
X169093106Y-91940792D02*
X169131202Y-91788411D01*
X169131202Y-91788411D02*
X169169297Y-91712220D01*
X169169297Y-91712220D02*
X169245487Y-91636030D01*
X169245487Y-91636030D02*
X169359773Y-91597935D01*
X169359773Y-91597935D02*
X169435964Y-91597935D01*
X169435964Y-91597935D02*
X169550249Y-91636030D01*
X169550249Y-91636030D02*
X169588345Y-91674125D01*
X170388345Y-92321744D02*
X170350249Y-92359840D01*
X170350249Y-92359840D02*
X170235964Y-92397935D01*
X170235964Y-92397935D02*
X170159773Y-92397935D01*
X170159773Y-92397935D02*
X170045487Y-92359840D01*
X170045487Y-92359840D02*
X169969297Y-92283649D01*
X169969297Y-92283649D02*
X169931202Y-92207459D01*
X169931202Y-92207459D02*
X169893106Y-92055078D01*
X169893106Y-92055078D02*
X169893106Y-91940792D01*
X169893106Y-91940792D02*
X169931202Y-91788411D01*
X169931202Y-91788411D02*
X169969297Y-91712220D01*
X169969297Y-91712220D02*
X170045487Y-91636030D01*
X170045487Y-91636030D02*
X170159773Y-91597935D01*
X170159773Y-91597935D02*
X170235964Y-91597935D01*
X170235964Y-91597935D02*
X170350249Y-91636030D01*
X170350249Y-91636030D02*
X170388345Y-91674125D01*
X170997868Y-91978887D02*
X171112154Y-92016982D01*
X171112154Y-92016982D02*
X171150249Y-92055078D01*
X171150249Y-92055078D02*
X171188345Y-92131268D01*
X171188345Y-92131268D02*
X171188345Y-92245554D01*
X171188345Y-92245554D02*
X171150249Y-92321744D01*
X171150249Y-92321744D02*
X171112154Y-92359840D01*
X171112154Y-92359840D02*
X171035964Y-92397935D01*
X171035964Y-92397935D02*
X170731202Y-92397935D01*
X170731202Y-92397935D02*
X170731202Y-91597935D01*
X170731202Y-91597935D02*
X170997868Y-91597935D01*
X170997868Y-91597935D02*
X171074059Y-91636030D01*
X171074059Y-91636030D02*
X171112154Y-91674125D01*
X171112154Y-91674125D02*
X171150249Y-91750316D01*
X171150249Y-91750316D02*
X171150249Y-91826506D01*
X171150249Y-91826506D02*
X171112154Y-91902697D01*
X171112154Y-91902697D02*
X171074059Y-91940792D01*
X171074059Y-91940792D02*
X170997868Y-91978887D01*
X170997868Y-91978887D02*
X170731202Y-91978887D01*
D11*
X153256265Y-127714856D02*
X153399122Y-127762475D01*
X153399122Y-127762475D02*
X153637217Y-127762475D01*
X153637217Y-127762475D02*
X153732455Y-127714856D01*
X153732455Y-127714856D02*
X153780074Y-127667236D01*
X153780074Y-127667236D02*
X153827693Y-127571998D01*
X153827693Y-127571998D02*
X153827693Y-127476760D01*
X153827693Y-127476760D02*
X153780074Y-127381522D01*
X153780074Y-127381522D02*
X153732455Y-127333903D01*
X153732455Y-127333903D02*
X153637217Y-127286284D01*
X153637217Y-127286284D02*
X153446741Y-127238665D01*
X153446741Y-127238665D02*
X153351503Y-127191046D01*
X153351503Y-127191046D02*
X153303884Y-127143427D01*
X153303884Y-127143427D02*
X153256265Y-127048189D01*
X153256265Y-127048189D02*
X153256265Y-126952951D01*
X153256265Y-126952951D02*
X153303884Y-126857713D01*
X153303884Y-126857713D02*
X153351503Y-126810094D01*
X153351503Y-126810094D02*
X153446741Y-126762475D01*
X153446741Y-126762475D02*
X153684836Y-126762475D01*
X153684836Y-126762475D02*
X153827693Y-126810094D01*
X154256265Y-127095808D02*
X154256265Y-128095808D01*
X154256265Y-127143427D02*
X154351503Y-127095808D01*
X154351503Y-127095808D02*
X154541979Y-127095808D01*
X154541979Y-127095808D02*
X154637217Y-127143427D01*
X154637217Y-127143427D02*
X154684836Y-127191046D01*
X154684836Y-127191046D02*
X154732455Y-127286284D01*
X154732455Y-127286284D02*
X154732455Y-127571998D01*
X154732455Y-127571998D02*
X154684836Y-127667236D01*
X154684836Y-127667236D02*
X154637217Y-127714856D01*
X154637217Y-127714856D02*
X154541979Y-127762475D01*
X154541979Y-127762475D02*
X154351503Y-127762475D01*
X154351503Y-127762475D02*
X154256265Y-127714856D01*
X155161027Y-127762475D02*
X155161027Y-127095808D01*
X155161027Y-126762475D02*
X155113408Y-126810094D01*
X155113408Y-126810094D02*
X155161027Y-126857713D01*
X155161027Y-126857713D02*
X155208646Y-126810094D01*
X155208646Y-126810094D02*
X155161027Y-126762475D01*
X155161027Y-126762475D02*
X155161027Y-126857713D01*
X155637217Y-127095808D02*
X155637217Y-127762475D01*
X155637217Y-127191046D02*
X155684836Y-127143427D01*
X155684836Y-127143427D02*
X155780074Y-127095808D01*
X155780074Y-127095808D02*
X155922931Y-127095808D01*
X155922931Y-127095808D02*
X156018169Y-127143427D01*
X156018169Y-127143427D02*
X156065788Y-127238665D01*
X156065788Y-127238665D02*
X156065788Y-127762475D01*
X157875312Y-127667236D02*
X157827693Y-127714856D01*
X157827693Y-127714856D02*
X157684836Y-127762475D01*
X157684836Y-127762475D02*
X157589598Y-127762475D01*
X157589598Y-127762475D02*
X157446741Y-127714856D01*
X157446741Y-127714856D02*
X157351503Y-127619617D01*
X157351503Y-127619617D02*
X157303884Y-127524379D01*
X157303884Y-127524379D02*
X157256265Y-127333903D01*
X157256265Y-127333903D02*
X157256265Y-127191046D01*
X157256265Y-127191046D02*
X157303884Y-127000570D01*
X157303884Y-127000570D02*
X157351503Y-126905332D01*
X157351503Y-126905332D02*
X157446741Y-126810094D01*
X157446741Y-126810094D02*
X157589598Y-126762475D01*
X157589598Y-126762475D02*
X157684836Y-126762475D01*
X157684836Y-126762475D02*
X157827693Y-126810094D01*
X157827693Y-126810094D02*
X157875312Y-126857713D01*
X158446741Y-127762475D02*
X158351503Y-127714856D01*
X158351503Y-127714856D02*
X158303884Y-127667236D01*
X158303884Y-127667236D02*
X158256265Y-127571998D01*
X158256265Y-127571998D02*
X158256265Y-127286284D01*
X158256265Y-127286284D02*
X158303884Y-127191046D01*
X158303884Y-127191046D02*
X158351503Y-127143427D01*
X158351503Y-127143427D02*
X158446741Y-127095808D01*
X158446741Y-127095808D02*
X158589598Y-127095808D01*
X158589598Y-127095808D02*
X158684836Y-127143427D01*
X158684836Y-127143427D02*
X158732455Y-127191046D01*
X158732455Y-127191046D02*
X158780074Y-127286284D01*
X158780074Y-127286284D02*
X158780074Y-127571998D01*
X158780074Y-127571998D02*
X158732455Y-127667236D01*
X158732455Y-127667236D02*
X158684836Y-127714856D01*
X158684836Y-127714856D02*
X158589598Y-127762475D01*
X158589598Y-127762475D02*
X158446741Y-127762475D01*
X159637217Y-127762475D02*
X159637217Y-127238665D01*
X159637217Y-127238665D02*
X159589598Y-127143427D01*
X159589598Y-127143427D02*
X159494360Y-127095808D01*
X159494360Y-127095808D02*
X159303884Y-127095808D01*
X159303884Y-127095808D02*
X159208646Y-127143427D01*
X159637217Y-127714856D02*
X159541979Y-127762475D01*
X159541979Y-127762475D02*
X159303884Y-127762475D01*
X159303884Y-127762475D02*
X159208646Y-127714856D01*
X159208646Y-127714856D02*
X159161027Y-127619617D01*
X159161027Y-127619617D02*
X159161027Y-127524379D01*
X159161027Y-127524379D02*
X159208646Y-127429141D01*
X159208646Y-127429141D02*
X159303884Y-127381522D01*
X159303884Y-127381522D02*
X159541979Y-127381522D01*
X159541979Y-127381522D02*
X159637217Y-127333903D01*
X159970551Y-127095808D02*
X160351503Y-127095808D01*
X160113408Y-126762475D02*
X160113408Y-127619617D01*
X160113408Y-127619617D02*
X160161027Y-127714856D01*
X160161027Y-127714856D02*
X160256265Y-127762475D01*
X160256265Y-127762475D02*
X160351503Y-127762475D01*
X161065789Y-127714856D02*
X160970551Y-127762475D01*
X160970551Y-127762475D02*
X160780075Y-127762475D01*
X160780075Y-127762475D02*
X160684837Y-127714856D01*
X160684837Y-127714856D02*
X160637218Y-127619617D01*
X160637218Y-127619617D02*
X160637218Y-127238665D01*
X160637218Y-127238665D02*
X160684837Y-127143427D01*
X160684837Y-127143427D02*
X160780075Y-127095808D01*
X160780075Y-127095808D02*
X160970551Y-127095808D01*
X160970551Y-127095808D02*
X161065789Y-127143427D01*
X161065789Y-127143427D02*
X161113408Y-127238665D01*
X161113408Y-127238665D02*
X161113408Y-127333903D01*
X161113408Y-127333903D02*
X160637218Y-127429141D01*
X161541980Y-127762475D02*
X161541980Y-127095808D01*
X161541980Y-127286284D02*
X161589599Y-127191046D01*
X161589599Y-127191046D02*
X161637218Y-127143427D01*
X161637218Y-127143427D02*
X161732456Y-127095808D01*
X161732456Y-127095808D02*
X161827694Y-127095808D01*
X162922933Y-127762475D02*
X162922933Y-126762475D01*
X162922933Y-126762475D02*
X163256266Y-127476760D01*
X163256266Y-127476760D02*
X163589599Y-126762475D01*
X163589599Y-126762475D02*
X163589599Y-127762475D01*
X164208647Y-127762475D02*
X164113409Y-127714856D01*
X164113409Y-127714856D02*
X164065790Y-127667236D01*
X164065790Y-127667236D02*
X164018171Y-127571998D01*
X164018171Y-127571998D02*
X164018171Y-127286284D01*
X164018171Y-127286284D02*
X164065790Y-127191046D01*
X164065790Y-127191046D02*
X164113409Y-127143427D01*
X164113409Y-127143427D02*
X164208647Y-127095808D01*
X164208647Y-127095808D02*
X164351504Y-127095808D01*
X164351504Y-127095808D02*
X164446742Y-127143427D01*
X164446742Y-127143427D02*
X164494361Y-127191046D01*
X164494361Y-127191046D02*
X164541980Y-127286284D01*
X164541980Y-127286284D02*
X164541980Y-127571998D01*
X164541980Y-127571998D02*
X164494361Y-127667236D01*
X164494361Y-127667236D02*
X164446742Y-127714856D01*
X164446742Y-127714856D02*
X164351504Y-127762475D01*
X164351504Y-127762475D02*
X164208647Y-127762475D01*
X164827695Y-127095808D02*
X165208647Y-127095808D01*
X164970552Y-126762475D02*
X164970552Y-127619617D01*
X164970552Y-127619617D02*
X165018171Y-127714856D01*
X165018171Y-127714856D02*
X165113409Y-127762475D01*
X165113409Y-127762475D02*
X165208647Y-127762475D01*
X165684838Y-127762475D02*
X165589600Y-127714856D01*
X165589600Y-127714856D02*
X165541981Y-127667236D01*
X165541981Y-127667236D02*
X165494362Y-127571998D01*
X165494362Y-127571998D02*
X165494362Y-127286284D01*
X165494362Y-127286284D02*
X165541981Y-127191046D01*
X165541981Y-127191046D02*
X165589600Y-127143427D01*
X165589600Y-127143427D02*
X165684838Y-127095808D01*
X165684838Y-127095808D02*
X165827695Y-127095808D01*
X165827695Y-127095808D02*
X165922933Y-127143427D01*
X165922933Y-127143427D02*
X165970552Y-127191046D01*
X165970552Y-127191046D02*
X166018171Y-127286284D01*
X166018171Y-127286284D02*
X166018171Y-127571998D01*
X166018171Y-127571998D02*
X165970552Y-127667236D01*
X165970552Y-127667236D02*
X165922933Y-127714856D01*
X165922933Y-127714856D02*
X165827695Y-127762475D01*
X165827695Y-127762475D02*
X165684838Y-127762475D01*
X166446743Y-127762475D02*
X166446743Y-127095808D01*
X166446743Y-127286284D02*
X166494362Y-127191046D01*
X166494362Y-127191046D02*
X166541981Y-127143427D01*
X166541981Y-127143427D02*
X166637219Y-127095808D01*
X166637219Y-127095808D02*
X166732457Y-127095808D01*
X168399124Y-127667236D02*
X168351505Y-127714856D01*
X168351505Y-127714856D02*
X168208648Y-127762475D01*
X168208648Y-127762475D02*
X168113410Y-127762475D01*
X168113410Y-127762475D02*
X167970553Y-127714856D01*
X167970553Y-127714856D02*
X167875315Y-127619617D01*
X167875315Y-127619617D02*
X167827696Y-127524379D01*
X167827696Y-127524379D02*
X167780077Y-127333903D01*
X167780077Y-127333903D02*
X167780077Y-127191046D01*
X167780077Y-127191046D02*
X167827696Y-127000570D01*
X167827696Y-127000570D02*
X167875315Y-126905332D01*
X167875315Y-126905332D02*
X167970553Y-126810094D01*
X167970553Y-126810094D02*
X168113410Y-126762475D01*
X168113410Y-126762475D02*
X168208648Y-126762475D01*
X168208648Y-126762475D02*
X168351505Y-126810094D01*
X168351505Y-126810094D02*
X168399124Y-126857713D01*
X168970553Y-127762475D02*
X168875315Y-127714856D01*
X168875315Y-127714856D02*
X168827696Y-127667236D01*
X168827696Y-127667236D02*
X168780077Y-127571998D01*
X168780077Y-127571998D02*
X168780077Y-127286284D01*
X168780077Y-127286284D02*
X168827696Y-127191046D01*
X168827696Y-127191046D02*
X168875315Y-127143427D01*
X168875315Y-127143427D02*
X168970553Y-127095808D01*
X168970553Y-127095808D02*
X169113410Y-127095808D01*
X169113410Y-127095808D02*
X169208648Y-127143427D01*
X169208648Y-127143427D02*
X169256267Y-127191046D01*
X169256267Y-127191046D02*
X169303886Y-127286284D01*
X169303886Y-127286284D02*
X169303886Y-127571998D01*
X169303886Y-127571998D02*
X169256267Y-127667236D01*
X169256267Y-127667236D02*
X169208648Y-127714856D01*
X169208648Y-127714856D02*
X169113410Y-127762475D01*
X169113410Y-127762475D02*
X168970553Y-127762475D01*
X169732458Y-127095808D02*
X169732458Y-127762475D01*
X169732458Y-127191046D02*
X169780077Y-127143427D01*
X169780077Y-127143427D02*
X169875315Y-127095808D01*
X169875315Y-127095808D02*
X170018172Y-127095808D01*
X170018172Y-127095808D02*
X170113410Y-127143427D01*
X170113410Y-127143427D02*
X170161029Y-127238665D01*
X170161029Y-127238665D02*
X170161029Y-127762475D01*
X170494363Y-127095808D02*
X170875315Y-127095808D01*
X170637220Y-126762475D02*
X170637220Y-127619617D01*
X170637220Y-127619617D02*
X170684839Y-127714856D01*
X170684839Y-127714856D02*
X170780077Y-127762475D01*
X170780077Y-127762475D02*
X170875315Y-127762475D01*
X171208649Y-127762475D02*
X171208649Y-127095808D01*
X171208649Y-127286284D02*
X171256268Y-127191046D01*
X171256268Y-127191046D02*
X171303887Y-127143427D01*
X171303887Y-127143427D02*
X171399125Y-127095808D01*
X171399125Y-127095808D02*
X171494363Y-127095808D01*
X171970554Y-127762475D02*
X171875316Y-127714856D01*
X171875316Y-127714856D02*
X171827697Y-127667236D01*
X171827697Y-127667236D02*
X171780078Y-127571998D01*
X171780078Y-127571998D02*
X171780078Y-127286284D01*
X171780078Y-127286284D02*
X171827697Y-127191046D01*
X171827697Y-127191046D02*
X171875316Y-127143427D01*
X171875316Y-127143427D02*
X171970554Y-127095808D01*
X171970554Y-127095808D02*
X172113411Y-127095808D01*
X172113411Y-127095808D02*
X172208649Y-127143427D01*
X172208649Y-127143427D02*
X172256268Y-127191046D01*
X172256268Y-127191046D02*
X172303887Y-127286284D01*
X172303887Y-127286284D02*
X172303887Y-127571998D01*
X172303887Y-127571998D02*
X172256268Y-127667236D01*
X172256268Y-127667236D02*
X172208649Y-127714856D01*
X172208649Y-127714856D02*
X172113411Y-127762475D01*
X172113411Y-127762475D02*
X171970554Y-127762475D01*
X172875316Y-127762475D02*
X172780078Y-127714856D01*
X172780078Y-127714856D02*
X172732459Y-127619617D01*
X172732459Y-127619617D02*
X172732459Y-126762475D01*
X173399126Y-127762475D02*
X173303888Y-127714856D01*
X173303888Y-127714856D02*
X173256269Y-127619617D01*
X173256269Y-127619617D02*
X173256269Y-126762475D01*
X174161031Y-127714856D02*
X174065793Y-127762475D01*
X174065793Y-127762475D02*
X173875317Y-127762475D01*
X173875317Y-127762475D02*
X173780079Y-127714856D01*
X173780079Y-127714856D02*
X173732460Y-127619617D01*
X173732460Y-127619617D02*
X173732460Y-127238665D01*
X173732460Y-127238665D02*
X173780079Y-127143427D01*
X173780079Y-127143427D02*
X173875317Y-127095808D01*
X173875317Y-127095808D02*
X174065793Y-127095808D01*
X174065793Y-127095808D02*
X174161031Y-127143427D01*
X174161031Y-127143427D02*
X174208650Y-127238665D01*
X174208650Y-127238665D02*
X174208650Y-127333903D01*
X174208650Y-127333903D02*
X173732460Y-127429141D01*
X174637222Y-127762475D02*
X174637222Y-127095808D01*
X174637222Y-127286284D02*
X174684841Y-127191046D01*
X174684841Y-127191046D02*
X174732460Y-127143427D01*
X174732460Y-127143427D02*
X174827698Y-127095808D01*
X174827698Y-127095808D02*
X174922936Y-127095808D01*
X176303889Y-128143427D02*
X176256270Y-128095808D01*
X176256270Y-128095808D02*
X176161032Y-127952951D01*
X176161032Y-127952951D02*
X176113413Y-127857713D01*
X176113413Y-127857713D02*
X176065794Y-127714856D01*
X176065794Y-127714856D02*
X176018175Y-127476760D01*
X176018175Y-127476760D02*
X176018175Y-127286284D01*
X176018175Y-127286284D02*
X176065794Y-127048189D01*
X176065794Y-127048189D02*
X176113413Y-126905332D01*
X176113413Y-126905332D02*
X176161032Y-126810094D01*
X176161032Y-126810094D02*
X176256270Y-126667236D01*
X176256270Y-126667236D02*
X176303889Y-126619617D01*
X176589604Y-127095808D02*
X176827699Y-127762475D01*
X176827699Y-127762475D02*
X177065794Y-127095808D01*
X177970556Y-127762475D02*
X177399128Y-127762475D01*
X177684842Y-127762475D02*
X177684842Y-126762475D01*
X177684842Y-126762475D02*
X177589604Y-126905332D01*
X177589604Y-126905332D02*
X177494366Y-127000570D01*
X177494366Y-127000570D02*
X177399128Y-127048189D01*
X178399128Y-127667236D02*
X178446747Y-127714856D01*
X178446747Y-127714856D02*
X178399128Y-127762475D01*
X178399128Y-127762475D02*
X178351509Y-127714856D01*
X178351509Y-127714856D02*
X178399128Y-127667236D01*
X178399128Y-127667236D02*
X178399128Y-127762475D01*
X179065794Y-126762475D02*
X179161032Y-126762475D01*
X179161032Y-126762475D02*
X179256270Y-126810094D01*
X179256270Y-126810094D02*
X179303889Y-126857713D01*
X179303889Y-126857713D02*
X179351508Y-126952951D01*
X179351508Y-126952951D02*
X179399127Y-127143427D01*
X179399127Y-127143427D02*
X179399127Y-127381522D01*
X179399127Y-127381522D02*
X179351508Y-127571998D01*
X179351508Y-127571998D02*
X179303889Y-127667236D01*
X179303889Y-127667236D02*
X179256270Y-127714856D01*
X179256270Y-127714856D02*
X179161032Y-127762475D01*
X179161032Y-127762475D02*
X179065794Y-127762475D01*
X179065794Y-127762475D02*
X178970556Y-127714856D01*
X178970556Y-127714856D02*
X178922937Y-127667236D01*
X178922937Y-127667236D02*
X178875318Y-127571998D01*
X178875318Y-127571998D02*
X178827699Y-127381522D01*
X178827699Y-127381522D02*
X178827699Y-127143427D01*
X178827699Y-127143427D02*
X178875318Y-126952951D01*
X178875318Y-126952951D02*
X178922937Y-126857713D01*
X178922937Y-126857713D02*
X178970556Y-126810094D01*
X178970556Y-126810094D02*
X179065794Y-126762475D01*
X179732461Y-128143427D02*
X179780080Y-128095808D01*
X179780080Y-128095808D02*
X179875318Y-127952951D01*
X179875318Y-127952951D02*
X179922937Y-127857713D01*
X179922937Y-127857713D02*
X179970556Y-127714856D01*
X179970556Y-127714856D02*
X180018175Y-127476760D01*
X180018175Y-127476760D02*
X180018175Y-127286284D01*
X180018175Y-127286284D02*
X179970556Y-127048189D01*
X179970556Y-127048189D02*
X179922937Y-126905332D01*
X179922937Y-126905332D02*
X179875318Y-126810094D01*
X179875318Y-126810094D02*
X179780080Y-126667236D01*
X179780080Y-126667236D02*
X179732461Y-126619617D01*
X153303884Y-129372419D02*
X153303884Y-128372419D01*
X153780074Y-128705752D02*
X153780074Y-129372419D01*
X153780074Y-128800990D02*
X153827693Y-128753371D01*
X153827693Y-128753371D02*
X153922931Y-128705752D01*
X153922931Y-128705752D02*
X154065788Y-128705752D01*
X154065788Y-128705752D02*
X154161026Y-128753371D01*
X154161026Y-128753371D02*
X154208645Y-128848609D01*
X154208645Y-128848609D02*
X154208645Y-129372419D01*
X155113407Y-129372419D02*
X155113407Y-128372419D01*
X155113407Y-129324800D02*
X155018169Y-129372419D01*
X155018169Y-129372419D02*
X154827693Y-129372419D01*
X154827693Y-129372419D02*
X154732455Y-129324800D01*
X154732455Y-129324800D02*
X154684836Y-129277180D01*
X154684836Y-129277180D02*
X154637217Y-129181942D01*
X154637217Y-129181942D02*
X154637217Y-128896228D01*
X154637217Y-128896228D02*
X154684836Y-128800990D01*
X154684836Y-128800990D02*
X154732455Y-128753371D01*
X154732455Y-128753371D02*
X154827693Y-128705752D01*
X154827693Y-128705752D02*
X155018169Y-128705752D01*
X155018169Y-128705752D02*
X155113407Y-128753371D01*
X155589598Y-129372419D02*
X155589598Y-128705752D01*
X155589598Y-128896228D02*
X155637217Y-128800990D01*
X155637217Y-128800990D02*
X155684836Y-128753371D01*
X155684836Y-128753371D02*
X155780074Y-128705752D01*
X155780074Y-128705752D02*
X155875312Y-128705752D01*
X156208646Y-129372419D02*
X156208646Y-128705752D01*
X156208646Y-128372419D02*
X156161027Y-128420038D01*
X156161027Y-128420038D02*
X156208646Y-128467657D01*
X156208646Y-128467657D02*
X156256265Y-128420038D01*
X156256265Y-128420038D02*
X156208646Y-128372419D01*
X156208646Y-128372419D02*
X156208646Y-128467657D01*
X156589598Y-128705752D02*
X156827693Y-129372419D01*
X157065788Y-128705752D02*
X156827693Y-129372419D01*
X156827693Y-129372419D02*
X156732455Y-129610514D01*
X156732455Y-129610514D02*
X156684836Y-129658133D01*
X156684836Y-129658133D02*
X156589598Y-129705752D01*
X157875312Y-129372419D02*
X157875312Y-128848609D01*
X157875312Y-128848609D02*
X157827693Y-128753371D01*
X157827693Y-128753371D02*
X157732455Y-128705752D01*
X157732455Y-128705752D02*
X157541979Y-128705752D01*
X157541979Y-128705752D02*
X157446741Y-128753371D01*
X157875312Y-129324800D02*
X157780074Y-129372419D01*
X157780074Y-129372419D02*
X157541979Y-129372419D01*
X157541979Y-129372419D02*
X157446741Y-129324800D01*
X157446741Y-129324800D02*
X157399122Y-129229561D01*
X157399122Y-129229561D02*
X157399122Y-129134323D01*
X157399122Y-129134323D02*
X157446741Y-129039085D01*
X157446741Y-129039085D02*
X157541979Y-128991466D01*
X157541979Y-128991466D02*
X157780074Y-128991466D01*
X157780074Y-128991466D02*
X157875312Y-128943847D01*
X159065789Y-129324800D02*
X159208646Y-129372419D01*
X159208646Y-129372419D02*
X159446741Y-129372419D01*
X159446741Y-129372419D02*
X159541979Y-129324800D01*
X159541979Y-129324800D02*
X159589598Y-129277180D01*
X159589598Y-129277180D02*
X159637217Y-129181942D01*
X159637217Y-129181942D02*
X159637217Y-129086704D01*
X159637217Y-129086704D02*
X159589598Y-128991466D01*
X159589598Y-128991466D02*
X159541979Y-128943847D01*
X159541979Y-128943847D02*
X159446741Y-128896228D01*
X159446741Y-128896228D02*
X159256265Y-128848609D01*
X159256265Y-128848609D02*
X159161027Y-128800990D01*
X159161027Y-128800990D02*
X159113408Y-128753371D01*
X159113408Y-128753371D02*
X159065789Y-128658133D01*
X159065789Y-128658133D02*
X159065789Y-128562895D01*
X159065789Y-128562895D02*
X159113408Y-128467657D01*
X159113408Y-128467657D02*
X159161027Y-128420038D01*
X159161027Y-128420038D02*
X159256265Y-128372419D01*
X159256265Y-128372419D02*
X159494360Y-128372419D01*
X159494360Y-128372419D02*
X159637217Y-128420038D01*
X160446741Y-129324800D02*
X160351503Y-129372419D01*
X160351503Y-129372419D02*
X160161027Y-129372419D01*
X160161027Y-129372419D02*
X160065789Y-129324800D01*
X160065789Y-129324800D02*
X160018170Y-129229561D01*
X160018170Y-129229561D02*
X160018170Y-128848609D01*
X160018170Y-128848609D02*
X160065789Y-128753371D01*
X160065789Y-128753371D02*
X160161027Y-128705752D01*
X160161027Y-128705752D02*
X160351503Y-128705752D01*
X160351503Y-128705752D02*
X160446741Y-128753371D01*
X160446741Y-128753371D02*
X160494360Y-128848609D01*
X160494360Y-128848609D02*
X160494360Y-128943847D01*
X160494360Y-128943847D02*
X160018170Y-129039085D01*
X160922932Y-128705752D02*
X160922932Y-129372419D01*
X160922932Y-128800990D02*
X160970551Y-128753371D01*
X160970551Y-128753371D02*
X161065789Y-128705752D01*
X161065789Y-128705752D02*
X161208646Y-128705752D01*
X161208646Y-128705752D02*
X161303884Y-128753371D01*
X161303884Y-128753371D02*
X161351503Y-128848609D01*
X161351503Y-128848609D02*
X161351503Y-129372419D01*
X161780075Y-129324800D02*
X161875313Y-129372419D01*
X161875313Y-129372419D02*
X162065789Y-129372419D01*
X162065789Y-129372419D02*
X162161027Y-129324800D01*
X162161027Y-129324800D02*
X162208646Y-129229561D01*
X162208646Y-129229561D02*
X162208646Y-129181942D01*
X162208646Y-129181942D02*
X162161027Y-129086704D01*
X162161027Y-129086704D02*
X162065789Y-129039085D01*
X162065789Y-129039085D02*
X161922932Y-129039085D01*
X161922932Y-129039085D02*
X161827694Y-128991466D01*
X161827694Y-128991466D02*
X161780075Y-128896228D01*
X161780075Y-128896228D02*
X161780075Y-128848609D01*
X161780075Y-128848609D02*
X161827694Y-128753371D01*
X161827694Y-128753371D02*
X161922932Y-128705752D01*
X161922932Y-128705752D02*
X162065789Y-128705752D01*
X162065789Y-128705752D02*
X162161027Y-128753371D01*
X162780075Y-129372419D02*
X162684837Y-129324800D01*
X162684837Y-129324800D02*
X162637218Y-129277180D01*
X162637218Y-129277180D02*
X162589599Y-129181942D01*
X162589599Y-129181942D02*
X162589599Y-128896228D01*
X162589599Y-128896228D02*
X162637218Y-128800990D01*
X162637218Y-128800990D02*
X162684837Y-128753371D01*
X162684837Y-128753371D02*
X162780075Y-128705752D01*
X162780075Y-128705752D02*
X162922932Y-128705752D01*
X162922932Y-128705752D02*
X163018170Y-128753371D01*
X163018170Y-128753371D02*
X163065789Y-128800990D01*
X163065789Y-128800990D02*
X163113408Y-128896228D01*
X163113408Y-128896228D02*
X163113408Y-129181942D01*
X163113408Y-129181942D02*
X163065789Y-129277180D01*
X163065789Y-129277180D02*
X163018170Y-129324800D01*
X163018170Y-129324800D02*
X162922932Y-129372419D01*
X162922932Y-129372419D02*
X162780075Y-129372419D01*
X163399123Y-128705752D02*
X163780075Y-128705752D01*
X163541980Y-128372419D02*
X163541980Y-129229561D01*
X163541980Y-129229561D02*
X163589599Y-129324800D01*
X163589599Y-129324800D02*
X163684837Y-129372419D01*
X163684837Y-129372419D02*
X163780075Y-129372419D01*
X164494361Y-129324800D02*
X164399123Y-129372419D01*
X164399123Y-129372419D02*
X164208647Y-129372419D01*
X164208647Y-129372419D02*
X164113409Y-129324800D01*
X164113409Y-129324800D02*
X164065790Y-129229561D01*
X164065790Y-129229561D02*
X164065790Y-128848609D01*
X164065790Y-128848609D02*
X164113409Y-128753371D01*
X164113409Y-128753371D02*
X164208647Y-128705752D01*
X164208647Y-128705752D02*
X164399123Y-128705752D01*
X164399123Y-128705752D02*
X164494361Y-128753371D01*
X164494361Y-128753371D02*
X164541980Y-128848609D01*
X164541980Y-128848609D02*
X164541980Y-128943847D01*
X164541980Y-128943847D02*
X164065790Y-129039085D01*
X165399123Y-129324800D02*
X165303885Y-129372419D01*
X165303885Y-129372419D02*
X165113409Y-129372419D01*
X165113409Y-129372419D02*
X165018171Y-129324800D01*
X165018171Y-129324800D02*
X164970552Y-129277180D01*
X164970552Y-129277180D02*
X164922933Y-129181942D01*
X164922933Y-129181942D02*
X164922933Y-128896228D01*
X164922933Y-128896228D02*
X164970552Y-128800990D01*
X164970552Y-128800990D02*
X165018171Y-128753371D01*
X165018171Y-128753371D02*
X165113409Y-128705752D01*
X165113409Y-128705752D02*
X165303885Y-128705752D01*
X165303885Y-128705752D02*
X165399123Y-128753371D01*
X165827695Y-129372419D02*
X165827695Y-128372419D01*
X166256266Y-129372419D02*
X166256266Y-128848609D01*
X166256266Y-128848609D02*
X166208647Y-128753371D01*
X166208647Y-128753371D02*
X166113409Y-128705752D01*
X166113409Y-128705752D02*
X165970552Y-128705752D01*
X165970552Y-128705752D02*
X165875314Y-128753371D01*
X165875314Y-128753371D02*
X165827695Y-128800990D01*
X167494362Y-129372419D02*
X167494362Y-128372419D01*
X167494362Y-128372419D02*
X167875314Y-128372419D01*
X167875314Y-128372419D02*
X167970552Y-128420038D01*
X167970552Y-128420038D02*
X168018171Y-128467657D01*
X168018171Y-128467657D02*
X168065790Y-128562895D01*
X168065790Y-128562895D02*
X168065790Y-128705752D01*
X168065790Y-128705752D02*
X168018171Y-128800990D01*
X168018171Y-128800990D02*
X167970552Y-128848609D01*
X167970552Y-128848609D02*
X167875314Y-128896228D01*
X167875314Y-128896228D02*
X167494362Y-128896228D01*
X168494362Y-129372419D02*
X168494362Y-128705752D01*
X168494362Y-128896228D02*
X168541981Y-128800990D01*
X168541981Y-128800990D02*
X168589600Y-128753371D01*
X168589600Y-128753371D02*
X168684838Y-128705752D01*
X168684838Y-128705752D02*
X168780076Y-128705752D01*
X169113410Y-129372419D02*
X169113410Y-128705752D01*
X169113410Y-128372419D02*
X169065791Y-128420038D01*
X169065791Y-128420038D02*
X169113410Y-128467657D01*
X169113410Y-128467657D02*
X169161029Y-128420038D01*
X169161029Y-128420038D02*
X169113410Y-128372419D01*
X169113410Y-128372419D02*
X169113410Y-128467657D01*
X169494362Y-128705752D02*
X169732457Y-129372419D01*
X169732457Y-129372419D02*
X169970552Y-128705752D01*
X170780076Y-129372419D02*
X170780076Y-128848609D01*
X170780076Y-128848609D02*
X170732457Y-128753371D01*
X170732457Y-128753371D02*
X170637219Y-128705752D01*
X170637219Y-128705752D02*
X170446743Y-128705752D01*
X170446743Y-128705752D02*
X170351505Y-128753371D01*
X170780076Y-129324800D02*
X170684838Y-129372419D01*
X170684838Y-129372419D02*
X170446743Y-129372419D01*
X170446743Y-129372419D02*
X170351505Y-129324800D01*
X170351505Y-129324800D02*
X170303886Y-129229561D01*
X170303886Y-129229561D02*
X170303886Y-129134323D01*
X170303886Y-129134323D02*
X170351505Y-129039085D01*
X170351505Y-129039085D02*
X170446743Y-128991466D01*
X170446743Y-128991466D02*
X170684838Y-128991466D01*
X170684838Y-128991466D02*
X170780076Y-128943847D01*
X171113410Y-128705752D02*
X171494362Y-128705752D01*
X171256267Y-128372419D02*
X171256267Y-129229561D01*
X171256267Y-129229561D02*
X171303886Y-129324800D01*
X171303886Y-129324800D02*
X171399124Y-129372419D01*
X171399124Y-129372419D02*
X171494362Y-129372419D01*
X172208648Y-129324800D02*
X172113410Y-129372419D01*
X172113410Y-129372419D02*
X171922934Y-129372419D01*
X171922934Y-129372419D02*
X171827696Y-129324800D01*
X171827696Y-129324800D02*
X171780077Y-129229561D01*
X171780077Y-129229561D02*
X171780077Y-128848609D01*
X171780077Y-128848609D02*
X171827696Y-128753371D01*
X171827696Y-128753371D02*
X171922934Y-128705752D01*
X171922934Y-128705752D02*
X172113410Y-128705752D01*
X172113410Y-128705752D02*
X172208648Y-128753371D01*
X172208648Y-128753371D02*
X172256267Y-128848609D01*
X172256267Y-128848609D02*
X172256267Y-128943847D01*
X172256267Y-128943847D02*
X171780077Y-129039085D01*
X173922934Y-129372419D02*
X173446744Y-129372419D01*
X173446744Y-129372419D02*
X173446744Y-128372419D01*
X174256268Y-129372419D02*
X174256268Y-128705752D01*
X174256268Y-128372419D02*
X174208649Y-128420038D01*
X174208649Y-128420038D02*
X174256268Y-128467657D01*
X174256268Y-128467657D02*
X174303887Y-128420038D01*
X174303887Y-128420038D02*
X174256268Y-128372419D01*
X174256268Y-128372419D02*
X174256268Y-128467657D01*
X174732458Y-129372419D02*
X174732458Y-128705752D01*
X174732458Y-128800990D02*
X174780077Y-128753371D01*
X174780077Y-128753371D02*
X174875315Y-128705752D01*
X174875315Y-128705752D02*
X175018172Y-128705752D01*
X175018172Y-128705752D02*
X175113410Y-128753371D01*
X175113410Y-128753371D02*
X175161029Y-128848609D01*
X175161029Y-128848609D02*
X175161029Y-129372419D01*
X175161029Y-128848609D02*
X175208648Y-128753371D01*
X175208648Y-128753371D02*
X175303886Y-128705752D01*
X175303886Y-128705752D02*
X175446743Y-128705752D01*
X175446743Y-128705752D02*
X175541982Y-128753371D01*
X175541982Y-128753371D02*
X175589601Y-128848609D01*
X175589601Y-128848609D02*
X175589601Y-129372419D01*
X176065791Y-129372419D02*
X176065791Y-128705752D01*
X176065791Y-128372419D02*
X176018172Y-128420038D01*
X176018172Y-128420038D02*
X176065791Y-128467657D01*
X176065791Y-128467657D02*
X176113410Y-128420038D01*
X176113410Y-128420038D02*
X176065791Y-128372419D01*
X176065791Y-128372419D02*
X176065791Y-128467657D01*
X176399124Y-128705752D02*
X176780076Y-128705752D01*
X176541981Y-128372419D02*
X176541981Y-129229561D01*
X176541981Y-129229561D02*
X176589600Y-129324800D01*
X176589600Y-129324800D02*
X176684838Y-129372419D01*
X176684838Y-129372419D02*
X176780076Y-129372419D01*
X177494362Y-129324800D02*
X177399124Y-129372419D01*
X177399124Y-129372419D02*
X177208648Y-129372419D01*
X177208648Y-129372419D02*
X177113410Y-129324800D01*
X177113410Y-129324800D02*
X177065791Y-129229561D01*
X177065791Y-129229561D02*
X177065791Y-128848609D01*
X177065791Y-128848609D02*
X177113410Y-128753371D01*
X177113410Y-128753371D02*
X177208648Y-128705752D01*
X177208648Y-128705752D02*
X177399124Y-128705752D01*
X177399124Y-128705752D02*
X177494362Y-128753371D01*
X177494362Y-128753371D02*
X177541981Y-128848609D01*
X177541981Y-128848609D02*
X177541981Y-128943847D01*
X177541981Y-128943847D02*
X177065791Y-129039085D01*
X178399124Y-129372419D02*
X178399124Y-128372419D01*
X178399124Y-129324800D02*
X178303886Y-129372419D01*
X178303886Y-129372419D02*
X178113410Y-129372419D01*
X178113410Y-129372419D02*
X178018172Y-129324800D01*
X178018172Y-129324800D02*
X177970553Y-129277180D01*
X177970553Y-129277180D02*
X177922934Y-129181942D01*
X177922934Y-129181942D02*
X177922934Y-128896228D01*
X177922934Y-128896228D02*
X177970553Y-128800990D01*
X177970553Y-128800990D02*
X178018172Y-128753371D01*
X178018172Y-128753371D02*
X178113410Y-128705752D01*
X178113410Y-128705752D02*
X178303886Y-128705752D01*
X178303886Y-128705752D02*
X178399124Y-128753371D01*
X176324800Y-82243734D02*
X176372419Y-82100877D01*
X176372419Y-82100877D02*
X176372419Y-81862782D01*
X176372419Y-81862782D02*
X176324800Y-81767544D01*
X176324800Y-81767544D02*
X176277180Y-81719925D01*
X176277180Y-81719925D02*
X176181942Y-81672306D01*
X176181942Y-81672306D02*
X176086704Y-81672306D01*
X176086704Y-81672306D02*
X175991466Y-81719925D01*
X175991466Y-81719925D02*
X175943847Y-81767544D01*
X175943847Y-81767544D02*
X175896228Y-81862782D01*
X175896228Y-81862782D02*
X175848609Y-82053258D01*
X175848609Y-82053258D02*
X175800990Y-82148496D01*
X175800990Y-82148496D02*
X175753371Y-82196115D01*
X175753371Y-82196115D02*
X175658133Y-82243734D01*
X175658133Y-82243734D02*
X175562895Y-82243734D01*
X175562895Y-82243734D02*
X175467657Y-82196115D01*
X175467657Y-82196115D02*
X175420038Y-82148496D01*
X175420038Y-82148496D02*
X175372419Y-82053258D01*
X175372419Y-82053258D02*
X175372419Y-81815163D01*
X175372419Y-81815163D02*
X175420038Y-81672306D01*
X175372419Y-81338972D02*
X176372419Y-81100877D01*
X176372419Y-81100877D02*
X175658133Y-80910401D01*
X175658133Y-80910401D02*
X176372419Y-80719925D01*
X176372419Y-80719925D02*
X175372419Y-80481830D01*
X176372419Y-80100877D02*
X175372419Y-80100877D01*
X175372419Y-79767544D02*
X175372419Y-79196116D01*
X176372419Y-79481830D02*
X175372419Y-79481830D01*
X176277180Y-78291354D02*
X176324800Y-78338973D01*
X176324800Y-78338973D02*
X176372419Y-78481830D01*
X176372419Y-78481830D02*
X176372419Y-78577068D01*
X176372419Y-78577068D02*
X176324800Y-78719925D01*
X176324800Y-78719925D02*
X176229561Y-78815163D01*
X176229561Y-78815163D02*
X176134323Y-78862782D01*
X176134323Y-78862782D02*
X175943847Y-78910401D01*
X175943847Y-78910401D02*
X175800990Y-78910401D01*
X175800990Y-78910401D02*
X175610514Y-78862782D01*
X175610514Y-78862782D02*
X175515276Y-78815163D01*
X175515276Y-78815163D02*
X175420038Y-78719925D01*
X175420038Y-78719925D02*
X175372419Y-78577068D01*
X175372419Y-78577068D02*
X175372419Y-78481830D01*
X175372419Y-78481830D02*
X175420038Y-78338973D01*
X175420038Y-78338973D02*
X175467657Y-78291354D01*
X176372419Y-77862782D02*
X175372419Y-77862782D01*
X175848609Y-77862782D02*
X175848609Y-77291354D01*
X176372419Y-77291354D02*
X175372419Y-77291354D01*
X159584687Y-76377580D02*
X159918020Y-76853771D01*
X160156115Y-76377580D02*
X160156115Y-77377580D01*
X160156115Y-77377580D02*
X159775163Y-77377580D01*
X159775163Y-77377580D02*
X159679925Y-77329961D01*
X159679925Y-77329961D02*
X159632306Y-77282342D01*
X159632306Y-77282342D02*
X159584687Y-77187104D01*
X159584687Y-77187104D02*
X159584687Y-77044247D01*
X159584687Y-77044247D02*
X159632306Y-76949009D01*
X159632306Y-76949009D02*
X159679925Y-76901390D01*
X159679925Y-76901390D02*
X159775163Y-76853771D01*
X159775163Y-76853771D02*
X160156115Y-76853771D01*
X157632305Y-76377580D02*
X157632305Y-77377580D01*
X157060877Y-76377580D02*
X157489448Y-76949009D01*
X157060877Y-77377580D02*
X157632305Y-76806152D01*
X154584686Y-77329961D02*
X154679924Y-77377580D01*
X154679924Y-77377580D02*
X154822781Y-77377580D01*
X154822781Y-77377580D02*
X154965638Y-77329961D01*
X154965638Y-77329961D02*
X155060876Y-77234723D01*
X155060876Y-77234723D02*
X155108495Y-77139485D01*
X155108495Y-77139485D02*
X155156114Y-76949009D01*
X155156114Y-76949009D02*
X155156114Y-76806152D01*
X155156114Y-76806152D02*
X155108495Y-76615676D01*
X155108495Y-76615676D02*
X155060876Y-76520438D01*
X155060876Y-76520438D02*
X154965638Y-76425200D01*
X154965638Y-76425200D02*
X154822781Y-76377580D01*
X154822781Y-76377580D02*
X154727543Y-76377580D01*
X154727543Y-76377580D02*
X154584686Y-76425200D01*
X154584686Y-76425200D02*
X154537067Y-76472819D01*
X154537067Y-76472819D02*
X154537067Y-76806152D01*
X154537067Y-76806152D02*
X154727543Y-76806152D01*
X152251352Y-76901390D02*
X152108495Y-76853771D01*
X152108495Y-76853771D02*
X152060876Y-76806152D01*
X152060876Y-76806152D02*
X152013257Y-76710914D01*
X152013257Y-76710914D02*
X152013257Y-76568057D01*
X152013257Y-76568057D02*
X152060876Y-76472819D01*
X152060876Y-76472819D02*
X152108495Y-76425200D01*
X152108495Y-76425200D02*
X152203733Y-76377580D01*
X152203733Y-76377580D02*
X152584685Y-76377580D01*
X152584685Y-76377580D02*
X152584685Y-77377580D01*
X152584685Y-77377580D02*
X152251352Y-77377580D01*
X152251352Y-77377580D02*
X152156114Y-77329961D01*
X152156114Y-77329961D02*
X152108495Y-77282342D01*
X152108495Y-77282342D02*
X152060876Y-77187104D01*
X152060876Y-77187104D02*
X152060876Y-77091866D01*
X152060876Y-77091866D02*
X152108495Y-76996628D01*
X152108495Y-76996628D02*
X152156114Y-76949009D01*
X152156114Y-76949009D02*
X152251352Y-76901390D01*
X152251352Y-76901390D02*
X152584685Y-76901390D01*
X189175200Y-87056265D02*
X189127580Y-87199122D01*
X189127580Y-87199122D02*
X189127580Y-87437217D01*
X189127580Y-87437217D02*
X189175200Y-87532455D01*
X189175200Y-87532455D02*
X189222819Y-87580074D01*
X189222819Y-87580074D02*
X189318057Y-87627693D01*
X189318057Y-87627693D02*
X189413295Y-87627693D01*
X189413295Y-87627693D02*
X189508533Y-87580074D01*
X189508533Y-87580074D02*
X189556152Y-87532455D01*
X189556152Y-87532455D02*
X189603771Y-87437217D01*
X189603771Y-87437217D02*
X189651390Y-87246741D01*
X189651390Y-87246741D02*
X189699009Y-87151503D01*
X189699009Y-87151503D02*
X189746628Y-87103884D01*
X189746628Y-87103884D02*
X189841866Y-87056265D01*
X189841866Y-87056265D02*
X189937104Y-87056265D01*
X189937104Y-87056265D02*
X190032342Y-87103884D01*
X190032342Y-87103884D02*
X190079961Y-87151503D01*
X190079961Y-87151503D02*
X190127580Y-87246741D01*
X190127580Y-87246741D02*
X190127580Y-87484836D01*
X190127580Y-87484836D02*
X190079961Y-87627693D01*
X190127580Y-87913408D02*
X189127580Y-88246741D01*
X189127580Y-88246741D02*
X190127580Y-88580074D01*
X189222819Y-92175312D02*
X189175200Y-92127693D01*
X189175200Y-92127693D02*
X189127580Y-91984836D01*
X189127580Y-91984836D02*
X189127580Y-91889598D01*
X189127580Y-91889598D02*
X189175200Y-91746741D01*
X189175200Y-91746741D02*
X189270438Y-91651503D01*
X189270438Y-91651503D02*
X189365676Y-91603884D01*
X189365676Y-91603884D02*
X189556152Y-91556265D01*
X189556152Y-91556265D02*
X189699009Y-91556265D01*
X189699009Y-91556265D02*
X189889485Y-91603884D01*
X189889485Y-91603884D02*
X189984723Y-91651503D01*
X189984723Y-91651503D02*
X190079961Y-91746741D01*
X190079961Y-91746741D02*
X190127580Y-91889598D01*
X190127580Y-91889598D02*
X190127580Y-91984836D01*
X190127580Y-91984836D02*
X190079961Y-92127693D01*
X190079961Y-92127693D02*
X190032342Y-92175312D01*
X190127580Y-92794360D02*
X190127580Y-92984836D01*
X190127580Y-92984836D02*
X190079961Y-93080074D01*
X190079961Y-93080074D02*
X189984723Y-93175312D01*
X189984723Y-93175312D02*
X189794247Y-93222931D01*
X189794247Y-93222931D02*
X189460914Y-93222931D01*
X189460914Y-93222931D02*
X189270438Y-93175312D01*
X189270438Y-93175312D02*
X189175200Y-93080074D01*
X189175200Y-93080074D02*
X189127580Y-92984836D01*
X189127580Y-92984836D02*
X189127580Y-92794360D01*
X189127580Y-92794360D02*
X189175200Y-92699122D01*
X189175200Y-92699122D02*
X189270438Y-92603884D01*
X189270438Y-92603884D02*
X189460914Y-92556265D01*
X189460914Y-92556265D02*
X189794247Y-92556265D01*
X189794247Y-92556265D02*
X189984723Y-92603884D01*
X189984723Y-92603884D02*
X190079961Y-92699122D01*
X190079961Y-92699122D02*
X190127580Y-92794360D01*
X189127580Y-93651503D02*
X190127580Y-93651503D01*
X190127580Y-93651503D02*
X189413295Y-93984836D01*
X189413295Y-93984836D02*
X190127580Y-94318169D01*
X190127580Y-94318169D02*
X189127580Y-94318169D01*
X189413295Y-97056265D02*
X189413295Y-97532455D01*
X189127580Y-96961027D02*
X190127580Y-97294360D01*
X190127580Y-97294360D02*
X189127580Y-97627693D01*
X189127580Y-98437217D02*
X189127580Y-97961027D01*
X189127580Y-97961027D02*
X190127580Y-97961027D01*
X189127580Y-98770551D02*
X190127580Y-98770551D01*
X190127580Y-98770551D02*
X189413295Y-99103884D01*
X189413295Y-99103884D02*
X190127580Y-99437217D01*
X190127580Y-99437217D02*
X189127580Y-99437217D01*
X189175200Y-101056265D02*
X189127580Y-101199122D01*
X189127580Y-101199122D02*
X189127580Y-101437217D01*
X189127580Y-101437217D02*
X189175200Y-101532455D01*
X189175200Y-101532455D02*
X189222819Y-101580074D01*
X189222819Y-101580074D02*
X189318057Y-101627693D01*
X189318057Y-101627693D02*
X189413295Y-101627693D01*
X189413295Y-101627693D02*
X189508533Y-101580074D01*
X189508533Y-101580074D02*
X189556152Y-101532455D01*
X189556152Y-101532455D02*
X189603771Y-101437217D01*
X189603771Y-101437217D02*
X189651390Y-101246741D01*
X189651390Y-101246741D02*
X189699009Y-101151503D01*
X189699009Y-101151503D02*
X189746628Y-101103884D01*
X189746628Y-101103884D02*
X189841866Y-101056265D01*
X189841866Y-101056265D02*
X189937104Y-101056265D01*
X189937104Y-101056265D02*
X190032342Y-101103884D01*
X190032342Y-101103884D02*
X190079961Y-101151503D01*
X190079961Y-101151503D02*
X190127580Y-101246741D01*
X190127580Y-101246741D02*
X190127580Y-101484836D01*
X190127580Y-101484836D02*
X190079961Y-101627693D01*
X189127580Y-102056265D02*
X190127580Y-102056265D01*
X190127580Y-102056265D02*
X190127580Y-102437217D01*
X190127580Y-102437217D02*
X190079961Y-102532455D01*
X190079961Y-102532455D02*
X190032342Y-102580074D01*
X190032342Y-102580074D02*
X189937104Y-102627693D01*
X189937104Y-102627693D02*
X189794247Y-102627693D01*
X189794247Y-102627693D02*
X189699009Y-102580074D01*
X189699009Y-102580074D02*
X189651390Y-102532455D01*
X189651390Y-102532455D02*
X189603771Y-102437217D01*
X189603771Y-102437217D02*
X189603771Y-102056265D01*
X189651390Y-103056265D02*
X189651390Y-103389598D01*
X189127580Y-103532455D02*
X189127580Y-103056265D01*
X189127580Y-103056265D02*
X190127580Y-103056265D01*
X190127580Y-103056265D02*
X190127580Y-103532455D01*
X189651390Y-103961027D02*
X189651390Y-104294360D01*
X189127580Y-104437217D02*
X189127580Y-103961027D01*
X189127580Y-103961027D02*
X190127580Y-103961027D01*
X190127580Y-103961027D02*
X190127580Y-104437217D01*
X189127580Y-104865789D02*
X190127580Y-104865789D01*
X190127580Y-104865789D02*
X190127580Y-105103884D01*
X190127580Y-105103884D02*
X190079961Y-105246741D01*
X190079961Y-105246741D02*
X189984723Y-105341979D01*
X189984723Y-105341979D02*
X189889485Y-105389598D01*
X189889485Y-105389598D02*
X189699009Y-105437217D01*
X189699009Y-105437217D02*
X189556152Y-105437217D01*
X189556152Y-105437217D02*
X189365676Y-105389598D01*
X189365676Y-105389598D02*
X189270438Y-105341979D01*
X189270438Y-105341979D02*
X189175200Y-105246741D01*
X189175200Y-105246741D02*
X189127580Y-105103884D01*
X189127580Y-105103884D02*
X189127580Y-104865789D01*
X189651390Y-107937217D02*
X189603771Y-108080074D01*
X189603771Y-108080074D02*
X189556152Y-108127693D01*
X189556152Y-108127693D02*
X189460914Y-108175312D01*
X189460914Y-108175312D02*
X189318057Y-108175312D01*
X189318057Y-108175312D02*
X189222819Y-108127693D01*
X189222819Y-108127693D02*
X189175200Y-108080074D01*
X189175200Y-108080074D02*
X189127580Y-107984836D01*
X189127580Y-107984836D02*
X189127580Y-107603884D01*
X189127580Y-107603884D02*
X190127580Y-107603884D01*
X190127580Y-107603884D02*
X190127580Y-107937217D01*
X190127580Y-107937217D02*
X190079961Y-108032455D01*
X190079961Y-108032455D02*
X190032342Y-108080074D01*
X190032342Y-108080074D02*
X189937104Y-108127693D01*
X189937104Y-108127693D02*
X189841866Y-108127693D01*
X189841866Y-108127693D02*
X189746628Y-108080074D01*
X189746628Y-108080074D02*
X189699009Y-108032455D01*
X189699009Y-108032455D02*
X189651390Y-107937217D01*
X189651390Y-107937217D02*
X189651390Y-107603884D01*
X189127580Y-109175312D02*
X189603771Y-108841979D01*
X189127580Y-108603884D02*
X190127580Y-108603884D01*
X190127580Y-108603884D02*
X190127580Y-108984836D01*
X190127580Y-108984836D02*
X190079961Y-109080074D01*
X190079961Y-109080074D02*
X190032342Y-109127693D01*
X190032342Y-109127693D02*
X189937104Y-109175312D01*
X189937104Y-109175312D02*
X189794247Y-109175312D01*
X189794247Y-109175312D02*
X189699009Y-109127693D01*
X189699009Y-109127693D02*
X189651390Y-109080074D01*
X189651390Y-109080074D02*
X189603771Y-108984836D01*
X189603771Y-108984836D02*
X189603771Y-108603884D01*
X189127580Y-109603884D02*
X190127580Y-109603884D01*
X189127580Y-110175312D02*
X189699009Y-109746741D01*
X190127580Y-110175312D02*
X189556152Y-109603884D01*
X189651390Y-112603884D02*
X189651390Y-112937217D01*
X189127580Y-113080074D02*
X189127580Y-112603884D01*
X189127580Y-112603884D02*
X190127580Y-112603884D01*
X190127580Y-112603884D02*
X190127580Y-113080074D01*
X189127580Y-113508646D02*
X190127580Y-113508646D01*
X190127580Y-113508646D02*
X189127580Y-114080074D01*
X189127580Y-114080074D02*
X190127580Y-114080074D01*
X189751390Y-117437217D02*
X189751390Y-117103884D01*
X189227580Y-117103884D02*
X190227580Y-117103884D01*
X190227580Y-117103884D02*
X190227580Y-117580074D01*
X190275200Y-118675312D02*
X188989485Y-117818170D01*
X189227580Y-119580074D02*
X189703771Y-119246741D01*
X189227580Y-119008646D02*
X190227580Y-119008646D01*
X190227580Y-119008646D02*
X190227580Y-119389598D01*
X190227580Y-119389598D02*
X190179961Y-119484836D01*
X190179961Y-119484836D02*
X190132342Y-119532455D01*
X190132342Y-119532455D02*
X190037104Y-119580074D01*
X190037104Y-119580074D02*
X189894247Y-119580074D01*
X189894247Y-119580074D02*
X189799009Y-119532455D01*
X189799009Y-119532455D02*
X189751390Y-119484836D01*
X189751390Y-119484836D02*
X189703771Y-119389598D01*
X189703771Y-119389598D02*
X189703771Y-119008646D01*
D12*
X176592119Y-103291033D02*
X177306404Y-103291033D01*
X177306404Y-103291033D02*
X177449261Y-103338652D01*
X177449261Y-103338652D02*
X177544500Y-103433890D01*
X177544500Y-103433890D02*
X177592119Y-103576747D01*
X177592119Y-103576747D02*
X177592119Y-103671985D01*
X176592119Y-102910080D02*
X176592119Y-102291033D01*
X176592119Y-102291033D02*
X176973071Y-102624366D01*
X176973071Y-102624366D02*
X176973071Y-102481509D01*
X176973071Y-102481509D02*
X177020690Y-102386271D01*
X177020690Y-102386271D02*
X177068309Y-102338652D01*
X177068309Y-102338652D02*
X177163547Y-102291033D01*
X177163547Y-102291033D02*
X177401642Y-102291033D01*
X177401642Y-102291033D02*
X177496880Y-102338652D01*
X177496880Y-102338652D02*
X177544500Y-102386271D01*
X177544500Y-102386271D02*
X177592119Y-102481509D01*
X177592119Y-102481509D02*
X177592119Y-102767223D01*
X177592119Y-102767223D02*
X177544500Y-102862461D01*
X177544500Y-102862461D02*
X177496880Y-102910080D01*
X173166666Y-88989819D02*
X173166666Y-89704104D01*
X173166666Y-89704104D02*
X173119047Y-89846961D01*
X173119047Y-89846961D02*
X173023809Y-89942200D01*
X173023809Y-89942200D02*
X172880952Y-89989819D01*
X172880952Y-89989819D02*
X172785714Y-89989819D01*
X173595238Y-89085057D02*
X173642857Y-89037438D01*
X173642857Y-89037438D02*
X173738095Y-88989819D01*
X173738095Y-88989819D02*
X173976190Y-88989819D01*
X173976190Y-88989819D02*
X174071428Y-89037438D01*
X174071428Y-89037438D02*
X174119047Y-89085057D01*
X174119047Y-89085057D02*
X174166666Y-89180295D01*
X174166666Y-89180295D02*
X174166666Y-89275533D01*
X174166666Y-89275533D02*
X174119047Y-89418390D01*
X174119047Y-89418390D02*
X173547619Y-89989819D01*
X173547619Y-89989819D02*
X174166666Y-89989819D01*
X157333333Y-122587319D02*
X157000000Y-122111128D01*
X156761905Y-122587319D02*
X156761905Y-121587319D01*
X156761905Y-121587319D02*
X157142857Y-121587319D01*
X157142857Y-121587319D02*
X157238095Y-121634938D01*
X157238095Y-121634938D02*
X157285714Y-121682557D01*
X157285714Y-121682557D02*
X157333333Y-121777795D01*
X157333333Y-121777795D02*
X157333333Y-121920652D01*
X157333333Y-121920652D02*
X157285714Y-122015890D01*
X157285714Y-122015890D02*
X157238095Y-122063509D01*
X157238095Y-122063509D02*
X157142857Y-122111128D01*
X157142857Y-122111128D02*
X156761905Y-122111128D01*
X158285714Y-122587319D02*
X157714286Y-122587319D01*
X158000000Y-122587319D02*
X158000000Y-121587319D01*
X158000000Y-121587319D02*
X157904762Y-121730176D01*
X157904762Y-121730176D02*
X157809524Y-121825414D01*
X157809524Y-121825414D02*
X157714286Y-121873033D01*
X120104819Y-80761904D02*
X119104819Y-80761904D01*
X119581009Y-80761904D02*
X119581009Y-80190476D01*
X120104819Y-80190476D02*
X119104819Y-80190476D01*
X120104819Y-79190476D02*
X120104819Y-79761904D01*
X120104819Y-79476190D02*
X119104819Y-79476190D01*
X119104819Y-79476190D02*
X119247676Y-79571428D01*
X119247676Y-79571428D02*
X119342914Y-79666666D01*
X119342914Y-79666666D02*
X119390533Y-79761904D01*
X161874819Y-79333333D02*
X162589104Y-79333333D01*
X162589104Y-79333333D02*
X162731961Y-79380952D01*
X162731961Y-79380952D02*
X162827200Y-79476190D01*
X162827200Y-79476190D02*
X162874819Y-79619047D01*
X162874819Y-79619047D02*
X162874819Y-79714285D01*
X162303390Y-78714285D02*
X162255771Y-78809523D01*
X162255771Y-78809523D02*
X162208152Y-78857142D01*
X162208152Y-78857142D02*
X162112914Y-78904761D01*
X162112914Y-78904761D02*
X162065295Y-78904761D01*
X162065295Y-78904761D02*
X161970057Y-78857142D01*
X161970057Y-78857142D02*
X161922438Y-78809523D01*
X161922438Y-78809523D02*
X161874819Y-78714285D01*
X161874819Y-78714285D02*
X161874819Y-78523809D01*
X161874819Y-78523809D02*
X161922438Y-78428571D01*
X161922438Y-78428571D02*
X161970057Y-78380952D01*
X161970057Y-78380952D02*
X162065295Y-78333333D01*
X162065295Y-78333333D02*
X162112914Y-78333333D01*
X162112914Y-78333333D02*
X162208152Y-78380952D01*
X162208152Y-78380952D02*
X162255771Y-78428571D01*
X162255771Y-78428571D02*
X162303390Y-78523809D01*
X162303390Y-78523809D02*
X162303390Y-78714285D01*
X162303390Y-78714285D02*
X162351009Y-78809523D01*
X162351009Y-78809523D02*
X162398628Y-78857142D01*
X162398628Y-78857142D02*
X162493866Y-78904761D01*
X162493866Y-78904761D02*
X162684342Y-78904761D01*
X162684342Y-78904761D02*
X162779580Y-78857142D01*
X162779580Y-78857142D02*
X162827200Y-78809523D01*
X162827200Y-78809523D02*
X162874819Y-78714285D01*
X162874819Y-78714285D02*
X162874819Y-78523809D01*
X162874819Y-78523809D02*
X162827200Y-78428571D01*
X162827200Y-78428571D02*
X162779580Y-78380952D01*
X162779580Y-78380952D02*
X162684342Y-78333333D01*
X162684342Y-78333333D02*
X162493866Y-78333333D01*
X162493866Y-78333333D02*
X162398628Y-78380952D01*
X162398628Y-78380952D02*
X162351009Y-78428571D01*
X162351009Y-78428571D02*
X162303390Y-78523809D01*
X162333333Y-125384819D02*
X162000000Y-124908628D01*
X161761905Y-125384819D02*
X161761905Y-124384819D01*
X161761905Y-124384819D02*
X162142857Y-124384819D01*
X162142857Y-124384819D02*
X162238095Y-124432438D01*
X162238095Y-124432438D02*
X162285714Y-124480057D01*
X162285714Y-124480057D02*
X162333333Y-124575295D01*
X162333333Y-124575295D02*
X162333333Y-124718152D01*
X162333333Y-124718152D02*
X162285714Y-124813390D01*
X162285714Y-124813390D02*
X162238095Y-124861009D01*
X162238095Y-124861009D02*
X162142857Y-124908628D01*
X162142857Y-124908628D02*
X161761905Y-124908628D01*
X162714286Y-124480057D02*
X162761905Y-124432438D01*
X162761905Y-124432438D02*
X162857143Y-124384819D01*
X162857143Y-124384819D02*
X163095238Y-124384819D01*
X163095238Y-124384819D02*
X163190476Y-124432438D01*
X163190476Y-124432438D02*
X163238095Y-124480057D01*
X163238095Y-124480057D02*
X163285714Y-124575295D01*
X163285714Y-124575295D02*
X163285714Y-124670533D01*
X163285714Y-124670533D02*
X163238095Y-124813390D01*
X163238095Y-124813390D02*
X162666667Y-125384819D01*
X162666667Y-125384819D02*
X163285714Y-125384819D01*
X184804819Y-127761904D02*
X183804819Y-127761904D01*
X184281009Y-127761904D02*
X184281009Y-127190476D01*
X184804819Y-127190476D02*
X183804819Y-127190476D01*
X184138152Y-126285714D02*
X184804819Y-126285714D01*
X183757200Y-126523809D02*
X184471485Y-126761904D01*
X184471485Y-126761904D02*
X184471485Y-126142857D01*
X184791819Y-80761904D02*
X183791819Y-80761904D01*
X184268009Y-80761904D02*
X184268009Y-80190476D01*
X184791819Y-80190476D02*
X183791819Y-80190476D01*
X183791819Y-79809523D02*
X183791819Y-79190476D01*
X183791819Y-79190476D02*
X184172771Y-79523809D01*
X184172771Y-79523809D02*
X184172771Y-79380952D01*
X184172771Y-79380952D02*
X184220390Y-79285714D01*
X184220390Y-79285714D02*
X184268009Y-79238095D01*
X184268009Y-79238095D02*
X184363247Y-79190476D01*
X184363247Y-79190476D02*
X184601342Y-79190476D01*
X184601342Y-79190476D02*
X184696580Y-79238095D01*
X184696580Y-79238095D02*
X184744200Y-79285714D01*
X184744200Y-79285714D02*
X184791819Y-79380952D01*
X184791819Y-79380952D02*
X184791819Y-79666666D01*
X184791819Y-79666666D02*
X184744200Y-79761904D01*
X184744200Y-79761904D02*
X184696580Y-79809523D01*
X113166666Y-120954819D02*
X113166666Y-121669104D01*
X113166666Y-121669104D02*
X113119047Y-121811961D01*
X113119047Y-121811961D02*
X113023809Y-121907200D01*
X113023809Y-121907200D02*
X112880952Y-121954819D01*
X112880952Y-121954819D02*
X112785714Y-121954819D01*
X114119047Y-120954819D02*
X113642857Y-120954819D01*
X113642857Y-120954819D02*
X113595238Y-121431009D01*
X113595238Y-121431009D02*
X113642857Y-121383390D01*
X113642857Y-121383390D02*
X113738095Y-121335771D01*
X113738095Y-121335771D02*
X113976190Y-121335771D01*
X113976190Y-121335771D02*
X114071428Y-121383390D01*
X114071428Y-121383390D02*
X114119047Y-121431009D01*
X114119047Y-121431009D02*
X114166666Y-121526247D01*
X114166666Y-121526247D02*
X114166666Y-121764342D01*
X114166666Y-121764342D02*
X114119047Y-121859580D01*
X114119047Y-121859580D02*
X114071428Y-121907200D01*
X114071428Y-121907200D02*
X113976190Y-121954819D01*
X113976190Y-121954819D02*
X113738095Y-121954819D01*
X113738095Y-121954819D02*
X113642857Y-121907200D01*
X113642857Y-121907200D02*
X113595238Y-121859580D01*
X160911666Y-88989819D02*
X160911666Y-89704104D01*
X160911666Y-89704104D02*
X160864047Y-89846961D01*
X160864047Y-89846961D02*
X160768809Y-89942200D01*
X160768809Y-89942200D02*
X160625952Y-89989819D01*
X160625952Y-89989819D02*
X160530714Y-89989819D01*
X161911666Y-89989819D02*
X161340238Y-89989819D01*
X161625952Y-89989819D02*
X161625952Y-88989819D01*
X161625952Y-88989819D02*
X161530714Y-89132676D01*
X161530714Y-89132676D02*
X161435476Y-89227914D01*
X161435476Y-89227914D02*
X161340238Y-89275533D01*
X133601459Y-103609391D02*
X134410982Y-103609391D01*
X134410982Y-103609391D02*
X134506220Y-103561772D01*
X134506220Y-103561772D02*
X134553840Y-103514153D01*
X134553840Y-103514153D02*
X134601459Y-103418915D01*
X134601459Y-103418915D02*
X134601459Y-103228439D01*
X134601459Y-103228439D02*
X134553840Y-103133201D01*
X134553840Y-103133201D02*
X134506220Y-103085582D01*
X134506220Y-103085582D02*
X134410982Y-103037963D01*
X134410982Y-103037963D02*
X133601459Y-103037963D01*
X134601459Y-102037963D02*
X134601459Y-102609391D01*
X134601459Y-102323677D02*
X133601459Y-102323677D01*
X133601459Y-102323677D02*
X133744316Y-102418915D01*
X133744316Y-102418915D02*
X133839554Y-102514153D01*
X133839554Y-102514153D02*
X133887173Y-102609391D01*
D11*
X126196168Y-85079880D02*
X125515215Y-85079880D01*
X125515215Y-85079880D02*
X125881882Y-84698928D01*
X125881882Y-84698928D02*
X125724739Y-84698928D01*
X125724739Y-84698928D02*
X125619977Y-84651309D01*
X125619977Y-84651309D02*
X125567596Y-84603690D01*
X125567596Y-84603690D02*
X125515215Y-84508452D01*
X125515215Y-84508452D02*
X125515215Y-84270357D01*
X125515215Y-84270357D02*
X125567596Y-84175119D01*
X125567596Y-84175119D02*
X125619977Y-84127500D01*
X125619977Y-84127500D02*
X125724739Y-84079880D01*
X125724739Y-84079880D02*
X126039025Y-84079880D01*
X126039025Y-84079880D02*
X126143787Y-84127500D01*
X126143787Y-84127500D02*
X126196168Y-84175119D01*
X125043787Y-84175119D02*
X124991406Y-84127500D01*
X124991406Y-84127500D02*
X125043787Y-84079880D01*
X125043787Y-84079880D02*
X125096168Y-84127500D01*
X125096168Y-84127500D02*
X125043787Y-84175119D01*
X125043787Y-84175119D02*
X125043787Y-84079880D01*
X124624739Y-85079880D02*
X123943786Y-85079880D01*
X123943786Y-85079880D02*
X124310453Y-84698928D01*
X124310453Y-84698928D02*
X124153310Y-84698928D01*
X124153310Y-84698928D02*
X124048548Y-84651309D01*
X124048548Y-84651309D02*
X123996167Y-84603690D01*
X123996167Y-84603690D02*
X123943786Y-84508452D01*
X123943786Y-84508452D02*
X123943786Y-84270357D01*
X123943786Y-84270357D02*
X123996167Y-84175119D01*
X123996167Y-84175119D02*
X124048548Y-84127500D01*
X124048548Y-84127500D02*
X124153310Y-84079880D01*
X124153310Y-84079880D02*
X124467596Y-84079880D01*
X124467596Y-84079880D02*
X124572358Y-84127500D01*
X124572358Y-84127500D02*
X124624739Y-84175119D01*
X123577120Y-84746547D02*
X123315215Y-84079880D01*
X123315215Y-84079880D02*
X123053310Y-84746547D01*
X125515215Y-87532261D02*
X125619977Y-87579880D01*
X125619977Y-87579880D02*
X125777120Y-87579880D01*
X125777120Y-87579880D02*
X125934263Y-87532261D01*
X125934263Y-87532261D02*
X126039025Y-87437023D01*
X126039025Y-87437023D02*
X126091406Y-87341785D01*
X126091406Y-87341785D02*
X126143787Y-87151309D01*
X126143787Y-87151309D02*
X126143787Y-87008452D01*
X126143787Y-87008452D02*
X126091406Y-86817976D01*
X126091406Y-86817976D02*
X126039025Y-86722738D01*
X126039025Y-86722738D02*
X125934263Y-86627500D01*
X125934263Y-86627500D02*
X125777120Y-86579880D01*
X125777120Y-86579880D02*
X125672358Y-86579880D01*
X125672358Y-86579880D02*
X125515215Y-86627500D01*
X125515215Y-86627500D02*
X125462834Y-86675119D01*
X125462834Y-86675119D02*
X125462834Y-87008452D01*
X125462834Y-87008452D02*
X125672358Y-87008452D01*
X124991406Y-86579880D02*
X124991406Y-87579880D01*
X124991406Y-87579880D02*
X124362834Y-86579880D01*
X124362834Y-86579880D02*
X124362834Y-87579880D01*
X123839025Y-86579880D02*
X123839025Y-87579880D01*
X123839025Y-87579880D02*
X123577120Y-87579880D01*
X123577120Y-87579880D02*
X123419977Y-87532261D01*
X123419977Y-87532261D02*
X123315215Y-87437023D01*
X123315215Y-87437023D02*
X123262834Y-87341785D01*
X123262834Y-87341785D02*
X123210453Y-87151309D01*
X123210453Y-87151309D02*
X123210453Y-87008452D01*
X123210453Y-87008452D02*
X123262834Y-86817976D01*
X123262834Y-86817976D02*
X123315215Y-86722738D01*
X123315215Y-86722738D02*
X123419977Y-86627500D01*
X123419977Y-86627500D02*
X123577120Y-86579880D01*
X123577120Y-86579880D02*
X123839025Y-86579880D01*
X127015215Y-92532261D02*
X127119977Y-92579880D01*
X127119977Y-92579880D02*
X127277120Y-92579880D01*
X127277120Y-92579880D02*
X127434263Y-92532261D01*
X127434263Y-92532261D02*
X127539025Y-92437023D01*
X127539025Y-92437023D02*
X127591406Y-92341785D01*
X127591406Y-92341785D02*
X127643787Y-92151309D01*
X127643787Y-92151309D02*
X127643787Y-92008452D01*
X127643787Y-92008452D02*
X127591406Y-91817976D01*
X127591406Y-91817976D02*
X127539025Y-91722738D01*
X127539025Y-91722738D02*
X127434263Y-91627500D01*
X127434263Y-91627500D02*
X127277120Y-91579880D01*
X127277120Y-91579880D02*
X127172358Y-91579880D01*
X127172358Y-91579880D02*
X127015215Y-91627500D01*
X127015215Y-91627500D02*
X126962834Y-91675119D01*
X126962834Y-91675119D02*
X126962834Y-92008452D01*
X126962834Y-92008452D02*
X127172358Y-92008452D01*
X126491406Y-91579880D02*
X126491406Y-92579880D01*
X126491406Y-92579880D02*
X126072358Y-92579880D01*
X126072358Y-92579880D02*
X125967596Y-92532261D01*
X125967596Y-92532261D02*
X125915215Y-92484642D01*
X125915215Y-92484642D02*
X125862834Y-92389404D01*
X125862834Y-92389404D02*
X125862834Y-92246547D01*
X125862834Y-92246547D02*
X125915215Y-92151309D01*
X125915215Y-92151309D02*
X125967596Y-92103690D01*
X125967596Y-92103690D02*
X126072358Y-92056071D01*
X126072358Y-92056071D02*
X126491406Y-92056071D01*
X125391406Y-91579880D02*
X125391406Y-92579880D01*
X124658072Y-92579880D02*
X124448548Y-92579880D01*
X124448548Y-92579880D02*
X124343786Y-92532261D01*
X124343786Y-92532261D02*
X124239024Y-92437023D01*
X124239024Y-92437023D02*
X124186643Y-92246547D01*
X124186643Y-92246547D02*
X124186643Y-91913214D01*
X124186643Y-91913214D02*
X124239024Y-91722738D01*
X124239024Y-91722738D02*
X124343786Y-91627500D01*
X124343786Y-91627500D02*
X124448548Y-91579880D01*
X124448548Y-91579880D02*
X124658072Y-91579880D01*
X124658072Y-91579880D02*
X124762834Y-91627500D01*
X124762834Y-91627500D02*
X124867596Y-91722738D01*
X124867596Y-91722738D02*
X124919977Y-91913214D01*
X124919977Y-91913214D02*
X124919977Y-92246547D01*
X124919977Y-92246547D02*
X124867596Y-92437023D01*
X124867596Y-92437023D02*
X124762834Y-92532261D01*
X124762834Y-92532261D02*
X124658072Y-92579880D01*
X123767596Y-92484642D02*
X123715215Y-92532261D01*
X123715215Y-92532261D02*
X123610453Y-92579880D01*
X123610453Y-92579880D02*
X123348548Y-92579880D01*
X123348548Y-92579880D02*
X123243786Y-92532261D01*
X123243786Y-92532261D02*
X123191405Y-92484642D01*
X123191405Y-92484642D02*
X123139024Y-92389404D01*
X123139024Y-92389404D02*
X123139024Y-92294166D01*
X123139024Y-92294166D02*
X123191405Y-92151309D01*
X123191405Y-92151309D02*
X123819977Y-91579880D01*
X123819977Y-91579880D02*
X123139024Y-91579880D01*
X127015215Y-95032261D02*
X127119977Y-95079880D01*
X127119977Y-95079880D02*
X127277120Y-95079880D01*
X127277120Y-95079880D02*
X127434263Y-95032261D01*
X127434263Y-95032261D02*
X127539025Y-94937023D01*
X127539025Y-94937023D02*
X127591406Y-94841785D01*
X127591406Y-94841785D02*
X127643787Y-94651309D01*
X127643787Y-94651309D02*
X127643787Y-94508452D01*
X127643787Y-94508452D02*
X127591406Y-94317976D01*
X127591406Y-94317976D02*
X127539025Y-94222738D01*
X127539025Y-94222738D02*
X127434263Y-94127500D01*
X127434263Y-94127500D02*
X127277120Y-94079880D01*
X127277120Y-94079880D02*
X127172358Y-94079880D01*
X127172358Y-94079880D02*
X127015215Y-94127500D01*
X127015215Y-94127500D02*
X126962834Y-94175119D01*
X126962834Y-94175119D02*
X126962834Y-94508452D01*
X126962834Y-94508452D02*
X127172358Y-94508452D01*
X126491406Y-94079880D02*
X126491406Y-95079880D01*
X126491406Y-95079880D02*
X126072358Y-95079880D01*
X126072358Y-95079880D02*
X125967596Y-95032261D01*
X125967596Y-95032261D02*
X125915215Y-94984642D01*
X125915215Y-94984642D02*
X125862834Y-94889404D01*
X125862834Y-94889404D02*
X125862834Y-94746547D01*
X125862834Y-94746547D02*
X125915215Y-94651309D01*
X125915215Y-94651309D02*
X125967596Y-94603690D01*
X125967596Y-94603690D02*
X126072358Y-94556071D01*
X126072358Y-94556071D02*
X126491406Y-94556071D01*
X125391406Y-94079880D02*
X125391406Y-95079880D01*
X124658072Y-95079880D02*
X124448548Y-95079880D01*
X124448548Y-95079880D02*
X124343786Y-95032261D01*
X124343786Y-95032261D02*
X124239024Y-94937023D01*
X124239024Y-94937023D02*
X124186643Y-94746547D01*
X124186643Y-94746547D02*
X124186643Y-94413214D01*
X124186643Y-94413214D02*
X124239024Y-94222738D01*
X124239024Y-94222738D02*
X124343786Y-94127500D01*
X124343786Y-94127500D02*
X124448548Y-94079880D01*
X124448548Y-94079880D02*
X124658072Y-94079880D01*
X124658072Y-94079880D02*
X124762834Y-94127500D01*
X124762834Y-94127500D02*
X124867596Y-94222738D01*
X124867596Y-94222738D02*
X124919977Y-94413214D01*
X124919977Y-94413214D02*
X124919977Y-94746547D01*
X124919977Y-94746547D02*
X124867596Y-94937023D01*
X124867596Y-94937023D02*
X124762834Y-95032261D01*
X124762834Y-95032261D02*
X124658072Y-95079880D01*
X123243786Y-94746547D02*
X123243786Y-94079880D01*
X123505691Y-95127500D02*
X123767596Y-94413214D01*
X123767596Y-94413214D02*
X123086643Y-94413214D01*
X127015215Y-102532261D02*
X127119977Y-102579880D01*
X127119977Y-102579880D02*
X127277120Y-102579880D01*
X127277120Y-102579880D02*
X127434263Y-102532261D01*
X127434263Y-102532261D02*
X127539025Y-102437023D01*
X127539025Y-102437023D02*
X127591406Y-102341785D01*
X127591406Y-102341785D02*
X127643787Y-102151309D01*
X127643787Y-102151309D02*
X127643787Y-102008452D01*
X127643787Y-102008452D02*
X127591406Y-101817976D01*
X127591406Y-101817976D02*
X127539025Y-101722738D01*
X127539025Y-101722738D02*
X127434263Y-101627500D01*
X127434263Y-101627500D02*
X127277120Y-101579880D01*
X127277120Y-101579880D02*
X127172358Y-101579880D01*
X127172358Y-101579880D02*
X127015215Y-101627500D01*
X127015215Y-101627500D02*
X126962834Y-101675119D01*
X126962834Y-101675119D02*
X126962834Y-102008452D01*
X126962834Y-102008452D02*
X127172358Y-102008452D01*
X126491406Y-101579880D02*
X126491406Y-102579880D01*
X126491406Y-102579880D02*
X126072358Y-102579880D01*
X126072358Y-102579880D02*
X125967596Y-102532261D01*
X125967596Y-102532261D02*
X125915215Y-102484642D01*
X125915215Y-102484642D02*
X125862834Y-102389404D01*
X125862834Y-102389404D02*
X125862834Y-102246547D01*
X125862834Y-102246547D02*
X125915215Y-102151309D01*
X125915215Y-102151309D02*
X125967596Y-102103690D01*
X125967596Y-102103690D02*
X126072358Y-102056071D01*
X126072358Y-102056071D02*
X126491406Y-102056071D01*
X125391406Y-101579880D02*
X125391406Y-102579880D01*
X124658072Y-102579880D02*
X124448548Y-102579880D01*
X124448548Y-102579880D02*
X124343786Y-102532261D01*
X124343786Y-102532261D02*
X124239024Y-102437023D01*
X124239024Y-102437023D02*
X124186643Y-102246547D01*
X124186643Y-102246547D02*
X124186643Y-101913214D01*
X124186643Y-101913214D02*
X124239024Y-101722738D01*
X124239024Y-101722738D02*
X124343786Y-101627500D01*
X124343786Y-101627500D02*
X124448548Y-101579880D01*
X124448548Y-101579880D02*
X124658072Y-101579880D01*
X124658072Y-101579880D02*
X124762834Y-101627500D01*
X124762834Y-101627500D02*
X124867596Y-101722738D01*
X124867596Y-101722738D02*
X124919977Y-101913214D01*
X124919977Y-101913214D02*
X124919977Y-102246547D01*
X124919977Y-102246547D02*
X124867596Y-102437023D01*
X124867596Y-102437023D02*
X124762834Y-102532261D01*
X124762834Y-102532261D02*
X124658072Y-102579880D01*
X123191405Y-102579880D02*
X123715215Y-102579880D01*
X123715215Y-102579880D02*
X123767596Y-102103690D01*
X123767596Y-102103690D02*
X123715215Y-102151309D01*
X123715215Y-102151309D02*
X123610453Y-102198928D01*
X123610453Y-102198928D02*
X123348548Y-102198928D01*
X123348548Y-102198928D02*
X123243786Y-102151309D01*
X123243786Y-102151309D02*
X123191405Y-102103690D01*
X123191405Y-102103690D02*
X123139024Y-102008452D01*
X123139024Y-102008452D02*
X123139024Y-101770357D01*
X123139024Y-101770357D02*
X123191405Y-101675119D01*
X123191405Y-101675119D02*
X123243786Y-101627500D01*
X123243786Y-101627500D02*
X123348548Y-101579880D01*
X123348548Y-101579880D02*
X123610453Y-101579880D01*
X123610453Y-101579880D02*
X123715215Y-101627500D01*
X123715215Y-101627500D02*
X123767596Y-101675119D01*
X127015215Y-112532261D02*
X127119977Y-112579880D01*
X127119977Y-112579880D02*
X127277120Y-112579880D01*
X127277120Y-112579880D02*
X127434263Y-112532261D01*
X127434263Y-112532261D02*
X127539025Y-112437023D01*
X127539025Y-112437023D02*
X127591406Y-112341785D01*
X127591406Y-112341785D02*
X127643787Y-112151309D01*
X127643787Y-112151309D02*
X127643787Y-112008452D01*
X127643787Y-112008452D02*
X127591406Y-111817976D01*
X127591406Y-111817976D02*
X127539025Y-111722738D01*
X127539025Y-111722738D02*
X127434263Y-111627500D01*
X127434263Y-111627500D02*
X127277120Y-111579880D01*
X127277120Y-111579880D02*
X127172358Y-111579880D01*
X127172358Y-111579880D02*
X127015215Y-111627500D01*
X127015215Y-111627500D02*
X126962834Y-111675119D01*
X126962834Y-111675119D02*
X126962834Y-112008452D01*
X126962834Y-112008452D02*
X127172358Y-112008452D01*
X126491406Y-111579880D02*
X126491406Y-112579880D01*
X126491406Y-112579880D02*
X126072358Y-112579880D01*
X126072358Y-112579880D02*
X125967596Y-112532261D01*
X125967596Y-112532261D02*
X125915215Y-112484642D01*
X125915215Y-112484642D02*
X125862834Y-112389404D01*
X125862834Y-112389404D02*
X125862834Y-112246547D01*
X125862834Y-112246547D02*
X125915215Y-112151309D01*
X125915215Y-112151309D02*
X125967596Y-112103690D01*
X125967596Y-112103690D02*
X126072358Y-112056071D01*
X126072358Y-112056071D02*
X126491406Y-112056071D01*
X125391406Y-111579880D02*
X125391406Y-112579880D01*
X124658072Y-112579880D02*
X124448548Y-112579880D01*
X124448548Y-112579880D02*
X124343786Y-112532261D01*
X124343786Y-112532261D02*
X124239024Y-112437023D01*
X124239024Y-112437023D02*
X124186643Y-112246547D01*
X124186643Y-112246547D02*
X124186643Y-111913214D01*
X124186643Y-111913214D02*
X124239024Y-111722738D01*
X124239024Y-111722738D02*
X124343786Y-111627500D01*
X124343786Y-111627500D02*
X124448548Y-111579880D01*
X124448548Y-111579880D02*
X124658072Y-111579880D01*
X124658072Y-111579880D02*
X124762834Y-111627500D01*
X124762834Y-111627500D02*
X124867596Y-111722738D01*
X124867596Y-111722738D02*
X124919977Y-111913214D01*
X124919977Y-111913214D02*
X124919977Y-112246547D01*
X124919977Y-112246547D02*
X124867596Y-112437023D01*
X124867596Y-112437023D02*
X124762834Y-112532261D01*
X124762834Y-112532261D02*
X124658072Y-112579880D01*
X123819977Y-112579880D02*
X123139024Y-112579880D01*
X123139024Y-112579880D02*
X123505691Y-112198928D01*
X123505691Y-112198928D02*
X123348548Y-112198928D01*
X123348548Y-112198928D02*
X123243786Y-112151309D01*
X123243786Y-112151309D02*
X123191405Y-112103690D01*
X123191405Y-112103690D02*
X123139024Y-112008452D01*
X123139024Y-112008452D02*
X123139024Y-111770357D01*
X123139024Y-111770357D02*
X123191405Y-111675119D01*
X123191405Y-111675119D02*
X123243786Y-111627500D01*
X123243786Y-111627500D02*
X123348548Y-111579880D01*
X123348548Y-111579880D02*
X123662834Y-111579880D01*
X123662834Y-111579880D02*
X123767596Y-111627500D01*
X123767596Y-111627500D02*
X123819977Y-111675119D01*
X127015215Y-115532261D02*
X127119977Y-115579880D01*
X127119977Y-115579880D02*
X127277120Y-115579880D01*
X127277120Y-115579880D02*
X127434263Y-115532261D01*
X127434263Y-115532261D02*
X127539025Y-115437023D01*
X127539025Y-115437023D02*
X127591406Y-115341785D01*
X127591406Y-115341785D02*
X127643787Y-115151309D01*
X127643787Y-115151309D02*
X127643787Y-115008452D01*
X127643787Y-115008452D02*
X127591406Y-114817976D01*
X127591406Y-114817976D02*
X127539025Y-114722738D01*
X127539025Y-114722738D02*
X127434263Y-114627500D01*
X127434263Y-114627500D02*
X127277120Y-114579880D01*
X127277120Y-114579880D02*
X127172358Y-114579880D01*
X127172358Y-114579880D02*
X127015215Y-114627500D01*
X127015215Y-114627500D02*
X126962834Y-114675119D01*
X126962834Y-114675119D02*
X126962834Y-115008452D01*
X126962834Y-115008452D02*
X127172358Y-115008452D01*
X126491406Y-114579880D02*
X126491406Y-115579880D01*
X126491406Y-115579880D02*
X126072358Y-115579880D01*
X126072358Y-115579880D02*
X125967596Y-115532261D01*
X125967596Y-115532261D02*
X125915215Y-115484642D01*
X125915215Y-115484642D02*
X125862834Y-115389404D01*
X125862834Y-115389404D02*
X125862834Y-115246547D01*
X125862834Y-115246547D02*
X125915215Y-115151309D01*
X125915215Y-115151309D02*
X125967596Y-115103690D01*
X125967596Y-115103690D02*
X126072358Y-115056071D01*
X126072358Y-115056071D02*
X126491406Y-115056071D01*
X125391406Y-114579880D02*
X125391406Y-115579880D01*
X124658072Y-115579880D02*
X124448548Y-115579880D01*
X124448548Y-115579880D02*
X124343786Y-115532261D01*
X124343786Y-115532261D02*
X124239024Y-115437023D01*
X124239024Y-115437023D02*
X124186643Y-115246547D01*
X124186643Y-115246547D02*
X124186643Y-114913214D01*
X124186643Y-114913214D02*
X124239024Y-114722738D01*
X124239024Y-114722738D02*
X124343786Y-114627500D01*
X124343786Y-114627500D02*
X124448548Y-114579880D01*
X124448548Y-114579880D02*
X124658072Y-114579880D01*
X124658072Y-114579880D02*
X124762834Y-114627500D01*
X124762834Y-114627500D02*
X124867596Y-114722738D01*
X124867596Y-114722738D02*
X124919977Y-114913214D01*
X124919977Y-114913214D02*
X124919977Y-115246547D01*
X124919977Y-115246547D02*
X124867596Y-115437023D01*
X124867596Y-115437023D02*
X124762834Y-115532261D01*
X124762834Y-115532261D02*
X124658072Y-115579880D01*
X123139024Y-114579880D02*
X123767596Y-114579880D01*
X123453310Y-114579880D02*
X123453310Y-115579880D01*
X123453310Y-115579880D02*
X123558072Y-115437023D01*
X123558072Y-115437023D02*
X123662834Y-115341785D01*
X123662834Y-115341785D02*
X123767596Y-115294166D01*
X128015215Y-90032261D02*
X128119977Y-90079880D01*
X128119977Y-90079880D02*
X128277120Y-90079880D01*
X128277120Y-90079880D02*
X128434263Y-90032261D01*
X128434263Y-90032261D02*
X128539025Y-89937023D01*
X128539025Y-89937023D02*
X128591406Y-89841785D01*
X128591406Y-89841785D02*
X128643787Y-89651309D01*
X128643787Y-89651309D02*
X128643787Y-89508452D01*
X128643787Y-89508452D02*
X128591406Y-89317976D01*
X128591406Y-89317976D02*
X128539025Y-89222738D01*
X128539025Y-89222738D02*
X128434263Y-89127500D01*
X128434263Y-89127500D02*
X128277120Y-89079880D01*
X128277120Y-89079880D02*
X128172358Y-89079880D01*
X128172358Y-89079880D02*
X128015215Y-89127500D01*
X128015215Y-89127500D02*
X127962834Y-89175119D01*
X127962834Y-89175119D02*
X127962834Y-89508452D01*
X127962834Y-89508452D02*
X128172358Y-89508452D01*
X127491406Y-89079880D02*
X127491406Y-90079880D01*
X127491406Y-90079880D02*
X127072358Y-90079880D01*
X127072358Y-90079880D02*
X126967596Y-90032261D01*
X126967596Y-90032261D02*
X126915215Y-89984642D01*
X126915215Y-89984642D02*
X126862834Y-89889404D01*
X126862834Y-89889404D02*
X126862834Y-89746547D01*
X126862834Y-89746547D02*
X126915215Y-89651309D01*
X126915215Y-89651309D02*
X126967596Y-89603690D01*
X126967596Y-89603690D02*
X127072358Y-89556071D01*
X127072358Y-89556071D02*
X127491406Y-89556071D01*
X126391406Y-89079880D02*
X126391406Y-90079880D01*
X125658072Y-90079880D02*
X125448548Y-90079880D01*
X125448548Y-90079880D02*
X125343786Y-90032261D01*
X125343786Y-90032261D02*
X125239024Y-89937023D01*
X125239024Y-89937023D02*
X125186643Y-89746547D01*
X125186643Y-89746547D02*
X125186643Y-89413214D01*
X125186643Y-89413214D02*
X125239024Y-89222738D01*
X125239024Y-89222738D02*
X125343786Y-89127500D01*
X125343786Y-89127500D02*
X125448548Y-89079880D01*
X125448548Y-89079880D02*
X125658072Y-89079880D01*
X125658072Y-89079880D02*
X125762834Y-89127500D01*
X125762834Y-89127500D02*
X125867596Y-89222738D01*
X125867596Y-89222738D02*
X125919977Y-89413214D01*
X125919977Y-89413214D02*
X125919977Y-89746547D01*
X125919977Y-89746547D02*
X125867596Y-89937023D01*
X125867596Y-89937023D02*
X125762834Y-90032261D01*
X125762834Y-90032261D02*
X125658072Y-90079880D01*
X124139024Y-89079880D02*
X124767596Y-89079880D01*
X124453310Y-89079880D02*
X124453310Y-90079880D01*
X124453310Y-90079880D02*
X124558072Y-89937023D01*
X124558072Y-89937023D02*
X124662834Y-89841785D01*
X124662834Y-89841785D02*
X124767596Y-89794166D01*
X123143786Y-90079880D02*
X123667596Y-90079880D01*
X123667596Y-90079880D02*
X123719977Y-89603690D01*
X123719977Y-89603690D02*
X123667596Y-89651309D01*
X123667596Y-89651309D02*
X123562834Y-89698928D01*
X123562834Y-89698928D02*
X123300929Y-89698928D01*
X123300929Y-89698928D02*
X123196167Y-89651309D01*
X123196167Y-89651309D02*
X123143786Y-89603690D01*
X123143786Y-89603690D02*
X123091405Y-89508452D01*
X123091405Y-89508452D02*
X123091405Y-89270357D01*
X123091405Y-89270357D02*
X123143786Y-89175119D01*
X123143786Y-89175119D02*
X123196167Y-89127500D01*
X123196167Y-89127500D02*
X123300929Y-89079880D01*
X123300929Y-89079880D02*
X123562834Y-89079880D01*
X123562834Y-89079880D02*
X123667596Y-89127500D01*
X123667596Y-89127500D02*
X123719977Y-89175119D01*
X128015215Y-97532261D02*
X128119977Y-97579880D01*
X128119977Y-97579880D02*
X128277120Y-97579880D01*
X128277120Y-97579880D02*
X128434263Y-97532261D01*
X128434263Y-97532261D02*
X128539025Y-97437023D01*
X128539025Y-97437023D02*
X128591406Y-97341785D01*
X128591406Y-97341785D02*
X128643787Y-97151309D01*
X128643787Y-97151309D02*
X128643787Y-97008452D01*
X128643787Y-97008452D02*
X128591406Y-96817976D01*
X128591406Y-96817976D02*
X128539025Y-96722738D01*
X128539025Y-96722738D02*
X128434263Y-96627500D01*
X128434263Y-96627500D02*
X128277120Y-96579880D01*
X128277120Y-96579880D02*
X128172358Y-96579880D01*
X128172358Y-96579880D02*
X128015215Y-96627500D01*
X128015215Y-96627500D02*
X127962834Y-96675119D01*
X127962834Y-96675119D02*
X127962834Y-97008452D01*
X127962834Y-97008452D02*
X128172358Y-97008452D01*
X127491406Y-96579880D02*
X127491406Y-97579880D01*
X127491406Y-97579880D02*
X127072358Y-97579880D01*
X127072358Y-97579880D02*
X126967596Y-97532261D01*
X126967596Y-97532261D02*
X126915215Y-97484642D01*
X126915215Y-97484642D02*
X126862834Y-97389404D01*
X126862834Y-97389404D02*
X126862834Y-97246547D01*
X126862834Y-97246547D02*
X126915215Y-97151309D01*
X126915215Y-97151309D02*
X126967596Y-97103690D01*
X126967596Y-97103690D02*
X127072358Y-97056071D01*
X127072358Y-97056071D02*
X127491406Y-97056071D01*
X126391406Y-96579880D02*
X126391406Y-97579880D01*
X125658072Y-97579880D02*
X125448548Y-97579880D01*
X125448548Y-97579880D02*
X125343786Y-97532261D01*
X125343786Y-97532261D02*
X125239024Y-97437023D01*
X125239024Y-97437023D02*
X125186643Y-97246547D01*
X125186643Y-97246547D02*
X125186643Y-96913214D01*
X125186643Y-96913214D02*
X125239024Y-96722738D01*
X125239024Y-96722738D02*
X125343786Y-96627500D01*
X125343786Y-96627500D02*
X125448548Y-96579880D01*
X125448548Y-96579880D02*
X125658072Y-96579880D01*
X125658072Y-96579880D02*
X125762834Y-96627500D01*
X125762834Y-96627500D02*
X125867596Y-96722738D01*
X125867596Y-96722738D02*
X125919977Y-96913214D01*
X125919977Y-96913214D02*
X125919977Y-97246547D01*
X125919977Y-97246547D02*
X125867596Y-97437023D01*
X125867596Y-97437023D02*
X125762834Y-97532261D01*
X125762834Y-97532261D02*
X125658072Y-97579880D01*
X124139024Y-96579880D02*
X124767596Y-96579880D01*
X124453310Y-96579880D02*
X124453310Y-97579880D01*
X124453310Y-97579880D02*
X124558072Y-97437023D01*
X124558072Y-97437023D02*
X124662834Y-97341785D01*
X124662834Y-97341785D02*
X124767596Y-97294166D01*
X123196167Y-97579880D02*
X123405691Y-97579880D01*
X123405691Y-97579880D02*
X123510453Y-97532261D01*
X123510453Y-97532261D02*
X123562834Y-97484642D01*
X123562834Y-97484642D02*
X123667596Y-97341785D01*
X123667596Y-97341785D02*
X123719977Y-97151309D01*
X123719977Y-97151309D02*
X123719977Y-96770357D01*
X123719977Y-96770357D02*
X123667596Y-96675119D01*
X123667596Y-96675119D02*
X123615215Y-96627500D01*
X123615215Y-96627500D02*
X123510453Y-96579880D01*
X123510453Y-96579880D02*
X123300929Y-96579880D01*
X123300929Y-96579880D02*
X123196167Y-96627500D01*
X123196167Y-96627500D02*
X123143786Y-96675119D01*
X123143786Y-96675119D02*
X123091405Y-96770357D01*
X123091405Y-96770357D02*
X123091405Y-97008452D01*
X123091405Y-97008452D02*
X123143786Y-97103690D01*
X123143786Y-97103690D02*
X123196167Y-97151309D01*
X123196167Y-97151309D02*
X123300929Y-97198928D01*
X123300929Y-97198928D02*
X123510453Y-97198928D01*
X123510453Y-97198928D02*
X123615215Y-97151309D01*
X123615215Y-97151309D02*
X123667596Y-97103690D01*
X123667596Y-97103690D02*
X123719977Y-97008452D01*
X128015215Y-100032261D02*
X128119977Y-100079880D01*
X128119977Y-100079880D02*
X128277120Y-100079880D01*
X128277120Y-100079880D02*
X128434263Y-100032261D01*
X128434263Y-100032261D02*
X128539025Y-99937023D01*
X128539025Y-99937023D02*
X128591406Y-99841785D01*
X128591406Y-99841785D02*
X128643787Y-99651309D01*
X128643787Y-99651309D02*
X128643787Y-99508452D01*
X128643787Y-99508452D02*
X128591406Y-99317976D01*
X128591406Y-99317976D02*
X128539025Y-99222738D01*
X128539025Y-99222738D02*
X128434263Y-99127500D01*
X128434263Y-99127500D02*
X128277120Y-99079880D01*
X128277120Y-99079880D02*
X128172358Y-99079880D01*
X128172358Y-99079880D02*
X128015215Y-99127500D01*
X128015215Y-99127500D02*
X127962834Y-99175119D01*
X127962834Y-99175119D02*
X127962834Y-99508452D01*
X127962834Y-99508452D02*
X128172358Y-99508452D01*
X127491406Y-99079880D02*
X127491406Y-100079880D01*
X127491406Y-100079880D02*
X127072358Y-100079880D01*
X127072358Y-100079880D02*
X126967596Y-100032261D01*
X126967596Y-100032261D02*
X126915215Y-99984642D01*
X126915215Y-99984642D02*
X126862834Y-99889404D01*
X126862834Y-99889404D02*
X126862834Y-99746547D01*
X126862834Y-99746547D02*
X126915215Y-99651309D01*
X126915215Y-99651309D02*
X126967596Y-99603690D01*
X126967596Y-99603690D02*
X127072358Y-99556071D01*
X127072358Y-99556071D02*
X127491406Y-99556071D01*
X126391406Y-99079880D02*
X126391406Y-100079880D01*
X125658072Y-100079880D02*
X125448548Y-100079880D01*
X125448548Y-100079880D02*
X125343786Y-100032261D01*
X125343786Y-100032261D02*
X125239024Y-99937023D01*
X125239024Y-99937023D02*
X125186643Y-99746547D01*
X125186643Y-99746547D02*
X125186643Y-99413214D01*
X125186643Y-99413214D02*
X125239024Y-99222738D01*
X125239024Y-99222738D02*
X125343786Y-99127500D01*
X125343786Y-99127500D02*
X125448548Y-99079880D01*
X125448548Y-99079880D02*
X125658072Y-99079880D01*
X125658072Y-99079880D02*
X125762834Y-99127500D01*
X125762834Y-99127500D02*
X125867596Y-99222738D01*
X125867596Y-99222738D02*
X125919977Y-99413214D01*
X125919977Y-99413214D02*
X125919977Y-99746547D01*
X125919977Y-99746547D02*
X125867596Y-99937023D01*
X125867596Y-99937023D02*
X125762834Y-100032261D01*
X125762834Y-100032261D02*
X125658072Y-100079880D01*
X124139024Y-99079880D02*
X124767596Y-99079880D01*
X124453310Y-99079880D02*
X124453310Y-100079880D01*
X124453310Y-100079880D02*
X124558072Y-99937023D01*
X124558072Y-99937023D02*
X124662834Y-99841785D01*
X124662834Y-99841785D02*
X124767596Y-99794166D01*
X123772358Y-100079880D02*
X123039024Y-100079880D01*
X123039024Y-100079880D02*
X123510453Y-99079880D01*
X128015215Y-105032261D02*
X128119977Y-105079880D01*
X128119977Y-105079880D02*
X128277120Y-105079880D01*
X128277120Y-105079880D02*
X128434263Y-105032261D01*
X128434263Y-105032261D02*
X128539025Y-104937023D01*
X128539025Y-104937023D02*
X128591406Y-104841785D01*
X128591406Y-104841785D02*
X128643787Y-104651309D01*
X128643787Y-104651309D02*
X128643787Y-104508452D01*
X128643787Y-104508452D02*
X128591406Y-104317976D01*
X128591406Y-104317976D02*
X128539025Y-104222738D01*
X128539025Y-104222738D02*
X128434263Y-104127500D01*
X128434263Y-104127500D02*
X128277120Y-104079880D01*
X128277120Y-104079880D02*
X128172358Y-104079880D01*
X128172358Y-104079880D02*
X128015215Y-104127500D01*
X128015215Y-104127500D02*
X127962834Y-104175119D01*
X127962834Y-104175119D02*
X127962834Y-104508452D01*
X127962834Y-104508452D02*
X128172358Y-104508452D01*
X127491406Y-104079880D02*
X127491406Y-105079880D01*
X127491406Y-105079880D02*
X127072358Y-105079880D01*
X127072358Y-105079880D02*
X126967596Y-105032261D01*
X126967596Y-105032261D02*
X126915215Y-104984642D01*
X126915215Y-104984642D02*
X126862834Y-104889404D01*
X126862834Y-104889404D02*
X126862834Y-104746547D01*
X126862834Y-104746547D02*
X126915215Y-104651309D01*
X126915215Y-104651309D02*
X126967596Y-104603690D01*
X126967596Y-104603690D02*
X127072358Y-104556071D01*
X127072358Y-104556071D02*
X127491406Y-104556071D01*
X126391406Y-104079880D02*
X126391406Y-105079880D01*
X125658072Y-105079880D02*
X125448548Y-105079880D01*
X125448548Y-105079880D02*
X125343786Y-105032261D01*
X125343786Y-105032261D02*
X125239024Y-104937023D01*
X125239024Y-104937023D02*
X125186643Y-104746547D01*
X125186643Y-104746547D02*
X125186643Y-104413214D01*
X125186643Y-104413214D02*
X125239024Y-104222738D01*
X125239024Y-104222738D02*
X125343786Y-104127500D01*
X125343786Y-104127500D02*
X125448548Y-104079880D01*
X125448548Y-104079880D02*
X125658072Y-104079880D01*
X125658072Y-104079880D02*
X125762834Y-104127500D01*
X125762834Y-104127500D02*
X125867596Y-104222738D01*
X125867596Y-104222738D02*
X125919977Y-104413214D01*
X125919977Y-104413214D02*
X125919977Y-104746547D01*
X125919977Y-104746547D02*
X125867596Y-104937023D01*
X125867596Y-104937023D02*
X125762834Y-105032261D01*
X125762834Y-105032261D02*
X125658072Y-105079880D01*
X124139024Y-104079880D02*
X124767596Y-104079880D01*
X124453310Y-104079880D02*
X124453310Y-105079880D01*
X124453310Y-105079880D02*
X124558072Y-104937023D01*
X124558072Y-104937023D02*
X124662834Y-104841785D01*
X124662834Y-104841785D02*
X124767596Y-104794166D01*
X123510453Y-104651309D02*
X123615215Y-104698928D01*
X123615215Y-104698928D02*
X123667596Y-104746547D01*
X123667596Y-104746547D02*
X123719977Y-104841785D01*
X123719977Y-104841785D02*
X123719977Y-104889404D01*
X123719977Y-104889404D02*
X123667596Y-104984642D01*
X123667596Y-104984642D02*
X123615215Y-105032261D01*
X123615215Y-105032261D02*
X123510453Y-105079880D01*
X123510453Y-105079880D02*
X123300929Y-105079880D01*
X123300929Y-105079880D02*
X123196167Y-105032261D01*
X123196167Y-105032261D02*
X123143786Y-104984642D01*
X123143786Y-104984642D02*
X123091405Y-104889404D01*
X123091405Y-104889404D02*
X123091405Y-104841785D01*
X123091405Y-104841785D02*
X123143786Y-104746547D01*
X123143786Y-104746547D02*
X123196167Y-104698928D01*
X123196167Y-104698928D02*
X123300929Y-104651309D01*
X123300929Y-104651309D02*
X123510453Y-104651309D01*
X123510453Y-104651309D02*
X123615215Y-104603690D01*
X123615215Y-104603690D02*
X123667596Y-104556071D01*
X123667596Y-104556071D02*
X123719977Y-104460833D01*
X123719977Y-104460833D02*
X123719977Y-104270357D01*
X123719977Y-104270357D02*
X123667596Y-104175119D01*
X123667596Y-104175119D02*
X123615215Y-104127500D01*
X123615215Y-104127500D02*
X123510453Y-104079880D01*
X123510453Y-104079880D02*
X123300929Y-104079880D01*
X123300929Y-104079880D02*
X123196167Y-104127500D01*
X123196167Y-104127500D02*
X123143786Y-104175119D01*
X123143786Y-104175119D02*
X123091405Y-104270357D01*
X123091405Y-104270357D02*
X123091405Y-104460833D01*
X123091405Y-104460833D02*
X123143786Y-104556071D01*
X123143786Y-104556071D02*
X123196167Y-104603690D01*
X123196167Y-104603690D02*
X123300929Y-104651309D01*
X128015215Y-107532261D02*
X128119977Y-107579880D01*
X128119977Y-107579880D02*
X128277120Y-107579880D01*
X128277120Y-107579880D02*
X128434263Y-107532261D01*
X128434263Y-107532261D02*
X128539025Y-107437023D01*
X128539025Y-107437023D02*
X128591406Y-107341785D01*
X128591406Y-107341785D02*
X128643787Y-107151309D01*
X128643787Y-107151309D02*
X128643787Y-107008452D01*
X128643787Y-107008452D02*
X128591406Y-106817976D01*
X128591406Y-106817976D02*
X128539025Y-106722738D01*
X128539025Y-106722738D02*
X128434263Y-106627500D01*
X128434263Y-106627500D02*
X128277120Y-106579880D01*
X128277120Y-106579880D02*
X128172358Y-106579880D01*
X128172358Y-106579880D02*
X128015215Y-106627500D01*
X128015215Y-106627500D02*
X127962834Y-106675119D01*
X127962834Y-106675119D02*
X127962834Y-107008452D01*
X127962834Y-107008452D02*
X128172358Y-107008452D01*
X127491406Y-106579880D02*
X127491406Y-107579880D01*
X127491406Y-107579880D02*
X127072358Y-107579880D01*
X127072358Y-107579880D02*
X126967596Y-107532261D01*
X126967596Y-107532261D02*
X126915215Y-107484642D01*
X126915215Y-107484642D02*
X126862834Y-107389404D01*
X126862834Y-107389404D02*
X126862834Y-107246547D01*
X126862834Y-107246547D02*
X126915215Y-107151309D01*
X126915215Y-107151309D02*
X126967596Y-107103690D01*
X126967596Y-107103690D02*
X127072358Y-107056071D01*
X127072358Y-107056071D02*
X127491406Y-107056071D01*
X126391406Y-106579880D02*
X126391406Y-107579880D01*
X125658072Y-107579880D02*
X125448548Y-107579880D01*
X125448548Y-107579880D02*
X125343786Y-107532261D01*
X125343786Y-107532261D02*
X125239024Y-107437023D01*
X125239024Y-107437023D02*
X125186643Y-107246547D01*
X125186643Y-107246547D02*
X125186643Y-106913214D01*
X125186643Y-106913214D02*
X125239024Y-106722738D01*
X125239024Y-106722738D02*
X125343786Y-106627500D01*
X125343786Y-106627500D02*
X125448548Y-106579880D01*
X125448548Y-106579880D02*
X125658072Y-106579880D01*
X125658072Y-106579880D02*
X125762834Y-106627500D01*
X125762834Y-106627500D02*
X125867596Y-106722738D01*
X125867596Y-106722738D02*
X125919977Y-106913214D01*
X125919977Y-106913214D02*
X125919977Y-107246547D01*
X125919977Y-107246547D02*
X125867596Y-107437023D01*
X125867596Y-107437023D02*
X125762834Y-107532261D01*
X125762834Y-107532261D02*
X125658072Y-107579880D01*
X124139024Y-106579880D02*
X124767596Y-106579880D01*
X124453310Y-106579880D02*
X124453310Y-107579880D01*
X124453310Y-107579880D02*
X124558072Y-107437023D01*
X124558072Y-107437023D02*
X124662834Y-107341785D01*
X124662834Y-107341785D02*
X124767596Y-107294166D01*
X123615215Y-106579880D02*
X123405691Y-106579880D01*
X123405691Y-106579880D02*
X123300929Y-106627500D01*
X123300929Y-106627500D02*
X123248548Y-106675119D01*
X123248548Y-106675119D02*
X123143786Y-106817976D01*
X123143786Y-106817976D02*
X123091405Y-107008452D01*
X123091405Y-107008452D02*
X123091405Y-107389404D01*
X123091405Y-107389404D02*
X123143786Y-107484642D01*
X123143786Y-107484642D02*
X123196167Y-107532261D01*
X123196167Y-107532261D02*
X123300929Y-107579880D01*
X123300929Y-107579880D02*
X123510453Y-107579880D01*
X123510453Y-107579880D02*
X123615215Y-107532261D01*
X123615215Y-107532261D02*
X123667596Y-107484642D01*
X123667596Y-107484642D02*
X123719977Y-107389404D01*
X123719977Y-107389404D02*
X123719977Y-107151309D01*
X123719977Y-107151309D02*
X123667596Y-107056071D01*
X123667596Y-107056071D02*
X123615215Y-107008452D01*
X123615215Y-107008452D02*
X123510453Y-106960833D01*
X123510453Y-106960833D02*
X123300929Y-106960833D01*
X123300929Y-106960833D02*
X123196167Y-107008452D01*
X123196167Y-107008452D02*
X123143786Y-107056071D01*
X123143786Y-107056071D02*
X123091405Y-107151309D01*
X128015215Y-110032261D02*
X128119977Y-110079880D01*
X128119977Y-110079880D02*
X128277120Y-110079880D01*
X128277120Y-110079880D02*
X128434263Y-110032261D01*
X128434263Y-110032261D02*
X128539025Y-109937023D01*
X128539025Y-109937023D02*
X128591406Y-109841785D01*
X128591406Y-109841785D02*
X128643787Y-109651309D01*
X128643787Y-109651309D02*
X128643787Y-109508452D01*
X128643787Y-109508452D02*
X128591406Y-109317976D01*
X128591406Y-109317976D02*
X128539025Y-109222738D01*
X128539025Y-109222738D02*
X128434263Y-109127500D01*
X128434263Y-109127500D02*
X128277120Y-109079880D01*
X128277120Y-109079880D02*
X128172358Y-109079880D01*
X128172358Y-109079880D02*
X128015215Y-109127500D01*
X128015215Y-109127500D02*
X127962834Y-109175119D01*
X127962834Y-109175119D02*
X127962834Y-109508452D01*
X127962834Y-109508452D02*
X128172358Y-109508452D01*
X127491406Y-109079880D02*
X127491406Y-110079880D01*
X127491406Y-110079880D02*
X127072358Y-110079880D01*
X127072358Y-110079880D02*
X126967596Y-110032261D01*
X126967596Y-110032261D02*
X126915215Y-109984642D01*
X126915215Y-109984642D02*
X126862834Y-109889404D01*
X126862834Y-109889404D02*
X126862834Y-109746547D01*
X126862834Y-109746547D02*
X126915215Y-109651309D01*
X126915215Y-109651309D02*
X126967596Y-109603690D01*
X126967596Y-109603690D02*
X127072358Y-109556071D01*
X127072358Y-109556071D02*
X127491406Y-109556071D01*
X126391406Y-109079880D02*
X126391406Y-110079880D01*
X125658072Y-110079880D02*
X125448548Y-110079880D01*
X125448548Y-110079880D02*
X125343786Y-110032261D01*
X125343786Y-110032261D02*
X125239024Y-109937023D01*
X125239024Y-109937023D02*
X125186643Y-109746547D01*
X125186643Y-109746547D02*
X125186643Y-109413214D01*
X125186643Y-109413214D02*
X125239024Y-109222738D01*
X125239024Y-109222738D02*
X125343786Y-109127500D01*
X125343786Y-109127500D02*
X125448548Y-109079880D01*
X125448548Y-109079880D02*
X125658072Y-109079880D01*
X125658072Y-109079880D02*
X125762834Y-109127500D01*
X125762834Y-109127500D02*
X125867596Y-109222738D01*
X125867596Y-109222738D02*
X125919977Y-109413214D01*
X125919977Y-109413214D02*
X125919977Y-109746547D01*
X125919977Y-109746547D02*
X125867596Y-109937023D01*
X125867596Y-109937023D02*
X125762834Y-110032261D01*
X125762834Y-110032261D02*
X125658072Y-110079880D01*
X124767596Y-109984642D02*
X124715215Y-110032261D01*
X124715215Y-110032261D02*
X124610453Y-110079880D01*
X124610453Y-110079880D02*
X124348548Y-110079880D01*
X124348548Y-110079880D02*
X124243786Y-110032261D01*
X124243786Y-110032261D02*
X124191405Y-109984642D01*
X124191405Y-109984642D02*
X124139024Y-109889404D01*
X124139024Y-109889404D02*
X124139024Y-109794166D01*
X124139024Y-109794166D02*
X124191405Y-109651309D01*
X124191405Y-109651309D02*
X124819977Y-109079880D01*
X124819977Y-109079880D02*
X124139024Y-109079880D01*
X123091405Y-109079880D02*
X123719977Y-109079880D01*
X123405691Y-109079880D02*
X123405691Y-110079880D01*
X123405691Y-110079880D02*
X123510453Y-109937023D01*
X123510453Y-109937023D02*
X123615215Y-109841785D01*
X123615215Y-109841785D02*
X123719977Y-109794166D01*
X128015215Y-118032261D02*
X128119977Y-118079880D01*
X128119977Y-118079880D02*
X128277120Y-118079880D01*
X128277120Y-118079880D02*
X128434263Y-118032261D01*
X128434263Y-118032261D02*
X128539025Y-117937023D01*
X128539025Y-117937023D02*
X128591406Y-117841785D01*
X128591406Y-117841785D02*
X128643787Y-117651309D01*
X128643787Y-117651309D02*
X128643787Y-117508452D01*
X128643787Y-117508452D02*
X128591406Y-117317976D01*
X128591406Y-117317976D02*
X128539025Y-117222738D01*
X128539025Y-117222738D02*
X128434263Y-117127500D01*
X128434263Y-117127500D02*
X128277120Y-117079880D01*
X128277120Y-117079880D02*
X128172358Y-117079880D01*
X128172358Y-117079880D02*
X128015215Y-117127500D01*
X128015215Y-117127500D02*
X127962834Y-117175119D01*
X127962834Y-117175119D02*
X127962834Y-117508452D01*
X127962834Y-117508452D02*
X128172358Y-117508452D01*
X127491406Y-117079880D02*
X127491406Y-118079880D01*
X127491406Y-118079880D02*
X127072358Y-118079880D01*
X127072358Y-118079880D02*
X126967596Y-118032261D01*
X126967596Y-118032261D02*
X126915215Y-117984642D01*
X126915215Y-117984642D02*
X126862834Y-117889404D01*
X126862834Y-117889404D02*
X126862834Y-117746547D01*
X126862834Y-117746547D02*
X126915215Y-117651309D01*
X126915215Y-117651309D02*
X126967596Y-117603690D01*
X126967596Y-117603690D02*
X127072358Y-117556071D01*
X127072358Y-117556071D02*
X127491406Y-117556071D01*
X126391406Y-117079880D02*
X126391406Y-118079880D01*
X125658072Y-118079880D02*
X125448548Y-118079880D01*
X125448548Y-118079880D02*
X125343786Y-118032261D01*
X125343786Y-118032261D02*
X125239024Y-117937023D01*
X125239024Y-117937023D02*
X125186643Y-117746547D01*
X125186643Y-117746547D02*
X125186643Y-117413214D01*
X125186643Y-117413214D02*
X125239024Y-117222738D01*
X125239024Y-117222738D02*
X125343786Y-117127500D01*
X125343786Y-117127500D02*
X125448548Y-117079880D01*
X125448548Y-117079880D02*
X125658072Y-117079880D01*
X125658072Y-117079880D02*
X125762834Y-117127500D01*
X125762834Y-117127500D02*
X125867596Y-117222738D01*
X125867596Y-117222738D02*
X125919977Y-117413214D01*
X125919977Y-117413214D02*
X125919977Y-117746547D01*
X125919977Y-117746547D02*
X125867596Y-117937023D01*
X125867596Y-117937023D02*
X125762834Y-118032261D01*
X125762834Y-118032261D02*
X125658072Y-118079880D01*
X124767596Y-117984642D02*
X124715215Y-118032261D01*
X124715215Y-118032261D02*
X124610453Y-118079880D01*
X124610453Y-118079880D02*
X124348548Y-118079880D01*
X124348548Y-118079880D02*
X124243786Y-118032261D01*
X124243786Y-118032261D02*
X124191405Y-117984642D01*
X124191405Y-117984642D02*
X124139024Y-117889404D01*
X124139024Y-117889404D02*
X124139024Y-117794166D01*
X124139024Y-117794166D02*
X124191405Y-117651309D01*
X124191405Y-117651309D02*
X124819977Y-117079880D01*
X124819977Y-117079880D02*
X124139024Y-117079880D01*
X123719977Y-117984642D02*
X123667596Y-118032261D01*
X123667596Y-118032261D02*
X123562834Y-118079880D01*
X123562834Y-118079880D02*
X123300929Y-118079880D01*
X123300929Y-118079880D02*
X123196167Y-118032261D01*
X123196167Y-118032261D02*
X123143786Y-117984642D01*
X123143786Y-117984642D02*
X123091405Y-117889404D01*
X123091405Y-117889404D02*
X123091405Y-117794166D01*
X123091405Y-117794166D02*
X123143786Y-117651309D01*
X123143786Y-117651309D02*
X123772358Y-117079880D01*
X123772358Y-117079880D02*
X123091405Y-117079880D01*
X128015215Y-120532261D02*
X128119977Y-120579880D01*
X128119977Y-120579880D02*
X128277120Y-120579880D01*
X128277120Y-120579880D02*
X128434263Y-120532261D01*
X128434263Y-120532261D02*
X128539025Y-120437023D01*
X128539025Y-120437023D02*
X128591406Y-120341785D01*
X128591406Y-120341785D02*
X128643787Y-120151309D01*
X128643787Y-120151309D02*
X128643787Y-120008452D01*
X128643787Y-120008452D02*
X128591406Y-119817976D01*
X128591406Y-119817976D02*
X128539025Y-119722738D01*
X128539025Y-119722738D02*
X128434263Y-119627500D01*
X128434263Y-119627500D02*
X128277120Y-119579880D01*
X128277120Y-119579880D02*
X128172358Y-119579880D01*
X128172358Y-119579880D02*
X128015215Y-119627500D01*
X128015215Y-119627500D02*
X127962834Y-119675119D01*
X127962834Y-119675119D02*
X127962834Y-120008452D01*
X127962834Y-120008452D02*
X128172358Y-120008452D01*
X127491406Y-119579880D02*
X127491406Y-120579880D01*
X127491406Y-120579880D02*
X127072358Y-120579880D01*
X127072358Y-120579880D02*
X126967596Y-120532261D01*
X126967596Y-120532261D02*
X126915215Y-120484642D01*
X126915215Y-120484642D02*
X126862834Y-120389404D01*
X126862834Y-120389404D02*
X126862834Y-120246547D01*
X126862834Y-120246547D02*
X126915215Y-120151309D01*
X126915215Y-120151309D02*
X126967596Y-120103690D01*
X126967596Y-120103690D02*
X127072358Y-120056071D01*
X127072358Y-120056071D02*
X127491406Y-120056071D01*
X126391406Y-119579880D02*
X126391406Y-120579880D01*
X125658072Y-120579880D02*
X125448548Y-120579880D01*
X125448548Y-120579880D02*
X125343786Y-120532261D01*
X125343786Y-120532261D02*
X125239024Y-120437023D01*
X125239024Y-120437023D02*
X125186643Y-120246547D01*
X125186643Y-120246547D02*
X125186643Y-119913214D01*
X125186643Y-119913214D02*
X125239024Y-119722738D01*
X125239024Y-119722738D02*
X125343786Y-119627500D01*
X125343786Y-119627500D02*
X125448548Y-119579880D01*
X125448548Y-119579880D02*
X125658072Y-119579880D01*
X125658072Y-119579880D02*
X125762834Y-119627500D01*
X125762834Y-119627500D02*
X125867596Y-119722738D01*
X125867596Y-119722738D02*
X125919977Y-119913214D01*
X125919977Y-119913214D02*
X125919977Y-120246547D01*
X125919977Y-120246547D02*
X125867596Y-120437023D01*
X125867596Y-120437023D02*
X125762834Y-120532261D01*
X125762834Y-120532261D02*
X125658072Y-120579880D01*
X124767596Y-120484642D02*
X124715215Y-120532261D01*
X124715215Y-120532261D02*
X124610453Y-120579880D01*
X124610453Y-120579880D02*
X124348548Y-120579880D01*
X124348548Y-120579880D02*
X124243786Y-120532261D01*
X124243786Y-120532261D02*
X124191405Y-120484642D01*
X124191405Y-120484642D02*
X124139024Y-120389404D01*
X124139024Y-120389404D02*
X124139024Y-120294166D01*
X124139024Y-120294166D02*
X124191405Y-120151309D01*
X124191405Y-120151309D02*
X124819977Y-119579880D01*
X124819977Y-119579880D02*
X124139024Y-119579880D01*
X123772358Y-120579880D02*
X123091405Y-120579880D01*
X123091405Y-120579880D02*
X123458072Y-120198928D01*
X123458072Y-120198928D02*
X123300929Y-120198928D01*
X123300929Y-120198928D02*
X123196167Y-120151309D01*
X123196167Y-120151309D02*
X123143786Y-120103690D01*
X123143786Y-120103690D02*
X123091405Y-120008452D01*
X123091405Y-120008452D02*
X123091405Y-119770357D01*
X123091405Y-119770357D02*
X123143786Y-119675119D01*
X123143786Y-119675119D02*
X123196167Y-119627500D01*
X123196167Y-119627500D02*
X123300929Y-119579880D01*
X123300929Y-119579880D02*
X123615215Y-119579880D01*
X123615215Y-119579880D02*
X123719977Y-119627500D01*
X123719977Y-119627500D02*
X123772358Y-119675119D01*
X135615215Y-78079880D02*
X135615215Y-77270357D01*
X135615215Y-77270357D02*
X135567596Y-77175119D01*
X135567596Y-77175119D02*
X135519977Y-77127500D01*
X135519977Y-77127500D02*
X135424739Y-77079880D01*
X135424739Y-77079880D02*
X135234263Y-77079880D01*
X135234263Y-77079880D02*
X135139025Y-77127500D01*
X135139025Y-77127500D02*
X135091406Y-77175119D01*
X135091406Y-77175119D02*
X135043787Y-77270357D01*
X135043787Y-77270357D02*
X135043787Y-78079880D01*
X134615215Y-77127500D02*
X134472358Y-77079880D01*
X134472358Y-77079880D02*
X134234263Y-77079880D01*
X134234263Y-77079880D02*
X134139025Y-77127500D01*
X134139025Y-77127500D02*
X134091406Y-77175119D01*
X134091406Y-77175119D02*
X134043787Y-77270357D01*
X134043787Y-77270357D02*
X134043787Y-77365595D01*
X134043787Y-77365595D02*
X134091406Y-77460833D01*
X134091406Y-77460833D02*
X134139025Y-77508452D01*
X134139025Y-77508452D02*
X134234263Y-77556071D01*
X134234263Y-77556071D02*
X134424739Y-77603690D01*
X134424739Y-77603690D02*
X134519977Y-77651309D01*
X134519977Y-77651309D02*
X134567596Y-77698928D01*
X134567596Y-77698928D02*
X134615215Y-77794166D01*
X134615215Y-77794166D02*
X134615215Y-77889404D01*
X134615215Y-77889404D02*
X134567596Y-77984642D01*
X134567596Y-77984642D02*
X134519977Y-78032261D01*
X134519977Y-78032261D02*
X134424739Y-78079880D01*
X134424739Y-78079880D02*
X134186644Y-78079880D01*
X134186644Y-78079880D02*
X134043787Y-78032261D01*
X133281882Y-77603690D02*
X133139025Y-77556071D01*
X133139025Y-77556071D02*
X133091406Y-77508452D01*
X133091406Y-77508452D02*
X133043787Y-77413214D01*
X133043787Y-77413214D02*
X133043787Y-77270357D01*
X133043787Y-77270357D02*
X133091406Y-77175119D01*
X133091406Y-77175119D02*
X133139025Y-77127500D01*
X133139025Y-77127500D02*
X133234263Y-77079880D01*
X133234263Y-77079880D02*
X133615215Y-77079880D01*
X133615215Y-77079880D02*
X133615215Y-78079880D01*
X133615215Y-78079880D02*
X133281882Y-78079880D01*
X133281882Y-78079880D02*
X133186644Y-78032261D01*
X133186644Y-78032261D02*
X133139025Y-77984642D01*
X133139025Y-77984642D02*
X133091406Y-77889404D01*
X133091406Y-77889404D02*
X133091406Y-77794166D01*
X133091406Y-77794166D02*
X133139025Y-77698928D01*
X133139025Y-77698928D02*
X133186644Y-77651309D01*
X133186644Y-77651309D02*
X133281882Y-77603690D01*
X133281882Y-77603690D02*
X133615215Y-77603690D01*
X145748549Y-85079880D02*
X145381882Y-84079880D01*
X145381882Y-84079880D02*
X145015215Y-85079880D01*
X144648549Y-84079880D02*
X144648549Y-85079880D01*
X144124739Y-84079880D02*
X144124739Y-85079880D01*
X144124739Y-85079880D02*
X143496167Y-84079880D01*
X143496167Y-84079880D02*
X143496167Y-85079880D01*
X145515215Y-87532261D02*
X145619977Y-87579880D01*
X145619977Y-87579880D02*
X145777120Y-87579880D01*
X145777120Y-87579880D02*
X145934263Y-87532261D01*
X145934263Y-87532261D02*
X146039025Y-87437023D01*
X146039025Y-87437023D02*
X146091406Y-87341785D01*
X146091406Y-87341785D02*
X146143787Y-87151309D01*
X146143787Y-87151309D02*
X146143787Y-87008452D01*
X146143787Y-87008452D02*
X146091406Y-86817976D01*
X146091406Y-86817976D02*
X146039025Y-86722738D01*
X146039025Y-86722738D02*
X145934263Y-86627500D01*
X145934263Y-86627500D02*
X145777120Y-86579880D01*
X145777120Y-86579880D02*
X145672358Y-86579880D01*
X145672358Y-86579880D02*
X145515215Y-86627500D01*
X145515215Y-86627500D02*
X145462834Y-86675119D01*
X145462834Y-86675119D02*
X145462834Y-87008452D01*
X145462834Y-87008452D02*
X145672358Y-87008452D01*
X144991406Y-86579880D02*
X144991406Y-87579880D01*
X144991406Y-87579880D02*
X144362834Y-86579880D01*
X144362834Y-86579880D02*
X144362834Y-87579880D01*
X143839025Y-86579880D02*
X143839025Y-87579880D01*
X143839025Y-87579880D02*
X143577120Y-87579880D01*
X143577120Y-87579880D02*
X143419977Y-87532261D01*
X143419977Y-87532261D02*
X143315215Y-87437023D01*
X143315215Y-87437023D02*
X143262834Y-87341785D01*
X143262834Y-87341785D02*
X143210453Y-87151309D01*
X143210453Y-87151309D02*
X143210453Y-87008452D01*
X143210453Y-87008452D02*
X143262834Y-86817976D01*
X143262834Y-86817976D02*
X143315215Y-86722738D01*
X143315215Y-86722738D02*
X143419977Y-86627500D01*
X143419977Y-86627500D02*
X143577120Y-86579880D01*
X143577120Y-86579880D02*
X143839025Y-86579880D01*
X145515215Y-90032261D02*
X145619977Y-90079880D01*
X145619977Y-90079880D02*
X145777120Y-90079880D01*
X145777120Y-90079880D02*
X145934263Y-90032261D01*
X145934263Y-90032261D02*
X146039025Y-89937023D01*
X146039025Y-89937023D02*
X146091406Y-89841785D01*
X146091406Y-89841785D02*
X146143787Y-89651309D01*
X146143787Y-89651309D02*
X146143787Y-89508452D01*
X146143787Y-89508452D02*
X146091406Y-89317976D01*
X146091406Y-89317976D02*
X146039025Y-89222738D01*
X146039025Y-89222738D02*
X145934263Y-89127500D01*
X145934263Y-89127500D02*
X145777120Y-89079880D01*
X145777120Y-89079880D02*
X145672358Y-89079880D01*
X145672358Y-89079880D02*
X145515215Y-89127500D01*
X145515215Y-89127500D02*
X145462834Y-89175119D01*
X145462834Y-89175119D02*
X145462834Y-89508452D01*
X145462834Y-89508452D02*
X145672358Y-89508452D01*
X144991406Y-89079880D02*
X144991406Y-90079880D01*
X144991406Y-90079880D02*
X144572358Y-90079880D01*
X144572358Y-90079880D02*
X144467596Y-90032261D01*
X144467596Y-90032261D02*
X144415215Y-89984642D01*
X144415215Y-89984642D02*
X144362834Y-89889404D01*
X144362834Y-89889404D02*
X144362834Y-89746547D01*
X144362834Y-89746547D02*
X144415215Y-89651309D01*
X144415215Y-89651309D02*
X144467596Y-89603690D01*
X144467596Y-89603690D02*
X144572358Y-89556071D01*
X144572358Y-89556071D02*
X144991406Y-89556071D01*
X143891406Y-89079880D02*
X143891406Y-90079880D01*
X143158072Y-90079880D02*
X142948548Y-90079880D01*
X142948548Y-90079880D02*
X142843786Y-90032261D01*
X142843786Y-90032261D02*
X142739024Y-89937023D01*
X142739024Y-89937023D02*
X142686643Y-89746547D01*
X142686643Y-89746547D02*
X142686643Y-89413214D01*
X142686643Y-89413214D02*
X142739024Y-89222738D01*
X142739024Y-89222738D02*
X142843786Y-89127500D01*
X142843786Y-89127500D02*
X142948548Y-89079880D01*
X142948548Y-89079880D02*
X143158072Y-89079880D01*
X143158072Y-89079880D02*
X143262834Y-89127500D01*
X143262834Y-89127500D02*
X143367596Y-89222738D01*
X143367596Y-89222738D02*
X143419977Y-89413214D01*
X143419977Y-89413214D02*
X143419977Y-89746547D01*
X143419977Y-89746547D02*
X143367596Y-89937023D01*
X143367596Y-89937023D02*
X143262834Y-90032261D01*
X143262834Y-90032261D02*
X143158072Y-90079880D01*
X141639024Y-89079880D02*
X142267596Y-89079880D01*
X141953310Y-89079880D02*
X141953310Y-90079880D01*
X141953310Y-90079880D02*
X142058072Y-89937023D01*
X142058072Y-89937023D02*
X142162834Y-89841785D01*
X142162834Y-89841785D02*
X142267596Y-89794166D01*
X141272358Y-90079880D02*
X140591405Y-90079880D01*
X140591405Y-90079880D02*
X140958072Y-89698928D01*
X140958072Y-89698928D02*
X140800929Y-89698928D01*
X140800929Y-89698928D02*
X140696167Y-89651309D01*
X140696167Y-89651309D02*
X140643786Y-89603690D01*
X140643786Y-89603690D02*
X140591405Y-89508452D01*
X140591405Y-89508452D02*
X140591405Y-89270357D01*
X140591405Y-89270357D02*
X140643786Y-89175119D01*
X140643786Y-89175119D02*
X140696167Y-89127500D01*
X140696167Y-89127500D02*
X140800929Y-89079880D01*
X140800929Y-89079880D02*
X141115215Y-89079880D01*
X141115215Y-89079880D02*
X141219977Y-89127500D01*
X141219977Y-89127500D02*
X141272358Y-89175119D01*
X145515215Y-92532261D02*
X145619977Y-92579880D01*
X145619977Y-92579880D02*
X145777120Y-92579880D01*
X145777120Y-92579880D02*
X145934263Y-92532261D01*
X145934263Y-92532261D02*
X146039025Y-92437023D01*
X146039025Y-92437023D02*
X146091406Y-92341785D01*
X146091406Y-92341785D02*
X146143787Y-92151309D01*
X146143787Y-92151309D02*
X146143787Y-92008452D01*
X146143787Y-92008452D02*
X146091406Y-91817976D01*
X146091406Y-91817976D02*
X146039025Y-91722738D01*
X146039025Y-91722738D02*
X145934263Y-91627500D01*
X145934263Y-91627500D02*
X145777120Y-91579880D01*
X145777120Y-91579880D02*
X145672358Y-91579880D01*
X145672358Y-91579880D02*
X145515215Y-91627500D01*
X145515215Y-91627500D02*
X145462834Y-91675119D01*
X145462834Y-91675119D02*
X145462834Y-92008452D01*
X145462834Y-92008452D02*
X145672358Y-92008452D01*
X144991406Y-91579880D02*
X144991406Y-92579880D01*
X144991406Y-92579880D02*
X144572358Y-92579880D01*
X144572358Y-92579880D02*
X144467596Y-92532261D01*
X144467596Y-92532261D02*
X144415215Y-92484642D01*
X144415215Y-92484642D02*
X144362834Y-92389404D01*
X144362834Y-92389404D02*
X144362834Y-92246547D01*
X144362834Y-92246547D02*
X144415215Y-92151309D01*
X144415215Y-92151309D02*
X144467596Y-92103690D01*
X144467596Y-92103690D02*
X144572358Y-92056071D01*
X144572358Y-92056071D02*
X144991406Y-92056071D01*
X143891406Y-91579880D02*
X143891406Y-92579880D01*
X143158072Y-92579880D02*
X142948548Y-92579880D01*
X142948548Y-92579880D02*
X142843786Y-92532261D01*
X142843786Y-92532261D02*
X142739024Y-92437023D01*
X142739024Y-92437023D02*
X142686643Y-92246547D01*
X142686643Y-92246547D02*
X142686643Y-91913214D01*
X142686643Y-91913214D02*
X142739024Y-91722738D01*
X142739024Y-91722738D02*
X142843786Y-91627500D01*
X142843786Y-91627500D02*
X142948548Y-91579880D01*
X142948548Y-91579880D02*
X143158072Y-91579880D01*
X143158072Y-91579880D02*
X143262834Y-91627500D01*
X143262834Y-91627500D02*
X143367596Y-91722738D01*
X143367596Y-91722738D02*
X143419977Y-91913214D01*
X143419977Y-91913214D02*
X143419977Y-92246547D01*
X143419977Y-92246547D02*
X143367596Y-92437023D01*
X143367596Y-92437023D02*
X143262834Y-92532261D01*
X143262834Y-92532261D02*
X143158072Y-92579880D01*
X141639024Y-91579880D02*
X142267596Y-91579880D01*
X141953310Y-91579880D02*
X141953310Y-92579880D01*
X141953310Y-92579880D02*
X142058072Y-92437023D01*
X142058072Y-92437023D02*
X142162834Y-92341785D01*
X142162834Y-92341785D02*
X142267596Y-92294166D01*
X141219977Y-92484642D02*
X141167596Y-92532261D01*
X141167596Y-92532261D02*
X141062834Y-92579880D01*
X141062834Y-92579880D02*
X140800929Y-92579880D01*
X140800929Y-92579880D02*
X140696167Y-92532261D01*
X140696167Y-92532261D02*
X140643786Y-92484642D01*
X140643786Y-92484642D02*
X140591405Y-92389404D01*
X140591405Y-92389404D02*
X140591405Y-92294166D01*
X140591405Y-92294166D02*
X140643786Y-92151309D01*
X140643786Y-92151309D02*
X141272358Y-91579880D01*
X141272358Y-91579880D02*
X140591405Y-91579880D01*
X145515215Y-95032261D02*
X145619977Y-95079880D01*
X145619977Y-95079880D02*
X145777120Y-95079880D01*
X145777120Y-95079880D02*
X145934263Y-95032261D01*
X145934263Y-95032261D02*
X146039025Y-94937023D01*
X146039025Y-94937023D02*
X146091406Y-94841785D01*
X146091406Y-94841785D02*
X146143787Y-94651309D01*
X146143787Y-94651309D02*
X146143787Y-94508452D01*
X146143787Y-94508452D02*
X146091406Y-94317976D01*
X146091406Y-94317976D02*
X146039025Y-94222738D01*
X146039025Y-94222738D02*
X145934263Y-94127500D01*
X145934263Y-94127500D02*
X145777120Y-94079880D01*
X145777120Y-94079880D02*
X145672358Y-94079880D01*
X145672358Y-94079880D02*
X145515215Y-94127500D01*
X145515215Y-94127500D02*
X145462834Y-94175119D01*
X145462834Y-94175119D02*
X145462834Y-94508452D01*
X145462834Y-94508452D02*
X145672358Y-94508452D01*
X144991406Y-94079880D02*
X144991406Y-95079880D01*
X144991406Y-95079880D02*
X144572358Y-95079880D01*
X144572358Y-95079880D02*
X144467596Y-95032261D01*
X144467596Y-95032261D02*
X144415215Y-94984642D01*
X144415215Y-94984642D02*
X144362834Y-94889404D01*
X144362834Y-94889404D02*
X144362834Y-94746547D01*
X144362834Y-94746547D02*
X144415215Y-94651309D01*
X144415215Y-94651309D02*
X144467596Y-94603690D01*
X144467596Y-94603690D02*
X144572358Y-94556071D01*
X144572358Y-94556071D02*
X144991406Y-94556071D01*
X143891406Y-94079880D02*
X143891406Y-95079880D01*
X143158072Y-95079880D02*
X142948548Y-95079880D01*
X142948548Y-95079880D02*
X142843786Y-95032261D01*
X142843786Y-95032261D02*
X142739024Y-94937023D01*
X142739024Y-94937023D02*
X142686643Y-94746547D01*
X142686643Y-94746547D02*
X142686643Y-94413214D01*
X142686643Y-94413214D02*
X142739024Y-94222738D01*
X142739024Y-94222738D02*
X142843786Y-94127500D01*
X142843786Y-94127500D02*
X142948548Y-94079880D01*
X142948548Y-94079880D02*
X143158072Y-94079880D01*
X143158072Y-94079880D02*
X143262834Y-94127500D01*
X143262834Y-94127500D02*
X143367596Y-94222738D01*
X143367596Y-94222738D02*
X143419977Y-94413214D01*
X143419977Y-94413214D02*
X143419977Y-94746547D01*
X143419977Y-94746547D02*
X143367596Y-94937023D01*
X143367596Y-94937023D02*
X143262834Y-95032261D01*
X143262834Y-95032261D02*
X143158072Y-95079880D01*
X141639024Y-94079880D02*
X142267596Y-94079880D01*
X141953310Y-94079880D02*
X141953310Y-95079880D01*
X141953310Y-95079880D02*
X142058072Y-94937023D01*
X142058072Y-94937023D02*
X142162834Y-94841785D01*
X142162834Y-94841785D02*
X142267596Y-94794166D01*
X140696167Y-94746547D02*
X140696167Y-94079880D01*
X140958072Y-95127500D02*
X141219977Y-94413214D01*
X141219977Y-94413214D02*
X140539024Y-94413214D01*
X145515215Y-97532261D02*
X145619977Y-97579880D01*
X145619977Y-97579880D02*
X145777120Y-97579880D01*
X145777120Y-97579880D02*
X145934263Y-97532261D01*
X145934263Y-97532261D02*
X146039025Y-97437023D01*
X146039025Y-97437023D02*
X146091406Y-97341785D01*
X146091406Y-97341785D02*
X146143787Y-97151309D01*
X146143787Y-97151309D02*
X146143787Y-97008452D01*
X146143787Y-97008452D02*
X146091406Y-96817976D01*
X146091406Y-96817976D02*
X146039025Y-96722738D01*
X146039025Y-96722738D02*
X145934263Y-96627500D01*
X145934263Y-96627500D02*
X145777120Y-96579880D01*
X145777120Y-96579880D02*
X145672358Y-96579880D01*
X145672358Y-96579880D02*
X145515215Y-96627500D01*
X145515215Y-96627500D02*
X145462834Y-96675119D01*
X145462834Y-96675119D02*
X145462834Y-97008452D01*
X145462834Y-97008452D02*
X145672358Y-97008452D01*
X144991406Y-96579880D02*
X144991406Y-97579880D01*
X144991406Y-97579880D02*
X144572358Y-97579880D01*
X144572358Y-97579880D02*
X144467596Y-97532261D01*
X144467596Y-97532261D02*
X144415215Y-97484642D01*
X144415215Y-97484642D02*
X144362834Y-97389404D01*
X144362834Y-97389404D02*
X144362834Y-97246547D01*
X144362834Y-97246547D02*
X144415215Y-97151309D01*
X144415215Y-97151309D02*
X144467596Y-97103690D01*
X144467596Y-97103690D02*
X144572358Y-97056071D01*
X144572358Y-97056071D02*
X144991406Y-97056071D01*
X143891406Y-96579880D02*
X143891406Y-97579880D01*
X143158072Y-97579880D02*
X142948548Y-97579880D01*
X142948548Y-97579880D02*
X142843786Y-97532261D01*
X142843786Y-97532261D02*
X142739024Y-97437023D01*
X142739024Y-97437023D02*
X142686643Y-97246547D01*
X142686643Y-97246547D02*
X142686643Y-96913214D01*
X142686643Y-96913214D02*
X142739024Y-96722738D01*
X142739024Y-96722738D02*
X142843786Y-96627500D01*
X142843786Y-96627500D02*
X142948548Y-96579880D01*
X142948548Y-96579880D02*
X143158072Y-96579880D01*
X143158072Y-96579880D02*
X143262834Y-96627500D01*
X143262834Y-96627500D02*
X143367596Y-96722738D01*
X143367596Y-96722738D02*
X143419977Y-96913214D01*
X143419977Y-96913214D02*
X143419977Y-97246547D01*
X143419977Y-97246547D02*
X143367596Y-97437023D01*
X143367596Y-97437023D02*
X143262834Y-97532261D01*
X143262834Y-97532261D02*
X143158072Y-97579880D01*
X142267596Y-97484642D02*
X142215215Y-97532261D01*
X142215215Y-97532261D02*
X142110453Y-97579880D01*
X142110453Y-97579880D02*
X141848548Y-97579880D01*
X141848548Y-97579880D02*
X141743786Y-97532261D01*
X141743786Y-97532261D02*
X141691405Y-97484642D01*
X141691405Y-97484642D02*
X141639024Y-97389404D01*
X141639024Y-97389404D02*
X141639024Y-97294166D01*
X141639024Y-97294166D02*
X141691405Y-97151309D01*
X141691405Y-97151309D02*
X142319977Y-96579880D01*
X142319977Y-96579880D02*
X141639024Y-96579880D01*
X141272358Y-97579880D02*
X140539024Y-97579880D01*
X140539024Y-97579880D02*
X141010453Y-96579880D01*
X145515215Y-100032261D02*
X145619977Y-100079880D01*
X145619977Y-100079880D02*
X145777120Y-100079880D01*
X145777120Y-100079880D02*
X145934263Y-100032261D01*
X145934263Y-100032261D02*
X146039025Y-99937023D01*
X146039025Y-99937023D02*
X146091406Y-99841785D01*
X146091406Y-99841785D02*
X146143787Y-99651309D01*
X146143787Y-99651309D02*
X146143787Y-99508452D01*
X146143787Y-99508452D02*
X146091406Y-99317976D01*
X146091406Y-99317976D02*
X146039025Y-99222738D01*
X146039025Y-99222738D02*
X145934263Y-99127500D01*
X145934263Y-99127500D02*
X145777120Y-99079880D01*
X145777120Y-99079880D02*
X145672358Y-99079880D01*
X145672358Y-99079880D02*
X145515215Y-99127500D01*
X145515215Y-99127500D02*
X145462834Y-99175119D01*
X145462834Y-99175119D02*
X145462834Y-99508452D01*
X145462834Y-99508452D02*
X145672358Y-99508452D01*
X144991406Y-99079880D02*
X144991406Y-100079880D01*
X144991406Y-100079880D02*
X144572358Y-100079880D01*
X144572358Y-100079880D02*
X144467596Y-100032261D01*
X144467596Y-100032261D02*
X144415215Y-99984642D01*
X144415215Y-99984642D02*
X144362834Y-99889404D01*
X144362834Y-99889404D02*
X144362834Y-99746547D01*
X144362834Y-99746547D02*
X144415215Y-99651309D01*
X144415215Y-99651309D02*
X144467596Y-99603690D01*
X144467596Y-99603690D02*
X144572358Y-99556071D01*
X144572358Y-99556071D02*
X144991406Y-99556071D01*
X143891406Y-99079880D02*
X143891406Y-100079880D01*
X143158072Y-100079880D02*
X142948548Y-100079880D01*
X142948548Y-100079880D02*
X142843786Y-100032261D01*
X142843786Y-100032261D02*
X142739024Y-99937023D01*
X142739024Y-99937023D02*
X142686643Y-99746547D01*
X142686643Y-99746547D02*
X142686643Y-99413214D01*
X142686643Y-99413214D02*
X142739024Y-99222738D01*
X142739024Y-99222738D02*
X142843786Y-99127500D01*
X142843786Y-99127500D02*
X142948548Y-99079880D01*
X142948548Y-99079880D02*
X143158072Y-99079880D01*
X143158072Y-99079880D02*
X143262834Y-99127500D01*
X143262834Y-99127500D02*
X143367596Y-99222738D01*
X143367596Y-99222738D02*
X143419977Y-99413214D01*
X143419977Y-99413214D02*
X143419977Y-99746547D01*
X143419977Y-99746547D02*
X143367596Y-99937023D01*
X143367596Y-99937023D02*
X143262834Y-100032261D01*
X143262834Y-100032261D02*
X143158072Y-100079880D01*
X142267596Y-99984642D02*
X142215215Y-100032261D01*
X142215215Y-100032261D02*
X142110453Y-100079880D01*
X142110453Y-100079880D02*
X141848548Y-100079880D01*
X141848548Y-100079880D02*
X141743786Y-100032261D01*
X141743786Y-100032261D02*
X141691405Y-99984642D01*
X141691405Y-99984642D02*
X141639024Y-99889404D01*
X141639024Y-99889404D02*
X141639024Y-99794166D01*
X141639024Y-99794166D02*
X141691405Y-99651309D01*
X141691405Y-99651309D02*
X142319977Y-99079880D01*
X142319977Y-99079880D02*
X141639024Y-99079880D01*
X140696167Y-100079880D02*
X140905691Y-100079880D01*
X140905691Y-100079880D02*
X141010453Y-100032261D01*
X141010453Y-100032261D02*
X141062834Y-99984642D01*
X141062834Y-99984642D02*
X141167596Y-99841785D01*
X141167596Y-99841785D02*
X141219977Y-99651309D01*
X141219977Y-99651309D02*
X141219977Y-99270357D01*
X141219977Y-99270357D02*
X141167596Y-99175119D01*
X141167596Y-99175119D02*
X141115215Y-99127500D01*
X141115215Y-99127500D02*
X141010453Y-99079880D01*
X141010453Y-99079880D02*
X140800929Y-99079880D01*
X140800929Y-99079880D02*
X140696167Y-99127500D01*
X140696167Y-99127500D02*
X140643786Y-99175119D01*
X140643786Y-99175119D02*
X140591405Y-99270357D01*
X140591405Y-99270357D02*
X140591405Y-99508452D01*
X140591405Y-99508452D02*
X140643786Y-99603690D01*
X140643786Y-99603690D02*
X140696167Y-99651309D01*
X140696167Y-99651309D02*
X140800929Y-99698928D01*
X140800929Y-99698928D02*
X141010453Y-99698928D01*
X141010453Y-99698928D02*
X141115215Y-99651309D01*
X141115215Y-99651309D02*
X141167596Y-99603690D01*
X141167596Y-99603690D02*
X141219977Y-99508452D01*
X145515215Y-102532261D02*
X145619977Y-102579880D01*
X145619977Y-102579880D02*
X145777120Y-102579880D01*
X145777120Y-102579880D02*
X145934263Y-102532261D01*
X145934263Y-102532261D02*
X146039025Y-102437023D01*
X146039025Y-102437023D02*
X146091406Y-102341785D01*
X146091406Y-102341785D02*
X146143787Y-102151309D01*
X146143787Y-102151309D02*
X146143787Y-102008452D01*
X146143787Y-102008452D02*
X146091406Y-101817976D01*
X146091406Y-101817976D02*
X146039025Y-101722738D01*
X146039025Y-101722738D02*
X145934263Y-101627500D01*
X145934263Y-101627500D02*
X145777120Y-101579880D01*
X145777120Y-101579880D02*
X145672358Y-101579880D01*
X145672358Y-101579880D02*
X145515215Y-101627500D01*
X145515215Y-101627500D02*
X145462834Y-101675119D01*
X145462834Y-101675119D02*
X145462834Y-102008452D01*
X145462834Y-102008452D02*
X145672358Y-102008452D01*
X144991406Y-101579880D02*
X144991406Y-102579880D01*
X144991406Y-102579880D02*
X144572358Y-102579880D01*
X144572358Y-102579880D02*
X144467596Y-102532261D01*
X144467596Y-102532261D02*
X144415215Y-102484642D01*
X144415215Y-102484642D02*
X144362834Y-102389404D01*
X144362834Y-102389404D02*
X144362834Y-102246547D01*
X144362834Y-102246547D02*
X144415215Y-102151309D01*
X144415215Y-102151309D02*
X144467596Y-102103690D01*
X144467596Y-102103690D02*
X144572358Y-102056071D01*
X144572358Y-102056071D02*
X144991406Y-102056071D01*
X143891406Y-101579880D02*
X143891406Y-102579880D01*
X143158072Y-102579880D02*
X142948548Y-102579880D01*
X142948548Y-102579880D02*
X142843786Y-102532261D01*
X142843786Y-102532261D02*
X142739024Y-102437023D01*
X142739024Y-102437023D02*
X142686643Y-102246547D01*
X142686643Y-102246547D02*
X142686643Y-101913214D01*
X142686643Y-101913214D02*
X142739024Y-101722738D01*
X142739024Y-101722738D02*
X142843786Y-101627500D01*
X142843786Y-101627500D02*
X142948548Y-101579880D01*
X142948548Y-101579880D02*
X143158072Y-101579880D01*
X143158072Y-101579880D02*
X143262834Y-101627500D01*
X143262834Y-101627500D02*
X143367596Y-101722738D01*
X143367596Y-101722738D02*
X143419977Y-101913214D01*
X143419977Y-101913214D02*
X143419977Y-102246547D01*
X143419977Y-102246547D02*
X143367596Y-102437023D01*
X143367596Y-102437023D02*
X143262834Y-102532261D01*
X143262834Y-102532261D02*
X143158072Y-102579880D01*
X142267596Y-102484642D02*
X142215215Y-102532261D01*
X142215215Y-102532261D02*
X142110453Y-102579880D01*
X142110453Y-102579880D02*
X141848548Y-102579880D01*
X141848548Y-102579880D02*
X141743786Y-102532261D01*
X141743786Y-102532261D02*
X141691405Y-102484642D01*
X141691405Y-102484642D02*
X141639024Y-102389404D01*
X141639024Y-102389404D02*
X141639024Y-102294166D01*
X141639024Y-102294166D02*
X141691405Y-102151309D01*
X141691405Y-102151309D02*
X142319977Y-101579880D01*
X142319977Y-101579880D02*
X141639024Y-101579880D01*
X140643786Y-102579880D02*
X141167596Y-102579880D01*
X141167596Y-102579880D02*
X141219977Y-102103690D01*
X141219977Y-102103690D02*
X141167596Y-102151309D01*
X141167596Y-102151309D02*
X141062834Y-102198928D01*
X141062834Y-102198928D02*
X140800929Y-102198928D01*
X140800929Y-102198928D02*
X140696167Y-102151309D01*
X140696167Y-102151309D02*
X140643786Y-102103690D01*
X140643786Y-102103690D02*
X140591405Y-102008452D01*
X140591405Y-102008452D02*
X140591405Y-101770357D01*
X140591405Y-101770357D02*
X140643786Y-101675119D01*
X140643786Y-101675119D02*
X140696167Y-101627500D01*
X140696167Y-101627500D02*
X140800929Y-101579880D01*
X140800929Y-101579880D02*
X141062834Y-101579880D01*
X141062834Y-101579880D02*
X141167596Y-101627500D01*
X141167596Y-101627500D02*
X141219977Y-101675119D01*
X145515215Y-105032261D02*
X145619977Y-105079880D01*
X145619977Y-105079880D02*
X145777120Y-105079880D01*
X145777120Y-105079880D02*
X145934263Y-105032261D01*
X145934263Y-105032261D02*
X146039025Y-104937023D01*
X146039025Y-104937023D02*
X146091406Y-104841785D01*
X146091406Y-104841785D02*
X146143787Y-104651309D01*
X146143787Y-104651309D02*
X146143787Y-104508452D01*
X146143787Y-104508452D02*
X146091406Y-104317976D01*
X146091406Y-104317976D02*
X146039025Y-104222738D01*
X146039025Y-104222738D02*
X145934263Y-104127500D01*
X145934263Y-104127500D02*
X145777120Y-104079880D01*
X145777120Y-104079880D02*
X145672358Y-104079880D01*
X145672358Y-104079880D02*
X145515215Y-104127500D01*
X145515215Y-104127500D02*
X145462834Y-104175119D01*
X145462834Y-104175119D02*
X145462834Y-104508452D01*
X145462834Y-104508452D02*
X145672358Y-104508452D01*
X144991406Y-104079880D02*
X144991406Y-105079880D01*
X144991406Y-105079880D02*
X144572358Y-105079880D01*
X144572358Y-105079880D02*
X144467596Y-105032261D01*
X144467596Y-105032261D02*
X144415215Y-104984642D01*
X144415215Y-104984642D02*
X144362834Y-104889404D01*
X144362834Y-104889404D02*
X144362834Y-104746547D01*
X144362834Y-104746547D02*
X144415215Y-104651309D01*
X144415215Y-104651309D02*
X144467596Y-104603690D01*
X144467596Y-104603690D02*
X144572358Y-104556071D01*
X144572358Y-104556071D02*
X144991406Y-104556071D01*
X143891406Y-104079880D02*
X143891406Y-105079880D01*
X143158072Y-105079880D02*
X142948548Y-105079880D01*
X142948548Y-105079880D02*
X142843786Y-105032261D01*
X142843786Y-105032261D02*
X142739024Y-104937023D01*
X142739024Y-104937023D02*
X142686643Y-104746547D01*
X142686643Y-104746547D02*
X142686643Y-104413214D01*
X142686643Y-104413214D02*
X142739024Y-104222738D01*
X142739024Y-104222738D02*
X142843786Y-104127500D01*
X142843786Y-104127500D02*
X142948548Y-104079880D01*
X142948548Y-104079880D02*
X143158072Y-104079880D01*
X143158072Y-104079880D02*
X143262834Y-104127500D01*
X143262834Y-104127500D02*
X143367596Y-104222738D01*
X143367596Y-104222738D02*
X143419977Y-104413214D01*
X143419977Y-104413214D02*
X143419977Y-104746547D01*
X143419977Y-104746547D02*
X143367596Y-104937023D01*
X143367596Y-104937023D02*
X143262834Y-105032261D01*
X143262834Y-105032261D02*
X143158072Y-105079880D01*
X142319977Y-105079880D02*
X141639024Y-105079880D01*
X141639024Y-105079880D02*
X142005691Y-104698928D01*
X142005691Y-104698928D02*
X141848548Y-104698928D01*
X141848548Y-104698928D02*
X141743786Y-104651309D01*
X141743786Y-104651309D02*
X141691405Y-104603690D01*
X141691405Y-104603690D02*
X141639024Y-104508452D01*
X141639024Y-104508452D02*
X141639024Y-104270357D01*
X141639024Y-104270357D02*
X141691405Y-104175119D01*
X141691405Y-104175119D02*
X141743786Y-104127500D01*
X141743786Y-104127500D02*
X141848548Y-104079880D01*
X141848548Y-104079880D02*
X142162834Y-104079880D01*
X142162834Y-104079880D02*
X142267596Y-104127500D01*
X142267596Y-104127500D02*
X142319977Y-104175119D01*
X141272358Y-105079880D02*
X140591405Y-105079880D01*
X140591405Y-105079880D02*
X140958072Y-104698928D01*
X140958072Y-104698928D02*
X140800929Y-104698928D01*
X140800929Y-104698928D02*
X140696167Y-104651309D01*
X140696167Y-104651309D02*
X140643786Y-104603690D01*
X140643786Y-104603690D02*
X140591405Y-104508452D01*
X140591405Y-104508452D02*
X140591405Y-104270357D01*
X140591405Y-104270357D02*
X140643786Y-104175119D01*
X140643786Y-104175119D02*
X140696167Y-104127500D01*
X140696167Y-104127500D02*
X140800929Y-104079880D01*
X140800929Y-104079880D02*
X141115215Y-104079880D01*
X141115215Y-104079880D02*
X141219977Y-104127500D01*
X141219977Y-104127500D02*
X141272358Y-104175119D01*
X145515215Y-107532261D02*
X145619977Y-107579880D01*
X145619977Y-107579880D02*
X145777120Y-107579880D01*
X145777120Y-107579880D02*
X145934263Y-107532261D01*
X145934263Y-107532261D02*
X146039025Y-107437023D01*
X146039025Y-107437023D02*
X146091406Y-107341785D01*
X146091406Y-107341785D02*
X146143787Y-107151309D01*
X146143787Y-107151309D02*
X146143787Y-107008452D01*
X146143787Y-107008452D02*
X146091406Y-106817976D01*
X146091406Y-106817976D02*
X146039025Y-106722738D01*
X146039025Y-106722738D02*
X145934263Y-106627500D01*
X145934263Y-106627500D02*
X145777120Y-106579880D01*
X145777120Y-106579880D02*
X145672358Y-106579880D01*
X145672358Y-106579880D02*
X145515215Y-106627500D01*
X145515215Y-106627500D02*
X145462834Y-106675119D01*
X145462834Y-106675119D02*
X145462834Y-107008452D01*
X145462834Y-107008452D02*
X145672358Y-107008452D01*
X144991406Y-106579880D02*
X144991406Y-107579880D01*
X144991406Y-107579880D02*
X144572358Y-107579880D01*
X144572358Y-107579880D02*
X144467596Y-107532261D01*
X144467596Y-107532261D02*
X144415215Y-107484642D01*
X144415215Y-107484642D02*
X144362834Y-107389404D01*
X144362834Y-107389404D02*
X144362834Y-107246547D01*
X144362834Y-107246547D02*
X144415215Y-107151309D01*
X144415215Y-107151309D02*
X144467596Y-107103690D01*
X144467596Y-107103690D02*
X144572358Y-107056071D01*
X144572358Y-107056071D02*
X144991406Y-107056071D01*
X143891406Y-106579880D02*
X143891406Y-107579880D01*
X143158072Y-107579880D02*
X142948548Y-107579880D01*
X142948548Y-107579880D02*
X142843786Y-107532261D01*
X142843786Y-107532261D02*
X142739024Y-107437023D01*
X142739024Y-107437023D02*
X142686643Y-107246547D01*
X142686643Y-107246547D02*
X142686643Y-106913214D01*
X142686643Y-106913214D02*
X142739024Y-106722738D01*
X142739024Y-106722738D02*
X142843786Y-106627500D01*
X142843786Y-106627500D02*
X142948548Y-106579880D01*
X142948548Y-106579880D02*
X143158072Y-106579880D01*
X143158072Y-106579880D02*
X143262834Y-106627500D01*
X143262834Y-106627500D02*
X143367596Y-106722738D01*
X143367596Y-106722738D02*
X143419977Y-106913214D01*
X143419977Y-106913214D02*
X143419977Y-107246547D01*
X143419977Y-107246547D02*
X143367596Y-107437023D01*
X143367596Y-107437023D02*
X143262834Y-107532261D01*
X143262834Y-107532261D02*
X143158072Y-107579880D01*
X142319977Y-107579880D02*
X141639024Y-107579880D01*
X141639024Y-107579880D02*
X142005691Y-107198928D01*
X142005691Y-107198928D02*
X141848548Y-107198928D01*
X141848548Y-107198928D02*
X141743786Y-107151309D01*
X141743786Y-107151309D02*
X141691405Y-107103690D01*
X141691405Y-107103690D02*
X141639024Y-107008452D01*
X141639024Y-107008452D02*
X141639024Y-106770357D01*
X141639024Y-106770357D02*
X141691405Y-106675119D01*
X141691405Y-106675119D02*
X141743786Y-106627500D01*
X141743786Y-106627500D02*
X141848548Y-106579880D01*
X141848548Y-106579880D02*
X142162834Y-106579880D01*
X142162834Y-106579880D02*
X142267596Y-106627500D01*
X142267596Y-106627500D02*
X142319977Y-106675119D01*
X141219977Y-107484642D02*
X141167596Y-107532261D01*
X141167596Y-107532261D02*
X141062834Y-107579880D01*
X141062834Y-107579880D02*
X140800929Y-107579880D01*
X140800929Y-107579880D02*
X140696167Y-107532261D01*
X140696167Y-107532261D02*
X140643786Y-107484642D01*
X140643786Y-107484642D02*
X140591405Y-107389404D01*
X140591405Y-107389404D02*
X140591405Y-107294166D01*
X140591405Y-107294166D02*
X140643786Y-107151309D01*
X140643786Y-107151309D02*
X141272358Y-106579880D01*
X141272358Y-106579880D02*
X140591405Y-106579880D01*
X145515215Y-110032261D02*
X145619977Y-110079880D01*
X145619977Y-110079880D02*
X145777120Y-110079880D01*
X145777120Y-110079880D02*
X145934263Y-110032261D01*
X145934263Y-110032261D02*
X146039025Y-109937023D01*
X146039025Y-109937023D02*
X146091406Y-109841785D01*
X146091406Y-109841785D02*
X146143787Y-109651309D01*
X146143787Y-109651309D02*
X146143787Y-109508452D01*
X146143787Y-109508452D02*
X146091406Y-109317976D01*
X146091406Y-109317976D02*
X146039025Y-109222738D01*
X146039025Y-109222738D02*
X145934263Y-109127500D01*
X145934263Y-109127500D02*
X145777120Y-109079880D01*
X145777120Y-109079880D02*
X145672358Y-109079880D01*
X145672358Y-109079880D02*
X145515215Y-109127500D01*
X145515215Y-109127500D02*
X145462834Y-109175119D01*
X145462834Y-109175119D02*
X145462834Y-109508452D01*
X145462834Y-109508452D02*
X145672358Y-109508452D01*
X144991406Y-109079880D02*
X144991406Y-110079880D01*
X144991406Y-110079880D02*
X144572358Y-110079880D01*
X144572358Y-110079880D02*
X144467596Y-110032261D01*
X144467596Y-110032261D02*
X144415215Y-109984642D01*
X144415215Y-109984642D02*
X144362834Y-109889404D01*
X144362834Y-109889404D02*
X144362834Y-109746547D01*
X144362834Y-109746547D02*
X144415215Y-109651309D01*
X144415215Y-109651309D02*
X144467596Y-109603690D01*
X144467596Y-109603690D02*
X144572358Y-109556071D01*
X144572358Y-109556071D02*
X144991406Y-109556071D01*
X143891406Y-109079880D02*
X143891406Y-110079880D01*
X143158072Y-110079880D02*
X142948548Y-110079880D01*
X142948548Y-110079880D02*
X142843786Y-110032261D01*
X142843786Y-110032261D02*
X142739024Y-109937023D01*
X142739024Y-109937023D02*
X142686643Y-109746547D01*
X142686643Y-109746547D02*
X142686643Y-109413214D01*
X142686643Y-109413214D02*
X142739024Y-109222738D01*
X142739024Y-109222738D02*
X142843786Y-109127500D01*
X142843786Y-109127500D02*
X142948548Y-109079880D01*
X142948548Y-109079880D02*
X143158072Y-109079880D01*
X143158072Y-109079880D02*
X143262834Y-109127500D01*
X143262834Y-109127500D02*
X143367596Y-109222738D01*
X143367596Y-109222738D02*
X143419977Y-109413214D01*
X143419977Y-109413214D02*
X143419977Y-109746547D01*
X143419977Y-109746547D02*
X143367596Y-109937023D01*
X143367596Y-109937023D02*
X143262834Y-110032261D01*
X143262834Y-110032261D02*
X143158072Y-110079880D01*
X142319977Y-110079880D02*
X141639024Y-110079880D01*
X141639024Y-110079880D02*
X142005691Y-109698928D01*
X142005691Y-109698928D02*
X141848548Y-109698928D01*
X141848548Y-109698928D02*
X141743786Y-109651309D01*
X141743786Y-109651309D02*
X141691405Y-109603690D01*
X141691405Y-109603690D02*
X141639024Y-109508452D01*
X141639024Y-109508452D02*
X141639024Y-109270357D01*
X141639024Y-109270357D02*
X141691405Y-109175119D01*
X141691405Y-109175119D02*
X141743786Y-109127500D01*
X141743786Y-109127500D02*
X141848548Y-109079880D01*
X141848548Y-109079880D02*
X142162834Y-109079880D01*
X142162834Y-109079880D02*
X142267596Y-109127500D01*
X142267596Y-109127500D02*
X142319977Y-109175119D01*
X140643786Y-110079880D02*
X141167596Y-110079880D01*
X141167596Y-110079880D02*
X141219977Y-109603690D01*
X141219977Y-109603690D02*
X141167596Y-109651309D01*
X141167596Y-109651309D02*
X141062834Y-109698928D01*
X141062834Y-109698928D02*
X140800929Y-109698928D01*
X140800929Y-109698928D02*
X140696167Y-109651309D01*
X140696167Y-109651309D02*
X140643786Y-109603690D01*
X140643786Y-109603690D02*
X140591405Y-109508452D01*
X140591405Y-109508452D02*
X140591405Y-109270357D01*
X140591405Y-109270357D02*
X140643786Y-109175119D01*
X140643786Y-109175119D02*
X140696167Y-109127500D01*
X140696167Y-109127500D02*
X140800929Y-109079880D01*
X140800929Y-109079880D02*
X141062834Y-109079880D01*
X141062834Y-109079880D02*
X141167596Y-109127500D01*
X141167596Y-109127500D02*
X141219977Y-109175119D01*
X145515215Y-112532261D02*
X145619977Y-112579880D01*
X145619977Y-112579880D02*
X145777120Y-112579880D01*
X145777120Y-112579880D02*
X145934263Y-112532261D01*
X145934263Y-112532261D02*
X146039025Y-112437023D01*
X146039025Y-112437023D02*
X146091406Y-112341785D01*
X146091406Y-112341785D02*
X146143787Y-112151309D01*
X146143787Y-112151309D02*
X146143787Y-112008452D01*
X146143787Y-112008452D02*
X146091406Y-111817976D01*
X146091406Y-111817976D02*
X146039025Y-111722738D01*
X146039025Y-111722738D02*
X145934263Y-111627500D01*
X145934263Y-111627500D02*
X145777120Y-111579880D01*
X145777120Y-111579880D02*
X145672358Y-111579880D01*
X145672358Y-111579880D02*
X145515215Y-111627500D01*
X145515215Y-111627500D02*
X145462834Y-111675119D01*
X145462834Y-111675119D02*
X145462834Y-112008452D01*
X145462834Y-112008452D02*
X145672358Y-112008452D01*
X144991406Y-111579880D02*
X144991406Y-112579880D01*
X144991406Y-112579880D02*
X144572358Y-112579880D01*
X144572358Y-112579880D02*
X144467596Y-112532261D01*
X144467596Y-112532261D02*
X144415215Y-112484642D01*
X144415215Y-112484642D02*
X144362834Y-112389404D01*
X144362834Y-112389404D02*
X144362834Y-112246547D01*
X144362834Y-112246547D02*
X144415215Y-112151309D01*
X144415215Y-112151309D02*
X144467596Y-112103690D01*
X144467596Y-112103690D02*
X144572358Y-112056071D01*
X144572358Y-112056071D02*
X144991406Y-112056071D01*
X143891406Y-111579880D02*
X143891406Y-112579880D01*
X143158072Y-112579880D02*
X142948548Y-112579880D01*
X142948548Y-112579880D02*
X142843786Y-112532261D01*
X142843786Y-112532261D02*
X142739024Y-112437023D01*
X142739024Y-112437023D02*
X142686643Y-112246547D01*
X142686643Y-112246547D02*
X142686643Y-111913214D01*
X142686643Y-111913214D02*
X142739024Y-111722738D01*
X142739024Y-111722738D02*
X142843786Y-111627500D01*
X142843786Y-111627500D02*
X142948548Y-111579880D01*
X142948548Y-111579880D02*
X143158072Y-111579880D01*
X143158072Y-111579880D02*
X143262834Y-111627500D01*
X143262834Y-111627500D02*
X143367596Y-111722738D01*
X143367596Y-111722738D02*
X143419977Y-111913214D01*
X143419977Y-111913214D02*
X143419977Y-112246547D01*
X143419977Y-112246547D02*
X143367596Y-112437023D01*
X143367596Y-112437023D02*
X143262834Y-112532261D01*
X143262834Y-112532261D02*
X143158072Y-112579880D01*
X142319977Y-112579880D02*
X141639024Y-112579880D01*
X141639024Y-112579880D02*
X142005691Y-112198928D01*
X142005691Y-112198928D02*
X141848548Y-112198928D01*
X141848548Y-112198928D02*
X141743786Y-112151309D01*
X141743786Y-112151309D02*
X141691405Y-112103690D01*
X141691405Y-112103690D02*
X141639024Y-112008452D01*
X141639024Y-112008452D02*
X141639024Y-111770357D01*
X141639024Y-111770357D02*
X141691405Y-111675119D01*
X141691405Y-111675119D02*
X141743786Y-111627500D01*
X141743786Y-111627500D02*
X141848548Y-111579880D01*
X141848548Y-111579880D02*
X142162834Y-111579880D01*
X142162834Y-111579880D02*
X142267596Y-111627500D01*
X142267596Y-111627500D02*
X142319977Y-111675119D01*
X140696167Y-112246547D02*
X140696167Y-111579880D01*
X140958072Y-112627500D02*
X141219977Y-111913214D01*
X141219977Y-111913214D02*
X140539024Y-111913214D01*
X145515215Y-115032261D02*
X145619977Y-115079880D01*
X145619977Y-115079880D02*
X145777120Y-115079880D01*
X145777120Y-115079880D02*
X145934263Y-115032261D01*
X145934263Y-115032261D02*
X146039025Y-114937023D01*
X146039025Y-114937023D02*
X146091406Y-114841785D01*
X146091406Y-114841785D02*
X146143787Y-114651309D01*
X146143787Y-114651309D02*
X146143787Y-114508452D01*
X146143787Y-114508452D02*
X146091406Y-114317976D01*
X146091406Y-114317976D02*
X146039025Y-114222738D01*
X146039025Y-114222738D02*
X145934263Y-114127500D01*
X145934263Y-114127500D02*
X145777120Y-114079880D01*
X145777120Y-114079880D02*
X145672358Y-114079880D01*
X145672358Y-114079880D02*
X145515215Y-114127500D01*
X145515215Y-114127500D02*
X145462834Y-114175119D01*
X145462834Y-114175119D02*
X145462834Y-114508452D01*
X145462834Y-114508452D02*
X145672358Y-114508452D01*
X144991406Y-114079880D02*
X144991406Y-115079880D01*
X144991406Y-115079880D02*
X144572358Y-115079880D01*
X144572358Y-115079880D02*
X144467596Y-115032261D01*
X144467596Y-115032261D02*
X144415215Y-114984642D01*
X144415215Y-114984642D02*
X144362834Y-114889404D01*
X144362834Y-114889404D02*
X144362834Y-114746547D01*
X144362834Y-114746547D02*
X144415215Y-114651309D01*
X144415215Y-114651309D02*
X144467596Y-114603690D01*
X144467596Y-114603690D02*
X144572358Y-114556071D01*
X144572358Y-114556071D02*
X144991406Y-114556071D01*
X143891406Y-114079880D02*
X143891406Y-115079880D01*
X143158072Y-115079880D02*
X142948548Y-115079880D01*
X142948548Y-115079880D02*
X142843786Y-115032261D01*
X142843786Y-115032261D02*
X142739024Y-114937023D01*
X142739024Y-114937023D02*
X142686643Y-114746547D01*
X142686643Y-114746547D02*
X142686643Y-114413214D01*
X142686643Y-114413214D02*
X142739024Y-114222738D01*
X142739024Y-114222738D02*
X142843786Y-114127500D01*
X142843786Y-114127500D02*
X142948548Y-114079880D01*
X142948548Y-114079880D02*
X143158072Y-114079880D01*
X143158072Y-114079880D02*
X143262834Y-114127500D01*
X143262834Y-114127500D02*
X143367596Y-114222738D01*
X143367596Y-114222738D02*
X143419977Y-114413214D01*
X143419977Y-114413214D02*
X143419977Y-114746547D01*
X143419977Y-114746547D02*
X143367596Y-114937023D01*
X143367596Y-114937023D02*
X143262834Y-115032261D01*
X143262834Y-115032261D02*
X143158072Y-115079880D01*
X142319977Y-115079880D02*
X141639024Y-115079880D01*
X141639024Y-115079880D02*
X142005691Y-114698928D01*
X142005691Y-114698928D02*
X141848548Y-114698928D01*
X141848548Y-114698928D02*
X141743786Y-114651309D01*
X141743786Y-114651309D02*
X141691405Y-114603690D01*
X141691405Y-114603690D02*
X141639024Y-114508452D01*
X141639024Y-114508452D02*
X141639024Y-114270357D01*
X141639024Y-114270357D02*
X141691405Y-114175119D01*
X141691405Y-114175119D02*
X141743786Y-114127500D01*
X141743786Y-114127500D02*
X141848548Y-114079880D01*
X141848548Y-114079880D02*
X142162834Y-114079880D01*
X142162834Y-114079880D02*
X142267596Y-114127500D01*
X142267596Y-114127500D02*
X142319977Y-114175119D01*
X141115215Y-114079880D02*
X140905691Y-114079880D01*
X140905691Y-114079880D02*
X140800929Y-114127500D01*
X140800929Y-114127500D02*
X140748548Y-114175119D01*
X140748548Y-114175119D02*
X140643786Y-114317976D01*
X140643786Y-114317976D02*
X140591405Y-114508452D01*
X140591405Y-114508452D02*
X140591405Y-114889404D01*
X140591405Y-114889404D02*
X140643786Y-114984642D01*
X140643786Y-114984642D02*
X140696167Y-115032261D01*
X140696167Y-115032261D02*
X140800929Y-115079880D01*
X140800929Y-115079880D02*
X141010453Y-115079880D01*
X141010453Y-115079880D02*
X141115215Y-115032261D01*
X141115215Y-115032261D02*
X141167596Y-114984642D01*
X141167596Y-114984642D02*
X141219977Y-114889404D01*
X141219977Y-114889404D02*
X141219977Y-114651309D01*
X141219977Y-114651309D02*
X141167596Y-114556071D01*
X141167596Y-114556071D02*
X141115215Y-114508452D01*
X141115215Y-114508452D02*
X141010453Y-114460833D01*
X141010453Y-114460833D02*
X140800929Y-114460833D01*
X140800929Y-114460833D02*
X140696167Y-114508452D01*
X140696167Y-114508452D02*
X140643786Y-114556071D01*
X140643786Y-114556071D02*
X140591405Y-114651309D01*
X145515215Y-117532261D02*
X145619977Y-117579880D01*
X145619977Y-117579880D02*
X145777120Y-117579880D01*
X145777120Y-117579880D02*
X145934263Y-117532261D01*
X145934263Y-117532261D02*
X146039025Y-117437023D01*
X146039025Y-117437023D02*
X146091406Y-117341785D01*
X146091406Y-117341785D02*
X146143787Y-117151309D01*
X146143787Y-117151309D02*
X146143787Y-117008452D01*
X146143787Y-117008452D02*
X146091406Y-116817976D01*
X146091406Y-116817976D02*
X146039025Y-116722738D01*
X146039025Y-116722738D02*
X145934263Y-116627500D01*
X145934263Y-116627500D02*
X145777120Y-116579880D01*
X145777120Y-116579880D02*
X145672358Y-116579880D01*
X145672358Y-116579880D02*
X145515215Y-116627500D01*
X145515215Y-116627500D02*
X145462834Y-116675119D01*
X145462834Y-116675119D02*
X145462834Y-117008452D01*
X145462834Y-117008452D02*
X145672358Y-117008452D01*
X144991406Y-116579880D02*
X144991406Y-117579880D01*
X144991406Y-117579880D02*
X144572358Y-117579880D01*
X144572358Y-117579880D02*
X144467596Y-117532261D01*
X144467596Y-117532261D02*
X144415215Y-117484642D01*
X144415215Y-117484642D02*
X144362834Y-117389404D01*
X144362834Y-117389404D02*
X144362834Y-117246547D01*
X144362834Y-117246547D02*
X144415215Y-117151309D01*
X144415215Y-117151309D02*
X144467596Y-117103690D01*
X144467596Y-117103690D02*
X144572358Y-117056071D01*
X144572358Y-117056071D02*
X144991406Y-117056071D01*
X143891406Y-116579880D02*
X143891406Y-117579880D01*
X143158072Y-117579880D02*
X142948548Y-117579880D01*
X142948548Y-117579880D02*
X142843786Y-117532261D01*
X142843786Y-117532261D02*
X142739024Y-117437023D01*
X142739024Y-117437023D02*
X142686643Y-117246547D01*
X142686643Y-117246547D02*
X142686643Y-116913214D01*
X142686643Y-116913214D02*
X142739024Y-116722738D01*
X142739024Y-116722738D02*
X142843786Y-116627500D01*
X142843786Y-116627500D02*
X142948548Y-116579880D01*
X142948548Y-116579880D02*
X143158072Y-116579880D01*
X143158072Y-116579880D02*
X143262834Y-116627500D01*
X143262834Y-116627500D02*
X143367596Y-116722738D01*
X143367596Y-116722738D02*
X143419977Y-116913214D01*
X143419977Y-116913214D02*
X143419977Y-117246547D01*
X143419977Y-117246547D02*
X143367596Y-117437023D01*
X143367596Y-117437023D02*
X143262834Y-117532261D01*
X143262834Y-117532261D02*
X143158072Y-117579880D01*
X142319977Y-117579880D02*
X141639024Y-117579880D01*
X141639024Y-117579880D02*
X142005691Y-117198928D01*
X142005691Y-117198928D02*
X141848548Y-117198928D01*
X141848548Y-117198928D02*
X141743786Y-117151309D01*
X141743786Y-117151309D02*
X141691405Y-117103690D01*
X141691405Y-117103690D02*
X141639024Y-117008452D01*
X141639024Y-117008452D02*
X141639024Y-116770357D01*
X141639024Y-116770357D02*
X141691405Y-116675119D01*
X141691405Y-116675119D02*
X141743786Y-116627500D01*
X141743786Y-116627500D02*
X141848548Y-116579880D01*
X141848548Y-116579880D02*
X142162834Y-116579880D01*
X142162834Y-116579880D02*
X142267596Y-116627500D01*
X142267596Y-116627500D02*
X142319977Y-116675119D01*
X140696167Y-117579880D02*
X140905691Y-117579880D01*
X140905691Y-117579880D02*
X141010453Y-117532261D01*
X141010453Y-117532261D02*
X141062834Y-117484642D01*
X141062834Y-117484642D02*
X141167596Y-117341785D01*
X141167596Y-117341785D02*
X141219977Y-117151309D01*
X141219977Y-117151309D02*
X141219977Y-116770357D01*
X141219977Y-116770357D02*
X141167596Y-116675119D01*
X141167596Y-116675119D02*
X141115215Y-116627500D01*
X141115215Y-116627500D02*
X141010453Y-116579880D01*
X141010453Y-116579880D02*
X140800929Y-116579880D01*
X140800929Y-116579880D02*
X140696167Y-116627500D01*
X140696167Y-116627500D02*
X140643786Y-116675119D01*
X140643786Y-116675119D02*
X140591405Y-116770357D01*
X140591405Y-116770357D02*
X140591405Y-117008452D01*
X140591405Y-117008452D02*
X140643786Y-117103690D01*
X140643786Y-117103690D02*
X140696167Y-117151309D01*
X140696167Y-117151309D02*
X140800929Y-117198928D01*
X140800929Y-117198928D02*
X141010453Y-117198928D01*
X141010453Y-117198928D02*
X141115215Y-117151309D01*
X141115215Y-117151309D02*
X141167596Y-117103690D01*
X141167596Y-117103690D02*
X141219977Y-117008452D01*
X146091406Y-119603690D02*
X145724739Y-119603690D01*
X145567596Y-119079880D02*
X146091406Y-119079880D01*
X146091406Y-119079880D02*
X146091406Y-120079880D01*
X146091406Y-120079880D02*
X145567596Y-120079880D01*
X145096168Y-119079880D02*
X145096168Y-120079880D01*
X145096168Y-120079880D02*
X144467596Y-119079880D01*
X144467596Y-119079880D02*
X144467596Y-120079880D01*
D12*
X158700057Y-119657738D02*
X158652438Y-119752976D01*
X158652438Y-119752976D02*
X158557200Y-119848214D01*
X158557200Y-119848214D02*
X158414342Y-119991071D01*
X158414342Y-119991071D02*
X158366723Y-120086309D01*
X158366723Y-120086309D02*
X158366723Y-120181547D01*
X158604819Y-120133928D02*
X158557200Y-120229166D01*
X158557200Y-120229166D02*
X158461961Y-120324404D01*
X158461961Y-120324404D02*
X158271485Y-120372023D01*
X158271485Y-120372023D02*
X157938152Y-120372023D01*
X157938152Y-120372023D02*
X157747676Y-120324404D01*
X157747676Y-120324404D02*
X157652438Y-120229166D01*
X157652438Y-120229166D02*
X157604819Y-120133928D01*
X157604819Y-120133928D02*
X157604819Y-119943452D01*
X157604819Y-119943452D02*
X157652438Y-119848214D01*
X157652438Y-119848214D02*
X157747676Y-119752976D01*
X157747676Y-119752976D02*
X157938152Y-119705357D01*
X157938152Y-119705357D02*
X158271485Y-119705357D01*
X158271485Y-119705357D02*
X158461961Y-119752976D01*
X158461961Y-119752976D02*
X158557200Y-119848214D01*
X158557200Y-119848214D02*
X158604819Y-119943452D01*
X158604819Y-119943452D02*
X158604819Y-120133928D01*
X158604819Y-118752976D02*
X158604819Y-119324404D01*
X158604819Y-119038690D02*
X157604819Y-119038690D01*
X157604819Y-119038690D02*
X157747676Y-119133928D01*
X157747676Y-119133928D02*
X157842914Y-119229166D01*
X157842914Y-119229166D02*
X157890533Y-119324404D01*
X153166666Y-123334819D02*
X153166666Y-124049104D01*
X153166666Y-124049104D02*
X153119047Y-124191961D01*
X153119047Y-124191961D02*
X153023809Y-124287200D01*
X153023809Y-124287200D02*
X152880952Y-124334819D01*
X152880952Y-124334819D02*
X152785714Y-124334819D01*
X154071428Y-123334819D02*
X153880952Y-123334819D01*
X153880952Y-123334819D02*
X153785714Y-123382438D01*
X153785714Y-123382438D02*
X153738095Y-123430057D01*
X153738095Y-123430057D02*
X153642857Y-123572914D01*
X153642857Y-123572914D02*
X153595238Y-123763390D01*
X153595238Y-123763390D02*
X153595238Y-124144342D01*
X153595238Y-124144342D02*
X153642857Y-124239580D01*
X153642857Y-124239580D02*
X153690476Y-124287200D01*
X153690476Y-124287200D02*
X153785714Y-124334819D01*
X153785714Y-124334819D02*
X153976190Y-124334819D01*
X153976190Y-124334819D02*
X154071428Y-124287200D01*
X154071428Y-124287200D02*
X154119047Y-124239580D01*
X154119047Y-124239580D02*
X154166666Y-124144342D01*
X154166666Y-124144342D02*
X154166666Y-123906247D01*
X154166666Y-123906247D02*
X154119047Y-123811009D01*
X154119047Y-123811009D02*
X154071428Y-123763390D01*
X154071428Y-123763390D02*
X153976190Y-123715771D01*
X153976190Y-123715771D02*
X153785714Y-123715771D01*
X153785714Y-123715771D02*
X153690476Y-123763390D01*
X153690476Y-123763390D02*
X153642857Y-123811009D01*
X153642857Y-123811009D02*
X153595238Y-123906247D01*
X169206666Y-87774819D02*
X169206666Y-88489104D01*
X169206666Y-88489104D02*
X169159047Y-88631961D01*
X169159047Y-88631961D02*
X169063809Y-88727200D01*
X169063809Y-88727200D02*
X168920952Y-88774819D01*
X168920952Y-88774819D02*
X168825714Y-88774819D01*
X169587619Y-87774819D02*
X170254285Y-87774819D01*
X170254285Y-87774819D02*
X169825714Y-88774819D01*
X120104819Y-127761904D02*
X119104819Y-127761904D01*
X119581009Y-127761904D02*
X119581009Y-127190476D01*
X120104819Y-127190476D02*
X119104819Y-127190476D01*
X119200057Y-126761904D02*
X119152438Y-126714285D01*
X119152438Y-126714285D02*
X119104819Y-126619047D01*
X119104819Y-126619047D02*
X119104819Y-126380952D01*
X119104819Y-126380952D02*
X119152438Y-126285714D01*
X119152438Y-126285714D02*
X119200057Y-126238095D01*
X119200057Y-126238095D02*
X119295295Y-126190476D01*
X119295295Y-126190476D02*
X119390533Y-126190476D01*
X119390533Y-126190476D02*
X119533390Y-126238095D01*
X119533390Y-126238095D02*
X120104819Y-126809523D01*
X120104819Y-126809523D02*
X120104819Y-126190476D01*
%TO.C,J3*%
D13*
X178137300Y-85057700D02*
X188177300Y-85057700D01*
X178137300Y-120857700D02*
X178137300Y-85057700D01*
X181157300Y-120857700D02*
X181157300Y-85057700D01*
X186057300Y-120857700D02*
X186057300Y-85057700D01*
X187557300Y-120857700D02*
X187557300Y-85057700D01*
X188177300Y-85057700D02*
X188177300Y-117897700D01*
X188177300Y-118497700D02*
X188177300Y-120857700D01*
X188177300Y-120857700D02*
X178137300Y-120857700D01*
X188177300Y-118197700D02*
X188787300Y-117757700D01*
X188787300Y-118637700D01*
X188177300Y-118197700D01*
G36*
X188787300Y-118637700D02*
G01*
X188177300Y-118197700D01*
X188787300Y-117757700D01*
X188787300Y-118637700D01*
G37*
%TO.C,J2*%
X172120000Y-90535000D02*
X173500000Y-90535000D01*
X172120000Y-91915000D02*
X172120000Y-90535000D01*
X172120000Y-93185000D02*
X172120000Y-116155000D01*
X172120000Y-93185000D02*
X174880000Y-93185000D01*
X172120000Y-116155000D02*
X174880000Y-116155000D01*
X174880000Y-93185000D02*
X174880000Y-116155000D01*
%TO.C,R1*%
X157262742Y-123040000D02*
X157737258Y-123040000D01*
X157262742Y-124085000D02*
X157737258Y-124085000D01*
%TO.C,J8*%
X151040000Y-77620000D02*
X151040000Y-80380000D01*
X158770000Y-77620000D02*
X151040000Y-77620000D01*
X158770000Y-77620000D02*
X158770000Y-80380000D01*
X158770000Y-80380000D02*
X151040000Y-80380000D01*
X160040000Y-77620000D02*
X161420000Y-77620000D01*
X161420000Y-77620000D02*
X161420000Y-79000000D01*
%TO.C,R2*%
X162737258Y-122977500D02*
X162262742Y-122977500D01*
X162737258Y-124022500D02*
X162262742Y-124022500D01*
%TO.C,J5*%
X114564100Y-120197200D02*
X114564100Y-84527200D01*
X117324100Y-84527200D02*
X114564100Y-84527200D01*
X117324100Y-120197200D02*
X114564100Y-120197200D01*
X117324100Y-120197200D02*
X117324100Y-84527200D01*
X117324100Y-121467200D02*
X117324100Y-122847200D01*
X117324100Y-122847200D02*
X115944100Y-122847200D01*
%TO.C,J1*%
X159865000Y-90535000D02*
X161245000Y-90535000D01*
X159865000Y-91915000D02*
X159865000Y-90535000D01*
X159865000Y-93185000D02*
X159865000Y-116155000D01*
X159865000Y-93185000D02*
X162625000Y-93185000D01*
X159865000Y-116155000D02*
X162625000Y-116155000D01*
X162625000Y-93185000D02*
X162625000Y-116155000D01*
%TO.C,U1*%
D11*
X130609100Y-76452301D02*
X138229100Y-76452301D01*
X138229100Y-79592300D01*
X130609100Y-79592300D01*
X130609100Y-76452301D01*
D14*
X120449100Y-76352300D02*
X148749100Y-76352300D01*
X148749100Y-127852300D01*
X120449100Y-127852300D01*
X120449100Y-76352300D01*
%TO.C,Q1*%
D13*
X158990000Y-118802500D02*
X159990000Y-118802500D01*
X158990000Y-120322500D02*
X158990000Y-118802500D01*
X159040000Y-120322500D02*
X158990000Y-120322500D01*
X160940000Y-120322500D02*
X160160000Y-120322500D01*
X161110000Y-118802500D02*
X162110000Y-118802500D01*
X162110000Y-118802500D02*
X162110000Y-120322500D01*
X162110000Y-120322500D02*
X162060000Y-120322500D01*
X160170000Y-120862500D02*
X160500000Y-120622500D01*
X160500000Y-121102500D01*
X160170000Y-120862500D01*
G36*
X160500000Y-121102500D02*
G01*
X160170000Y-120862500D01*
X160500000Y-120622500D01*
X160500000Y-121102500D01*
G37*
%TO.C,J6*%
X152120000Y-120230000D02*
X152120000Y-84560000D01*
X154880000Y-84560000D02*
X152120000Y-84560000D01*
X154880000Y-120230000D02*
X152120000Y-120230000D01*
X154880000Y-120230000D02*
X154880000Y-84560000D01*
X154880000Y-121500000D02*
X154880000Y-122880000D01*
X154880000Y-122880000D02*
X153500000Y-122880000D01*
%TO.C,J7*%
X164340000Y-77280000D02*
X171780000Y-77280000D01*
X164340000Y-87320000D02*
X164340000Y-77280000D01*
X172380000Y-77280000D02*
X174740000Y-77280000D01*
X174740000Y-77280000D02*
X174740000Y-87320000D01*
X174740000Y-77900000D02*
X164340000Y-77900000D01*
X174740000Y-79400000D02*
X164340000Y-79400000D01*
X174740000Y-84300000D02*
X164340000Y-84300000D01*
X174740000Y-87320000D02*
X164340000Y-87320000D01*
X172080000Y-77280000D02*
X171640000Y-76670000D01*
X172520000Y-76670000D01*
X172080000Y-77280000D01*
G36*
X172080000Y-77280000D02*
G01*
X171640000Y-76670000D01*
X172520000Y-76670000D01*
X172080000Y-77280000D01*
G37*
%TD*%
M02*
