%TF.GenerationSoftware,KiCad,Pcbnew,10.0.2*%
%TF.CreationDate,2026-05-22T13:30:26+05:30*%
%TF.ProjectId,pcb,7063622e-6b69-4636-9164-5f7063625858,rev?*%
%TF.SameCoordinates,Original*%
%TF.FileFunction,Copper,L2,Bot*%
%TF.FilePolarity,Positive*%
%FSLAX46Y46*%
G04 Gerber Fmt 4.6, Leading zero omitted, Abs format (unit mm)*
G04 Created by KiCad (PCBNEW 10.0.2) date 2026-05-22 13:30:26*
%MOMM*%
%LPD*%
G01*
G04 APERTURE LIST*
G04 Aperture macros list*
%AMRoundRect*
0 Rectangle with rounded corners*
0 $1 Rounding radius*
0 $2 $3 $4 $5 $6 $7 $8 $9 X,Y pos of 4 corners*
0 Add a 4 corners polygon primitive as box body*
4,1,4,$2,$3,$4,$5,$6,$7,$8,$9,$2,$3,0*
0 Add four circle primitives for the rounded corners*
1,1,$1+$1,$2,$3*
1,1,$1+$1,$4,$5*
1,1,$1+$1,$6,$7*
1,1,$1+$1,$8,$9*
0 Add four rect primitives between the rounded corners*
20,1,$1+$1,$2,$3,$4,$5,0*
20,1,$1+$1,$4,$5,$6,$7,0*
20,1,$1+$1,$6,$7,$8,$9,0*
20,1,$1+$1,$8,$9,$2,$3,0*%
G04 Aperture macros list end*
%TA.AperFunction,ComponentPad*%
%ADD10RoundRect,0.250000X1.050000X-1.050000X1.050000X1.050000X-1.050000X1.050000X-1.050000X-1.050000X0*%
%TD*%
%TA.AperFunction,ComponentPad*%
%ADD11C,2.600000*%
%TD*%
%TA.AperFunction,ComponentPad*%
%ADD12R,1.700000X1.700000*%
%TD*%
%TA.AperFunction,ComponentPad*%
%ADD13C,1.700000*%
%TD*%
%TA.AperFunction,ComponentPad*%
%ADD14C,2.000000*%
%TD*%
%TA.AperFunction,ComponentPad*%
%ADD15O,1.900000X1.524000*%
%TD*%
%TA.AperFunction,Conductor*%
%ADD16C,0.200000*%
%TD*%
G04 APERTURE END LIST*
D10*
%TO.P,J3,1,Pin_1_1*%
%TO.N,/F{slash}R_OUT*%
X186957300Y-118197700D03*
D11*
%TO.P,J3,2,Pin_2_2*%
%TO.N,/EN_OUT*%
X186957300Y-113117700D03*
%TO.P,J3,3,Pin_3_3*%
%TO.N,/BRK_OUT*%
X186957300Y-108037700D03*
%TO.P,J3,4,Pin_4_4*%
%TO.N,/SPEED_OUT*%
X186957300Y-102957700D03*
%TO.P,J3,5,Pin_5_5*%
%TO.N,/ALM_OUT*%
X186957300Y-97877700D03*
%TO.P,J3,6,Pin_6_6*%
%TO.N,GND*%
X186957300Y-92797700D03*
%TO.P,J3,7,Pin_7_7*%
%TO.N,/SV_OUT*%
X186957300Y-87717700D03*
%TD*%
D12*
%TO.P,J2,1,Pin_1_1*%
%TO.N,+5V*%
X176000000Y-81915000D03*
D13*
%TO.P,J2,2,Pin_2_2*%
%TO.N,/SV_OUT*%
X176000000Y-84455000D03*
%TO.P,J2,3,Pin_3_3*%
%TO.N,/ALM_OUT*%
X176000000Y-86995000D03*
%TO.P,J2,4,Pin_4_4*%
%TO.N,/SPEED_OUT*%
X176000000Y-89535000D03*
%TO.P,J2,5,Pin_5_5*%
%TO.N,/BRK_OUT*%
X176000000Y-92075000D03*
%TO.P,J2,6,Pin_6_6*%
%TO.N,/EN_OUT*%
X176000000Y-94615000D03*
%TO.P,J2,7,Pin_7_7*%
%TO.N,/F{slash}R_OUT*%
X176000000Y-97155000D03*
%TO.P,J2,8,Pin_8_8*%
%TO.N,unconnected-(J2-Pin_8-Pad8)*%
X176000000Y-99695000D03*
%TO.P,J2,9,Pin_9_9*%
%TO.N,unconnected-(J2-Pin_9-Pad9)*%
X176000000Y-102235000D03*
%TO.P,J2,10,Pin_10_10*%
%TO.N,GND*%
X176000000Y-104775000D03*
%TD*%
D14*
%TO.P,J4,1,Pin_1_1*%
%TO.N,unconnected-(J4-Pin_1-Pad1)*%
X171120000Y-118120000D03*
%TD*%
%TO.P,J4,1,Pin_1_1*%
%TO.N,unconnected-(J4-Pin_1-Pad1)*%
X173660000Y-115580000D03*
%TD*%
%TO.P,J4,1,Pin_1_1*%
%TO.N,unconnected-(J4-Pin_1-Pad1)*%
X178740000Y-113040000D03*
%TD*%
%TO.P,J4,1,Pin_1_1*%
%TO.N,unconnected-(J4-Pin_1-Pad1)*%
X166040000Y-115580000D03*
%TD*%
%TO.P,J4,1,Pin_1_1*%
%TO.N,unconnected-(J4-Pin_1-Pad1)*%
X176200000Y-120660000D03*
%TD*%
%TO.P,J4,1,Pin_1_1*%
%TO.N,unconnected-(J4-Pin_1-Pad1)*%
X176200000Y-123200000D03*
%TD*%
%TO.P,J4,1,Pin_1_1*%
%TO.N,unconnected-(J4-Pin_1-Pad1)*%
X173660000Y-110500000D03*
%TD*%
%TO.P,J4,1,Pin_1_1*%
%TO.N,unconnected-(J4-Pin_1-Pad1)*%
X173660000Y-113040000D03*
%TD*%
%TO.P,J4,1,Pin_1_1*%
%TO.N,unconnected-(J4-Pin_1-Pad1)*%
X173660000Y-118120000D03*
%TD*%
%TO.P,J4,1,Pin_1_1*%
%TO.N,unconnected-(J4-Pin_1-Pad1)*%
X168580000Y-115580000D03*
%TD*%
%TO.P,J4,1,Pin_1_1*%
%TO.N,unconnected-(J4-Pin_1-Pad1)*%
X171120000Y-110500000D03*
%TD*%
%TO.P,J4,1,Pin_1_1*%
%TO.N,unconnected-(J4-Pin_1-Pad1)*%
X171120000Y-115580000D03*
%TD*%
%TO.P,J4,1,Pin_1_1*%
%TO.N,unconnected-(J4-Pin_1-Pad1)*%
X168580000Y-120660000D03*
%TD*%
D12*
%TO.P,J8,1,Pin_1_1*%
%TO.N,/LED_R*%
X153420000Y-133000000D03*
D13*
%TO.P,J8,2,Pin_2_2*%
%TO.N,GND*%
X155960000Y-133000000D03*
%TO.P,J8,3,Pin_3_3*%
%TO.N,/LED_G*%
X158500000Y-133000000D03*
%TO.P,J8,4,Pin_4_4*%
%TO.N,/LED_B*%
X161040000Y-133000000D03*
%TD*%
D14*
%TO.P,J4,1,Pin_1_1*%
%TO.N,unconnected-(J4-Pin_1-Pad1)*%
X171120000Y-123200000D03*
%TD*%
%TO.P,J4,1,Pin_1_1*%
%TO.N,unconnected-(J4-Pin_1-Pad1)*%
X166040000Y-113040000D03*
%TD*%
%TO.P,J4,1,Pin_1_1*%
%TO.N,unconnected-(J4-Pin_1-Pad1)*%
X178740000Y-120660000D03*
%TD*%
%TO.P,J4,1,Pin_1_1*%
%TO.N,unconnected-(J4-Pin_1-Pad1)*%
X173660000Y-120660000D03*
%TD*%
%TO.P,J4,1,Pin_1_1*%
%TO.N,unconnected-(J4-Pin_1-Pad1)*%
X178740000Y-110500000D03*
%TD*%
%TO.P,J4,1,Pin_1_1*%
%TO.N,unconnected-(J4-Pin_1-Pad1)*%
X178740000Y-118120000D03*
%TD*%
%TO.P,J4,1,Pin_1_1*%
%TO.N,unconnected-(J4-Pin_1-Pad1)*%
X163500000Y-110500000D03*
%TD*%
%TO.P,J4,1,Pin_1_1*%
%TO.N,unconnected-(J4-Pin_1-Pad1)*%
X163500000Y-115580000D03*
%TD*%
%TO.P,J4,1,Pin_1_1*%
%TO.N,unconnected-(J4-Pin_1-Pad1)*%
X163500000Y-113040000D03*
%TD*%
%TO.P,J4,1,Pin_1_1*%
%TO.N,unconnected-(J4-Pin_1-Pad1)*%
X168580000Y-123200000D03*
%TD*%
%TO.P,J4,1,Pin_1_1*%
%TO.N,unconnected-(J4-Pin_1-Pad1)*%
X171120000Y-113040000D03*
%TD*%
D12*
%TO.P,J5,1,Pin_1_1*%
%TO.N,/SWITCH*%
X115944100Y-124967200D03*
D13*
%TO.P,J5,2,Pin_2_2*%
%TO.N,Net-(J5-Pin_2)*%
X115944100Y-122427200D03*
%TO.P,J5,3,Pin_3_3*%
%TO.N,Net-(J5-Pin_3)*%
X115944100Y-119887200D03*
%TO.P,J5,4,Pin_4_4*%
%TO.N,Net-(J5-Pin_4)*%
X115944100Y-117347200D03*
%TO.P,J5,5,Pin_5_5*%
%TO.N,/LED_R*%
X115944100Y-114807200D03*
%TO.P,J5,6,Pin_6_6*%
%TO.N,/LED_G*%
X115944100Y-112267200D03*
%TO.P,J5,7,Pin_7_7*%
%TO.N,/LED_B*%
X115944100Y-109727200D03*
%TO.P,J5,8,Pin_8_8*%
%TO.N,Net-(J5-Pin_8)*%
X115944100Y-107187200D03*
%TO.P,J5,9,Pin_9_9*%
%TO.N,Net-(J5-Pin_9)*%
X115944100Y-104647200D03*
%TO.P,J5,10,Pin_10_10*%
%TO.N,Net-(J5-Pin_10)*%
X115944100Y-102107200D03*
%TO.P,J5,11,Pin_11_11*%
%TO.N,Net-(J5-Pin_11)*%
X115944100Y-99567200D03*
%TO.P,J5,12,Pin_12_12*%
%TO.N,Net-(J5-Pin_12)*%
X115944100Y-97027200D03*
%TO.P,J5,13,Pin_13_13*%
%TO.N,Net-(J5-Pin_13)*%
X115944100Y-94487200D03*
%TO.P,J5,14,Pin_14_14*%
%TO.N,GND*%
X115944100Y-91947200D03*
%TO.P,J5,15,Pin_15_15*%
%TO.N,+3V3*%
X115944100Y-89407200D03*
%TD*%
D14*
%TO.P,J4,1,Pin_1_1*%
%TO.N,unconnected-(J4-Pin_1-Pad1)*%
X176200000Y-118120000D03*
%TD*%
%TO.P,J4,1,Pin_1_1*%
%TO.N,unconnected-(J4-Pin_1-Pad1)*%
X176200000Y-113040000D03*
%TD*%
D12*
%TO.P,J1,1,Pin_1_1*%
%TO.N,+3V3*%
X164245000Y-81915000D03*
D13*
%TO.P,J1,2,Pin_2_2*%
%TO.N,/SV*%
X164245000Y-84455000D03*
%TO.P,J1,3,Pin_3_3*%
%TO.N,/ALM*%
X164245000Y-86995000D03*
%TO.P,J1,4,Pin_4_4*%
%TO.N,/SPEED*%
X164245000Y-89535000D03*
%TO.P,J1,5,Pin_5_5*%
%TO.N,/BRK*%
X164245000Y-92075000D03*
%TO.P,J1,6,Pin_6_6*%
%TO.N,/EN*%
X164245000Y-94615000D03*
%TO.P,J1,7,Pin_7_7*%
%TO.N,/F{slash}R*%
X164245000Y-97155000D03*
%TO.P,J1,8,Pin_8_8*%
%TO.N,unconnected-(J1-Pin_8-Pad8)*%
X164245000Y-99695000D03*
%TO.P,J1,9,Pin_9_9*%
%TO.N,unconnected-(J1-Pin_9-Pad9)*%
X164245000Y-102235000D03*
%TO.P,J1,10,Pin_10_10*%
%TO.N,unconnected-(J1-Pin_10-Pad10)*%
X164245000Y-104775000D03*
%TD*%
D14*
%TO.P,J4,1,Pin_1_1*%
%TO.N,unconnected-(J4-Pin_1-Pad1)*%
X171120000Y-120660000D03*
%TD*%
%TO.P,J4,1,Pin_1_1*%
%TO.N,unconnected-(J4-Pin_1-Pad1)*%
X163500000Y-123200000D03*
%TD*%
%TO.P,J4,1,Pin_1_1*%
%TO.N,unconnected-(J4-Pin_1-Pad1)*%
X163500000Y-118120000D03*
%TD*%
%TO.P,J4,1,Pin_1_1*%
%TO.N,unconnected-(J4-Pin_1-Pad1)*%
X178740000Y-123200000D03*
%TD*%
%TO.P,J4,1,Pin_1_1*%
%TO.N,unconnected-(J4-Pin_1-Pad1)*%
X166040000Y-118120000D03*
%TD*%
%TO.P,J4,1,Pin_1_1*%
%TO.N,unconnected-(J4-Pin_1-Pad1)*%
X168580000Y-110500000D03*
%TD*%
%TO.P,J4,1,Pin_1_1*%
%TO.N,unconnected-(J4-Pin_1-Pad1)*%
X163500000Y-120660000D03*
%TD*%
%TO.P,J4,1,Pin_1_1*%
%TO.N,unconnected-(J4-Pin_1-Pad1)*%
X166040000Y-110500000D03*
%TD*%
%TO.P,J4,1,Pin_1_1*%
%TO.N,unconnected-(J4-Pin_1-Pad1)*%
X173660000Y-123200000D03*
%TD*%
%TO.P,J4,1,Pin_1_1*%
%TO.N,unconnected-(J4-Pin_1-Pad1)*%
X176200000Y-115580000D03*
%TD*%
%TO.P,J4,1,Pin_1_1*%
%TO.N,unconnected-(J4-Pin_1-Pad1)*%
X168580000Y-113040000D03*
%TD*%
%TO.P,J4,1,Pin_1_1*%
%TO.N,unconnected-(J4-Pin_1-Pad1)*%
X166040000Y-120660000D03*
%TD*%
D15*
%TO.P,U1,1,VIN_1*%
%TO.N,+5V*%
X147346640Y-89432487D03*
%TO.P,U1,2,GND_2*%
%TO.N,GND*%
X147346640Y-91972487D03*
%TO.P,U1,3,GPIO13_3*%
%TO.N,/SV*%
X147346640Y-94512487D03*
%TO.P,U1,4,GPIO12_4*%
%TO.N,Net-(J6-Pin_12)*%
X147346640Y-97052487D03*
%TO.P,U1,5,GPIO14_5*%
%TO.N,/ALM*%
X147346640Y-99592487D03*
%TO.P,U1,6,GPIO27_6*%
%TO.N,/SPEED*%
X147346640Y-102132487D03*
%TO.P,U1,7,GPIO26_7*%
%TO.N,/BRK*%
X147346640Y-104672487D03*
%TO.P,U1,8,GPIO25_8*%
%TO.N,/F{slash}R*%
X147346640Y-107212487D03*
%TO.P,U1,9,GPIO33_9*%
%TO.N,/EN_GPIO*%
X147346640Y-109752487D03*
%TO.P,U1,10,GPIO32_10*%
%TO.N,Net-(J6-Pin_6)*%
X147346640Y-112292487D03*
%TO.P,U1,11,GPIO35_11*%
%TO.N,Net-(J6-Pin_5)*%
X147346640Y-114832487D03*
%TO.P,U1,12,GPIO34_12*%
%TO.N,Net-(J6-Pin_4)*%
X147346640Y-117372487D03*
%TO.P,U1,13,GPIO39_13*%
%TO.N,Net-(J6-Pin_3)*%
X147346640Y-119912487D03*
%TO.P,U1,14,GPIO36_14*%
%TO.N,Net-(J6-Pin_2)*%
X147346640Y-122452487D03*
%TO.P,U1,15,EN_15*%
%TO.N,Net-(J6-Pin_1)*%
X147346640Y-124992487D03*
%TO.P,U1,16,3.3v_16*%
%TO.N,+3V3*%
X121946640Y-89432487D03*
%TO.P,U1,17,GND_17*%
%TO.N,GND*%
X121946640Y-91972487D03*
%TO.P,U1,18,GPIO15_18*%
%TO.N,Net-(J5-Pin_13)*%
X121946640Y-94512487D03*
%TO.P,U1,19,GPIO2_19*%
%TO.N,Net-(J5-Pin_12)*%
X121946640Y-97052487D03*
%TO.P,U1,20,GPIO4_20*%
%TO.N,Net-(J5-Pin_11)*%
X121946640Y-99592487D03*
%TO.P,U1,21,GPIO16_21*%
%TO.N,Net-(J5-Pin_10)*%
X121946640Y-102132487D03*
%TO.P,U1,22,GPIO17_22*%
%TO.N,Net-(J5-Pin_9)*%
X121946640Y-104672487D03*
%TO.P,U1,23,GPIO5_23*%
%TO.N,Net-(J5-Pin_8)*%
X121946640Y-107212487D03*
%TO.P,U1,24,GPIO18_24*%
%TO.N,/LED_B*%
X121946640Y-109752487D03*
%TO.P,U1,25,GPIO19_25*%
%TO.N,/LED_G*%
X121946640Y-112292487D03*
%TO.P,U1,26,GPIO21_26*%
%TO.N,/LED_R*%
X121946640Y-114832487D03*
%TO.P,U1,27,GPIO3_27*%
%TO.N,Net-(J5-Pin_4)*%
X121946640Y-117372487D03*
%TO.P,U1,28,GPIO1_28*%
%TO.N,Net-(J5-Pin_3)*%
X121946640Y-119912487D03*
%TO.P,U1,29,GPIO22_29*%
%TO.N,Net-(J5-Pin_2)*%
X121946640Y-122452487D03*
%TO.P,U1,30,GPIO23_30*%
%TO.N,/SWITCH*%
X121946640Y-124992487D03*
%TD*%
D12*
%TO.P,J6,1,Pin_1_1*%
%TO.N,Net-(J6-Pin_1)*%
X153400000Y-125000000D03*
D13*
%TO.P,J6,2,Pin_2_2*%
%TO.N,Net-(J6-Pin_2)*%
X153400000Y-122460000D03*
%TO.P,J6,3,Pin_3_3*%
%TO.N,Net-(J6-Pin_3)*%
X153400000Y-119920000D03*
%TO.P,J6,4,Pin_4_4*%
%TO.N,Net-(J6-Pin_4)*%
X153400000Y-117380000D03*
%TO.P,J6,5,Pin_5_5*%
%TO.N,Net-(J6-Pin_5)*%
X153400000Y-114840000D03*
%TO.P,J6,6,Pin_6_6*%
%TO.N,Net-(J6-Pin_6)*%
X153400000Y-112300000D03*
%TO.P,J6,7,Pin_7_7*%
%TO.N,/EN_GPIO*%
X153400000Y-109760000D03*
%TO.P,J6,8,Pin_8_8*%
%TO.N,/F{slash}R*%
X153400000Y-107220000D03*
%TO.P,J6,9,Pin_9_9*%
%TO.N,/BRK*%
X153400000Y-104680000D03*
%TO.P,J6,10,Pin_10_10*%
%TO.N,/SPEED*%
X153400000Y-102140000D03*
%TO.P,J6,11,Pin_11_11*%
%TO.N,/ALM*%
X153400000Y-99600000D03*
%TO.P,J6,12,Pin_12_12*%
%TO.N,Net-(J6-Pin_12)*%
X153400000Y-97060000D03*
%TO.P,J6,13,Pin_13_13*%
%TO.N,/SV*%
X153400000Y-94520000D03*
%TO.P,J6,14,Pin_14_14*%
%TO.N,GND*%
X153400000Y-91980000D03*
%TO.P,J6,15,Pin_15_15*%
%TO.N,+5V*%
X153400000Y-89440000D03*
%TD*%
D10*
%TO.P,J7,1,Pin_1_1*%
%TO.N,/SWITCH*%
X187000000Y-130000000D03*
D11*
%TO.P,J7,2,Pin_2_2*%
%TO.N,GND*%
X187000000Y-124920000D03*
%TD*%
D14*
%TO.P,J4,1,Pin_1_1*%
%TO.N,unconnected-(J4-Pin_1-Pad1)*%
X166040000Y-123200000D03*
%TD*%
%TO.P,J4,1,Pin_1_1*%
%TO.N,unconnected-(J4-Pin_1-Pad1)*%
X176200000Y-110500000D03*
%TD*%
%TO.P,J4,1,Pin_1_1*%
%TO.N,unconnected-(J4-Pin_1-Pad1)*%
X178740000Y-115580000D03*
%TD*%
%TO.P,J4,1,Pin_1_1*%
%TO.N,unconnected-(J4-Pin_1-Pad1)*%
X168580000Y-118120000D03*
%TD*%
%TO.N,/F{slash}R_OUT*%
D16*
X181000000Y-102155000D02*
X181000000Y-112240400D01*
X176000000Y-97155000D02*
X181000000Y-102155000D01*
X181000000Y-112240400D02*
X186957300Y-118197700D01*
%TO.N,/EN_OUT*%
X182000000Y-108160400D02*
X186957300Y-113117700D01*
X182000000Y-100615000D02*
X182000000Y-108160400D01*
X176000000Y-94615000D02*
X182000000Y-100615000D01*
%TO.N,/BRK_OUT*%
X176000000Y-92075000D02*
X183000000Y-99075000D01*
X183000000Y-104080400D02*
X186957300Y-108037700D01*
X183000000Y-99075000D02*
X183000000Y-104080400D01*
%TO.N,/SPEED_OUT*%
X184000000Y-98017500D02*
X176000000Y-90017500D01*
X176000000Y-90017500D02*
X176000000Y-89535000D01*
X186957300Y-102957700D02*
X184000000Y-100000400D01*
X184000000Y-100000400D02*
X184000000Y-98017500D01*
%TO.N,/ALM_OUT*%
X176000000Y-86995000D02*
X186882700Y-97877700D01*
X186882700Y-97877700D02*
X186957300Y-97877700D01*
%TO.N,+5V*%
X176000000Y-80500000D02*
X174500000Y-79000000D01*
X174500000Y-79000000D02*
X159000000Y-79000000D01*
X153400000Y-84600000D02*
X153400000Y-89440000D01*
X159000000Y-79000000D02*
X153400000Y-84600000D01*
X176000000Y-81915000D02*
X176000000Y-80500000D01*
%TO.N,/LED_R*%
X152103800Y-133000000D02*
X133936300Y-114832500D01*
X133936287Y-114832487D02*
X121946640Y-114832487D01*
X153420000Y-133000000D02*
X152103800Y-133000000D01*
X121946600Y-114832500D02*
X133936300Y-114832500D01*
X133936300Y-114832500D02*
X133936287Y-114832487D01*
%TO.N,/SWITCH*%
X124992487Y-124992487D02*
X121946640Y-124992487D01*
X183500000Y-130000000D02*
X178500000Y-135000000D01*
X135000000Y-135000000D02*
X124992487Y-124992487D01*
X178500000Y-135000000D02*
X135000000Y-135000000D01*
X187000000Y-130000000D02*
X183500000Y-130000000D01*
%TO.N,/ALM*%
X162000000Y-89240000D02*
X164245000Y-86995000D01*
X153400000Y-99600000D02*
X162000000Y-91000000D01*
X162000000Y-91000000D02*
X162000000Y-89240000D01*
%TO.N,/SPEED*%
X153400000Y-102140000D02*
X161000000Y-94540000D01*
X161000000Y-92780000D02*
X164245000Y-89535000D01*
X161000000Y-94540000D02*
X161000000Y-92780000D01*
%TO.N,/BRK*%
X162000000Y-96080000D02*
X162000000Y-94320000D01*
X153400000Y-104680000D02*
X162000000Y-96080000D01*
X162000000Y-94320000D02*
X164245000Y-92075000D01*
%TO.N,/F{slash}R*%
X163465000Y-97155000D02*
X164245000Y-97155000D01*
X153400000Y-107220000D02*
X163465000Y-97155000D01*
%TD*%
%TA.AperFunction,Conductor*%
%TO.N,GND*%
G36*
X191003736Y-76500726D02*
G01*
X191293796Y-76518271D01*
X191308659Y-76520076D01*
X191590797Y-76571780D01*
X191605334Y-76575363D01*
X191879182Y-76660698D01*
X191893163Y-76666000D01*
X192154734Y-76783724D01*
X192167987Y-76790680D01*
X192413458Y-76939071D01*
X192425776Y-76947573D01*
X192651573Y-77124474D01*
X192662781Y-77134404D01*
X192865595Y-77337218D01*
X192875525Y-77348426D01*
X193052422Y-77574217D01*
X193060928Y-77586541D01*
X193209319Y-77832012D01*
X193216277Y-77845269D01*
X193333994Y-78106823D01*
X193339304Y-78120825D01*
X193424635Y-78394664D01*
X193428219Y-78409202D01*
X193479923Y-78691340D01*
X193481728Y-78706205D01*
X193499274Y-78996263D01*
X193499500Y-79003750D01*
X193499500Y-132996249D01*
X193499274Y-133003736D01*
X193481728Y-133293794D01*
X193479923Y-133308659D01*
X193428219Y-133590797D01*
X193424635Y-133605335D01*
X193339304Y-133879174D01*
X193333994Y-133893176D01*
X193216277Y-134154730D01*
X193209319Y-134167987D01*
X193060928Y-134413458D01*
X193052422Y-134425782D01*
X192875525Y-134651573D01*
X192865595Y-134662781D01*
X192662781Y-134865595D01*
X192651573Y-134875525D01*
X192425782Y-135052422D01*
X192413458Y-135060928D01*
X192167987Y-135209319D01*
X192154730Y-135216277D01*
X191893176Y-135333994D01*
X191879174Y-135339304D01*
X191605335Y-135424635D01*
X191590797Y-135428219D01*
X191308659Y-135479923D01*
X191293794Y-135481728D01*
X191003736Y-135499274D01*
X190996249Y-135499500D01*
X179149096Y-135499500D01*
X179082057Y-135479815D01*
X179036302Y-135427011D01*
X179026358Y-135357853D01*
X179055383Y-135294297D01*
X179061415Y-135287819D01*
X183712416Y-130636819D01*
X183773739Y-130603334D01*
X183800097Y-130600500D01*
X185075501Y-130600500D01*
X185142540Y-130620185D01*
X185188295Y-130672989D01*
X185199501Y-130724500D01*
X185199501Y-131100018D01*
X185210000Y-131202796D01*
X185210001Y-131202799D01*
X185255083Y-131338845D01*
X185265186Y-131369334D01*
X185357288Y-131518656D01*
X185481344Y-131642712D01*
X185630666Y-131734814D01*
X185797203Y-131789999D01*
X185899991Y-131800500D01*
X188100008Y-131800499D01*
X188202797Y-131789999D01*
X188369334Y-131734814D01*
X188518656Y-131642712D01*
X188642712Y-131518656D01*
X188734814Y-131369334D01*
X188789999Y-131202797D01*
X188800500Y-131100009D01*
X188800499Y-128899992D01*
X188789999Y-128797203D01*
X188734814Y-128630666D01*
X188642712Y-128481344D01*
X188518656Y-128357288D01*
X188369334Y-128265186D01*
X188202797Y-128210001D01*
X188202795Y-128210000D01*
X188100010Y-128199500D01*
X185899998Y-128199500D01*
X185899981Y-128199501D01*
X185797203Y-128210000D01*
X185797200Y-128210001D01*
X185630668Y-128265185D01*
X185630663Y-128265187D01*
X185481342Y-128357289D01*
X185357289Y-128481342D01*
X185265187Y-128630663D01*
X185265186Y-128630666D01*
X185210001Y-128797203D01*
X185210001Y-128797204D01*
X185210000Y-128797204D01*
X185199500Y-128899983D01*
X185199500Y-129275500D01*
X185179815Y-129342539D01*
X185127011Y-129388294D01*
X185075500Y-129399500D01*
X183586669Y-129399500D01*
X183586653Y-129399499D01*
X183579057Y-129399499D01*
X183420943Y-129399499D01*
X183313587Y-129428265D01*
X183268210Y-129440424D01*
X183268209Y-129440425D01*
X183218096Y-129469359D01*
X183218095Y-129469360D01*
X183174689Y-129494420D01*
X183131285Y-129519479D01*
X183131282Y-129519481D01*
X183019480Y-129631284D01*
X183019478Y-129631286D01*
X180650153Y-132000612D01*
X178287584Y-134363181D01*
X178226261Y-134396666D01*
X178199903Y-134399500D01*
X161784555Y-134399500D01*
X161717516Y-134379815D01*
X161671761Y-134327011D01*
X161661817Y-134257853D01*
X161690842Y-134194297D01*
X161728261Y-134165015D01*
X161735012Y-134161575D01*
X161747816Y-134155051D01*
X161834138Y-134092335D01*
X161919786Y-134030109D01*
X161919788Y-134030106D01*
X161919792Y-134030104D01*
X162070104Y-133879792D01*
X162070106Y-133879788D01*
X162070109Y-133879786D01*
X162195048Y-133707820D01*
X162195050Y-133707817D01*
X162195051Y-133707816D01*
X162291557Y-133518412D01*
X162357246Y-133316243D01*
X162390500Y-133106287D01*
X162390500Y-132893713D01*
X162357246Y-132683757D01*
X162291557Y-132481588D01*
X162195051Y-132292184D01*
X162195049Y-132292181D01*
X162195048Y-132292179D01*
X162070109Y-132120213D01*
X161919786Y-131969890D01*
X161747820Y-131844951D01*
X161558414Y-131748444D01*
X161558413Y-131748443D01*
X161558412Y-131748443D01*
X161356243Y-131682754D01*
X161356241Y-131682753D01*
X161356240Y-131682753D01*
X161194957Y-131657208D01*
X161146287Y-131649500D01*
X160933713Y-131649500D01*
X160885042Y-131657208D01*
X160723760Y-131682753D01*
X160521585Y-131748444D01*
X160332179Y-131844951D01*
X160160213Y-131969890D01*
X160009890Y-132120213D01*
X159884949Y-132292182D01*
X159880484Y-132300946D01*
X159832509Y-132351742D01*
X159764688Y-132368536D01*
X159698553Y-132345998D01*
X159659516Y-132300946D01*
X159655050Y-132292182D01*
X159530109Y-132120213D01*
X159379786Y-131969890D01*
X159207820Y-131844951D01*
X159018414Y-131748444D01*
X159018413Y-131748443D01*
X159018412Y-131748443D01*
X158816243Y-131682754D01*
X158816241Y-131682753D01*
X158816240Y-131682753D01*
X158654957Y-131657208D01*
X158606287Y-131649500D01*
X158393713Y-131649500D01*
X158345042Y-131657208D01*
X158183760Y-131682753D01*
X157981585Y-131748444D01*
X157792179Y-131844951D01*
X157620213Y-131969890D01*
X157469890Y-132120213D01*
X157344949Y-132292182D01*
X157340202Y-132301499D01*
X157292227Y-132352293D01*
X157224405Y-132369087D01*
X157158271Y-132346548D01*
X157119234Y-132301495D01*
X157114626Y-132292452D01*
X157075270Y-132238282D01*
X157075269Y-132238282D01*
X156442962Y-132870590D01*
X156425925Y-132807007D01*
X156360099Y-132692993D01*
X156267007Y-132599901D01*
X156152993Y-132534075D01*
X156089409Y-132517037D01*
X156721716Y-131884728D01*
X156667550Y-131845375D01*
X156478217Y-131748904D01*
X156276129Y-131683242D01*
X156066246Y-131650000D01*
X155853754Y-131650000D01*
X155643872Y-131683242D01*
X155643869Y-131683242D01*
X155441782Y-131748904D01*
X155252439Y-131845380D01*
X155198282Y-131884727D01*
X155198282Y-131884728D01*
X155830591Y-132517037D01*
X155767007Y-132534075D01*
X155652993Y-132599901D01*
X155559901Y-132692993D01*
X155494075Y-132807007D01*
X155477037Y-132870591D01*
X154806818Y-132200372D01*
X154773333Y-132139049D01*
X154773330Y-132139036D01*
X154770499Y-132126015D01*
X154770499Y-132102128D01*
X154764091Y-132042517D01*
X154718493Y-131920261D01*
X154713798Y-131907673D01*
X154713793Y-131907664D01*
X154627547Y-131792455D01*
X154627544Y-131792452D01*
X154512335Y-131706206D01*
X154512328Y-131706202D01*
X154377482Y-131655908D01*
X154377483Y-131655908D01*
X154317883Y-131649501D01*
X154317881Y-131649500D01*
X154317873Y-131649500D01*
X154317864Y-131649500D01*
X152522129Y-131649500D01*
X152522123Y-131649501D01*
X152462516Y-131655908D01*
X152327671Y-131706202D01*
X152327664Y-131706206D01*
X152212455Y-131792452D01*
X152212452Y-131792455D01*
X152126206Y-131907664D01*
X152126202Y-131907671D01*
X152121507Y-131920261D01*
X152079636Y-131976195D01*
X152014171Y-132000612D01*
X151945898Y-131985760D01*
X151917644Y-131964609D01*
X150327073Y-130374038D01*
X175462700Y-130374038D01*
X175462700Y-130625962D01*
X175486972Y-130779207D01*
X175502110Y-130874785D01*
X175579960Y-131114383D01*
X175694332Y-131338848D01*
X175842401Y-131542649D01*
X175842405Y-131542654D01*
X176020545Y-131720794D01*
X176020550Y-131720798D01*
X176191430Y-131844949D01*
X176224355Y-131868870D01*
X176325216Y-131920261D01*
X176448816Y-131983239D01*
X176448818Y-131983239D01*
X176448821Y-131983241D01*
X176688415Y-132061090D01*
X176937238Y-132100500D01*
X176937239Y-132100500D01*
X177189161Y-132100500D01*
X177189162Y-132100500D01*
X177437985Y-132061090D01*
X177677579Y-131983241D01*
X177902045Y-131868870D01*
X178105856Y-131720793D01*
X178283993Y-131542656D01*
X178432070Y-131338845D01*
X178546441Y-131114379D01*
X178624290Y-130874785D01*
X178663700Y-130625962D01*
X178663700Y-130374038D01*
X178624290Y-130125215D01*
X178546441Y-129885621D01*
X178546439Y-129885618D01*
X178546439Y-129885616D01*
X178504947Y-129804184D01*
X178432070Y-129661155D01*
X178329138Y-129519481D01*
X178283998Y-129457350D01*
X178283994Y-129457345D01*
X178105854Y-129279205D01*
X178105849Y-129279201D01*
X177902048Y-129131132D01*
X177902047Y-129131131D01*
X177902045Y-129131130D01*
X177831947Y-129095413D01*
X177677583Y-129016760D01*
X177437985Y-128938910D01*
X177189162Y-128899500D01*
X176937238Y-128899500D01*
X176812826Y-128919205D01*
X176688414Y-128938910D01*
X176448816Y-129016760D01*
X176224351Y-129131132D01*
X176020550Y-129279201D01*
X176020545Y-129279205D01*
X175842405Y-129457345D01*
X175842401Y-129457350D01*
X175694332Y-129661151D01*
X175579960Y-129885616D01*
X175502110Y-130125214D01*
X175502110Y-130125215D01*
X175462700Y-130374038D01*
X150327073Y-130374038D01*
X134423890Y-114470855D01*
X134423888Y-114470852D01*
X134305004Y-114351968D01*
X134305003Y-114351967D01*
X134218191Y-114301847D01*
X134218191Y-114301846D01*
X134218187Y-114301845D01*
X134168072Y-114272910D01*
X134015344Y-114231986D01*
X133857230Y-114231986D01*
X133849634Y-114231986D01*
X133849618Y-114231987D01*
X123321370Y-114231987D01*
X123254331Y-114212302D01*
X123217448Y-114174620D01*
X123217291Y-114174735D01*
X123216512Y-114173663D01*
X123215640Y-114172772D01*
X123214429Y-114170796D01*
X123186372Y-114132179D01*
X123097621Y-114010023D01*
X122957104Y-113869506D01*
X122796334Y-113752700D01*
X122639858Y-113672971D01*
X122589063Y-113624997D01*
X122572268Y-113557176D01*
X122594805Y-113491041D01*
X122639858Y-113452002D01*
X122796334Y-113372274D01*
X122957104Y-113255468D01*
X123097621Y-113114951D01*
X123214427Y-112954181D01*
X123304645Y-112777119D01*
X123366053Y-112588123D01*
X123397140Y-112391848D01*
X123397140Y-112193126D01*
X123366053Y-111996851D01*
X123304645Y-111807855D01*
X123304645Y-111807854D01*
X123234242Y-111669682D01*
X123214427Y-111630793D01*
X123097621Y-111470023D01*
X122957104Y-111329506D01*
X122796334Y-111212700D01*
X122639858Y-111132971D01*
X122589063Y-111084997D01*
X122572268Y-111017176D01*
X122594805Y-110951041D01*
X122639858Y-110912002D01*
X122796334Y-110832274D01*
X122957104Y-110715468D01*
X123097621Y-110574951D01*
X123214427Y-110414181D01*
X123304645Y-110237119D01*
X123366053Y-110048123D01*
X123397140Y-109851848D01*
X123397140Y-109653126D01*
X123366053Y-109456851D01*
X123304645Y-109267855D01*
X123304645Y-109267854D01*
X123258675Y-109177636D01*
X123214427Y-109090793D01*
X123097621Y-108930023D01*
X122957104Y-108789506D01*
X122796334Y-108672700D01*
X122639858Y-108592971D01*
X122589063Y-108544997D01*
X122572268Y-108477176D01*
X122594805Y-108411041D01*
X122639858Y-108372002D01*
X122796334Y-108292274D01*
X122957104Y-108175468D01*
X123097621Y-108034951D01*
X123214427Y-107874181D01*
X123304645Y-107697119D01*
X123366053Y-107508123D01*
X123397140Y-107311848D01*
X123397140Y-107113126D01*
X123366053Y-106916851D01*
X123324580Y-106789208D01*
X123304646Y-106727857D01*
X123304645Y-106727854D01*
X123214426Y-106550792D01*
X123162545Y-106479384D01*
X123097621Y-106390023D01*
X122957104Y-106249506D01*
X122796334Y-106132700D01*
X122639858Y-106052971D01*
X122589063Y-106004997D01*
X122572268Y-105937176D01*
X122594805Y-105871041D01*
X122639858Y-105832002D01*
X122796334Y-105752274D01*
X122957104Y-105635468D01*
X123097621Y-105494951D01*
X123214427Y-105334181D01*
X123304645Y-105157119D01*
X123366053Y-104968123D01*
X123397140Y-104771848D01*
X123397140Y-104573126D01*
X123366053Y-104376851D01*
X123324580Y-104249208D01*
X123304646Y-104187857D01*
X123304645Y-104187854D01*
X123214426Y-104010792D01*
X123186372Y-103972179D01*
X123097621Y-103850023D01*
X122957104Y-103709506D01*
X122796334Y-103592700D01*
X122639858Y-103512971D01*
X122589063Y-103464997D01*
X122572268Y-103397176D01*
X122594805Y-103331041D01*
X122639858Y-103292002D01*
X122796334Y-103212274D01*
X122957104Y-103095468D01*
X123097621Y-102954951D01*
X123214427Y-102794181D01*
X123304645Y-102617119D01*
X123366053Y-102428123D01*
X123397140Y-102231848D01*
X123397140Y-102033126D01*
X123366053Y-101836851D01*
X123313296Y-101674480D01*
X123304646Y-101647857D01*
X123304645Y-101647854D01*
X123229113Y-101499616D01*
X123214427Y-101470793D01*
X123097621Y-101310023D01*
X122957104Y-101169506D01*
X122796334Y-101052700D01*
X122639858Y-100972971D01*
X122589063Y-100924997D01*
X122572268Y-100857176D01*
X122594805Y-100791041D01*
X122639858Y-100752002D01*
X122796334Y-100672274D01*
X122957104Y-100555468D01*
X123097621Y-100414951D01*
X123214427Y-100254181D01*
X123304645Y-100077119D01*
X123366053Y-99888123D01*
X123397140Y-99691848D01*
X123397140Y-99493126D01*
X123366053Y-99296851D01*
X123324580Y-99169208D01*
X123304646Y-99107857D01*
X123304645Y-99107854D01*
X123214426Y-98930792D01*
X123186372Y-98892179D01*
X123097621Y-98770023D01*
X122957104Y-98629506D01*
X122796334Y-98512700D01*
X122639858Y-98432971D01*
X122589063Y-98384997D01*
X122572268Y-98317176D01*
X122594805Y-98251041D01*
X122639858Y-98212002D01*
X122796334Y-98132274D01*
X122957104Y-98015468D01*
X123097621Y-97874951D01*
X123214427Y-97714181D01*
X123304645Y-97537119D01*
X123366053Y-97348123D01*
X123397140Y-97151848D01*
X123397140Y-96953126D01*
X123366053Y-96756851D01*
X123304645Y-96567855D01*
X123304645Y-96567854D01*
X123214426Y-96390792D01*
X123162545Y-96319384D01*
X123097621Y-96230023D01*
X122957104Y-96089506D01*
X122796334Y-95972700D01*
X122639858Y-95892971D01*
X122589063Y-95844997D01*
X122572268Y-95777176D01*
X122594805Y-95711041D01*
X122639858Y-95672002D01*
X122796334Y-95592274D01*
X122957104Y-95475468D01*
X123097621Y-95334951D01*
X123214427Y-95174181D01*
X123304645Y-94997119D01*
X123366053Y-94808123D01*
X123397140Y-94611848D01*
X123397140Y-94413126D01*
X123366053Y-94216851D01*
X123304645Y-94027855D01*
X123304645Y-94027854D01*
X123214426Y-93850792D01*
X123097621Y-93690023D01*
X122957104Y-93549506D01*
X122796334Y-93432700D01*
X122639307Y-93352690D01*
X122588512Y-93304716D01*
X122571717Y-93236895D01*
X122594254Y-93170760D01*
X122639308Y-93131721D01*
X122796072Y-93051845D01*
X122956779Y-92935083D01*
X122956780Y-92935083D01*
X123097236Y-92794627D01*
X123097236Y-92794626D01*
X123213998Y-92633919D01*
X123304183Y-92456922D01*
X123365565Y-92268004D01*
X123372774Y-92222487D01*
X122262326Y-92222487D01*
X122266720Y-92218093D01*
X122319381Y-92126881D01*
X122346640Y-92025148D01*
X122346640Y-91919826D01*
X122319381Y-91818093D01*
X122266720Y-91726881D01*
X122262326Y-91722487D01*
X123372775Y-91722487D01*
X123372774Y-91722486D01*
X123365565Y-91676969D01*
X123304183Y-91488051D01*
X123213998Y-91311054D01*
X123097236Y-91150347D01*
X123097236Y-91150346D01*
X122956780Y-91009890D01*
X122796072Y-90893128D01*
X122639308Y-90813252D01*
X122588512Y-90765277D01*
X122571717Y-90697456D01*
X122594255Y-90631321D01*
X122639307Y-90592283D01*
X122796334Y-90512274D01*
X122957104Y-90395468D01*
X123097621Y-90254951D01*
X123214427Y-90094181D01*
X123304645Y-89917119D01*
X123366053Y-89728123D01*
X123397140Y-89531848D01*
X123397140Y-89333126D01*
X145896140Y-89333126D01*
X145896140Y-89531848D01*
X145898427Y-89546286D01*
X145927227Y-89728124D01*
X145988633Y-89917116D01*
X145988634Y-89917119D01*
X146051118Y-90039749D01*
X146078853Y-90094181D01*
X146195659Y-90254951D01*
X146336176Y-90395468D01*
X146496946Y-90512274D01*
X146653972Y-90592283D01*
X146704767Y-90640256D01*
X146721562Y-90708077D01*
X146699025Y-90774212D01*
X146653972Y-90813251D01*
X146497209Y-90893126D01*
X146336500Y-91009890D01*
X146336499Y-91009890D01*
X146196043Y-91150346D01*
X146196043Y-91150347D01*
X146079281Y-91311054D01*
X145989096Y-91488051D01*
X145927714Y-91676969D01*
X145920505Y-91722486D01*
X145920505Y-91722487D01*
X147030954Y-91722487D01*
X147026560Y-91726881D01*
X146973899Y-91818093D01*
X146946640Y-91919826D01*
X146946640Y-92025148D01*
X146973899Y-92126881D01*
X147026560Y-92218093D01*
X147030954Y-92222487D01*
X145920505Y-92222487D01*
X145927714Y-92268004D01*
X145989096Y-92456922D01*
X146079281Y-92633919D01*
X146196043Y-92794626D01*
X146196043Y-92794627D01*
X146336499Y-92935083D01*
X146497207Y-93051845D01*
X146653971Y-93131721D01*
X146704767Y-93179696D01*
X146721562Y-93247517D01*
X146699024Y-93313652D01*
X146653971Y-93352691D01*
X146496945Y-93432700D01*
X146336173Y-93549508D01*
X146195661Y-93690020D01*
X146078853Y-93850792D01*
X145988634Y-94027854D01*
X145988633Y-94027857D01*
X145927227Y-94216849D01*
X145927227Y-94216851D01*
X145896140Y-94413126D01*
X145896140Y-94611848D01*
X145898427Y-94626286D01*
X145927227Y-94808124D01*
X145988633Y-94997116D01*
X145988634Y-94997119D01*
X146040812Y-95099522D01*
X146078853Y-95174181D01*
X146195659Y-95334951D01*
X146336176Y-95475468D01*
X146496946Y-95592274D01*
X146595025Y-95642248D01*
X146653420Y-95672002D01*
X146704216Y-95719977D01*
X146721011Y-95787798D01*
X146698473Y-95853933D01*
X146653420Y-95892972D01*
X146496945Y-95972700D01*
X146336173Y-96089508D01*
X146195661Y-96230020D01*
X146078853Y-96390792D01*
X145988634Y-96567854D01*
X145988633Y-96567857D01*
X145927227Y-96756849D01*
X145896140Y-96953126D01*
X145896140Y-97151847D01*
X145927227Y-97348124D01*
X145988633Y-97537116D01*
X145988634Y-97537119D01*
X146040812Y-97639522D01*
X146078853Y-97714181D01*
X146195659Y-97874951D01*
X146336176Y-98015468D01*
X146496946Y-98132274D01*
X146595025Y-98182248D01*
X146653420Y-98212002D01*
X146704216Y-98259977D01*
X146721011Y-98327798D01*
X146698473Y-98393933D01*
X146653420Y-98432972D01*
X146496945Y-98512700D01*
X146336173Y-98629508D01*
X146195661Y-98770020D01*
X146078853Y-98930792D01*
X145988634Y-99107854D01*
X145988633Y-99107857D01*
X145927227Y-99296849D01*
X145896140Y-99493126D01*
X145896140Y-99691847D01*
X145927227Y-99888124D01*
X145988633Y-100077116D01*
X145988634Y-100077119D01*
X146033547Y-100165264D01*
X146078853Y-100254181D01*
X146195659Y-100414951D01*
X146336176Y-100555468D01*
X146496946Y-100672274D01*
X146595025Y-100722248D01*
X146653420Y-100752002D01*
X146704216Y-100799977D01*
X146721011Y-100867798D01*
X146698473Y-100933933D01*
X146653420Y-100972972D01*
X146496945Y-101052700D01*
X146336173Y-101169508D01*
X146195661Y-101310020D01*
X146078853Y-101470792D01*
X145988634Y-101647854D01*
X145988633Y-101647857D01*
X145927227Y-101836849D01*
X145927227Y-101836851D01*
X145896140Y-102033126D01*
X145896140Y-102231848D01*
X145899841Y-102255212D01*
X145927227Y-102428124D01*
X145988633Y-102617116D01*
X145988634Y-102617119D01*
X146058080Y-102753412D01*
X146078853Y-102794181D01*
X146195659Y-102954951D01*
X146336176Y-103095468D01*
X146496946Y-103212274D01*
X146595025Y-103262248D01*
X146653420Y-103292002D01*
X146704216Y-103339977D01*
X146721011Y-103407798D01*
X146698473Y-103473933D01*
X146653420Y-103512972D01*
X146496945Y-103592700D01*
X146336173Y-103709508D01*
X146195661Y-103850020D01*
X146078853Y-104010792D01*
X145988634Y-104187854D01*
X145988633Y-104187857D01*
X145927227Y-104376849D01*
X145896140Y-104573126D01*
X145896140Y-104771847D01*
X145927227Y-104968124D01*
X145988633Y-105157116D01*
X145988634Y-105157119D01*
X146058080Y-105293412D01*
X146078853Y-105334181D01*
X146195659Y-105494951D01*
X146336176Y-105635468D01*
X146496946Y-105752274D01*
X146595025Y-105802248D01*
X146653420Y-105832002D01*
X146704216Y-105879977D01*
X146721011Y-105947798D01*
X146698473Y-106013933D01*
X146653420Y-106052972D01*
X146496945Y-106132700D01*
X146336173Y-106249508D01*
X146195661Y-106390020D01*
X146078853Y-106550792D01*
X145988634Y-106727854D01*
X145988633Y-106727857D01*
X145927227Y-106916849D01*
X145927227Y-106916851D01*
X145896140Y-107113126D01*
X145896140Y-107311848D01*
X145900077Y-107336703D01*
X145927227Y-107508124D01*
X145988633Y-107697116D01*
X145988634Y-107697119D01*
X146071782Y-107860303D01*
X146078853Y-107874181D01*
X146195659Y-108034951D01*
X146336176Y-108175468D01*
X146496946Y-108292274D01*
X146595025Y-108342248D01*
X146653420Y-108372002D01*
X146704216Y-108419977D01*
X146721011Y-108487798D01*
X146698473Y-108553933D01*
X146653420Y-108592972D01*
X146496945Y-108672700D01*
X146336173Y-108789508D01*
X146195661Y-108930020D01*
X146078853Y-109090792D01*
X145988634Y-109267854D01*
X145988633Y-109267857D01*
X145927227Y-109456849D01*
X145896140Y-109653126D01*
X145896140Y-109851847D01*
X145927227Y-110048124D01*
X145988633Y-110237116D01*
X145988634Y-110237119D01*
X146062406Y-110381902D01*
X146078853Y-110414181D01*
X146195659Y-110574951D01*
X146336176Y-110715468D01*
X146496946Y-110832274D01*
X146595025Y-110882248D01*
X146653420Y-110912002D01*
X146704216Y-110959977D01*
X146721011Y-111027798D01*
X146698473Y-111093933D01*
X146653420Y-111132972D01*
X146496945Y-111212700D01*
X146336173Y-111329508D01*
X146195661Y-111470020D01*
X146078853Y-111630792D01*
X145988634Y-111807854D01*
X145988633Y-111807857D01*
X145927227Y-111996849D01*
X145908475Y-112115245D01*
X145896140Y-112193126D01*
X145896140Y-112391848D01*
X145900077Y-112416703D01*
X145927227Y-112588124D01*
X145988633Y-112777116D01*
X145988634Y-112777119D01*
X146062406Y-112921902D01*
X146078853Y-112954181D01*
X146195659Y-113114951D01*
X146336176Y-113255468D01*
X146496946Y-113372274D01*
X146595025Y-113422248D01*
X146653420Y-113452002D01*
X146704216Y-113499977D01*
X146721011Y-113567798D01*
X146698473Y-113633933D01*
X146653420Y-113672972D01*
X146496945Y-113752700D01*
X146336173Y-113869508D01*
X146195661Y-114010020D01*
X146078853Y-114170792D01*
X145988634Y-114347854D01*
X145988633Y-114347857D01*
X145927227Y-114536849D01*
X145896140Y-114733126D01*
X145896140Y-114931847D01*
X145927227Y-115128124D01*
X145988633Y-115317116D01*
X145988634Y-115317119D01*
X146062406Y-115461902D01*
X146078853Y-115494181D01*
X146195659Y-115654951D01*
X146336176Y-115795468D01*
X146496946Y-115912274D01*
X146595025Y-115962248D01*
X146653420Y-115992002D01*
X146704216Y-116039977D01*
X146721011Y-116107798D01*
X146698473Y-116173933D01*
X146653420Y-116212972D01*
X146496945Y-116292700D01*
X146336173Y-116409508D01*
X146195661Y-116550020D01*
X146078853Y-116710792D01*
X145988634Y-116887854D01*
X145988633Y-116887857D01*
X145927227Y-117076849D01*
X145896140Y-117273126D01*
X145896140Y-117471847D01*
X145927227Y-117668124D01*
X145988633Y-117857116D01*
X145988634Y-117857119D01*
X146062406Y-118001902D01*
X146078853Y-118034181D01*
X146195659Y-118194951D01*
X146336176Y-118335468D01*
X146496946Y-118452274D01*
X146595025Y-118502248D01*
X146653420Y-118532002D01*
X146704216Y-118579977D01*
X146721011Y-118647798D01*
X146698473Y-118713933D01*
X146653420Y-118752972D01*
X146496945Y-118832700D01*
X146336173Y-118949508D01*
X146195661Y-119090020D01*
X146078853Y-119250792D01*
X145988634Y-119427854D01*
X145988633Y-119427857D01*
X145927227Y-119616849D01*
X145896140Y-119813126D01*
X145896140Y-120011847D01*
X145927227Y-120208124D01*
X145988633Y-120397116D01*
X145988634Y-120397119D01*
X146062406Y-120541902D01*
X146078853Y-120574181D01*
X146195659Y-120734951D01*
X146336176Y-120875468D01*
X146496946Y-120992274D01*
X146595025Y-121042248D01*
X146653420Y-121072002D01*
X146704216Y-121119977D01*
X146721011Y-121187798D01*
X146698473Y-121253933D01*
X146653420Y-121292972D01*
X146496945Y-121372700D01*
X146336173Y-121489508D01*
X146195661Y-121630020D01*
X146078853Y-121790792D01*
X145988634Y-121967854D01*
X145988633Y-121967857D01*
X145927227Y-122156849D01*
X145896140Y-122353126D01*
X145896140Y-122551847D01*
X145927227Y-122748124D01*
X145988633Y-122937116D01*
X145988634Y-122937119D01*
X146062406Y-123081902D01*
X146078853Y-123114181D01*
X146195659Y-123274951D01*
X146336176Y-123415468D01*
X146496946Y-123532274D01*
X146595031Y-123582251D01*
X146653420Y-123612002D01*
X146704216Y-123659977D01*
X146721011Y-123727798D01*
X146698473Y-123793933D01*
X146653420Y-123832972D01*
X146496945Y-123912700D01*
X146336173Y-124029508D01*
X146195661Y-124170020D01*
X146078853Y-124330792D01*
X145988634Y-124507854D01*
X145988633Y-124507857D01*
X145927227Y-124696849D01*
X145896140Y-124893126D01*
X145896140Y-125091847D01*
X145927227Y-125288124D01*
X145988633Y-125477116D01*
X145988634Y-125477119D01*
X146035960Y-125570000D01*
X146078853Y-125654181D01*
X146195659Y-125814951D01*
X146336176Y-125955468D01*
X146496946Y-126072274D01*
X146536310Y-126092331D01*
X146674007Y-126162492D01*
X146674010Y-126162493D01*
X146711722Y-126174746D01*
X146863004Y-126223900D01*
X147059279Y-126254987D01*
X147059280Y-126254987D01*
X147634000Y-126254987D01*
X147634001Y-126254987D01*
X147830276Y-126223900D01*
X148019272Y-126162492D01*
X148196334Y-126072274D01*
X148357104Y-125955468D01*
X148497621Y-125814951D01*
X148614427Y-125654181D01*
X148704645Y-125477119D01*
X148766053Y-125288123D01*
X148797140Y-125091848D01*
X148797140Y-124893126D01*
X148766053Y-124696851D01*
X148723682Y-124566446D01*
X148704646Y-124507857D01*
X148704645Y-124507854D01*
X148645607Y-124391987D01*
X148614427Y-124330793D01*
X148497621Y-124170023D01*
X148357104Y-124029506D01*
X148196334Y-123912700D01*
X148039858Y-123832971D01*
X147989063Y-123784997D01*
X147972268Y-123717176D01*
X147994805Y-123651041D01*
X148039858Y-123612002D01*
X148196334Y-123532274D01*
X148357104Y-123415468D01*
X148497621Y-123274951D01*
X148614427Y-123114181D01*
X148704645Y-122937119D01*
X148766053Y-122748123D01*
X148797140Y-122551848D01*
X148797140Y-122353126D01*
X148766053Y-122156851D01*
X148704645Y-121967855D01*
X148704645Y-121967854D01*
X148634242Y-121829682D01*
X148614427Y-121790793D01*
X148497621Y-121630023D01*
X148357104Y-121489506D01*
X148196334Y-121372700D01*
X148039858Y-121292971D01*
X147989063Y-121244997D01*
X147972268Y-121177176D01*
X147994805Y-121111041D01*
X148039858Y-121072002D01*
X148196334Y-120992274D01*
X148357104Y-120875468D01*
X148497621Y-120734951D01*
X148614427Y-120574181D01*
X148704645Y-120397119D01*
X148766053Y-120208123D01*
X148797140Y-120011848D01*
X148797140Y-119813126D01*
X148766053Y-119616851D01*
X148704645Y-119427855D01*
X148704645Y-119427854D01*
X148641323Y-119303580D01*
X148614427Y-119250793D01*
X148497621Y-119090023D01*
X148357104Y-118949506D01*
X148196334Y-118832700D01*
X148039858Y-118752971D01*
X147989063Y-118704997D01*
X147972268Y-118637176D01*
X147994805Y-118571041D01*
X148039858Y-118532002D01*
X148196334Y-118452274D01*
X148357104Y-118335468D01*
X148497621Y-118194951D01*
X148614427Y-118034181D01*
X148704645Y-117857119D01*
X148766053Y-117668123D01*
X148797140Y-117471848D01*
X148797140Y-117273126D01*
X148766053Y-117076851D01*
X148704645Y-116887855D01*
X148704645Y-116887854D01*
X148634242Y-116749682D01*
X148614427Y-116710793D01*
X148497621Y-116550023D01*
X148357104Y-116409506D01*
X148196334Y-116292700D01*
X148039858Y-116212971D01*
X147989063Y-116164997D01*
X147972268Y-116097176D01*
X147994805Y-116031041D01*
X148039858Y-115992002D01*
X148196334Y-115912274D01*
X148357104Y-115795468D01*
X148497621Y-115654951D01*
X148614427Y-115494181D01*
X148704645Y-115317119D01*
X148766053Y-115128123D01*
X148797140Y-114931848D01*
X148797140Y-114733126D01*
X148766053Y-114536851D01*
X148706963Y-114354989D01*
X148704646Y-114347857D01*
X148704645Y-114347854D01*
X148645607Y-114231987D01*
X148614427Y-114170793D01*
X148497621Y-114010023D01*
X148357104Y-113869506D01*
X148196334Y-113752700D01*
X148039858Y-113672971D01*
X147989063Y-113624997D01*
X147972268Y-113557176D01*
X147994805Y-113491041D01*
X148039858Y-113452002D01*
X148196334Y-113372274D01*
X148357104Y-113255468D01*
X148497621Y-113114951D01*
X148614427Y-112954181D01*
X148704645Y-112777119D01*
X148766053Y-112588123D01*
X148797140Y-112391848D01*
X148797140Y-112193126D01*
X148766053Y-111996851D01*
X148704645Y-111807855D01*
X148704645Y-111807854D01*
X148634242Y-111669682D01*
X148614427Y-111630793D01*
X148497621Y-111470023D01*
X148357104Y-111329506D01*
X148196334Y-111212700D01*
X148039858Y-111132971D01*
X147989063Y-111084997D01*
X147972268Y-111017176D01*
X147994805Y-110951041D01*
X148039858Y-110912002D01*
X148196334Y-110832274D01*
X148357104Y-110715468D01*
X148497621Y-110574951D01*
X148614427Y-110414181D01*
X148704645Y-110237119D01*
X148766053Y-110048123D01*
X148797140Y-109851848D01*
X148797140Y-109653126D01*
X148766053Y-109456851D01*
X148704645Y-109267855D01*
X148704645Y-109267854D01*
X148658675Y-109177636D01*
X148614427Y-109090793D01*
X148497621Y-108930023D01*
X148357104Y-108789506D01*
X148196334Y-108672700D01*
X148039858Y-108592971D01*
X147989063Y-108544997D01*
X147972268Y-108477176D01*
X147994805Y-108411041D01*
X148039858Y-108372002D01*
X148196334Y-108292274D01*
X148357104Y-108175468D01*
X148497621Y-108034951D01*
X148614427Y-107874181D01*
X148704645Y-107697119D01*
X148766053Y-107508123D01*
X148797140Y-107311848D01*
X148797140Y-107113126D01*
X148766053Y-106916851D01*
X148724580Y-106789208D01*
X148704646Y-106727857D01*
X148704645Y-106727854D01*
X148614426Y-106550792D01*
X148562545Y-106479384D01*
X148497621Y-106390023D01*
X148357104Y-106249506D01*
X148196334Y-106132700D01*
X148039858Y-106052971D01*
X147989063Y-106004997D01*
X147972268Y-105937176D01*
X147994805Y-105871041D01*
X148039858Y-105832002D01*
X148196334Y-105752274D01*
X148357104Y-105635468D01*
X148497621Y-105494951D01*
X148614427Y-105334181D01*
X148704645Y-105157119D01*
X148766053Y-104968123D01*
X148797140Y-104771848D01*
X148797140Y-104573126D01*
X148766053Y-104376851D01*
X148724580Y-104249208D01*
X148704646Y-104187857D01*
X148704645Y-104187854D01*
X148614426Y-104010792D01*
X148586372Y-103972179D01*
X148497621Y-103850023D01*
X148357104Y-103709506D01*
X148196334Y-103592700D01*
X148039858Y-103512971D01*
X147989063Y-103464997D01*
X147972268Y-103397176D01*
X147994805Y-103331041D01*
X148039858Y-103292002D01*
X148196334Y-103212274D01*
X148357104Y-103095468D01*
X148497621Y-102954951D01*
X148614427Y-102794181D01*
X148704645Y-102617119D01*
X148766053Y-102428123D01*
X148797140Y-102231848D01*
X148797140Y-102033126D01*
X148766053Y-101836851D01*
X148713296Y-101674480D01*
X148704646Y-101647857D01*
X148704645Y-101647854D01*
X148629113Y-101499616D01*
X148614427Y-101470793D01*
X148497621Y-101310023D01*
X148357104Y-101169506D01*
X148196334Y-101052700D01*
X148039858Y-100972971D01*
X147989063Y-100924997D01*
X147972268Y-100857176D01*
X147994805Y-100791041D01*
X148039858Y-100752002D01*
X148196334Y-100672274D01*
X148357104Y-100555468D01*
X148497621Y-100414951D01*
X148614427Y-100254181D01*
X148704645Y-100077119D01*
X148766053Y-99888123D01*
X148797140Y-99691848D01*
X148797140Y-99493126D01*
X148766053Y-99296851D01*
X148724580Y-99169208D01*
X148704646Y-99107857D01*
X148704645Y-99107854D01*
X148614426Y-98930792D01*
X148586372Y-98892179D01*
X148497621Y-98770023D01*
X148357104Y-98629506D01*
X148196334Y-98512700D01*
X148039858Y-98432971D01*
X147989063Y-98384997D01*
X147972268Y-98317176D01*
X147994805Y-98251041D01*
X148039858Y-98212002D01*
X148196334Y-98132274D01*
X148357104Y-98015468D01*
X148497621Y-97874951D01*
X148614427Y-97714181D01*
X148704645Y-97537119D01*
X148766053Y-97348123D01*
X148797140Y-97151848D01*
X148797140Y-96953126D01*
X148766053Y-96756851D01*
X148704645Y-96567855D01*
X148704645Y-96567854D01*
X148614426Y-96390792D01*
X148562545Y-96319384D01*
X148497621Y-96230023D01*
X148357104Y-96089506D01*
X148196334Y-95972700D01*
X148039858Y-95892971D01*
X147989063Y-95844997D01*
X147972268Y-95777176D01*
X147994805Y-95711041D01*
X148039858Y-95672002D01*
X148196334Y-95592274D01*
X148357104Y-95475468D01*
X148497621Y-95334951D01*
X148614427Y-95174181D01*
X148704645Y-94997119D01*
X148766053Y-94808123D01*
X148797140Y-94611848D01*
X148797140Y-94413126D01*
X148766053Y-94216851D01*
X148704645Y-94027855D01*
X148704645Y-94027854D01*
X148614426Y-93850792D01*
X148497621Y-93690023D01*
X148357104Y-93549506D01*
X148196334Y-93432700D01*
X148039307Y-93352690D01*
X147988512Y-93304716D01*
X147971717Y-93236895D01*
X147994254Y-93170760D01*
X148039308Y-93131721D01*
X148196072Y-93051845D01*
X148356779Y-92935083D01*
X148356780Y-92935083D01*
X148497236Y-92794627D01*
X148497236Y-92794626D01*
X148613998Y-92633919D01*
X148704183Y-92456922D01*
X148765565Y-92268004D01*
X148772774Y-92222487D01*
X147662326Y-92222487D01*
X147666720Y-92218093D01*
X147719381Y-92126881D01*
X147746640Y-92025148D01*
X147746640Y-91919826D01*
X147719381Y-91818093D01*
X147666720Y-91726881D01*
X147662326Y-91722487D01*
X148772775Y-91722487D01*
X148772774Y-91722486D01*
X148765565Y-91676969D01*
X148704183Y-91488051D01*
X148613998Y-91311054D01*
X148497236Y-91150347D01*
X148497236Y-91150346D01*
X148356780Y-91009890D01*
X148196072Y-90893128D01*
X148039308Y-90813252D01*
X147988512Y-90765277D01*
X147971717Y-90697456D01*
X147994255Y-90631321D01*
X148039307Y-90592283D01*
X148196334Y-90512274D01*
X148357104Y-90395468D01*
X148497621Y-90254951D01*
X148614427Y-90094181D01*
X148704645Y-89917119D01*
X148766053Y-89728123D01*
X148797140Y-89531848D01*
X148797140Y-89333713D01*
X152049500Y-89333713D01*
X152049500Y-89546287D01*
X152082754Y-89756243D01*
X152137786Y-89925614D01*
X152148444Y-89958414D01*
X152244951Y-90147820D01*
X152369890Y-90319786D01*
X152520213Y-90470109D01*
X152692179Y-90595048D01*
X152692181Y-90595049D01*
X152692184Y-90595051D01*
X152701493Y-90599794D01*
X152752290Y-90647766D01*
X152769087Y-90715587D01*
X152746552Y-90781722D01*
X152701505Y-90820760D01*
X152692446Y-90825376D01*
X152692440Y-90825380D01*
X152638282Y-90864727D01*
X152638282Y-90864728D01*
X153270591Y-91497037D01*
X153207007Y-91514075D01*
X153092993Y-91579901D01*
X152999901Y-91672993D01*
X152934075Y-91787007D01*
X152917037Y-91850591D01*
X152284728Y-91218282D01*
X152284727Y-91218282D01*
X152245380Y-91272439D01*
X152148904Y-91461782D01*
X152083242Y-91663869D01*
X152083242Y-91663872D01*
X152050000Y-91873753D01*
X152050000Y-92086246D01*
X152083242Y-92296127D01*
X152083242Y-92296130D01*
X152148904Y-92498217D01*
X152245375Y-92687550D01*
X152284728Y-92741716D01*
X152917037Y-92109408D01*
X152934075Y-92172993D01*
X152999901Y-92287007D01*
X153092993Y-92380099D01*
X153207007Y-92445925D01*
X153270590Y-92462962D01*
X152638282Y-93095269D01*
X152638282Y-93095270D01*
X152692452Y-93134626D01*
X152692451Y-93134626D01*
X152701495Y-93139234D01*
X152752292Y-93187208D01*
X152769087Y-93255029D01*
X152746550Y-93321164D01*
X152701499Y-93360202D01*
X152692182Y-93364949D01*
X152520213Y-93489890D01*
X152369890Y-93640213D01*
X152244951Y-93812179D01*
X152148444Y-94001585D01*
X152082753Y-94203760D01*
X152067707Y-94298757D01*
X152049500Y-94413713D01*
X152049500Y-94626287D01*
X152082754Y-94836243D01*
X152137786Y-95005614D01*
X152148444Y-95038414D01*
X152244951Y-95227820D01*
X152369890Y-95399786D01*
X152520213Y-95550109D01*
X152692182Y-95675050D01*
X152700946Y-95679516D01*
X152751742Y-95727491D01*
X152768536Y-95795312D01*
X152745998Y-95861447D01*
X152700946Y-95900484D01*
X152692182Y-95904949D01*
X152520213Y-96029890D01*
X152369890Y-96180213D01*
X152244951Y-96352179D01*
X152148444Y-96541585D01*
X152082753Y-96743760D01*
X152061928Y-96875245D01*
X152049500Y-96953713D01*
X152049500Y-97166287D01*
X152082754Y-97376243D01*
X152137786Y-97545614D01*
X152148444Y-97578414D01*
X152244951Y-97767820D01*
X152369890Y-97939786D01*
X152520213Y-98090109D01*
X152692182Y-98215050D01*
X152700946Y-98219516D01*
X152751742Y-98267491D01*
X152768536Y-98335312D01*
X152745998Y-98401447D01*
X152700946Y-98440484D01*
X152692182Y-98444949D01*
X152520213Y-98569890D01*
X152369890Y-98720213D01*
X152244951Y-98892179D01*
X152148444Y-99081585D01*
X152082753Y-99283760D01*
X152067707Y-99378757D01*
X152049500Y-99493713D01*
X152049500Y-99706287D01*
X152082754Y-99916243D01*
X152137786Y-100085614D01*
X152148444Y-100118414D01*
X152244951Y-100307820D01*
X152369890Y-100479786D01*
X152520213Y-100630109D01*
X152692182Y-100755050D01*
X152700946Y-100759516D01*
X152751742Y-100807491D01*
X152768536Y-100875312D01*
X152745998Y-100941447D01*
X152700946Y-100980484D01*
X152692182Y-100984949D01*
X152520213Y-101109890D01*
X152369890Y-101260213D01*
X152244951Y-101432179D01*
X152148444Y-101621585D01*
X152082753Y-101823760D01*
X152049500Y-102033713D01*
X152049500Y-102246286D01*
X152078397Y-102428739D01*
X152082754Y-102456243D01*
X152137786Y-102625614D01*
X152148444Y-102658414D01*
X152244951Y-102847820D01*
X152369890Y-103019786D01*
X152520213Y-103170109D01*
X152692182Y-103295050D01*
X152700946Y-103299516D01*
X152751742Y-103347491D01*
X152768536Y-103415312D01*
X152745998Y-103481447D01*
X152700946Y-103520484D01*
X152692182Y-103524949D01*
X152520213Y-103649890D01*
X152369890Y-103800213D01*
X152244951Y-103972179D01*
X152148444Y-104161585D01*
X152082753Y-104363760D01*
X152056402Y-104530136D01*
X152049500Y-104573713D01*
X152049500Y-104786287D01*
X152053031Y-104808582D01*
X152078279Y-104967993D01*
X152082754Y-104996243D01*
X152137786Y-105165614D01*
X152148444Y-105198414D01*
X152244951Y-105387820D01*
X152369890Y-105559786D01*
X152520213Y-105710109D01*
X152692182Y-105835050D01*
X152700946Y-105839516D01*
X152751742Y-105887491D01*
X152768536Y-105955312D01*
X152745998Y-106021447D01*
X152700946Y-106060484D01*
X152692182Y-106064949D01*
X152520213Y-106189890D01*
X152369890Y-106340213D01*
X152244951Y-106512179D01*
X152148444Y-106701585D01*
X152082753Y-106903760D01*
X152082753Y-106903762D01*
X152049500Y-107113713D01*
X152049500Y-107326287D01*
X152082754Y-107536243D01*
X152137786Y-107705614D01*
X152148444Y-107738414D01*
X152244951Y-107927820D01*
X152369890Y-108099786D01*
X152520213Y-108250109D01*
X152692182Y-108375050D01*
X152700946Y-108379516D01*
X152751742Y-108427491D01*
X152768536Y-108495312D01*
X152745998Y-108561447D01*
X152700946Y-108600484D01*
X152692182Y-108604949D01*
X152520213Y-108729890D01*
X152369890Y-108880213D01*
X152244951Y-109052179D01*
X152148444Y-109241585D01*
X152082753Y-109443760D01*
X152049500Y-109653713D01*
X152049500Y-109866286D01*
X152080577Y-110062503D01*
X152082754Y-110076243D01*
X152137786Y-110245614D01*
X152148444Y-110278414D01*
X152244951Y-110467820D01*
X152369890Y-110639786D01*
X152520213Y-110790109D01*
X152692182Y-110915050D01*
X152700946Y-110919516D01*
X152751742Y-110967491D01*
X152768536Y-111035312D01*
X152745998Y-111101447D01*
X152700946Y-111140484D01*
X152692182Y-111144949D01*
X152520213Y-111269890D01*
X152369890Y-111420213D01*
X152244951Y-111592179D01*
X152148444Y-111781585D01*
X152082753Y-111983760D01*
X152054627Y-112161343D01*
X152049500Y-112193713D01*
X152049500Y-112406287D01*
X152082754Y-112616243D01*
X152137786Y-112785614D01*
X152148444Y-112818414D01*
X152244951Y-113007820D01*
X152369890Y-113179786D01*
X152520213Y-113330109D01*
X152692182Y-113455050D01*
X152700946Y-113459516D01*
X152751742Y-113507491D01*
X152768536Y-113575312D01*
X152745998Y-113641447D01*
X152700946Y-113680484D01*
X152692182Y-113684949D01*
X152520213Y-113809890D01*
X152369890Y-113960213D01*
X152244951Y-114132179D01*
X152148444Y-114321585D01*
X152082753Y-114523760D01*
X152058040Y-114679792D01*
X152049500Y-114733713D01*
X152049500Y-114946287D01*
X152082754Y-115156243D01*
X152137786Y-115325614D01*
X152148444Y-115358414D01*
X152244951Y-115547820D01*
X152369890Y-115719786D01*
X152520213Y-115870109D01*
X152692182Y-115995050D01*
X152700946Y-115999516D01*
X152751742Y-116047491D01*
X152768536Y-116115312D01*
X152745998Y-116181447D01*
X152700946Y-116220484D01*
X152692182Y-116224949D01*
X152520213Y-116349890D01*
X152369890Y-116500213D01*
X152244951Y-116672179D01*
X152148444Y-116861585D01*
X152082753Y-117063760D01*
X152059573Y-117210116D01*
X152049500Y-117273713D01*
X152049500Y-117486287D01*
X152082754Y-117696243D01*
X152137786Y-117865614D01*
X152148444Y-117898414D01*
X152244951Y-118087820D01*
X152369890Y-118259786D01*
X152520213Y-118410109D01*
X152692182Y-118535050D01*
X152700946Y-118539516D01*
X152751742Y-118587491D01*
X152768536Y-118655312D01*
X152745998Y-118721447D01*
X152700946Y-118760484D01*
X152692182Y-118764949D01*
X152520213Y-118889890D01*
X152369890Y-119040213D01*
X152244951Y-119212179D01*
X152148444Y-119401585D01*
X152082753Y-119603760D01*
X152058040Y-119759792D01*
X152049500Y-119813713D01*
X152049500Y-120026287D01*
X152082754Y-120236243D01*
X152137786Y-120405614D01*
X152148444Y-120438414D01*
X152244951Y-120627820D01*
X152369890Y-120799786D01*
X152520213Y-120950109D01*
X152692182Y-121075050D01*
X152700946Y-121079516D01*
X152751742Y-121127491D01*
X152768536Y-121195312D01*
X152745998Y-121261447D01*
X152700946Y-121300484D01*
X152692182Y-121304949D01*
X152520213Y-121429890D01*
X152369890Y-121580213D01*
X152244951Y-121752179D01*
X152148444Y-121941585D01*
X152082753Y-122143760D01*
X152058040Y-122299792D01*
X152049500Y-122353713D01*
X152049500Y-122566287D01*
X152082754Y-122776243D01*
X152137786Y-122945614D01*
X152148444Y-122978414D01*
X152244951Y-123167820D01*
X152369890Y-123339786D01*
X152483430Y-123453326D01*
X152516915Y-123514649D01*
X152511931Y-123584341D01*
X152470059Y-123640274D01*
X152439083Y-123657189D01*
X152307669Y-123706203D01*
X152307664Y-123706206D01*
X152192455Y-123792452D01*
X152192452Y-123792455D01*
X152106206Y-123907664D01*
X152106202Y-123907671D01*
X152055908Y-124042517D01*
X152050349Y-124094228D01*
X152049501Y-124102123D01*
X152049500Y-124102135D01*
X152049500Y-125897870D01*
X152049501Y-125897876D01*
X152055908Y-125957483D01*
X152106202Y-126092328D01*
X152106206Y-126092335D01*
X152192452Y-126207544D01*
X152192455Y-126207547D01*
X152307664Y-126293793D01*
X152307671Y-126293797D01*
X152442517Y-126344091D01*
X152442516Y-126344091D01*
X152449444Y-126344835D01*
X152502127Y-126350500D01*
X154297872Y-126350499D01*
X154357483Y-126344091D01*
X154492331Y-126293796D01*
X154607546Y-126207546D01*
X154693796Y-126092331D01*
X154744091Y-125957483D01*
X154750500Y-125897873D01*
X154750499Y-124802014D01*
X185200000Y-124802014D01*
X185200000Y-125037985D01*
X185230799Y-125271914D01*
X185291870Y-125499837D01*
X185382160Y-125717819D01*
X185382165Y-125717828D01*
X185500144Y-125922171D01*
X185500145Y-125922172D01*
X185562721Y-126003723D01*
X186398958Y-125167487D01*
X186423978Y-125227890D01*
X186495112Y-125334351D01*
X186585649Y-125424888D01*
X186692110Y-125496022D01*
X186752511Y-125521041D01*
X185916275Y-126357277D01*
X185997827Y-126419854D01*
X185997828Y-126419855D01*
X186202171Y-126537834D01*
X186202180Y-126537839D01*
X186420163Y-126628129D01*
X186420161Y-126628129D01*
X186648085Y-126689200D01*
X186882014Y-126719999D01*
X186882029Y-126720000D01*
X187117971Y-126720000D01*
X187117985Y-126719999D01*
X187351914Y-126689200D01*
X187579837Y-126628129D01*
X187797819Y-126537839D01*
X187797828Y-126537834D01*
X188002181Y-126419850D01*
X188083723Y-126357279D01*
X188083723Y-126357276D01*
X187247487Y-125521041D01*
X187307890Y-125496022D01*
X187414351Y-125424888D01*
X187504888Y-125334351D01*
X187576022Y-125227890D01*
X187601041Y-125167488D01*
X188437276Y-126003723D01*
X188437279Y-126003723D01*
X188499850Y-125922181D01*
X188617834Y-125717828D01*
X188617839Y-125717819D01*
X188708129Y-125499837D01*
X188769200Y-125271914D01*
X188799999Y-125037985D01*
X188800000Y-125037971D01*
X188800000Y-124802028D01*
X188799999Y-124802014D01*
X188769200Y-124568085D01*
X188708129Y-124340162D01*
X188617839Y-124122180D01*
X188617834Y-124122171D01*
X188499855Y-123917828D01*
X188499854Y-123917827D01*
X188437277Y-123836275D01*
X187601041Y-124672511D01*
X187576022Y-124612110D01*
X187504888Y-124505649D01*
X187414351Y-124415112D01*
X187307890Y-124343978D01*
X187247488Y-124318958D01*
X188083723Y-123482721D01*
X188002172Y-123420145D01*
X188002171Y-123420144D01*
X187797828Y-123302165D01*
X187797819Y-123302160D01*
X187579836Y-123211870D01*
X187579838Y-123211870D01*
X187351914Y-123150799D01*
X187117985Y-123120000D01*
X186882014Y-123120000D01*
X186648085Y-123150799D01*
X186420162Y-123211870D01*
X186202180Y-123302160D01*
X186202171Y-123302165D01*
X185997828Y-123420144D01*
X185997818Y-123420150D01*
X185916275Y-123482720D01*
X185916275Y-123482721D01*
X186752512Y-124318958D01*
X186692110Y-124343978D01*
X186585649Y-124415112D01*
X186495112Y-124505649D01*
X186423978Y-124612110D01*
X186398958Y-124672512D01*
X185562721Y-123836275D01*
X185562720Y-123836275D01*
X185500150Y-123917818D01*
X185500144Y-123917828D01*
X185382165Y-124122171D01*
X185382160Y-124122180D01*
X185291870Y-124340162D01*
X185230799Y-124568085D01*
X185200000Y-124802014D01*
X154750499Y-124802014D01*
X154750499Y-124102128D01*
X154744091Y-124042517D01*
X154739238Y-124029506D01*
X154693797Y-123907671D01*
X154693793Y-123907664D01*
X154607547Y-123792455D01*
X154607544Y-123792452D01*
X154492335Y-123706206D01*
X154492328Y-123706202D01*
X154360917Y-123657189D01*
X154304983Y-123615318D01*
X154280566Y-123549853D01*
X154295418Y-123481580D01*
X154316563Y-123453332D01*
X154430104Y-123339792D01*
X154453935Y-123306992D01*
X154555048Y-123167820D01*
X154555047Y-123167820D01*
X154555051Y-123167816D01*
X154651557Y-122978412D01*
X154717246Y-122776243D01*
X154750500Y-122566287D01*
X154750500Y-122353713D01*
X154717246Y-122143757D01*
X154651557Y-121941588D01*
X154555051Y-121752184D01*
X154555049Y-121752181D01*
X154555048Y-121752179D01*
X154430109Y-121580213D01*
X154279786Y-121429890D01*
X154107820Y-121304951D01*
X154107115Y-121304591D01*
X154099054Y-121300485D01*
X154048259Y-121252512D01*
X154031463Y-121184692D01*
X154053999Y-121118556D01*
X154099054Y-121079515D01*
X154107816Y-121075051D01*
X154221751Y-120992273D01*
X154279786Y-120950109D01*
X154279788Y-120950106D01*
X154279792Y-120950104D01*
X154430104Y-120799792D01*
X154430106Y-120799788D01*
X154430109Y-120799786D01*
X154555048Y-120627820D01*
X154555047Y-120627820D01*
X154555051Y-120627816D01*
X154651557Y-120438412D01*
X154717246Y-120236243D01*
X154750500Y-120026287D01*
X154750500Y-119813713D01*
X154717246Y-119603757D01*
X154651557Y-119401588D01*
X154555051Y-119212184D01*
X154555049Y-119212181D01*
X154555048Y-119212179D01*
X154430109Y-119040213D01*
X154279786Y-118889890D01*
X154107820Y-118764951D01*
X154107115Y-118764591D01*
X154099054Y-118760485D01*
X154048259Y-118712512D01*
X154031463Y-118644692D01*
X154053999Y-118578556D01*
X154099054Y-118539515D01*
X154107816Y-118535051D01*
X154221751Y-118452273D01*
X154279786Y-118410109D01*
X154279788Y-118410106D01*
X154279792Y-118410104D01*
X154430104Y-118259792D01*
X154430106Y-118259788D01*
X154430109Y-118259786D01*
X154555048Y-118087820D01*
X154555047Y-118087820D01*
X154555051Y-118087816D01*
X154651557Y-117898412D01*
X154717246Y-117696243D01*
X154750500Y-117486287D01*
X154750500Y-117273713D01*
X154717246Y-117063757D01*
X154651557Y-116861588D01*
X154555051Y-116672184D01*
X154555049Y-116672181D01*
X154555048Y-116672179D01*
X154430109Y-116500213D01*
X154279786Y-116349890D01*
X154107820Y-116224951D01*
X154107115Y-116224591D01*
X154099054Y-116220485D01*
X154048259Y-116172512D01*
X154031463Y-116104692D01*
X154053999Y-116038556D01*
X154099054Y-115999515D01*
X154107816Y-115995051D01*
X154221751Y-115912273D01*
X154279786Y-115870109D01*
X154279788Y-115870106D01*
X154279792Y-115870104D01*
X154430104Y-115719792D01*
X154430106Y-115719788D01*
X154430109Y-115719786D01*
X154555048Y-115547820D01*
X154555047Y-115547820D01*
X154555051Y-115547816D01*
X154651557Y-115358412D01*
X154717246Y-115156243D01*
X154750500Y-114946287D01*
X154750500Y-114733713D01*
X154717246Y-114523757D01*
X154651557Y-114321588D01*
X154555051Y-114132184D01*
X154555049Y-114132181D01*
X154555048Y-114132179D01*
X154430109Y-113960213D01*
X154279786Y-113809890D01*
X154107820Y-113684951D01*
X154107115Y-113684591D01*
X154099054Y-113680485D01*
X154048259Y-113632512D01*
X154031463Y-113564692D01*
X154053999Y-113498556D01*
X154099054Y-113459515D01*
X154107816Y-113455051D01*
X154221751Y-113372273D01*
X154279786Y-113330109D01*
X154279788Y-113330106D01*
X154279792Y-113330104D01*
X154430104Y-113179792D01*
X154430106Y-113179788D01*
X154430109Y-113179786D01*
X154555048Y-113007820D01*
X154555047Y-113007820D01*
X154555051Y-113007816D01*
X154651557Y-112818412D01*
X154717246Y-112616243D01*
X154750500Y-112406287D01*
X154750500Y-112193713D01*
X154717246Y-111983757D01*
X154651557Y-111781588D01*
X154555051Y-111592184D01*
X154555049Y-111592181D01*
X154555048Y-111592179D01*
X154430109Y-111420213D01*
X154279786Y-111269890D01*
X154107820Y-111144951D01*
X154107115Y-111144591D01*
X154099054Y-111140485D01*
X154048259Y-111092512D01*
X154031463Y-111024692D01*
X154053999Y-110958556D01*
X154099054Y-110919515D01*
X154107816Y-110915051D01*
X154221751Y-110832273D01*
X154279786Y-110790109D01*
X154279788Y-110790106D01*
X154279792Y-110790104D01*
X154430104Y-110639792D01*
X154430106Y-110639788D01*
X154430109Y-110639786D01*
X154555048Y-110467820D01*
X154555047Y-110467820D01*
X154555051Y-110467816D01*
X154651557Y-110278412D01*
X154717246Y-110076243D01*
X154750500Y-109866287D01*
X154750500Y-109653713D01*
X154717246Y-109443757D01*
X154651557Y-109241588D01*
X154555051Y-109052184D01*
X154555049Y-109052181D01*
X154555048Y-109052179D01*
X154430109Y-108880213D01*
X154279786Y-108729890D01*
X154107820Y-108604951D01*
X154107115Y-108604591D01*
X154099054Y-108600485D01*
X154048259Y-108552512D01*
X154031463Y-108484692D01*
X154053999Y-108418556D01*
X154099054Y-108379515D01*
X154107816Y-108375051D01*
X154221751Y-108292273D01*
X154279786Y-108250109D01*
X154279788Y-108250106D01*
X154279792Y-108250104D01*
X154430104Y-108099792D01*
X154430106Y-108099788D01*
X154430109Y-108099786D01*
X154555048Y-107927820D01*
X154555047Y-107927820D01*
X154555051Y-107927816D01*
X154651557Y-107738412D01*
X154717246Y-107536243D01*
X154750500Y-107326287D01*
X154750500Y-107113713D01*
X154717246Y-106903757D01*
X154703506Y-106861473D01*
X154701512Y-106791635D01*
X154733755Y-106735478D01*
X163243363Y-98225870D01*
X163304684Y-98192387D01*
X163374376Y-98197371D01*
X163403927Y-98213235D01*
X163537182Y-98310050D01*
X163545946Y-98314516D01*
X163596742Y-98362491D01*
X163613536Y-98430312D01*
X163590998Y-98496447D01*
X163545946Y-98535484D01*
X163537182Y-98539949D01*
X163365213Y-98664890D01*
X163214890Y-98815213D01*
X163089951Y-98987179D01*
X162993444Y-99176585D01*
X162927753Y-99378760D01*
X162894500Y-99588713D01*
X162894500Y-99801286D01*
X162918621Y-99953584D01*
X162927754Y-100011243D01*
X162967796Y-100134480D01*
X162993444Y-100213414D01*
X163089951Y-100402820D01*
X163214890Y-100574786D01*
X163365213Y-100725109D01*
X163537182Y-100850050D01*
X163545946Y-100854516D01*
X163596742Y-100902491D01*
X163613536Y-100970312D01*
X163590998Y-101036447D01*
X163545946Y-101075484D01*
X163537182Y-101079949D01*
X163365213Y-101204890D01*
X163214890Y-101355213D01*
X163089951Y-101527179D01*
X162993444Y-101716585D01*
X162993443Y-101716587D01*
X162993443Y-101716588D01*
X162972360Y-101781476D01*
X162927753Y-101918760D01*
X162895631Y-102121570D01*
X162894500Y-102128713D01*
X162894500Y-102341287D01*
X162927754Y-102551243D01*
X162962575Y-102658412D01*
X162993444Y-102753414D01*
X163089951Y-102942820D01*
X163214890Y-103114786D01*
X163365213Y-103265109D01*
X163537182Y-103390050D01*
X163545946Y-103394516D01*
X163596742Y-103442491D01*
X163613536Y-103510312D01*
X163590998Y-103576447D01*
X163545946Y-103615484D01*
X163537182Y-103619949D01*
X163365213Y-103744890D01*
X163214890Y-103895213D01*
X163089951Y-104067179D01*
X162993444Y-104256585D01*
X162927753Y-104458760D01*
X162894500Y-104668713D01*
X162894500Y-104881286D01*
X162927735Y-105091127D01*
X162927754Y-105091243D01*
X162962575Y-105198412D01*
X162993444Y-105293414D01*
X163089951Y-105482820D01*
X163214890Y-105654786D01*
X163365213Y-105805109D01*
X163537179Y-105930048D01*
X163537181Y-105930049D01*
X163537184Y-105930051D01*
X163726588Y-106026557D01*
X163928757Y-106092246D01*
X164138713Y-106125500D01*
X164138714Y-106125500D01*
X164351286Y-106125500D01*
X164351287Y-106125500D01*
X164561243Y-106092246D01*
X164763412Y-106026557D01*
X164952816Y-105930051D01*
X165011395Y-105887491D01*
X165124786Y-105805109D01*
X165124788Y-105805106D01*
X165124792Y-105805104D01*
X165275104Y-105654792D01*
X165275106Y-105654788D01*
X165275109Y-105654786D01*
X165400048Y-105482820D01*
X165400047Y-105482820D01*
X165400051Y-105482816D01*
X165496557Y-105293412D01*
X165562246Y-105091243D01*
X165595500Y-104881287D01*
X165595500Y-104668713D01*
X165562246Y-104458757D01*
X165496557Y-104256588D01*
X165400051Y-104067184D01*
X165400049Y-104067181D01*
X165400048Y-104067179D01*
X165275109Y-103895213D01*
X165124786Y-103744890D01*
X164952820Y-103619951D01*
X164952115Y-103619591D01*
X164944054Y-103615485D01*
X164893259Y-103567512D01*
X164876463Y-103499692D01*
X164898999Y-103433556D01*
X164944054Y-103394515D01*
X164952816Y-103390051D01*
X165011395Y-103347491D01*
X165124786Y-103265109D01*
X165124788Y-103265106D01*
X165124792Y-103265104D01*
X165275104Y-103114792D01*
X165275106Y-103114788D01*
X165275109Y-103114786D01*
X165400048Y-102942820D01*
X165400047Y-102942820D01*
X165400051Y-102942816D01*
X165496557Y-102753412D01*
X165562246Y-102551243D01*
X165595500Y-102341287D01*
X165595500Y-102128713D01*
X165562246Y-101918757D01*
X165496557Y-101716588D01*
X165400051Y-101527184D01*
X165400049Y-101527181D01*
X165400048Y-101527179D01*
X165275109Y-101355213D01*
X165124786Y-101204890D01*
X164952820Y-101079951D01*
X164952115Y-101079591D01*
X164944054Y-101075485D01*
X164893259Y-101027512D01*
X164876463Y-100959692D01*
X164898999Y-100893556D01*
X164944054Y-100854515D01*
X164952816Y-100850051D01*
X165011395Y-100807491D01*
X165124786Y-100725109D01*
X165124788Y-100725106D01*
X165124792Y-100725104D01*
X165275104Y-100574792D01*
X165275106Y-100574788D01*
X165275109Y-100574786D01*
X165400048Y-100402820D01*
X165400047Y-100402820D01*
X165400051Y-100402816D01*
X165496557Y-100213412D01*
X165562246Y-100011243D01*
X165595500Y-99801287D01*
X165595500Y-99588713D01*
X165562246Y-99378757D01*
X165496557Y-99176588D01*
X165400051Y-98987184D01*
X165400049Y-98987181D01*
X165400048Y-98987179D01*
X165275109Y-98815213D01*
X165124786Y-98664890D01*
X164952820Y-98539951D01*
X164952115Y-98539591D01*
X164944054Y-98535485D01*
X164893259Y-98487512D01*
X164876463Y-98419692D01*
X164898999Y-98353556D01*
X164944054Y-98314515D01*
X164952816Y-98310051D01*
X165013124Y-98266235D01*
X165124786Y-98185109D01*
X165124788Y-98185106D01*
X165124792Y-98185104D01*
X165275104Y-98034792D01*
X165275106Y-98034788D01*
X165275109Y-98034786D01*
X165400048Y-97862820D01*
X165400050Y-97862817D01*
X165400051Y-97862816D01*
X165496557Y-97673412D01*
X165562246Y-97471243D01*
X165595500Y-97261287D01*
X165595500Y-97048713D01*
X165562246Y-96838757D01*
X165496557Y-96636588D01*
X165400051Y-96447184D01*
X165400049Y-96447181D01*
X165400048Y-96447179D01*
X165275109Y-96275213D01*
X165124786Y-96124890D01*
X164952820Y-95999951D01*
X164952115Y-95999591D01*
X164944054Y-95995485D01*
X164893259Y-95947512D01*
X164876463Y-95879692D01*
X164898999Y-95813556D01*
X164944054Y-95774515D01*
X164952816Y-95770051D01*
X165011395Y-95727491D01*
X165124786Y-95645109D01*
X165124788Y-95645106D01*
X165124792Y-95645104D01*
X165275104Y-95494792D01*
X165275106Y-95494788D01*
X165275109Y-95494786D01*
X165400048Y-95322820D01*
X165400047Y-95322820D01*
X165400051Y-95322816D01*
X165496557Y-95133412D01*
X165562246Y-94931243D01*
X165595500Y-94721287D01*
X165595500Y-94508713D01*
X165562246Y-94298757D01*
X165496557Y-94096588D01*
X165400051Y-93907184D01*
X165400049Y-93907181D01*
X165400048Y-93907179D01*
X165275109Y-93735213D01*
X165124786Y-93584890D01*
X164952820Y-93459951D01*
X164952115Y-93459591D01*
X164944054Y-93455485D01*
X164893259Y-93407512D01*
X164876463Y-93339692D01*
X164898999Y-93273556D01*
X164944054Y-93234515D01*
X164952816Y-93230051D01*
X165022124Y-93179696D01*
X165124786Y-93105109D01*
X165124788Y-93105106D01*
X165124792Y-93105104D01*
X165275104Y-92954792D01*
X165275106Y-92954788D01*
X165275109Y-92954786D01*
X165400048Y-92782820D01*
X165400047Y-92782820D01*
X165400051Y-92782816D01*
X165496557Y-92593412D01*
X165562246Y-92391243D01*
X165595500Y-92181287D01*
X165595500Y-91968713D01*
X165562246Y-91758757D01*
X165496557Y-91556588D01*
X165400051Y-91367184D01*
X165400049Y-91367181D01*
X165400048Y-91367179D01*
X165275109Y-91195213D01*
X165124786Y-91044890D01*
X164952820Y-90919951D01*
X164952115Y-90919591D01*
X164944054Y-90915485D01*
X164893259Y-90867512D01*
X164876463Y-90799692D01*
X164898999Y-90733556D01*
X164944054Y-90694515D01*
X164952816Y-90690051D01*
X165011017Y-90647766D01*
X165124786Y-90565109D01*
X165124788Y-90565106D01*
X165124792Y-90565104D01*
X165275104Y-90414792D01*
X165275106Y-90414788D01*
X165275109Y-90414786D01*
X165400048Y-90242820D01*
X165400047Y-90242820D01*
X165400051Y-90242816D01*
X165496557Y-90053412D01*
X165562246Y-89851243D01*
X165595500Y-89641287D01*
X165595500Y-89428713D01*
X165562246Y-89218757D01*
X165496557Y-89016588D01*
X165400051Y-88827184D01*
X165400049Y-88827181D01*
X165400048Y-88827179D01*
X165275109Y-88655213D01*
X165124786Y-88504890D01*
X164952820Y-88379951D01*
X164952115Y-88379591D01*
X164944054Y-88375485D01*
X164893259Y-88327512D01*
X164876463Y-88259692D01*
X164898999Y-88193556D01*
X164944054Y-88154515D01*
X164952816Y-88150051D01*
X165035533Y-88089954D01*
X165124786Y-88025109D01*
X165124788Y-88025106D01*
X165124792Y-88025104D01*
X165275104Y-87874792D01*
X165275106Y-87874788D01*
X165275109Y-87874786D01*
X165400048Y-87702820D01*
X165400047Y-87702820D01*
X165400051Y-87702816D01*
X165496557Y-87513412D01*
X165562246Y-87311243D01*
X165595500Y-87101287D01*
X165595500Y-86888713D01*
X165562246Y-86678757D01*
X165496557Y-86476588D01*
X165400051Y-86287184D01*
X165400049Y-86287181D01*
X165400048Y-86287179D01*
X165275109Y-86115213D01*
X165124786Y-85964890D01*
X164952820Y-85839951D01*
X164952115Y-85839591D01*
X164944054Y-85835485D01*
X164893259Y-85787512D01*
X164876463Y-85719692D01*
X164898999Y-85653556D01*
X164944054Y-85614515D01*
X164952816Y-85610051D01*
X164974789Y-85594086D01*
X165124786Y-85485109D01*
X165124788Y-85485106D01*
X165124792Y-85485104D01*
X165275104Y-85334792D01*
X165275106Y-85334788D01*
X165275109Y-85334786D01*
X165400048Y-85162820D01*
X165400047Y-85162820D01*
X165400051Y-85162816D01*
X165496557Y-84973412D01*
X165562246Y-84771243D01*
X165595500Y-84561287D01*
X165595500Y-84348713D01*
X165562246Y-84138757D01*
X165496557Y-83936588D01*
X165400051Y-83747184D01*
X165400049Y-83747181D01*
X165400048Y-83747179D01*
X165275109Y-83575213D01*
X165161569Y-83461673D01*
X165128084Y-83400350D01*
X165133068Y-83330658D01*
X165174940Y-83274725D01*
X165205915Y-83257810D01*
X165337331Y-83208796D01*
X165452546Y-83122546D01*
X165538796Y-83007331D01*
X165589091Y-82872483D01*
X165595500Y-82812873D01*
X165595499Y-81017128D01*
X165589091Y-80957517D01*
X165544830Y-80838848D01*
X165538797Y-80822671D01*
X165538793Y-80822664D01*
X165452547Y-80707455D01*
X165452544Y-80707452D01*
X165337335Y-80621206D01*
X165337328Y-80621202D01*
X165202482Y-80570908D01*
X165202483Y-80570908D01*
X165142883Y-80564501D01*
X165142881Y-80564500D01*
X165142873Y-80564500D01*
X165142864Y-80564500D01*
X163347129Y-80564500D01*
X163347123Y-80564501D01*
X163287516Y-80570908D01*
X163152671Y-80621202D01*
X163152664Y-80621206D01*
X163037455Y-80707452D01*
X163037452Y-80707455D01*
X162951206Y-80822664D01*
X162951202Y-80822671D01*
X162900908Y-80957517D01*
X162894501Y-81017116D01*
X162894501Y-81017123D01*
X162894500Y-81017135D01*
X162894500Y-82812870D01*
X162894501Y-82812876D01*
X162900908Y-82872483D01*
X162951202Y-83007328D01*
X162951206Y-83007335D01*
X163037452Y-83122544D01*
X163037455Y-83122547D01*
X163152664Y-83208793D01*
X163152671Y-83208797D01*
X163284082Y-83257810D01*
X163340016Y-83299681D01*
X163364433Y-83365145D01*
X163349582Y-83433418D01*
X163328431Y-83461673D01*
X163214889Y-83575215D01*
X163089951Y-83747179D01*
X162993444Y-83936585D01*
X162927753Y-84138760D01*
X162894500Y-84348713D01*
X162894500Y-84561286D01*
X162913153Y-84679060D01*
X162927754Y-84771243D01*
X162969621Y-84900097D01*
X162993444Y-84973414D01*
X163089951Y-85162820D01*
X163214890Y-85334786D01*
X163365213Y-85485109D01*
X163537182Y-85610050D01*
X163545946Y-85614516D01*
X163596742Y-85662491D01*
X163613536Y-85730312D01*
X163590998Y-85796447D01*
X163545946Y-85835484D01*
X163537182Y-85839949D01*
X163365213Y-85964890D01*
X163214890Y-86115213D01*
X163089951Y-86287179D01*
X162993444Y-86476585D01*
X162993443Y-86476587D01*
X162993443Y-86476588D01*
X162960598Y-86577672D01*
X162927753Y-86678760D01*
X162921974Y-86715250D01*
X162894500Y-86888713D01*
X162894500Y-87101287D01*
X162911127Y-87206265D01*
X162927754Y-87311244D01*
X162927754Y-87311247D01*
X162941491Y-87353523D01*
X162943486Y-87423364D01*
X162911241Y-87479522D01*
X161631286Y-88759478D01*
X161519481Y-88871282D01*
X161519480Y-88871284D01*
X161482983Y-88934499D01*
X161440423Y-89008215D01*
X161399499Y-89160943D01*
X161399499Y-89160945D01*
X161399499Y-89329046D01*
X161399500Y-89329059D01*
X161399500Y-90699902D01*
X161379815Y-90766941D01*
X161363181Y-90787583D01*
X154962181Y-97188583D01*
X154900858Y-97222068D01*
X154831166Y-97217084D01*
X154775233Y-97175212D01*
X154750816Y-97109748D01*
X154750500Y-97100902D01*
X154750500Y-96953713D01*
X154745305Y-96920913D01*
X154717246Y-96743757D01*
X154651557Y-96541588D01*
X154555051Y-96352184D01*
X154555049Y-96352181D01*
X154555048Y-96352179D01*
X154430109Y-96180213D01*
X154279786Y-96029890D01*
X154107820Y-95904951D01*
X154104860Y-95903443D01*
X154099054Y-95900485D01*
X154048259Y-95852512D01*
X154031463Y-95784692D01*
X154053999Y-95718556D01*
X154099054Y-95679515D01*
X154107816Y-95675051D01*
X154221751Y-95592273D01*
X154279786Y-95550109D01*
X154279788Y-95550106D01*
X154279792Y-95550104D01*
X154430104Y-95399792D01*
X154430106Y-95399788D01*
X154430109Y-95399786D01*
X154555048Y-95227820D01*
X154555047Y-95227820D01*
X154555051Y-95227816D01*
X154651557Y-95038412D01*
X154717246Y-94836243D01*
X154750500Y-94626287D01*
X154750500Y-94413713D01*
X154717246Y-94203757D01*
X154651557Y-94001588D01*
X154555051Y-93812184D01*
X154555049Y-93812181D01*
X154555048Y-93812179D01*
X154430109Y-93640213D01*
X154279786Y-93489890D01*
X154107817Y-93364949D01*
X154098504Y-93360204D01*
X154047707Y-93312230D01*
X154030912Y-93244409D01*
X154053449Y-93178274D01*
X154098507Y-93139232D01*
X154107555Y-93134622D01*
X154161716Y-93095270D01*
X154161717Y-93095270D01*
X153529408Y-92462962D01*
X153592993Y-92445925D01*
X153707007Y-92380099D01*
X153800099Y-92287007D01*
X153865925Y-92172993D01*
X153882962Y-92109408D01*
X154515270Y-92741717D01*
X154515270Y-92741716D01*
X154554622Y-92687554D01*
X154651095Y-92498217D01*
X154716757Y-92296130D01*
X154716757Y-92296127D01*
X154750000Y-92086246D01*
X154750000Y-91873753D01*
X154716757Y-91663872D01*
X154716757Y-91663869D01*
X154651095Y-91461782D01*
X154554624Y-91272449D01*
X154515270Y-91218282D01*
X154515269Y-91218282D01*
X153882962Y-91850590D01*
X153865925Y-91787007D01*
X153800099Y-91672993D01*
X153707007Y-91579901D01*
X153592993Y-91514075D01*
X153529409Y-91497037D01*
X154161716Y-90864728D01*
X154107547Y-90825373D01*
X154107547Y-90825372D01*
X154098500Y-90820763D01*
X154047706Y-90772788D01*
X154030912Y-90704966D01*
X154053451Y-90638832D01*
X154098508Y-90599793D01*
X154107816Y-90595051D01*
X154187007Y-90537515D01*
X154279786Y-90470109D01*
X154279788Y-90470106D01*
X154279792Y-90470104D01*
X154430104Y-90319792D01*
X154430106Y-90319788D01*
X154430109Y-90319786D01*
X154555048Y-90147820D01*
X154555047Y-90147820D01*
X154555051Y-90147816D01*
X154651557Y-89958412D01*
X154717246Y-89756243D01*
X154750500Y-89546287D01*
X154750500Y-89333713D01*
X154717246Y-89123757D01*
X154651557Y-88921588D01*
X154555051Y-88732184D01*
X154555049Y-88732181D01*
X154555048Y-88732179D01*
X154430109Y-88560213D01*
X154279786Y-88409890D01*
X154107815Y-88284948D01*
X154107814Y-88284947D01*
X154068205Y-88264765D01*
X154017409Y-88216791D01*
X154000500Y-88154281D01*
X154000500Y-84900097D01*
X154020185Y-84833058D01*
X154036819Y-84812416D01*
X159212416Y-79636819D01*
X159273739Y-79603334D01*
X159300097Y-79600500D01*
X174199903Y-79600500D01*
X174266942Y-79620185D01*
X174287584Y-79636819D01*
X175036569Y-80385804D01*
X175070054Y-80447127D01*
X175065070Y-80516819D01*
X175023198Y-80572752D01*
X174992222Y-80589667D01*
X174907669Y-80621203D01*
X174907664Y-80621206D01*
X174792455Y-80707452D01*
X174792452Y-80707455D01*
X174706206Y-80822664D01*
X174706202Y-80822671D01*
X174655908Y-80957517D01*
X174649501Y-81017116D01*
X174649501Y-81017123D01*
X174649500Y-81017135D01*
X174649500Y-82812870D01*
X174649501Y-82812876D01*
X174655908Y-82872483D01*
X174706202Y-83007328D01*
X174706206Y-83007335D01*
X174792452Y-83122544D01*
X174792455Y-83122547D01*
X174907664Y-83208793D01*
X174907671Y-83208797D01*
X175039082Y-83257810D01*
X175095016Y-83299681D01*
X175119433Y-83365145D01*
X175104582Y-83433418D01*
X175083431Y-83461673D01*
X174969889Y-83575215D01*
X174844951Y-83747179D01*
X174748444Y-83936585D01*
X174682753Y-84138760D01*
X174649500Y-84348713D01*
X174649500Y-84561286D01*
X174668153Y-84679060D01*
X174682754Y-84771243D01*
X174724621Y-84900097D01*
X174748444Y-84973414D01*
X174844951Y-85162820D01*
X174969890Y-85334786D01*
X175120213Y-85485109D01*
X175292182Y-85610050D01*
X175300946Y-85614516D01*
X175351742Y-85662491D01*
X175368536Y-85730312D01*
X175345998Y-85796447D01*
X175300946Y-85835484D01*
X175292182Y-85839949D01*
X175120213Y-85964890D01*
X174969890Y-86115213D01*
X174844951Y-86287179D01*
X174748444Y-86476585D01*
X174748443Y-86476587D01*
X174748443Y-86476588D01*
X174715598Y-86577672D01*
X174682753Y-86678760D01*
X174649500Y-86888713D01*
X174649500Y-87101286D01*
X174682753Y-87311239D01*
X174682753Y-87311241D01*
X174682754Y-87311243D01*
X174737431Y-87479522D01*
X174748444Y-87513414D01*
X174844951Y-87702820D01*
X174969890Y-87874786D01*
X175120213Y-88025109D01*
X175292182Y-88150050D01*
X175300946Y-88154516D01*
X175351742Y-88202491D01*
X175368536Y-88270312D01*
X175345998Y-88336447D01*
X175300946Y-88375484D01*
X175292182Y-88379949D01*
X175120213Y-88504890D01*
X174969890Y-88655213D01*
X174844951Y-88827179D01*
X174748444Y-89016585D01*
X174682753Y-89218760D01*
X174650914Y-89419786D01*
X174649500Y-89428713D01*
X174649500Y-89641287D01*
X174682754Y-89851243D01*
X174737431Y-90019522D01*
X174748444Y-90053414D01*
X174844951Y-90242820D01*
X174969890Y-90414786D01*
X175120213Y-90565109D01*
X175292182Y-90690050D01*
X175300946Y-90694516D01*
X175351742Y-90742491D01*
X175368536Y-90810312D01*
X175345998Y-90876447D01*
X175300946Y-90915484D01*
X175292182Y-90919949D01*
X175120213Y-91044890D01*
X174969890Y-91195213D01*
X174844951Y-91367179D01*
X174748444Y-91556585D01*
X174682753Y-91758760D01*
X174652907Y-91947200D01*
X174649500Y-91968713D01*
X174649500Y-92181287D01*
X174659534Y-92244644D01*
X174681503Y-92383349D01*
X174682754Y-92391243D01*
X174737431Y-92559522D01*
X174748444Y-92593414D01*
X174844951Y-92782820D01*
X174969890Y-92954786D01*
X175120213Y-93105109D01*
X175292182Y-93230050D01*
X175300946Y-93234516D01*
X175351742Y-93282491D01*
X175368536Y-93350312D01*
X175345998Y-93416447D01*
X175300946Y-93455484D01*
X175292182Y-93459949D01*
X175120213Y-93584890D01*
X174969890Y-93735213D01*
X174844951Y-93907179D01*
X174748444Y-94096585D01*
X174682753Y-94298760D01*
X174649500Y-94508713D01*
X174649500Y-94721286D01*
X174682753Y-94931239D01*
X174682753Y-94931241D01*
X174682754Y-94931243D01*
X174737431Y-95099522D01*
X174748444Y-95133414D01*
X174844951Y-95322820D01*
X174969890Y-95494786D01*
X175120213Y-95645109D01*
X175292182Y-95770050D01*
X175300946Y-95774516D01*
X175351742Y-95822491D01*
X175368536Y-95890312D01*
X175345998Y-95956447D01*
X175300946Y-95995484D01*
X175292182Y-95999949D01*
X175120213Y-96124890D01*
X174969890Y-96275213D01*
X174844951Y-96447179D01*
X174748444Y-96636585D01*
X174748443Y-96636587D01*
X174748443Y-96636588D01*
X174724279Y-96710957D01*
X174682753Y-96838760D01*
X174649500Y-97048713D01*
X174649500Y-97261286D01*
X174682753Y-97471239D01*
X174682753Y-97471241D01*
X174682754Y-97471243D01*
X174740441Y-97648786D01*
X174748444Y-97673414D01*
X174844951Y-97862820D01*
X174969890Y-98034786D01*
X175120213Y-98185109D01*
X175292182Y-98310050D01*
X175300946Y-98314516D01*
X175351742Y-98362491D01*
X175368536Y-98430312D01*
X175345998Y-98496447D01*
X175300946Y-98535484D01*
X175292182Y-98539949D01*
X175120213Y-98664890D01*
X174969890Y-98815213D01*
X174844951Y-98987179D01*
X174748444Y-99176585D01*
X174682753Y-99378760D01*
X174649500Y-99588713D01*
X174649500Y-99801286D01*
X174673621Y-99953584D01*
X174682754Y-100011243D01*
X174722796Y-100134480D01*
X174748444Y-100213414D01*
X174844951Y-100402820D01*
X174969890Y-100574786D01*
X175120213Y-100725109D01*
X175292182Y-100850050D01*
X175300946Y-100854516D01*
X175351742Y-100902491D01*
X175368536Y-100970312D01*
X175345998Y-101036447D01*
X175300946Y-101075484D01*
X175292182Y-101079949D01*
X175120213Y-101204890D01*
X174969890Y-101355213D01*
X174844951Y-101527179D01*
X174748444Y-101716585D01*
X174748443Y-101716587D01*
X174748443Y-101716588D01*
X174727360Y-101781476D01*
X174682753Y-101918760D01*
X174650631Y-102121570D01*
X174649500Y-102128713D01*
X174649500Y-102341287D01*
X174682754Y-102551243D01*
X174717575Y-102658412D01*
X174748444Y-102753414D01*
X174844951Y-102942820D01*
X174969890Y-103114786D01*
X175120213Y-103265109D01*
X175292179Y-103390048D01*
X175292181Y-103390049D01*
X175292184Y-103390051D01*
X175301493Y-103394794D01*
X175352290Y-103442766D01*
X175369087Y-103510587D01*
X175346552Y-103576722D01*
X175301505Y-103615760D01*
X175292446Y-103620376D01*
X175292440Y-103620380D01*
X175238282Y-103659727D01*
X175238282Y-103659728D01*
X175870591Y-104292037D01*
X175807007Y-104309075D01*
X175692993Y-104374901D01*
X175599901Y-104467993D01*
X175534075Y-104582007D01*
X175517037Y-104645591D01*
X174884728Y-104013282D01*
X174884727Y-104013282D01*
X174845380Y-104067439D01*
X174748904Y-104256782D01*
X174683242Y-104458869D01*
X174683242Y-104458872D01*
X174650000Y-104668753D01*
X174650000Y-104881246D01*
X174683242Y-105091127D01*
X174683242Y-105091130D01*
X174748904Y-105293217D01*
X174845375Y-105482550D01*
X174884728Y-105536716D01*
X175517037Y-104904408D01*
X175534075Y-104967993D01*
X175599901Y-105082007D01*
X175692993Y-105175099D01*
X175807007Y-105240925D01*
X175870590Y-105257962D01*
X175238282Y-105890269D01*
X175238282Y-105890270D01*
X175292449Y-105929624D01*
X175481782Y-106026095D01*
X175683870Y-106091757D01*
X175893754Y-106125000D01*
X176106246Y-106125000D01*
X176316127Y-106091757D01*
X176316130Y-106091757D01*
X176518217Y-106026095D01*
X176707554Y-105929622D01*
X176761716Y-105890270D01*
X176761717Y-105890270D01*
X176129408Y-105257962D01*
X176192993Y-105240925D01*
X176307007Y-105175099D01*
X176400099Y-105082007D01*
X176465925Y-104967993D01*
X176482962Y-104904408D01*
X177115270Y-105536717D01*
X177115270Y-105536716D01*
X177154622Y-105482554D01*
X177251095Y-105293217D01*
X177316757Y-105091130D01*
X177316757Y-105091127D01*
X177350000Y-104881246D01*
X177350000Y-104668753D01*
X177316757Y-104458872D01*
X177316757Y-104458869D01*
X177251095Y-104256782D01*
X177154624Y-104067449D01*
X177115270Y-104013282D01*
X177115269Y-104013282D01*
X176482962Y-104645590D01*
X176465925Y-104582007D01*
X176400099Y-104467993D01*
X176307007Y-104374901D01*
X176192993Y-104309075D01*
X176129409Y-104292037D01*
X176761716Y-103659728D01*
X176707547Y-103620373D01*
X176707547Y-103620372D01*
X176698500Y-103615763D01*
X176647706Y-103567788D01*
X176630912Y-103499966D01*
X176653451Y-103433832D01*
X176698508Y-103394793D01*
X176707816Y-103390051D01*
X176823839Y-103305756D01*
X176879786Y-103265109D01*
X176879788Y-103265106D01*
X176879792Y-103265104D01*
X177030104Y-103114792D01*
X177030106Y-103114788D01*
X177030109Y-103114786D01*
X177155048Y-102942820D01*
X177155047Y-102942820D01*
X177155051Y-102942816D01*
X177251557Y-102753412D01*
X177317246Y-102551243D01*
X177350500Y-102341287D01*
X177350500Y-102128713D01*
X177317246Y-101918757D01*
X177251557Y-101716588D01*
X177155051Y-101527184D01*
X177155049Y-101527181D01*
X177155048Y-101527179D01*
X177030109Y-101355213D01*
X176879786Y-101204890D01*
X176707820Y-101079951D01*
X176707115Y-101079591D01*
X176699054Y-101075485D01*
X176648259Y-101027512D01*
X176631463Y-100959692D01*
X176653999Y-100893556D01*
X176699054Y-100854515D01*
X176707816Y-100850051D01*
X176766395Y-100807491D01*
X176879786Y-100725109D01*
X176879788Y-100725106D01*
X176879792Y-100725104D01*
X177030104Y-100574792D01*
X177030106Y-100574788D01*
X177030109Y-100574786D01*
X177155048Y-100402820D01*
X177155047Y-100402820D01*
X177155051Y-100402816D01*
X177251557Y-100213412D01*
X177317246Y-100011243D01*
X177350500Y-99801287D01*
X177350500Y-99654097D01*
X177370185Y-99587058D01*
X177422989Y-99541303D01*
X177492147Y-99531359D01*
X177555703Y-99560384D01*
X177562181Y-99566416D01*
X180363181Y-102367416D01*
X180396666Y-102428739D01*
X180399500Y-102455097D01*
X180399500Y-109968790D01*
X180379815Y-110035829D01*
X180327011Y-110081584D01*
X180257853Y-110091528D01*
X180194297Y-110062503D01*
X180157569Y-110007109D01*
X180130568Y-109924008D01*
X180130566Y-109924005D01*
X180130566Y-109924003D01*
X180023342Y-109713566D01*
X180009999Y-109695201D01*
X179884517Y-109522490D01*
X179717510Y-109355483D01*
X179526433Y-109216657D01*
X179510983Y-109208785D01*
X179315996Y-109109433D01*
X179091368Y-109036446D01*
X178858097Y-108999500D01*
X178858092Y-108999500D01*
X178621908Y-108999500D01*
X178621903Y-108999500D01*
X178388631Y-109036446D01*
X178164003Y-109109433D01*
X177953566Y-109216657D01*
X177883099Y-109267855D01*
X177762490Y-109355483D01*
X177762488Y-109355485D01*
X177762487Y-109355485D01*
X177595484Y-109522488D01*
X177570318Y-109557127D01*
X177514987Y-109599792D01*
X177445374Y-109605771D01*
X177383579Y-109573165D01*
X177369682Y-109557127D01*
X177355763Y-109537969D01*
X177344517Y-109522490D01*
X177177510Y-109355483D01*
X176986433Y-109216657D01*
X176970983Y-109208785D01*
X176775996Y-109109433D01*
X176551368Y-109036446D01*
X176318097Y-108999500D01*
X176318092Y-108999500D01*
X176081908Y-108999500D01*
X176081903Y-108999500D01*
X175848631Y-109036446D01*
X175624003Y-109109433D01*
X175413566Y-109216657D01*
X175343099Y-109267855D01*
X175222490Y-109355483D01*
X175222488Y-109355485D01*
X175222487Y-109355485D01*
X175055484Y-109522488D01*
X175030318Y-109557127D01*
X174974987Y-109599792D01*
X174905374Y-109605771D01*
X174843579Y-109573165D01*
X174829682Y-109557127D01*
X174815763Y-109537969D01*
X174804517Y-109522490D01*
X174637510Y-109355483D01*
X174446433Y-109216657D01*
X174430983Y-109208785D01*
X174235996Y-109109433D01*
X174011368Y-109036446D01*
X173778097Y-108999500D01*
X173778092Y-108999500D01*
X173541908Y-108999500D01*
X173541903Y-108999500D01*
X173308631Y-109036446D01*
X173084003Y-109109433D01*
X172873566Y-109216657D01*
X172803099Y-109267855D01*
X172682490Y-109355483D01*
X172682488Y-109355485D01*
X172682487Y-109355485D01*
X172515484Y-109522488D01*
X172490318Y-109557127D01*
X172434987Y-109599792D01*
X172365374Y-109605771D01*
X172303579Y-109573165D01*
X172289682Y-109557127D01*
X172275763Y-109537969D01*
X172264517Y-109522490D01*
X172097510Y-109355483D01*
X171906433Y-109216657D01*
X171890983Y-109208785D01*
X171695996Y-109109433D01*
X171471368Y-109036446D01*
X171238097Y-108999500D01*
X171238092Y-108999500D01*
X171001908Y-108999500D01*
X171001903Y-108999500D01*
X170768631Y-109036446D01*
X170544003Y-109109433D01*
X170333566Y-109216657D01*
X170263099Y-109267855D01*
X170142490Y-109355483D01*
X170142488Y-109355485D01*
X170142487Y-109355485D01*
X169975484Y-109522488D01*
X169950318Y-109557127D01*
X169894987Y-109599792D01*
X169825374Y-109605771D01*
X169763579Y-109573165D01*
X169749682Y-109557127D01*
X169735763Y-109537969D01*
X169724517Y-109522490D01*
X169557510Y-109355483D01*
X169366433Y-109216657D01*
X169350983Y-109208785D01*
X169155996Y-109109433D01*
X168931368Y-109036446D01*
X168698097Y-108999500D01*
X168698092Y-108999500D01*
X168461908Y-108999500D01*
X168461903Y-108999500D01*
X168228631Y-109036446D01*
X168004003Y-109109433D01*
X167793566Y-109216657D01*
X167723099Y-109267855D01*
X167602490Y-109355483D01*
X167602488Y-109355485D01*
X167602487Y-109355485D01*
X167435484Y-109522488D01*
X167410318Y-109557127D01*
X167354987Y-109599792D01*
X167285374Y-109605771D01*
X167223579Y-109573165D01*
X167209682Y-109557127D01*
X167195763Y-109537969D01*
X167184517Y-109522490D01*
X167017510Y-109355483D01*
X166826433Y-109216657D01*
X166810983Y-109208785D01*
X166615996Y-109109433D01*
X166391368Y-109036446D01*
X166158097Y-108999500D01*
X166158092Y-108999500D01*
X165921908Y-108999500D01*
X165921903Y-108999500D01*
X165688631Y-109036446D01*
X165464003Y-109109433D01*
X165253566Y-109216657D01*
X165183099Y-109267855D01*
X165062490Y-109355483D01*
X165062488Y-109355485D01*
X165062487Y-109355485D01*
X164895484Y-109522488D01*
X164870318Y-109557127D01*
X164814987Y-109599792D01*
X164745374Y-109605771D01*
X164683579Y-109573165D01*
X164669682Y-109557127D01*
X164655763Y-109537969D01*
X164644517Y-109522490D01*
X164477510Y-109355483D01*
X164286433Y-109216657D01*
X164270983Y-109208785D01*
X164075996Y-109109433D01*
X163851368Y-109036446D01*
X163618097Y-108999500D01*
X163618092Y-108999500D01*
X163381908Y-108999500D01*
X163381903Y-108999500D01*
X163148631Y-109036446D01*
X162924003Y-109109433D01*
X162713566Y-109216657D01*
X162643099Y-109267855D01*
X162522490Y-109355483D01*
X162522488Y-109355485D01*
X162522487Y-109355485D01*
X162355485Y-109522487D01*
X162355485Y-109522488D01*
X162355483Y-109522490D01*
X162299320Y-109599792D01*
X162216657Y-109713566D01*
X162109433Y-109924003D01*
X162036446Y-110148631D01*
X161999500Y-110381902D01*
X161999500Y-110618097D01*
X162036446Y-110851368D01*
X162109433Y-111075996D01*
X162208228Y-111269890D01*
X162216657Y-111286433D01*
X162355483Y-111477510D01*
X162522490Y-111644517D01*
X162557127Y-111669683D01*
X162599792Y-111725013D01*
X162605771Y-111794626D01*
X162573165Y-111856421D01*
X162557130Y-111870315D01*
X162539365Y-111883222D01*
X162522488Y-111895484D01*
X162355485Y-112062487D01*
X162355485Y-112062488D01*
X162355483Y-112062490D01*
X162299320Y-112139792D01*
X162216657Y-112253566D01*
X162109433Y-112464003D01*
X162036446Y-112688631D01*
X161999500Y-112921902D01*
X161999500Y-113158097D01*
X162036446Y-113391368D01*
X162109433Y-113615996D01*
X162208228Y-113809890D01*
X162216657Y-113826433D01*
X162355483Y-114017510D01*
X162522490Y-114184517D01*
X162557127Y-114209683D01*
X162599792Y-114265013D01*
X162605771Y-114334626D01*
X162573165Y-114396421D01*
X162557130Y-114410315D01*
X162539365Y-114423222D01*
X162522488Y-114435484D01*
X162355485Y-114602487D01*
X162355485Y-114602488D01*
X162355483Y-114602490D01*
X162299320Y-114679792D01*
X162216657Y-114793566D01*
X162109433Y-115004003D01*
X162036446Y-115228631D01*
X161999500Y-115461902D01*
X161999500Y-115698097D01*
X162036446Y-115931368D01*
X162109433Y-116155996D01*
X162208228Y-116349890D01*
X162216657Y-116366433D01*
X162355483Y-116557510D01*
X162522490Y-116724517D01*
X162557127Y-116749683D01*
X162599792Y-116805013D01*
X162605771Y-116874626D01*
X162573165Y-116936421D01*
X162557130Y-116950315D01*
X162539365Y-116963222D01*
X162522488Y-116975484D01*
X162355485Y-117142487D01*
X162355485Y-117142488D01*
X162355483Y-117142490D01*
X162306350Y-117210116D01*
X162216657Y-117333566D01*
X162109433Y-117544003D01*
X162036446Y-117768631D01*
X161999500Y-118001902D01*
X161999500Y-118238097D01*
X162036446Y-118471368D01*
X162109433Y-118695996D01*
X162208228Y-118889890D01*
X162216657Y-118906433D01*
X162355483Y-119097510D01*
X162522490Y-119264517D01*
X162557127Y-119289683D01*
X162599792Y-119345013D01*
X162605771Y-119414626D01*
X162573165Y-119476421D01*
X162557130Y-119490315D01*
X162539365Y-119503222D01*
X162522488Y-119515484D01*
X162355485Y-119682487D01*
X162355485Y-119682488D01*
X162355483Y-119682490D01*
X162299320Y-119759792D01*
X162216657Y-119873566D01*
X162109433Y-120084003D01*
X162036446Y-120308631D01*
X161999500Y-120541902D01*
X161999500Y-120778097D01*
X162036446Y-121011368D01*
X162109433Y-121235996D01*
X162208228Y-121429890D01*
X162216657Y-121446433D01*
X162355483Y-121637510D01*
X162522490Y-121804517D01*
X162557127Y-121829683D01*
X162599792Y-121885013D01*
X162605771Y-121954626D01*
X162573165Y-122016421D01*
X162557130Y-122030315D01*
X162539365Y-122043222D01*
X162522488Y-122055484D01*
X162355485Y-122222487D01*
X162355485Y-122222488D01*
X162355483Y-122222490D01*
X162299320Y-122299792D01*
X162216657Y-122413566D01*
X162109433Y-122624003D01*
X162036446Y-122848631D01*
X161999500Y-123081902D01*
X161999500Y-123318097D01*
X162036446Y-123551368D01*
X162109433Y-123775996D01*
X162181701Y-123917828D01*
X162216657Y-123986433D01*
X162355483Y-124177510D01*
X162522490Y-124344517D01*
X162713567Y-124483343D01*
X162769743Y-124511966D01*
X162924003Y-124590566D01*
X162924005Y-124590566D01*
X162924008Y-124590568D01*
X163026196Y-124623771D01*
X163148631Y-124663553D01*
X163381903Y-124700500D01*
X163381908Y-124700500D01*
X163618097Y-124700500D01*
X163851368Y-124663553D01*
X164075992Y-124590568D01*
X164286433Y-124483343D01*
X164477510Y-124344517D01*
X164644517Y-124177510D01*
X164669682Y-124142872D01*
X164725011Y-124100207D01*
X164794625Y-124094228D01*
X164856420Y-124126833D01*
X164870315Y-124142870D01*
X164895483Y-124177510D01*
X165062490Y-124344517D01*
X165253567Y-124483343D01*
X165309743Y-124511966D01*
X165464003Y-124590566D01*
X165464005Y-124590566D01*
X165464008Y-124590568D01*
X165566196Y-124623771D01*
X165688631Y-124663553D01*
X165921903Y-124700500D01*
X165921908Y-124700500D01*
X166158097Y-124700500D01*
X166391368Y-124663553D01*
X166615992Y-124590568D01*
X166826433Y-124483343D01*
X167017510Y-124344517D01*
X167184517Y-124177510D01*
X167209682Y-124142872D01*
X167265011Y-124100207D01*
X167334625Y-124094228D01*
X167396420Y-124126833D01*
X167410315Y-124142870D01*
X167435483Y-124177510D01*
X167602490Y-124344517D01*
X167793567Y-124483343D01*
X167849743Y-124511966D01*
X168004003Y-124590566D01*
X168004005Y-124590566D01*
X168004008Y-124590568D01*
X168106196Y-124623771D01*
X168228631Y-124663553D01*
X168461903Y-124700500D01*
X168461908Y-124700500D01*
X168698097Y-124700500D01*
X168931368Y-124663553D01*
X169155992Y-124590568D01*
X169366433Y-124483343D01*
X169557510Y-124344517D01*
X169724517Y-124177510D01*
X169749682Y-124142872D01*
X169805011Y-124100207D01*
X169874625Y-124094228D01*
X169936420Y-124126833D01*
X169950315Y-124142870D01*
X169975483Y-124177510D01*
X170142490Y-124344517D01*
X170333567Y-124483343D01*
X170389743Y-124511966D01*
X170544003Y-124590566D01*
X170544005Y-124590566D01*
X170544008Y-124590568D01*
X170646196Y-124623771D01*
X170768631Y-124663553D01*
X171001903Y-124700500D01*
X171001908Y-124700500D01*
X171238097Y-124700500D01*
X171471368Y-124663553D01*
X171695992Y-124590568D01*
X171906433Y-124483343D01*
X172097510Y-124344517D01*
X172264517Y-124177510D01*
X172289682Y-124142872D01*
X172345011Y-124100207D01*
X172414625Y-124094228D01*
X172476420Y-124126833D01*
X172490315Y-124142870D01*
X172515483Y-124177510D01*
X172682490Y-124344517D01*
X172873567Y-124483343D01*
X172929743Y-124511966D01*
X173084003Y-124590566D01*
X173084005Y-124590566D01*
X173084008Y-124590568D01*
X173186196Y-124623771D01*
X173308631Y-124663553D01*
X173541903Y-124700500D01*
X173541908Y-124700500D01*
X173778097Y-124700500D01*
X174011368Y-124663553D01*
X174235992Y-124590568D01*
X174446433Y-124483343D01*
X174637510Y-124344517D01*
X174804517Y-124177510D01*
X174829682Y-124142872D01*
X174885011Y-124100207D01*
X174954625Y-124094228D01*
X175016420Y-124126833D01*
X175030315Y-124142870D01*
X175055483Y-124177510D01*
X175222490Y-124344517D01*
X175413567Y-124483343D01*
X175469743Y-124511966D01*
X175624003Y-124590566D01*
X175624005Y-124590566D01*
X175624008Y-124590568D01*
X175726196Y-124623771D01*
X175848631Y-124663553D01*
X176081903Y-124700500D01*
X176081908Y-124700500D01*
X176318097Y-124700500D01*
X176551368Y-124663553D01*
X176775992Y-124590568D01*
X176986433Y-124483343D01*
X177177510Y-124344517D01*
X177344517Y-124177510D01*
X177369682Y-124142872D01*
X177425011Y-124100207D01*
X177494625Y-124094228D01*
X177556420Y-124126833D01*
X177570315Y-124142870D01*
X177595483Y-124177510D01*
X177762490Y-124344517D01*
X177953567Y-124483343D01*
X178009743Y-124511966D01*
X178164003Y-124590566D01*
X178164005Y-124590566D01*
X178164008Y-124590568D01*
X178266196Y-124623771D01*
X178388631Y-124663553D01*
X178621903Y-124700500D01*
X178621908Y-124700500D01*
X178858097Y-124700500D01*
X179016003Y-124675490D01*
X179091368Y-124663553D01*
X179315992Y-124590568D01*
X179526433Y-124483343D01*
X179717510Y-124344517D01*
X179884517Y-124177510D01*
X180023343Y-123986433D01*
X180130568Y-123775992D01*
X180203553Y-123551368D01*
X180218451Y-123457304D01*
X180240500Y-123318097D01*
X180240500Y-123081902D01*
X180203553Y-122848631D01*
X180130566Y-122624003D01*
X180023342Y-122413566D01*
X179979856Y-122353713D01*
X179884517Y-122222490D01*
X179717510Y-122055483D01*
X179682872Y-122030317D01*
X179640207Y-121974989D01*
X179634228Y-121905375D01*
X179666833Y-121843580D01*
X179682873Y-121829682D01*
X179717510Y-121804517D01*
X179884517Y-121637510D01*
X180023343Y-121446433D01*
X180130568Y-121235992D01*
X180203553Y-121011368D01*
X180206577Y-120992273D01*
X180240500Y-120778097D01*
X180240500Y-120541902D01*
X180203553Y-120308631D01*
X180130566Y-120084003D01*
X180023342Y-119873566D01*
X179999254Y-119840412D01*
X179884517Y-119682490D01*
X179717510Y-119515483D01*
X179682872Y-119490317D01*
X179640207Y-119434989D01*
X179634228Y-119365375D01*
X179666833Y-119303580D01*
X179682873Y-119289682D01*
X179717510Y-119264517D01*
X179884517Y-119097510D01*
X180023343Y-118906433D01*
X180130568Y-118695992D01*
X180203553Y-118471368D01*
X180206577Y-118452273D01*
X180240500Y-118238097D01*
X180240500Y-118001902D01*
X180203553Y-117768631D01*
X180130566Y-117544003D01*
X180023342Y-117333566D01*
X179979856Y-117273713D01*
X179884517Y-117142490D01*
X179717510Y-116975483D01*
X179682872Y-116950317D01*
X179640207Y-116894989D01*
X179634228Y-116825375D01*
X179666833Y-116763580D01*
X179682873Y-116749682D01*
X179717510Y-116724517D01*
X179884517Y-116557510D01*
X180023343Y-116366433D01*
X180130568Y-116155992D01*
X180203553Y-115931368D01*
X180206577Y-115912273D01*
X180240500Y-115698097D01*
X180240500Y-115461902D01*
X180203553Y-115228631D01*
X180130566Y-115004003D01*
X180023342Y-114793566D01*
X180009999Y-114775201D01*
X179884517Y-114602490D01*
X179717510Y-114435483D01*
X179682872Y-114410317D01*
X179640207Y-114354989D01*
X179634228Y-114285375D01*
X179666833Y-114223580D01*
X179682873Y-114209682D01*
X179717510Y-114184517D01*
X179884517Y-114017510D01*
X180023343Y-113826433D01*
X180130568Y-113615992D01*
X180203553Y-113391368D01*
X180206577Y-113372273D01*
X180240500Y-113158097D01*
X180240500Y-112921902D01*
X180203553Y-112688631D01*
X180130566Y-112464003D01*
X180057010Y-112319643D01*
X180023343Y-112253567D01*
X179884517Y-112062490D01*
X179717510Y-111895483D01*
X179682872Y-111870317D01*
X179640207Y-111814989D01*
X179634228Y-111745375D01*
X179666833Y-111683580D01*
X179682873Y-111669682D01*
X179717510Y-111644517D01*
X179884517Y-111477510D01*
X180023343Y-111286433D01*
X180130568Y-111075992D01*
X180157569Y-110992890D01*
X180197007Y-110935215D01*
X180261365Y-110908017D01*
X180330212Y-110919932D01*
X180381687Y-110967176D01*
X180399500Y-111031209D01*
X180399500Y-112153730D01*
X180399499Y-112153748D01*
X180399499Y-112319454D01*
X180399498Y-112319454D01*
X180438231Y-112464008D01*
X180440423Y-112472185D01*
X180464973Y-112514706D01*
X180519479Y-112609114D01*
X180519481Y-112609117D01*
X180638349Y-112727985D01*
X180638355Y-112727990D01*
X185120481Y-117210116D01*
X185153966Y-117271439D01*
X185156800Y-117297797D01*
X185156800Y-119297701D01*
X185156801Y-119297718D01*
X185167300Y-119400496D01*
X185167301Y-119400499D01*
X185222485Y-119567031D01*
X185222487Y-119567036D01*
X185245137Y-119603757D01*
X185314588Y-119716356D01*
X185438644Y-119840412D01*
X185587966Y-119932514D01*
X185754503Y-119987699D01*
X185857291Y-119998200D01*
X188057308Y-119998199D01*
X188160097Y-119987699D01*
X188326634Y-119932514D01*
X188475956Y-119840412D01*
X188600012Y-119716356D01*
X188692114Y-119567034D01*
X188747299Y-119400497D01*
X188757800Y-119297709D01*
X188757799Y-117097692D01*
X188747299Y-116994903D01*
X188692114Y-116828366D01*
X188600012Y-116679044D01*
X188475956Y-116554988D01*
X188354716Y-116480207D01*
X188326636Y-116462887D01*
X188326631Y-116462885D01*
X188325162Y-116462398D01*
X188160097Y-116407701D01*
X188160095Y-116407700D01*
X188057316Y-116397200D01*
X188057309Y-116397200D01*
X186057397Y-116397200D01*
X185990358Y-116377515D01*
X185969716Y-116360881D01*
X181636819Y-112027984D01*
X181603334Y-111966661D01*
X181600500Y-111940303D01*
X181600500Y-108909497D01*
X181620185Y-108842458D01*
X181672989Y-108796703D01*
X181742147Y-108786759D01*
X181805703Y-108815784D01*
X181812181Y-108821816D01*
X185271935Y-112281570D01*
X185305420Y-112342893D01*
X185300436Y-112412585D01*
X185298815Y-112416703D01*
X185248694Y-112537706D01*
X185187606Y-112765689D01*
X185156801Y-112999679D01*
X185156800Y-112999695D01*
X185156800Y-113235704D01*
X185156801Y-113235720D01*
X185187606Y-113469710D01*
X185248694Y-113697693D01*
X185339014Y-113915745D01*
X185339019Y-113915756D01*
X185364684Y-113960208D01*
X185457027Y-114120150D01*
X185457029Y-114120153D01*
X185457030Y-114120154D01*
X185600706Y-114307397D01*
X185600712Y-114307404D01*
X185767595Y-114474287D01*
X185767601Y-114474292D01*
X185954850Y-114617973D01*
X186061924Y-114679792D01*
X186159243Y-114735980D01*
X186159248Y-114735982D01*
X186159251Y-114735984D01*
X186377307Y-114826306D01*
X186605286Y-114887393D01*
X186839289Y-114918200D01*
X186839296Y-114918200D01*
X187075304Y-114918200D01*
X187075311Y-114918200D01*
X187309314Y-114887393D01*
X187537293Y-114826306D01*
X187755349Y-114735984D01*
X187759283Y-114733713D01*
X187760299Y-114733126D01*
X187959750Y-114617973D01*
X188146999Y-114474292D01*
X188313892Y-114307399D01*
X188457573Y-114120150D01*
X188575584Y-113915749D01*
X188665906Y-113697693D01*
X188726993Y-113469714D01*
X188757800Y-113235711D01*
X188757800Y-112999689D01*
X188726993Y-112765686D01*
X188665906Y-112537707D01*
X188575584Y-112319651D01*
X188575582Y-112319648D01*
X188575580Y-112319643D01*
X188526827Y-112235201D01*
X188457573Y-112115250D01*
X188313892Y-111928001D01*
X188313887Y-111927995D01*
X188147004Y-111761112D01*
X188146997Y-111761106D01*
X187959754Y-111617430D01*
X187959753Y-111617429D01*
X187959750Y-111617427D01*
X187859208Y-111559379D01*
X187755356Y-111499419D01*
X187755345Y-111499414D01*
X187537293Y-111409094D01*
X187504126Y-111400207D01*
X187309314Y-111348007D01*
X187309313Y-111348006D01*
X187309310Y-111348006D01*
X187075320Y-111317201D01*
X187075317Y-111317200D01*
X187075311Y-111317200D01*
X186839289Y-111317200D01*
X186839283Y-111317200D01*
X186839279Y-111317201D01*
X186605289Y-111348006D01*
X186377306Y-111409094D01*
X186256303Y-111459215D01*
X186186834Y-111466684D01*
X186124355Y-111435408D01*
X186121170Y-111432335D01*
X182636819Y-107947984D01*
X182603334Y-107886661D01*
X182600500Y-107860303D01*
X182600500Y-104829497D01*
X182620185Y-104762458D01*
X182672989Y-104716703D01*
X182742147Y-104706759D01*
X182805703Y-104735784D01*
X182812181Y-104741816D01*
X185271935Y-107201570D01*
X185305420Y-107262893D01*
X185300436Y-107332585D01*
X185298815Y-107336703D01*
X185248694Y-107457706D01*
X185187606Y-107685689D01*
X185156801Y-107919679D01*
X185156800Y-107919695D01*
X185156800Y-108155704D01*
X185156801Y-108155720D01*
X185187606Y-108389710D01*
X185248694Y-108617693D01*
X185339014Y-108835745D01*
X185339019Y-108835756D01*
X185364684Y-108880208D01*
X185457027Y-109040150D01*
X185457029Y-109040153D01*
X185457030Y-109040154D01*
X185600706Y-109227397D01*
X185600712Y-109227404D01*
X185767595Y-109394287D01*
X185767601Y-109394292D01*
X185954850Y-109537973D01*
X186061924Y-109599792D01*
X186159243Y-109655980D01*
X186159248Y-109655982D01*
X186159251Y-109655984D01*
X186377307Y-109746306D01*
X186605286Y-109807393D01*
X186839289Y-109838200D01*
X186839296Y-109838200D01*
X187075304Y-109838200D01*
X187075311Y-109838200D01*
X187309314Y-109807393D01*
X187537293Y-109746306D01*
X187755349Y-109655984D01*
X187759283Y-109653713D01*
X187760299Y-109653126D01*
X187959750Y-109537973D01*
X188146999Y-109394292D01*
X188313892Y-109227399D01*
X188457573Y-109040150D01*
X188575584Y-108835749D01*
X188665906Y-108617693D01*
X188726993Y-108389714D01*
X188757800Y-108155711D01*
X188757800Y-107919689D01*
X188726993Y-107685686D01*
X188665906Y-107457707D01*
X188575584Y-107239651D01*
X188575582Y-107239648D01*
X188575580Y-107239643D01*
X188533418Y-107166618D01*
X188457573Y-107035250D01*
X188313892Y-106848001D01*
X188313887Y-106847995D01*
X188147004Y-106681112D01*
X188146997Y-106681106D01*
X187959754Y-106537430D01*
X187959753Y-106537429D01*
X187959750Y-106537427D01*
X187859208Y-106479379D01*
X187755356Y-106419419D01*
X187755345Y-106419414D01*
X187537293Y-106329094D01*
X187309310Y-106268006D01*
X187075320Y-106237201D01*
X187075317Y-106237200D01*
X187075311Y-106237200D01*
X186839289Y-106237200D01*
X186839283Y-106237200D01*
X186839279Y-106237201D01*
X186605289Y-106268006D01*
X186377306Y-106329094D01*
X186256303Y-106379215D01*
X186186834Y-106386684D01*
X186124355Y-106355408D01*
X186121170Y-106352335D01*
X183636819Y-103867984D01*
X183603334Y-103806661D01*
X183600500Y-103780303D01*
X183600500Y-100749497D01*
X183620185Y-100682458D01*
X183672989Y-100636703D01*
X183742147Y-100626759D01*
X183805703Y-100655784D01*
X183812179Y-100661814D01*
X184549743Y-101399379D01*
X185271934Y-102121570D01*
X185305419Y-102182893D01*
X185300435Y-102252585D01*
X185298814Y-102256703D01*
X185248696Y-102377699D01*
X185187606Y-102605689D01*
X185156801Y-102839679D01*
X185156800Y-102839695D01*
X185156800Y-103075704D01*
X185156801Y-103075720D01*
X185187085Y-103305756D01*
X185187607Y-103309714D01*
X185220864Y-103433832D01*
X185248694Y-103537693D01*
X185339014Y-103755745D01*
X185339019Y-103755756D01*
X185382846Y-103831665D01*
X185457027Y-103960150D01*
X185457029Y-103960153D01*
X185457030Y-103960154D01*
X185600706Y-104147397D01*
X185600712Y-104147404D01*
X185767595Y-104314287D01*
X185767601Y-104314292D01*
X185954850Y-104457973D01*
X186079840Y-104530136D01*
X186159243Y-104575980D01*
X186159248Y-104575982D01*
X186159251Y-104575984D01*
X186377307Y-104666306D01*
X186605286Y-104727393D01*
X186839289Y-104758200D01*
X186839296Y-104758200D01*
X187075304Y-104758200D01*
X187075311Y-104758200D01*
X187309314Y-104727393D01*
X187537293Y-104666306D01*
X187755349Y-104575984D01*
X187759283Y-104573713D01*
X187781439Y-104560921D01*
X187959750Y-104457973D01*
X188146999Y-104314292D01*
X188313892Y-104147399D01*
X188457573Y-103960150D01*
X188575584Y-103755749D01*
X188665906Y-103537693D01*
X188726993Y-103309714D01*
X188757800Y-103075711D01*
X188757800Y-102839689D01*
X188726993Y-102605686D01*
X188665906Y-102377707D01*
X188575584Y-102159651D01*
X188575582Y-102159648D01*
X188575580Y-102159643D01*
X188533418Y-102086618D01*
X188457573Y-101955250D01*
X188313892Y-101768001D01*
X188313887Y-101767995D01*
X188147004Y-101601112D01*
X188146997Y-101601106D01*
X187959754Y-101457430D01*
X187959753Y-101457429D01*
X187959750Y-101457427D01*
X187859208Y-101399379D01*
X187755356Y-101339419D01*
X187755345Y-101339414D01*
X187537293Y-101249094D01*
X187309310Y-101188006D01*
X187075320Y-101157201D01*
X187075317Y-101157200D01*
X187075311Y-101157200D01*
X186839289Y-101157200D01*
X186839283Y-101157200D01*
X186839279Y-101157201D01*
X186605289Y-101188006D01*
X186377299Y-101249096D01*
X186256303Y-101299214D01*
X186186834Y-101306683D01*
X186124355Y-101275407D01*
X186121170Y-101272334D01*
X184636819Y-99787983D01*
X184603334Y-99726660D01*
X184600500Y-99700302D01*
X184600500Y-97938443D01*
X184595124Y-97918382D01*
X184595123Y-97918377D01*
X184580236Y-97862816D01*
X184559577Y-97785716D01*
X184544554Y-97759695D01*
X184480524Y-97648790D01*
X184480521Y-97648786D01*
X184480520Y-97648784D01*
X184368716Y-97536980D01*
X184368715Y-97536979D01*
X184364385Y-97532649D01*
X184364374Y-97532639D01*
X177191583Y-90359848D01*
X177158098Y-90298525D01*
X177163082Y-90228833D01*
X177168775Y-90215881D01*
X177251557Y-90053412D01*
X177317246Y-89851243D01*
X177350500Y-89641287D01*
X177350500Y-89494096D01*
X177370185Y-89427058D01*
X177422989Y-89381303D01*
X177492147Y-89371359D01*
X177555703Y-89400384D01*
X177562181Y-89406416D01*
X185250085Y-97094320D01*
X185283570Y-97155643D01*
X185278586Y-97225335D01*
X185276965Y-97229454D01*
X185248695Y-97297702D01*
X185187606Y-97525689D01*
X185156801Y-97759679D01*
X185156800Y-97759695D01*
X185156800Y-97995704D01*
X185156801Y-97995720D01*
X185187085Y-98225756D01*
X185187607Y-98229714D01*
X185222440Y-98359712D01*
X185248694Y-98457693D01*
X185339014Y-98675745D01*
X185339019Y-98675756D01*
X185364684Y-98720208D01*
X185457027Y-98880150D01*
X185457029Y-98880153D01*
X185457030Y-98880154D01*
X185600706Y-99067397D01*
X185600712Y-99067404D01*
X185767595Y-99234287D01*
X185767601Y-99234292D01*
X185954850Y-99377973D01*
X186086218Y-99453818D01*
X186159243Y-99495980D01*
X186159248Y-99495982D01*
X186159251Y-99495984D01*
X186377307Y-99586306D01*
X186605286Y-99647393D01*
X186839289Y-99678200D01*
X186839296Y-99678200D01*
X187075304Y-99678200D01*
X187075311Y-99678200D01*
X187309314Y-99647393D01*
X187537293Y-99586306D01*
X187755349Y-99495984D01*
X187759283Y-99493713D01*
X187760299Y-99493126D01*
X187959750Y-99377973D01*
X188146999Y-99234292D01*
X188313892Y-99067399D01*
X188457573Y-98880150D01*
X188575584Y-98675749D01*
X188665906Y-98457693D01*
X188726993Y-98229714D01*
X188757800Y-97995711D01*
X188757800Y-97759689D01*
X188726993Y-97525686D01*
X188665906Y-97297707D01*
X188575584Y-97079651D01*
X188575582Y-97079648D01*
X188575580Y-97079643D01*
X188530350Y-97001303D01*
X188457573Y-96875250D01*
X188313892Y-96688001D01*
X188313887Y-96687995D01*
X188147004Y-96521112D01*
X188146997Y-96521106D01*
X187959754Y-96377430D01*
X187959753Y-96377429D01*
X187959750Y-96377427D01*
X187859208Y-96319379D01*
X187755356Y-96259419D01*
X187755345Y-96259414D01*
X187537293Y-96169094D01*
X187309314Y-96108007D01*
X187309313Y-96108006D01*
X187309310Y-96108006D01*
X187075320Y-96077201D01*
X187075317Y-96077200D01*
X187075311Y-96077200D01*
X186839289Y-96077200D01*
X186839283Y-96077200D01*
X186839279Y-96077201D01*
X186605289Y-96108006D01*
X186377306Y-96169094D01*
X186203554Y-96241065D01*
X186134084Y-96248534D01*
X186071605Y-96217259D01*
X186068420Y-96214185D01*
X182533949Y-92679714D01*
X185157300Y-92679714D01*
X185157300Y-92915685D01*
X185188099Y-93149614D01*
X185249170Y-93377537D01*
X185339460Y-93595519D01*
X185339465Y-93595528D01*
X185457444Y-93799871D01*
X185457445Y-93799872D01*
X185520021Y-93881423D01*
X186356258Y-93045187D01*
X186381278Y-93105590D01*
X186452412Y-93212051D01*
X186542949Y-93302588D01*
X186649410Y-93373722D01*
X186709811Y-93398741D01*
X185873575Y-94234977D01*
X185955127Y-94297554D01*
X185955128Y-94297555D01*
X186159471Y-94415534D01*
X186159480Y-94415539D01*
X186377463Y-94505829D01*
X186377461Y-94505829D01*
X186605385Y-94566900D01*
X186839314Y-94597699D01*
X186839329Y-94597700D01*
X187075271Y-94597700D01*
X187075285Y-94597699D01*
X187309214Y-94566900D01*
X187537137Y-94505829D01*
X187755119Y-94415539D01*
X187755128Y-94415534D01*
X187959481Y-94297550D01*
X188041023Y-94234979D01*
X188041023Y-94234976D01*
X187204787Y-93398741D01*
X187265190Y-93373722D01*
X187371651Y-93302588D01*
X187462188Y-93212051D01*
X187533322Y-93105590D01*
X187558341Y-93045188D01*
X188394576Y-93881423D01*
X188394579Y-93881423D01*
X188457150Y-93799881D01*
X188575134Y-93595528D01*
X188575139Y-93595519D01*
X188665429Y-93377537D01*
X188726500Y-93149614D01*
X188757299Y-92915685D01*
X188757300Y-92915671D01*
X188757300Y-92679728D01*
X188757299Y-92679714D01*
X188726500Y-92445785D01*
X188665429Y-92217862D01*
X188575139Y-91999880D01*
X188575134Y-91999871D01*
X188457155Y-91795528D01*
X188457154Y-91795527D01*
X188394577Y-91713975D01*
X187558341Y-92550211D01*
X187533322Y-92489810D01*
X187462188Y-92383349D01*
X187371651Y-92292812D01*
X187265190Y-92221678D01*
X187204788Y-92196658D01*
X188041023Y-91360421D01*
X187959472Y-91297845D01*
X187959471Y-91297844D01*
X187755128Y-91179865D01*
X187755119Y-91179860D01*
X187537136Y-91089570D01*
X187537138Y-91089570D01*
X187309214Y-91028499D01*
X187075285Y-90997700D01*
X186839314Y-90997700D01*
X186605385Y-91028499D01*
X186377462Y-91089570D01*
X186159480Y-91179860D01*
X186159471Y-91179865D01*
X185955128Y-91297844D01*
X185955118Y-91297850D01*
X185873575Y-91360420D01*
X185873575Y-91360421D01*
X186709812Y-92196658D01*
X186649410Y-92221678D01*
X186542949Y-92292812D01*
X186452412Y-92383349D01*
X186381278Y-92489810D01*
X186356258Y-92550211D01*
X185520021Y-91713975D01*
X185520020Y-91713975D01*
X185457450Y-91795518D01*
X185457444Y-91795528D01*
X185339465Y-91999871D01*
X185339460Y-91999880D01*
X185249170Y-92217862D01*
X185188099Y-92445785D01*
X185157300Y-92679714D01*
X182533949Y-92679714D01*
X177453930Y-87599695D01*
X185156800Y-87599695D01*
X185156800Y-87835704D01*
X185156801Y-87835720D01*
X185185893Y-88056700D01*
X185187607Y-88069714D01*
X185222805Y-88201074D01*
X185248694Y-88297693D01*
X185339014Y-88515745D01*
X185339019Y-88515756D01*
X185364684Y-88560208D01*
X185457027Y-88720150D01*
X185457029Y-88720153D01*
X185457030Y-88720154D01*
X185600706Y-88907397D01*
X185600712Y-88907404D01*
X185767595Y-89074287D01*
X185767601Y-89074292D01*
X185954850Y-89217973D01*
X186086218Y-89293818D01*
X186159243Y-89335980D01*
X186159248Y-89335982D01*
X186159251Y-89335984D01*
X186377307Y-89426306D01*
X186605286Y-89487393D01*
X186839289Y-89518200D01*
X186839296Y-89518200D01*
X187075304Y-89518200D01*
X187075311Y-89518200D01*
X187309314Y-89487393D01*
X187537293Y-89426306D01*
X187755349Y-89335984D01*
X187759283Y-89333713D01*
X187784667Y-89319057D01*
X187959750Y-89217973D01*
X188146999Y-89074292D01*
X188313892Y-88907399D01*
X188457573Y-88720150D01*
X188575584Y-88515749D01*
X188665906Y-88297693D01*
X188726993Y-88069714D01*
X188757800Y-87835711D01*
X188757800Y-87599689D01*
X188726993Y-87365686D01*
X188665906Y-87137707D01*
X188575584Y-86919651D01*
X188575582Y-86919648D01*
X188575580Y-86919643D01*
X188533418Y-86846618D01*
X188457573Y-86715250D01*
X188313892Y-86528001D01*
X188313887Y-86527995D01*
X188147004Y-86361112D01*
X188146997Y-86361106D01*
X187959754Y-86217430D01*
X187959753Y-86217429D01*
X187959750Y-86217427D01*
X187878257Y-86170377D01*
X187755356Y-86099419D01*
X187755345Y-86099414D01*
X187537293Y-86009094D01*
X187309310Y-85948006D01*
X187075320Y-85917201D01*
X187075317Y-85917200D01*
X187075311Y-85917200D01*
X186839289Y-85917200D01*
X186839283Y-85917200D01*
X186839279Y-85917201D01*
X186605289Y-85948006D01*
X186377306Y-86009094D01*
X186159254Y-86099414D01*
X186159243Y-86099419D01*
X185954845Y-86217430D01*
X185767602Y-86361106D01*
X185767595Y-86361112D01*
X185600712Y-86527995D01*
X185600706Y-86528002D01*
X185457030Y-86715245D01*
X185339019Y-86919643D01*
X185339014Y-86919654D01*
X185248694Y-87137706D01*
X185187606Y-87365689D01*
X185156801Y-87599679D01*
X185156800Y-87599695D01*
X177453930Y-87599695D01*
X177333757Y-87479522D01*
X177300272Y-87418199D01*
X177303507Y-87353523D01*
X177317246Y-87311243D01*
X177350500Y-87101287D01*
X177350500Y-86888713D01*
X177317246Y-86678757D01*
X177251557Y-86476588D01*
X177155051Y-86287184D01*
X177155049Y-86287181D01*
X177155048Y-86287179D01*
X177030109Y-86115213D01*
X176879786Y-85964890D01*
X176707820Y-85839951D01*
X176707115Y-85839591D01*
X176699054Y-85835485D01*
X176648259Y-85787512D01*
X176631463Y-85719692D01*
X176653999Y-85653556D01*
X176699054Y-85614515D01*
X176707816Y-85610051D01*
X176729789Y-85594086D01*
X176879786Y-85485109D01*
X176879788Y-85485106D01*
X176879792Y-85485104D01*
X177030104Y-85334792D01*
X177030106Y-85334788D01*
X177030109Y-85334786D01*
X177155048Y-85162820D01*
X177155047Y-85162820D01*
X177155051Y-85162816D01*
X177251557Y-84973412D01*
X177317246Y-84771243D01*
X177350500Y-84561287D01*
X177350500Y-84348713D01*
X177317246Y-84138757D01*
X177251557Y-83936588D01*
X177155051Y-83747184D01*
X177155049Y-83747181D01*
X177155048Y-83747179D01*
X177030109Y-83575213D01*
X176916569Y-83461673D01*
X176883084Y-83400350D01*
X176888068Y-83330658D01*
X176929940Y-83274725D01*
X176960915Y-83257810D01*
X177092331Y-83208796D01*
X177207546Y-83122546D01*
X177293796Y-83007331D01*
X177344091Y-82872483D01*
X177350500Y-82812873D01*
X177350499Y-81017128D01*
X177344091Y-80957517D01*
X177299830Y-80838848D01*
X177293797Y-80822671D01*
X177293793Y-80822664D01*
X177207547Y-80707455D01*
X177207544Y-80707452D01*
X177092335Y-80621206D01*
X177092328Y-80621202D01*
X176957482Y-80570908D01*
X176957483Y-80570908D01*
X176897883Y-80564501D01*
X176897881Y-80564500D01*
X176897873Y-80564500D01*
X176897865Y-80564500D01*
X176724500Y-80564500D01*
X176657461Y-80544815D01*
X176611706Y-80492011D01*
X176600500Y-80440500D01*
X176600500Y-80420945D01*
X176600500Y-80420943D01*
X176559577Y-80268216D01*
X176559573Y-80268209D01*
X176480524Y-80131290D01*
X176480521Y-80131286D01*
X176480520Y-80131284D01*
X176368716Y-80019480D01*
X176368715Y-80019479D01*
X176364385Y-80015149D01*
X176364374Y-80015139D01*
X176223273Y-79874038D01*
X186386500Y-79874038D01*
X186386500Y-80125961D01*
X186425910Y-80374785D01*
X186503760Y-80614383D01*
X186582413Y-80768747D01*
X186609885Y-80822664D01*
X186618132Y-80838848D01*
X186766201Y-81042649D01*
X186766205Y-81042654D01*
X186944345Y-81220794D01*
X186944350Y-81220798D01*
X187122117Y-81349952D01*
X187148155Y-81368870D01*
X187291184Y-81441747D01*
X187372616Y-81483239D01*
X187372618Y-81483239D01*
X187372621Y-81483241D01*
X187612215Y-81561090D01*
X187861038Y-81600500D01*
X187861039Y-81600500D01*
X188112961Y-81600500D01*
X188112962Y-81600500D01*
X188361785Y-81561090D01*
X188601379Y-81483241D01*
X188825845Y-81368870D01*
X189029656Y-81220793D01*
X189207793Y-81042656D01*
X189355870Y-80838845D01*
X189470241Y-80614379D01*
X189548090Y-80374785D01*
X189587500Y-80125962D01*
X189587500Y-79874038D01*
X189548090Y-79625215D01*
X189470241Y-79385621D01*
X189470239Y-79385618D01*
X189470239Y-79385616D01*
X189428747Y-79304184D01*
X189355870Y-79161155D01*
X189241509Y-79003750D01*
X189207798Y-78957350D01*
X189207794Y-78957345D01*
X189029654Y-78779205D01*
X189029649Y-78779201D01*
X188825848Y-78631132D01*
X188825847Y-78631131D01*
X188825845Y-78631130D01*
X188755747Y-78595413D01*
X188601383Y-78516760D01*
X188361785Y-78438910D01*
X188112962Y-78399500D01*
X187861038Y-78399500D01*
X187736626Y-78419205D01*
X187612214Y-78438910D01*
X187372616Y-78516760D01*
X187148151Y-78631132D01*
X186944350Y-78779201D01*
X186944345Y-78779205D01*
X186766205Y-78957345D01*
X186766201Y-78957350D01*
X186618132Y-79161151D01*
X186503760Y-79385616D01*
X186425910Y-79625214D01*
X186386500Y-79874038D01*
X176223273Y-79874038D01*
X174987590Y-78638355D01*
X174987588Y-78638352D01*
X174868717Y-78519481D01*
X174868716Y-78519480D01*
X174781904Y-78469360D01*
X174781904Y-78469359D01*
X174781900Y-78469358D01*
X174731785Y-78440423D01*
X174579057Y-78399499D01*
X174420943Y-78399499D01*
X174413347Y-78399499D01*
X174413331Y-78399500D01*
X159086669Y-78399500D01*
X159086653Y-78399499D01*
X159079057Y-78399499D01*
X158920943Y-78399499D01*
X158813587Y-78428265D01*
X158768210Y-78440424D01*
X158768209Y-78440425D01*
X158718096Y-78469359D01*
X158718095Y-78469360D01*
X158674689Y-78494420D01*
X158631285Y-78519479D01*
X158631282Y-78519481D01*
X152919481Y-84231282D01*
X152919479Y-84231285D01*
X152869361Y-84318094D01*
X152869359Y-84318096D01*
X152840425Y-84368209D01*
X152840424Y-84368210D01*
X152840423Y-84368215D01*
X152799499Y-84520943D01*
X152799499Y-84520945D01*
X152799499Y-84689046D01*
X152799500Y-84689059D01*
X152799500Y-88154281D01*
X152779815Y-88221320D01*
X152731795Y-88264765D01*
X152692185Y-88284947D01*
X152692184Y-88284948D01*
X152520213Y-88409890D01*
X152369890Y-88560213D01*
X152244951Y-88732179D01*
X152148444Y-88921585D01*
X152082753Y-89123760D01*
X152067707Y-89218757D01*
X152049500Y-89333713D01*
X148797140Y-89333713D01*
X148797140Y-89333126D01*
X148766053Y-89136851D01*
X148704645Y-88947855D01*
X148704645Y-88947854D01*
X148614426Y-88770792D01*
X148497621Y-88610023D01*
X148357104Y-88469506D01*
X148196334Y-88352700D01*
X148164436Y-88336447D01*
X148019272Y-88262481D01*
X148019269Y-88262480D01*
X147830277Y-88201074D01*
X147732138Y-88185530D01*
X147634001Y-88169987D01*
X147059279Y-88169987D01*
X146993854Y-88180349D01*
X146863002Y-88201074D01*
X146674010Y-88262480D01*
X146674007Y-88262481D01*
X146496945Y-88352700D01*
X146336173Y-88469508D01*
X146195661Y-88610020D01*
X146078853Y-88770792D01*
X145988634Y-88947854D01*
X145988633Y-88947857D01*
X145927227Y-89136849D01*
X145927227Y-89136851D01*
X145896140Y-89333126D01*
X123397140Y-89333126D01*
X123366053Y-89136851D01*
X123304645Y-88947855D01*
X123304645Y-88947854D01*
X123214426Y-88770792D01*
X123097621Y-88610023D01*
X122957104Y-88469506D01*
X122796334Y-88352700D01*
X122764436Y-88336447D01*
X122619272Y-88262481D01*
X122619269Y-88262480D01*
X122430277Y-88201074D01*
X122332138Y-88185530D01*
X122234001Y-88169987D01*
X121659279Y-88169987D01*
X121593854Y-88180349D01*
X121463002Y-88201074D01*
X121274010Y-88262480D01*
X121274007Y-88262481D01*
X121096945Y-88352700D01*
X120936173Y-88469508D01*
X120795661Y-88610020D01*
X120678853Y-88770792D01*
X120588634Y-88947854D01*
X120588633Y-88947857D01*
X120527227Y-89136849D01*
X120527227Y-89136851D01*
X120496140Y-89333126D01*
X120496140Y-89531848D01*
X120498427Y-89546286D01*
X120527227Y-89728124D01*
X120588633Y-89917116D01*
X120588634Y-89917119D01*
X120651118Y-90039749D01*
X120678853Y-90094181D01*
X120795659Y-90254951D01*
X120936176Y-90395468D01*
X121096946Y-90512274D01*
X121253972Y-90592283D01*
X121304767Y-90640256D01*
X121321562Y-90708077D01*
X121299025Y-90774212D01*
X121253972Y-90813251D01*
X121097209Y-90893126D01*
X120936500Y-91009890D01*
X120936499Y-91009890D01*
X120796043Y-91150346D01*
X120796043Y-91150347D01*
X120679281Y-91311054D01*
X120589096Y-91488051D01*
X120527714Y-91676969D01*
X120520505Y-91722486D01*
X120520505Y-91722487D01*
X121630954Y-91722487D01*
X121626560Y-91726881D01*
X121573899Y-91818093D01*
X121546640Y-91919826D01*
X121546640Y-92025148D01*
X121573899Y-92126881D01*
X121626560Y-92218093D01*
X121630954Y-92222487D01*
X120520505Y-92222487D01*
X120527714Y-92268004D01*
X120589096Y-92456922D01*
X120679281Y-92633919D01*
X120796043Y-92794626D01*
X120796043Y-92794627D01*
X120936499Y-92935083D01*
X121097207Y-93051845D01*
X121253971Y-93131721D01*
X121304767Y-93179696D01*
X121321562Y-93247517D01*
X121299024Y-93313652D01*
X121253971Y-93352691D01*
X121096945Y-93432700D01*
X120936173Y-93549508D01*
X120795661Y-93690020D01*
X120678853Y-93850792D01*
X120588634Y-94027854D01*
X120588633Y-94027857D01*
X120527227Y-94216849D01*
X120527227Y-94216851D01*
X120496140Y-94413126D01*
X120496140Y-94611848D01*
X120498427Y-94626286D01*
X120527227Y-94808124D01*
X120588633Y-94997116D01*
X120588634Y-94997119D01*
X120640812Y-95099522D01*
X120678853Y-95174181D01*
X120795659Y-95334951D01*
X120936176Y-95475468D01*
X121096946Y-95592274D01*
X121195025Y-95642248D01*
X121253420Y-95672002D01*
X121304216Y-95719977D01*
X121321011Y-95787798D01*
X121298473Y-95853933D01*
X121253420Y-95892972D01*
X121096945Y-95972700D01*
X120936173Y-96089508D01*
X120795661Y-96230020D01*
X120678853Y-96390792D01*
X120588634Y-96567854D01*
X120588633Y-96567857D01*
X120527227Y-96756849D01*
X120496140Y-96953126D01*
X120496140Y-97151847D01*
X120527227Y-97348124D01*
X120588633Y-97537116D01*
X120588634Y-97537119D01*
X120640812Y-97639522D01*
X120678853Y-97714181D01*
X120795659Y-97874951D01*
X120936176Y-98015468D01*
X121096946Y-98132274D01*
X121195025Y-98182248D01*
X121253420Y-98212002D01*
X121304216Y-98259977D01*
X121321011Y-98327798D01*
X121298473Y-98393933D01*
X121253420Y-98432972D01*
X121096945Y-98512700D01*
X120936173Y-98629508D01*
X120795661Y-98770020D01*
X120678853Y-98930792D01*
X120588634Y-99107854D01*
X120588633Y-99107857D01*
X120527227Y-99296849D01*
X120496140Y-99493126D01*
X120496140Y-99691847D01*
X120527227Y-99888124D01*
X120588633Y-100077116D01*
X120588634Y-100077119D01*
X120633547Y-100165264D01*
X120678853Y-100254181D01*
X120795659Y-100414951D01*
X120936176Y-100555468D01*
X121096946Y-100672274D01*
X121195025Y-100722248D01*
X121253420Y-100752002D01*
X121304216Y-100799977D01*
X121321011Y-100867798D01*
X121298473Y-100933933D01*
X121253420Y-100972972D01*
X121096945Y-101052700D01*
X120936173Y-101169508D01*
X120795661Y-101310020D01*
X120678853Y-101470792D01*
X120588634Y-101647854D01*
X120588633Y-101647857D01*
X120527227Y-101836849D01*
X120527227Y-101836851D01*
X120496140Y-102033126D01*
X120496140Y-102231848D01*
X120499841Y-102255212D01*
X120527227Y-102428124D01*
X120588633Y-102617116D01*
X120588634Y-102617119D01*
X120658080Y-102753412D01*
X120678853Y-102794181D01*
X120795659Y-102954951D01*
X120936176Y-103095468D01*
X121096946Y-103212274D01*
X121195025Y-103262248D01*
X121253420Y-103292002D01*
X121304216Y-103339977D01*
X121321011Y-103407798D01*
X121298473Y-103473933D01*
X121253420Y-103512972D01*
X121096945Y-103592700D01*
X120936173Y-103709508D01*
X120795661Y-103850020D01*
X120678853Y-104010792D01*
X120588634Y-104187854D01*
X120588633Y-104187857D01*
X120527227Y-104376849D01*
X120496140Y-104573126D01*
X120496140Y-104771847D01*
X120527227Y-104968124D01*
X120588633Y-105157116D01*
X120588634Y-105157119D01*
X120658080Y-105293412D01*
X120678853Y-105334181D01*
X120795659Y-105494951D01*
X120936176Y-105635468D01*
X121096946Y-105752274D01*
X121195025Y-105802248D01*
X121253420Y-105832002D01*
X121304216Y-105879977D01*
X121321011Y-105947798D01*
X121298473Y-106013933D01*
X121253420Y-106052972D01*
X121096945Y-106132700D01*
X120936173Y-106249508D01*
X120795661Y-106390020D01*
X120678853Y-106550792D01*
X120588634Y-106727854D01*
X120588633Y-106727857D01*
X120527227Y-106916849D01*
X120527227Y-106916851D01*
X120496140Y-107113126D01*
X120496140Y-107311848D01*
X120500077Y-107336703D01*
X120527227Y-107508124D01*
X120588633Y-107697116D01*
X120588634Y-107697119D01*
X120671782Y-107860303D01*
X120678853Y-107874181D01*
X120795659Y-108034951D01*
X120936176Y-108175468D01*
X121096946Y-108292274D01*
X121195025Y-108342248D01*
X121253420Y-108372002D01*
X121304216Y-108419977D01*
X121321011Y-108487798D01*
X121298473Y-108553933D01*
X121253420Y-108592972D01*
X121096945Y-108672700D01*
X120936173Y-108789508D01*
X120795661Y-108930020D01*
X120678853Y-109090792D01*
X120588634Y-109267854D01*
X120588633Y-109267857D01*
X120527227Y-109456849D01*
X120496140Y-109653126D01*
X120496140Y-109851847D01*
X120527227Y-110048124D01*
X120588633Y-110237116D01*
X120588634Y-110237119D01*
X120662406Y-110381902D01*
X120678853Y-110414181D01*
X120795659Y-110574951D01*
X120936176Y-110715468D01*
X121096946Y-110832274D01*
X121195025Y-110882248D01*
X121253420Y-110912002D01*
X121304216Y-110959977D01*
X121321011Y-111027798D01*
X121298473Y-111093933D01*
X121253420Y-111132972D01*
X121096945Y-111212700D01*
X120936173Y-111329508D01*
X120795661Y-111470020D01*
X120678853Y-111630792D01*
X120588634Y-111807854D01*
X120588633Y-111807857D01*
X120527227Y-111996849D01*
X120508475Y-112115245D01*
X120496140Y-112193126D01*
X120496140Y-112391848D01*
X120500077Y-112416703D01*
X120527227Y-112588124D01*
X120588633Y-112777116D01*
X120588634Y-112777119D01*
X120662406Y-112921902D01*
X120678853Y-112954181D01*
X120795659Y-113114951D01*
X120936176Y-113255468D01*
X121096946Y-113372274D01*
X121195025Y-113422248D01*
X121253420Y-113452002D01*
X121304216Y-113499977D01*
X121321011Y-113567798D01*
X121298473Y-113633933D01*
X121253420Y-113672972D01*
X121096945Y-113752700D01*
X120936173Y-113869508D01*
X120795661Y-114010020D01*
X120678853Y-114170792D01*
X120588634Y-114347854D01*
X120588633Y-114347857D01*
X120527227Y-114536849D01*
X120496140Y-114733126D01*
X120496140Y-114931847D01*
X120527227Y-115128124D01*
X120588633Y-115317116D01*
X120588634Y-115317119D01*
X120662406Y-115461902D01*
X120678853Y-115494181D01*
X120795659Y-115654951D01*
X120936176Y-115795468D01*
X121096946Y-115912274D01*
X121195025Y-115962248D01*
X121253420Y-115992002D01*
X121304216Y-116039977D01*
X121321011Y-116107798D01*
X121298473Y-116173933D01*
X121253420Y-116212972D01*
X121096945Y-116292700D01*
X120936173Y-116409508D01*
X120795661Y-116550020D01*
X120678853Y-116710792D01*
X120588634Y-116887854D01*
X120588633Y-116887857D01*
X120527227Y-117076849D01*
X120496140Y-117273126D01*
X120496140Y-117471847D01*
X120527227Y-117668124D01*
X120588633Y-117857116D01*
X120588634Y-117857119D01*
X120662406Y-118001902D01*
X120678853Y-118034181D01*
X120795659Y-118194951D01*
X120936176Y-118335468D01*
X121096946Y-118452274D01*
X121195025Y-118502248D01*
X121253420Y-118532002D01*
X121304216Y-118579977D01*
X121321011Y-118647798D01*
X121298473Y-118713933D01*
X121253420Y-118752972D01*
X121096945Y-118832700D01*
X120936173Y-118949508D01*
X120795661Y-119090020D01*
X120678853Y-119250792D01*
X120588634Y-119427854D01*
X120588633Y-119427857D01*
X120527227Y-119616849D01*
X120496140Y-119813126D01*
X120496140Y-120011847D01*
X120527227Y-120208124D01*
X120588633Y-120397116D01*
X120588634Y-120397119D01*
X120662406Y-120541902D01*
X120678853Y-120574181D01*
X120795659Y-120734951D01*
X120936176Y-120875468D01*
X121096946Y-120992274D01*
X121195025Y-121042248D01*
X121253420Y-121072002D01*
X121304216Y-121119977D01*
X121321011Y-121187798D01*
X121298473Y-121253933D01*
X121253420Y-121292972D01*
X121096945Y-121372700D01*
X120936173Y-121489508D01*
X120795661Y-121630020D01*
X120678853Y-121790792D01*
X120588634Y-121967854D01*
X120588633Y-121967857D01*
X120527227Y-122156849D01*
X120496140Y-122353126D01*
X120496140Y-122551847D01*
X120527227Y-122748124D01*
X120588633Y-122937116D01*
X120588634Y-122937119D01*
X120662406Y-123081902D01*
X120678853Y-123114181D01*
X120795659Y-123274951D01*
X120936176Y-123415468D01*
X121096946Y-123532274D01*
X121195031Y-123582251D01*
X121253420Y-123612002D01*
X121304216Y-123659977D01*
X121321011Y-123727798D01*
X121298473Y-123793933D01*
X121253420Y-123832972D01*
X121096945Y-123912700D01*
X120936173Y-124029508D01*
X120795661Y-124170020D01*
X120678853Y-124330792D01*
X120588634Y-124507854D01*
X120588633Y-124507857D01*
X120527227Y-124696849D01*
X120496140Y-124893126D01*
X120496140Y-125091847D01*
X120527227Y-125288124D01*
X120588633Y-125477116D01*
X120588634Y-125477119D01*
X120635960Y-125570000D01*
X120678853Y-125654181D01*
X120795659Y-125814951D01*
X120936176Y-125955468D01*
X121096946Y-126072274D01*
X121136310Y-126092331D01*
X121274007Y-126162492D01*
X121274010Y-126162493D01*
X121311722Y-126174746D01*
X121463004Y-126223900D01*
X121659279Y-126254987D01*
X121659280Y-126254987D01*
X122234000Y-126254987D01*
X122234001Y-126254987D01*
X122430276Y-126223900D01*
X122619272Y-126162492D01*
X122796334Y-126072274D01*
X122957104Y-125955468D01*
X123097621Y-125814951D01*
X123214427Y-125654181D01*
X123214429Y-125654176D01*
X123215640Y-125652202D01*
X123216296Y-125651608D01*
X123217291Y-125650239D01*
X123217578Y-125650447D01*
X123267450Y-125605324D01*
X123321370Y-125592987D01*
X124692390Y-125592987D01*
X124759429Y-125612672D01*
X124780071Y-125629306D01*
X134438583Y-135287819D01*
X134472068Y-135349142D01*
X134467084Y-135418834D01*
X134425212Y-135474767D01*
X134359748Y-135499184D01*
X134350902Y-135499500D01*
X115003751Y-135499500D01*
X114996264Y-135499274D01*
X114706205Y-135481728D01*
X114691340Y-135479923D01*
X114409202Y-135428219D01*
X114394664Y-135424635D01*
X114120825Y-135339304D01*
X114106827Y-135333995D01*
X113954096Y-135265256D01*
X113845269Y-135216277D01*
X113832012Y-135209319D01*
X113586541Y-135060928D01*
X113574217Y-135052422D01*
X113348426Y-134875525D01*
X113337218Y-134865595D01*
X113134404Y-134662781D01*
X113124474Y-134651573D01*
X112947573Y-134425776D01*
X112939071Y-134413458D01*
X112790680Y-134167987D01*
X112783722Y-134154730D01*
X112783675Y-134154626D01*
X112666000Y-133893163D01*
X112660698Y-133879182D01*
X112575363Y-133605334D01*
X112571780Y-133590797D01*
X112520076Y-133308659D01*
X112518271Y-133293794D01*
X112500726Y-133003736D01*
X112500500Y-132996249D01*
X112500500Y-131874038D01*
X114386500Y-131874038D01*
X114386500Y-132125962D01*
X114404290Y-132238282D01*
X114425910Y-132374785D01*
X114503760Y-132614383D01*
X114618132Y-132838848D01*
X114766201Y-133042649D01*
X114766205Y-133042654D01*
X114944345Y-133220794D01*
X114944350Y-133220798D01*
X115065281Y-133308659D01*
X115148155Y-133368870D01*
X115291184Y-133441747D01*
X115372616Y-133483239D01*
X115372618Y-133483239D01*
X115372621Y-133483241D01*
X115612215Y-133561090D01*
X115861038Y-133600500D01*
X115861039Y-133600500D01*
X116112961Y-133600500D01*
X116112962Y-133600500D01*
X116361785Y-133561090D01*
X116601379Y-133483241D01*
X116825845Y-133368870D01*
X117029656Y-133220793D01*
X117207793Y-133042656D01*
X117355870Y-132838845D01*
X117470241Y-132614379D01*
X117548090Y-132374785D01*
X117587500Y-132125962D01*
X117587500Y-131874038D01*
X117548090Y-131625215D01*
X117470241Y-131385621D01*
X117470239Y-131385618D01*
X117470239Y-131385616D01*
X117428747Y-131304184D01*
X117355870Y-131161155D01*
X117321885Y-131114379D01*
X117207798Y-130957350D01*
X117207794Y-130957345D01*
X117029654Y-130779205D01*
X117029649Y-130779201D01*
X116825848Y-130631132D01*
X116825847Y-130631131D01*
X116825845Y-130631130D01*
X116755747Y-130595413D01*
X116601383Y-130516760D01*
X116361785Y-130438910D01*
X116112962Y-130399500D01*
X115861038Y-130399500D01*
X115736626Y-130419205D01*
X115612214Y-130438910D01*
X115372616Y-130516760D01*
X115148151Y-130631132D01*
X114944350Y-130779201D01*
X114944345Y-130779205D01*
X114766205Y-130957345D01*
X114766201Y-130957350D01*
X114618132Y-131161151D01*
X114503760Y-131385616D01*
X114425910Y-131625214D01*
X114398147Y-131800500D01*
X114386500Y-131874038D01*
X112500500Y-131874038D01*
X112500500Y-89300913D01*
X114593600Y-89300913D01*
X114593600Y-89513487D01*
X114598795Y-89546286D01*
X114613841Y-89641286D01*
X114626854Y-89723443D01*
X114689783Y-89917119D01*
X114692544Y-89925614D01*
X114789051Y-90115020D01*
X114913990Y-90286986D01*
X115064313Y-90437309D01*
X115236279Y-90562248D01*
X115236281Y-90562249D01*
X115236284Y-90562251D01*
X115245593Y-90566994D01*
X115296390Y-90614966D01*
X115313187Y-90682787D01*
X115290652Y-90748922D01*
X115245605Y-90787960D01*
X115236546Y-90792576D01*
X115236540Y-90792580D01*
X115182382Y-90831927D01*
X115182382Y-90831928D01*
X115814691Y-91464237D01*
X115751107Y-91481275D01*
X115637093Y-91547101D01*
X115544001Y-91640193D01*
X115478175Y-91754207D01*
X115461137Y-91817791D01*
X114828828Y-91185482D01*
X114828827Y-91185482D01*
X114789480Y-91239639D01*
X114693004Y-91428982D01*
X114627342Y-91631069D01*
X114627342Y-91631072D01*
X114594100Y-91840953D01*
X114594100Y-92053446D01*
X114627342Y-92263327D01*
X114627342Y-92263330D01*
X114693004Y-92465417D01*
X114789475Y-92654750D01*
X114828828Y-92708916D01*
X115461137Y-92076608D01*
X115478175Y-92140193D01*
X115544001Y-92254207D01*
X115637093Y-92347299D01*
X115751107Y-92413125D01*
X115814690Y-92430162D01*
X115182382Y-93062469D01*
X115182382Y-93062470D01*
X115236552Y-93101826D01*
X115236551Y-93101826D01*
X115245595Y-93106434D01*
X115296392Y-93154408D01*
X115313187Y-93222229D01*
X115290650Y-93288364D01*
X115245599Y-93327402D01*
X115236282Y-93332149D01*
X115064313Y-93457090D01*
X114913990Y-93607413D01*
X114789051Y-93779379D01*
X114692544Y-93968785D01*
X114626853Y-94170960D01*
X114606612Y-94298757D01*
X114593600Y-94380913D01*
X114593600Y-94593487D01*
X114598795Y-94626286D01*
X114613841Y-94721286D01*
X114626854Y-94803443D01*
X114689783Y-94997119D01*
X114692544Y-95005614D01*
X114789051Y-95195020D01*
X114913990Y-95366986D01*
X115064313Y-95517309D01*
X115236282Y-95642250D01*
X115245046Y-95646716D01*
X115295842Y-95694691D01*
X115312636Y-95762512D01*
X115290098Y-95828647D01*
X115245046Y-95867684D01*
X115236282Y-95872149D01*
X115064313Y-95997090D01*
X114913990Y-96147413D01*
X114789051Y-96319379D01*
X114692544Y-96508785D01*
X114626853Y-96710960D01*
X114593600Y-96920913D01*
X114593600Y-97133486D01*
X114613841Y-97261286D01*
X114626854Y-97343443D01*
X114689783Y-97537119D01*
X114692544Y-97545614D01*
X114789051Y-97735020D01*
X114913990Y-97906986D01*
X115064313Y-98057309D01*
X115236282Y-98182250D01*
X115245046Y-98186716D01*
X115295842Y-98234691D01*
X115312636Y-98302512D01*
X115290098Y-98368647D01*
X115245046Y-98407684D01*
X115236282Y-98412149D01*
X115064313Y-98537090D01*
X114913990Y-98687413D01*
X114789051Y-98859379D01*
X114692544Y-99048785D01*
X114626853Y-99250960D01*
X114607192Y-99375097D01*
X114593600Y-99460913D01*
X114593600Y-99673487D01*
X114596508Y-99691847D01*
X114613841Y-99801286D01*
X114626854Y-99883443D01*
X114689783Y-100077119D01*
X114692544Y-100085614D01*
X114789051Y-100275020D01*
X114913990Y-100446986D01*
X115064313Y-100597309D01*
X115236282Y-100722250D01*
X115245046Y-100726716D01*
X115295842Y-100774691D01*
X115312636Y-100842512D01*
X115290098Y-100908647D01*
X115245046Y-100947684D01*
X115236282Y-100952149D01*
X115064313Y-101077090D01*
X114913990Y-101227413D01*
X114789051Y-101399379D01*
X114692544Y-101588785D01*
X114692543Y-101588787D01*
X114692543Y-101588788D01*
X114664700Y-101674480D01*
X114626853Y-101790960D01*
X114593600Y-102000913D01*
X114593600Y-102213486D01*
X114623732Y-102403735D01*
X114626854Y-102423443D01*
X114689783Y-102617119D01*
X114692544Y-102625614D01*
X114789051Y-102815020D01*
X114913990Y-102986986D01*
X115064313Y-103137309D01*
X115236282Y-103262250D01*
X115245046Y-103266716D01*
X115295842Y-103314691D01*
X115312636Y-103382512D01*
X115290098Y-103448647D01*
X115245046Y-103487684D01*
X115236282Y-103492149D01*
X115064313Y-103617090D01*
X114913990Y-103767413D01*
X114789051Y-103939379D01*
X114692544Y-104128785D01*
X114626853Y-104330960D01*
X114606594Y-104458872D01*
X114593600Y-104540913D01*
X114593600Y-104753487D01*
X114602326Y-104808582D01*
X114613841Y-104881286D01*
X114626854Y-104963443D01*
X114689783Y-105157119D01*
X114692544Y-105165614D01*
X114789051Y-105355020D01*
X114913990Y-105526986D01*
X115064313Y-105677309D01*
X115236282Y-105802250D01*
X115245046Y-105806716D01*
X115295842Y-105854691D01*
X115312636Y-105922512D01*
X115290098Y-105988647D01*
X115245046Y-106027684D01*
X115236282Y-106032149D01*
X115064313Y-106157090D01*
X114913990Y-106307413D01*
X114789051Y-106479379D01*
X114692544Y-106668785D01*
X114626853Y-106870960D01*
X114621659Y-106903757D01*
X114593600Y-107080913D01*
X114593600Y-107293487D01*
X114626854Y-107503443D01*
X114689783Y-107697119D01*
X114692544Y-107705614D01*
X114789051Y-107895020D01*
X114913990Y-108066986D01*
X115064313Y-108217309D01*
X115236282Y-108342250D01*
X115245046Y-108346716D01*
X115295842Y-108394691D01*
X115312636Y-108462512D01*
X115290098Y-108528647D01*
X115245046Y-108567684D01*
X115236282Y-108572149D01*
X115064313Y-108697090D01*
X114913990Y-108847413D01*
X114789051Y-109019379D01*
X114692544Y-109208785D01*
X114626853Y-109410960D01*
X114596945Y-109599792D01*
X114593600Y-109620913D01*
X114593600Y-109833487D01*
X114626854Y-110043443D01*
X114689783Y-110237119D01*
X114692544Y-110245614D01*
X114789051Y-110435020D01*
X114913990Y-110606986D01*
X115064313Y-110757309D01*
X115236282Y-110882250D01*
X115245046Y-110886716D01*
X115295842Y-110934691D01*
X115312636Y-111002512D01*
X115290098Y-111068647D01*
X115245046Y-111107684D01*
X115236282Y-111112149D01*
X115064313Y-111237090D01*
X114913990Y-111387413D01*
X114789051Y-111559379D01*
X114692544Y-111748785D01*
X114626853Y-111950960D01*
X114600833Y-112115245D01*
X114593600Y-112160913D01*
X114593600Y-112373487D01*
X114626854Y-112583443D01*
X114689783Y-112777119D01*
X114692544Y-112785614D01*
X114789051Y-112975020D01*
X114913990Y-113146986D01*
X115064313Y-113297309D01*
X115236282Y-113422250D01*
X115245046Y-113426716D01*
X115295842Y-113474691D01*
X115312636Y-113542512D01*
X115290098Y-113608647D01*
X115245046Y-113647684D01*
X115236282Y-113652149D01*
X115064313Y-113777090D01*
X114913990Y-113927413D01*
X114789051Y-114099379D01*
X114692544Y-114288785D01*
X114626853Y-114490960D01*
X114596945Y-114679792D01*
X114593600Y-114700913D01*
X114593600Y-114913487D01*
X114626854Y-115123443D01*
X114689783Y-115317119D01*
X114692544Y-115325614D01*
X114789051Y-115515020D01*
X114913990Y-115686986D01*
X115064313Y-115837309D01*
X115236282Y-115962250D01*
X115245046Y-115966716D01*
X115295842Y-116014691D01*
X115312636Y-116082512D01*
X115290098Y-116148647D01*
X115245046Y-116187684D01*
X115236282Y-116192149D01*
X115064313Y-116317090D01*
X114913990Y-116467413D01*
X114789051Y-116639379D01*
X114692544Y-116828785D01*
X114626853Y-117030960D01*
X114598478Y-117210116D01*
X114593600Y-117240913D01*
X114593600Y-117453487D01*
X114626854Y-117663443D01*
X114689783Y-117857119D01*
X114692544Y-117865614D01*
X114789051Y-118055020D01*
X114913990Y-118226986D01*
X115064313Y-118377309D01*
X115236282Y-118502250D01*
X115245046Y-118506716D01*
X115295842Y-118554691D01*
X115312636Y-118622512D01*
X115290098Y-118688647D01*
X115245046Y-118727684D01*
X115236282Y-118732149D01*
X115064313Y-118857090D01*
X114913990Y-119007413D01*
X114789051Y-119179379D01*
X114692544Y-119368785D01*
X114626853Y-119570960D01*
X114596945Y-119759792D01*
X114593600Y-119780913D01*
X114593600Y-119993487D01*
X114626854Y-120203443D01*
X114689783Y-120397119D01*
X114692544Y-120405614D01*
X114789051Y-120595020D01*
X114913990Y-120766986D01*
X115064313Y-120917309D01*
X115236282Y-121042250D01*
X115245046Y-121046716D01*
X115295842Y-121094691D01*
X115312636Y-121162512D01*
X115290098Y-121228647D01*
X115245046Y-121267684D01*
X115236282Y-121272149D01*
X115064313Y-121397090D01*
X114913990Y-121547413D01*
X114789051Y-121719379D01*
X114692544Y-121908785D01*
X114626853Y-122110960D01*
X114596945Y-122299792D01*
X114593600Y-122320913D01*
X114593600Y-122533487D01*
X114626854Y-122743443D01*
X114689783Y-122937119D01*
X114692544Y-122945614D01*
X114789051Y-123135020D01*
X114913990Y-123306986D01*
X115027530Y-123420526D01*
X115061015Y-123481849D01*
X115056031Y-123551541D01*
X115014159Y-123607474D01*
X114983183Y-123624389D01*
X114851769Y-123673403D01*
X114851764Y-123673406D01*
X114736555Y-123759652D01*
X114736552Y-123759655D01*
X114650306Y-123874864D01*
X114650302Y-123874871D01*
X114600008Y-124009717D01*
X114596482Y-124042517D01*
X114593601Y-124069323D01*
X114593600Y-124069335D01*
X114593600Y-125865070D01*
X114593601Y-125865076D01*
X114600008Y-125924683D01*
X114650302Y-126059528D01*
X114650306Y-126059535D01*
X114736552Y-126174744D01*
X114736555Y-126174747D01*
X114851764Y-126260993D01*
X114851771Y-126260997D01*
X114986617Y-126311291D01*
X114986616Y-126311291D01*
X114993544Y-126312035D01*
X115046227Y-126317700D01*
X116841972Y-126317699D01*
X116901583Y-126311291D01*
X117036431Y-126260996D01*
X117151646Y-126174746D01*
X117237896Y-126059531D01*
X117288191Y-125924683D01*
X117294600Y-125865073D01*
X117294599Y-124069328D01*
X117288191Y-124009717D01*
X117286356Y-124004798D01*
X117237897Y-123874871D01*
X117237893Y-123874864D01*
X117151647Y-123759655D01*
X117151644Y-123759652D01*
X117036435Y-123673406D01*
X117036428Y-123673402D01*
X116905017Y-123624389D01*
X116849083Y-123582518D01*
X116824666Y-123517053D01*
X116839518Y-123448780D01*
X116860663Y-123420532D01*
X116974204Y-123306992D01*
X117099151Y-123135016D01*
X117195657Y-122945612D01*
X117261346Y-122743443D01*
X117294600Y-122533487D01*
X117294600Y-122320913D01*
X117261346Y-122110957D01*
X117195657Y-121908788D01*
X117099151Y-121719384D01*
X117099149Y-121719381D01*
X117099148Y-121719379D01*
X116974209Y-121547413D01*
X116823886Y-121397090D01*
X116651920Y-121272151D01*
X116651215Y-121271791D01*
X116643154Y-121267685D01*
X116592359Y-121219712D01*
X116575563Y-121151892D01*
X116598099Y-121085756D01*
X116643154Y-121046715D01*
X116651916Y-121042251D01*
X116720704Y-120992274D01*
X116823886Y-120917309D01*
X116823888Y-120917306D01*
X116823892Y-120917304D01*
X116974204Y-120766992D01*
X116974206Y-120766988D01*
X116974209Y-120766986D01*
X117099148Y-120595020D01*
X117099147Y-120595020D01*
X117099151Y-120595016D01*
X117195657Y-120405612D01*
X117261346Y-120203443D01*
X117294600Y-119993487D01*
X117294600Y-119780913D01*
X117261346Y-119570957D01*
X117195657Y-119368788D01*
X117099151Y-119179384D01*
X117099149Y-119179381D01*
X117099148Y-119179379D01*
X116974209Y-119007413D01*
X116823886Y-118857090D01*
X116651920Y-118732151D01*
X116651215Y-118731791D01*
X116643154Y-118727685D01*
X116592359Y-118679712D01*
X116575563Y-118611892D01*
X116598099Y-118545756D01*
X116643154Y-118506715D01*
X116651916Y-118502251D01*
X116720704Y-118452274D01*
X116823886Y-118377309D01*
X116823888Y-118377306D01*
X116823892Y-118377304D01*
X116974204Y-118226992D01*
X116974206Y-118226988D01*
X116974209Y-118226986D01*
X117099148Y-118055020D01*
X117099147Y-118055020D01*
X117099151Y-118055016D01*
X117195657Y-117865612D01*
X117261346Y-117663443D01*
X117294600Y-117453487D01*
X117294600Y-117240913D01*
X117261346Y-117030957D01*
X117195657Y-116828788D01*
X117099151Y-116639384D01*
X117099149Y-116639381D01*
X117099148Y-116639379D01*
X116974209Y-116467413D01*
X116823886Y-116317090D01*
X116651920Y-116192151D01*
X116651215Y-116191791D01*
X116643154Y-116187685D01*
X116592359Y-116139712D01*
X116575563Y-116071892D01*
X116598099Y-116005756D01*
X116643154Y-115966715D01*
X116651916Y-115962251D01*
X116720704Y-115912274D01*
X116823886Y-115837309D01*
X116823888Y-115837306D01*
X116823892Y-115837304D01*
X116974204Y-115686992D01*
X116974206Y-115686988D01*
X116974209Y-115686986D01*
X117099148Y-115515020D01*
X117099147Y-115515020D01*
X117099151Y-115515016D01*
X117195657Y-115325612D01*
X117261346Y-115123443D01*
X117294600Y-114913487D01*
X117294600Y-114700913D01*
X117261346Y-114490957D01*
X117195657Y-114288788D01*
X117099151Y-114099384D01*
X117099149Y-114099381D01*
X117099148Y-114099379D01*
X116974209Y-113927413D01*
X116823886Y-113777090D01*
X116651920Y-113652151D01*
X116651215Y-113651791D01*
X116643154Y-113647685D01*
X116592359Y-113599712D01*
X116575563Y-113531892D01*
X116598099Y-113465756D01*
X116643154Y-113426715D01*
X116651916Y-113422251D01*
X116720704Y-113372274D01*
X116823886Y-113297309D01*
X116823888Y-113297306D01*
X116823892Y-113297304D01*
X116974204Y-113146992D01*
X116974206Y-113146988D01*
X116974209Y-113146986D01*
X117099148Y-112975020D01*
X117099147Y-112975020D01*
X117099151Y-112975016D01*
X117195657Y-112785612D01*
X117261346Y-112583443D01*
X117294600Y-112373487D01*
X117294600Y-112160913D01*
X117261346Y-111950957D01*
X117195657Y-111748788D01*
X117099151Y-111559384D01*
X117099149Y-111559381D01*
X117099148Y-111559379D01*
X116974209Y-111387413D01*
X116823886Y-111237090D01*
X116651920Y-111112151D01*
X116651215Y-111111791D01*
X116643154Y-111107685D01*
X116592359Y-111059712D01*
X116575563Y-110991892D01*
X116598099Y-110925756D01*
X116643154Y-110886715D01*
X116651916Y-110882251D01*
X116720704Y-110832274D01*
X116823886Y-110757309D01*
X116823888Y-110757306D01*
X116823892Y-110757304D01*
X116974204Y-110606992D01*
X116974206Y-110606988D01*
X116974209Y-110606986D01*
X117099148Y-110435020D01*
X117099147Y-110435020D01*
X117099151Y-110435016D01*
X117195657Y-110245612D01*
X117261346Y-110043443D01*
X117294600Y-109833487D01*
X117294600Y-109620913D01*
X117261346Y-109410957D01*
X117195657Y-109208788D01*
X117099151Y-109019384D01*
X117099149Y-109019381D01*
X117099148Y-109019379D01*
X116974209Y-108847413D01*
X116823886Y-108697090D01*
X116651920Y-108572151D01*
X116651215Y-108571791D01*
X116643154Y-108567685D01*
X116592359Y-108519712D01*
X116575563Y-108451892D01*
X116598099Y-108385756D01*
X116643154Y-108346715D01*
X116651916Y-108342251D01*
X116720704Y-108292274D01*
X116823886Y-108217309D01*
X116823888Y-108217306D01*
X116823892Y-108217304D01*
X116974204Y-108066992D01*
X116974206Y-108066988D01*
X116974209Y-108066986D01*
X117099148Y-107895020D01*
X117099147Y-107895020D01*
X117099151Y-107895016D01*
X117195657Y-107705612D01*
X117261346Y-107503443D01*
X117294600Y-107293487D01*
X117294600Y-107080913D01*
X117261346Y-106870957D01*
X117195657Y-106668788D01*
X117099151Y-106479384D01*
X117099149Y-106479381D01*
X117099148Y-106479379D01*
X116974209Y-106307413D01*
X116823886Y-106157090D01*
X116651920Y-106032151D01*
X116651215Y-106031791D01*
X116643154Y-106027685D01*
X116592359Y-105979712D01*
X116575563Y-105911892D01*
X116598099Y-105845756D01*
X116643154Y-105806715D01*
X116651916Y-105802251D01*
X116720704Y-105752274D01*
X116823886Y-105677309D01*
X116823888Y-105677306D01*
X116823892Y-105677304D01*
X116974204Y-105526992D01*
X116974206Y-105526988D01*
X116974209Y-105526986D01*
X117099148Y-105355020D01*
X117099147Y-105355020D01*
X117099151Y-105355016D01*
X117195657Y-105165612D01*
X117261346Y-104963443D01*
X117294600Y-104753487D01*
X117294600Y-104540913D01*
X117261346Y-104330957D01*
X117195657Y-104128788D01*
X117099151Y-103939384D01*
X117099149Y-103939381D01*
X117099148Y-103939379D01*
X116974209Y-103767413D01*
X116823886Y-103617090D01*
X116651920Y-103492151D01*
X116651215Y-103491791D01*
X116643154Y-103487685D01*
X116592359Y-103439712D01*
X116575563Y-103371892D01*
X116598099Y-103305756D01*
X116643154Y-103266715D01*
X116651916Y-103262251D01*
X116720704Y-103212274D01*
X116823886Y-103137309D01*
X116823888Y-103137306D01*
X116823892Y-103137304D01*
X116974204Y-102986992D01*
X116974206Y-102986988D01*
X116974209Y-102986986D01*
X117099148Y-102815020D01*
X117099147Y-102815020D01*
X117099151Y-102815016D01*
X117195657Y-102625612D01*
X117261346Y-102423443D01*
X117294600Y-102213487D01*
X117294600Y-102000913D01*
X117261346Y-101790957D01*
X117195657Y-101588788D01*
X117099151Y-101399384D01*
X117099149Y-101399381D01*
X117099148Y-101399379D01*
X116974209Y-101227413D01*
X116823886Y-101077090D01*
X116651920Y-100952151D01*
X116651215Y-100951791D01*
X116643154Y-100947685D01*
X116592359Y-100899712D01*
X116575563Y-100831892D01*
X116598099Y-100765756D01*
X116643154Y-100726715D01*
X116651916Y-100722251D01*
X116720704Y-100672274D01*
X116823886Y-100597309D01*
X116823888Y-100597306D01*
X116823892Y-100597304D01*
X116974204Y-100446992D01*
X116974206Y-100446988D01*
X116974209Y-100446986D01*
X117099148Y-100275020D01*
X117099147Y-100275020D01*
X117099151Y-100275016D01*
X117195657Y-100085612D01*
X117261346Y-99883443D01*
X117294600Y-99673487D01*
X117294600Y-99460913D01*
X117261346Y-99250957D01*
X117195657Y-99048788D01*
X117099151Y-98859384D01*
X117099149Y-98859381D01*
X117099148Y-98859379D01*
X116974209Y-98687413D01*
X116823886Y-98537090D01*
X116651920Y-98412151D01*
X116651215Y-98411791D01*
X116643154Y-98407685D01*
X116592359Y-98359712D01*
X116575563Y-98291892D01*
X116598099Y-98225756D01*
X116643154Y-98186715D01*
X116651916Y-98182251D01*
X116720704Y-98132274D01*
X116823886Y-98057309D01*
X116823888Y-98057306D01*
X116823892Y-98057304D01*
X116974204Y-97906992D01*
X116974206Y-97906988D01*
X116974209Y-97906986D01*
X117099148Y-97735020D01*
X117099147Y-97735020D01*
X117099151Y-97735016D01*
X117195657Y-97545612D01*
X117261346Y-97343443D01*
X117294600Y-97133487D01*
X117294600Y-96920913D01*
X117261346Y-96710957D01*
X117195657Y-96508788D01*
X117099151Y-96319384D01*
X117099149Y-96319381D01*
X117099148Y-96319379D01*
X116974209Y-96147413D01*
X116823886Y-95997090D01*
X116651920Y-95872151D01*
X116651215Y-95871791D01*
X116643154Y-95867685D01*
X116592359Y-95819712D01*
X116575563Y-95751892D01*
X116598099Y-95685756D01*
X116643154Y-95646715D01*
X116651916Y-95642251D01*
X116720704Y-95592274D01*
X116823886Y-95517309D01*
X116823888Y-95517306D01*
X116823892Y-95517304D01*
X116974204Y-95366992D01*
X116974206Y-95366988D01*
X116974209Y-95366986D01*
X117099148Y-95195020D01*
X117099147Y-95195020D01*
X117099151Y-95195016D01*
X117195657Y-95005612D01*
X117261346Y-94803443D01*
X117294600Y-94593487D01*
X117294600Y-94380913D01*
X117261346Y-94170957D01*
X117195657Y-93968788D01*
X117099151Y-93779384D01*
X117099149Y-93779381D01*
X117099148Y-93779379D01*
X116974209Y-93607413D01*
X116823886Y-93457090D01*
X116651917Y-93332149D01*
X116642604Y-93327404D01*
X116591807Y-93279430D01*
X116575012Y-93211609D01*
X116597549Y-93145474D01*
X116642607Y-93106432D01*
X116651655Y-93101822D01*
X116705816Y-93062470D01*
X116705817Y-93062470D01*
X116073508Y-92430162D01*
X116137093Y-92413125D01*
X116251107Y-92347299D01*
X116344199Y-92254207D01*
X116410025Y-92140193D01*
X116427062Y-92076609D01*
X117059370Y-92708917D01*
X117059370Y-92708916D01*
X117098722Y-92654754D01*
X117195195Y-92465417D01*
X117260857Y-92263330D01*
X117260857Y-92263327D01*
X117294100Y-92053446D01*
X117294100Y-91840953D01*
X117260857Y-91631072D01*
X117260857Y-91631069D01*
X117195195Y-91428982D01*
X117098724Y-91239649D01*
X117059370Y-91185482D01*
X117059369Y-91185482D01*
X116427062Y-91817790D01*
X116410025Y-91754207D01*
X116344199Y-91640193D01*
X116251107Y-91547101D01*
X116137093Y-91481275D01*
X116073509Y-91464237D01*
X116705816Y-90831928D01*
X116651647Y-90792573D01*
X116651647Y-90792572D01*
X116642600Y-90787963D01*
X116591806Y-90739988D01*
X116575012Y-90672166D01*
X116597551Y-90606032D01*
X116642608Y-90566993D01*
X116651916Y-90562251D01*
X116731107Y-90504715D01*
X116823886Y-90437309D01*
X116823888Y-90437306D01*
X116823892Y-90437304D01*
X116974204Y-90286992D01*
X116974206Y-90286988D01*
X116974209Y-90286986D01*
X117099148Y-90115020D01*
X117099147Y-90115020D01*
X117099151Y-90115016D01*
X117195657Y-89925612D01*
X117261346Y-89723443D01*
X117294600Y-89513487D01*
X117294600Y-89300913D01*
X117261346Y-89090957D01*
X117195657Y-88888788D01*
X117099151Y-88699384D01*
X117099149Y-88699381D01*
X117099148Y-88699379D01*
X116974209Y-88527413D01*
X116823886Y-88377090D01*
X116651920Y-88252151D01*
X116462514Y-88155644D01*
X116462513Y-88155643D01*
X116462512Y-88155643D01*
X116260343Y-88089954D01*
X116260341Y-88089953D01*
X116260340Y-88089953D01*
X116099057Y-88064408D01*
X116050387Y-88056700D01*
X115837813Y-88056700D01*
X115789142Y-88064408D01*
X115627860Y-88089953D01*
X115425685Y-88155644D01*
X115236279Y-88252151D01*
X115064313Y-88377090D01*
X114913990Y-88527413D01*
X114789051Y-88699379D01*
X114692544Y-88888785D01*
X114626853Y-89090960D01*
X114621659Y-89123757D01*
X114593600Y-89300913D01*
X112500500Y-89300913D01*
X112500500Y-79874038D01*
X114399500Y-79874038D01*
X114399500Y-80125961D01*
X114438910Y-80374785D01*
X114516760Y-80614383D01*
X114595413Y-80768747D01*
X114622885Y-80822664D01*
X114631132Y-80838848D01*
X114779201Y-81042649D01*
X114779205Y-81042654D01*
X114957345Y-81220794D01*
X114957350Y-81220798D01*
X115135117Y-81349952D01*
X115161155Y-81368870D01*
X115304184Y-81441747D01*
X115385616Y-81483239D01*
X115385618Y-81483239D01*
X115385621Y-81483241D01*
X115625215Y-81561090D01*
X115874038Y-81600500D01*
X115874039Y-81600500D01*
X116125961Y-81600500D01*
X116125962Y-81600500D01*
X116374785Y-81561090D01*
X116614379Y-81483241D01*
X116838845Y-81368870D01*
X117042656Y-81220793D01*
X117220793Y-81042656D01*
X117368870Y-80838845D01*
X117483241Y-80614379D01*
X117561090Y-80374785D01*
X117600500Y-80125962D01*
X117600500Y-79874038D01*
X117561090Y-79625215D01*
X117483241Y-79385621D01*
X117483239Y-79385618D01*
X117483239Y-79385616D01*
X117441747Y-79304184D01*
X117368870Y-79161155D01*
X117254509Y-79003750D01*
X117220798Y-78957350D01*
X117220794Y-78957345D01*
X117042654Y-78779205D01*
X117042649Y-78779201D01*
X116838848Y-78631132D01*
X116838847Y-78631131D01*
X116838845Y-78631130D01*
X116768747Y-78595413D01*
X116614383Y-78516760D01*
X116374785Y-78438910D01*
X116125962Y-78399500D01*
X115874038Y-78399500D01*
X115749626Y-78419205D01*
X115625214Y-78438910D01*
X115385616Y-78516760D01*
X115161151Y-78631132D01*
X114957350Y-78779201D01*
X114957345Y-78779205D01*
X114779205Y-78957345D01*
X114779201Y-78957350D01*
X114631132Y-79161151D01*
X114516760Y-79385616D01*
X114438910Y-79625214D01*
X114399500Y-79874038D01*
X112500500Y-79874038D01*
X112500500Y-79003750D01*
X112500726Y-78996263D01*
X112513855Y-78779207D01*
X112518271Y-78706201D01*
X112520076Y-78691340D01*
X112529787Y-78638352D01*
X112571780Y-78409198D01*
X112575364Y-78394664D01*
X112660699Y-78120812D01*
X112665997Y-78106842D01*
X112783727Y-77845258D01*
X112790680Y-77832012D01*
X112830959Y-77765381D01*
X112939075Y-77586534D01*
X112947567Y-77574230D01*
X113124481Y-77348417D01*
X113134396Y-77337226D01*
X113337226Y-77134396D01*
X113348417Y-77124481D01*
X113574230Y-76947567D01*
X113586534Y-76939075D01*
X113832012Y-76790680D01*
X113845258Y-76783727D01*
X114106842Y-76665997D01*
X114120812Y-76660699D01*
X114394668Y-76575362D01*
X114409198Y-76571780D01*
X114691344Y-76520075D01*
X114706201Y-76518271D01*
X114996264Y-76500726D01*
X115003751Y-76500500D01*
X115065892Y-76500500D01*
X190934108Y-76500500D01*
X190996249Y-76500500D01*
X191003736Y-76500726D01*
G37*
%TD.AperFunction*%
%TA.AperFunction,Conductor*%
G36*
X155494075Y-133192993D02*
G01*
X155559901Y-133307007D01*
X155652993Y-133400099D01*
X155767007Y-133465925D01*
X155830590Y-133482962D01*
X155198282Y-134115269D01*
X155198282Y-134115270D01*
X155252452Y-134154626D01*
X155252451Y-134154626D01*
X155272841Y-134165015D01*
X155323638Y-134212989D01*
X155340433Y-134280810D01*
X155317896Y-134346945D01*
X155263181Y-134390397D01*
X155216547Y-134399500D01*
X154731571Y-134399500D01*
X154664532Y-134379815D01*
X154618777Y-134327011D01*
X154608833Y-134257853D01*
X154632305Y-134201189D01*
X154713793Y-134092335D01*
X154713792Y-134092335D01*
X154713796Y-134092331D01*
X154764091Y-133957483D01*
X154770500Y-133897873D01*
X154770499Y-133887312D01*
X154790179Y-133820275D01*
X154806818Y-133799626D01*
X155477037Y-133129408D01*
X155494075Y-133192993D01*
G37*
%TD.AperFunction*%
%TA.AperFunction,Conductor*%
G36*
X157075270Y-133761717D02*
G01*
X157075270Y-133761716D01*
X157114622Y-133707555D01*
X157119232Y-133698507D01*
X157167205Y-133647709D01*
X157235025Y-133630912D01*
X157301161Y-133653447D01*
X157340204Y-133698504D01*
X157344949Y-133707817D01*
X157469890Y-133879786D01*
X157620213Y-134030109D01*
X157792182Y-134155050D01*
X157811739Y-134165015D01*
X157862536Y-134212989D01*
X157879331Y-134280810D01*
X157856794Y-134346945D01*
X157802079Y-134390397D01*
X157755445Y-134399500D01*
X156703453Y-134399500D01*
X156636414Y-134379815D01*
X156590659Y-134327011D01*
X156580715Y-134257853D01*
X156609740Y-134194297D01*
X156647159Y-134165015D01*
X156667552Y-134154624D01*
X156721716Y-134115270D01*
X156721717Y-134115270D01*
X156089408Y-133482962D01*
X156152993Y-133465925D01*
X156267007Y-133400099D01*
X156360099Y-133307007D01*
X156425925Y-133192993D01*
X156442962Y-133129408D01*
X157075270Y-133761717D01*
G37*
%TD.AperFunction*%
%TD*%
M02*
