%TF.GenerationSoftware,KiCad,Pcbnew,10.0.5-10.0.5~ubuntu24.04.1*%
%TF.CreationDate,2026-08-03T14:43:45+05:30*%
%TF.ProjectId,pcb,7063622e-6b69-4636-9164-5f7063625858,rev?*%
%TF.SameCoordinates,Original*%
%TF.FileFunction,Soldermask,Bot*%
%TF.FilePolarity,Negative*%
%FSLAX46Y46*%
G04 Gerber Fmt 4.6, Leading zero omitted, Abs format (unit mm)*
G04 Created by KiCad (PCBNEW 10.0.5-10.0.5~ubuntu24.04.1) date 2026-08-03 14:43:45*
%MOMM*%
%LPD*%
G01*
G04 APERTURE LIST*
G04 Aperture macros list*
%AMRoundRect*
0 Rectangle with rounded corners*
0 $1 Rounding radius*
0 $2 $3 $4 $5 $6 $7 $8 $9 X,Y pos of 4 corners*
0 Add a 4 corners polygon primitive as box body*
4,1,4,$2,$3,$4,$5,$6,$7,$8,$9,$2,$3,0*
0 Add four circle primitives for the rounded corners*
1,1,$1+$1,$2,$3*
1,1,$1+$1,$4,$5*
1,1,$1+$1,$6,$7*
1,1,$1+$1,$8,$9*
0 Add four rect primitives between the rounded corners*
20,1,$1+$1,$2,$3,$4,$5,0*
20,1,$1+$1,$4,$5,$6,$7,0*
20,1,$1+$1,$6,$7,$8,$9,0*
20,1,$1+$1,$8,$9,$2,$3,0*%
G04 Aperture macros list end*
%ADD10RoundRect,0.250000X0.750000X-0.750000X0.750000X0.750000X-0.750000X0.750000X-0.750000X-0.750000X0*%
%ADD11C,2.000000*%
%ADD12C,5.400000*%
%ADD13RoundRect,0.190500X-0.444500X1.079500X-0.444500X-1.079500X0.444500X-1.079500X0.444500X1.079500X0*%
%ADD14RoundRect,0.250000X1.050000X1.050000X-1.050000X1.050000X-1.050000X-1.050000X1.050000X-1.050000X0*%
%ADD15C,2.600000*%
%ADD16R,1.700000X1.700000*%
%ADD17C,1.700000*%
%ADD18R,2.000000X2.000000*%
%ADD19O,1.900000X1.524000*%
G04 APERTURE END LIST*
D10*
%TO.C,J3*%
X174155400Y-99500100D03*
D11*
X174155400Y-96960100D03*
%TD*%
D12*
%TO.C,H1*%
X116000000Y-80000000D03*
%TD*%
D13*
%TO.C,U2*%
X160794000Y-126866000D03*
D14*
X159500000Y-119500000D03*
D13*
X158254000Y-126866000D03*
X155714000Y-126866000D03*
D15*
X154420000Y-119500000D03*
D13*
X153174000Y-126866000D03*
X160794000Y-85464000D03*
X158254000Y-85464000D03*
X155714000Y-85464000D03*
X153174000Y-85464000D03*
%TD*%
D16*
%TO.C,J4*%
X152190000Y-78500000D03*
D17*
X154730000Y-78500000D03*
X157270000Y-78500000D03*
X159810000Y-78500000D03*
%TD*%
D18*
%TO.C,BZ1*%
X171500000Y-86300000D03*
D11*
X171500000Y-78700000D03*
%TD*%
D12*
%TO.C,H3*%
X175000000Y-125000000D03*
%TD*%
D16*
%TO.C,J5*%
X114795000Y-117295000D03*
D17*
X114795000Y-119835000D03*
%TD*%
D10*
%TO.C,J2*%
X174155400Y-107720500D03*
D11*
X174155400Y-105180500D03*
%TD*%
D19*
%TO.C,U1*%
X121851560Y-118560013D03*
X121851560Y-116020013D03*
X121851560Y-113480013D03*
X121851560Y-110940013D03*
X121851560Y-108400013D03*
X121851560Y-105860013D03*
X121851560Y-103320013D03*
X121851560Y-100780013D03*
X121851560Y-98240013D03*
X121851560Y-95700013D03*
X121851560Y-93160013D03*
X121851560Y-90620013D03*
X121851560Y-88080013D03*
X121851560Y-85540013D03*
X121851560Y-83000013D03*
X147251560Y-118560013D03*
X147251560Y-116020013D03*
X147251560Y-113480013D03*
X147251560Y-110940013D03*
X147251560Y-108400013D03*
X147251560Y-105860013D03*
X147251560Y-103320013D03*
X147251560Y-100780013D03*
X147251560Y-98240013D03*
X147251560Y-95700013D03*
X147251560Y-93160013D03*
X147251560Y-90620013D03*
X147251560Y-88080013D03*
X147251560Y-85540013D03*
X147251560Y-83000013D03*
%TD*%
D10*
%TO.C,J1*%
X174150100Y-116220500D03*
D11*
X174150100Y-113680500D03*
%TD*%
D12*
%TO.C,H2*%
X116000000Y-125000000D03*
%TD*%
M02*
