%TF.GenerationSoftware,KiCad,Pcbnew,10.0.3-10.0.3~ubuntu24.04.1*%
%TF.CreationDate,2026-05-25T19:03:21+05:30*%
%TF.ProjectId,pcb,7063622e-6b69-4636-9164-5f7063625858,rev?*%
%TF.SameCoordinates,Original*%
%TF.FileFunction,Soldermask,Bot*%
%TF.FilePolarity,Negative*%
%FSLAX46Y46*%
G04 Gerber Fmt 4.6, Leading zero omitted, Abs format (unit mm)*
G04 Created by KiCad (PCBNEW 10.0.3-10.0.3~ubuntu24.04.1) date 2026-05-25 19:03:21*
%MOMM*%
%LPD*%
G01*
G04 APERTURE LIST*
G04 Aperture macros list*
%AMRoundRect*
0 Rectangle with rounded corners*
0 $1 Rounding radius*
0 $2 $3 $4 $5 $6 $7 $8 $9 X,Y pos of 4 corners*
0 Add a 4 corners polygon primitive as box body*
4,1,4,$2,$3,$4,$5,$6,$7,$8,$9,$2,$3,0*
0 Add four circle primitives for the rounded corners*
1,1,$1+$1,$2,$3*
1,1,$1+$1,$4,$5*
1,1,$1+$1,$6,$7*
1,1,$1+$1,$8,$9*
0 Add four rect primitives between the rounded corners*
20,1,$1+$1,$2,$3,$4,$5,0*
20,1,$1+$1,$4,$5,$6,$7,0*
20,1,$1+$1,$6,$7,$8,$9,0*
20,1,$1+$1,$8,$9,$2,$3,0*%
G04 Aperture macros list end*
%ADD10RoundRect,0.250000X1.050000X-1.050000X1.050000X1.050000X-1.050000X1.050000X-1.050000X-1.050000X0*%
%ADD11C,2.600000*%
%ADD12R,1.700000X1.700000*%
%ADD13C,1.700000*%
%ADD14C,5.400000*%
%ADD15O,1.900000X1.524000*%
%ADD16RoundRect,0.250000X1.050000X1.050000X-1.050000X1.050000X-1.050000X-1.050000X1.050000X-1.050000X0*%
G04 APERTURE END LIST*
D10*
%TO.C,J3*%
X183457300Y-118197700D03*
D11*
X183457300Y-113117700D03*
X183457300Y-108037700D03*
X183457300Y-102957700D03*
X183457300Y-97877700D03*
X183457300Y-92797700D03*
X183457300Y-87717700D03*
%TD*%
D12*
%TO.C,J2*%
X173500000Y-91915000D03*
D13*
X173500000Y-94455000D03*
X173500000Y-96995000D03*
X173500000Y-99535000D03*
X173500000Y-102075000D03*
X173500000Y-104615000D03*
X173500000Y-107155000D03*
X173500000Y-109695000D03*
X173500000Y-112235000D03*
X173500000Y-114775000D03*
%TD*%
D14*
%TO.C,H1*%
X116000000Y-80000000D03*
%TD*%
D12*
%TO.C,J8*%
X160040000Y-79000000D03*
D13*
X157500000Y-79000000D03*
X154960000Y-79000000D03*
X152420000Y-79000000D03*
%TD*%
D14*
%TO.C,H4*%
X188000000Y-127000000D03*
%TD*%
%TO.C,H3*%
X187987000Y-80000000D03*
%TD*%
D12*
%TO.C,J5*%
X115944100Y-121467200D03*
D13*
X115944100Y-118927200D03*
X115944100Y-116387200D03*
X115944100Y-113847200D03*
X115944100Y-111307200D03*
X115944100Y-108767200D03*
X115944100Y-106227200D03*
X115944100Y-103687200D03*
X115944100Y-101147200D03*
X115944100Y-98607200D03*
X115944100Y-96067200D03*
X115944100Y-93527200D03*
X115944100Y-90987200D03*
X115944100Y-88447200D03*
X115944100Y-85907200D03*
%TD*%
D12*
%TO.C,J1*%
X161245000Y-91915000D03*
D13*
X161245000Y-94455000D03*
X161245000Y-96995000D03*
X161245000Y-99535000D03*
X161245000Y-102075000D03*
X161245000Y-104615000D03*
X161245000Y-107155000D03*
X161245000Y-109695000D03*
X161245000Y-112235000D03*
X161245000Y-114775000D03*
%TD*%
D15*
%TO.C,U1*%
X147346640Y-84432487D03*
X147346640Y-86972487D03*
X147346640Y-89512487D03*
X147346640Y-92052487D03*
X147346640Y-94592487D03*
X147346640Y-97132487D03*
X147346640Y-99672487D03*
X147346640Y-102212487D03*
X147346640Y-104752487D03*
X147346640Y-107292487D03*
X147346640Y-109832487D03*
X147346640Y-112372487D03*
X147346640Y-114912487D03*
X147346640Y-117452487D03*
X147346640Y-119992487D03*
X121946640Y-84432487D03*
X121946640Y-86972487D03*
X121946640Y-89512487D03*
X121946640Y-92052487D03*
X121946640Y-94592487D03*
X121946640Y-97132487D03*
X121946640Y-99672487D03*
X121946640Y-102212487D03*
X121946640Y-104752487D03*
X121946640Y-107292487D03*
X121946640Y-109832487D03*
X121946640Y-112372487D03*
X121946640Y-114912487D03*
X121946640Y-117452487D03*
X121946640Y-119992487D03*
%TD*%
D12*
%TO.C,J6*%
X153500000Y-121500000D03*
D13*
X153500000Y-118960000D03*
X153500000Y-116420000D03*
X153500000Y-113880000D03*
X153500000Y-111340000D03*
X153500000Y-108800000D03*
X153500000Y-106260000D03*
X153500000Y-103720000D03*
X153500000Y-101180000D03*
X153500000Y-98640000D03*
X153500000Y-96100000D03*
X153500000Y-93560000D03*
X153500000Y-91020000D03*
X153500000Y-88480000D03*
X153500000Y-85940000D03*
%TD*%
D16*
%TO.C,J7*%
X172080000Y-82000000D03*
D11*
X167000000Y-82000000D03*
%TD*%
D14*
%TO.C,H2*%
X116000000Y-127000000D03*
%TD*%
M02*
