M48
; DRILL file KiCad 10.0.3-10.0.3~ubuntu24.04.1 date 2026-05-25T19:03:18
; FORMAT={-:-/ absolute / metric / decimal}
; #@! TF.CreationDate,2026-05-25T19:03:18+05:30
; #@! TF.GenerationSoftware,Kicad,Pcbnew,10.0.3-10.0.3~ubuntu24.04.1
; #@! TF.FileFunction,Plated,1,2,PTH
FMAT,2
METRIC
; #@! TA.AperFunction,Plated,PTH,ViaDrill
T1C0.300
; #@! TA.AperFunction,Plated,PTH,ComponentDrill
T2C0.800
; #@! TA.AperFunction,Plated,PTH,ComponentDrill
T3C1.000
; #@! TA.AperFunction,Plated,PTH,ComponentDrill
T4C1.300
; #@! TA.AperFunction,Plated,PTH,ComponentDrill
T5C2.700
%
G90
G05
T1
X123.5Y-82.0
X150.0Y-83.0
X156.5Y-86.0
X168.0Y-118.5
T2
X121.947Y-84.432
X121.947Y-86.972
X121.947Y-89.512
X121.947Y-92.052
X121.947Y-94.592
X121.947Y-97.132
X121.947Y-99.672
X121.947Y-102.212
X121.947Y-104.752
X121.947Y-107.292
X121.947Y-109.832
X121.947Y-112.372
X121.947Y-114.912
X121.947Y-117.452
X121.947Y-119.992
X147.347Y-84.432
X147.347Y-86.972
X147.347Y-89.512
X147.347Y-92.052
X147.347Y-94.592
X147.347Y-97.132
X147.347Y-99.672
X147.347Y-102.212
X147.347Y-104.752
X147.347Y-107.292
X147.347Y-109.832
X147.347Y-112.372
X147.347Y-114.912
X147.347Y-117.452
X147.347Y-119.992
T3
X115.944Y-85.907
X115.944Y-88.447
X115.944Y-90.987
X115.944Y-93.527
X115.944Y-96.067
X115.944Y-98.607
X115.944Y-101.147
X115.944Y-103.687
X115.944Y-106.227
X115.944Y-108.767
X115.944Y-111.307
X115.944Y-113.847
X115.944Y-116.387
X115.944Y-118.927
X115.944Y-121.467
X152.42Y-79.0
X153.5Y-85.94
X153.5Y-88.48
X153.5Y-91.02
X153.5Y-93.56
X153.5Y-96.1
X153.5Y-98.64
X153.5Y-101.18
X153.5Y-103.72
X153.5Y-106.26
X153.5Y-108.8
X153.5Y-111.34
X153.5Y-113.88
X153.5Y-116.42
X153.5Y-118.96
X153.5Y-121.5
X154.96Y-79.0
X157.5Y-79.0
X160.04Y-79.0
X161.245Y-91.915
X161.245Y-94.455
X161.245Y-96.995
X161.245Y-99.535
X161.245Y-102.075
X161.245Y-104.615
X161.245Y-107.155
X161.245Y-109.695
X161.245Y-112.235
X161.245Y-114.775
X173.5Y-91.915
X173.5Y-94.455
X173.5Y-96.995
X173.5Y-99.535
X173.5Y-102.075
X173.5Y-104.615
X173.5Y-107.155
X173.5Y-109.695
X173.5Y-112.235
X173.5Y-114.775
T4
X167.0Y-82.0
X172.08Y-82.0
X183.457Y-87.718
X183.457Y-92.798
X183.457Y-97.878
X183.457Y-102.958
X183.457Y-108.038
X183.457Y-113.118
X183.457Y-118.198
T5
X116.0Y-80.0
X116.0Y-127.0
X187.987Y-80.0
X188.0Y-127.0
M30
