%TF.GenerationSoftware,KiCad,Pcbnew,10.0.5-10.0.5~ubuntu24.04.1*%
%TF.CreationDate,2026-08-03T14:43:36+05:30*%
%TF.ProjectId,pcb,7063622e-6b69-4636-9164-5f7063625858,rev?*%
%TF.SameCoordinates,Original*%
%TF.FileFunction,Legend,Top*%
%TF.FilePolarity,Positive*%
%FSLAX46Y46*%
G04 Gerber Fmt 4.6, Leading zero omitted, Abs format (unit mm)*
G04 Created by KiCad (PCBNEW 10.0.5-10.0.5~ubuntu24.04.1) date 2026-08-03 14:43:36*
%MOMM*%
%LPD*%
G01*
G04 APERTURE LIST*
%ADD10C,0.100000*%
%ADD11C,0.150000*%
%ADD12C,0.120000*%
%ADD13C,0.200000*%
G04 APERTURE END LIST*
D10*
X152875312Y-81122419D02*
X152541979Y-80646228D01*
X152303884Y-81122419D02*
X152303884Y-80122419D01*
X152303884Y-80122419D02*
X152684836Y-80122419D01*
X152684836Y-80122419D02*
X152780074Y-80170038D01*
X152780074Y-80170038D02*
X152827693Y-80217657D01*
X152827693Y-80217657D02*
X152875312Y-80312895D01*
X152875312Y-80312895D02*
X152875312Y-80455752D01*
X152875312Y-80455752D02*
X152827693Y-80550990D01*
X152827693Y-80550990D02*
X152780074Y-80598609D01*
X152780074Y-80598609D02*
X152684836Y-80646228D01*
X152684836Y-80646228D02*
X152303884Y-80646228D01*
X154827694Y-81122419D02*
X154827694Y-80122419D01*
X155399122Y-81122419D02*
X154970551Y-80550990D01*
X155399122Y-80122419D02*
X154827694Y-80693847D01*
X157875313Y-80170038D02*
X157780075Y-80122419D01*
X157780075Y-80122419D02*
X157637218Y-80122419D01*
X157637218Y-80122419D02*
X157494361Y-80170038D01*
X157494361Y-80170038D02*
X157399123Y-80265276D01*
X157399123Y-80265276D02*
X157351504Y-80360514D01*
X157351504Y-80360514D02*
X157303885Y-80550990D01*
X157303885Y-80550990D02*
X157303885Y-80693847D01*
X157303885Y-80693847D02*
X157351504Y-80884323D01*
X157351504Y-80884323D02*
X157399123Y-80979561D01*
X157399123Y-80979561D02*
X157494361Y-81074800D01*
X157494361Y-81074800D02*
X157637218Y-81122419D01*
X157637218Y-81122419D02*
X157732456Y-81122419D01*
X157732456Y-81122419D02*
X157875313Y-81074800D01*
X157875313Y-81074800D02*
X157922932Y-81027180D01*
X157922932Y-81027180D02*
X157922932Y-80693847D01*
X157922932Y-80693847D02*
X157732456Y-80693847D01*
X160208647Y-80598609D02*
X160351504Y-80646228D01*
X160351504Y-80646228D02*
X160399123Y-80693847D01*
X160399123Y-80693847D02*
X160446742Y-80789085D01*
X160446742Y-80789085D02*
X160446742Y-80931942D01*
X160446742Y-80931942D02*
X160399123Y-81027180D01*
X160399123Y-81027180D02*
X160351504Y-81074800D01*
X160351504Y-81074800D02*
X160256266Y-81122419D01*
X160256266Y-81122419D02*
X159875314Y-81122419D01*
X159875314Y-81122419D02*
X159875314Y-80122419D01*
X159875314Y-80122419D02*
X160208647Y-80122419D01*
X160208647Y-80122419D02*
X160303885Y-80170038D01*
X160303885Y-80170038D02*
X160351504Y-80217657D01*
X160351504Y-80217657D02*
X160399123Y-80312895D01*
X160399123Y-80312895D02*
X160399123Y-80408133D01*
X160399123Y-80408133D02*
X160351504Y-80503371D01*
X160351504Y-80503371D02*
X160303885Y-80550990D01*
X160303885Y-80550990D02*
X160208647Y-80598609D01*
X160208647Y-80598609D02*
X159875314Y-80598609D01*
X169959289Y-119128696D02*
X170292622Y-119128696D01*
X170435479Y-119652506D02*
X169959289Y-119652506D01*
X169959289Y-119652506D02*
X169959289Y-118652506D01*
X169959289Y-118652506D02*
X170435479Y-118652506D01*
X170864051Y-119652506D02*
X170864051Y-118652506D01*
X170864051Y-118652506D02*
X171197384Y-119366791D01*
X171197384Y-119366791D02*
X171530717Y-118652506D01*
X171530717Y-118652506D02*
X171530717Y-119652506D01*
X172006908Y-119128696D02*
X172340241Y-119128696D01*
X172483098Y-119652506D02*
X172006908Y-119652506D01*
X172006908Y-119652506D02*
X172006908Y-118652506D01*
X172006908Y-118652506D02*
X172483098Y-118652506D01*
X173483098Y-119652506D02*
X173149765Y-119176315D01*
X172911670Y-119652506D02*
X172911670Y-118652506D01*
X172911670Y-118652506D02*
X173292622Y-118652506D01*
X173292622Y-118652506D02*
X173387860Y-118700125D01*
X173387860Y-118700125D02*
X173435479Y-118747744D01*
X173435479Y-118747744D02*
X173483098Y-118842982D01*
X173483098Y-118842982D02*
X173483098Y-118985839D01*
X173483098Y-118985839D02*
X173435479Y-119081077D01*
X173435479Y-119081077D02*
X173387860Y-119128696D01*
X173387860Y-119128696D02*
X173292622Y-119176315D01*
X173292622Y-119176315D02*
X172911670Y-119176315D01*
X174435479Y-118700125D02*
X174340241Y-118652506D01*
X174340241Y-118652506D02*
X174197384Y-118652506D01*
X174197384Y-118652506D02*
X174054527Y-118700125D01*
X174054527Y-118700125D02*
X173959289Y-118795363D01*
X173959289Y-118795363D02*
X173911670Y-118890601D01*
X173911670Y-118890601D02*
X173864051Y-119081077D01*
X173864051Y-119081077D02*
X173864051Y-119223934D01*
X173864051Y-119223934D02*
X173911670Y-119414410D01*
X173911670Y-119414410D02*
X173959289Y-119509648D01*
X173959289Y-119509648D02*
X174054527Y-119604887D01*
X174054527Y-119604887D02*
X174197384Y-119652506D01*
X174197384Y-119652506D02*
X174292622Y-119652506D01*
X174292622Y-119652506D02*
X174435479Y-119604887D01*
X174435479Y-119604887D02*
X174483098Y-119557267D01*
X174483098Y-119557267D02*
X174483098Y-119223934D01*
X174483098Y-119223934D02*
X174292622Y-119223934D01*
X174911670Y-119128696D02*
X175245003Y-119128696D01*
X175387860Y-119652506D02*
X174911670Y-119652506D01*
X174911670Y-119652506D02*
X174911670Y-118652506D01*
X174911670Y-118652506D02*
X175387860Y-118652506D01*
X175816432Y-119652506D02*
X175816432Y-118652506D01*
X175816432Y-118652506D02*
X176387860Y-119652506D01*
X176387860Y-119652506D02*
X176387860Y-118652506D01*
X177435479Y-119557267D02*
X177387860Y-119604887D01*
X177387860Y-119604887D02*
X177245003Y-119652506D01*
X177245003Y-119652506D02*
X177149765Y-119652506D01*
X177149765Y-119652506D02*
X177006908Y-119604887D01*
X177006908Y-119604887D02*
X176911670Y-119509648D01*
X176911670Y-119509648D02*
X176864051Y-119414410D01*
X176864051Y-119414410D02*
X176816432Y-119223934D01*
X176816432Y-119223934D02*
X176816432Y-119081077D01*
X176816432Y-119081077D02*
X176864051Y-118890601D01*
X176864051Y-118890601D02*
X176911670Y-118795363D01*
X176911670Y-118795363D02*
X177006908Y-118700125D01*
X177006908Y-118700125D02*
X177149765Y-118652506D01*
X177149765Y-118652506D02*
X177245003Y-118652506D01*
X177245003Y-118652506D02*
X177387860Y-118700125D01*
X177387860Y-118700125D02*
X177435479Y-118747744D01*
X178054527Y-119176315D02*
X178054527Y-119652506D01*
X177721194Y-118652506D02*
X178054527Y-119176315D01*
X178054527Y-119176315D02*
X178387860Y-118652506D01*
X173911670Y-102604887D02*
X174054527Y-102652506D01*
X174054527Y-102652506D02*
X174292622Y-102652506D01*
X174292622Y-102652506D02*
X174387860Y-102604887D01*
X174387860Y-102604887D02*
X174435479Y-102557267D01*
X174435479Y-102557267D02*
X174483098Y-102462029D01*
X174483098Y-102462029D02*
X174483098Y-102366791D01*
X174483098Y-102366791D02*
X174435479Y-102271553D01*
X174435479Y-102271553D02*
X174387860Y-102223934D01*
X174387860Y-102223934D02*
X174292622Y-102176315D01*
X174292622Y-102176315D02*
X174102146Y-102128696D01*
X174102146Y-102128696D02*
X174006908Y-102081077D01*
X174006908Y-102081077D02*
X173959289Y-102033458D01*
X173959289Y-102033458D02*
X173911670Y-101938220D01*
X173911670Y-101938220D02*
X173911670Y-101842982D01*
X173911670Y-101842982D02*
X173959289Y-101747744D01*
X173959289Y-101747744D02*
X174006908Y-101700125D01*
X174006908Y-101700125D02*
X174102146Y-101652506D01*
X174102146Y-101652506D02*
X174340241Y-101652506D01*
X174340241Y-101652506D02*
X174483098Y-101700125D01*
X174911670Y-102652506D02*
X174911670Y-101652506D01*
X174911670Y-101652506D02*
X175292622Y-101652506D01*
X175292622Y-101652506D02*
X175387860Y-101700125D01*
X175387860Y-101700125D02*
X175435479Y-101747744D01*
X175435479Y-101747744D02*
X175483098Y-101842982D01*
X175483098Y-101842982D02*
X175483098Y-101985839D01*
X175483098Y-101985839D02*
X175435479Y-102081077D01*
X175435479Y-102081077D02*
X175387860Y-102128696D01*
X175387860Y-102128696D02*
X175292622Y-102176315D01*
X175292622Y-102176315D02*
X174911670Y-102176315D01*
X175911670Y-102128696D02*
X176245003Y-102128696D01*
X176387860Y-102652506D02*
X175911670Y-102652506D01*
X175911670Y-102652506D02*
X175911670Y-101652506D01*
X175911670Y-101652506D02*
X176387860Y-101652506D01*
X176816432Y-102128696D02*
X177149765Y-102128696D01*
X177292622Y-102652506D02*
X176816432Y-102652506D01*
X176816432Y-102652506D02*
X176816432Y-101652506D01*
X176816432Y-101652506D02*
X177292622Y-101652506D01*
X177721194Y-102652506D02*
X177721194Y-101652506D01*
X177721194Y-101652506D02*
X177959289Y-101652506D01*
X177959289Y-101652506D02*
X178102146Y-101700125D01*
X178102146Y-101700125D02*
X178197384Y-101795363D01*
X178197384Y-101795363D02*
X178245003Y-101890601D01*
X178245003Y-101890601D02*
X178292622Y-102081077D01*
X178292622Y-102081077D02*
X178292622Y-102223934D01*
X178292622Y-102223934D02*
X178245003Y-102414410D01*
X178245003Y-102414410D02*
X178197384Y-102509648D01*
X178197384Y-102509648D02*
X178102146Y-102604887D01*
X178102146Y-102604887D02*
X177959289Y-102652506D01*
X177959289Y-102652506D02*
X177721194Y-102652506D01*
X175435479Y-111232965D02*
X174959289Y-111232965D01*
X174959289Y-111232965D02*
X174959289Y-110232965D01*
X175768813Y-111232965D02*
X175768813Y-110232965D01*
X176245003Y-111232965D02*
X176245003Y-110232965D01*
X176245003Y-110232965D02*
X176578336Y-110947250D01*
X176578336Y-110947250D02*
X176911669Y-110232965D01*
X176911669Y-110232965D02*
X176911669Y-111232965D01*
X177387860Y-111232965D02*
X177387860Y-110232965D01*
X177721193Y-110232965D02*
X178292621Y-110232965D01*
X178006907Y-111232965D02*
X178006907Y-110232965D01*
X114694981Y-84247662D02*
X114647361Y-84390519D01*
X114647361Y-84390519D02*
X114647361Y-84628614D01*
X114647361Y-84628614D02*
X114694981Y-84723852D01*
X114694981Y-84723852D02*
X114742600Y-84771471D01*
X114742600Y-84771471D02*
X114837838Y-84819090D01*
X114837838Y-84819090D02*
X114933076Y-84819090D01*
X114933076Y-84819090D02*
X115028314Y-84771471D01*
X115028314Y-84771471D02*
X115075933Y-84723852D01*
X115075933Y-84723852D02*
X115123552Y-84628614D01*
X115123552Y-84628614D02*
X115171171Y-84438138D01*
X115171171Y-84438138D02*
X115218790Y-84342900D01*
X115218790Y-84342900D02*
X115266409Y-84295281D01*
X115266409Y-84295281D02*
X115361647Y-84247662D01*
X115361647Y-84247662D02*
X115456885Y-84247662D01*
X115456885Y-84247662D02*
X115552123Y-84295281D01*
X115552123Y-84295281D02*
X115599742Y-84342900D01*
X115599742Y-84342900D02*
X115647361Y-84438138D01*
X115647361Y-84438138D02*
X115647361Y-84676233D01*
X115647361Y-84676233D02*
X115599742Y-84819090D01*
X115314028Y-85247662D02*
X114314028Y-85247662D01*
X115266409Y-85247662D02*
X115314028Y-85342900D01*
X115314028Y-85342900D02*
X115314028Y-85533376D01*
X115314028Y-85533376D02*
X115266409Y-85628614D01*
X115266409Y-85628614D02*
X115218790Y-85676233D01*
X115218790Y-85676233D02*
X115123552Y-85723852D01*
X115123552Y-85723852D02*
X114837838Y-85723852D01*
X114837838Y-85723852D02*
X114742600Y-85676233D01*
X114742600Y-85676233D02*
X114694981Y-85628614D01*
X114694981Y-85628614D02*
X114647361Y-85533376D01*
X114647361Y-85533376D02*
X114647361Y-85342900D01*
X114647361Y-85342900D02*
X114694981Y-85247662D01*
X114647361Y-86152424D02*
X115314028Y-86152424D01*
X115647361Y-86152424D02*
X115599742Y-86104805D01*
X115599742Y-86104805D02*
X115552123Y-86152424D01*
X115552123Y-86152424D02*
X115599742Y-86200043D01*
X115599742Y-86200043D02*
X115647361Y-86152424D01*
X115647361Y-86152424D02*
X115552123Y-86152424D01*
X115314028Y-86628614D02*
X114647361Y-86628614D01*
X115218790Y-86628614D02*
X115266409Y-86676233D01*
X115266409Y-86676233D02*
X115314028Y-86771471D01*
X115314028Y-86771471D02*
X115314028Y-86914328D01*
X115314028Y-86914328D02*
X115266409Y-87009566D01*
X115266409Y-87009566D02*
X115171171Y-87057185D01*
X115171171Y-87057185D02*
X114647361Y-87057185D01*
X114742600Y-88866709D02*
X114694981Y-88819090D01*
X114694981Y-88819090D02*
X114647361Y-88676233D01*
X114647361Y-88676233D02*
X114647361Y-88580995D01*
X114647361Y-88580995D02*
X114694981Y-88438138D01*
X114694981Y-88438138D02*
X114790219Y-88342900D01*
X114790219Y-88342900D02*
X114885457Y-88295281D01*
X114885457Y-88295281D02*
X115075933Y-88247662D01*
X115075933Y-88247662D02*
X115218790Y-88247662D01*
X115218790Y-88247662D02*
X115409266Y-88295281D01*
X115409266Y-88295281D02*
X115504504Y-88342900D01*
X115504504Y-88342900D02*
X115599742Y-88438138D01*
X115599742Y-88438138D02*
X115647361Y-88580995D01*
X115647361Y-88580995D02*
X115647361Y-88676233D01*
X115647361Y-88676233D02*
X115599742Y-88819090D01*
X115599742Y-88819090D02*
X115552123Y-88866709D01*
X114647361Y-89438138D02*
X114694981Y-89342900D01*
X114694981Y-89342900D02*
X114742600Y-89295281D01*
X114742600Y-89295281D02*
X114837838Y-89247662D01*
X114837838Y-89247662D02*
X115123552Y-89247662D01*
X115123552Y-89247662D02*
X115218790Y-89295281D01*
X115218790Y-89295281D02*
X115266409Y-89342900D01*
X115266409Y-89342900D02*
X115314028Y-89438138D01*
X115314028Y-89438138D02*
X115314028Y-89580995D01*
X115314028Y-89580995D02*
X115266409Y-89676233D01*
X115266409Y-89676233D02*
X115218790Y-89723852D01*
X115218790Y-89723852D02*
X115123552Y-89771471D01*
X115123552Y-89771471D02*
X114837838Y-89771471D01*
X114837838Y-89771471D02*
X114742600Y-89723852D01*
X114742600Y-89723852D02*
X114694981Y-89676233D01*
X114694981Y-89676233D02*
X114647361Y-89580995D01*
X114647361Y-89580995D02*
X114647361Y-89438138D01*
X114647361Y-90628614D02*
X115171171Y-90628614D01*
X115171171Y-90628614D02*
X115266409Y-90580995D01*
X115266409Y-90580995D02*
X115314028Y-90485757D01*
X115314028Y-90485757D02*
X115314028Y-90295281D01*
X115314028Y-90295281D02*
X115266409Y-90200043D01*
X114694981Y-90628614D02*
X114647361Y-90533376D01*
X114647361Y-90533376D02*
X114647361Y-90295281D01*
X114647361Y-90295281D02*
X114694981Y-90200043D01*
X114694981Y-90200043D02*
X114790219Y-90152424D01*
X114790219Y-90152424D02*
X114885457Y-90152424D01*
X114885457Y-90152424D02*
X114980695Y-90200043D01*
X114980695Y-90200043D02*
X115028314Y-90295281D01*
X115028314Y-90295281D02*
X115028314Y-90533376D01*
X115028314Y-90533376D02*
X115075933Y-90628614D01*
X115314028Y-90961948D02*
X115314028Y-91342900D01*
X115647361Y-91104805D02*
X114790219Y-91104805D01*
X114790219Y-91104805D02*
X114694981Y-91152424D01*
X114694981Y-91152424D02*
X114647361Y-91247662D01*
X114647361Y-91247662D02*
X114647361Y-91342900D01*
X114694981Y-92057186D02*
X114647361Y-91961948D01*
X114647361Y-91961948D02*
X114647361Y-91771472D01*
X114647361Y-91771472D02*
X114694981Y-91676234D01*
X114694981Y-91676234D02*
X114790219Y-91628615D01*
X114790219Y-91628615D02*
X115171171Y-91628615D01*
X115171171Y-91628615D02*
X115266409Y-91676234D01*
X115266409Y-91676234D02*
X115314028Y-91771472D01*
X115314028Y-91771472D02*
X115314028Y-91961948D01*
X115314028Y-91961948D02*
X115266409Y-92057186D01*
X115266409Y-92057186D02*
X115171171Y-92104805D01*
X115171171Y-92104805D02*
X115075933Y-92104805D01*
X115075933Y-92104805D02*
X114980695Y-91628615D01*
X114647361Y-92533377D02*
X115314028Y-92533377D01*
X115123552Y-92533377D02*
X115218790Y-92580996D01*
X115218790Y-92580996D02*
X115266409Y-92628615D01*
X115266409Y-92628615D02*
X115314028Y-92723853D01*
X115314028Y-92723853D02*
X115314028Y-92819091D01*
X114742600Y-94485758D02*
X114694981Y-94438139D01*
X114694981Y-94438139D02*
X114647361Y-94295282D01*
X114647361Y-94295282D02*
X114647361Y-94200044D01*
X114647361Y-94200044D02*
X114694981Y-94057187D01*
X114694981Y-94057187D02*
X114790219Y-93961949D01*
X114790219Y-93961949D02*
X114885457Y-93914330D01*
X114885457Y-93914330D02*
X115075933Y-93866711D01*
X115075933Y-93866711D02*
X115218790Y-93866711D01*
X115218790Y-93866711D02*
X115409266Y-93914330D01*
X115409266Y-93914330D02*
X115504504Y-93961949D01*
X115504504Y-93961949D02*
X115599742Y-94057187D01*
X115599742Y-94057187D02*
X115647361Y-94200044D01*
X115647361Y-94200044D02*
X115647361Y-94295282D01*
X115647361Y-94295282D02*
X115599742Y-94438139D01*
X115599742Y-94438139D02*
X115552123Y-94485758D01*
X114647361Y-95057187D02*
X114694981Y-94961949D01*
X114694981Y-94961949D02*
X114742600Y-94914330D01*
X114742600Y-94914330D02*
X114837838Y-94866711D01*
X114837838Y-94866711D02*
X115123552Y-94866711D01*
X115123552Y-94866711D02*
X115218790Y-94914330D01*
X115218790Y-94914330D02*
X115266409Y-94961949D01*
X115266409Y-94961949D02*
X115314028Y-95057187D01*
X115314028Y-95057187D02*
X115314028Y-95200044D01*
X115314028Y-95200044D02*
X115266409Y-95295282D01*
X115266409Y-95295282D02*
X115218790Y-95342901D01*
X115218790Y-95342901D02*
X115123552Y-95390520D01*
X115123552Y-95390520D02*
X114837838Y-95390520D01*
X114837838Y-95390520D02*
X114742600Y-95342901D01*
X114742600Y-95342901D02*
X114694981Y-95295282D01*
X114694981Y-95295282D02*
X114647361Y-95200044D01*
X114647361Y-95200044D02*
X114647361Y-95057187D01*
X115314028Y-95819092D02*
X114647361Y-95819092D01*
X115218790Y-95819092D02*
X115266409Y-95866711D01*
X115266409Y-95866711D02*
X115314028Y-95961949D01*
X115314028Y-95961949D02*
X115314028Y-96104806D01*
X115314028Y-96104806D02*
X115266409Y-96200044D01*
X115266409Y-96200044D02*
X115171171Y-96247663D01*
X115171171Y-96247663D02*
X114647361Y-96247663D01*
X115314028Y-96580997D02*
X115314028Y-96961949D01*
X115647361Y-96723854D02*
X114790219Y-96723854D01*
X114790219Y-96723854D02*
X114694981Y-96771473D01*
X114694981Y-96771473D02*
X114647361Y-96866711D01*
X114647361Y-96866711D02*
X114647361Y-96961949D01*
X114647361Y-97295283D02*
X115314028Y-97295283D01*
X115123552Y-97295283D02*
X115218790Y-97342902D01*
X115218790Y-97342902D02*
X115266409Y-97390521D01*
X115266409Y-97390521D02*
X115314028Y-97485759D01*
X115314028Y-97485759D02*
X115314028Y-97580997D01*
X114647361Y-98057188D02*
X114694981Y-97961950D01*
X114694981Y-97961950D02*
X114742600Y-97914331D01*
X114742600Y-97914331D02*
X114837838Y-97866712D01*
X114837838Y-97866712D02*
X115123552Y-97866712D01*
X115123552Y-97866712D02*
X115218790Y-97914331D01*
X115218790Y-97914331D02*
X115266409Y-97961950D01*
X115266409Y-97961950D02*
X115314028Y-98057188D01*
X115314028Y-98057188D02*
X115314028Y-98200045D01*
X115314028Y-98200045D02*
X115266409Y-98295283D01*
X115266409Y-98295283D02*
X115218790Y-98342902D01*
X115218790Y-98342902D02*
X115123552Y-98390521D01*
X115123552Y-98390521D02*
X114837838Y-98390521D01*
X114837838Y-98390521D02*
X114742600Y-98342902D01*
X114742600Y-98342902D02*
X114694981Y-98295283D01*
X114694981Y-98295283D02*
X114647361Y-98200045D01*
X114647361Y-98200045D02*
X114647361Y-98057188D01*
X114647361Y-98961950D02*
X114694981Y-98866712D01*
X114694981Y-98866712D02*
X114790219Y-98819093D01*
X114790219Y-98819093D02*
X115647361Y-98819093D01*
X114647361Y-99485760D02*
X114694981Y-99390522D01*
X114694981Y-99390522D02*
X114790219Y-99342903D01*
X114790219Y-99342903D02*
X115647361Y-99342903D01*
X114694981Y-100247665D02*
X114647361Y-100152427D01*
X114647361Y-100152427D02*
X114647361Y-99961951D01*
X114647361Y-99961951D02*
X114694981Y-99866713D01*
X114694981Y-99866713D02*
X114790219Y-99819094D01*
X114790219Y-99819094D02*
X115171171Y-99819094D01*
X115171171Y-99819094D02*
X115266409Y-99866713D01*
X115266409Y-99866713D02*
X115314028Y-99961951D01*
X115314028Y-99961951D02*
X115314028Y-100152427D01*
X115314028Y-100152427D02*
X115266409Y-100247665D01*
X115266409Y-100247665D02*
X115171171Y-100295284D01*
X115171171Y-100295284D02*
X115075933Y-100295284D01*
X115075933Y-100295284D02*
X114980695Y-99819094D01*
X114647361Y-100723856D02*
X115314028Y-100723856D01*
X115123552Y-100723856D02*
X115218790Y-100771475D01*
X115218790Y-100771475D02*
X115266409Y-100819094D01*
X115266409Y-100819094D02*
X115314028Y-100914332D01*
X115314028Y-100914332D02*
X115314028Y-101009570D01*
X114266409Y-102390523D02*
X114314028Y-102342904D01*
X114314028Y-102342904D02*
X114456885Y-102247666D01*
X114456885Y-102247666D02*
X114552123Y-102200047D01*
X114552123Y-102200047D02*
X114694981Y-102152428D01*
X114694981Y-102152428D02*
X114933076Y-102104809D01*
X114933076Y-102104809D02*
X115123552Y-102104809D01*
X115123552Y-102104809D02*
X115361647Y-102152428D01*
X115361647Y-102152428D02*
X115504504Y-102200047D01*
X115504504Y-102200047D02*
X115599742Y-102247666D01*
X115599742Y-102247666D02*
X115742600Y-102342904D01*
X115742600Y-102342904D02*
X115790219Y-102390523D01*
X115314028Y-102676238D02*
X114647361Y-102914333D01*
X114647361Y-102914333D02*
X115314028Y-103152428D01*
X114647361Y-104057190D02*
X114647361Y-103485762D01*
X114647361Y-103771476D02*
X115647361Y-103771476D01*
X115647361Y-103771476D02*
X115504504Y-103676238D01*
X115504504Y-103676238D02*
X115409266Y-103581000D01*
X115409266Y-103581000D02*
X115361647Y-103485762D01*
X114742600Y-104485762D02*
X114694981Y-104533381D01*
X114694981Y-104533381D02*
X114647361Y-104485762D01*
X114647361Y-104485762D02*
X114694981Y-104438143D01*
X114694981Y-104438143D02*
X114742600Y-104485762D01*
X114742600Y-104485762D02*
X114647361Y-104485762D01*
X114647361Y-105485761D02*
X114647361Y-104914333D01*
X114647361Y-105200047D02*
X115647361Y-105200047D01*
X115647361Y-105200047D02*
X115504504Y-105104809D01*
X115504504Y-105104809D02*
X115409266Y-105009571D01*
X115409266Y-105009571D02*
X115361647Y-104914333D01*
X114266409Y-105819095D02*
X114314028Y-105866714D01*
X114314028Y-105866714D02*
X114456885Y-105961952D01*
X114456885Y-105961952D02*
X114552123Y-106009571D01*
X114552123Y-106009571D02*
X114694981Y-106057190D01*
X114694981Y-106057190D02*
X114933076Y-106104809D01*
X114933076Y-106104809D02*
X115123552Y-106104809D01*
X115123552Y-106104809D02*
X115361647Y-106057190D01*
X115361647Y-106057190D02*
X115504504Y-106009571D01*
X115504504Y-106009571D02*
X115599742Y-105961952D01*
X115599742Y-105961952D02*
X115742600Y-105866714D01*
X115742600Y-105866714D02*
X115790219Y-105819095D01*
X113037417Y-84295281D02*
X114037417Y-84295281D01*
X113704084Y-84771471D02*
X113037417Y-84771471D01*
X113608846Y-84771471D02*
X113656465Y-84819090D01*
X113656465Y-84819090D02*
X113704084Y-84914328D01*
X113704084Y-84914328D02*
X113704084Y-85057185D01*
X113704084Y-85057185D02*
X113656465Y-85152423D01*
X113656465Y-85152423D02*
X113561227Y-85200042D01*
X113561227Y-85200042D02*
X113037417Y-85200042D01*
X113037417Y-86104804D02*
X114037417Y-86104804D01*
X113085037Y-86104804D02*
X113037417Y-86009566D01*
X113037417Y-86009566D02*
X113037417Y-85819090D01*
X113037417Y-85819090D02*
X113085037Y-85723852D01*
X113085037Y-85723852D02*
X113132656Y-85676233D01*
X113132656Y-85676233D02*
X113227894Y-85628614D01*
X113227894Y-85628614D02*
X113513608Y-85628614D01*
X113513608Y-85628614D02*
X113608846Y-85676233D01*
X113608846Y-85676233D02*
X113656465Y-85723852D01*
X113656465Y-85723852D02*
X113704084Y-85819090D01*
X113704084Y-85819090D02*
X113704084Y-86009566D01*
X113704084Y-86009566D02*
X113656465Y-86104804D01*
X113037417Y-86580995D02*
X113704084Y-86580995D01*
X113513608Y-86580995D02*
X113608846Y-86628614D01*
X113608846Y-86628614D02*
X113656465Y-86676233D01*
X113656465Y-86676233D02*
X113704084Y-86771471D01*
X113704084Y-86771471D02*
X113704084Y-86866709D01*
X113037417Y-87200043D02*
X113704084Y-87200043D01*
X114037417Y-87200043D02*
X113989798Y-87152424D01*
X113989798Y-87152424D02*
X113942179Y-87200043D01*
X113942179Y-87200043D02*
X113989798Y-87247662D01*
X113989798Y-87247662D02*
X114037417Y-87200043D01*
X114037417Y-87200043D02*
X113942179Y-87200043D01*
X113704084Y-87580995D02*
X113037417Y-87819090D01*
X113704084Y-88057185D02*
X113037417Y-87819090D01*
X113037417Y-87819090D02*
X112799322Y-87723852D01*
X112799322Y-87723852D02*
X112751703Y-87676233D01*
X112751703Y-87676233D02*
X112704084Y-87580995D01*
X113037417Y-88866709D02*
X113561227Y-88866709D01*
X113561227Y-88866709D02*
X113656465Y-88819090D01*
X113656465Y-88819090D02*
X113704084Y-88723852D01*
X113704084Y-88723852D02*
X113704084Y-88533376D01*
X113704084Y-88533376D02*
X113656465Y-88438138D01*
X113085037Y-88866709D02*
X113037417Y-88771471D01*
X113037417Y-88771471D02*
X113037417Y-88533376D01*
X113037417Y-88533376D02*
X113085037Y-88438138D01*
X113085037Y-88438138D02*
X113180275Y-88390519D01*
X113180275Y-88390519D02*
X113275513Y-88390519D01*
X113275513Y-88390519D02*
X113370751Y-88438138D01*
X113370751Y-88438138D02*
X113418370Y-88533376D01*
X113418370Y-88533376D02*
X113418370Y-88771471D01*
X113418370Y-88771471D02*
X113465989Y-88866709D01*
X113085037Y-90057186D02*
X113037417Y-90200043D01*
X113037417Y-90200043D02*
X113037417Y-90438138D01*
X113037417Y-90438138D02*
X113085037Y-90533376D01*
X113085037Y-90533376D02*
X113132656Y-90580995D01*
X113132656Y-90580995D02*
X113227894Y-90628614D01*
X113227894Y-90628614D02*
X113323132Y-90628614D01*
X113323132Y-90628614D02*
X113418370Y-90580995D01*
X113418370Y-90580995D02*
X113465989Y-90533376D01*
X113465989Y-90533376D02*
X113513608Y-90438138D01*
X113513608Y-90438138D02*
X113561227Y-90247662D01*
X113561227Y-90247662D02*
X113608846Y-90152424D01*
X113608846Y-90152424D02*
X113656465Y-90104805D01*
X113656465Y-90104805D02*
X113751703Y-90057186D01*
X113751703Y-90057186D02*
X113846941Y-90057186D01*
X113846941Y-90057186D02*
X113942179Y-90104805D01*
X113942179Y-90104805D02*
X113989798Y-90152424D01*
X113989798Y-90152424D02*
X114037417Y-90247662D01*
X114037417Y-90247662D02*
X114037417Y-90485757D01*
X114037417Y-90485757D02*
X113989798Y-90628614D01*
X113085037Y-91438138D02*
X113037417Y-91342900D01*
X113037417Y-91342900D02*
X113037417Y-91152424D01*
X113037417Y-91152424D02*
X113085037Y-91057186D01*
X113085037Y-91057186D02*
X113180275Y-91009567D01*
X113180275Y-91009567D02*
X113561227Y-91009567D01*
X113561227Y-91009567D02*
X113656465Y-91057186D01*
X113656465Y-91057186D02*
X113704084Y-91152424D01*
X113704084Y-91152424D02*
X113704084Y-91342900D01*
X113704084Y-91342900D02*
X113656465Y-91438138D01*
X113656465Y-91438138D02*
X113561227Y-91485757D01*
X113561227Y-91485757D02*
X113465989Y-91485757D01*
X113465989Y-91485757D02*
X113370751Y-91009567D01*
X113704084Y-91914329D02*
X113037417Y-91914329D01*
X113608846Y-91914329D02*
X113656465Y-91961948D01*
X113656465Y-91961948D02*
X113704084Y-92057186D01*
X113704084Y-92057186D02*
X113704084Y-92200043D01*
X113704084Y-92200043D02*
X113656465Y-92295281D01*
X113656465Y-92295281D02*
X113561227Y-92342900D01*
X113561227Y-92342900D02*
X113037417Y-92342900D01*
X113085037Y-92771472D02*
X113037417Y-92866710D01*
X113037417Y-92866710D02*
X113037417Y-93057186D01*
X113037417Y-93057186D02*
X113085037Y-93152424D01*
X113085037Y-93152424D02*
X113180275Y-93200043D01*
X113180275Y-93200043D02*
X113227894Y-93200043D01*
X113227894Y-93200043D02*
X113323132Y-93152424D01*
X113323132Y-93152424D02*
X113370751Y-93057186D01*
X113370751Y-93057186D02*
X113370751Y-92914329D01*
X113370751Y-92914329D02*
X113418370Y-92819091D01*
X113418370Y-92819091D02*
X113513608Y-92771472D01*
X113513608Y-92771472D02*
X113561227Y-92771472D01*
X113561227Y-92771472D02*
X113656465Y-92819091D01*
X113656465Y-92819091D02*
X113704084Y-92914329D01*
X113704084Y-92914329D02*
X113704084Y-93057186D01*
X113704084Y-93057186D02*
X113656465Y-93152424D01*
X113037417Y-93771472D02*
X113085037Y-93676234D01*
X113085037Y-93676234D02*
X113132656Y-93628615D01*
X113132656Y-93628615D02*
X113227894Y-93580996D01*
X113227894Y-93580996D02*
X113513608Y-93580996D01*
X113513608Y-93580996D02*
X113608846Y-93628615D01*
X113608846Y-93628615D02*
X113656465Y-93676234D01*
X113656465Y-93676234D02*
X113704084Y-93771472D01*
X113704084Y-93771472D02*
X113704084Y-93914329D01*
X113704084Y-93914329D02*
X113656465Y-94009567D01*
X113656465Y-94009567D02*
X113608846Y-94057186D01*
X113608846Y-94057186D02*
X113513608Y-94104805D01*
X113513608Y-94104805D02*
X113227894Y-94104805D01*
X113227894Y-94104805D02*
X113132656Y-94057186D01*
X113132656Y-94057186D02*
X113085037Y-94009567D01*
X113085037Y-94009567D02*
X113037417Y-93914329D01*
X113037417Y-93914329D02*
X113037417Y-93771472D01*
X113704084Y-94390520D02*
X113704084Y-94771472D01*
X114037417Y-94533377D02*
X113180275Y-94533377D01*
X113180275Y-94533377D02*
X113085037Y-94580996D01*
X113085037Y-94580996D02*
X113037417Y-94676234D01*
X113037417Y-94676234D02*
X113037417Y-94771472D01*
X113085037Y-95485758D02*
X113037417Y-95390520D01*
X113037417Y-95390520D02*
X113037417Y-95200044D01*
X113037417Y-95200044D02*
X113085037Y-95104806D01*
X113085037Y-95104806D02*
X113180275Y-95057187D01*
X113180275Y-95057187D02*
X113561227Y-95057187D01*
X113561227Y-95057187D02*
X113656465Y-95104806D01*
X113656465Y-95104806D02*
X113704084Y-95200044D01*
X113704084Y-95200044D02*
X113704084Y-95390520D01*
X113704084Y-95390520D02*
X113656465Y-95485758D01*
X113656465Y-95485758D02*
X113561227Y-95533377D01*
X113561227Y-95533377D02*
X113465989Y-95533377D01*
X113465989Y-95533377D02*
X113370751Y-95057187D01*
X113085037Y-96390520D02*
X113037417Y-96295282D01*
X113037417Y-96295282D02*
X113037417Y-96104806D01*
X113037417Y-96104806D02*
X113085037Y-96009568D01*
X113085037Y-96009568D02*
X113132656Y-95961949D01*
X113132656Y-95961949D02*
X113227894Y-95914330D01*
X113227894Y-95914330D02*
X113513608Y-95914330D01*
X113513608Y-95914330D02*
X113608846Y-95961949D01*
X113608846Y-95961949D02*
X113656465Y-96009568D01*
X113656465Y-96009568D02*
X113704084Y-96104806D01*
X113704084Y-96104806D02*
X113704084Y-96295282D01*
X113704084Y-96295282D02*
X113656465Y-96390520D01*
X113037417Y-96819092D02*
X114037417Y-96819092D01*
X113037417Y-97247663D02*
X113561227Y-97247663D01*
X113561227Y-97247663D02*
X113656465Y-97200044D01*
X113656465Y-97200044D02*
X113704084Y-97104806D01*
X113704084Y-97104806D02*
X113704084Y-96961949D01*
X113704084Y-96961949D02*
X113656465Y-96866711D01*
X113656465Y-96866711D02*
X113608846Y-96819092D01*
X113037417Y-98485759D02*
X114037417Y-98485759D01*
X114037417Y-98485759D02*
X114037417Y-98866711D01*
X114037417Y-98866711D02*
X113989798Y-98961949D01*
X113989798Y-98961949D02*
X113942179Y-99009568D01*
X113942179Y-99009568D02*
X113846941Y-99057187D01*
X113846941Y-99057187D02*
X113704084Y-99057187D01*
X113704084Y-99057187D02*
X113608846Y-99009568D01*
X113608846Y-99009568D02*
X113561227Y-98961949D01*
X113561227Y-98961949D02*
X113513608Y-98866711D01*
X113513608Y-98866711D02*
X113513608Y-98485759D01*
X113037417Y-99485759D02*
X113704084Y-99485759D01*
X113513608Y-99485759D02*
X113608846Y-99533378D01*
X113608846Y-99533378D02*
X113656465Y-99580997D01*
X113656465Y-99580997D02*
X113704084Y-99676235D01*
X113704084Y-99676235D02*
X113704084Y-99771473D01*
X113037417Y-100104807D02*
X113704084Y-100104807D01*
X114037417Y-100104807D02*
X113989798Y-100057188D01*
X113989798Y-100057188D02*
X113942179Y-100104807D01*
X113942179Y-100104807D02*
X113989798Y-100152426D01*
X113989798Y-100152426D02*
X114037417Y-100104807D01*
X114037417Y-100104807D02*
X113942179Y-100104807D01*
X113704084Y-100485759D02*
X113037417Y-100723854D01*
X113037417Y-100723854D02*
X113704084Y-100961949D01*
X113037417Y-101771473D02*
X113561227Y-101771473D01*
X113561227Y-101771473D02*
X113656465Y-101723854D01*
X113656465Y-101723854D02*
X113704084Y-101628616D01*
X113704084Y-101628616D02*
X113704084Y-101438140D01*
X113704084Y-101438140D02*
X113656465Y-101342902D01*
X113085037Y-101771473D02*
X113037417Y-101676235D01*
X113037417Y-101676235D02*
X113037417Y-101438140D01*
X113037417Y-101438140D02*
X113085037Y-101342902D01*
X113085037Y-101342902D02*
X113180275Y-101295283D01*
X113180275Y-101295283D02*
X113275513Y-101295283D01*
X113275513Y-101295283D02*
X113370751Y-101342902D01*
X113370751Y-101342902D02*
X113418370Y-101438140D01*
X113418370Y-101438140D02*
X113418370Y-101676235D01*
X113418370Y-101676235D02*
X113465989Y-101771473D01*
X113704084Y-102104807D02*
X113704084Y-102485759D01*
X114037417Y-102247664D02*
X113180275Y-102247664D01*
X113180275Y-102247664D02*
X113085037Y-102295283D01*
X113085037Y-102295283D02*
X113037417Y-102390521D01*
X113037417Y-102390521D02*
X113037417Y-102485759D01*
X113085037Y-103200045D02*
X113037417Y-103104807D01*
X113037417Y-103104807D02*
X113037417Y-102914331D01*
X113037417Y-102914331D02*
X113085037Y-102819093D01*
X113085037Y-102819093D02*
X113180275Y-102771474D01*
X113180275Y-102771474D02*
X113561227Y-102771474D01*
X113561227Y-102771474D02*
X113656465Y-102819093D01*
X113656465Y-102819093D02*
X113704084Y-102914331D01*
X113704084Y-102914331D02*
X113704084Y-103104807D01*
X113704084Y-103104807D02*
X113656465Y-103200045D01*
X113656465Y-103200045D02*
X113561227Y-103247664D01*
X113561227Y-103247664D02*
X113465989Y-103247664D01*
X113465989Y-103247664D02*
X113370751Y-102771474D01*
X113037417Y-104914331D02*
X113037417Y-104438141D01*
X113037417Y-104438141D02*
X114037417Y-104438141D01*
X113037417Y-105247665D02*
X113704084Y-105247665D01*
X114037417Y-105247665D02*
X113989798Y-105200046D01*
X113989798Y-105200046D02*
X113942179Y-105247665D01*
X113942179Y-105247665D02*
X113989798Y-105295284D01*
X113989798Y-105295284D02*
X114037417Y-105247665D01*
X114037417Y-105247665D02*
X113942179Y-105247665D01*
X113037417Y-105723855D02*
X113704084Y-105723855D01*
X113608846Y-105723855D02*
X113656465Y-105771474D01*
X113656465Y-105771474D02*
X113704084Y-105866712D01*
X113704084Y-105866712D02*
X113704084Y-106009569D01*
X113704084Y-106009569D02*
X113656465Y-106104807D01*
X113656465Y-106104807D02*
X113561227Y-106152426D01*
X113561227Y-106152426D02*
X113037417Y-106152426D01*
X113561227Y-106152426D02*
X113656465Y-106200045D01*
X113656465Y-106200045D02*
X113704084Y-106295283D01*
X113704084Y-106295283D02*
X113704084Y-106438140D01*
X113704084Y-106438140D02*
X113656465Y-106533379D01*
X113656465Y-106533379D02*
X113561227Y-106580998D01*
X113561227Y-106580998D02*
X113037417Y-106580998D01*
X113037417Y-107057188D02*
X113704084Y-107057188D01*
X114037417Y-107057188D02*
X113989798Y-107009569D01*
X113989798Y-107009569D02*
X113942179Y-107057188D01*
X113942179Y-107057188D02*
X113989798Y-107104807D01*
X113989798Y-107104807D02*
X114037417Y-107057188D01*
X114037417Y-107057188D02*
X113942179Y-107057188D01*
X113704084Y-107390521D02*
X113704084Y-107771473D01*
X114037417Y-107533378D02*
X113180275Y-107533378D01*
X113180275Y-107533378D02*
X113085037Y-107580997D01*
X113085037Y-107580997D02*
X113037417Y-107676235D01*
X113037417Y-107676235D02*
X113037417Y-107771473D01*
X113085037Y-108485759D02*
X113037417Y-108390521D01*
X113037417Y-108390521D02*
X113037417Y-108200045D01*
X113037417Y-108200045D02*
X113085037Y-108104807D01*
X113085037Y-108104807D02*
X113180275Y-108057188D01*
X113180275Y-108057188D02*
X113561227Y-108057188D01*
X113561227Y-108057188D02*
X113656465Y-108104807D01*
X113656465Y-108104807D02*
X113704084Y-108200045D01*
X113704084Y-108200045D02*
X113704084Y-108390521D01*
X113704084Y-108390521D02*
X113656465Y-108485759D01*
X113656465Y-108485759D02*
X113561227Y-108533378D01*
X113561227Y-108533378D02*
X113465989Y-108533378D01*
X113465989Y-108533378D02*
X113370751Y-108057188D01*
X113037417Y-109390521D02*
X114037417Y-109390521D01*
X113085037Y-109390521D02*
X113037417Y-109295283D01*
X113037417Y-109295283D02*
X113037417Y-109104807D01*
X113037417Y-109104807D02*
X113085037Y-109009569D01*
X113085037Y-109009569D02*
X113132656Y-108961950D01*
X113132656Y-108961950D02*
X113227894Y-108914331D01*
X113227894Y-108914331D02*
X113513608Y-108914331D01*
X113513608Y-108914331D02*
X113608846Y-108961950D01*
X113608846Y-108961950D02*
X113656465Y-109009569D01*
X113656465Y-109009569D02*
X113704084Y-109104807D01*
X113704084Y-109104807D02*
X113704084Y-109295283D01*
X113704084Y-109295283D02*
X113656465Y-109390521D01*
X117579961Y-116327693D02*
X117627580Y-116232455D01*
X117627580Y-116232455D02*
X117627580Y-116089598D01*
X117627580Y-116089598D02*
X117579961Y-115946741D01*
X117579961Y-115946741D02*
X117484723Y-115851503D01*
X117484723Y-115851503D02*
X117389485Y-115803884D01*
X117389485Y-115803884D02*
X117199009Y-115756265D01*
X117199009Y-115756265D02*
X117056152Y-115756265D01*
X117056152Y-115756265D02*
X116865676Y-115803884D01*
X116865676Y-115803884D02*
X116770438Y-115851503D01*
X116770438Y-115851503D02*
X116675200Y-115946741D01*
X116675200Y-115946741D02*
X116627580Y-116089598D01*
X116627580Y-116089598D02*
X116627580Y-116184836D01*
X116627580Y-116184836D02*
X116675200Y-116327693D01*
X116675200Y-116327693D02*
X116722819Y-116375312D01*
X116722819Y-116375312D02*
X117056152Y-116375312D01*
X117056152Y-116375312D02*
X117056152Y-116184836D01*
X116627580Y-116803884D02*
X117627580Y-116803884D01*
X117627580Y-116803884D02*
X116627580Y-117375312D01*
X116627580Y-117375312D02*
X117627580Y-117375312D01*
X116627580Y-117851503D02*
X117627580Y-117851503D01*
X117627580Y-117851503D02*
X117627580Y-118089598D01*
X117627580Y-118089598D02*
X117579961Y-118232455D01*
X117579961Y-118232455D02*
X117484723Y-118327693D01*
X117484723Y-118327693D02*
X117389485Y-118375312D01*
X117389485Y-118375312D02*
X117199009Y-118422931D01*
X117199009Y-118422931D02*
X117056152Y-118422931D01*
X117056152Y-118422931D02*
X116865676Y-118375312D01*
X116865676Y-118375312D02*
X116770438Y-118327693D01*
X116770438Y-118327693D02*
X116675200Y-118232455D01*
X116675200Y-118232455D02*
X116627580Y-118089598D01*
X116627580Y-118089598D02*
X116627580Y-117851503D01*
X117627580Y-120089598D02*
X117627580Y-119613408D01*
X117627580Y-119613408D02*
X117151390Y-119565789D01*
X117151390Y-119565789D02*
X117199009Y-119613408D01*
X117199009Y-119613408D02*
X117246628Y-119708646D01*
X117246628Y-119708646D02*
X117246628Y-119946741D01*
X117246628Y-119946741D02*
X117199009Y-120041979D01*
X117199009Y-120041979D02*
X117151390Y-120089598D01*
X117151390Y-120089598D02*
X117056152Y-120137217D01*
X117056152Y-120137217D02*
X116818057Y-120137217D01*
X116818057Y-120137217D02*
X116722819Y-120089598D01*
X116722819Y-120089598D02*
X116675200Y-120041979D01*
X116675200Y-120041979D02*
X116627580Y-119946741D01*
X116627580Y-119946741D02*
X116627580Y-119708646D01*
X116627580Y-119708646D02*
X116675200Y-119613408D01*
X116675200Y-119613408D02*
X116722819Y-119565789D01*
X117627580Y-120422932D02*
X116627580Y-120756265D01*
X116627580Y-120756265D02*
X117627580Y-121089598D01*
D11*
X169390219Y-98563433D02*
X170104504Y-98563433D01*
X170104504Y-98563433D02*
X170247361Y-98611052D01*
X170247361Y-98611052D02*
X170342600Y-98706290D01*
X170342600Y-98706290D02*
X170390219Y-98849147D01*
X170390219Y-98849147D02*
X170390219Y-98944385D01*
X169390219Y-98182480D02*
X169390219Y-97563433D01*
X169390219Y-97563433D02*
X169771171Y-97896766D01*
X169771171Y-97896766D02*
X169771171Y-97753909D01*
X169771171Y-97753909D02*
X169818790Y-97658671D01*
X169818790Y-97658671D02*
X169866409Y-97611052D01*
X169866409Y-97611052D02*
X169961647Y-97563433D01*
X169961647Y-97563433D02*
X170199742Y-97563433D01*
X170199742Y-97563433D02*
X170294980Y-97611052D01*
X170294980Y-97611052D02*
X170342600Y-97658671D01*
X170342600Y-97658671D02*
X170390219Y-97753909D01*
X170390219Y-97753909D02*
X170390219Y-98039623D01*
X170390219Y-98039623D02*
X170342600Y-98134861D01*
X170342600Y-98134861D02*
X170294980Y-98182480D01*
X168887419Y-91937166D02*
X168411228Y-92270499D01*
X168887419Y-92508594D02*
X167887419Y-92508594D01*
X167887419Y-92508594D02*
X167887419Y-92127642D01*
X167887419Y-92127642D02*
X167935038Y-92032404D01*
X167935038Y-92032404D02*
X167982657Y-91984785D01*
X167982657Y-91984785D02*
X168077895Y-91937166D01*
X168077895Y-91937166D02*
X168220752Y-91937166D01*
X168220752Y-91937166D02*
X168315990Y-91984785D01*
X168315990Y-91984785D02*
X168363609Y-92032404D01*
X168363609Y-92032404D02*
X168411228Y-92127642D01*
X168411228Y-92127642D02*
X168411228Y-92508594D01*
X167887419Y-91603832D02*
X167887419Y-90984785D01*
X167887419Y-90984785D02*
X168268371Y-91318118D01*
X168268371Y-91318118D02*
X168268371Y-91175261D01*
X168268371Y-91175261D02*
X168315990Y-91080023D01*
X168315990Y-91080023D02*
X168363609Y-91032404D01*
X168363609Y-91032404D02*
X168458847Y-90984785D01*
X168458847Y-90984785D02*
X168696942Y-90984785D01*
X168696942Y-90984785D02*
X168792180Y-91032404D01*
X168792180Y-91032404D02*
X168839800Y-91080023D01*
X168839800Y-91080023D02*
X168887419Y-91175261D01*
X168887419Y-91175261D02*
X168887419Y-91460975D01*
X168887419Y-91460975D02*
X168839800Y-91556213D01*
X168839800Y-91556213D02*
X168792180Y-91603832D01*
X120104819Y-80761904D02*
X119104819Y-80761904D01*
X119581009Y-80761904D02*
X119581009Y-80190476D01*
X120104819Y-80190476D02*
X119104819Y-80190476D01*
X120104819Y-79190476D02*
X120104819Y-79761904D01*
X120104819Y-79476190D02*
X119104819Y-79476190D01*
X119104819Y-79476190D02*
X119247676Y-79571428D01*
X119247676Y-79571428D02*
X119342914Y-79666666D01*
X119342914Y-79666666D02*
X119390533Y-79761904D01*
D10*
X166261904Y-127542580D02*
X166261904Y-126733057D01*
X166261904Y-126733057D02*
X166214285Y-126637819D01*
X166214285Y-126637819D02*
X166166666Y-126590200D01*
X166166666Y-126590200D02*
X166071428Y-126542580D01*
X166071428Y-126542580D02*
X165880952Y-126542580D01*
X165880952Y-126542580D02*
X165785714Y-126590200D01*
X165785714Y-126590200D02*
X165738095Y-126637819D01*
X165738095Y-126637819D02*
X165690476Y-126733057D01*
X165690476Y-126733057D02*
X165690476Y-127542580D01*
X165261904Y-127447342D02*
X165214285Y-127494961D01*
X165214285Y-127494961D02*
X165119047Y-127542580D01*
X165119047Y-127542580D02*
X164880952Y-127542580D01*
X164880952Y-127542580D02*
X164785714Y-127494961D01*
X164785714Y-127494961D02*
X164738095Y-127447342D01*
X164738095Y-127447342D02*
X164690476Y-127352104D01*
X164690476Y-127352104D02*
X164690476Y-127256866D01*
X164690476Y-127256866D02*
X164738095Y-127114009D01*
X164738095Y-127114009D02*
X165309523Y-126542580D01*
X165309523Y-126542580D02*
X164690476Y-126542580D01*
D11*
X149264819Y-78833333D02*
X149979104Y-78833333D01*
X149979104Y-78833333D02*
X150121961Y-78880952D01*
X150121961Y-78880952D02*
X150217200Y-78976190D01*
X150217200Y-78976190D02*
X150264819Y-79119047D01*
X150264819Y-79119047D02*
X150264819Y-79214285D01*
X149598152Y-77928571D02*
X150264819Y-77928571D01*
X149217200Y-78166666D02*
X149931485Y-78404761D01*
X149931485Y-78404761D02*
X149931485Y-77785714D01*
X176887419Y-91937166D02*
X176411228Y-92270499D01*
X176887419Y-92508594D02*
X175887419Y-92508594D01*
X175887419Y-92508594D02*
X175887419Y-92127642D01*
X175887419Y-92127642D02*
X175935038Y-92032404D01*
X175935038Y-92032404D02*
X175982657Y-91984785D01*
X175982657Y-91984785D02*
X176077895Y-91937166D01*
X176077895Y-91937166D02*
X176220752Y-91937166D01*
X176220752Y-91937166D02*
X176315990Y-91984785D01*
X176315990Y-91984785D02*
X176363609Y-92032404D01*
X176363609Y-92032404D02*
X176411228Y-92127642D01*
X176411228Y-92127642D02*
X176411228Y-92508594D01*
X175982657Y-91556213D02*
X175935038Y-91508594D01*
X175935038Y-91508594D02*
X175887419Y-91413356D01*
X175887419Y-91413356D02*
X175887419Y-91175261D01*
X175887419Y-91175261D02*
X175935038Y-91080023D01*
X175935038Y-91080023D02*
X175982657Y-91032404D01*
X175982657Y-91032404D02*
X176077895Y-90984785D01*
X176077895Y-90984785D02*
X176173133Y-90984785D01*
X176173133Y-90984785D02*
X176315990Y-91032404D01*
X176315990Y-91032404D02*
X176887419Y-91603832D01*
X176887419Y-91603832D02*
X176887419Y-90984785D01*
X164231009Y-83380952D02*
X164278628Y-83238095D01*
X164278628Y-83238095D02*
X164326247Y-83190476D01*
X164326247Y-83190476D02*
X164421485Y-83142857D01*
X164421485Y-83142857D02*
X164564342Y-83142857D01*
X164564342Y-83142857D02*
X164659580Y-83190476D01*
X164659580Y-83190476D02*
X164707200Y-83238095D01*
X164707200Y-83238095D02*
X164754819Y-83333333D01*
X164754819Y-83333333D02*
X164754819Y-83714285D01*
X164754819Y-83714285D02*
X163754819Y-83714285D01*
X163754819Y-83714285D02*
X163754819Y-83380952D01*
X163754819Y-83380952D02*
X163802438Y-83285714D01*
X163802438Y-83285714D02*
X163850057Y-83238095D01*
X163850057Y-83238095D02*
X163945295Y-83190476D01*
X163945295Y-83190476D02*
X164040533Y-83190476D01*
X164040533Y-83190476D02*
X164135771Y-83238095D01*
X164135771Y-83238095D02*
X164183390Y-83285714D01*
X164183390Y-83285714D02*
X164231009Y-83380952D01*
X164231009Y-83380952D02*
X164231009Y-83714285D01*
X163754819Y-82809523D02*
X163754819Y-82142857D01*
X163754819Y-82142857D02*
X164754819Y-82809523D01*
X164754819Y-82809523D02*
X164754819Y-82142857D01*
X164754819Y-81238095D02*
X164754819Y-81809523D01*
X164754819Y-81523809D02*
X163754819Y-81523809D01*
X163754819Y-81523809D02*
X163897676Y-81619047D01*
X163897676Y-81619047D02*
X163992914Y-81714285D01*
X163992914Y-81714285D02*
X164040533Y-81809523D01*
X169033866Y-86690951D02*
X169033866Y-85929047D01*
X169414819Y-86309999D02*
X168652914Y-86309999D01*
X171804819Y-125761904D02*
X170804819Y-125761904D01*
X171281009Y-125761904D02*
X171281009Y-125190476D01*
X171804819Y-125190476D02*
X170804819Y-125190476D01*
X170804819Y-124809523D02*
X170804819Y-124190476D01*
X170804819Y-124190476D02*
X171185771Y-124523809D01*
X171185771Y-124523809D02*
X171185771Y-124380952D01*
X171185771Y-124380952D02*
X171233390Y-124285714D01*
X171233390Y-124285714D02*
X171281009Y-124238095D01*
X171281009Y-124238095D02*
X171376247Y-124190476D01*
X171376247Y-124190476D02*
X171614342Y-124190476D01*
X171614342Y-124190476D02*
X171709580Y-124238095D01*
X171709580Y-124238095D02*
X171757200Y-124285714D01*
X171757200Y-124285714D02*
X171804819Y-124380952D01*
X171804819Y-124380952D02*
X171804819Y-124666666D01*
X171804819Y-124666666D02*
X171757200Y-124761904D01*
X171757200Y-124761904D02*
X171709580Y-124809523D01*
X172817419Y-91937166D02*
X172341228Y-92270499D01*
X172817419Y-92508594D02*
X171817419Y-92508594D01*
X171817419Y-92508594D02*
X171817419Y-92127642D01*
X171817419Y-92127642D02*
X171865038Y-92032404D01*
X171865038Y-92032404D02*
X171912657Y-91984785D01*
X171912657Y-91984785D02*
X172007895Y-91937166D01*
X172007895Y-91937166D02*
X172150752Y-91937166D01*
X172150752Y-91937166D02*
X172245990Y-91984785D01*
X172245990Y-91984785D02*
X172293609Y-92032404D01*
X172293609Y-92032404D02*
X172341228Y-92127642D01*
X172341228Y-92127642D02*
X172341228Y-92508594D01*
X172817419Y-90984785D02*
X172817419Y-91556213D01*
X172817419Y-91270499D02*
X171817419Y-91270499D01*
X171817419Y-91270499D02*
X171960276Y-91365737D01*
X171960276Y-91365737D02*
X172055514Y-91460975D01*
X172055514Y-91460975D02*
X172103133Y-91556213D01*
X114461666Y-114369819D02*
X114461666Y-115084104D01*
X114461666Y-115084104D02*
X114414047Y-115226961D01*
X114414047Y-115226961D02*
X114318809Y-115322200D01*
X114318809Y-115322200D02*
X114175952Y-115369819D01*
X114175952Y-115369819D02*
X114080714Y-115369819D01*
X115414047Y-114369819D02*
X114937857Y-114369819D01*
X114937857Y-114369819D02*
X114890238Y-114846009D01*
X114890238Y-114846009D02*
X114937857Y-114798390D01*
X114937857Y-114798390D02*
X115033095Y-114750771D01*
X115033095Y-114750771D02*
X115271190Y-114750771D01*
X115271190Y-114750771D02*
X115366428Y-114798390D01*
X115366428Y-114798390D02*
X115414047Y-114846009D01*
X115414047Y-114846009D02*
X115461666Y-114941247D01*
X115461666Y-114941247D02*
X115461666Y-115179342D01*
X115461666Y-115179342D02*
X115414047Y-115274580D01*
X115414047Y-115274580D02*
X115366428Y-115322200D01*
X115366428Y-115322200D02*
X115271190Y-115369819D01*
X115271190Y-115369819D02*
X115033095Y-115369819D01*
X115033095Y-115369819D02*
X114937857Y-115322200D01*
X114937857Y-115322200D02*
X114890238Y-115274580D01*
X169390219Y-106783833D02*
X170104504Y-106783833D01*
X170104504Y-106783833D02*
X170247361Y-106831452D01*
X170247361Y-106831452D02*
X170342600Y-106926690D01*
X170342600Y-106926690D02*
X170390219Y-107069547D01*
X170390219Y-107069547D02*
X170390219Y-107164785D01*
X169485457Y-106355261D02*
X169437838Y-106307642D01*
X169437838Y-106307642D02*
X169390219Y-106212404D01*
X169390219Y-106212404D02*
X169390219Y-105974309D01*
X169390219Y-105974309D02*
X169437838Y-105879071D01*
X169437838Y-105879071D02*
X169485457Y-105831452D01*
X169485457Y-105831452D02*
X169580695Y-105783833D01*
X169580695Y-105783833D02*
X169675933Y-105783833D01*
X169675933Y-105783833D02*
X169818790Y-105831452D01*
X169818790Y-105831452D02*
X170390219Y-106402880D01*
X170390219Y-106402880D02*
X170390219Y-105783833D01*
X135596740Y-99383108D02*
X134787217Y-99383108D01*
X134787217Y-99383108D02*
X134691979Y-99430727D01*
X134691979Y-99430727D02*
X134644360Y-99478346D01*
X134644360Y-99478346D02*
X134596740Y-99573584D01*
X134596740Y-99573584D02*
X134596740Y-99764060D01*
X134596740Y-99764060D02*
X134644360Y-99859298D01*
X134644360Y-99859298D02*
X134691979Y-99906917D01*
X134691979Y-99906917D02*
X134787217Y-99954536D01*
X134787217Y-99954536D02*
X135596740Y-99954536D01*
X134596740Y-100954536D02*
X134596740Y-100383108D01*
X134596740Y-100668822D02*
X135596740Y-100668822D01*
X135596740Y-100668822D02*
X135453883Y-100573584D01*
X135453883Y-100573584D02*
X135358645Y-100478346D01*
X135358645Y-100478346D02*
X135311026Y-100383108D01*
D10*
X123106793Y-83388809D02*
X123473460Y-83388809D01*
X123630603Y-83912619D02*
X123106793Y-83912619D01*
X123106793Y-83912619D02*
X123106793Y-82912619D01*
X123106793Y-82912619D02*
X123630603Y-82912619D01*
X124102031Y-83912619D02*
X124102031Y-82912619D01*
X124102031Y-82912619D02*
X124730603Y-83912619D01*
X124730603Y-83912619D02*
X124730603Y-82912619D01*
X123682984Y-85460238D02*
X123578222Y-85412619D01*
X123578222Y-85412619D02*
X123421079Y-85412619D01*
X123421079Y-85412619D02*
X123263936Y-85460238D01*
X123263936Y-85460238D02*
X123159174Y-85555476D01*
X123159174Y-85555476D02*
X123106793Y-85650714D01*
X123106793Y-85650714D02*
X123054412Y-85841190D01*
X123054412Y-85841190D02*
X123054412Y-85984047D01*
X123054412Y-85984047D02*
X123106793Y-86174523D01*
X123106793Y-86174523D02*
X123159174Y-86269761D01*
X123159174Y-86269761D02*
X123263936Y-86365000D01*
X123263936Y-86365000D02*
X123421079Y-86412619D01*
X123421079Y-86412619D02*
X123525841Y-86412619D01*
X123525841Y-86412619D02*
X123682984Y-86365000D01*
X123682984Y-86365000D02*
X123735365Y-86317380D01*
X123735365Y-86317380D02*
X123735365Y-85984047D01*
X123735365Y-85984047D02*
X123525841Y-85984047D01*
X124206793Y-86412619D02*
X124206793Y-85412619D01*
X124206793Y-85412619D02*
X124625841Y-85412619D01*
X124625841Y-85412619D02*
X124730603Y-85460238D01*
X124730603Y-85460238D02*
X124782984Y-85507857D01*
X124782984Y-85507857D02*
X124835365Y-85603095D01*
X124835365Y-85603095D02*
X124835365Y-85745952D01*
X124835365Y-85745952D02*
X124782984Y-85841190D01*
X124782984Y-85841190D02*
X124730603Y-85888809D01*
X124730603Y-85888809D02*
X124625841Y-85936428D01*
X124625841Y-85936428D02*
X124206793Y-85936428D01*
X125306793Y-86412619D02*
X125306793Y-85412619D01*
X126040127Y-85412619D02*
X126249651Y-85412619D01*
X126249651Y-85412619D02*
X126354413Y-85460238D01*
X126354413Y-85460238D02*
X126459175Y-85555476D01*
X126459175Y-85555476D02*
X126511556Y-85745952D01*
X126511556Y-85745952D02*
X126511556Y-86079285D01*
X126511556Y-86079285D02*
X126459175Y-86269761D01*
X126459175Y-86269761D02*
X126354413Y-86365000D01*
X126354413Y-86365000D02*
X126249651Y-86412619D01*
X126249651Y-86412619D02*
X126040127Y-86412619D01*
X126040127Y-86412619D02*
X125935365Y-86365000D01*
X125935365Y-86365000D02*
X125830603Y-86269761D01*
X125830603Y-86269761D02*
X125778222Y-86079285D01*
X125778222Y-86079285D02*
X125778222Y-85745952D01*
X125778222Y-85745952D02*
X125830603Y-85555476D01*
X125830603Y-85555476D02*
X125935365Y-85460238D01*
X125935365Y-85460238D02*
X126040127Y-85412619D01*
X126878222Y-85412619D02*
X127559175Y-85412619D01*
X127559175Y-85412619D02*
X127192508Y-85793571D01*
X127192508Y-85793571D02*
X127349651Y-85793571D01*
X127349651Y-85793571D02*
X127454413Y-85841190D01*
X127454413Y-85841190D02*
X127506794Y-85888809D01*
X127506794Y-85888809D02*
X127559175Y-85984047D01*
X127559175Y-85984047D02*
X127559175Y-86222142D01*
X127559175Y-86222142D02*
X127506794Y-86317380D01*
X127506794Y-86317380D02*
X127454413Y-86365000D01*
X127454413Y-86365000D02*
X127349651Y-86412619D01*
X127349651Y-86412619D02*
X127035365Y-86412619D01*
X127035365Y-86412619D02*
X126930603Y-86365000D01*
X126930603Y-86365000D02*
X126878222Y-86317380D01*
X128502032Y-85412619D02*
X128292508Y-85412619D01*
X128292508Y-85412619D02*
X128187746Y-85460238D01*
X128187746Y-85460238D02*
X128135365Y-85507857D01*
X128135365Y-85507857D02*
X128030603Y-85650714D01*
X128030603Y-85650714D02*
X127978222Y-85841190D01*
X127978222Y-85841190D02*
X127978222Y-86222142D01*
X127978222Y-86222142D02*
X128030603Y-86317380D01*
X128030603Y-86317380D02*
X128082984Y-86365000D01*
X128082984Y-86365000D02*
X128187746Y-86412619D01*
X128187746Y-86412619D02*
X128397270Y-86412619D01*
X128397270Y-86412619D02*
X128502032Y-86365000D01*
X128502032Y-86365000D02*
X128554413Y-86317380D01*
X128554413Y-86317380D02*
X128606794Y-86222142D01*
X128606794Y-86222142D02*
X128606794Y-85984047D01*
X128606794Y-85984047D02*
X128554413Y-85888809D01*
X128554413Y-85888809D02*
X128502032Y-85841190D01*
X128502032Y-85841190D02*
X128397270Y-85793571D01*
X128397270Y-85793571D02*
X128187746Y-85793571D01*
X128187746Y-85793571D02*
X128082984Y-85841190D01*
X128082984Y-85841190D02*
X128030603Y-85888809D01*
X128030603Y-85888809D02*
X127978222Y-85984047D01*
X123682984Y-87960238D02*
X123578222Y-87912619D01*
X123578222Y-87912619D02*
X123421079Y-87912619D01*
X123421079Y-87912619D02*
X123263936Y-87960238D01*
X123263936Y-87960238D02*
X123159174Y-88055476D01*
X123159174Y-88055476D02*
X123106793Y-88150714D01*
X123106793Y-88150714D02*
X123054412Y-88341190D01*
X123054412Y-88341190D02*
X123054412Y-88484047D01*
X123054412Y-88484047D02*
X123106793Y-88674523D01*
X123106793Y-88674523D02*
X123159174Y-88769761D01*
X123159174Y-88769761D02*
X123263936Y-88865000D01*
X123263936Y-88865000D02*
X123421079Y-88912619D01*
X123421079Y-88912619D02*
X123525841Y-88912619D01*
X123525841Y-88912619D02*
X123682984Y-88865000D01*
X123682984Y-88865000D02*
X123735365Y-88817380D01*
X123735365Y-88817380D02*
X123735365Y-88484047D01*
X123735365Y-88484047D02*
X123525841Y-88484047D01*
X124206793Y-88912619D02*
X124206793Y-87912619D01*
X124206793Y-87912619D02*
X124625841Y-87912619D01*
X124625841Y-87912619D02*
X124730603Y-87960238D01*
X124730603Y-87960238D02*
X124782984Y-88007857D01*
X124782984Y-88007857D02*
X124835365Y-88103095D01*
X124835365Y-88103095D02*
X124835365Y-88245952D01*
X124835365Y-88245952D02*
X124782984Y-88341190D01*
X124782984Y-88341190D02*
X124730603Y-88388809D01*
X124730603Y-88388809D02*
X124625841Y-88436428D01*
X124625841Y-88436428D02*
X124206793Y-88436428D01*
X125306793Y-88912619D02*
X125306793Y-87912619D01*
X126040127Y-87912619D02*
X126249651Y-87912619D01*
X126249651Y-87912619D02*
X126354413Y-87960238D01*
X126354413Y-87960238D02*
X126459175Y-88055476D01*
X126459175Y-88055476D02*
X126511556Y-88245952D01*
X126511556Y-88245952D02*
X126511556Y-88579285D01*
X126511556Y-88579285D02*
X126459175Y-88769761D01*
X126459175Y-88769761D02*
X126354413Y-88865000D01*
X126354413Y-88865000D02*
X126249651Y-88912619D01*
X126249651Y-88912619D02*
X126040127Y-88912619D01*
X126040127Y-88912619D02*
X125935365Y-88865000D01*
X125935365Y-88865000D02*
X125830603Y-88769761D01*
X125830603Y-88769761D02*
X125778222Y-88579285D01*
X125778222Y-88579285D02*
X125778222Y-88245952D01*
X125778222Y-88245952D02*
X125830603Y-88055476D01*
X125830603Y-88055476D02*
X125935365Y-87960238D01*
X125935365Y-87960238D02*
X126040127Y-87912619D01*
X126878222Y-87912619D02*
X127559175Y-87912619D01*
X127559175Y-87912619D02*
X127192508Y-88293571D01*
X127192508Y-88293571D02*
X127349651Y-88293571D01*
X127349651Y-88293571D02*
X127454413Y-88341190D01*
X127454413Y-88341190D02*
X127506794Y-88388809D01*
X127506794Y-88388809D02*
X127559175Y-88484047D01*
X127559175Y-88484047D02*
X127559175Y-88722142D01*
X127559175Y-88722142D02*
X127506794Y-88817380D01*
X127506794Y-88817380D02*
X127454413Y-88865000D01*
X127454413Y-88865000D02*
X127349651Y-88912619D01*
X127349651Y-88912619D02*
X127035365Y-88912619D01*
X127035365Y-88912619D02*
X126930603Y-88865000D01*
X126930603Y-88865000D02*
X126878222Y-88817380D01*
X128082984Y-88912619D02*
X128292508Y-88912619D01*
X128292508Y-88912619D02*
X128397270Y-88865000D01*
X128397270Y-88865000D02*
X128449651Y-88817380D01*
X128449651Y-88817380D02*
X128554413Y-88674523D01*
X128554413Y-88674523D02*
X128606794Y-88484047D01*
X128606794Y-88484047D02*
X128606794Y-88103095D01*
X128606794Y-88103095D02*
X128554413Y-88007857D01*
X128554413Y-88007857D02*
X128502032Y-87960238D01*
X128502032Y-87960238D02*
X128397270Y-87912619D01*
X128397270Y-87912619D02*
X128187746Y-87912619D01*
X128187746Y-87912619D02*
X128082984Y-87960238D01*
X128082984Y-87960238D02*
X128030603Y-88007857D01*
X128030603Y-88007857D02*
X127978222Y-88103095D01*
X127978222Y-88103095D02*
X127978222Y-88341190D01*
X127978222Y-88341190D02*
X128030603Y-88436428D01*
X128030603Y-88436428D02*
X128082984Y-88484047D01*
X128082984Y-88484047D02*
X128187746Y-88531666D01*
X128187746Y-88531666D02*
X128397270Y-88531666D01*
X128397270Y-88531666D02*
X128502032Y-88484047D01*
X128502032Y-88484047D02*
X128554413Y-88436428D01*
X128554413Y-88436428D02*
X128606794Y-88341190D01*
X123682984Y-90460238D02*
X123578222Y-90412619D01*
X123578222Y-90412619D02*
X123421079Y-90412619D01*
X123421079Y-90412619D02*
X123263936Y-90460238D01*
X123263936Y-90460238D02*
X123159174Y-90555476D01*
X123159174Y-90555476D02*
X123106793Y-90650714D01*
X123106793Y-90650714D02*
X123054412Y-90841190D01*
X123054412Y-90841190D02*
X123054412Y-90984047D01*
X123054412Y-90984047D02*
X123106793Y-91174523D01*
X123106793Y-91174523D02*
X123159174Y-91269761D01*
X123159174Y-91269761D02*
X123263936Y-91365000D01*
X123263936Y-91365000D02*
X123421079Y-91412619D01*
X123421079Y-91412619D02*
X123525841Y-91412619D01*
X123525841Y-91412619D02*
X123682984Y-91365000D01*
X123682984Y-91365000D02*
X123735365Y-91317380D01*
X123735365Y-91317380D02*
X123735365Y-90984047D01*
X123735365Y-90984047D02*
X123525841Y-90984047D01*
X124206793Y-91412619D02*
X124206793Y-90412619D01*
X124206793Y-90412619D02*
X124625841Y-90412619D01*
X124625841Y-90412619D02*
X124730603Y-90460238D01*
X124730603Y-90460238D02*
X124782984Y-90507857D01*
X124782984Y-90507857D02*
X124835365Y-90603095D01*
X124835365Y-90603095D02*
X124835365Y-90745952D01*
X124835365Y-90745952D02*
X124782984Y-90841190D01*
X124782984Y-90841190D02*
X124730603Y-90888809D01*
X124730603Y-90888809D02*
X124625841Y-90936428D01*
X124625841Y-90936428D02*
X124206793Y-90936428D01*
X125306793Y-91412619D02*
X125306793Y-90412619D01*
X126040127Y-90412619D02*
X126249651Y-90412619D01*
X126249651Y-90412619D02*
X126354413Y-90460238D01*
X126354413Y-90460238D02*
X126459175Y-90555476D01*
X126459175Y-90555476D02*
X126511556Y-90745952D01*
X126511556Y-90745952D02*
X126511556Y-91079285D01*
X126511556Y-91079285D02*
X126459175Y-91269761D01*
X126459175Y-91269761D02*
X126354413Y-91365000D01*
X126354413Y-91365000D02*
X126249651Y-91412619D01*
X126249651Y-91412619D02*
X126040127Y-91412619D01*
X126040127Y-91412619D02*
X125935365Y-91365000D01*
X125935365Y-91365000D02*
X125830603Y-91269761D01*
X125830603Y-91269761D02*
X125778222Y-91079285D01*
X125778222Y-91079285D02*
X125778222Y-90745952D01*
X125778222Y-90745952D02*
X125830603Y-90555476D01*
X125830603Y-90555476D02*
X125935365Y-90460238D01*
X125935365Y-90460238D02*
X126040127Y-90412619D01*
X126878222Y-90412619D02*
X127559175Y-90412619D01*
X127559175Y-90412619D02*
X127192508Y-90793571D01*
X127192508Y-90793571D02*
X127349651Y-90793571D01*
X127349651Y-90793571D02*
X127454413Y-90841190D01*
X127454413Y-90841190D02*
X127506794Y-90888809D01*
X127506794Y-90888809D02*
X127559175Y-90984047D01*
X127559175Y-90984047D02*
X127559175Y-91222142D01*
X127559175Y-91222142D02*
X127506794Y-91317380D01*
X127506794Y-91317380D02*
X127454413Y-91365000D01*
X127454413Y-91365000D02*
X127349651Y-91412619D01*
X127349651Y-91412619D02*
X127035365Y-91412619D01*
X127035365Y-91412619D02*
X126930603Y-91365000D01*
X126930603Y-91365000D02*
X126878222Y-91317380D01*
X128502032Y-90745952D02*
X128502032Y-91412619D01*
X128240127Y-90365000D02*
X127978222Y-91079285D01*
X127978222Y-91079285D02*
X128659175Y-91079285D01*
X123682984Y-92960238D02*
X123578222Y-92912619D01*
X123578222Y-92912619D02*
X123421079Y-92912619D01*
X123421079Y-92912619D02*
X123263936Y-92960238D01*
X123263936Y-92960238D02*
X123159174Y-93055476D01*
X123159174Y-93055476D02*
X123106793Y-93150714D01*
X123106793Y-93150714D02*
X123054412Y-93341190D01*
X123054412Y-93341190D02*
X123054412Y-93484047D01*
X123054412Y-93484047D02*
X123106793Y-93674523D01*
X123106793Y-93674523D02*
X123159174Y-93769761D01*
X123159174Y-93769761D02*
X123263936Y-93865000D01*
X123263936Y-93865000D02*
X123421079Y-93912619D01*
X123421079Y-93912619D02*
X123525841Y-93912619D01*
X123525841Y-93912619D02*
X123682984Y-93865000D01*
X123682984Y-93865000D02*
X123735365Y-93817380D01*
X123735365Y-93817380D02*
X123735365Y-93484047D01*
X123735365Y-93484047D02*
X123525841Y-93484047D01*
X124206793Y-93912619D02*
X124206793Y-92912619D01*
X124206793Y-92912619D02*
X124625841Y-92912619D01*
X124625841Y-92912619D02*
X124730603Y-92960238D01*
X124730603Y-92960238D02*
X124782984Y-93007857D01*
X124782984Y-93007857D02*
X124835365Y-93103095D01*
X124835365Y-93103095D02*
X124835365Y-93245952D01*
X124835365Y-93245952D02*
X124782984Y-93341190D01*
X124782984Y-93341190D02*
X124730603Y-93388809D01*
X124730603Y-93388809D02*
X124625841Y-93436428D01*
X124625841Y-93436428D02*
X124206793Y-93436428D01*
X125306793Y-93912619D02*
X125306793Y-92912619D01*
X126040127Y-92912619D02*
X126249651Y-92912619D01*
X126249651Y-92912619D02*
X126354413Y-92960238D01*
X126354413Y-92960238D02*
X126459175Y-93055476D01*
X126459175Y-93055476D02*
X126511556Y-93245952D01*
X126511556Y-93245952D02*
X126511556Y-93579285D01*
X126511556Y-93579285D02*
X126459175Y-93769761D01*
X126459175Y-93769761D02*
X126354413Y-93865000D01*
X126354413Y-93865000D02*
X126249651Y-93912619D01*
X126249651Y-93912619D02*
X126040127Y-93912619D01*
X126040127Y-93912619D02*
X125935365Y-93865000D01*
X125935365Y-93865000D02*
X125830603Y-93769761D01*
X125830603Y-93769761D02*
X125778222Y-93579285D01*
X125778222Y-93579285D02*
X125778222Y-93245952D01*
X125778222Y-93245952D02*
X125830603Y-93055476D01*
X125830603Y-93055476D02*
X125935365Y-92960238D01*
X125935365Y-92960238D02*
X126040127Y-92912619D01*
X126878222Y-92912619D02*
X127559175Y-92912619D01*
X127559175Y-92912619D02*
X127192508Y-93293571D01*
X127192508Y-93293571D02*
X127349651Y-93293571D01*
X127349651Y-93293571D02*
X127454413Y-93341190D01*
X127454413Y-93341190D02*
X127506794Y-93388809D01*
X127506794Y-93388809D02*
X127559175Y-93484047D01*
X127559175Y-93484047D02*
X127559175Y-93722142D01*
X127559175Y-93722142D02*
X127506794Y-93817380D01*
X127506794Y-93817380D02*
X127454413Y-93865000D01*
X127454413Y-93865000D02*
X127349651Y-93912619D01*
X127349651Y-93912619D02*
X127035365Y-93912619D01*
X127035365Y-93912619D02*
X126930603Y-93865000D01*
X126930603Y-93865000D02*
X126878222Y-93817380D01*
X128554413Y-92912619D02*
X128030603Y-92912619D01*
X128030603Y-92912619D02*
X127978222Y-93388809D01*
X127978222Y-93388809D02*
X128030603Y-93341190D01*
X128030603Y-93341190D02*
X128135365Y-93293571D01*
X128135365Y-93293571D02*
X128397270Y-93293571D01*
X128397270Y-93293571D02*
X128502032Y-93341190D01*
X128502032Y-93341190D02*
X128554413Y-93388809D01*
X128554413Y-93388809D02*
X128606794Y-93484047D01*
X128606794Y-93484047D02*
X128606794Y-93722142D01*
X128606794Y-93722142D02*
X128554413Y-93817380D01*
X128554413Y-93817380D02*
X128502032Y-93865000D01*
X128502032Y-93865000D02*
X128397270Y-93912619D01*
X128397270Y-93912619D02*
X128135365Y-93912619D01*
X128135365Y-93912619D02*
X128030603Y-93865000D01*
X128030603Y-93865000D02*
X127978222Y-93817380D01*
X123682984Y-95460238D02*
X123578222Y-95412619D01*
X123578222Y-95412619D02*
X123421079Y-95412619D01*
X123421079Y-95412619D02*
X123263936Y-95460238D01*
X123263936Y-95460238D02*
X123159174Y-95555476D01*
X123159174Y-95555476D02*
X123106793Y-95650714D01*
X123106793Y-95650714D02*
X123054412Y-95841190D01*
X123054412Y-95841190D02*
X123054412Y-95984047D01*
X123054412Y-95984047D02*
X123106793Y-96174523D01*
X123106793Y-96174523D02*
X123159174Y-96269761D01*
X123159174Y-96269761D02*
X123263936Y-96365000D01*
X123263936Y-96365000D02*
X123421079Y-96412619D01*
X123421079Y-96412619D02*
X123525841Y-96412619D01*
X123525841Y-96412619D02*
X123682984Y-96365000D01*
X123682984Y-96365000D02*
X123735365Y-96317380D01*
X123735365Y-96317380D02*
X123735365Y-95984047D01*
X123735365Y-95984047D02*
X123525841Y-95984047D01*
X124206793Y-96412619D02*
X124206793Y-95412619D01*
X124206793Y-95412619D02*
X124625841Y-95412619D01*
X124625841Y-95412619D02*
X124730603Y-95460238D01*
X124730603Y-95460238D02*
X124782984Y-95507857D01*
X124782984Y-95507857D02*
X124835365Y-95603095D01*
X124835365Y-95603095D02*
X124835365Y-95745952D01*
X124835365Y-95745952D02*
X124782984Y-95841190D01*
X124782984Y-95841190D02*
X124730603Y-95888809D01*
X124730603Y-95888809D02*
X124625841Y-95936428D01*
X124625841Y-95936428D02*
X124206793Y-95936428D01*
X125306793Y-96412619D02*
X125306793Y-95412619D01*
X126040127Y-95412619D02*
X126249651Y-95412619D01*
X126249651Y-95412619D02*
X126354413Y-95460238D01*
X126354413Y-95460238D02*
X126459175Y-95555476D01*
X126459175Y-95555476D02*
X126511556Y-95745952D01*
X126511556Y-95745952D02*
X126511556Y-96079285D01*
X126511556Y-96079285D02*
X126459175Y-96269761D01*
X126459175Y-96269761D02*
X126354413Y-96365000D01*
X126354413Y-96365000D02*
X126249651Y-96412619D01*
X126249651Y-96412619D02*
X126040127Y-96412619D01*
X126040127Y-96412619D02*
X125935365Y-96365000D01*
X125935365Y-96365000D02*
X125830603Y-96269761D01*
X125830603Y-96269761D02*
X125778222Y-96079285D01*
X125778222Y-96079285D02*
X125778222Y-95745952D01*
X125778222Y-95745952D02*
X125830603Y-95555476D01*
X125830603Y-95555476D02*
X125935365Y-95460238D01*
X125935365Y-95460238D02*
X126040127Y-95412619D01*
X126878222Y-95412619D02*
X127559175Y-95412619D01*
X127559175Y-95412619D02*
X127192508Y-95793571D01*
X127192508Y-95793571D02*
X127349651Y-95793571D01*
X127349651Y-95793571D02*
X127454413Y-95841190D01*
X127454413Y-95841190D02*
X127506794Y-95888809D01*
X127506794Y-95888809D02*
X127559175Y-95984047D01*
X127559175Y-95984047D02*
X127559175Y-96222142D01*
X127559175Y-96222142D02*
X127506794Y-96317380D01*
X127506794Y-96317380D02*
X127454413Y-96365000D01*
X127454413Y-96365000D02*
X127349651Y-96412619D01*
X127349651Y-96412619D02*
X127035365Y-96412619D01*
X127035365Y-96412619D02*
X126930603Y-96365000D01*
X126930603Y-96365000D02*
X126878222Y-96317380D01*
X127978222Y-95507857D02*
X128030603Y-95460238D01*
X128030603Y-95460238D02*
X128135365Y-95412619D01*
X128135365Y-95412619D02*
X128397270Y-95412619D01*
X128397270Y-95412619D02*
X128502032Y-95460238D01*
X128502032Y-95460238D02*
X128554413Y-95507857D01*
X128554413Y-95507857D02*
X128606794Y-95603095D01*
X128606794Y-95603095D02*
X128606794Y-95698333D01*
X128606794Y-95698333D02*
X128554413Y-95841190D01*
X128554413Y-95841190D02*
X127925841Y-96412619D01*
X127925841Y-96412619D02*
X128606794Y-96412619D01*
X123682984Y-97960238D02*
X123578222Y-97912619D01*
X123578222Y-97912619D02*
X123421079Y-97912619D01*
X123421079Y-97912619D02*
X123263936Y-97960238D01*
X123263936Y-97960238D02*
X123159174Y-98055476D01*
X123159174Y-98055476D02*
X123106793Y-98150714D01*
X123106793Y-98150714D02*
X123054412Y-98341190D01*
X123054412Y-98341190D02*
X123054412Y-98484047D01*
X123054412Y-98484047D02*
X123106793Y-98674523D01*
X123106793Y-98674523D02*
X123159174Y-98769761D01*
X123159174Y-98769761D02*
X123263936Y-98865000D01*
X123263936Y-98865000D02*
X123421079Y-98912619D01*
X123421079Y-98912619D02*
X123525841Y-98912619D01*
X123525841Y-98912619D02*
X123682984Y-98865000D01*
X123682984Y-98865000D02*
X123735365Y-98817380D01*
X123735365Y-98817380D02*
X123735365Y-98484047D01*
X123735365Y-98484047D02*
X123525841Y-98484047D01*
X124206793Y-98912619D02*
X124206793Y-97912619D01*
X124206793Y-97912619D02*
X124625841Y-97912619D01*
X124625841Y-97912619D02*
X124730603Y-97960238D01*
X124730603Y-97960238D02*
X124782984Y-98007857D01*
X124782984Y-98007857D02*
X124835365Y-98103095D01*
X124835365Y-98103095D02*
X124835365Y-98245952D01*
X124835365Y-98245952D02*
X124782984Y-98341190D01*
X124782984Y-98341190D02*
X124730603Y-98388809D01*
X124730603Y-98388809D02*
X124625841Y-98436428D01*
X124625841Y-98436428D02*
X124206793Y-98436428D01*
X125306793Y-98912619D02*
X125306793Y-97912619D01*
X126040127Y-97912619D02*
X126249651Y-97912619D01*
X126249651Y-97912619D02*
X126354413Y-97960238D01*
X126354413Y-97960238D02*
X126459175Y-98055476D01*
X126459175Y-98055476D02*
X126511556Y-98245952D01*
X126511556Y-98245952D02*
X126511556Y-98579285D01*
X126511556Y-98579285D02*
X126459175Y-98769761D01*
X126459175Y-98769761D02*
X126354413Y-98865000D01*
X126354413Y-98865000D02*
X126249651Y-98912619D01*
X126249651Y-98912619D02*
X126040127Y-98912619D01*
X126040127Y-98912619D02*
X125935365Y-98865000D01*
X125935365Y-98865000D02*
X125830603Y-98769761D01*
X125830603Y-98769761D02*
X125778222Y-98579285D01*
X125778222Y-98579285D02*
X125778222Y-98245952D01*
X125778222Y-98245952D02*
X125830603Y-98055476D01*
X125830603Y-98055476D02*
X125935365Y-97960238D01*
X125935365Y-97960238D02*
X126040127Y-97912619D01*
X126878222Y-97912619D02*
X127559175Y-97912619D01*
X127559175Y-97912619D02*
X127192508Y-98293571D01*
X127192508Y-98293571D02*
X127349651Y-98293571D01*
X127349651Y-98293571D02*
X127454413Y-98341190D01*
X127454413Y-98341190D02*
X127506794Y-98388809D01*
X127506794Y-98388809D02*
X127559175Y-98484047D01*
X127559175Y-98484047D02*
X127559175Y-98722142D01*
X127559175Y-98722142D02*
X127506794Y-98817380D01*
X127506794Y-98817380D02*
X127454413Y-98865000D01*
X127454413Y-98865000D02*
X127349651Y-98912619D01*
X127349651Y-98912619D02*
X127035365Y-98912619D01*
X127035365Y-98912619D02*
X126930603Y-98865000D01*
X126930603Y-98865000D02*
X126878222Y-98817380D01*
X127925841Y-97912619D02*
X128606794Y-97912619D01*
X128606794Y-97912619D02*
X128240127Y-98293571D01*
X128240127Y-98293571D02*
X128397270Y-98293571D01*
X128397270Y-98293571D02*
X128502032Y-98341190D01*
X128502032Y-98341190D02*
X128554413Y-98388809D01*
X128554413Y-98388809D02*
X128606794Y-98484047D01*
X128606794Y-98484047D02*
X128606794Y-98722142D01*
X128606794Y-98722142D02*
X128554413Y-98817380D01*
X128554413Y-98817380D02*
X128502032Y-98865000D01*
X128502032Y-98865000D02*
X128397270Y-98912619D01*
X128397270Y-98912619D02*
X128082984Y-98912619D01*
X128082984Y-98912619D02*
X127978222Y-98865000D01*
X127978222Y-98865000D02*
X127925841Y-98817380D01*
X123682984Y-100460238D02*
X123578222Y-100412619D01*
X123578222Y-100412619D02*
X123421079Y-100412619D01*
X123421079Y-100412619D02*
X123263936Y-100460238D01*
X123263936Y-100460238D02*
X123159174Y-100555476D01*
X123159174Y-100555476D02*
X123106793Y-100650714D01*
X123106793Y-100650714D02*
X123054412Y-100841190D01*
X123054412Y-100841190D02*
X123054412Y-100984047D01*
X123054412Y-100984047D02*
X123106793Y-101174523D01*
X123106793Y-101174523D02*
X123159174Y-101269761D01*
X123159174Y-101269761D02*
X123263936Y-101365000D01*
X123263936Y-101365000D02*
X123421079Y-101412619D01*
X123421079Y-101412619D02*
X123525841Y-101412619D01*
X123525841Y-101412619D02*
X123682984Y-101365000D01*
X123682984Y-101365000D02*
X123735365Y-101317380D01*
X123735365Y-101317380D02*
X123735365Y-100984047D01*
X123735365Y-100984047D02*
X123525841Y-100984047D01*
X124206793Y-101412619D02*
X124206793Y-100412619D01*
X124206793Y-100412619D02*
X124625841Y-100412619D01*
X124625841Y-100412619D02*
X124730603Y-100460238D01*
X124730603Y-100460238D02*
X124782984Y-100507857D01*
X124782984Y-100507857D02*
X124835365Y-100603095D01*
X124835365Y-100603095D02*
X124835365Y-100745952D01*
X124835365Y-100745952D02*
X124782984Y-100841190D01*
X124782984Y-100841190D02*
X124730603Y-100888809D01*
X124730603Y-100888809D02*
X124625841Y-100936428D01*
X124625841Y-100936428D02*
X124206793Y-100936428D01*
X125306793Y-101412619D02*
X125306793Y-100412619D01*
X126040127Y-100412619D02*
X126249651Y-100412619D01*
X126249651Y-100412619D02*
X126354413Y-100460238D01*
X126354413Y-100460238D02*
X126459175Y-100555476D01*
X126459175Y-100555476D02*
X126511556Y-100745952D01*
X126511556Y-100745952D02*
X126511556Y-101079285D01*
X126511556Y-101079285D02*
X126459175Y-101269761D01*
X126459175Y-101269761D02*
X126354413Y-101365000D01*
X126354413Y-101365000D02*
X126249651Y-101412619D01*
X126249651Y-101412619D02*
X126040127Y-101412619D01*
X126040127Y-101412619D02*
X125935365Y-101365000D01*
X125935365Y-101365000D02*
X125830603Y-101269761D01*
X125830603Y-101269761D02*
X125778222Y-101079285D01*
X125778222Y-101079285D02*
X125778222Y-100745952D01*
X125778222Y-100745952D02*
X125830603Y-100555476D01*
X125830603Y-100555476D02*
X125935365Y-100460238D01*
X125935365Y-100460238D02*
X126040127Y-100412619D01*
X126930603Y-100507857D02*
X126982984Y-100460238D01*
X126982984Y-100460238D02*
X127087746Y-100412619D01*
X127087746Y-100412619D02*
X127349651Y-100412619D01*
X127349651Y-100412619D02*
X127454413Y-100460238D01*
X127454413Y-100460238D02*
X127506794Y-100507857D01*
X127506794Y-100507857D02*
X127559175Y-100603095D01*
X127559175Y-100603095D02*
X127559175Y-100698333D01*
X127559175Y-100698333D02*
X127506794Y-100841190D01*
X127506794Y-100841190D02*
X126878222Y-101412619D01*
X126878222Y-101412619D02*
X127559175Y-101412619D01*
X128554413Y-100412619D02*
X128030603Y-100412619D01*
X128030603Y-100412619D02*
X127978222Y-100888809D01*
X127978222Y-100888809D02*
X128030603Y-100841190D01*
X128030603Y-100841190D02*
X128135365Y-100793571D01*
X128135365Y-100793571D02*
X128397270Y-100793571D01*
X128397270Y-100793571D02*
X128502032Y-100841190D01*
X128502032Y-100841190D02*
X128554413Y-100888809D01*
X128554413Y-100888809D02*
X128606794Y-100984047D01*
X128606794Y-100984047D02*
X128606794Y-101222142D01*
X128606794Y-101222142D02*
X128554413Y-101317380D01*
X128554413Y-101317380D02*
X128502032Y-101365000D01*
X128502032Y-101365000D02*
X128397270Y-101412619D01*
X128397270Y-101412619D02*
X128135365Y-101412619D01*
X128135365Y-101412619D02*
X128030603Y-101365000D01*
X128030603Y-101365000D02*
X127978222Y-101317380D01*
X123682984Y-102960238D02*
X123578222Y-102912619D01*
X123578222Y-102912619D02*
X123421079Y-102912619D01*
X123421079Y-102912619D02*
X123263936Y-102960238D01*
X123263936Y-102960238D02*
X123159174Y-103055476D01*
X123159174Y-103055476D02*
X123106793Y-103150714D01*
X123106793Y-103150714D02*
X123054412Y-103341190D01*
X123054412Y-103341190D02*
X123054412Y-103484047D01*
X123054412Y-103484047D02*
X123106793Y-103674523D01*
X123106793Y-103674523D02*
X123159174Y-103769761D01*
X123159174Y-103769761D02*
X123263936Y-103865000D01*
X123263936Y-103865000D02*
X123421079Y-103912619D01*
X123421079Y-103912619D02*
X123525841Y-103912619D01*
X123525841Y-103912619D02*
X123682984Y-103865000D01*
X123682984Y-103865000D02*
X123735365Y-103817380D01*
X123735365Y-103817380D02*
X123735365Y-103484047D01*
X123735365Y-103484047D02*
X123525841Y-103484047D01*
X124206793Y-103912619D02*
X124206793Y-102912619D01*
X124206793Y-102912619D02*
X124625841Y-102912619D01*
X124625841Y-102912619D02*
X124730603Y-102960238D01*
X124730603Y-102960238D02*
X124782984Y-103007857D01*
X124782984Y-103007857D02*
X124835365Y-103103095D01*
X124835365Y-103103095D02*
X124835365Y-103245952D01*
X124835365Y-103245952D02*
X124782984Y-103341190D01*
X124782984Y-103341190D02*
X124730603Y-103388809D01*
X124730603Y-103388809D02*
X124625841Y-103436428D01*
X124625841Y-103436428D02*
X124206793Y-103436428D01*
X125306793Y-103912619D02*
X125306793Y-102912619D01*
X126040127Y-102912619D02*
X126249651Y-102912619D01*
X126249651Y-102912619D02*
X126354413Y-102960238D01*
X126354413Y-102960238D02*
X126459175Y-103055476D01*
X126459175Y-103055476D02*
X126511556Y-103245952D01*
X126511556Y-103245952D02*
X126511556Y-103579285D01*
X126511556Y-103579285D02*
X126459175Y-103769761D01*
X126459175Y-103769761D02*
X126354413Y-103865000D01*
X126354413Y-103865000D02*
X126249651Y-103912619D01*
X126249651Y-103912619D02*
X126040127Y-103912619D01*
X126040127Y-103912619D02*
X125935365Y-103865000D01*
X125935365Y-103865000D02*
X125830603Y-103769761D01*
X125830603Y-103769761D02*
X125778222Y-103579285D01*
X125778222Y-103579285D02*
X125778222Y-103245952D01*
X125778222Y-103245952D02*
X125830603Y-103055476D01*
X125830603Y-103055476D02*
X125935365Y-102960238D01*
X125935365Y-102960238D02*
X126040127Y-102912619D01*
X126930603Y-103007857D02*
X126982984Y-102960238D01*
X126982984Y-102960238D02*
X127087746Y-102912619D01*
X127087746Y-102912619D02*
X127349651Y-102912619D01*
X127349651Y-102912619D02*
X127454413Y-102960238D01*
X127454413Y-102960238D02*
X127506794Y-103007857D01*
X127506794Y-103007857D02*
X127559175Y-103103095D01*
X127559175Y-103103095D02*
X127559175Y-103198333D01*
X127559175Y-103198333D02*
X127506794Y-103341190D01*
X127506794Y-103341190D02*
X126878222Y-103912619D01*
X126878222Y-103912619D02*
X127559175Y-103912619D01*
X128502032Y-102912619D02*
X128292508Y-102912619D01*
X128292508Y-102912619D02*
X128187746Y-102960238D01*
X128187746Y-102960238D02*
X128135365Y-103007857D01*
X128135365Y-103007857D02*
X128030603Y-103150714D01*
X128030603Y-103150714D02*
X127978222Y-103341190D01*
X127978222Y-103341190D02*
X127978222Y-103722142D01*
X127978222Y-103722142D02*
X128030603Y-103817380D01*
X128030603Y-103817380D02*
X128082984Y-103865000D01*
X128082984Y-103865000D02*
X128187746Y-103912619D01*
X128187746Y-103912619D02*
X128397270Y-103912619D01*
X128397270Y-103912619D02*
X128502032Y-103865000D01*
X128502032Y-103865000D02*
X128554413Y-103817380D01*
X128554413Y-103817380D02*
X128606794Y-103722142D01*
X128606794Y-103722142D02*
X128606794Y-103484047D01*
X128606794Y-103484047D02*
X128554413Y-103388809D01*
X128554413Y-103388809D02*
X128502032Y-103341190D01*
X128502032Y-103341190D02*
X128397270Y-103293571D01*
X128397270Y-103293571D02*
X128187746Y-103293571D01*
X128187746Y-103293571D02*
X128082984Y-103341190D01*
X128082984Y-103341190D02*
X128030603Y-103388809D01*
X128030603Y-103388809D02*
X127978222Y-103484047D01*
X123682984Y-105460238D02*
X123578222Y-105412619D01*
X123578222Y-105412619D02*
X123421079Y-105412619D01*
X123421079Y-105412619D02*
X123263936Y-105460238D01*
X123263936Y-105460238D02*
X123159174Y-105555476D01*
X123159174Y-105555476D02*
X123106793Y-105650714D01*
X123106793Y-105650714D02*
X123054412Y-105841190D01*
X123054412Y-105841190D02*
X123054412Y-105984047D01*
X123054412Y-105984047D02*
X123106793Y-106174523D01*
X123106793Y-106174523D02*
X123159174Y-106269761D01*
X123159174Y-106269761D02*
X123263936Y-106365000D01*
X123263936Y-106365000D02*
X123421079Y-106412619D01*
X123421079Y-106412619D02*
X123525841Y-106412619D01*
X123525841Y-106412619D02*
X123682984Y-106365000D01*
X123682984Y-106365000D02*
X123735365Y-106317380D01*
X123735365Y-106317380D02*
X123735365Y-105984047D01*
X123735365Y-105984047D02*
X123525841Y-105984047D01*
X124206793Y-106412619D02*
X124206793Y-105412619D01*
X124206793Y-105412619D02*
X124625841Y-105412619D01*
X124625841Y-105412619D02*
X124730603Y-105460238D01*
X124730603Y-105460238D02*
X124782984Y-105507857D01*
X124782984Y-105507857D02*
X124835365Y-105603095D01*
X124835365Y-105603095D02*
X124835365Y-105745952D01*
X124835365Y-105745952D02*
X124782984Y-105841190D01*
X124782984Y-105841190D02*
X124730603Y-105888809D01*
X124730603Y-105888809D02*
X124625841Y-105936428D01*
X124625841Y-105936428D02*
X124206793Y-105936428D01*
X125306793Y-106412619D02*
X125306793Y-105412619D01*
X126040127Y-105412619D02*
X126249651Y-105412619D01*
X126249651Y-105412619D02*
X126354413Y-105460238D01*
X126354413Y-105460238D02*
X126459175Y-105555476D01*
X126459175Y-105555476D02*
X126511556Y-105745952D01*
X126511556Y-105745952D02*
X126511556Y-106079285D01*
X126511556Y-106079285D02*
X126459175Y-106269761D01*
X126459175Y-106269761D02*
X126354413Y-106365000D01*
X126354413Y-106365000D02*
X126249651Y-106412619D01*
X126249651Y-106412619D02*
X126040127Y-106412619D01*
X126040127Y-106412619D02*
X125935365Y-106365000D01*
X125935365Y-106365000D02*
X125830603Y-106269761D01*
X125830603Y-106269761D02*
X125778222Y-106079285D01*
X125778222Y-106079285D02*
X125778222Y-105745952D01*
X125778222Y-105745952D02*
X125830603Y-105555476D01*
X125830603Y-105555476D02*
X125935365Y-105460238D01*
X125935365Y-105460238D02*
X126040127Y-105412619D01*
X126930603Y-105507857D02*
X126982984Y-105460238D01*
X126982984Y-105460238D02*
X127087746Y-105412619D01*
X127087746Y-105412619D02*
X127349651Y-105412619D01*
X127349651Y-105412619D02*
X127454413Y-105460238D01*
X127454413Y-105460238D02*
X127506794Y-105507857D01*
X127506794Y-105507857D02*
X127559175Y-105603095D01*
X127559175Y-105603095D02*
X127559175Y-105698333D01*
X127559175Y-105698333D02*
X127506794Y-105841190D01*
X127506794Y-105841190D02*
X126878222Y-106412619D01*
X126878222Y-106412619D02*
X127559175Y-106412619D01*
X127925841Y-105412619D02*
X128659175Y-105412619D01*
X128659175Y-105412619D02*
X128187746Y-106412619D01*
X123682984Y-107960238D02*
X123578222Y-107912619D01*
X123578222Y-107912619D02*
X123421079Y-107912619D01*
X123421079Y-107912619D02*
X123263936Y-107960238D01*
X123263936Y-107960238D02*
X123159174Y-108055476D01*
X123159174Y-108055476D02*
X123106793Y-108150714D01*
X123106793Y-108150714D02*
X123054412Y-108341190D01*
X123054412Y-108341190D02*
X123054412Y-108484047D01*
X123054412Y-108484047D02*
X123106793Y-108674523D01*
X123106793Y-108674523D02*
X123159174Y-108769761D01*
X123159174Y-108769761D02*
X123263936Y-108865000D01*
X123263936Y-108865000D02*
X123421079Y-108912619D01*
X123421079Y-108912619D02*
X123525841Y-108912619D01*
X123525841Y-108912619D02*
X123682984Y-108865000D01*
X123682984Y-108865000D02*
X123735365Y-108817380D01*
X123735365Y-108817380D02*
X123735365Y-108484047D01*
X123735365Y-108484047D02*
X123525841Y-108484047D01*
X124206793Y-108912619D02*
X124206793Y-107912619D01*
X124206793Y-107912619D02*
X124625841Y-107912619D01*
X124625841Y-107912619D02*
X124730603Y-107960238D01*
X124730603Y-107960238D02*
X124782984Y-108007857D01*
X124782984Y-108007857D02*
X124835365Y-108103095D01*
X124835365Y-108103095D02*
X124835365Y-108245952D01*
X124835365Y-108245952D02*
X124782984Y-108341190D01*
X124782984Y-108341190D02*
X124730603Y-108388809D01*
X124730603Y-108388809D02*
X124625841Y-108436428D01*
X124625841Y-108436428D02*
X124206793Y-108436428D01*
X125306793Y-108912619D02*
X125306793Y-107912619D01*
X126040127Y-107912619D02*
X126249651Y-107912619D01*
X126249651Y-107912619D02*
X126354413Y-107960238D01*
X126354413Y-107960238D02*
X126459175Y-108055476D01*
X126459175Y-108055476D02*
X126511556Y-108245952D01*
X126511556Y-108245952D02*
X126511556Y-108579285D01*
X126511556Y-108579285D02*
X126459175Y-108769761D01*
X126459175Y-108769761D02*
X126354413Y-108865000D01*
X126354413Y-108865000D02*
X126249651Y-108912619D01*
X126249651Y-108912619D02*
X126040127Y-108912619D01*
X126040127Y-108912619D02*
X125935365Y-108865000D01*
X125935365Y-108865000D02*
X125830603Y-108769761D01*
X125830603Y-108769761D02*
X125778222Y-108579285D01*
X125778222Y-108579285D02*
X125778222Y-108245952D01*
X125778222Y-108245952D02*
X125830603Y-108055476D01*
X125830603Y-108055476D02*
X125935365Y-107960238D01*
X125935365Y-107960238D02*
X126040127Y-107912619D01*
X127559175Y-108912619D02*
X126930603Y-108912619D01*
X127244889Y-108912619D02*
X127244889Y-107912619D01*
X127244889Y-107912619D02*
X127140127Y-108055476D01*
X127140127Y-108055476D02*
X127035365Y-108150714D01*
X127035365Y-108150714D02*
X126930603Y-108198333D01*
X128502032Y-108245952D02*
X128502032Y-108912619D01*
X128240127Y-107865000D02*
X127978222Y-108579285D01*
X127978222Y-108579285D02*
X128659175Y-108579285D01*
X123682984Y-110460238D02*
X123578222Y-110412619D01*
X123578222Y-110412619D02*
X123421079Y-110412619D01*
X123421079Y-110412619D02*
X123263936Y-110460238D01*
X123263936Y-110460238D02*
X123159174Y-110555476D01*
X123159174Y-110555476D02*
X123106793Y-110650714D01*
X123106793Y-110650714D02*
X123054412Y-110841190D01*
X123054412Y-110841190D02*
X123054412Y-110984047D01*
X123054412Y-110984047D02*
X123106793Y-111174523D01*
X123106793Y-111174523D02*
X123159174Y-111269761D01*
X123159174Y-111269761D02*
X123263936Y-111365000D01*
X123263936Y-111365000D02*
X123421079Y-111412619D01*
X123421079Y-111412619D02*
X123525841Y-111412619D01*
X123525841Y-111412619D02*
X123682984Y-111365000D01*
X123682984Y-111365000D02*
X123735365Y-111317380D01*
X123735365Y-111317380D02*
X123735365Y-110984047D01*
X123735365Y-110984047D02*
X123525841Y-110984047D01*
X124206793Y-111412619D02*
X124206793Y-110412619D01*
X124206793Y-110412619D02*
X124625841Y-110412619D01*
X124625841Y-110412619D02*
X124730603Y-110460238D01*
X124730603Y-110460238D02*
X124782984Y-110507857D01*
X124782984Y-110507857D02*
X124835365Y-110603095D01*
X124835365Y-110603095D02*
X124835365Y-110745952D01*
X124835365Y-110745952D02*
X124782984Y-110841190D01*
X124782984Y-110841190D02*
X124730603Y-110888809D01*
X124730603Y-110888809D02*
X124625841Y-110936428D01*
X124625841Y-110936428D02*
X124206793Y-110936428D01*
X125306793Y-111412619D02*
X125306793Y-110412619D01*
X126040127Y-110412619D02*
X126249651Y-110412619D01*
X126249651Y-110412619D02*
X126354413Y-110460238D01*
X126354413Y-110460238D02*
X126459175Y-110555476D01*
X126459175Y-110555476D02*
X126511556Y-110745952D01*
X126511556Y-110745952D02*
X126511556Y-111079285D01*
X126511556Y-111079285D02*
X126459175Y-111269761D01*
X126459175Y-111269761D02*
X126354413Y-111365000D01*
X126354413Y-111365000D02*
X126249651Y-111412619D01*
X126249651Y-111412619D02*
X126040127Y-111412619D01*
X126040127Y-111412619D02*
X125935365Y-111365000D01*
X125935365Y-111365000D02*
X125830603Y-111269761D01*
X125830603Y-111269761D02*
X125778222Y-111079285D01*
X125778222Y-111079285D02*
X125778222Y-110745952D01*
X125778222Y-110745952D02*
X125830603Y-110555476D01*
X125830603Y-110555476D02*
X125935365Y-110460238D01*
X125935365Y-110460238D02*
X126040127Y-110412619D01*
X127559175Y-111412619D02*
X126930603Y-111412619D01*
X127244889Y-111412619D02*
X127244889Y-110412619D01*
X127244889Y-110412619D02*
X127140127Y-110555476D01*
X127140127Y-110555476D02*
X127035365Y-110650714D01*
X127035365Y-110650714D02*
X126930603Y-110698333D01*
X127978222Y-110507857D02*
X128030603Y-110460238D01*
X128030603Y-110460238D02*
X128135365Y-110412619D01*
X128135365Y-110412619D02*
X128397270Y-110412619D01*
X128397270Y-110412619D02*
X128502032Y-110460238D01*
X128502032Y-110460238D02*
X128554413Y-110507857D01*
X128554413Y-110507857D02*
X128606794Y-110603095D01*
X128606794Y-110603095D02*
X128606794Y-110698333D01*
X128606794Y-110698333D02*
X128554413Y-110841190D01*
X128554413Y-110841190D02*
X127925841Y-111412619D01*
X127925841Y-111412619D02*
X128606794Y-111412619D01*
X123682984Y-112960238D02*
X123578222Y-112912619D01*
X123578222Y-112912619D02*
X123421079Y-112912619D01*
X123421079Y-112912619D02*
X123263936Y-112960238D01*
X123263936Y-112960238D02*
X123159174Y-113055476D01*
X123159174Y-113055476D02*
X123106793Y-113150714D01*
X123106793Y-113150714D02*
X123054412Y-113341190D01*
X123054412Y-113341190D02*
X123054412Y-113484047D01*
X123054412Y-113484047D02*
X123106793Y-113674523D01*
X123106793Y-113674523D02*
X123159174Y-113769761D01*
X123159174Y-113769761D02*
X123263936Y-113865000D01*
X123263936Y-113865000D02*
X123421079Y-113912619D01*
X123421079Y-113912619D02*
X123525841Y-113912619D01*
X123525841Y-113912619D02*
X123682984Y-113865000D01*
X123682984Y-113865000D02*
X123735365Y-113817380D01*
X123735365Y-113817380D02*
X123735365Y-113484047D01*
X123735365Y-113484047D02*
X123525841Y-113484047D01*
X124206793Y-113912619D02*
X124206793Y-112912619D01*
X124206793Y-112912619D02*
X124625841Y-112912619D01*
X124625841Y-112912619D02*
X124730603Y-112960238D01*
X124730603Y-112960238D02*
X124782984Y-113007857D01*
X124782984Y-113007857D02*
X124835365Y-113103095D01*
X124835365Y-113103095D02*
X124835365Y-113245952D01*
X124835365Y-113245952D02*
X124782984Y-113341190D01*
X124782984Y-113341190D02*
X124730603Y-113388809D01*
X124730603Y-113388809D02*
X124625841Y-113436428D01*
X124625841Y-113436428D02*
X124206793Y-113436428D01*
X125306793Y-113912619D02*
X125306793Y-112912619D01*
X126040127Y-112912619D02*
X126249651Y-112912619D01*
X126249651Y-112912619D02*
X126354413Y-112960238D01*
X126354413Y-112960238D02*
X126459175Y-113055476D01*
X126459175Y-113055476D02*
X126511556Y-113245952D01*
X126511556Y-113245952D02*
X126511556Y-113579285D01*
X126511556Y-113579285D02*
X126459175Y-113769761D01*
X126459175Y-113769761D02*
X126354413Y-113865000D01*
X126354413Y-113865000D02*
X126249651Y-113912619D01*
X126249651Y-113912619D02*
X126040127Y-113912619D01*
X126040127Y-113912619D02*
X125935365Y-113865000D01*
X125935365Y-113865000D02*
X125830603Y-113769761D01*
X125830603Y-113769761D02*
X125778222Y-113579285D01*
X125778222Y-113579285D02*
X125778222Y-113245952D01*
X125778222Y-113245952D02*
X125830603Y-113055476D01*
X125830603Y-113055476D02*
X125935365Y-112960238D01*
X125935365Y-112960238D02*
X126040127Y-112912619D01*
X127559175Y-113912619D02*
X126930603Y-113912619D01*
X127244889Y-113912619D02*
X127244889Y-112912619D01*
X127244889Y-112912619D02*
X127140127Y-113055476D01*
X127140127Y-113055476D02*
X127035365Y-113150714D01*
X127035365Y-113150714D02*
X126930603Y-113198333D01*
X127925841Y-112912619D02*
X128606794Y-112912619D01*
X128606794Y-112912619D02*
X128240127Y-113293571D01*
X128240127Y-113293571D02*
X128397270Y-113293571D01*
X128397270Y-113293571D02*
X128502032Y-113341190D01*
X128502032Y-113341190D02*
X128554413Y-113388809D01*
X128554413Y-113388809D02*
X128606794Y-113484047D01*
X128606794Y-113484047D02*
X128606794Y-113722142D01*
X128606794Y-113722142D02*
X128554413Y-113817380D01*
X128554413Y-113817380D02*
X128502032Y-113865000D01*
X128502032Y-113865000D02*
X128397270Y-113912619D01*
X128397270Y-113912619D02*
X128082984Y-113912619D01*
X128082984Y-113912619D02*
X127978222Y-113865000D01*
X127978222Y-113865000D02*
X127925841Y-113817380D01*
X123682984Y-115460238D02*
X123578222Y-115412619D01*
X123578222Y-115412619D02*
X123421079Y-115412619D01*
X123421079Y-115412619D02*
X123263936Y-115460238D01*
X123263936Y-115460238D02*
X123159174Y-115555476D01*
X123159174Y-115555476D02*
X123106793Y-115650714D01*
X123106793Y-115650714D02*
X123054412Y-115841190D01*
X123054412Y-115841190D02*
X123054412Y-115984047D01*
X123054412Y-115984047D02*
X123106793Y-116174523D01*
X123106793Y-116174523D02*
X123159174Y-116269761D01*
X123159174Y-116269761D02*
X123263936Y-116365000D01*
X123263936Y-116365000D02*
X123421079Y-116412619D01*
X123421079Y-116412619D02*
X123525841Y-116412619D01*
X123525841Y-116412619D02*
X123682984Y-116365000D01*
X123682984Y-116365000D02*
X123735365Y-116317380D01*
X123735365Y-116317380D02*
X123735365Y-115984047D01*
X123735365Y-115984047D02*
X123525841Y-115984047D01*
X124206793Y-116412619D02*
X124206793Y-115412619D01*
X124206793Y-115412619D02*
X124835365Y-116412619D01*
X124835365Y-116412619D02*
X124835365Y-115412619D01*
X125359174Y-116412619D02*
X125359174Y-115412619D01*
X125359174Y-115412619D02*
X125621079Y-115412619D01*
X125621079Y-115412619D02*
X125778222Y-115460238D01*
X125778222Y-115460238D02*
X125882984Y-115555476D01*
X125882984Y-115555476D02*
X125935365Y-115650714D01*
X125935365Y-115650714D02*
X125987746Y-115841190D01*
X125987746Y-115841190D02*
X125987746Y-115984047D01*
X125987746Y-115984047D02*
X125935365Y-116174523D01*
X125935365Y-116174523D02*
X125882984Y-116269761D01*
X125882984Y-116269761D02*
X125778222Y-116365000D01*
X125778222Y-116365000D02*
X125621079Y-116412619D01*
X125621079Y-116412619D02*
X125359174Y-116412619D01*
X123449650Y-117912619D02*
X123816317Y-118912619D01*
X123816317Y-118912619D02*
X124182984Y-117912619D01*
X124549650Y-118912619D02*
X124549650Y-117912619D01*
X125073460Y-118912619D02*
X125073460Y-117912619D01*
X125073460Y-117912619D02*
X125702032Y-118912619D01*
X125702032Y-118912619D02*
X125702032Y-117912619D01*
X133582984Y-123912619D02*
X133582984Y-124722142D01*
X133582984Y-124722142D02*
X133630603Y-124817380D01*
X133630603Y-124817380D02*
X133678222Y-124865000D01*
X133678222Y-124865000D02*
X133773460Y-124912619D01*
X133773460Y-124912619D02*
X133963936Y-124912619D01*
X133963936Y-124912619D02*
X134059174Y-124865000D01*
X134059174Y-124865000D02*
X134106793Y-124817380D01*
X134106793Y-124817380D02*
X134154412Y-124722142D01*
X134154412Y-124722142D02*
X134154412Y-123912619D01*
X134582984Y-124865000D02*
X134725841Y-124912619D01*
X134725841Y-124912619D02*
X134963936Y-124912619D01*
X134963936Y-124912619D02*
X135059174Y-124865000D01*
X135059174Y-124865000D02*
X135106793Y-124817380D01*
X135106793Y-124817380D02*
X135154412Y-124722142D01*
X135154412Y-124722142D02*
X135154412Y-124626904D01*
X135154412Y-124626904D02*
X135106793Y-124531666D01*
X135106793Y-124531666D02*
X135059174Y-124484047D01*
X135059174Y-124484047D02*
X134963936Y-124436428D01*
X134963936Y-124436428D02*
X134773460Y-124388809D01*
X134773460Y-124388809D02*
X134678222Y-124341190D01*
X134678222Y-124341190D02*
X134630603Y-124293571D01*
X134630603Y-124293571D02*
X134582984Y-124198333D01*
X134582984Y-124198333D02*
X134582984Y-124103095D01*
X134582984Y-124103095D02*
X134630603Y-124007857D01*
X134630603Y-124007857D02*
X134678222Y-123960238D01*
X134678222Y-123960238D02*
X134773460Y-123912619D01*
X134773460Y-123912619D02*
X135011555Y-123912619D01*
X135011555Y-123912619D02*
X135154412Y-123960238D01*
X135916317Y-124388809D02*
X136059174Y-124436428D01*
X136059174Y-124436428D02*
X136106793Y-124484047D01*
X136106793Y-124484047D02*
X136154412Y-124579285D01*
X136154412Y-124579285D02*
X136154412Y-124722142D01*
X136154412Y-124722142D02*
X136106793Y-124817380D01*
X136106793Y-124817380D02*
X136059174Y-124865000D01*
X136059174Y-124865000D02*
X135963936Y-124912619D01*
X135963936Y-124912619D02*
X135582984Y-124912619D01*
X135582984Y-124912619D02*
X135582984Y-123912619D01*
X135582984Y-123912619D02*
X135916317Y-123912619D01*
X135916317Y-123912619D02*
X136011555Y-123960238D01*
X136011555Y-123960238D02*
X136059174Y-124007857D01*
X136059174Y-124007857D02*
X136106793Y-124103095D01*
X136106793Y-124103095D02*
X136106793Y-124198333D01*
X136106793Y-124198333D02*
X136059174Y-124293571D01*
X136059174Y-124293571D02*
X136011555Y-124341190D01*
X136011555Y-124341190D02*
X135916317Y-124388809D01*
X135916317Y-124388809D02*
X135582984Y-124388809D01*
X141182984Y-82460238D02*
X141078222Y-82412619D01*
X141078222Y-82412619D02*
X140921079Y-82412619D01*
X140921079Y-82412619D02*
X140763936Y-82460238D01*
X140763936Y-82460238D02*
X140659174Y-82555476D01*
X140659174Y-82555476D02*
X140606793Y-82650714D01*
X140606793Y-82650714D02*
X140554412Y-82841190D01*
X140554412Y-82841190D02*
X140554412Y-82984047D01*
X140554412Y-82984047D02*
X140606793Y-83174523D01*
X140606793Y-83174523D02*
X140659174Y-83269761D01*
X140659174Y-83269761D02*
X140763936Y-83365000D01*
X140763936Y-83365000D02*
X140921079Y-83412619D01*
X140921079Y-83412619D02*
X141025841Y-83412619D01*
X141025841Y-83412619D02*
X141182984Y-83365000D01*
X141182984Y-83365000D02*
X141235365Y-83317380D01*
X141235365Y-83317380D02*
X141235365Y-82984047D01*
X141235365Y-82984047D02*
X141025841Y-82984047D01*
X141706793Y-83412619D02*
X141706793Y-82412619D01*
X141706793Y-82412619D02*
X142125841Y-82412619D01*
X142125841Y-82412619D02*
X142230603Y-82460238D01*
X142230603Y-82460238D02*
X142282984Y-82507857D01*
X142282984Y-82507857D02*
X142335365Y-82603095D01*
X142335365Y-82603095D02*
X142335365Y-82745952D01*
X142335365Y-82745952D02*
X142282984Y-82841190D01*
X142282984Y-82841190D02*
X142230603Y-82888809D01*
X142230603Y-82888809D02*
X142125841Y-82936428D01*
X142125841Y-82936428D02*
X141706793Y-82936428D01*
X142806793Y-83412619D02*
X142806793Y-82412619D01*
X143540127Y-82412619D02*
X143749651Y-82412619D01*
X143749651Y-82412619D02*
X143854413Y-82460238D01*
X143854413Y-82460238D02*
X143959175Y-82555476D01*
X143959175Y-82555476D02*
X144011556Y-82745952D01*
X144011556Y-82745952D02*
X144011556Y-83079285D01*
X144011556Y-83079285D02*
X143959175Y-83269761D01*
X143959175Y-83269761D02*
X143854413Y-83365000D01*
X143854413Y-83365000D02*
X143749651Y-83412619D01*
X143749651Y-83412619D02*
X143540127Y-83412619D01*
X143540127Y-83412619D02*
X143435365Y-83365000D01*
X143435365Y-83365000D02*
X143330603Y-83269761D01*
X143330603Y-83269761D02*
X143278222Y-83079285D01*
X143278222Y-83079285D02*
X143278222Y-82745952D01*
X143278222Y-82745952D02*
X143330603Y-82555476D01*
X143330603Y-82555476D02*
X143435365Y-82460238D01*
X143435365Y-82460238D02*
X143540127Y-82412619D01*
X144430603Y-82507857D02*
X144482984Y-82460238D01*
X144482984Y-82460238D02*
X144587746Y-82412619D01*
X144587746Y-82412619D02*
X144849651Y-82412619D01*
X144849651Y-82412619D02*
X144954413Y-82460238D01*
X144954413Y-82460238D02*
X145006794Y-82507857D01*
X145006794Y-82507857D02*
X145059175Y-82603095D01*
X145059175Y-82603095D02*
X145059175Y-82698333D01*
X145059175Y-82698333D02*
X145006794Y-82841190D01*
X145006794Y-82841190D02*
X144378222Y-83412619D01*
X144378222Y-83412619D02*
X145059175Y-83412619D01*
X145425841Y-82412619D02*
X146106794Y-82412619D01*
X146106794Y-82412619D02*
X145740127Y-82793571D01*
X145740127Y-82793571D02*
X145897270Y-82793571D01*
X145897270Y-82793571D02*
X146002032Y-82841190D01*
X146002032Y-82841190D02*
X146054413Y-82888809D01*
X146054413Y-82888809D02*
X146106794Y-82984047D01*
X146106794Y-82984047D02*
X146106794Y-83222142D01*
X146106794Y-83222142D02*
X146054413Y-83317380D01*
X146054413Y-83317380D02*
X146002032Y-83365000D01*
X146002032Y-83365000D02*
X145897270Y-83412619D01*
X145897270Y-83412619D02*
X145582984Y-83412619D01*
X145582984Y-83412619D02*
X145478222Y-83365000D01*
X145478222Y-83365000D02*
X145425841Y-83317380D01*
X141182984Y-84960238D02*
X141078222Y-84912619D01*
X141078222Y-84912619D02*
X140921079Y-84912619D01*
X140921079Y-84912619D02*
X140763936Y-84960238D01*
X140763936Y-84960238D02*
X140659174Y-85055476D01*
X140659174Y-85055476D02*
X140606793Y-85150714D01*
X140606793Y-85150714D02*
X140554412Y-85341190D01*
X140554412Y-85341190D02*
X140554412Y-85484047D01*
X140554412Y-85484047D02*
X140606793Y-85674523D01*
X140606793Y-85674523D02*
X140659174Y-85769761D01*
X140659174Y-85769761D02*
X140763936Y-85865000D01*
X140763936Y-85865000D02*
X140921079Y-85912619D01*
X140921079Y-85912619D02*
X141025841Y-85912619D01*
X141025841Y-85912619D02*
X141182984Y-85865000D01*
X141182984Y-85865000D02*
X141235365Y-85817380D01*
X141235365Y-85817380D02*
X141235365Y-85484047D01*
X141235365Y-85484047D02*
X141025841Y-85484047D01*
X141706793Y-85912619D02*
X141706793Y-84912619D01*
X141706793Y-84912619D02*
X142125841Y-84912619D01*
X142125841Y-84912619D02*
X142230603Y-84960238D01*
X142230603Y-84960238D02*
X142282984Y-85007857D01*
X142282984Y-85007857D02*
X142335365Y-85103095D01*
X142335365Y-85103095D02*
X142335365Y-85245952D01*
X142335365Y-85245952D02*
X142282984Y-85341190D01*
X142282984Y-85341190D02*
X142230603Y-85388809D01*
X142230603Y-85388809D02*
X142125841Y-85436428D01*
X142125841Y-85436428D02*
X141706793Y-85436428D01*
X142806793Y-85912619D02*
X142806793Y-84912619D01*
X143540127Y-84912619D02*
X143749651Y-84912619D01*
X143749651Y-84912619D02*
X143854413Y-84960238D01*
X143854413Y-84960238D02*
X143959175Y-85055476D01*
X143959175Y-85055476D02*
X144011556Y-85245952D01*
X144011556Y-85245952D02*
X144011556Y-85579285D01*
X144011556Y-85579285D02*
X143959175Y-85769761D01*
X143959175Y-85769761D02*
X143854413Y-85865000D01*
X143854413Y-85865000D02*
X143749651Y-85912619D01*
X143749651Y-85912619D02*
X143540127Y-85912619D01*
X143540127Y-85912619D02*
X143435365Y-85865000D01*
X143435365Y-85865000D02*
X143330603Y-85769761D01*
X143330603Y-85769761D02*
X143278222Y-85579285D01*
X143278222Y-85579285D02*
X143278222Y-85245952D01*
X143278222Y-85245952D02*
X143330603Y-85055476D01*
X143330603Y-85055476D02*
X143435365Y-84960238D01*
X143435365Y-84960238D02*
X143540127Y-84912619D01*
X144430603Y-85007857D02*
X144482984Y-84960238D01*
X144482984Y-84960238D02*
X144587746Y-84912619D01*
X144587746Y-84912619D02*
X144849651Y-84912619D01*
X144849651Y-84912619D02*
X144954413Y-84960238D01*
X144954413Y-84960238D02*
X145006794Y-85007857D01*
X145006794Y-85007857D02*
X145059175Y-85103095D01*
X145059175Y-85103095D02*
X145059175Y-85198333D01*
X145059175Y-85198333D02*
X145006794Y-85341190D01*
X145006794Y-85341190D02*
X144378222Y-85912619D01*
X144378222Y-85912619D02*
X145059175Y-85912619D01*
X145478222Y-85007857D02*
X145530603Y-84960238D01*
X145530603Y-84960238D02*
X145635365Y-84912619D01*
X145635365Y-84912619D02*
X145897270Y-84912619D01*
X145897270Y-84912619D02*
X146002032Y-84960238D01*
X146002032Y-84960238D02*
X146054413Y-85007857D01*
X146054413Y-85007857D02*
X146106794Y-85103095D01*
X146106794Y-85103095D02*
X146106794Y-85198333D01*
X146106794Y-85198333D02*
X146054413Y-85341190D01*
X146054413Y-85341190D02*
X145425841Y-85912619D01*
X145425841Y-85912619D02*
X146106794Y-85912619D01*
X141182984Y-92960238D02*
X141078222Y-92912619D01*
X141078222Y-92912619D02*
X140921079Y-92912619D01*
X140921079Y-92912619D02*
X140763936Y-92960238D01*
X140763936Y-92960238D02*
X140659174Y-93055476D01*
X140659174Y-93055476D02*
X140606793Y-93150714D01*
X140606793Y-93150714D02*
X140554412Y-93341190D01*
X140554412Y-93341190D02*
X140554412Y-93484047D01*
X140554412Y-93484047D02*
X140606793Y-93674523D01*
X140606793Y-93674523D02*
X140659174Y-93769761D01*
X140659174Y-93769761D02*
X140763936Y-93865000D01*
X140763936Y-93865000D02*
X140921079Y-93912619D01*
X140921079Y-93912619D02*
X141025841Y-93912619D01*
X141025841Y-93912619D02*
X141182984Y-93865000D01*
X141182984Y-93865000D02*
X141235365Y-93817380D01*
X141235365Y-93817380D02*
X141235365Y-93484047D01*
X141235365Y-93484047D02*
X141025841Y-93484047D01*
X141706793Y-93912619D02*
X141706793Y-92912619D01*
X141706793Y-92912619D02*
X142125841Y-92912619D01*
X142125841Y-92912619D02*
X142230603Y-92960238D01*
X142230603Y-92960238D02*
X142282984Y-93007857D01*
X142282984Y-93007857D02*
X142335365Y-93103095D01*
X142335365Y-93103095D02*
X142335365Y-93245952D01*
X142335365Y-93245952D02*
X142282984Y-93341190D01*
X142282984Y-93341190D02*
X142230603Y-93388809D01*
X142230603Y-93388809D02*
X142125841Y-93436428D01*
X142125841Y-93436428D02*
X141706793Y-93436428D01*
X142806793Y-93912619D02*
X142806793Y-92912619D01*
X143540127Y-92912619D02*
X143749651Y-92912619D01*
X143749651Y-92912619D02*
X143854413Y-92960238D01*
X143854413Y-92960238D02*
X143959175Y-93055476D01*
X143959175Y-93055476D02*
X144011556Y-93245952D01*
X144011556Y-93245952D02*
X144011556Y-93579285D01*
X144011556Y-93579285D02*
X143959175Y-93769761D01*
X143959175Y-93769761D02*
X143854413Y-93865000D01*
X143854413Y-93865000D02*
X143749651Y-93912619D01*
X143749651Y-93912619D02*
X143540127Y-93912619D01*
X143540127Y-93912619D02*
X143435365Y-93865000D01*
X143435365Y-93865000D02*
X143330603Y-93769761D01*
X143330603Y-93769761D02*
X143278222Y-93579285D01*
X143278222Y-93579285D02*
X143278222Y-93245952D01*
X143278222Y-93245952D02*
X143330603Y-93055476D01*
X143330603Y-93055476D02*
X143435365Y-92960238D01*
X143435365Y-92960238D02*
X143540127Y-92912619D01*
X144430603Y-93007857D02*
X144482984Y-92960238D01*
X144482984Y-92960238D02*
X144587746Y-92912619D01*
X144587746Y-92912619D02*
X144849651Y-92912619D01*
X144849651Y-92912619D02*
X144954413Y-92960238D01*
X144954413Y-92960238D02*
X145006794Y-93007857D01*
X145006794Y-93007857D02*
X145059175Y-93103095D01*
X145059175Y-93103095D02*
X145059175Y-93198333D01*
X145059175Y-93198333D02*
X145006794Y-93341190D01*
X145006794Y-93341190D02*
X144378222Y-93912619D01*
X144378222Y-93912619D02*
X145059175Y-93912619D01*
X146106794Y-93912619D02*
X145478222Y-93912619D01*
X145792508Y-93912619D02*
X145792508Y-92912619D01*
X145792508Y-92912619D02*
X145687746Y-93055476D01*
X145687746Y-93055476D02*
X145582984Y-93150714D01*
X145582984Y-93150714D02*
X145478222Y-93198333D01*
X141182984Y-95460238D02*
X141078222Y-95412619D01*
X141078222Y-95412619D02*
X140921079Y-95412619D01*
X140921079Y-95412619D02*
X140763936Y-95460238D01*
X140763936Y-95460238D02*
X140659174Y-95555476D01*
X140659174Y-95555476D02*
X140606793Y-95650714D01*
X140606793Y-95650714D02*
X140554412Y-95841190D01*
X140554412Y-95841190D02*
X140554412Y-95984047D01*
X140554412Y-95984047D02*
X140606793Y-96174523D01*
X140606793Y-96174523D02*
X140659174Y-96269761D01*
X140659174Y-96269761D02*
X140763936Y-96365000D01*
X140763936Y-96365000D02*
X140921079Y-96412619D01*
X140921079Y-96412619D02*
X141025841Y-96412619D01*
X141025841Y-96412619D02*
X141182984Y-96365000D01*
X141182984Y-96365000D02*
X141235365Y-96317380D01*
X141235365Y-96317380D02*
X141235365Y-95984047D01*
X141235365Y-95984047D02*
X141025841Y-95984047D01*
X141706793Y-96412619D02*
X141706793Y-95412619D01*
X141706793Y-95412619D02*
X142125841Y-95412619D01*
X142125841Y-95412619D02*
X142230603Y-95460238D01*
X142230603Y-95460238D02*
X142282984Y-95507857D01*
X142282984Y-95507857D02*
X142335365Y-95603095D01*
X142335365Y-95603095D02*
X142335365Y-95745952D01*
X142335365Y-95745952D02*
X142282984Y-95841190D01*
X142282984Y-95841190D02*
X142230603Y-95888809D01*
X142230603Y-95888809D02*
X142125841Y-95936428D01*
X142125841Y-95936428D02*
X141706793Y-95936428D01*
X142806793Y-96412619D02*
X142806793Y-95412619D01*
X143540127Y-95412619D02*
X143749651Y-95412619D01*
X143749651Y-95412619D02*
X143854413Y-95460238D01*
X143854413Y-95460238D02*
X143959175Y-95555476D01*
X143959175Y-95555476D02*
X144011556Y-95745952D01*
X144011556Y-95745952D02*
X144011556Y-96079285D01*
X144011556Y-96079285D02*
X143959175Y-96269761D01*
X143959175Y-96269761D02*
X143854413Y-96365000D01*
X143854413Y-96365000D02*
X143749651Y-96412619D01*
X143749651Y-96412619D02*
X143540127Y-96412619D01*
X143540127Y-96412619D02*
X143435365Y-96365000D01*
X143435365Y-96365000D02*
X143330603Y-96269761D01*
X143330603Y-96269761D02*
X143278222Y-96079285D01*
X143278222Y-96079285D02*
X143278222Y-95745952D01*
X143278222Y-95745952D02*
X143330603Y-95555476D01*
X143330603Y-95555476D02*
X143435365Y-95460238D01*
X143435365Y-95460238D02*
X143540127Y-95412619D01*
X145059175Y-96412619D02*
X144430603Y-96412619D01*
X144744889Y-96412619D02*
X144744889Y-95412619D01*
X144744889Y-95412619D02*
X144640127Y-95555476D01*
X144640127Y-95555476D02*
X144535365Y-95650714D01*
X144535365Y-95650714D02*
X144430603Y-95698333D01*
X145582984Y-96412619D02*
X145792508Y-96412619D01*
X145792508Y-96412619D02*
X145897270Y-96365000D01*
X145897270Y-96365000D02*
X145949651Y-96317380D01*
X145949651Y-96317380D02*
X146054413Y-96174523D01*
X146054413Y-96174523D02*
X146106794Y-95984047D01*
X146106794Y-95984047D02*
X146106794Y-95603095D01*
X146106794Y-95603095D02*
X146054413Y-95507857D01*
X146054413Y-95507857D02*
X146002032Y-95460238D01*
X146002032Y-95460238D02*
X145897270Y-95412619D01*
X145897270Y-95412619D02*
X145687746Y-95412619D01*
X145687746Y-95412619D02*
X145582984Y-95460238D01*
X145582984Y-95460238D02*
X145530603Y-95507857D01*
X145530603Y-95507857D02*
X145478222Y-95603095D01*
X145478222Y-95603095D02*
X145478222Y-95841190D01*
X145478222Y-95841190D02*
X145530603Y-95936428D01*
X145530603Y-95936428D02*
X145582984Y-95984047D01*
X145582984Y-95984047D02*
X145687746Y-96031666D01*
X145687746Y-96031666D02*
X145897270Y-96031666D01*
X145897270Y-96031666D02*
X146002032Y-95984047D01*
X146002032Y-95984047D02*
X146054413Y-95936428D01*
X146054413Y-95936428D02*
X146106794Y-95841190D01*
X141182984Y-97960238D02*
X141078222Y-97912619D01*
X141078222Y-97912619D02*
X140921079Y-97912619D01*
X140921079Y-97912619D02*
X140763936Y-97960238D01*
X140763936Y-97960238D02*
X140659174Y-98055476D01*
X140659174Y-98055476D02*
X140606793Y-98150714D01*
X140606793Y-98150714D02*
X140554412Y-98341190D01*
X140554412Y-98341190D02*
X140554412Y-98484047D01*
X140554412Y-98484047D02*
X140606793Y-98674523D01*
X140606793Y-98674523D02*
X140659174Y-98769761D01*
X140659174Y-98769761D02*
X140763936Y-98865000D01*
X140763936Y-98865000D02*
X140921079Y-98912619D01*
X140921079Y-98912619D02*
X141025841Y-98912619D01*
X141025841Y-98912619D02*
X141182984Y-98865000D01*
X141182984Y-98865000D02*
X141235365Y-98817380D01*
X141235365Y-98817380D02*
X141235365Y-98484047D01*
X141235365Y-98484047D02*
X141025841Y-98484047D01*
X141706793Y-98912619D02*
X141706793Y-97912619D01*
X141706793Y-97912619D02*
X142125841Y-97912619D01*
X142125841Y-97912619D02*
X142230603Y-97960238D01*
X142230603Y-97960238D02*
X142282984Y-98007857D01*
X142282984Y-98007857D02*
X142335365Y-98103095D01*
X142335365Y-98103095D02*
X142335365Y-98245952D01*
X142335365Y-98245952D02*
X142282984Y-98341190D01*
X142282984Y-98341190D02*
X142230603Y-98388809D01*
X142230603Y-98388809D02*
X142125841Y-98436428D01*
X142125841Y-98436428D02*
X141706793Y-98436428D01*
X142806793Y-98912619D02*
X142806793Y-97912619D01*
X143540127Y-97912619D02*
X143749651Y-97912619D01*
X143749651Y-97912619D02*
X143854413Y-97960238D01*
X143854413Y-97960238D02*
X143959175Y-98055476D01*
X143959175Y-98055476D02*
X144011556Y-98245952D01*
X144011556Y-98245952D02*
X144011556Y-98579285D01*
X144011556Y-98579285D02*
X143959175Y-98769761D01*
X143959175Y-98769761D02*
X143854413Y-98865000D01*
X143854413Y-98865000D02*
X143749651Y-98912619D01*
X143749651Y-98912619D02*
X143540127Y-98912619D01*
X143540127Y-98912619D02*
X143435365Y-98865000D01*
X143435365Y-98865000D02*
X143330603Y-98769761D01*
X143330603Y-98769761D02*
X143278222Y-98579285D01*
X143278222Y-98579285D02*
X143278222Y-98245952D01*
X143278222Y-98245952D02*
X143330603Y-98055476D01*
X143330603Y-98055476D02*
X143435365Y-97960238D01*
X143435365Y-97960238D02*
X143540127Y-97912619D01*
X145059175Y-98912619D02*
X144430603Y-98912619D01*
X144744889Y-98912619D02*
X144744889Y-97912619D01*
X144744889Y-97912619D02*
X144640127Y-98055476D01*
X144640127Y-98055476D02*
X144535365Y-98150714D01*
X144535365Y-98150714D02*
X144430603Y-98198333D01*
X145687746Y-98341190D02*
X145582984Y-98293571D01*
X145582984Y-98293571D02*
X145530603Y-98245952D01*
X145530603Y-98245952D02*
X145478222Y-98150714D01*
X145478222Y-98150714D02*
X145478222Y-98103095D01*
X145478222Y-98103095D02*
X145530603Y-98007857D01*
X145530603Y-98007857D02*
X145582984Y-97960238D01*
X145582984Y-97960238D02*
X145687746Y-97912619D01*
X145687746Y-97912619D02*
X145897270Y-97912619D01*
X145897270Y-97912619D02*
X146002032Y-97960238D01*
X146002032Y-97960238D02*
X146054413Y-98007857D01*
X146054413Y-98007857D02*
X146106794Y-98103095D01*
X146106794Y-98103095D02*
X146106794Y-98150714D01*
X146106794Y-98150714D02*
X146054413Y-98245952D01*
X146054413Y-98245952D02*
X146002032Y-98293571D01*
X146002032Y-98293571D02*
X145897270Y-98341190D01*
X145897270Y-98341190D02*
X145687746Y-98341190D01*
X145687746Y-98341190D02*
X145582984Y-98388809D01*
X145582984Y-98388809D02*
X145530603Y-98436428D01*
X145530603Y-98436428D02*
X145478222Y-98531666D01*
X145478222Y-98531666D02*
X145478222Y-98722142D01*
X145478222Y-98722142D02*
X145530603Y-98817380D01*
X145530603Y-98817380D02*
X145582984Y-98865000D01*
X145582984Y-98865000D02*
X145687746Y-98912619D01*
X145687746Y-98912619D02*
X145897270Y-98912619D01*
X145897270Y-98912619D02*
X146002032Y-98865000D01*
X146002032Y-98865000D02*
X146054413Y-98817380D01*
X146054413Y-98817380D02*
X146106794Y-98722142D01*
X146106794Y-98722142D02*
X146106794Y-98531666D01*
X146106794Y-98531666D02*
X146054413Y-98436428D01*
X146054413Y-98436428D02*
X146002032Y-98388809D01*
X146002032Y-98388809D02*
X145897270Y-98341190D01*
X141182984Y-102960238D02*
X141078222Y-102912619D01*
X141078222Y-102912619D02*
X140921079Y-102912619D01*
X140921079Y-102912619D02*
X140763936Y-102960238D01*
X140763936Y-102960238D02*
X140659174Y-103055476D01*
X140659174Y-103055476D02*
X140606793Y-103150714D01*
X140606793Y-103150714D02*
X140554412Y-103341190D01*
X140554412Y-103341190D02*
X140554412Y-103484047D01*
X140554412Y-103484047D02*
X140606793Y-103674523D01*
X140606793Y-103674523D02*
X140659174Y-103769761D01*
X140659174Y-103769761D02*
X140763936Y-103865000D01*
X140763936Y-103865000D02*
X140921079Y-103912619D01*
X140921079Y-103912619D02*
X141025841Y-103912619D01*
X141025841Y-103912619D02*
X141182984Y-103865000D01*
X141182984Y-103865000D02*
X141235365Y-103817380D01*
X141235365Y-103817380D02*
X141235365Y-103484047D01*
X141235365Y-103484047D02*
X141025841Y-103484047D01*
X141706793Y-103912619D02*
X141706793Y-102912619D01*
X141706793Y-102912619D02*
X142125841Y-102912619D01*
X142125841Y-102912619D02*
X142230603Y-102960238D01*
X142230603Y-102960238D02*
X142282984Y-103007857D01*
X142282984Y-103007857D02*
X142335365Y-103103095D01*
X142335365Y-103103095D02*
X142335365Y-103245952D01*
X142335365Y-103245952D02*
X142282984Y-103341190D01*
X142282984Y-103341190D02*
X142230603Y-103388809D01*
X142230603Y-103388809D02*
X142125841Y-103436428D01*
X142125841Y-103436428D02*
X141706793Y-103436428D01*
X142806793Y-103912619D02*
X142806793Y-102912619D01*
X143540127Y-102912619D02*
X143749651Y-102912619D01*
X143749651Y-102912619D02*
X143854413Y-102960238D01*
X143854413Y-102960238D02*
X143959175Y-103055476D01*
X143959175Y-103055476D02*
X144011556Y-103245952D01*
X144011556Y-103245952D02*
X144011556Y-103579285D01*
X144011556Y-103579285D02*
X143959175Y-103769761D01*
X143959175Y-103769761D02*
X143854413Y-103865000D01*
X143854413Y-103865000D02*
X143749651Y-103912619D01*
X143749651Y-103912619D02*
X143540127Y-103912619D01*
X143540127Y-103912619D02*
X143435365Y-103865000D01*
X143435365Y-103865000D02*
X143330603Y-103769761D01*
X143330603Y-103769761D02*
X143278222Y-103579285D01*
X143278222Y-103579285D02*
X143278222Y-103245952D01*
X143278222Y-103245952D02*
X143330603Y-103055476D01*
X143330603Y-103055476D02*
X143435365Y-102960238D01*
X143435365Y-102960238D02*
X143540127Y-102912619D01*
X145059175Y-103912619D02*
X144430603Y-103912619D01*
X144744889Y-103912619D02*
X144744889Y-102912619D01*
X144744889Y-102912619D02*
X144640127Y-103055476D01*
X144640127Y-103055476D02*
X144535365Y-103150714D01*
X144535365Y-103150714D02*
X144430603Y-103198333D01*
X145425841Y-102912619D02*
X146159175Y-102912619D01*
X146159175Y-102912619D02*
X145687746Y-103912619D01*
X141182984Y-105460238D02*
X141078222Y-105412619D01*
X141078222Y-105412619D02*
X140921079Y-105412619D01*
X140921079Y-105412619D02*
X140763936Y-105460238D01*
X140763936Y-105460238D02*
X140659174Y-105555476D01*
X140659174Y-105555476D02*
X140606793Y-105650714D01*
X140606793Y-105650714D02*
X140554412Y-105841190D01*
X140554412Y-105841190D02*
X140554412Y-105984047D01*
X140554412Y-105984047D02*
X140606793Y-106174523D01*
X140606793Y-106174523D02*
X140659174Y-106269761D01*
X140659174Y-106269761D02*
X140763936Y-106365000D01*
X140763936Y-106365000D02*
X140921079Y-106412619D01*
X140921079Y-106412619D02*
X141025841Y-106412619D01*
X141025841Y-106412619D02*
X141182984Y-106365000D01*
X141182984Y-106365000D02*
X141235365Y-106317380D01*
X141235365Y-106317380D02*
X141235365Y-105984047D01*
X141235365Y-105984047D02*
X141025841Y-105984047D01*
X141706793Y-106412619D02*
X141706793Y-105412619D01*
X141706793Y-105412619D02*
X142125841Y-105412619D01*
X142125841Y-105412619D02*
X142230603Y-105460238D01*
X142230603Y-105460238D02*
X142282984Y-105507857D01*
X142282984Y-105507857D02*
X142335365Y-105603095D01*
X142335365Y-105603095D02*
X142335365Y-105745952D01*
X142335365Y-105745952D02*
X142282984Y-105841190D01*
X142282984Y-105841190D02*
X142230603Y-105888809D01*
X142230603Y-105888809D02*
X142125841Y-105936428D01*
X142125841Y-105936428D02*
X141706793Y-105936428D01*
X142806793Y-106412619D02*
X142806793Y-105412619D01*
X143540127Y-105412619D02*
X143749651Y-105412619D01*
X143749651Y-105412619D02*
X143854413Y-105460238D01*
X143854413Y-105460238D02*
X143959175Y-105555476D01*
X143959175Y-105555476D02*
X144011556Y-105745952D01*
X144011556Y-105745952D02*
X144011556Y-106079285D01*
X144011556Y-106079285D02*
X143959175Y-106269761D01*
X143959175Y-106269761D02*
X143854413Y-106365000D01*
X143854413Y-106365000D02*
X143749651Y-106412619D01*
X143749651Y-106412619D02*
X143540127Y-106412619D01*
X143540127Y-106412619D02*
X143435365Y-106365000D01*
X143435365Y-106365000D02*
X143330603Y-106269761D01*
X143330603Y-106269761D02*
X143278222Y-106079285D01*
X143278222Y-106079285D02*
X143278222Y-105745952D01*
X143278222Y-105745952D02*
X143330603Y-105555476D01*
X143330603Y-105555476D02*
X143435365Y-105460238D01*
X143435365Y-105460238D02*
X143540127Y-105412619D01*
X145059175Y-106412619D02*
X144430603Y-106412619D01*
X144744889Y-106412619D02*
X144744889Y-105412619D01*
X144744889Y-105412619D02*
X144640127Y-105555476D01*
X144640127Y-105555476D02*
X144535365Y-105650714D01*
X144535365Y-105650714D02*
X144430603Y-105698333D01*
X146002032Y-105412619D02*
X145792508Y-105412619D01*
X145792508Y-105412619D02*
X145687746Y-105460238D01*
X145687746Y-105460238D02*
X145635365Y-105507857D01*
X145635365Y-105507857D02*
X145530603Y-105650714D01*
X145530603Y-105650714D02*
X145478222Y-105841190D01*
X145478222Y-105841190D02*
X145478222Y-106222142D01*
X145478222Y-106222142D02*
X145530603Y-106317380D01*
X145530603Y-106317380D02*
X145582984Y-106365000D01*
X145582984Y-106365000D02*
X145687746Y-106412619D01*
X145687746Y-106412619D02*
X145897270Y-106412619D01*
X145897270Y-106412619D02*
X146002032Y-106365000D01*
X146002032Y-106365000D02*
X146054413Y-106317380D01*
X146054413Y-106317380D02*
X146106794Y-106222142D01*
X146106794Y-106222142D02*
X146106794Y-105984047D01*
X146106794Y-105984047D02*
X146054413Y-105888809D01*
X146054413Y-105888809D02*
X146002032Y-105841190D01*
X146002032Y-105841190D02*
X145897270Y-105793571D01*
X145897270Y-105793571D02*
X145687746Y-105793571D01*
X145687746Y-105793571D02*
X145582984Y-105841190D01*
X145582984Y-105841190D02*
X145530603Y-105888809D01*
X145530603Y-105888809D02*
X145478222Y-105984047D01*
X141182984Y-112960238D02*
X141078222Y-112912619D01*
X141078222Y-112912619D02*
X140921079Y-112912619D01*
X140921079Y-112912619D02*
X140763936Y-112960238D01*
X140763936Y-112960238D02*
X140659174Y-113055476D01*
X140659174Y-113055476D02*
X140606793Y-113150714D01*
X140606793Y-113150714D02*
X140554412Y-113341190D01*
X140554412Y-113341190D02*
X140554412Y-113484047D01*
X140554412Y-113484047D02*
X140606793Y-113674523D01*
X140606793Y-113674523D02*
X140659174Y-113769761D01*
X140659174Y-113769761D02*
X140763936Y-113865000D01*
X140763936Y-113865000D02*
X140921079Y-113912619D01*
X140921079Y-113912619D02*
X141025841Y-113912619D01*
X141025841Y-113912619D02*
X141182984Y-113865000D01*
X141182984Y-113865000D02*
X141235365Y-113817380D01*
X141235365Y-113817380D02*
X141235365Y-113484047D01*
X141235365Y-113484047D02*
X141025841Y-113484047D01*
X141706793Y-113912619D02*
X141706793Y-112912619D01*
X141706793Y-112912619D02*
X142125841Y-112912619D01*
X142125841Y-112912619D02*
X142230603Y-112960238D01*
X142230603Y-112960238D02*
X142282984Y-113007857D01*
X142282984Y-113007857D02*
X142335365Y-113103095D01*
X142335365Y-113103095D02*
X142335365Y-113245952D01*
X142335365Y-113245952D02*
X142282984Y-113341190D01*
X142282984Y-113341190D02*
X142230603Y-113388809D01*
X142230603Y-113388809D02*
X142125841Y-113436428D01*
X142125841Y-113436428D02*
X141706793Y-113436428D01*
X142806793Y-113912619D02*
X142806793Y-112912619D01*
X143540127Y-112912619D02*
X143749651Y-112912619D01*
X143749651Y-112912619D02*
X143854413Y-112960238D01*
X143854413Y-112960238D02*
X143959175Y-113055476D01*
X143959175Y-113055476D02*
X144011556Y-113245952D01*
X144011556Y-113245952D02*
X144011556Y-113579285D01*
X144011556Y-113579285D02*
X143959175Y-113769761D01*
X143959175Y-113769761D02*
X143854413Y-113865000D01*
X143854413Y-113865000D02*
X143749651Y-113912619D01*
X143749651Y-113912619D02*
X143540127Y-113912619D01*
X143540127Y-113912619D02*
X143435365Y-113865000D01*
X143435365Y-113865000D02*
X143330603Y-113769761D01*
X143330603Y-113769761D02*
X143278222Y-113579285D01*
X143278222Y-113579285D02*
X143278222Y-113245952D01*
X143278222Y-113245952D02*
X143330603Y-113055476D01*
X143330603Y-113055476D02*
X143435365Y-112960238D01*
X143435365Y-112960238D02*
X143540127Y-112912619D01*
X145059175Y-113912619D02*
X144430603Y-113912619D01*
X144744889Y-113912619D02*
X144744889Y-112912619D01*
X144744889Y-112912619D02*
X144640127Y-113055476D01*
X144640127Y-113055476D02*
X144535365Y-113150714D01*
X144535365Y-113150714D02*
X144430603Y-113198333D01*
X146054413Y-112912619D02*
X145530603Y-112912619D01*
X145530603Y-112912619D02*
X145478222Y-113388809D01*
X145478222Y-113388809D02*
X145530603Y-113341190D01*
X145530603Y-113341190D02*
X145635365Y-113293571D01*
X145635365Y-113293571D02*
X145897270Y-113293571D01*
X145897270Y-113293571D02*
X146002032Y-113341190D01*
X146002032Y-113341190D02*
X146054413Y-113388809D01*
X146054413Y-113388809D02*
X146106794Y-113484047D01*
X146106794Y-113484047D02*
X146106794Y-113722142D01*
X146106794Y-113722142D02*
X146054413Y-113817380D01*
X146054413Y-113817380D02*
X146002032Y-113865000D01*
X146002032Y-113865000D02*
X145897270Y-113912619D01*
X145897270Y-113912619D02*
X145635365Y-113912619D01*
X145635365Y-113912619D02*
X145530603Y-113865000D01*
X145530603Y-113865000D02*
X145478222Y-113817380D01*
X142182984Y-87460238D02*
X142078222Y-87412619D01*
X142078222Y-87412619D02*
X141921079Y-87412619D01*
X141921079Y-87412619D02*
X141763936Y-87460238D01*
X141763936Y-87460238D02*
X141659174Y-87555476D01*
X141659174Y-87555476D02*
X141606793Y-87650714D01*
X141606793Y-87650714D02*
X141554412Y-87841190D01*
X141554412Y-87841190D02*
X141554412Y-87984047D01*
X141554412Y-87984047D02*
X141606793Y-88174523D01*
X141606793Y-88174523D02*
X141659174Y-88269761D01*
X141659174Y-88269761D02*
X141763936Y-88365000D01*
X141763936Y-88365000D02*
X141921079Y-88412619D01*
X141921079Y-88412619D02*
X142025841Y-88412619D01*
X142025841Y-88412619D02*
X142182984Y-88365000D01*
X142182984Y-88365000D02*
X142235365Y-88317380D01*
X142235365Y-88317380D02*
X142235365Y-87984047D01*
X142235365Y-87984047D02*
X142025841Y-87984047D01*
X142706793Y-88412619D02*
X142706793Y-87412619D01*
X142706793Y-87412619D02*
X143125841Y-87412619D01*
X143125841Y-87412619D02*
X143230603Y-87460238D01*
X143230603Y-87460238D02*
X143282984Y-87507857D01*
X143282984Y-87507857D02*
X143335365Y-87603095D01*
X143335365Y-87603095D02*
X143335365Y-87745952D01*
X143335365Y-87745952D02*
X143282984Y-87841190D01*
X143282984Y-87841190D02*
X143230603Y-87888809D01*
X143230603Y-87888809D02*
X143125841Y-87936428D01*
X143125841Y-87936428D02*
X142706793Y-87936428D01*
X143806793Y-88412619D02*
X143806793Y-87412619D01*
X144540127Y-87412619D02*
X144749651Y-87412619D01*
X144749651Y-87412619D02*
X144854413Y-87460238D01*
X144854413Y-87460238D02*
X144959175Y-87555476D01*
X144959175Y-87555476D02*
X145011556Y-87745952D01*
X145011556Y-87745952D02*
X145011556Y-88079285D01*
X145011556Y-88079285D02*
X144959175Y-88269761D01*
X144959175Y-88269761D02*
X144854413Y-88365000D01*
X144854413Y-88365000D02*
X144749651Y-88412619D01*
X144749651Y-88412619D02*
X144540127Y-88412619D01*
X144540127Y-88412619D02*
X144435365Y-88365000D01*
X144435365Y-88365000D02*
X144330603Y-88269761D01*
X144330603Y-88269761D02*
X144278222Y-88079285D01*
X144278222Y-88079285D02*
X144278222Y-87745952D01*
X144278222Y-87745952D02*
X144330603Y-87555476D01*
X144330603Y-87555476D02*
X144435365Y-87460238D01*
X144435365Y-87460238D02*
X144540127Y-87412619D01*
X146059175Y-88412619D02*
X145430603Y-88412619D01*
X145744889Y-88412619D02*
X145744889Y-87412619D01*
X145744889Y-87412619D02*
X145640127Y-87555476D01*
X145640127Y-87555476D02*
X145535365Y-87650714D01*
X145535365Y-87650714D02*
X145430603Y-87698333D01*
X142182984Y-90460238D02*
X142078222Y-90412619D01*
X142078222Y-90412619D02*
X141921079Y-90412619D01*
X141921079Y-90412619D02*
X141763936Y-90460238D01*
X141763936Y-90460238D02*
X141659174Y-90555476D01*
X141659174Y-90555476D02*
X141606793Y-90650714D01*
X141606793Y-90650714D02*
X141554412Y-90841190D01*
X141554412Y-90841190D02*
X141554412Y-90984047D01*
X141554412Y-90984047D02*
X141606793Y-91174523D01*
X141606793Y-91174523D02*
X141659174Y-91269761D01*
X141659174Y-91269761D02*
X141763936Y-91365000D01*
X141763936Y-91365000D02*
X141921079Y-91412619D01*
X141921079Y-91412619D02*
X142025841Y-91412619D01*
X142025841Y-91412619D02*
X142182984Y-91365000D01*
X142182984Y-91365000D02*
X142235365Y-91317380D01*
X142235365Y-91317380D02*
X142235365Y-90984047D01*
X142235365Y-90984047D02*
X142025841Y-90984047D01*
X142706793Y-91412619D02*
X142706793Y-90412619D01*
X142706793Y-90412619D02*
X143125841Y-90412619D01*
X143125841Y-90412619D02*
X143230603Y-90460238D01*
X143230603Y-90460238D02*
X143282984Y-90507857D01*
X143282984Y-90507857D02*
X143335365Y-90603095D01*
X143335365Y-90603095D02*
X143335365Y-90745952D01*
X143335365Y-90745952D02*
X143282984Y-90841190D01*
X143282984Y-90841190D02*
X143230603Y-90888809D01*
X143230603Y-90888809D02*
X143125841Y-90936428D01*
X143125841Y-90936428D02*
X142706793Y-90936428D01*
X143806793Y-91412619D02*
X143806793Y-90412619D01*
X144540127Y-90412619D02*
X144749651Y-90412619D01*
X144749651Y-90412619D02*
X144854413Y-90460238D01*
X144854413Y-90460238D02*
X144959175Y-90555476D01*
X144959175Y-90555476D02*
X145011556Y-90745952D01*
X145011556Y-90745952D02*
X145011556Y-91079285D01*
X145011556Y-91079285D02*
X144959175Y-91269761D01*
X144959175Y-91269761D02*
X144854413Y-91365000D01*
X144854413Y-91365000D02*
X144749651Y-91412619D01*
X144749651Y-91412619D02*
X144540127Y-91412619D01*
X144540127Y-91412619D02*
X144435365Y-91365000D01*
X144435365Y-91365000D02*
X144330603Y-91269761D01*
X144330603Y-91269761D02*
X144278222Y-91079285D01*
X144278222Y-91079285D02*
X144278222Y-90745952D01*
X144278222Y-90745952D02*
X144330603Y-90555476D01*
X144330603Y-90555476D02*
X144435365Y-90460238D01*
X144435365Y-90460238D02*
X144540127Y-90412619D01*
X145378222Y-90412619D02*
X146059175Y-90412619D01*
X146059175Y-90412619D02*
X145692508Y-90793571D01*
X145692508Y-90793571D02*
X145849651Y-90793571D01*
X145849651Y-90793571D02*
X145954413Y-90841190D01*
X145954413Y-90841190D02*
X146006794Y-90888809D01*
X146006794Y-90888809D02*
X146059175Y-90984047D01*
X146059175Y-90984047D02*
X146059175Y-91222142D01*
X146059175Y-91222142D02*
X146006794Y-91317380D01*
X146006794Y-91317380D02*
X145954413Y-91365000D01*
X145954413Y-91365000D02*
X145849651Y-91412619D01*
X145849651Y-91412619D02*
X145535365Y-91412619D01*
X145535365Y-91412619D02*
X145430603Y-91365000D01*
X145430603Y-91365000D02*
X145378222Y-91317380D01*
X142182984Y-100460238D02*
X142078222Y-100412619D01*
X142078222Y-100412619D02*
X141921079Y-100412619D01*
X141921079Y-100412619D02*
X141763936Y-100460238D01*
X141763936Y-100460238D02*
X141659174Y-100555476D01*
X141659174Y-100555476D02*
X141606793Y-100650714D01*
X141606793Y-100650714D02*
X141554412Y-100841190D01*
X141554412Y-100841190D02*
X141554412Y-100984047D01*
X141554412Y-100984047D02*
X141606793Y-101174523D01*
X141606793Y-101174523D02*
X141659174Y-101269761D01*
X141659174Y-101269761D02*
X141763936Y-101365000D01*
X141763936Y-101365000D02*
X141921079Y-101412619D01*
X141921079Y-101412619D02*
X142025841Y-101412619D01*
X142025841Y-101412619D02*
X142182984Y-101365000D01*
X142182984Y-101365000D02*
X142235365Y-101317380D01*
X142235365Y-101317380D02*
X142235365Y-100984047D01*
X142235365Y-100984047D02*
X142025841Y-100984047D01*
X142706793Y-101412619D02*
X142706793Y-100412619D01*
X142706793Y-100412619D02*
X143125841Y-100412619D01*
X143125841Y-100412619D02*
X143230603Y-100460238D01*
X143230603Y-100460238D02*
X143282984Y-100507857D01*
X143282984Y-100507857D02*
X143335365Y-100603095D01*
X143335365Y-100603095D02*
X143335365Y-100745952D01*
X143335365Y-100745952D02*
X143282984Y-100841190D01*
X143282984Y-100841190D02*
X143230603Y-100888809D01*
X143230603Y-100888809D02*
X143125841Y-100936428D01*
X143125841Y-100936428D02*
X142706793Y-100936428D01*
X143806793Y-101412619D02*
X143806793Y-100412619D01*
X144540127Y-100412619D02*
X144749651Y-100412619D01*
X144749651Y-100412619D02*
X144854413Y-100460238D01*
X144854413Y-100460238D02*
X144959175Y-100555476D01*
X144959175Y-100555476D02*
X145011556Y-100745952D01*
X145011556Y-100745952D02*
X145011556Y-101079285D01*
X145011556Y-101079285D02*
X144959175Y-101269761D01*
X144959175Y-101269761D02*
X144854413Y-101365000D01*
X144854413Y-101365000D02*
X144749651Y-101412619D01*
X144749651Y-101412619D02*
X144540127Y-101412619D01*
X144540127Y-101412619D02*
X144435365Y-101365000D01*
X144435365Y-101365000D02*
X144330603Y-101269761D01*
X144330603Y-101269761D02*
X144278222Y-101079285D01*
X144278222Y-101079285D02*
X144278222Y-100745952D01*
X144278222Y-100745952D02*
X144330603Y-100555476D01*
X144330603Y-100555476D02*
X144435365Y-100460238D01*
X144435365Y-100460238D02*
X144540127Y-100412619D01*
X146006794Y-100412619D02*
X145482984Y-100412619D01*
X145482984Y-100412619D02*
X145430603Y-100888809D01*
X145430603Y-100888809D02*
X145482984Y-100841190D01*
X145482984Y-100841190D02*
X145587746Y-100793571D01*
X145587746Y-100793571D02*
X145849651Y-100793571D01*
X145849651Y-100793571D02*
X145954413Y-100841190D01*
X145954413Y-100841190D02*
X146006794Y-100888809D01*
X146006794Y-100888809D02*
X146059175Y-100984047D01*
X146059175Y-100984047D02*
X146059175Y-101222142D01*
X146059175Y-101222142D02*
X146006794Y-101317380D01*
X146006794Y-101317380D02*
X145954413Y-101365000D01*
X145954413Y-101365000D02*
X145849651Y-101412619D01*
X145849651Y-101412619D02*
X145587746Y-101412619D01*
X145587746Y-101412619D02*
X145482984Y-101365000D01*
X145482984Y-101365000D02*
X145430603Y-101317380D01*
X142182984Y-107960238D02*
X142078222Y-107912619D01*
X142078222Y-107912619D02*
X141921079Y-107912619D01*
X141921079Y-107912619D02*
X141763936Y-107960238D01*
X141763936Y-107960238D02*
X141659174Y-108055476D01*
X141659174Y-108055476D02*
X141606793Y-108150714D01*
X141606793Y-108150714D02*
X141554412Y-108341190D01*
X141554412Y-108341190D02*
X141554412Y-108484047D01*
X141554412Y-108484047D02*
X141606793Y-108674523D01*
X141606793Y-108674523D02*
X141659174Y-108769761D01*
X141659174Y-108769761D02*
X141763936Y-108865000D01*
X141763936Y-108865000D02*
X141921079Y-108912619D01*
X141921079Y-108912619D02*
X142025841Y-108912619D01*
X142025841Y-108912619D02*
X142182984Y-108865000D01*
X142182984Y-108865000D02*
X142235365Y-108817380D01*
X142235365Y-108817380D02*
X142235365Y-108484047D01*
X142235365Y-108484047D02*
X142025841Y-108484047D01*
X142706793Y-108912619D02*
X142706793Y-107912619D01*
X142706793Y-107912619D02*
X143125841Y-107912619D01*
X143125841Y-107912619D02*
X143230603Y-107960238D01*
X143230603Y-107960238D02*
X143282984Y-108007857D01*
X143282984Y-108007857D02*
X143335365Y-108103095D01*
X143335365Y-108103095D02*
X143335365Y-108245952D01*
X143335365Y-108245952D02*
X143282984Y-108341190D01*
X143282984Y-108341190D02*
X143230603Y-108388809D01*
X143230603Y-108388809D02*
X143125841Y-108436428D01*
X143125841Y-108436428D02*
X142706793Y-108436428D01*
X143806793Y-108912619D02*
X143806793Y-107912619D01*
X144540127Y-107912619D02*
X144749651Y-107912619D01*
X144749651Y-107912619D02*
X144854413Y-107960238D01*
X144854413Y-107960238D02*
X144959175Y-108055476D01*
X144959175Y-108055476D02*
X145011556Y-108245952D01*
X145011556Y-108245952D02*
X145011556Y-108579285D01*
X145011556Y-108579285D02*
X144959175Y-108769761D01*
X144959175Y-108769761D02*
X144854413Y-108865000D01*
X144854413Y-108865000D02*
X144749651Y-108912619D01*
X144749651Y-108912619D02*
X144540127Y-108912619D01*
X144540127Y-108912619D02*
X144435365Y-108865000D01*
X144435365Y-108865000D02*
X144330603Y-108769761D01*
X144330603Y-108769761D02*
X144278222Y-108579285D01*
X144278222Y-108579285D02*
X144278222Y-108245952D01*
X144278222Y-108245952D02*
X144330603Y-108055476D01*
X144330603Y-108055476D02*
X144435365Y-107960238D01*
X144435365Y-107960238D02*
X144540127Y-107912619D01*
X145954413Y-108245952D02*
X145954413Y-108912619D01*
X145692508Y-107865000D02*
X145430603Y-108579285D01*
X145430603Y-108579285D02*
X146111556Y-108579285D01*
X142182984Y-110460238D02*
X142078222Y-110412619D01*
X142078222Y-110412619D02*
X141921079Y-110412619D01*
X141921079Y-110412619D02*
X141763936Y-110460238D01*
X141763936Y-110460238D02*
X141659174Y-110555476D01*
X141659174Y-110555476D02*
X141606793Y-110650714D01*
X141606793Y-110650714D02*
X141554412Y-110841190D01*
X141554412Y-110841190D02*
X141554412Y-110984047D01*
X141554412Y-110984047D02*
X141606793Y-111174523D01*
X141606793Y-111174523D02*
X141659174Y-111269761D01*
X141659174Y-111269761D02*
X141763936Y-111365000D01*
X141763936Y-111365000D02*
X141921079Y-111412619D01*
X141921079Y-111412619D02*
X142025841Y-111412619D01*
X142025841Y-111412619D02*
X142182984Y-111365000D01*
X142182984Y-111365000D02*
X142235365Y-111317380D01*
X142235365Y-111317380D02*
X142235365Y-110984047D01*
X142235365Y-110984047D02*
X142025841Y-110984047D01*
X142706793Y-111412619D02*
X142706793Y-110412619D01*
X142706793Y-110412619D02*
X143125841Y-110412619D01*
X143125841Y-110412619D02*
X143230603Y-110460238D01*
X143230603Y-110460238D02*
X143282984Y-110507857D01*
X143282984Y-110507857D02*
X143335365Y-110603095D01*
X143335365Y-110603095D02*
X143335365Y-110745952D01*
X143335365Y-110745952D02*
X143282984Y-110841190D01*
X143282984Y-110841190D02*
X143230603Y-110888809D01*
X143230603Y-110888809D02*
X143125841Y-110936428D01*
X143125841Y-110936428D02*
X142706793Y-110936428D01*
X143806793Y-111412619D02*
X143806793Y-110412619D01*
X144540127Y-110412619D02*
X144749651Y-110412619D01*
X144749651Y-110412619D02*
X144854413Y-110460238D01*
X144854413Y-110460238D02*
X144959175Y-110555476D01*
X144959175Y-110555476D02*
X145011556Y-110745952D01*
X145011556Y-110745952D02*
X145011556Y-111079285D01*
X145011556Y-111079285D02*
X144959175Y-111269761D01*
X144959175Y-111269761D02*
X144854413Y-111365000D01*
X144854413Y-111365000D02*
X144749651Y-111412619D01*
X144749651Y-111412619D02*
X144540127Y-111412619D01*
X144540127Y-111412619D02*
X144435365Y-111365000D01*
X144435365Y-111365000D02*
X144330603Y-111269761D01*
X144330603Y-111269761D02*
X144278222Y-111079285D01*
X144278222Y-111079285D02*
X144278222Y-110745952D01*
X144278222Y-110745952D02*
X144330603Y-110555476D01*
X144330603Y-110555476D02*
X144435365Y-110460238D01*
X144435365Y-110460238D02*
X144540127Y-110412619D01*
X145430603Y-110507857D02*
X145482984Y-110460238D01*
X145482984Y-110460238D02*
X145587746Y-110412619D01*
X145587746Y-110412619D02*
X145849651Y-110412619D01*
X145849651Y-110412619D02*
X145954413Y-110460238D01*
X145954413Y-110460238D02*
X146006794Y-110507857D01*
X146006794Y-110507857D02*
X146059175Y-110603095D01*
X146059175Y-110603095D02*
X146059175Y-110698333D01*
X146059175Y-110698333D02*
X146006794Y-110841190D01*
X146006794Y-110841190D02*
X145378222Y-111412619D01*
X145378222Y-111412619D02*
X146059175Y-111412619D01*
X143682984Y-115460238D02*
X143578222Y-115412619D01*
X143578222Y-115412619D02*
X143421079Y-115412619D01*
X143421079Y-115412619D02*
X143263936Y-115460238D01*
X143263936Y-115460238D02*
X143159174Y-115555476D01*
X143159174Y-115555476D02*
X143106793Y-115650714D01*
X143106793Y-115650714D02*
X143054412Y-115841190D01*
X143054412Y-115841190D02*
X143054412Y-115984047D01*
X143054412Y-115984047D02*
X143106793Y-116174523D01*
X143106793Y-116174523D02*
X143159174Y-116269761D01*
X143159174Y-116269761D02*
X143263936Y-116365000D01*
X143263936Y-116365000D02*
X143421079Y-116412619D01*
X143421079Y-116412619D02*
X143525841Y-116412619D01*
X143525841Y-116412619D02*
X143682984Y-116365000D01*
X143682984Y-116365000D02*
X143735365Y-116317380D01*
X143735365Y-116317380D02*
X143735365Y-115984047D01*
X143735365Y-115984047D02*
X143525841Y-115984047D01*
X144206793Y-116412619D02*
X144206793Y-115412619D01*
X144206793Y-115412619D02*
X144835365Y-116412619D01*
X144835365Y-116412619D02*
X144835365Y-115412619D01*
X145359174Y-116412619D02*
X145359174Y-115412619D01*
X145359174Y-115412619D02*
X145621079Y-115412619D01*
X145621079Y-115412619D02*
X145778222Y-115460238D01*
X145778222Y-115460238D02*
X145882984Y-115555476D01*
X145882984Y-115555476D02*
X145935365Y-115650714D01*
X145935365Y-115650714D02*
X145987746Y-115841190D01*
X145987746Y-115841190D02*
X145987746Y-115984047D01*
X145987746Y-115984047D02*
X145935365Y-116174523D01*
X145935365Y-116174523D02*
X145882984Y-116269761D01*
X145882984Y-116269761D02*
X145778222Y-116365000D01*
X145778222Y-116365000D02*
X145621079Y-116412619D01*
X145621079Y-116412619D02*
X145359174Y-116412619D01*
X143002031Y-117912619D02*
X143682984Y-117912619D01*
X143682984Y-117912619D02*
X143316317Y-118293571D01*
X143316317Y-118293571D02*
X143473460Y-118293571D01*
X143473460Y-118293571D02*
X143578222Y-118341190D01*
X143578222Y-118341190D02*
X143630603Y-118388809D01*
X143630603Y-118388809D02*
X143682984Y-118484047D01*
X143682984Y-118484047D02*
X143682984Y-118722142D01*
X143682984Y-118722142D02*
X143630603Y-118817380D01*
X143630603Y-118817380D02*
X143578222Y-118865000D01*
X143578222Y-118865000D02*
X143473460Y-118912619D01*
X143473460Y-118912619D02*
X143159174Y-118912619D01*
X143159174Y-118912619D02*
X143054412Y-118865000D01*
X143054412Y-118865000D02*
X143002031Y-118817380D01*
X144154412Y-118817380D02*
X144206793Y-118865000D01*
X144206793Y-118865000D02*
X144154412Y-118912619D01*
X144154412Y-118912619D02*
X144102031Y-118865000D01*
X144102031Y-118865000D02*
X144154412Y-118817380D01*
X144154412Y-118817380D02*
X144154412Y-118912619D01*
X144573460Y-117912619D02*
X145254413Y-117912619D01*
X145254413Y-117912619D02*
X144887746Y-118293571D01*
X144887746Y-118293571D02*
X145044889Y-118293571D01*
X145044889Y-118293571D02*
X145149651Y-118341190D01*
X145149651Y-118341190D02*
X145202032Y-118388809D01*
X145202032Y-118388809D02*
X145254413Y-118484047D01*
X145254413Y-118484047D02*
X145254413Y-118722142D01*
X145254413Y-118722142D02*
X145202032Y-118817380D01*
X145202032Y-118817380D02*
X145149651Y-118865000D01*
X145149651Y-118865000D02*
X145044889Y-118912619D01*
X145044889Y-118912619D02*
X144730603Y-118912619D01*
X144730603Y-118912619D02*
X144625841Y-118865000D01*
X144625841Y-118865000D02*
X144573460Y-118817380D01*
X145621079Y-118245952D02*
X145882984Y-118912619D01*
X145882984Y-118912619D02*
X146144889Y-118245952D01*
D11*
X169384919Y-115283833D02*
X170099204Y-115283833D01*
X170099204Y-115283833D02*
X170242061Y-115331452D01*
X170242061Y-115331452D02*
X170337300Y-115426690D01*
X170337300Y-115426690D02*
X170384919Y-115569547D01*
X170384919Y-115569547D02*
X170384919Y-115664785D01*
X170384919Y-114283833D02*
X170384919Y-114855261D01*
X170384919Y-114569547D02*
X169384919Y-114569547D01*
X169384919Y-114569547D02*
X169527776Y-114664785D01*
X169527776Y-114664785D02*
X169623014Y-114760023D01*
X169623014Y-114760023D02*
X169670633Y-114855261D01*
X120104819Y-125761904D02*
X119104819Y-125761904D01*
X119581009Y-125761904D02*
X119581009Y-125190476D01*
X120104819Y-125190476D02*
X119104819Y-125190476D01*
X119200057Y-124761904D02*
X119152438Y-124714285D01*
X119152438Y-124714285D02*
X119104819Y-124619047D01*
X119104819Y-124619047D02*
X119104819Y-124380952D01*
X119104819Y-124380952D02*
X119152438Y-124285714D01*
X119152438Y-124285714D02*
X119200057Y-124238095D01*
X119200057Y-124238095D02*
X119295295Y-124190476D01*
X119295295Y-124190476D02*
X119390533Y-124190476D01*
X119390533Y-124190476D02*
X119533390Y-124238095D01*
X119533390Y-124238095D02*
X120104819Y-124809523D01*
X120104819Y-124809523D02*
X120104819Y-124190476D01*
%TO.C,J3*%
D12*
X170935400Y-95320100D02*
X177675400Y-95320100D01*
X170935400Y-101140100D02*
X170935400Y-95320100D01*
X172655400Y-101140100D02*
X172655400Y-95320100D01*
X175755400Y-101140100D02*
X175755400Y-95320100D01*
X176755400Y-101140100D02*
X176755400Y-95320100D01*
X177675400Y-95320100D02*
X177675400Y-99200100D01*
X177675400Y-99800100D02*
X177675400Y-101140100D01*
X177675400Y-101140100D02*
X170935400Y-101140100D01*
X177675400Y-99500100D02*
X178285400Y-99060100D01*
X178285400Y-99940100D01*
X177675400Y-99500100D01*
G36*
X178285400Y-99940100D02*
G01*
X177675400Y-99500100D01*
X178285400Y-99060100D01*
X178285400Y-99940100D01*
G37*
%TO.C,R3*%
X166410100Y-92007758D02*
X166410100Y-91533242D01*
X167455100Y-92007758D02*
X167455100Y-91533242D01*
%TO.C,U2*%
D10*
X163588000Y-127882000D02*
X163588000Y-125850000D01*
X152412000Y-84194000D02*
X161556000Y-84194000D01*
X161556000Y-86734000D01*
X152412000Y-86734000D01*
X152412000Y-84194000D01*
X152412000Y-125604000D02*
X161556000Y-125604000D01*
X161556000Y-128144000D01*
X152412000Y-128144000D01*
X152412000Y-125604000D01*
X149984000Y-84144000D02*
X163984000Y-84144000D01*
X163984000Y-128144000D01*
X149984000Y-128144000D01*
X149984000Y-84144000D01*
%TO.C,J4*%
D12*
X150810000Y-79880000D02*
X150810000Y-78500000D01*
X152190000Y-79880000D02*
X150810000Y-79880000D01*
X153460000Y-77120000D02*
X161190000Y-77120000D01*
X153460000Y-79880000D02*
X153460000Y-77120000D01*
X153460000Y-79880000D02*
X161190000Y-79880000D01*
X161190000Y-79880000D02*
X161190000Y-77120000D01*
%TO.C,R2*%
X174410100Y-92007758D02*
X174410100Y-91533242D01*
X175455100Y-92007758D02*
X175455100Y-91533242D01*
%TO.C,BZ1*%
X177600000Y-82500000D02*
G75*
G02*
X165400000Y-82500000I-6100000J0D01*
G01*
X165400000Y-82500000D02*
G75*
G02*
X177600000Y-82500000I6100000J0D01*
G01*
%TO.C,R1*%
X170410100Y-91533242D02*
X170410100Y-92007758D01*
X171455100Y-91533242D02*
X171455100Y-92007758D01*
%TO.C,J5*%
X113415000Y-115915000D02*
X114795000Y-115915000D01*
X113415000Y-117295000D02*
X113415000Y-115915000D01*
X113415000Y-118565000D02*
X113415000Y-121215000D01*
X113415000Y-118565000D02*
X116175000Y-118565000D01*
X113415000Y-121215000D02*
X116175000Y-121215000D01*
X116175000Y-118565000D02*
X116175000Y-121215000D01*
%TO.C,J2*%
X170935400Y-103540500D02*
X177675400Y-103540500D01*
X170935400Y-109360500D02*
X170935400Y-103540500D01*
X172655400Y-109360500D02*
X172655400Y-103540500D01*
X175755400Y-109360500D02*
X175755400Y-103540500D01*
X176755400Y-109360500D02*
X176755400Y-103540500D01*
X177675400Y-103540500D02*
X177675400Y-107420500D01*
X177675400Y-108020500D02*
X177675400Y-109360500D01*
X177675400Y-109360500D02*
X170935400Y-109360500D01*
X177675400Y-107720500D02*
X178285400Y-107280500D01*
X178285400Y-108160500D01*
X177675400Y-107720500D01*
G36*
X178285400Y-108160500D02*
G01*
X177675400Y-107720500D01*
X178285400Y-107280500D01*
X178285400Y-108160500D01*
G37*
%TO.C,U1*%
D10*
X130969100Y-122400200D02*
X138589100Y-122400200D01*
X130969100Y-126540199D02*
X130969100Y-122400200D01*
X138589100Y-122400200D02*
X138589100Y-126540199D01*
D13*
X120449100Y-76540200D02*
X148749100Y-76540200D01*
X148749100Y-126640200D01*
X120449100Y-126640200D01*
X120449100Y-76540200D01*
%TO.C,J1*%
D12*
X170930100Y-112040500D02*
X177670100Y-112040500D01*
X170930100Y-117860500D02*
X170930100Y-112040500D01*
X172650100Y-117860500D02*
X172650100Y-112040500D01*
X175750100Y-117860500D02*
X175750100Y-112040500D01*
X176750100Y-117860500D02*
X176750100Y-112040500D01*
X177670100Y-112040500D02*
X177670100Y-115920500D01*
X177670100Y-116520500D02*
X177670100Y-117860500D01*
X177670100Y-117860500D02*
X170930100Y-117860500D01*
X177670100Y-116220500D02*
X178280100Y-115780500D01*
X178280100Y-116660500D01*
X177670100Y-116220500D01*
G36*
X178280100Y-116660500D02*
G01*
X177670100Y-116220500D01*
X178280100Y-115780500D01*
X178280100Y-116660500D01*
G37*
%TD*%
M02*
