%TF.GenerationSoftware,KiCad,Pcbnew,10.0.2*%
%TF.CreationDate,2026-05-22T13:30:26+05:30*%
%TF.ProjectId,pcb,7063622e-6b69-4636-9164-5f7063625858,rev?*%
%TF.SameCoordinates,Original*%
%TF.FileFunction,Soldermask,Top*%
%TF.FilePolarity,Negative*%
%FSLAX46Y46*%
G04 Gerber Fmt 4.6, Leading zero omitted, Abs format (unit mm)*
G04 Created by KiCad (PCBNEW 10.0.2) date 2026-05-22 13:30:26*
%MOMM*%
%LPD*%
G01*
G04 APERTURE LIST*
G04 Aperture macros list*
%AMRoundRect*
0 Rectangle with rounded corners*
0 $1 Rounding radius*
0 $2 $3 $4 $5 $6 $7 $8 $9 X,Y pos of 4 corners*
0 Add a 4 corners polygon primitive as box body*
4,1,4,$2,$3,$4,$5,$6,$7,$8,$9,$2,$3,0*
0 Add four circle primitives for the rounded corners*
1,1,$1+$1,$2,$3*
1,1,$1+$1,$4,$5*
1,1,$1+$1,$6,$7*
1,1,$1+$1,$8,$9*
0 Add four rect primitives between the rounded corners*
20,1,$1+$1,$2,$3,$4,$5,0*
20,1,$1+$1,$4,$5,$6,$7,0*
20,1,$1+$1,$6,$7,$8,$9,0*
20,1,$1+$1,$8,$9,$2,$3,0*%
G04 Aperture macros list end*
%ADD10RoundRect,0.250000X1.050000X-1.050000X1.050000X1.050000X-1.050000X1.050000X-1.050000X-1.050000X0*%
%ADD11C,2.600000*%
%ADD12R,1.700000X1.700000*%
%ADD13C,1.700000*%
%ADD14C,2.000000*%
%ADD15C,2.700000*%
%ADD16O,1.900000X1.524000*%
%ADD17RoundRect,0.150000X0.150000X-0.587500X0.150000X0.587500X-0.150000X0.587500X-0.150000X-0.587500X0*%
G04 APERTURE END LIST*
D10*
%TO.C,J3*%
X186957300Y-118197700D03*
D11*
X186957300Y-113117700D03*
X186957300Y-108037700D03*
X186957300Y-102957700D03*
X186957300Y-97877700D03*
X186957300Y-92797700D03*
X186957300Y-87717700D03*
%TD*%
D12*
%TO.C,J2*%
X176000000Y-81915000D03*
D13*
X176000000Y-84455000D03*
X176000000Y-86995000D03*
X176000000Y-89535000D03*
X176000000Y-92075000D03*
X176000000Y-94615000D03*
X176000000Y-97155000D03*
X176000000Y-99695000D03*
X176000000Y-102235000D03*
X176000000Y-104775000D03*
%TD*%
D14*
%TO.C,J4*%
X171120000Y-118120000D03*
%TD*%
%TO.C,J4*%
X173660000Y-115580000D03*
%TD*%
%TO.C,J4*%
X178740000Y-113040000D03*
%TD*%
%TO.C,J4*%
X166040000Y-115580000D03*
%TD*%
%TO.C,J4*%
X176200000Y-120660000D03*
%TD*%
%TO.C,J4*%
X176200000Y-123200000D03*
%TD*%
%TO.C,J4*%
X173660000Y-110500000D03*
%TD*%
D15*
%TO.C,H1*%
X116000000Y-80000000D03*
%TD*%
D14*
%TO.C,J4*%
X173660000Y-113040000D03*
%TD*%
%TO.C,J4*%
X173660000Y-118120000D03*
%TD*%
%TO.C,J4*%
X168580000Y-115580000D03*
%TD*%
%TO.C,J4*%
X171120000Y-110500000D03*
%TD*%
%TO.C,J4*%
X171120000Y-115580000D03*
%TD*%
%TO.C,J4*%
X168580000Y-120660000D03*
%TD*%
D12*
%TO.C,J8*%
X153420000Y-133000000D03*
D13*
X155960000Y-133000000D03*
X158500000Y-133000000D03*
X161040000Y-133000000D03*
%TD*%
D14*
%TO.C,J4*%
X171120000Y-123200000D03*
%TD*%
%TO.C,J4*%
X166040000Y-113040000D03*
%TD*%
%TO.C,J4*%
X178740000Y-120660000D03*
%TD*%
%TO.C,J4*%
X173660000Y-120660000D03*
%TD*%
%TO.C,J4*%
X178740000Y-110500000D03*
%TD*%
%TO.C,J4*%
X178740000Y-118120000D03*
%TD*%
%TO.C,J4*%
X163500000Y-110500000D03*
%TD*%
%TO.C,J4*%
X163500000Y-115580000D03*
%TD*%
%TO.C,J4*%
X163500000Y-113040000D03*
%TD*%
%TO.C,J4*%
X168580000Y-123200000D03*
%TD*%
D15*
%TO.C,H3*%
X187987000Y-80000000D03*
%TD*%
D14*
%TO.C,J4*%
X171120000Y-113040000D03*
%TD*%
D12*
%TO.C,J5*%
X115944100Y-124967200D03*
D13*
X115944100Y-122427200D03*
X115944100Y-119887200D03*
X115944100Y-117347200D03*
X115944100Y-114807200D03*
X115944100Y-112267200D03*
X115944100Y-109727200D03*
X115944100Y-107187200D03*
X115944100Y-104647200D03*
X115944100Y-102107200D03*
X115944100Y-99567200D03*
X115944100Y-97027200D03*
X115944100Y-94487200D03*
X115944100Y-91947200D03*
X115944100Y-89407200D03*
%TD*%
D14*
%TO.C,J4*%
X176200000Y-118120000D03*
%TD*%
%TO.C,J4*%
X176200000Y-113040000D03*
%TD*%
D12*
%TO.C,J1*%
X164245000Y-81915000D03*
D13*
X164245000Y-84455000D03*
X164245000Y-86995000D03*
X164245000Y-89535000D03*
X164245000Y-92075000D03*
X164245000Y-94615000D03*
X164245000Y-97155000D03*
X164245000Y-99695000D03*
X164245000Y-102235000D03*
X164245000Y-104775000D03*
%TD*%
D14*
%TO.C,J4*%
X171120000Y-120660000D03*
%TD*%
%TO.C,J4*%
X163500000Y-123200000D03*
%TD*%
%TO.C,J4*%
X163500000Y-118120000D03*
%TD*%
%TO.C,J4*%
X178740000Y-123200000D03*
%TD*%
%TO.C,J4*%
X166040000Y-118120000D03*
%TD*%
%TO.C,J4*%
X168580000Y-110500000D03*
%TD*%
%TO.C,J4*%
X163500000Y-120660000D03*
%TD*%
%TO.C,J4*%
X166040000Y-110500000D03*
%TD*%
%TO.C,J4*%
X173660000Y-123200000D03*
%TD*%
%TO.C,J4*%
X176200000Y-115580000D03*
%TD*%
%TO.C,J4*%
X168580000Y-113040000D03*
%TD*%
%TO.C,J4*%
X166040000Y-120660000D03*
%TD*%
D16*
%TO.C,U1*%
X147346640Y-89432487D03*
X147346640Y-91972487D03*
X147346640Y-94512487D03*
X147346640Y-97052487D03*
X147346640Y-99592487D03*
X147346640Y-102132487D03*
X147346640Y-104672487D03*
X147346640Y-107212487D03*
X147346640Y-109752487D03*
X147346640Y-112292487D03*
X147346640Y-114832487D03*
X147346640Y-117372487D03*
X147346640Y-119912487D03*
X147346640Y-122452487D03*
X147346640Y-124992487D03*
X121946640Y-89432487D03*
X121946640Y-91972487D03*
X121946640Y-94512487D03*
X121946640Y-97052487D03*
X121946640Y-99592487D03*
X121946640Y-102132487D03*
X121946640Y-104672487D03*
X121946640Y-107212487D03*
X121946640Y-109752487D03*
X121946640Y-112292487D03*
X121946640Y-114832487D03*
X121946640Y-117372487D03*
X121946640Y-119912487D03*
X121946640Y-122452487D03*
X121946640Y-124992487D03*
%TD*%
D17*
%TO.C,Q1*%
X158550000Y-110937500D03*
X160450000Y-110937500D03*
X159500000Y-109062500D03*
%TD*%
D12*
%TO.C,J6*%
X153400000Y-125000000D03*
D13*
X153400000Y-122460000D03*
X153400000Y-119920000D03*
X153400000Y-117380000D03*
X153400000Y-114840000D03*
X153400000Y-112300000D03*
X153400000Y-109760000D03*
X153400000Y-107220000D03*
X153400000Y-104680000D03*
X153400000Y-102140000D03*
X153400000Y-99600000D03*
X153400000Y-97060000D03*
X153400000Y-94520000D03*
X153400000Y-91980000D03*
X153400000Y-89440000D03*
%TD*%
D10*
%TO.C,J7*%
X187000000Y-130000000D03*
D11*
X187000000Y-124920000D03*
%TD*%
D14*
%TO.C,J4*%
X166040000Y-123200000D03*
%TD*%
D15*
%TO.C,H4*%
X177063200Y-130500000D03*
%TD*%
D14*
%TO.C,J4*%
X176200000Y-110500000D03*
%TD*%
D15*
%TO.C,H2*%
X115987000Y-132000000D03*
%TD*%
D14*
%TO.C,J4*%
X178740000Y-115580000D03*
%TD*%
%TO.C,J4*%
X168580000Y-118120000D03*
%TD*%
M02*
