%TF.GenerationSoftware,KiCad,Pcbnew,10.0.1*%
%TF.CreationDate,2026-09-01T23:54:32+05:30*%
%TF.ProjectId,pcb,7063622e-6b69-4636-9164-5f7063625858,rev?*%
%TF.SameCoordinates,Original*%
%TF.FileFunction,Soldermask,Top*%
%TF.FilePolarity,Negative*%
%FSLAX46Y46*%
G04 Gerber Fmt 4.6, Leading zero omitted, Abs format (unit mm)*
G04 Created by KiCad (PCBNEW 10.0.1) date 2026-09-01 23:54:32*
%MOMM*%
%LPD*%
G01*
G04 APERTURE LIST*
G04 Aperture macros list*
%AMRoundRect*
0 Rectangle with rounded corners*
0 $1 Rounding radius*
0 $2 $3 $4 $5 $6 $7 $8 $9 X,Y pos of 4 corners*
0 Add a 4 corners polygon primitive as box body*
4,1,4,$2,$3,$4,$5,$6,$7,$8,$9,$2,$3,0*
0 Add four circle primitives for the rounded corners*
1,1,$1+$1,$2,$3*
1,1,$1+$1,$4,$5*
1,1,$1+$1,$6,$7*
1,1,$1+$1,$8,$9*
0 Add four rect primitives between the rounded corners*
20,1,$1+$1,$2,$3,$4,$5,0*
20,1,$1+$1,$4,$5,$6,$7,0*
20,1,$1+$1,$6,$7,$8,$9,0*
20,1,$1+$1,$8,$9,$2,$3,0*%
G04 Aperture macros list end*
%ADD10RoundRect,0.200000X0.275000X-0.200000X0.275000X0.200000X-0.275000X0.200000X-0.275000X-0.200000X0*%
%ADD11C,5.400000*%
%ADD12RoundRect,0.200000X0.200000X0.275000X-0.200000X0.275000X-0.200000X-0.275000X0.200000X-0.275000X0*%
%ADD13RoundRect,0.190500X-0.444500X1.079500X-0.444500X-1.079500X0.444500X-1.079500X0.444500X1.079500X0*%
%ADD14RoundRect,0.250000X1.050000X1.050000X-1.050000X1.050000X-1.050000X-1.050000X1.050000X-1.050000X0*%
%ADD15C,2.600000*%
%ADD16R,1.700000X1.700000*%
%ADD17C,1.700000*%
%ADD18RoundRect,0.150000X0.150000X-0.587500X0.150000X0.587500X-0.150000X0.587500X-0.150000X-0.587500X0*%
%ADD19R,2.000000X2.000000*%
%ADD20C,2.000000*%
%ADD21RoundRect,0.250000X0.750000X-0.750000X0.750000X0.750000X-0.750000X0.750000X-0.750000X-0.750000X0*%
%ADD22RoundRect,0.250000X-0.750000X0.750000X-0.750000X-0.750000X0.750000X-0.750000X0.750000X0.750000X0*%
%ADD23O,1.900000X1.524000*%
%ADD24RoundRect,0.200000X-0.200000X-0.275000X0.200000X-0.275000X0.200000X0.275000X-0.200000X0.275000X0*%
G04 APERTURE END LIST*
D10*
%TO.C,R3*%
X166500000Y-103825000D03*
X166500000Y-102175000D03*
%TD*%
D11*
%TO.C,H1*%
X116000000Y-80000000D03*
%TD*%
D12*
%TO.C,R5*%
X167825000Y-115500000D03*
X166175000Y-115500000D03*
%TD*%
D13*
%TO.C,U2*%
X160810000Y-126722000D03*
D14*
X159516000Y-119356000D03*
D13*
X158270000Y-126722000D03*
X155730000Y-126722000D03*
D15*
X154436000Y-119356000D03*
D13*
X153190000Y-126722000D03*
X160810000Y-85320000D03*
X158270000Y-85320000D03*
X155730000Y-85320000D03*
X153190000Y-85320000D03*
%TD*%
D16*
%TO.C,J4*%
X152000000Y-78500000D03*
D17*
X154540000Y-78500000D03*
X157080000Y-78500000D03*
X159620000Y-78500000D03*
%TD*%
D11*
%TO.C,H4*%
X175000000Y-80000000D03*
%TD*%
D18*
%TO.C,Q1*%
X166550000Y-99437500D03*
X168450000Y-99437500D03*
X167500000Y-97562500D03*
%TD*%
D19*
%TO.C,BZ1*%
X172000000Y-86000000D03*
D20*
X172000000Y-93600000D03*
%TD*%
D21*
%TO.C,J3*%
X174000000Y-118500000D03*
D20*
X174000000Y-115960000D03*
%TD*%
D11*
%TO.C,H3*%
X175000000Y-125000000D03*
%TD*%
D22*
%TO.C,J5*%
X116500000Y-112960000D03*
D20*
X116500000Y-115500000D03*
%TD*%
D21*
%TO.C,J2*%
X174000000Y-101500000D03*
D20*
X174000000Y-98960000D03*
%TD*%
D23*
%TO.C,U1*%
X122072460Y-118519813D03*
X122072460Y-115979813D03*
X122072460Y-113439813D03*
X122072460Y-110899813D03*
X122072460Y-108359813D03*
X122072460Y-105819813D03*
X122072460Y-103279813D03*
X122072460Y-100739813D03*
X122072460Y-98199813D03*
X122072460Y-95659813D03*
X122072460Y-93119813D03*
X122072460Y-90579813D03*
X122072460Y-88039813D03*
X122072460Y-85499813D03*
X122072460Y-82959813D03*
X147472460Y-118519813D03*
X147472460Y-115979813D03*
X147472460Y-113439813D03*
X147472460Y-110899813D03*
X147472460Y-108359813D03*
X147472460Y-105819813D03*
X147472460Y-103279813D03*
X147472460Y-100739813D03*
X147472460Y-98199813D03*
X147472460Y-95659813D03*
X147472460Y-93119813D03*
X147472460Y-90579813D03*
X147472460Y-88039813D03*
X147472460Y-85499813D03*
X147472460Y-82959813D03*
%TD*%
D21*
%TO.C,J1*%
X174000000Y-110000000D03*
D20*
X174000000Y-107460000D03*
%TD*%
D24*
%TO.C,R4*%
X166175000Y-118500000D03*
X167825000Y-118500000D03*
%TD*%
D11*
%TO.C,H2*%
X116000000Y-125000000D03*
%TD*%
M02*
