%TF.GenerationSoftware,KiCad,Pcbnew,10.0.2*%
%TF.CreationDate,2026-05-22T13:30:26+05:30*%
%TF.ProjectId,pcb,7063622e-6b69-4636-9164-5f7063625858,rev?*%
%TF.SameCoordinates,Original*%
%TF.FileFunction,Copper,L1,Top*%
%TF.FilePolarity,Positive*%
%FSLAX46Y46*%
G04 Gerber Fmt 4.6, Leading zero omitted, Abs format (unit mm)*
G04 Created by KiCad (PCBNEW 10.0.2) date 2026-05-22 13:30:26*
%MOMM*%
%LPD*%
G01*
G04 APERTURE LIST*
G04 Aperture macros list*
%AMRoundRect*
0 Rectangle with rounded corners*
0 $1 Rounding radius*
0 $2 $3 $4 $5 $6 $7 $8 $9 X,Y pos of 4 corners*
0 Add a 4 corners polygon primitive as box body*
4,1,4,$2,$3,$4,$5,$6,$7,$8,$9,$2,$3,0*
0 Add four circle primitives for the rounded corners*
1,1,$1+$1,$2,$3*
1,1,$1+$1,$4,$5*
1,1,$1+$1,$6,$7*
1,1,$1+$1,$8,$9*
0 Add four rect primitives between the rounded corners*
20,1,$1+$1,$2,$3,$4,$5,0*
20,1,$1+$1,$4,$5,$6,$7,0*
20,1,$1+$1,$6,$7,$8,$9,0*
20,1,$1+$1,$8,$9,$2,$3,0*%
G04 Aperture macros list end*
%TA.AperFunction,ComponentPad*%
%ADD10RoundRect,0.250000X1.050000X-1.050000X1.050000X1.050000X-1.050000X1.050000X-1.050000X-1.050000X0*%
%TD*%
%TA.AperFunction,ComponentPad*%
%ADD11C,2.600000*%
%TD*%
%TA.AperFunction,ComponentPad*%
%ADD12R,1.700000X1.700000*%
%TD*%
%TA.AperFunction,ComponentPad*%
%ADD13C,1.700000*%
%TD*%
%TA.AperFunction,ComponentPad*%
%ADD14C,2.000000*%
%TD*%
%TA.AperFunction,ComponentPad*%
%ADD15O,1.900000X1.524000*%
%TD*%
%TA.AperFunction,SMDPad,CuDef*%
%ADD16RoundRect,0.150000X0.150000X-0.587500X0.150000X0.587500X-0.150000X0.587500X-0.150000X-0.587500X0*%
%TD*%
%TA.AperFunction,Conductor*%
%ADD17C,0.200000*%
%TD*%
G04 APERTURE END LIST*
D10*
%TO.P,J3,1,Pin_1_1*%
%TO.N,/F{slash}R_OUT*%
X186957300Y-118197700D03*
D11*
%TO.P,J3,2,Pin_2_2*%
%TO.N,/EN_OUT*%
X186957300Y-113117700D03*
%TO.P,J3,3,Pin_3_3*%
%TO.N,/BRK_OUT*%
X186957300Y-108037700D03*
%TO.P,J3,4,Pin_4_4*%
%TO.N,/SPEED_OUT*%
X186957300Y-102957700D03*
%TO.P,J3,5,Pin_5_5*%
%TO.N,/ALM_OUT*%
X186957300Y-97877700D03*
%TO.P,J3,6,Pin_6_6*%
%TO.N,GND*%
X186957300Y-92797700D03*
%TO.P,J3,7,Pin_7_7*%
%TO.N,/SV_OUT*%
X186957300Y-87717700D03*
%TD*%
D12*
%TO.P,J2,1,Pin_1_1*%
%TO.N,+5V*%
X176000000Y-81915000D03*
D13*
%TO.P,J2,2,Pin_2_2*%
%TO.N,/SV_OUT*%
X176000000Y-84455000D03*
%TO.P,J2,3,Pin_3_3*%
%TO.N,/ALM_OUT*%
X176000000Y-86995000D03*
%TO.P,J2,4,Pin_4_4*%
%TO.N,/SPEED_OUT*%
X176000000Y-89535000D03*
%TO.P,J2,5,Pin_5_5*%
%TO.N,/BRK_OUT*%
X176000000Y-92075000D03*
%TO.P,J2,6,Pin_6_6*%
%TO.N,/EN_OUT*%
X176000000Y-94615000D03*
%TO.P,J2,7,Pin_7_7*%
%TO.N,/F{slash}R_OUT*%
X176000000Y-97155000D03*
%TO.P,J2,8,Pin_8_8*%
%TO.N,unconnected-(J2-Pin_8-Pad8)*%
X176000000Y-99695000D03*
%TO.P,J2,9,Pin_9_9*%
%TO.N,unconnected-(J2-Pin_9-Pad9)*%
X176000000Y-102235000D03*
%TO.P,J2,10,Pin_10_10*%
%TO.N,GND*%
X176000000Y-104775000D03*
%TD*%
D14*
%TO.P,J4,1,Pin_1_1*%
%TO.N,unconnected-(J4-Pin_1-Pad1)*%
X171120000Y-118120000D03*
%TD*%
%TO.P,J4,1,Pin_1_1*%
%TO.N,unconnected-(J4-Pin_1-Pad1)*%
X173660000Y-115580000D03*
%TD*%
%TO.P,J4,1,Pin_1_1*%
%TO.N,unconnected-(J4-Pin_1-Pad1)*%
X178740000Y-113040000D03*
%TD*%
%TO.P,J4,1,Pin_1_1*%
%TO.N,unconnected-(J4-Pin_1-Pad1)*%
X166040000Y-115580000D03*
%TD*%
%TO.P,J4,1,Pin_1_1*%
%TO.N,unconnected-(J4-Pin_1-Pad1)*%
X176200000Y-120660000D03*
%TD*%
%TO.P,J4,1,Pin_1_1*%
%TO.N,unconnected-(J4-Pin_1-Pad1)*%
X176200000Y-123200000D03*
%TD*%
%TO.P,J4,1,Pin_1_1*%
%TO.N,unconnected-(J4-Pin_1-Pad1)*%
X173660000Y-110500000D03*
%TD*%
%TO.P,J4,1,Pin_1_1*%
%TO.N,unconnected-(J4-Pin_1-Pad1)*%
X173660000Y-113040000D03*
%TD*%
%TO.P,J4,1,Pin_1_1*%
%TO.N,unconnected-(J4-Pin_1-Pad1)*%
X173660000Y-118120000D03*
%TD*%
%TO.P,J4,1,Pin_1_1*%
%TO.N,unconnected-(J4-Pin_1-Pad1)*%
X168580000Y-115580000D03*
%TD*%
%TO.P,J4,1,Pin_1_1*%
%TO.N,unconnected-(J4-Pin_1-Pad1)*%
X171120000Y-110500000D03*
%TD*%
%TO.P,J4,1,Pin_1_1*%
%TO.N,unconnected-(J4-Pin_1-Pad1)*%
X171120000Y-115580000D03*
%TD*%
%TO.P,J4,1,Pin_1_1*%
%TO.N,unconnected-(J4-Pin_1-Pad1)*%
X168580000Y-120660000D03*
%TD*%
D12*
%TO.P,J8,1,Pin_1_1*%
%TO.N,/LED_R*%
X153420000Y-133000000D03*
D13*
%TO.P,J8,2,Pin_2_2*%
%TO.N,GND*%
X155960000Y-133000000D03*
%TO.P,J8,3,Pin_3_3*%
%TO.N,/LED_G*%
X158500000Y-133000000D03*
%TO.P,J8,4,Pin_4_4*%
%TO.N,/LED_B*%
X161040000Y-133000000D03*
%TD*%
D14*
%TO.P,J4,1,Pin_1_1*%
%TO.N,unconnected-(J4-Pin_1-Pad1)*%
X171120000Y-123200000D03*
%TD*%
%TO.P,J4,1,Pin_1_1*%
%TO.N,unconnected-(J4-Pin_1-Pad1)*%
X166040000Y-113040000D03*
%TD*%
%TO.P,J4,1,Pin_1_1*%
%TO.N,unconnected-(J4-Pin_1-Pad1)*%
X178740000Y-120660000D03*
%TD*%
%TO.P,J4,1,Pin_1_1*%
%TO.N,unconnected-(J4-Pin_1-Pad1)*%
X173660000Y-120660000D03*
%TD*%
%TO.P,J4,1,Pin_1_1*%
%TO.N,unconnected-(J4-Pin_1-Pad1)*%
X178740000Y-110500000D03*
%TD*%
%TO.P,J4,1,Pin_1_1*%
%TO.N,unconnected-(J4-Pin_1-Pad1)*%
X178740000Y-118120000D03*
%TD*%
%TO.P,J4,1,Pin_1_1*%
%TO.N,unconnected-(J4-Pin_1-Pad1)*%
X163500000Y-110500000D03*
%TD*%
%TO.P,J4,1,Pin_1_1*%
%TO.N,unconnected-(J4-Pin_1-Pad1)*%
X163500000Y-115580000D03*
%TD*%
%TO.P,J4,1,Pin_1_1*%
%TO.N,unconnected-(J4-Pin_1-Pad1)*%
X163500000Y-113040000D03*
%TD*%
%TO.P,J4,1,Pin_1_1*%
%TO.N,unconnected-(J4-Pin_1-Pad1)*%
X168580000Y-123200000D03*
%TD*%
%TO.P,J4,1,Pin_1_1*%
%TO.N,unconnected-(J4-Pin_1-Pad1)*%
X171120000Y-113040000D03*
%TD*%
D12*
%TO.P,J5,1,Pin_1_1*%
%TO.N,/SWITCH*%
X115944100Y-124967200D03*
D13*
%TO.P,J5,2,Pin_2_2*%
%TO.N,Net-(J5-Pin_2)*%
X115944100Y-122427200D03*
%TO.P,J5,3,Pin_3_3*%
%TO.N,Net-(J5-Pin_3)*%
X115944100Y-119887200D03*
%TO.P,J5,4,Pin_4_4*%
%TO.N,Net-(J5-Pin_4)*%
X115944100Y-117347200D03*
%TO.P,J5,5,Pin_5_5*%
%TO.N,/LED_R*%
X115944100Y-114807200D03*
%TO.P,J5,6,Pin_6_6*%
%TO.N,/LED_G*%
X115944100Y-112267200D03*
%TO.P,J5,7,Pin_7_7*%
%TO.N,/LED_B*%
X115944100Y-109727200D03*
%TO.P,J5,8,Pin_8_8*%
%TO.N,Net-(J5-Pin_8)*%
X115944100Y-107187200D03*
%TO.P,J5,9,Pin_9_9*%
%TO.N,Net-(J5-Pin_9)*%
X115944100Y-104647200D03*
%TO.P,J5,10,Pin_10_10*%
%TO.N,Net-(J5-Pin_10)*%
X115944100Y-102107200D03*
%TO.P,J5,11,Pin_11_11*%
%TO.N,Net-(J5-Pin_11)*%
X115944100Y-99567200D03*
%TO.P,J5,12,Pin_12_12*%
%TO.N,Net-(J5-Pin_12)*%
X115944100Y-97027200D03*
%TO.P,J5,13,Pin_13_13*%
%TO.N,Net-(J5-Pin_13)*%
X115944100Y-94487200D03*
%TO.P,J5,14,Pin_14_14*%
%TO.N,GND*%
X115944100Y-91947200D03*
%TO.P,J5,15,Pin_15_15*%
%TO.N,+3V3*%
X115944100Y-89407200D03*
%TD*%
D14*
%TO.P,J4,1,Pin_1_1*%
%TO.N,unconnected-(J4-Pin_1-Pad1)*%
X176200000Y-118120000D03*
%TD*%
%TO.P,J4,1,Pin_1_1*%
%TO.N,unconnected-(J4-Pin_1-Pad1)*%
X176200000Y-113040000D03*
%TD*%
D12*
%TO.P,J1,1,Pin_1_1*%
%TO.N,+3V3*%
X164245000Y-81915000D03*
D13*
%TO.P,J1,2,Pin_2_2*%
%TO.N,/SV*%
X164245000Y-84455000D03*
%TO.P,J1,3,Pin_3_3*%
%TO.N,/ALM*%
X164245000Y-86995000D03*
%TO.P,J1,4,Pin_4_4*%
%TO.N,/SPEED*%
X164245000Y-89535000D03*
%TO.P,J1,5,Pin_5_5*%
%TO.N,/BRK*%
X164245000Y-92075000D03*
%TO.P,J1,6,Pin_6_6*%
%TO.N,/EN*%
X164245000Y-94615000D03*
%TO.P,J1,7,Pin_7_7*%
%TO.N,/F{slash}R*%
X164245000Y-97155000D03*
%TO.P,J1,8,Pin_8_8*%
%TO.N,unconnected-(J1-Pin_8-Pad8)*%
X164245000Y-99695000D03*
%TO.P,J1,9,Pin_9_9*%
%TO.N,unconnected-(J1-Pin_9-Pad9)*%
X164245000Y-102235000D03*
%TO.P,J1,10,Pin_10_10*%
%TO.N,unconnected-(J1-Pin_10-Pad10)*%
X164245000Y-104775000D03*
%TD*%
D14*
%TO.P,J4,1,Pin_1_1*%
%TO.N,unconnected-(J4-Pin_1-Pad1)*%
X171120000Y-120660000D03*
%TD*%
%TO.P,J4,1,Pin_1_1*%
%TO.N,unconnected-(J4-Pin_1-Pad1)*%
X163500000Y-123200000D03*
%TD*%
%TO.P,J4,1,Pin_1_1*%
%TO.N,unconnected-(J4-Pin_1-Pad1)*%
X163500000Y-118120000D03*
%TD*%
%TO.P,J4,1,Pin_1_1*%
%TO.N,unconnected-(J4-Pin_1-Pad1)*%
X178740000Y-123200000D03*
%TD*%
%TO.P,J4,1,Pin_1_1*%
%TO.N,unconnected-(J4-Pin_1-Pad1)*%
X166040000Y-118120000D03*
%TD*%
%TO.P,J4,1,Pin_1_1*%
%TO.N,unconnected-(J4-Pin_1-Pad1)*%
X168580000Y-110500000D03*
%TD*%
%TO.P,J4,1,Pin_1_1*%
%TO.N,unconnected-(J4-Pin_1-Pad1)*%
X163500000Y-120660000D03*
%TD*%
%TO.P,J4,1,Pin_1_1*%
%TO.N,unconnected-(J4-Pin_1-Pad1)*%
X166040000Y-110500000D03*
%TD*%
%TO.P,J4,1,Pin_1_1*%
%TO.N,unconnected-(J4-Pin_1-Pad1)*%
X173660000Y-123200000D03*
%TD*%
%TO.P,J4,1,Pin_1_1*%
%TO.N,unconnected-(J4-Pin_1-Pad1)*%
X176200000Y-115580000D03*
%TD*%
%TO.P,J4,1,Pin_1_1*%
%TO.N,unconnected-(J4-Pin_1-Pad1)*%
X168580000Y-113040000D03*
%TD*%
%TO.P,J4,1,Pin_1_1*%
%TO.N,unconnected-(J4-Pin_1-Pad1)*%
X166040000Y-120660000D03*
%TD*%
D15*
%TO.P,U1,1,VIN_1*%
%TO.N,+5V*%
X147346640Y-89432487D03*
%TO.P,U1,2,GND_2*%
%TO.N,GND*%
X147346640Y-91972487D03*
%TO.P,U1,3,GPIO13_3*%
%TO.N,/SV*%
X147346640Y-94512487D03*
%TO.P,U1,4,GPIO12_4*%
%TO.N,Net-(J6-Pin_12)*%
X147346640Y-97052487D03*
%TO.P,U1,5,GPIO14_5*%
%TO.N,/ALM*%
X147346640Y-99592487D03*
%TO.P,U1,6,GPIO27_6*%
%TO.N,/SPEED*%
X147346640Y-102132487D03*
%TO.P,U1,7,GPIO26_7*%
%TO.N,/BRK*%
X147346640Y-104672487D03*
%TO.P,U1,8,GPIO25_8*%
%TO.N,/F{slash}R*%
X147346640Y-107212487D03*
%TO.P,U1,9,GPIO33_9*%
%TO.N,/EN_GPIO*%
X147346640Y-109752487D03*
%TO.P,U1,10,GPIO32_10*%
%TO.N,Net-(J6-Pin_6)*%
X147346640Y-112292487D03*
%TO.P,U1,11,GPIO35_11*%
%TO.N,Net-(J6-Pin_5)*%
X147346640Y-114832487D03*
%TO.P,U1,12,GPIO34_12*%
%TO.N,Net-(J6-Pin_4)*%
X147346640Y-117372487D03*
%TO.P,U1,13,GPIO39_13*%
%TO.N,Net-(J6-Pin_3)*%
X147346640Y-119912487D03*
%TO.P,U1,14,GPIO36_14*%
%TO.N,Net-(J6-Pin_2)*%
X147346640Y-122452487D03*
%TO.P,U1,15,EN_15*%
%TO.N,Net-(J6-Pin_1)*%
X147346640Y-124992487D03*
%TO.P,U1,16,3.3v_16*%
%TO.N,+3V3*%
X121946640Y-89432487D03*
%TO.P,U1,17,GND_17*%
%TO.N,GND*%
X121946640Y-91972487D03*
%TO.P,U1,18,GPIO15_18*%
%TO.N,Net-(J5-Pin_13)*%
X121946640Y-94512487D03*
%TO.P,U1,19,GPIO2_19*%
%TO.N,Net-(J5-Pin_12)*%
X121946640Y-97052487D03*
%TO.P,U1,20,GPIO4_20*%
%TO.N,Net-(J5-Pin_11)*%
X121946640Y-99592487D03*
%TO.P,U1,21,GPIO16_21*%
%TO.N,Net-(J5-Pin_10)*%
X121946640Y-102132487D03*
%TO.P,U1,22,GPIO17_22*%
%TO.N,Net-(J5-Pin_9)*%
X121946640Y-104672487D03*
%TO.P,U1,23,GPIO5_23*%
%TO.N,Net-(J5-Pin_8)*%
X121946640Y-107212487D03*
%TO.P,U1,24,GPIO18_24*%
%TO.N,/LED_B*%
X121946640Y-109752487D03*
%TO.P,U1,25,GPIO19_25*%
%TO.N,/LED_G*%
X121946640Y-112292487D03*
%TO.P,U1,26,GPIO21_26*%
%TO.N,/LED_R*%
X121946640Y-114832487D03*
%TO.P,U1,27,GPIO3_27*%
%TO.N,Net-(J5-Pin_4)*%
X121946640Y-117372487D03*
%TO.P,U1,28,GPIO1_28*%
%TO.N,Net-(J5-Pin_3)*%
X121946640Y-119912487D03*
%TO.P,U1,29,GPIO22_29*%
%TO.N,Net-(J5-Pin_2)*%
X121946640Y-122452487D03*
%TO.P,U1,30,GPIO23_30*%
%TO.N,/SWITCH*%
X121946640Y-124992487D03*
%TD*%
D16*
%TO.P,Q1,1,B_1*%
%TO.N,/EN_GPIO*%
X158550000Y-110937500D03*
%TO.P,Q1,2,E_2*%
%TO.N,GND*%
X160450000Y-110937500D03*
%TO.P,Q1,3,C_3*%
%TO.N,/EN*%
X159500000Y-109062500D03*
%TD*%
D12*
%TO.P,J6,1,Pin_1_1*%
%TO.N,Net-(J6-Pin_1)*%
X153400000Y-125000000D03*
D13*
%TO.P,J6,2,Pin_2_2*%
%TO.N,Net-(J6-Pin_2)*%
X153400000Y-122460000D03*
%TO.P,J6,3,Pin_3_3*%
%TO.N,Net-(J6-Pin_3)*%
X153400000Y-119920000D03*
%TO.P,J6,4,Pin_4_4*%
%TO.N,Net-(J6-Pin_4)*%
X153400000Y-117380000D03*
%TO.P,J6,5,Pin_5_5*%
%TO.N,Net-(J6-Pin_5)*%
X153400000Y-114840000D03*
%TO.P,J6,6,Pin_6_6*%
%TO.N,Net-(J6-Pin_6)*%
X153400000Y-112300000D03*
%TO.P,J6,7,Pin_7_7*%
%TO.N,/EN_GPIO*%
X153400000Y-109760000D03*
%TO.P,J6,8,Pin_8_8*%
%TO.N,/F{slash}R*%
X153400000Y-107220000D03*
%TO.P,J6,9,Pin_9_9*%
%TO.N,/BRK*%
X153400000Y-104680000D03*
%TO.P,J6,10,Pin_10_10*%
%TO.N,/SPEED*%
X153400000Y-102140000D03*
%TO.P,J6,11,Pin_11_11*%
%TO.N,/ALM*%
X153400000Y-99600000D03*
%TO.P,J6,12,Pin_12_12*%
%TO.N,Net-(J6-Pin_12)*%
X153400000Y-97060000D03*
%TO.P,J6,13,Pin_13_13*%
%TO.N,/SV*%
X153400000Y-94520000D03*
%TO.P,J6,14,Pin_14_14*%
%TO.N,GND*%
X153400000Y-91980000D03*
%TO.P,J6,15,Pin_15_15*%
%TO.N,+5V*%
X153400000Y-89440000D03*
%TD*%
D10*
%TO.P,J7,1,Pin_1_1*%
%TO.N,/SWITCH*%
X187000000Y-130000000D03*
D11*
%TO.P,J7,2,Pin_2_2*%
%TO.N,GND*%
X187000000Y-124920000D03*
%TD*%
D14*
%TO.P,J4,1,Pin_1_1*%
%TO.N,unconnected-(J4-Pin_1-Pad1)*%
X166040000Y-123200000D03*
%TD*%
%TO.P,J4,1,Pin_1_1*%
%TO.N,unconnected-(J4-Pin_1-Pad1)*%
X176200000Y-110500000D03*
%TD*%
%TO.P,J4,1,Pin_1_1*%
%TO.N,unconnected-(J4-Pin_1-Pad1)*%
X178740000Y-115580000D03*
%TD*%
%TO.P,J4,1,Pin_1_1*%
%TO.N,unconnected-(J4-Pin_1-Pad1)*%
X168580000Y-118120000D03*
%TD*%
%TO.N,/SV_OUT*%
D17*
X179262700Y-87717700D02*
X186957300Y-87717700D01*
X176000000Y-84455000D02*
X179262700Y-87717700D01*
%TO.N,+5V*%
X153392500Y-89432500D02*
X153400000Y-89440000D01*
X147346600Y-89432500D02*
X153392500Y-89432500D01*
%TO.N,/LED_R*%
X115969400Y-114832500D02*
X115944100Y-114807200D01*
X121946600Y-114832500D02*
X115969400Y-114832500D01*
%TO.N,/LED_G*%
X155000000Y-129500000D02*
X158500000Y-133000000D01*
X125292500Y-112292500D02*
X142500000Y-129500000D01*
X115944100Y-112267200D02*
X115969400Y-112292500D01*
X142500000Y-129500000D02*
X155000000Y-129500000D01*
X115969400Y-112292500D02*
X125292500Y-112292500D01*
%TO.N,/LED_B*%
X115969400Y-109752500D02*
X124252500Y-109752500D01*
X115944100Y-109727200D02*
X115969400Y-109752500D01*
X143000000Y-128500000D02*
X156540000Y-128500000D01*
X124252500Y-109752500D02*
X143000000Y-128500000D01*
X156540000Y-128500000D02*
X161040000Y-133000000D01*
%TO.N,/SWITCH*%
X115969387Y-124992487D02*
X115944100Y-124967200D01*
X121946640Y-124992487D02*
X115969387Y-124992487D01*
%TO.N,Net-(J5-Pin_2)*%
X121946600Y-122452500D02*
X115969400Y-122452500D01*
X115969400Y-122452500D02*
X115944100Y-122427200D01*
%TO.N,Net-(J5-Pin_3)*%
X121946600Y-119912500D02*
X115969400Y-119912500D01*
X115969400Y-119912500D02*
X115944100Y-119887200D01*
%TO.N,Net-(J5-Pin_4)*%
X115969400Y-117372500D02*
X115944100Y-117347200D01*
X121946600Y-117372500D02*
X115969400Y-117372500D01*
%TO.N,Net-(J5-Pin_8)*%
X121946600Y-107212500D02*
X115969400Y-107212500D01*
X115969400Y-107212500D02*
X115944100Y-107187200D01*
%TO.N,Net-(J5-Pin_9)*%
X121946600Y-104672500D02*
X115969400Y-104672500D01*
X115969400Y-104672500D02*
X115944100Y-104647200D01*
%TO.N,Net-(J5-Pin_10)*%
X121946600Y-102132500D02*
X115969400Y-102132500D01*
X115969400Y-102132500D02*
X115944100Y-102107200D01*
%TO.N,Net-(J5-Pin_11)*%
X121946600Y-99592500D02*
X115969400Y-99592500D01*
X115969400Y-99592500D02*
X115944100Y-99567200D01*
%TO.N,Net-(J5-Pin_12)*%
X121946600Y-97052500D02*
X115969400Y-97052500D01*
X115969400Y-97052500D02*
X115944100Y-97027200D01*
%TO.N,Net-(J5-Pin_13)*%
X121946600Y-94512500D02*
X115969400Y-94512500D01*
X115969400Y-94512500D02*
X115944100Y-94487200D01*
%TO.N,+3V3*%
X124567500Y-89432500D02*
X126000000Y-88000000D01*
X115969400Y-89432500D02*
X124567500Y-89432500D01*
X128400400Y-81915000D02*
X164245000Y-81915000D01*
X126000000Y-88000000D02*
X126000000Y-84315400D01*
X115944100Y-89407200D02*
X115969400Y-89432500D01*
X126000000Y-84315400D02*
X128400400Y-81915000D01*
%TO.N,/SV*%
X163465000Y-84455000D02*
X164245000Y-84455000D01*
X153392500Y-94512500D02*
X153400000Y-94520000D01*
X147346600Y-94512500D02*
X153392500Y-94512500D01*
X153400000Y-94520000D02*
X163465000Y-84455000D01*
%TO.N,/ALM*%
X153392500Y-99592500D02*
X153400000Y-99600000D01*
X147346600Y-99592500D02*
X153392500Y-99592500D01*
%TO.N,/SPEED*%
X147346600Y-102132500D02*
X153392500Y-102132500D01*
X153392500Y-102132500D02*
X153400000Y-102140000D01*
%TO.N,/BRK*%
X147346600Y-104672500D02*
X153392500Y-104672500D01*
X153392500Y-104672500D02*
X153400000Y-104680000D01*
%TO.N,/EN*%
X159500000Y-99360000D02*
X164245000Y-94615000D01*
X159500000Y-109062500D02*
X159500000Y-99360000D01*
%TO.N,/F{slash}R*%
X153392500Y-107212500D02*
X153400000Y-107220000D01*
X147346600Y-107212500D02*
X153392500Y-107212500D01*
%TO.N,Net-(J6-Pin_12)*%
X153392500Y-97052500D02*
X153400000Y-97060000D01*
X147346600Y-97052500D02*
X153392500Y-97052500D01*
%TO.N,/EN_GPIO*%
X153392500Y-109752500D02*
X153400000Y-109760000D01*
X158550000Y-110937500D02*
X158487500Y-111000000D01*
X155760000Y-109760000D02*
X153400000Y-109760000D01*
X158487500Y-111000000D02*
X157000000Y-111000000D01*
X147346600Y-109752500D02*
X153392500Y-109752500D01*
X157000000Y-111000000D02*
X155760000Y-109760000D01*
%TO.N,Net-(J6-Pin_6)*%
X153392500Y-112292500D02*
X153400000Y-112300000D01*
X147346600Y-112292500D02*
X153392500Y-112292500D01*
%TO.N,Net-(J6-Pin_5)*%
X153392500Y-114832500D02*
X153400000Y-114840000D01*
X147346600Y-114832500D02*
X153392500Y-114832500D01*
%TO.N,Net-(J6-Pin_4)*%
X147346600Y-117372500D02*
X153392500Y-117372500D01*
X153392500Y-117372500D02*
X153400000Y-117380000D01*
%TO.N,Net-(J6-Pin_3)*%
X153392500Y-119912500D02*
X153400000Y-119920000D01*
X147346600Y-119912500D02*
X153392500Y-119912500D01*
%TO.N,Net-(J6-Pin_2)*%
X147346600Y-122452500D02*
X153392500Y-122452500D01*
X153392500Y-122452500D02*
X153400000Y-122460000D01*
%TO.N,Net-(J6-Pin_1)*%
X152240800Y-124992500D02*
X152248300Y-125000000D01*
X147346600Y-124992500D02*
X152240800Y-124992500D01*
X153400000Y-125000000D02*
X152248300Y-125000000D01*
%TD*%
%TA.AperFunction,Conductor*%
%TO.N,GND*%
G36*
X120638957Y-90052685D02*
G01*
X120675828Y-90090355D01*
X120675989Y-90090239D01*
X120676781Y-90091329D01*
X120677648Y-90092215D01*
X120678850Y-90094177D01*
X120678853Y-90094181D01*
X120795659Y-90254951D01*
X120936176Y-90395468D01*
X121096946Y-90512274D01*
X121253972Y-90592283D01*
X121304767Y-90640256D01*
X121321562Y-90708077D01*
X121299025Y-90774212D01*
X121253972Y-90813251D01*
X121097209Y-90893126D01*
X120936500Y-91009890D01*
X120936499Y-91009890D01*
X120796043Y-91150346D01*
X120796043Y-91150347D01*
X120679281Y-91311054D01*
X120589096Y-91488051D01*
X120527714Y-91676969D01*
X120520505Y-91722486D01*
X120520505Y-91722487D01*
X121630954Y-91722487D01*
X121626560Y-91726881D01*
X121573899Y-91818093D01*
X121546640Y-91919826D01*
X121546640Y-92025148D01*
X121573899Y-92126881D01*
X121626560Y-92218093D01*
X121630954Y-92222487D01*
X120520505Y-92222487D01*
X120527714Y-92268004D01*
X120589096Y-92456922D01*
X120679281Y-92633919D01*
X120796043Y-92794626D01*
X120796043Y-92794627D01*
X120936499Y-92935083D01*
X121097207Y-93051845D01*
X121253971Y-93131721D01*
X121304767Y-93179696D01*
X121321562Y-93247517D01*
X121299024Y-93313652D01*
X121253971Y-93352691D01*
X121096945Y-93432700D01*
X120936173Y-93549508D01*
X120795661Y-93690020D01*
X120678854Y-93850791D01*
X120677632Y-93852786D01*
X120676969Y-93853385D01*
X120675989Y-93854735D01*
X120675705Y-93854529D01*
X120625822Y-93899663D01*
X120571902Y-93912000D01*
X117242710Y-93912000D01*
X117175671Y-93892315D01*
X117132225Y-93844295D01*
X117115862Y-93812182D01*
X117099151Y-93779384D01*
X117067059Y-93735213D01*
X116974209Y-93607413D01*
X116823886Y-93457090D01*
X116651917Y-93332149D01*
X116642604Y-93327404D01*
X116591807Y-93279430D01*
X116575012Y-93211609D01*
X116597549Y-93145474D01*
X116642607Y-93106432D01*
X116651655Y-93101822D01*
X116705816Y-93062470D01*
X116705817Y-93062470D01*
X116073508Y-92430162D01*
X116137093Y-92413125D01*
X116251107Y-92347299D01*
X116344199Y-92254207D01*
X116410025Y-92140193D01*
X116427062Y-92076609D01*
X117059370Y-92708917D01*
X117059370Y-92708916D01*
X117098722Y-92654754D01*
X117195195Y-92465417D01*
X117260857Y-92263330D01*
X117260857Y-92263327D01*
X117294100Y-92053446D01*
X117294100Y-91840953D01*
X117260857Y-91631072D01*
X117260857Y-91631069D01*
X117195195Y-91428982D01*
X117098724Y-91239649D01*
X117059370Y-91185482D01*
X117059369Y-91185482D01*
X116427062Y-91817790D01*
X116410025Y-91754207D01*
X116344199Y-91640193D01*
X116251107Y-91547101D01*
X116137093Y-91481275D01*
X116073509Y-91464237D01*
X116705816Y-90831928D01*
X116651647Y-90792573D01*
X116651647Y-90792572D01*
X116642600Y-90787963D01*
X116591806Y-90739988D01*
X116575012Y-90672166D01*
X116597551Y-90606032D01*
X116642608Y-90566993D01*
X116651916Y-90562251D01*
X116731107Y-90504715D01*
X116823886Y-90437309D01*
X116823888Y-90437306D01*
X116823892Y-90437304D01*
X116974204Y-90286992D01*
X116974206Y-90286988D01*
X116974209Y-90286986D01*
X117075318Y-90147820D01*
X117099151Y-90115016D01*
X117106443Y-90100705D01*
X117106444Y-90100704D01*
X117154419Y-90049908D01*
X117216928Y-90033000D01*
X120571918Y-90033000D01*
X120638957Y-90052685D01*
G37*
%TD.AperFunction*%
%TA.AperFunction,Conductor*%
G36*
X152177499Y-90052685D02*
G01*
X152220944Y-90100704D01*
X152228237Y-90115017D01*
X152244951Y-90147820D01*
X152369890Y-90319786D01*
X152520213Y-90470109D01*
X152692179Y-90595048D01*
X152692181Y-90595049D01*
X152692184Y-90595051D01*
X152701493Y-90599794D01*
X152752290Y-90647766D01*
X152769087Y-90715587D01*
X152746552Y-90781722D01*
X152701505Y-90820760D01*
X152692446Y-90825376D01*
X152692440Y-90825380D01*
X152638282Y-90864727D01*
X152638282Y-90864728D01*
X153270591Y-91497037D01*
X153207007Y-91514075D01*
X153092993Y-91579901D01*
X152999901Y-91672993D01*
X152934075Y-91787007D01*
X152917037Y-91850591D01*
X152284728Y-91218282D01*
X152284727Y-91218282D01*
X152245380Y-91272439D01*
X152148904Y-91461782D01*
X152083242Y-91663869D01*
X152083242Y-91663872D01*
X152050000Y-91873753D01*
X152050000Y-92086246D01*
X152083242Y-92296127D01*
X152083242Y-92296130D01*
X152148904Y-92498217D01*
X152245375Y-92687550D01*
X152284728Y-92741716D01*
X152917037Y-92109408D01*
X152934075Y-92172993D01*
X152999901Y-92287007D01*
X153092993Y-92380099D01*
X153207007Y-92445925D01*
X153270590Y-92462962D01*
X152638282Y-93095269D01*
X152638282Y-93095270D01*
X152692452Y-93134626D01*
X152692451Y-93134626D01*
X152701495Y-93139234D01*
X152752292Y-93187208D01*
X152769087Y-93255029D01*
X152746550Y-93321164D01*
X152701499Y-93360202D01*
X152692182Y-93364949D01*
X152520213Y-93489890D01*
X152369890Y-93640213D01*
X152244949Y-93812182D01*
X152228588Y-93844294D01*
X152180614Y-93895091D01*
X152118103Y-93912000D01*
X148721378Y-93912000D01*
X148654339Y-93892315D01*
X148617445Y-93854622D01*
X148617291Y-93854735D01*
X148616528Y-93853685D01*
X148615648Y-93852786D01*
X148614430Y-93850800D01*
X148614427Y-93850793D01*
X148497621Y-93690023D01*
X148357104Y-93549506D01*
X148196334Y-93432700D01*
X148039307Y-93352690D01*
X147988512Y-93304716D01*
X147971717Y-93236895D01*
X147994254Y-93170760D01*
X148039308Y-93131721D01*
X148196072Y-93051845D01*
X148356779Y-92935083D01*
X148356780Y-92935083D01*
X148497236Y-92794627D01*
X148497236Y-92794626D01*
X148613998Y-92633919D01*
X148704183Y-92456922D01*
X148765565Y-92268004D01*
X148772774Y-92222487D01*
X147662326Y-92222487D01*
X147666720Y-92218093D01*
X147719381Y-92126881D01*
X147746640Y-92025148D01*
X147746640Y-91919826D01*
X147719381Y-91818093D01*
X147666720Y-91726881D01*
X147662326Y-91722487D01*
X148772775Y-91722487D01*
X148772774Y-91722486D01*
X148765565Y-91676969D01*
X148704183Y-91488051D01*
X148613998Y-91311054D01*
X148497236Y-91150347D01*
X148497236Y-91150346D01*
X148356780Y-91009890D01*
X148196072Y-90893128D01*
X148039308Y-90813252D01*
X147988512Y-90765277D01*
X147971717Y-90697456D01*
X147994255Y-90631321D01*
X148039307Y-90592283D01*
X148196334Y-90512274D01*
X148357104Y-90395468D01*
X148497621Y-90254951D01*
X148614427Y-90094181D01*
X148614429Y-90094176D01*
X148615632Y-90092215D01*
X148616283Y-90091625D01*
X148617291Y-90090239D01*
X148617582Y-90090450D01*
X148667441Y-90045337D01*
X148721362Y-90033000D01*
X152110460Y-90033000D01*
X152177499Y-90052685D01*
G37*
%TD.AperFunction*%
%TA.AperFunction,Conductor*%
G36*
X191003736Y-76500726D02*
G01*
X191293796Y-76518271D01*
X191308659Y-76520076D01*
X191590797Y-76571780D01*
X191605334Y-76575363D01*
X191879182Y-76660698D01*
X191893163Y-76666000D01*
X192154734Y-76783724D01*
X192167987Y-76790680D01*
X192413458Y-76939071D01*
X192425776Y-76947573D01*
X192651573Y-77124474D01*
X192662781Y-77134404D01*
X192865595Y-77337218D01*
X192875525Y-77348426D01*
X193052422Y-77574217D01*
X193060928Y-77586541D01*
X193209319Y-77832012D01*
X193216277Y-77845269D01*
X193333994Y-78106823D01*
X193339304Y-78120825D01*
X193424635Y-78394664D01*
X193428219Y-78409202D01*
X193479923Y-78691340D01*
X193481728Y-78706205D01*
X193499274Y-78996263D01*
X193499500Y-79003750D01*
X193499500Y-132996249D01*
X193499274Y-133003736D01*
X193481728Y-133293794D01*
X193479923Y-133308659D01*
X193428219Y-133590797D01*
X193424635Y-133605335D01*
X193339304Y-133879174D01*
X193333994Y-133893176D01*
X193216277Y-134154730D01*
X193209319Y-134167987D01*
X193060928Y-134413458D01*
X193052422Y-134425782D01*
X192875525Y-134651573D01*
X192865595Y-134662781D01*
X192662781Y-134865595D01*
X192651573Y-134875525D01*
X192425782Y-135052422D01*
X192413458Y-135060928D01*
X192167987Y-135209319D01*
X192154730Y-135216277D01*
X191893176Y-135333994D01*
X191879174Y-135339304D01*
X191605335Y-135424635D01*
X191590797Y-135428219D01*
X191308659Y-135479923D01*
X191293794Y-135481728D01*
X191003736Y-135499274D01*
X190996249Y-135499500D01*
X115003751Y-135499500D01*
X114996264Y-135499274D01*
X114706205Y-135481728D01*
X114691340Y-135479923D01*
X114409202Y-135428219D01*
X114394664Y-135424635D01*
X114120825Y-135339304D01*
X114106827Y-135333995D01*
X113954096Y-135265256D01*
X113845269Y-135216277D01*
X113832012Y-135209319D01*
X113586541Y-135060928D01*
X113574217Y-135052422D01*
X113348426Y-134875525D01*
X113337218Y-134865595D01*
X113134404Y-134662781D01*
X113124474Y-134651573D01*
X112947573Y-134425776D01*
X112939071Y-134413458D01*
X112790680Y-134167987D01*
X112783722Y-134154730D01*
X112666000Y-133893163D01*
X112660698Y-133879182D01*
X112575363Y-133605334D01*
X112571780Y-133590797D01*
X112520076Y-133308659D01*
X112518271Y-133293794D01*
X112500726Y-133003736D01*
X112500500Y-132996249D01*
X112500500Y-131874038D01*
X114386500Y-131874038D01*
X114386500Y-132125962D01*
X114412826Y-132292179D01*
X114425910Y-132374785D01*
X114503760Y-132614383D01*
X114582413Y-132768747D01*
X114610170Y-132823223D01*
X114618132Y-132838848D01*
X114766201Y-133042649D01*
X114766205Y-133042654D01*
X114944345Y-133220794D01*
X114944350Y-133220798D01*
X115065281Y-133308659D01*
X115148155Y-133368870D01*
X115291184Y-133441747D01*
X115372616Y-133483239D01*
X115372618Y-133483239D01*
X115372621Y-133483241D01*
X115612215Y-133561090D01*
X115861038Y-133600500D01*
X115861039Y-133600500D01*
X116112961Y-133600500D01*
X116112962Y-133600500D01*
X116361785Y-133561090D01*
X116601379Y-133483241D01*
X116825845Y-133368870D01*
X117029656Y-133220793D01*
X117207793Y-133042656D01*
X117355870Y-132838845D01*
X117470241Y-132614379D01*
X117548090Y-132374785D01*
X117587500Y-132125962D01*
X117587500Y-131874038D01*
X117548090Y-131625215D01*
X117470241Y-131385621D01*
X117470239Y-131385618D01*
X117470239Y-131385616D01*
X117428747Y-131304184D01*
X117355870Y-131161155D01*
X117321885Y-131114379D01*
X117207798Y-130957350D01*
X117207794Y-130957345D01*
X117029654Y-130779205D01*
X117029649Y-130779201D01*
X116825848Y-130631132D01*
X116825847Y-130631131D01*
X116825845Y-130631130D01*
X116755747Y-130595413D01*
X116601383Y-130516760D01*
X116361785Y-130438910D01*
X116112962Y-130399500D01*
X115861038Y-130399500D01*
X115736626Y-130419205D01*
X115612214Y-130438910D01*
X115372616Y-130516760D01*
X115148151Y-130631132D01*
X114944350Y-130779201D01*
X114944345Y-130779205D01*
X114766205Y-130957345D01*
X114766201Y-130957350D01*
X114618132Y-131161151D01*
X114503760Y-131385616D01*
X114425910Y-131625214D01*
X114398147Y-131800500D01*
X114386500Y-131874038D01*
X112500500Y-131874038D01*
X112500500Y-89300913D01*
X114593600Y-89300913D01*
X114593600Y-89513487D01*
X114596508Y-89531847D01*
X114613841Y-89641286D01*
X114626854Y-89723443D01*
X114689783Y-89917119D01*
X114692544Y-89925614D01*
X114789051Y-90115020D01*
X114913990Y-90286986D01*
X115064313Y-90437309D01*
X115236279Y-90562248D01*
X115236281Y-90562249D01*
X115236284Y-90562251D01*
X115245593Y-90566994D01*
X115296390Y-90614966D01*
X115313187Y-90682787D01*
X115290652Y-90748922D01*
X115245605Y-90787960D01*
X115236546Y-90792576D01*
X115236540Y-90792580D01*
X115182382Y-90831927D01*
X115182382Y-90831928D01*
X115814691Y-91464237D01*
X115751107Y-91481275D01*
X115637093Y-91547101D01*
X115544001Y-91640193D01*
X115478175Y-91754207D01*
X115461137Y-91817791D01*
X114828828Y-91185482D01*
X114828827Y-91185482D01*
X114789480Y-91239639D01*
X114693004Y-91428982D01*
X114627342Y-91631069D01*
X114627342Y-91631072D01*
X114594100Y-91840953D01*
X114594100Y-92053446D01*
X114627342Y-92263327D01*
X114627342Y-92263330D01*
X114693004Y-92465417D01*
X114789475Y-92654750D01*
X114828828Y-92708916D01*
X115461137Y-92076608D01*
X115478175Y-92140193D01*
X115544001Y-92254207D01*
X115637093Y-92347299D01*
X115751107Y-92413125D01*
X115814690Y-92430162D01*
X115182382Y-93062469D01*
X115182382Y-93062470D01*
X115236552Y-93101826D01*
X115236551Y-93101826D01*
X115245595Y-93106434D01*
X115296392Y-93154408D01*
X115313187Y-93222229D01*
X115290650Y-93288364D01*
X115245599Y-93327402D01*
X115236282Y-93332149D01*
X115064313Y-93457090D01*
X114913990Y-93607413D01*
X114789051Y-93779379D01*
X114692544Y-93968785D01*
X114626853Y-94170960D01*
X114593600Y-94380913D01*
X114593600Y-94593486D01*
X114613841Y-94721286D01*
X114626854Y-94803443D01*
X114689783Y-94997119D01*
X114692544Y-95005614D01*
X114789051Y-95195020D01*
X114913990Y-95366986D01*
X115064313Y-95517309D01*
X115236282Y-95642250D01*
X115245046Y-95646716D01*
X115295842Y-95694691D01*
X115312636Y-95762512D01*
X115290098Y-95828647D01*
X115245046Y-95867684D01*
X115236282Y-95872149D01*
X115064313Y-95997090D01*
X114913990Y-96147413D01*
X114789051Y-96319379D01*
X114692544Y-96508785D01*
X114626853Y-96710960D01*
X114593600Y-96920913D01*
X114593600Y-97133486D01*
X114613841Y-97261286D01*
X114626854Y-97343443D01*
X114689783Y-97537119D01*
X114692544Y-97545614D01*
X114789051Y-97735020D01*
X114913990Y-97906986D01*
X115064313Y-98057309D01*
X115236282Y-98182250D01*
X115245046Y-98186716D01*
X115295842Y-98234691D01*
X115312636Y-98302512D01*
X115290098Y-98368647D01*
X115245046Y-98407684D01*
X115236282Y-98412149D01*
X115064313Y-98537090D01*
X114913990Y-98687413D01*
X114789051Y-98859379D01*
X114692544Y-99048785D01*
X114626853Y-99250960D01*
X114593600Y-99460913D01*
X114593600Y-99673487D01*
X114596508Y-99691847D01*
X114613841Y-99801286D01*
X114626854Y-99883443D01*
X114689783Y-100077119D01*
X114692544Y-100085614D01*
X114789051Y-100275020D01*
X114913990Y-100446986D01*
X115064313Y-100597309D01*
X115236282Y-100722250D01*
X115245046Y-100726716D01*
X115295842Y-100774691D01*
X115312636Y-100842512D01*
X115290098Y-100908647D01*
X115245046Y-100947684D01*
X115236282Y-100952149D01*
X115064313Y-101077090D01*
X114913990Y-101227413D01*
X114789051Y-101399379D01*
X114692544Y-101588785D01*
X114626853Y-101790960D01*
X114593600Y-102000913D01*
X114593600Y-102213486D01*
X114613841Y-102341286D01*
X114626854Y-102423443D01*
X114689783Y-102617119D01*
X114692544Y-102625614D01*
X114789051Y-102815020D01*
X114913990Y-102986986D01*
X115064313Y-103137309D01*
X115236282Y-103262250D01*
X115245046Y-103266716D01*
X115295842Y-103314691D01*
X115312636Y-103382512D01*
X115290098Y-103448647D01*
X115245046Y-103487684D01*
X115236282Y-103492149D01*
X115064313Y-103617090D01*
X114913990Y-103767413D01*
X114789051Y-103939379D01*
X114692544Y-104128785D01*
X114626853Y-104330960D01*
X114606594Y-104458872D01*
X114593600Y-104540913D01*
X114593600Y-104753487D01*
X114596508Y-104771847D01*
X114613841Y-104881286D01*
X114626854Y-104963443D01*
X114689783Y-105157119D01*
X114692544Y-105165614D01*
X114789051Y-105355020D01*
X114913990Y-105526986D01*
X115064313Y-105677309D01*
X115236282Y-105802250D01*
X115245046Y-105806716D01*
X115295842Y-105854691D01*
X115312636Y-105922512D01*
X115290098Y-105988647D01*
X115245046Y-106027684D01*
X115236282Y-106032149D01*
X115064313Y-106157090D01*
X114913990Y-106307413D01*
X114789051Y-106479379D01*
X114692544Y-106668785D01*
X114626853Y-106870960D01*
X114621659Y-106903757D01*
X114593600Y-107080913D01*
X114593600Y-107293487D01*
X114626854Y-107503443D01*
X114689783Y-107697119D01*
X114692544Y-107705614D01*
X114789051Y-107895020D01*
X114913990Y-108066985D01*
X114913994Y-108066990D01*
X115064313Y-108217309D01*
X115236282Y-108342250D01*
X115245046Y-108346716D01*
X115295842Y-108394691D01*
X115312636Y-108462512D01*
X115290098Y-108528647D01*
X115245046Y-108567684D01*
X115236282Y-108572149D01*
X115064313Y-108697090D01*
X114913990Y-108847413D01*
X114789051Y-109019379D01*
X114692544Y-109208785D01*
X114626853Y-109410960D01*
X114600793Y-109575500D01*
X114593600Y-109620913D01*
X114593600Y-109833487D01*
X114596508Y-109851847D01*
X114615014Y-109968693D01*
X114626854Y-110043443D01*
X114689783Y-110237119D01*
X114692544Y-110245614D01*
X114789051Y-110435020D01*
X114913990Y-110606986D01*
X115064313Y-110757309D01*
X115236282Y-110882250D01*
X115245046Y-110886716D01*
X115295842Y-110934691D01*
X115312636Y-111002512D01*
X115290098Y-111068647D01*
X115245046Y-111107684D01*
X115236282Y-111112149D01*
X115064313Y-111237090D01*
X114913990Y-111387413D01*
X114789051Y-111559379D01*
X114692544Y-111748785D01*
X114626853Y-111950960D01*
X114600833Y-112115245D01*
X114593600Y-112160913D01*
X114593600Y-112373487D01*
X114626854Y-112583443D01*
X114689783Y-112777119D01*
X114692544Y-112785614D01*
X114789051Y-112975020D01*
X114913990Y-113146986D01*
X115064313Y-113297309D01*
X115236282Y-113422250D01*
X115245046Y-113426716D01*
X115295842Y-113474691D01*
X115312636Y-113542512D01*
X115290098Y-113608647D01*
X115245046Y-113647684D01*
X115236282Y-113652149D01*
X115064313Y-113777090D01*
X114913990Y-113927413D01*
X114789051Y-114099379D01*
X114692544Y-114288785D01*
X114626853Y-114490960D01*
X114596945Y-114679792D01*
X114593600Y-114700913D01*
X114593600Y-114913487D01*
X114626854Y-115123443D01*
X114689783Y-115317119D01*
X114692544Y-115325614D01*
X114789051Y-115515020D01*
X114913990Y-115686986D01*
X115064313Y-115837309D01*
X115236282Y-115962250D01*
X115245046Y-115966716D01*
X115295842Y-116014691D01*
X115312636Y-116082512D01*
X115290098Y-116148647D01*
X115245046Y-116187684D01*
X115236282Y-116192149D01*
X115064313Y-116317090D01*
X114913990Y-116467413D01*
X114789051Y-116639379D01*
X114692544Y-116828785D01*
X114626853Y-117030960D01*
X114596945Y-117219792D01*
X114593600Y-117240913D01*
X114593600Y-117453487D01*
X114626854Y-117663443D01*
X114689783Y-117857119D01*
X114692544Y-117865614D01*
X114789051Y-118055020D01*
X114913990Y-118226986D01*
X115064313Y-118377309D01*
X115236282Y-118502250D01*
X115245046Y-118506716D01*
X115295842Y-118554691D01*
X115312636Y-118622512D01*
X115290098Y-118688647D01*
X115245046Y-118727684D01*
X115236282Y-118732149D01*
X115064313Y-118857090D01*
X114913990Y-119007413D01*
X114789051Y-119179379D01*
X114692544Y-119368785D01*
X114626853Y-119570960D01*
X114596945Y-119759792D01*
X114593600Y-119780913D01*
X114593600Y-119993487D01*
X114626854Y-120203443D01*
X114689783Y-120397119D01*
X114692544Y-120405614D01*
X114789051Y-120595020D01*
X114913990Y-120766986D01*
X115064313Y-120917309D01*
X115236282Y-121042250D01*
X115245046Y-121046716D01*
X115295842Y-121094691D01*
X115312636Y-121162512D01*
X115290098Y-121228647D01*
X115245046Y-121267684D01*
X115236282Y-121272149D01*
X115064313Y-121397090D01*
X114913990Y-121547413D01*
X114789051Y-121719379D01*
X114692544Y-121908785D01*
X114626853Y-122110960D01*
X114596945Y-122299792D01*
X114593600Y-122320913D01*
X114593600Y-122533487D01*
X114626854Y-122743443D01*
X114689783Y-122937119D01*
X114692544Y-122945614D01*
X114789051Y-123135020D01*
X114913990Y-123306986D01*
X115027530Y-123420526D01*
X115061015Y-123481849D01*
X115056031Y-123551541D01*
X115014159Y-123607474D01*
X114983183Y-123624389D01*
X114851769Y-123673403D01*
X114851764Y-123673406D01*
X114736555Y-123759652D01*
X114736552Y-123759655D01*
X114650306Y-123874864D01*
X114650302Y-123874871D01*
X114600008Y-124009717D01*
X114596482Y-124042517D01*
X114593601Y-124069323D01*
X114593600Y-124069335D01*
X114593600Y-125865070D01*
X114593601Y-125865076D01*
X114600008Y-125924683D01*
X114650302Y-126059528D01*
X114650306Y-126059535D01*
X114736552Y-126174744D01*
X114736555Y-126174747D01*
X114851764Y-126260993D01*
X114851771Y-126260997D01*
X114986617Y-126311291D01*
X114986616Y-126311291D01*
X114993544Y-126312035D01*
X115046227Y-126317700D01*
X116841972Y-126317699D01*
X116901583Y-126311291D01*
X117036431Y-126260996D01*
X117151646Y-126174746D01*
X117237896Y-126059531D01*
X117288191Y-125924683D01*
X117294600Y-125865073D01*
X117294600Y-125716987D01*
X117314285Y-125649948D01*
X117367089Y-125604193D01*
X117418600Y-125592987D01*
X120571910Y-125592987D01*
X120638949Y-125612672D01*
X120675831Y-125650353D01*
X120675989Y-125650239D01*
X120676767Y-125651310D01*
X120677640Y-125652202D01*
X120678850Y-125654177D01*
X120678853Y-125654181D01*
X120795659Y-125814951D01*
X120936176Y-125955468D01*
X121096946Y-126072274D01*
X121136310Y-126092331D01*
X121274007Y-126162492D01*
X121274010Y-126162493D01*
X121311722Y-126174746D01*
X121463004Y-126223900D01*
X121659279Y-126254987D01*
X121659280Y-126254987D01*
X122234000Y-126254987D01*
X122234001Y-126254987D01*
X122430276Y-126223900D01*
X122619272Y-126162492D01*
X122796334Y-126072274D01*
X122957104Y-125955468D01*
X123097621Y-125814951D01*
X123214427Y-125654181D01*
X123304645Y-125477119D01*
X123366053Y-125288123D01*
X123397140Y-125091848D01*
X123397140Y-124893126D01*
X123366053Y-124696851D01*
X123304645Y-124507855D01*
X123304645Y-124507854D01*
X123239321Y-124379650D01*
X123214427Y-124330793D01*
X123097621Y-124170023D01*
X122957104Y-124029506D01*
X122796334Y-123912700D01*
X122639858Y-123832971D01*
X122589063Y-123784997D01*
X122572268Y-123717176D01*
X122594805Y-123651041D01*
X122639858Y-123612002D01*
X122796334Y-123532274D01*
X122957104Y-123415468D01*
X123097621Y-123274951D01*
X123214427Y-123114181D01*
X123304645Y-122937119D01*
X123366053Y-122748123D01*
X123397140Y-122551848D01*
X123397140Y-122353126D01*
X123366053Y-122156851D01*
X123304645Y-121967855D01*
X123304645Y-121967854D01*
X123241323Y-121843580D01*
X123214427Y-121790793D01*
X123097621Y-121630023D01*
X122957104Y-121489506D01*
X122796334Y-121372700D01*
X122639858Y-121292971D01*
X122589063Y-121244997D01*
X122572268Y-121177176D01*
X122594805Y-121111041D01*
X122639858Y-121072002D01*
X122796334Y-120992274D01*
X122957104Y-120875468D01*
X123097621Y-120734951D01*
X123214427Y-120574181D01*
X123304645Y-120397119D01*
X123366053Y-120208123D01*
X123397140Y-120011848D01*
X123397140Y-119813126D01*
X123366053Y-119616851D01*
X123304645Y-119427855D01*
X123304645Y-119427854D01*
X123241323Y-119303580D01*
X123214427Y-119250793D01*
X123097621Y-119090023D01*
X122957104Y-118949506D01*
X122796334Y-118832700D01*
X122639858Y-118752971D01*
X122589063Y-118704997D01*
X122572268Y-118637176D01*
X122594805Y-118571041D01*
X122639858Y-118532002D01*
X122796334Y-118452274D01*
X122957104Y-118335468D01*
X123097621Y-118194951D01*
X123214427Y-118034181D01*
X123304645Y-117857119D01*
X123366053Y-117668123D01*
X123397140Y-117471848D01*
X123397140Y-117273126D01*
X123366053Y-117076851D01*
X123304645Y-116887855D01*
X123304645Y-116887854D01*
X123241323Y-116763580D01*
X123214427Y-116710793D01*
X123097621Y-116550023D01*
X122957104Y-116409506D01*
X122796334Y-116292700D01*
X122639858Y-116212971D01*
X122589063Y-116164997D01*
X122572268Y-116097176D01*
X122594805Y-116031041D01*
X122639858Y-115992002D01*
X122796334Y-115912274D01*
X122957104Y-115795468D01*
X123097621Y-115654951D01*
X123214427Y-115494181D01*
X123304645Y-115317119D01*
X123366053Y-115128123D01*
X123397140Y-114931848D01*
X123397140Y-114733126D01*
X123366053Y-114536851D01*
X123304645Y-114347855D01*
X123304645Y-114347854D01*
X123241323Y-114223580D01*
X123214427Y-114170793D01*
X123097621Y-114010023D01*
X122957104Y-113869506D01*
X122796334Y-113752700D01*
X122639858Y-113672971D01*
X122589063Y-113624997D01*
X122572268Y-113557176D01*
X122594805Y-113491041D01*
X122639858Y-113452002D01*
X122796334Y-113372274D01*
X122957104Y-113255468D01*
X123097621Y-113114951D01*
X123214427Y-112954181D01*
X123214429Y-112954176D01*
X123215632Y-112952215D01*
X123216283Y-112951625D01*
X123217291Y-112950239D01*
X123217582Y-112950450D01*
X123267441Y-112905337D01*
X123321362Y-112893000D01*
X124992403Y-112893000D01*
X125059442Y-112912685D01*
X125080084Y-112929319D01*
X142015139Y-129864374D01*
X142015149Y-129864385D01*
X142019479Y-129868715D01*
X142019480Y-129868716D01*
X142131284Y-129980520D01*
X142218095Y-130030639D01*
X142218097Y-130030641D01*
X142256151Y-130052611D01*
X142268215Y-130059577D01*
X142420943Y-130100501D01*
X142420946Y-130100501D01*
X142586653Y-130100501D01*
X142586669Y-130100500D01*
X154699903Y-130100500D01*
X154766942Y-130120185D01*
X154787584Y-130136819D01*
X156089084Y-131438319D01*
X156122569Y-131499642D01*
X156117585Y-131569334D01*
X156075713Y-131625267D01*
X156010249Y-131649684D01*
X156001403Y-131650000D01*
X155853754Y-131650000D01*
X155643872Y-131683242D01*
X155643869Y-131683242D01*
X155441782Y-131748904D01*
X155252439Y-131845380D01*
X155198282Y-131884727D01*
X155198282Y-131884728D01*
X155830591Y-132517037D01*
X155767007Y-132534075D01*
X155652993Y-132599901D01*
X155559901Y-132692993D01*
X155494075Y-132807007D01*
X155477037Y-132870591D01*
X154806818Y-132200372D01*
X154773333Y-132139049D01*
X154770499Y-132112691D01*
X154770499Y-132102129D01*
X154770498Y-132102123D01*
X154770497Y-132102116D01*
X154764091Y-132042517D01*
X154713796Y-131907669D01*
X154713795Y-131907668D01*
X154713793Y-131907664D01*
X154627547Y-131792455D01*
X154627544Y-131792452D01*
X154512335Y-131706206D01*
X154512328Y-131706202D01*
X154377482Y-131655908D01*
X154377483Y-131655908D01*
X154317883Y-131649501D01*
X154317881Y-131649500D01*
X154317873Y-131649500D01*
X154317864Y-131649500D01*
X152522129Y-131649500D01*
X152522123Y-131649501D01*
X152462516Y-131655908D01*
X152327671Y-131706202D01*
X152327664Y-131706206D01*
X152212455Y-131792452D01*
X152212452Y-131792455D01*
X152126206Y-131907664D01*
X152126202Y-131907671D01*
X152075908Y-132042517D01*
X152069675Y-132100500D01*
X152069501Y-132102123D01*
X152069500Y-132102135D01*
X152069500Y-133897870D01*
X152069501Y-133897876D01*
X152075908Y-133957483D01*
X152126202Y-134092328D01*
X152126206Y-134092335D01*
X152212452Y-134207544D01*
X152212455Y-134207547D01*
X152327664Y-134293793D01*
X152327671Y-134293797D01*
X152462517Y-134344091D01*
X152462516Y-134344091D01*
X152469444Y-134344835D01*
X152522127Y-134350500D01*
X154317872Y-134350499D01*
X154377483Y-134344091D01*
X154512331Y-134293796D01*
X154627546Y-134207546D01*
X154713796Y-134092331D01*
X154764091Y-133957483D01*
X154770500Y-133897873D01*
X154770499Y-133873979D01*
X154773330Y-133860963D01*
X154783940Y-133841525D01*
X154790179Y-133820275D01*
X154806803Y-133799643D01*
X154806808Y-133799636D01*
X154806811Y-133799634D01*
X154806818Y-133799626D01*
X155477037Y-133129408D01*
X155494075Y-133192993D01*
X155559901Y-133307007D01*
X155652993Y-133400099D01*
X155767007Y-133465925D01*
X155830590Y-133482962D01*
X155198282Y-134115269D01*
X155198282Y-134115270D01*
X155252449Y-134154624D01*
X155441782Y-134251095D01*
X155643870Y-134316757D01*
X155853754Y-134350000D01*
X156066246Y-134350000D01*
X156276127Y-134316757D01*
X156276130Y-134316757D01*
X156478217Y-134251095D01*
X156667554Y-134154622D01*
X156721716Y-134115270D01*
X156721717Y-134115270D01*
X156089408Y-133482962D01*
X156152993Y-133465925D01*
X156267007Y-133400099D01*
X156360099Y-133307007D01*
X156425925Y-133192993D01*
X156442962Y-133129408D01*
X157075270Y-133761717D01*
X157075270Y-133761716D01*
X157114622Y-133707555D01*
X157119232Y-133698507D01*
X157167205Y-133647709D01*
X157235025Y-133630912D01*
X157301161Y-133653447D01*
X157340204Y-133698504D01*
X157344949Y-133707817D01*
X157469890Y-133879786D01*
X157620213Y-134030109D01*
X157792179Y-134155048D01*
X157792181Y-134155049D01*
X157792184Y-134155051D01*
X157981588Y-134251557D01*
X158183757Y-134317246D01*
X158393713Y-134350500D01*
X158393714Y-134350500D01*
X158606286Y-134350500D01*
X158606287Y-134350500D01*
X158816243Y-134317246D01*
X159018412Y-134251557D01*
X159207816Y-134155051D01*
X159294138Y-134092335D01*
X159379786Y-134030109D01*
X159379788Y-134030106D01*
X159379792Y-134030104D01*
X159530104Y-133879792D01*
X159530106Y-133879788D01*
X159530109Y-133879786D01*
X159655048Y-133707820D01*
X159655050Y-133707817D01*
X159655051Y-133707816D01*
X159659514Y-133699054D01*
X159707488Y-133648259D01*
X159775308Y-133631463D01*
X159841444Y-133653999D01*
X159880486Y-133699056D01*
X159884951Y-133707820D01*
X160009890Y-133879786D01*
X160160213Y-134030109D01*
X160332179Y-134155048D01*
X160332181Y-134155049D01*
X160332184Y-134155051D01*
X160521588Y-134251557D01*
X160723757Y-134317246D01*
X160933713Y-134350500D01*
X160933714Y-134350500D01*
X161146286Y-134350500D01*
X161146287Y-134350500D01*
X161356243Y-134317246D01*
X161558412Y-134251557D01*
X161747816Y-134155051D01*
X161834138Y-134092335D01*
X161919786Y-134030109D01*
X161919788Y-134030106D01*
X161919792Y-134030104D01*
X162070104Y-133879792D01*
X162070106Y-133879788D01*
X162070109Y-133879786D01*
X162195048Y-133707820D01*
X162195050Y-133707817D01*
X162195051Y-133707816D01*
X162291557Y-133518412D01*
X162357246Y-133316243D01*
X162390500Y-133106287D01*
X162390500Y-132893713D01*
X162357246Y-132683757D01*
X162291557Y-132481588D01*
X162195051Y-132292184D01*
X162195049Y-132292181D01*
X162195048Y-132292179D01*
X162070109Y-132120213D01*
X161919786Y-131969890D01*
X161747820Y-131844951D01*
X161558414Y-131748444D01*
X161558413Y-131748443D01*
X161558412Y-131748443D01*
X161356243Y-131682754D01*
X161356241Y-131682753D01*
X161356240Y-131682753D01*
X161194957Y-131657208D01*
X161146287Y-131649500D01*
X160933713Y-131649500D01*
X160905006Y-131654046D01*
X160723757Y-131682753D01*
X160681473Y-131696492D01*
X160611632Y-131698486D01*
X160555476Y-131666241D01*
X159263273Y-130374038D01*
X175462700Y-130374038D01*
X175462700Y-130625962D01*
X175486972Y-130779207D01*
X175502110Y-130874785D01*
X175579960Y-131114383D01*
X175694332Y-131338848D01*
X175842401Y-131542649D01*
X175842405Y-131542654D01*
X176020545Y-131720794D01*
X176020550Y-131720798D01*
X176191430Y-131844949D01*
X176224355Y-131868870D01*
X176367384Y-131941747D01*
X176448816Y-131983239D01*
X176448818Y-131983239D01*
X176448821Y-131983241D01*
X176688415Y-132061090D01*
X176937238Y-132100500D01*
X176937239Y-132100500D01*
X177189161Y-132100500D01*
X177189162Y-132100500D01*
X177437985Y-132061090D01*
X177677579Y-131983241D01*
X177902045Y-131868870D01*
X178105856Y-131720793D01*
X178283993Y-131542656D01*
X178432070Y-131338845D01*
X178546441Y-131114379D01*
X178624290Y-130874785D01*
X178663700Y-130625962D01*
X178663700Y-130374038D01*
X178624290Y-130125215D01*
X178546441Y-129885621D01*
X178546439Y-129885618D01*
X178546439Y-129885616D01*
X178504947Y-129804184D01*
X178432070Y-129661155D01*
X178413152Y-129635117D01*
X178283998Y-129457350D01*
X178283994Y-129457345D01*
X178105854Y-129279205D01*
X178105849Y-129279201D01*
X177902048Y-129131132D01*
X177902047Y-129131131D01*
X177902045Y-129131130D01*
X177677579Y-129016759D01*
X177576378Y-128983876D01*
X177437985Y-128938909D01*
X177223182Y-128904888D01*
X177192212Y-128899983D01*
X185199500Y-128899983D01*
X185199500Y-131100001D01*
X185199501Y-131100018D01*
X185210000Y-131202796D01*
X185210001Y-131202799D01*
X185255083Y-131338845D01*
X185265186Y-131369334D01*
X185357288Y-131518656D01*
X185481344Y-131642712D01*
X185630666Y-131734814D01*
X185797203Y-131789999D01*
X185899991Y-131800500D01*
X188100008Y-131800499D01*
X188202797Y-131789999D01*
X188369334Y-131734814D01*
X188518656Y-131642712D01*
X188642712Y-131518656D01*
X188734814Y-131369334D01*
X188789999Y-131202797D01*
X188800500Y-131100009D01*
X188800499Y-128899992D01*
X188789999Y-128797203D01*
X188734814Y-128630666D01*
X188642712Y-128481344D01*
X188518656Y-128357288D01*
X188369334Y-128265186D01*
X188202797Y-128210001D01*
X188202795Y-128210000D01*
X188100010Y-128199500D01*
X185899998Y-128199500D01*
X185899981Y-128199501D01*
X185797203Y-128210000D01*
X185797200Y-128210001D01*
X185630668Y-128265185D01*
X185630663Y-128265187D01*
X185481342Y-128357289D01*
X185357289Y-128481342D01*
X185265187Y-128630663D01*
X185265186Y-128630666D01*
X185210001Y-128797203D01*
X185210001Y-128797204D01*
X185210000Y-128797204D01*
X185199500Y-128899983D01*
X177192212Y-128899983D01*
X177189162Y-128899500D01*
X176937238Y-128899500D01*
X176812826Y-128919205D01*
X176688414Y-128938910D01*
X176448816Y-129016760D01*
X176224351Y-129131132D01*
X176020550Y-129279201D01*
X176020545Y-129279205D01*
X175842405Y-129457345D01*
X175842401Y-129457350D01*
X175694332Y-129661151D01*
X175579960Y-129885616D01*
X175523437Y-130059577D01*
X175502110Y-130125215D01*
X175462700Y-130374038D01*
X159263273Y-130374038D01*
X157027590Y-128138355D01*
X157027588Y-128138352D01*
X156908717Y-128019481D01*
X156908716Y-128019480D01*
X156821904Y-127969360D01*
X156821904Y-127969359D01*
X156821900Y-127969358D01*
X156771785Y-127940423D01*
X156619057Y-127899499D01*
X156460943Y-127899499D01*
X156453347Y-127899499D01*
X156453331Y-127899500D01*
X143300098Y-127899500D01*
X143233059Y-127879815D01*
X143212417Y-127863181D01*
X124740090Y-109390855D01*
X124740088Y-109390852D01*
X124621217Y-109271981D01*
X124621216Y-109271980D01*
X124525393Y-109216657D01*
X124484285Y-109192923D01*
X124331557Y-109151999D01*
X124173443Y-109151999D01*
X124165847Y-109151999D01*
X124165831Y-109152000D01*
X123321378Y-109152000D01*
X123254339Y-109132315D01*
X123217445Y-109094622D01*
X123217291Y-109094735D01*
X123216528Y-109093685D01*
X123215648Y-109092786D01*
X123214430Y-109090800D01*
X123214427Y-109090793D01*
X123097621Y-108930023D01*
X122957104Y-108789506D01*
X122796334Y-108672700D01*
X122639858Y-108592971D01*
X122589063Y-108544997D01*
X122572268Y-108477176D01*
X122594805Y-108411041D01*
X122639858Y-108372002D01*
X122796334Y-108292274D01*
X122957104Y-108175468D01*
X123097621Y-108034951D01*
X123214427Y-107874181D01*
X123304645Y-107697119D01*
X123366053Y-107508123D01*
X123397140Y-107311848D01*
X123397140Y-107113126D01*
X123366053Y-106916851D01*
X123304645Y-106727855D01*
X123304645Y-106727854D01*
X123245614Y-106612000D01*
X123214427Y-106550793D01*
X123097621Y-106390023D01*
X122957104Y-106249506D01*
X122796334Y-106132700D01*
X122639858Y-106052971D01*
X122589063Y-106004997D01*
X122572268Y-105937176D01*
X122594805Y-105871041D01*
X122639858Y-105832002D01*
X122796334Y-105752274D01*
X122957104Y-105635468D01*
X123097621Y-105494951D01*
X123214427Y-105334181D01*
X123304645Y-105157119D01*
X123366053Y-104968123D01*
X123397140Y-104771848D01*
X123397140Y-104573126D01*
X123366053Y-104376851D01*
X123304645Y-104187855D01*
X123304645Y-104187854D01*
X123243157Y-104067179D01*
X123214427Y-104010793D01*
X123097621Y-103850023D01*
X122957104Y-103709506D01*
X122796334Y-103592700D01*
X122639858Y-103512971D01*
X122589063Y-103464997D01*
X122572268Y-103397176D01*
X122594805Y-103331041D01*
X122639858Y-103292002D01*
X122796334Y-103212274D01*
X122957104Y-103095468D01*
X123097621Y-102954951D01*
X123214427Y-102794181D01*
X123304645Y-102617119D01*
X123366053Y-102428123D01*
X123397140Y-102231848D01*
X123397140Y-102033126D01*
X123366053Y-101836851D01*
X123304645Y-101647855D01*
X123304645Y-101647854D01*
X123243157Y-101527179D01*
X123214427Y-101470793D01*
X123097621Y-101310023D01*
X122957104Y-101169506D01*
X122796334Y-101052700D01*
X122639858Y-100972971D01*
X122589063Y-100924997D01*
X122572268Y-100857176D01*
X122594805Y-100791041D01*
X122639858Y-100752002D01*
X122796334Y-100672274D01*
X122957104Y-100555468D01*
X123097621Y-100414951D01*
X123214427Y-100254181D01*
X123304645Y-100077119D01*
X123366053Y-99888123D01*
X123397140Y-99691848D01*
X123397140Y-99493126D01*
X123366053Y-99296851D01*
X123326977Y-99176585D01*
X123304646Y-99107857D01*
X123304645Y-99107854D01*
X123243157Y-98987179D01*
X123214427Y-98930793D01*
X123097621Y-98770023D01*
X122957104Y-98629506D01*
X122796334Y-98512700D01*
X122639858Y-98432971D01*
X122589063Y-98384997D01*
X122572268Y-98317176D01*
X122594805Y-98251041D01*
X122639858Y-98212002D01*
X122796334Y-98132274D01*
X122957104Y-98015468D01*
X123097621Y-97874951D01*
X123214427Y-97714181D01*
X123304645Y-97537119D01*
X123366053Y-97348123D01*
X123397140Y-97151848D01*
X123397140Y-96953126D01*
X123366053Y-96756851D01*
X123304645Y-96567855D01*
X123304645Y-96567854D01*
X123243157Y-96447179D01*
X123214427Y-96390793D01*
X123097621Y-96230023D01*
X122957104Y-96089506D01*
X122796334Y-95972700D01*
X122639858Y-95892971D01*
X122589063Y-95844997D01*
X122572268Y-95777176D01*
X122594805Y-95711041D01*
X122639858Y-95672002D01*
X122796334Y-95592274D01*
X122957104Y-95475468D01*
X123097621Y-95334951D01*
X123214427Y-95174181D01*
X123304645Y-94997119D01*
X123366053Y-94808123D01*
X123397140Y-94611848D01*
X123397140Y-94413126D01*
X123366053Y-94216851D01*
X123324580Y-94089208D01*
X123304646Y-94027857D01*
X123304645Y-94027854D01*
X123243157Y-93907179D01*
X123214427Y-93850793D01*
X123097621Y-93690023D01*
X122957104Y-93549506D01*
X122796334Y-93432700D01*
X122639307Y-93352690D01*
X122588512Y-93304716D01*
X122571717Y-93236895D01*
X122594254Y-93170760D01*
X122639308Y-93131721D01*
X122796072Y-93051845D01*
X122956779Y-92935083D01*
X122956780Y-92935083D01*
X123097236Y-92794627D01*
X123097236Y-92794626D01*
X123213998Y-92633919D01*
X123304183Y-92456922D01*
X123365565Y-92268004D01*
X123372774Y-92222487D01*
X122262326Y-92222487D01*
X122266720Y-92218093D01*
X122319381Y-92126881D01*
X122346640Y-92025148D01*
X122346640Y-91919826D01*
X122319381Y-91818093D01*
X122266720Y-91726881D01*
X122262326Y-91722487D01*
X123372775Y-91722487D01*
X123372774Y-91722486D01*
X123365565Y-91676969D01*
X123304183Y-91488051D01*
X123213998Y-91311054D01*
X123097236Y-91150347D01*
X123097236Y-91150346D01*
X122956780Y-91009890D01*
X122796072Y-90893128D01*
X122639308Y-90813252D01*
X122588512Y-90765277D01*
X122571717Y-90697456D01*
X122594255Y-90631321D01*
X122639307Y-90592283D01*
X122796334Y-90512274D01*
X122957104Y-90395468D01*
X123097621Y-90254951D01*
X123214427Y-90094181D01*
X123214429Y-90094176D01*
X123215632Y-90092215D01*
X123216283Y-90091625D01*
X123217291Y-90090239D01*
X123217582Y-90090450D01*
X123267441Y-90045337D01*
X123321362Y-90033000D01*
X124480831Y-90033000D01*
X124480847Y-90033001D01*
X124488443Y-90033001D01*
X124646554Y-90033001D01*
X124646557Y-90033001D01*
X124799285Y-89992077D01*
X124857594Y-89958412D01*
X124936216Y-89913020D01*
X125048020Y-89801216D01*
X125048020Y-89801214D01*
X125058224Y-89791011D01*
X125058228Y-89791006D01*
X126358506Y-88490728D01*
X126358511Y-88490724D01*
X126368714Y-88480520D01*
X126368716Y-88480520D01*
X126480520Y-88368716D01*
X126541854Y-88262482D01*
X126541856Y-88262480D01*
X126559574Y-88231790D01*
X126559575Y-88231789D01*
X126559575Y-88231787D01*
X126559577Y-88231785D01*
X126600501Y-88079057D01*
X126600501Y-87920943D01*
X126600501Y-87913348D01*
X126600500Y-87913330D01*
X126600500Y-84615497D01*
X126620185Y-84548458D01*
X126636819Y-84527816D01*
X128612816Y-82551819D01*
X128674139Y-82518334D01*
X128700497Y-82515500D01*
X162770501Y-82515500D01*
X162837540Y-82535185D01*
X162883295Y-82587989D01*
X162894501Y-82639500D01*
X162894501Y-82812876D01*
X162900908Y-82872483D01*
X162951202Y-83007328D01*
X162951206Y-83007335D01*
X163037452Y-83122544D01*
X163037455Y-83122547D01*
X163152664Y-83208793D01*
X163152671Y-83208797D01*
X163284082Y-83257810D01*
X163340016Y-83299681D01*
X163364433Y-83365145D01*
X163349582Y-83433418D01*
X163328431Y-83461673D01*
X163214889Y-83575215D01*
X163089951Y-83747179D01*
X162993444Y-83936583D01*
X162934906Y-84116744D01*
X162904656Y-84166106D01*
X154961681Y-92109082D01*
X154900358Y-92142567D01*
X154830666Y-92137583D01*
X154774733Y-92095711D01*
X154750316Y-92030247D01*
X154750000Y-92021401D01*
X154750000Y-91873753D01*
X154716757Y-91663872D01*
X154716757Y-91663869D01*
X154651095Y-91461782D01*
X154554624Y-91272449D01*
X154515270Y-91218282D01*
X154515269Y-91218282D01*
X153882962Y-91850590D01*
X153865925Y-91787007D01*
X153800099Y-91672993D01*
X153707007Y-91579901D01*
X153592993Y-91514075D01*
X153529409Y-91497037D01*
X154161716Y-90864728D01*
X154107547Y-90825373D01*
X154107547Y-90825372D01*
X154098500Y-90820763D01*
X154047706Y-90772788D01*
X154030912Y-90704966D01*
X154053451Y-90638832D01*
X154098508Y-90599793D01*
X154107816Y-90595051D01*
X154187007Y-90537515D01*
X154279786Y-90470109D01*
X154279788Y-90470106D01*
X154279792Y-90470104D01*
X154430104Y-90319792D01*
X154430106Y-90319788D01*
X154430109Y-90319786D01*
X154555048Y-90147820D01*
X154555047Y-90147820D01*
X154555051Y-90147816D01*
X154651557Y-89958412D01*
X154717246Y-89756243D01*
X154750500Y-89546287D01*
X154750500Y-89333713D01*
X154717246Y-89123757D01*
X154651557Y-88921588D01*
X154555051Y-88732184D01*
X154555049Y-88732181D01*
X154555048Y-88732179D01*
X154430109Y-88560213D01*
X154279786Y-88409890D01*
X154107820Y-88284951D01*
X153918414Y-88188444D01*
X153918413Y-88188443D01*
X153918412Y-88188443D01*
X153716243Y-88122754D01*
X153716241Y-88122753D01*
X153716240Y-88122753D01*
X153554957Y-88097208D01*
X153506287Y-88089500D01*
X153293713Y-88089500D01*
X153245042Y-88097208D01*
X153083760Y-88122753D01*
X152881585Y-88188444D01*
X152692179Y-88284951D01*
X152520213Y-88409890D01*
X152369890Y-88560213D01*
X152244949Y-88732182D01*
X152228588Y-88764294D01*
X152180614Y-88815091D01*
X152118103Y-88832000D01*
X148721378Y-88832000D01*
X148654339Y-88812315D01*
X148617445Y-88774622D01*
X148617291Y-88774735D01*
X148616528Y-88773685D01*
X148615648Y-88772786D01*
X148614430Y-88770800D01*
X148614427Y-88770793D01*
X148497621Y-88610023D01*
X148357104Y-88469506D01*
X148196334Y-88352700D01*
X148164436Y-88336447D01*
X148019272Y-88262481D01*
X148019269Y-88262480D01*
X147830277Y-88201074D01*
X147732138Y-88185530D01*
X147634001Y-88169987D01*
X147059279Y-88169987D01*
X146993854Y-88180349D01*
X146863002Y-88201074D01*
X146674010Y-88262480D01*
X146674007Y-88262481D01*
X146496945Y-88352700D01*
X146336173Y-88469508D01*
X146195661Y-88610020D01*
X146078853Y-88770792D01*
X145988634Y-88947854D01*
X145988633Y-88947857D01*
X145927227Y-89136849D01*
X145896140Y-89333126D01*
X145896140Y-89531847D01*
X145927227Y-89728124D01*
X145988633Y-89917116D01*
X145988634Y-89917119D01*
X146058080Y-90053412D01*
X146078853Y-90094181D01*
X146195659Y-90254951D01*
X146336176Y-90395468D01*
X146496946Y-90512274D01*
X146653972Y-90592283D01*
X146704767Y-90640256D01*
X146721562Y-90708077D01*
X146699025Y-90774212D01*
X146653972Y-90813251D01*
X146497209Y-90893126D01*
X146336500Y-91009890D01*
X146336499Y-91009890D01*
X146196043Y-91150346D01*
X146196043Y-91150347D01*
X146079281Y-91311054D01*
X145989096Y-91488051D01*
X145927714Y-91676969D01*
X145920505Y-91722486D01*
X145920505Y-91722487D01*
X147030954Y-91722487D01*
X147026560Y-91726881D01*
X146973899Y-91818093D01*
X146946640Y-91919826D01*
X146946640Y-92025148D01*
X146973899Y-92126881D01*
X147026560Y-92218093D01*
X147030954Y-92222487D01*
X145920505Y-92222487D01*
X145927714Y-92268004D01*
X145989096Y-92456922D01*
X146079281Y-92633919D01*
X146196043Y-92794626D01*
X146196043Y-92794627D01*
X146336499Y-92935083D01*
X146497207Y-93051845D01*
X146653971Y-93131721D01*
X146704767Y-93179696D01*
X146721562Y-93247517D01*
X146699024Y-93313652D01*
X146653971Y-93352691D01*
X146496945Y-93432700D01*
X146336173Y-93549508D01*
X146195661Y-93690020D01*
X146078853Y-93850792D01*
X145988634Y-94027854D01*
X145988633Y-94027857D01*
X145927227Y-94216849D01*
X145896140Y-94413126D01*
X145896140Y-94611847D01*
X145927227Y-94808124D01*
X145988633Y-94997116D01*
X145988634Y-94997119D01*
X146058080Y-95133412D01*
X146078853Y-95174181D01*
X146195659Y-95334951D01*
X146336176Y-95475468D01*
X146496946Y-95592274D01*
X146595025Y-95642248D01*
X146653420Y-95672002D01*
X146704216Y-95719977D01*
X146721011Y-95787798D01*
X146698473Y-95853933D01*
X146653420Y-95892972D01*
X146496945Y-95972700D01*
X146336173Y-96089508D01*
X146195661Y-96230020D01*
X146078853Y-96390792D01*
X145988634Y-96567854D01*
X145988633Y-96567857D01*
X145927227Y-96756849D01*
X145896140Y-96953126D01*
X145896140Y-97151847D01*
X145927227Y-97348124D01*
X145988633Y-97537116D01*
X145988634Y-97537119D01*
X146076844Y-97710239D01*
X146078853Y-97714181D01*
X146195659Y-97874951D01*
X146336176Y-98015468D01*
X146496946Y-98132274D01*
X146595025Y-98182248D01*
X146653420Y-98212002D01*
X146704216Y-98259977D01*
X146721011Y-98327798D01*
X146698473Y-98393933D01*
X146653420Y-98432972D01*
X146496945Y-98512700D01*
X146336173Y-98629508D01*
X146195661Y-98770020D01*
X146078853Y-98930792D01*
X145988634Y-99107854D01*
X145988633Y-99107857D01*
X145927227Y-99296849D01*
X145896140Y-99493126D01*
X145896140Y-99691847D01*
X145927227Y-99888124D01*
X145988633Y-100077116D01*
X145988634Y-100077119D01*
X146058080Y-100213412D01*
X146078853Y-100254181D01*
X146195659Y-100414951D01*
X146336176Y-100555468D01*
X146496946Y-100672274D01*
X146595025Y-100722248D01*
X146653420Y-100752002D01*
X146704216Y-100799977D01*
X146721011Y-100867798D01*
X146698473Y-100933933D01*
X146653420Y-100972972D01*
X146496945Y-101052700D01*
X146336173Y-101169508D01*
X146195661Y-101310020D01*
X146078853Y-101470792D01*
X145988634Y-101647854D01*
X145988633Y-101647857D01*
X145927227Y-101836849D01*
X145896140Y-102033126D01*
X145896140Y-102231847D01*
X145927227Y-102428124D01*
X145988633Y-102617116D01*
X145988634Y-102617119D01*
X146076844Y-102790239D01*
X146078853Y-102794181D01*
X146195659Y-102954951D01*
X146336176Y-103095468D01*
X146496946Y-103212274D01*
X146595025Y-103262248D01*
X146653420Y-103292002D01*
X146704216Y-103339977D01*
X146721011Y-103407798D01*
X146698473Y-103473933D01*
X146653420Y-103512972D01*
X146496945Y-103592700D01*
X146336173Y-103709508D01*
X146195661Y-103850020D01*
X146078853Y-104010792D01*
X145988634Y-104187854D01*
X145988633Y-104187857D01*
X145927227Y-104376849D01*
X145896140Y-104573126D01*
X145896140Y-104771847D01*
X145927227Y-104968124D01*
X145988633Y-105157116D01*
X145988634Y-105157119D01*
X146058080Y-105293412D01*
X146078853Y-105334181D01*
X146195659Y-105494951D01*
X146336176Y-105635468D01*
X146496946Y-105752274D01*
X146595025Y-105802248D01*
X146653420Y-105832002D01*
X146704216Y-105879977D01*
X146721011Y-105947798D01*
X146698473Y-106013933D01*
X146653420Y-106052972D01*
X146496945Y-106132700D01*
X146336173Y-106249508D01*
X146195661Y-106390020D01*
X146078853Y-106550792D01*
X145988634Y-106727854D01*
X145988633Y-106727857D01*
X145927227Y-106916849D01*
X145896140Y-107113126D01*
X145896140Y-107311847D01*
X145927227Y-107508124D01*
X145988633Y-107697116D01*
X145988634Y-107697119D01*
X146076844Y-107870239D01*
X146078853Y-107874181D01*
X146195659Y-108034951D01*
X146336176Y-108175468D01*
X146496946Y-108292274D01*
X146595025Y-108342248D01*
X146653420Y-108372002D01*
X146704216Y-108419977D01*
X146721011Y-108487798D01*
X146698473Y-108553933D01*
X146653420Y-108592972D01*
X146496945Y-108672700D01*
X146336173Y-108789508D01*
X146195661Y-108930020D01*
X146078853Y-109090792D01*
X145988634Y-109267854D01*
X145988633Y-109267857D01*
X145927227Y-109456849D01*
X145908435Y-109575500D01*
X145896140Y-109653126D01*
X145896140Y-109851848D01*
X145907568Y-109924003D01*
X145927227Y-110048124D01*
X145988633Y-110237116D01*
X145988634Y-110237119D01*
X146071373Y-110399500D01*
X146078853Y-110414181D01*
X146195659Y-110574951D01*
X146336176Y-110715468D01*
X146496946Y-110832274D01*
X146595025Y-110882248D01*
X146653420Y-110912002D01*
X146704216Y-110959977D01*
X146721011Y-111027798D01*
X146698473Y-111093933D01*
X146653420Y-111132972D01*
X146496945Y-111212700D01*
X146336173Y-111329508D01*
X146195661Y-111470020D01*
X146078853Y-111630792D01*
X145988634Y-111807854D01*
X145988633Y-111807857D01*
X145927227Y-111996849D01*
X145896140Y-112193126D01*
X145896140Y-112391847D01*
X145927227Y-112588124D01*
X145988633Y-112777116D01*
X145988634Y-112777119D01*
X146062406Y-112921902D01*
X146078853Y-112954181D01*
X146195659Y-113114951D01*
X146336176Y-113255468D01*
X146496946Y-113372274D01*
X146595025Y-113422248D01*
X146653420Y-113452002D01*
X146704216Y-113499977D01*
X146721011Y-113567798D01*
X146698473Y-113633933D01*
X146653420Y-113672972D01*
X146496945Y-113752700D01*
X146336173Y-113869508D01*
X146195661Y-114010020D01*
X146078853Y-114170792D01*
X145988634Y-114347854D01*
X145988633Y-114347857D01*
X145927227Y-114536849D01*
X145896140Y-114733126D01*
X145896140Y-114931847D01*
X145927227Y-115128124D01*
X145988633Y-115317116D01*
X145988634Y-115317119D01*
X146062406Y-115461902D01*
X146078853Y-115494181D01*
X146195659Y-115654951D01*
X146336176Y-115795468D01*
X146496946Y-115912274D01*
X146595025Y-115962248D01*
X146653420Y-115992002D01*
X146704216Y-116039977D01*
X146721011Y-116107798D01*
X146698473Y-116173933D01*
X146653420Y-116212972D01*
X146496945Y-116292700D01*
X146336173Y-116409508D01*
X146195661Y-116550020D01*
X146078853Y-116710792D01*
X145988634Y-116887854D01*
X145988633Y-116887857D01*
X145927227Y-117076849D01*
X145896140Y-117273126D01*
X145896140Y-117471847D01*
X145927227Y-117668124D01*
X145988633Y-117857116D01*
X145988634Y-117857119D01*
X146062406Y-118001902D01*
X146078853Y-118034181D01*
X146195659Y-118194951D01*
X146336176Y-118335468D01*
X146496946Y-118452274D01*
X146595025Y-118502248D01*
X146653420Y-118532002D01*
X146704216Y-118579977D01*
X146721011Y-118647798D01*
X146698473Y-118713933D01*
X146653420Y-118752972D01*
X146496945Y-118832700D01*
X146336173Y-118949508D01*
X146195661Y-119090020D01*
X146078853Y-119250792D01*
X145988634Y-119427854D01*
X145988633Y-119427857D01*
X145927227Y-119616849D01*
X145896140Y-119813126D01*
X145896140Y-120011847D01*
X145927227Y-120208124D01*
X145988633Y-120397116D01*
X145988634Y-120397119D01*
X146062406Y-120541902D01*
X146078853Y-120574181D01*
X146195659Y-120734951D01*
X146336176Y-120875468D01*
X146496946Y-120992274D01*
X146595025Y-121042248D01*
X146653420Y-121072002D01*
X146704216Y-121119977D01*
X146721011Y-121187798D01*
X146698473Y-121253933D01*
X146653420Y-121292972D01*
X146496945Y-121372700D01*
X146336173Y-121489508D01*
X146195661Y-121630020D01*
X146078853Y-121790792D01*
X145988634Y-121967854D01*
X145988633Y-121967857D01*
X145927227Y-122156849D01*
X145896140Y-122353126D01*
X145896140Y-122551847D01*
X145927227Y-122748124D01*
X145988633Y-122937116D01*
X145988634Y-122937119D01*
X146062406Y-123081902D01*
X146078853Y-123114181D01*
X146195659Y-123274951D01*
X146336176Y-123415468D01*
X146496946Y-123532274D01*
X146595031Y-123582251D01*
X146653420Y-123612002D01*
X146704216Y-123659977D01*
X146721011Y-123727798D01*
X146698473Y-123793933D01*
X146653420Y-123832972D01*
X146496945Y-123912700D01*
X146336173Y-124029508D01*
X146195661Y-124170020D01*
X146078853Y-124330792D01*
X145988634Y-124507854D01*
X145988633Y-124507857D01*
X145927227Y-124696849D01*
X145896140Y-124893126D01*
X145896140Y-125091847D01*
X145927227Y-125288124D01*
X145988633Y-125477116D01*
X145988634Y-125477119D01*
X146076696Y-125649948D01*
X146078853Y-125654181D01*
X146195659Y-125814951D01*
X146336176Y-125955468D01*
X146496946Y-126072274D01*
X146536310Y-126092331D01*
X146674007Y-126162492D01*
X146674010Y-126162493D01*
X146711722Y-126174746D01*
X146863004Y-126223900D01*
X147059279Y-126254987D01*
X147059280Y-126254987D01*
X147634000Y-126254987D01*
X147634001Y-126254987D01*
X147830276Y-126223900D01*
X148019272Y-126162492D01*
X148196334Y-126072274D01*
X148357104Y-125955468D01*
X148497621Y-125814951D01*
X148614427Y-125654181D01*
X148614429Y-125654176D01*
X148615632Y-125652215D01*
X148616283Y-125651625D01*
X148617291Y-125650239D01*
X148617582Y-125650450D01*
X148667441Y-125605337D01*
X148721362Y-125593000D01*
X151925501Y-125593000D01*
X151992540Y-125612685D01*
X152038295Y-125665489D01*
X152049501Y-125717000D01*
X152049501Y-125897876D01*
X152055908Y-125957483D01*
X152106202Y-126092328D01*
X152106206Y-126092335D01*
X152192452Y-126207544D01*
X152192455Y-126207547D01*
X152307664Y-126293793D01*
X152307671Y-126293797D01*
X152442517Y-126344091D01*
X152442516Y-126344091D01*
X152449444Y-126344835D01*
X152502127Y-126350500D01*
X154297872Y-126350499D01*
X154357483Y-126344091D01*
X154492331Y-126293796D01*
X154607546Y-126207546D01*
X154693796Y-126092331D01*
X154744091Y-125957483D01*
X154750500Y-125897873D01*
X154750499Y-124802014D01*
X185200000Y-124802014D01*
X185200000Y-125037985D01*
X185230799Y-125271914D01*
X185291870Y-125499837D01*
X185382160Y-125717819D01*
X185382165Y-125717828D01*
X185500144Y-125922171D01*
X185500145Y-125922172D01*
X185562721Y-126003723D01*
X186398958Y-125167487D01*
X186423978Y-125227890D01*
X186495112Y-125334351D01*
X186585649Y-125424888D01*
X186692110Y-125496022D01*
X186752511Y-125521041D01*
X185916275Y-126357277D01*
X185997827Y-126419854D01*
X185997828Y-126419855D01*
X186202171Y-126537834D01*
X186202180Y-126537839D01*
X186420163Y-126628129D01*
X186420161Y-126628129D01*
X186648085Y-126689200D01*
X186882014Y-126719999D01*
X186882029Y-126720000D01*
X187117971Y-126720000D01*
X187117985Y-126719999D01*
X187351914Y-126689200D01*
X187579837Y-126628129D01*
X187797819Y-126537839D01*
X187797828Y-126537834D01*
X188002181Y-126419850D01*
X188083723Y-126357279D01*
X188083723Y-126357276D01*
X187247487Y-125521041D01*
X187307890Y-125496022D01*
X187414351Y-125424888D01*
X187504888Y-125334351D01*
X187576022Y-125227890D01*
X187601041Y-125167488D01*
X188437276Y-126003723D01*
X188437279Y-126003723D01*
X188499850Y-125922181D01*
X188617834Y-125717828D01*
X188617839Y-125717819D01*
X188708129Y-125499837D01*
X188769200Y-125271914D01*
X188799999Y-125037985D01*
X188800000Y-125037971D01*
X188800000Y-124802028D01*
X188799999Y-124802014D01*
X188769200Y-124568085D01*
X188708129Y-124340162D01*
X188617839Y-124122180D01*
X188617834Y-124122171D01*
X188499855Y-123917828D01*
X188499854Y-123917827D01*
X188437277Y-123836275D01*
X187601041Y-124672511D01*
X187576022Y-124612110D01*
X187504888Y-124505649D01*
X187414351Y-124415112D01*
X187307890Y-124343978D01*
X187247488Y-124318958D01*
X188083723Y-123482721D01*
X188002172Y-123420145D01*
X188002171Y-123420144D01*
X187797828Y-123302165D01*
X187797819Y-123302160D01*
X187579836Y-123211870D01*
X187579838Y-123211870D01*
X187351914Y-123150799D01*
X187117985Y-123120000D01*
X186882014Y-123120000D01*
X186648085Y-123150799D01*
X186420162Y-123211870D01*
X186202180Y-123302160D01*
X186202171Y-123302165D01*
X185997828Y-123420144D01*
X185997818Y-123420150D01*
X185916275Y-123482720D01*
X185916275Y-123482721D01*
X186752512Y-124318958D01*
X186692110Y-124343978D01*
X186585649Y-124415112D01*
X186495112Y-124505649D01*
X186423978Y-124612110D01*
X186398958Y-124672512D01*
X185562721Y-123836275D01*
X185562720Y-123836275D01*
X185500150Y-123917818D01*
X185500144Y-123917828D01*
X185382165Y-124122171D01*
X185382160Y-124122180D01*
X185291870Y-124340162D01*
X185230799Y-124568085D01*
X185200000Y-124802014D01*
X154750499Y-124802014D01*
X154750499Y-124102128D01*
X154744091Y-124042517D01*
X154739238Y-124029506D01*
X154693797Y-123907671D01*
X154693793Y-123907664D01*
X154607547Y-123792455D01*
X154607544Y-123792452D01*
X154492335Y-123706206D01*
X154492328Y-123706202D01*
X154360917Y-123657189D01*
X154304983Y-123615318D01*
X154280566Y-123549853D01*
X154295418Y-123481580D01*
X154316563Y-123453332D01*
X154430104Y-123339792D01*
X154453935Y-123306992D01*
X154555048Y-123167820D01*
X154555047Y-123167820D01*
X154555051Y-123167816D01*
X154651557Y-122978412D01*
X154717246Y-122776243D01*
X154750500Y-122566287D01*
X154750500Y-122353713D01*
X154717246Y-122143757D01*
X154651557Y-121941588D01*
X154555051Y-121752184D01*
X154555049Y-121752181D01*
X154555048Y-121752179D01*
X154430109Y-121580213D01*
X154279786Y-121429890D01*
X154107820Y-121304951D01*
X154107115Y-121304591D01*
X154099054Y-121300485D01*
X154048259Y-121252512D01*
X154031463Y-121184692D01*
X154053999Y-121118556D01*
X154099054Y-121079515D01*
X154107816Y-121075051D01*
X154221751Y-120992273D01*
X154279786Y-120950109D01*
X154279788Y-120950106D01*
X154279792Y-120950104D01*
X154430104Y-120799792D01*
X154430106Y-120799788D01*
X154430109Y-120799786D01*
X154555048Y-120627820D01*
X154555047Y-120627820D01*
X154555051Y-120627816D01*
X154651557Y-120438412D01*
X154717246Y-120236243D01*
X154750500Y-120026287D01*
X154750500Y-119813713D01*
X154717246Y-119603757D01*
X154651557Y-119401588D01*
X154555051Y-119212184D01*
X154555049Y-119212181D01*
X154555048Y-119212179D01*
X154430109Y-119040213D01*
X154279786Y-118889890D01*
X154107820Y-118764951D01*
X154107115Y-118764591D01*
X154099054Y-118760485D01*
X154048259Y-118712512D01*
X154031463Y-118644692D01*
X154053999Y-118578556D01*
X154099054Y-118539515D01*
X154107816Y-118535051D01*
X154221751Y-118452273D01*
X154279786Y-118410109D01*
X154279788Y-118410106D01*
X154279792Y-118410104D01*
X154430104Y-118259792D01*
X154430106Y-118259788D01*
X154430109Y-118259786D01*
X154555048Y-118087820D01*
X154555047Y-118087820D01*
X154555051Y-118087816D01*
X154651557Y-117898412D01*
X154717246Y-117696243D01*
X154750500Y-117486287D01*
X154750500Y-117273713D01*
X154717246Y-117063757D01*
X154651557Y-116861588D01*
X154555051Y-116672184D01*
X154555049Y-116672181D01*
X154555048Y-116672179D01*
X154430109Y-116500213D01*
X154279786Y-116349890D01*
X154107820Y-116224951D01*
X154107115Y-116224591D01*
X154099054Y-116220485D01*
X154048259Y-116172512D01*
X154031463Y-116104692D01*
X154053999Y-116038556D01*
X154099054Y-115999515D01*
X154107816Y-115995051D01*
X154221751Y-115912273D01*
X154279786Y-115870109D01*
X154279788Y-115870106D01*
X154279792Y-115870104D01*
X154430104Y-115719792D01*
X154430106Y-115719788D01*
X154430109Y-115719786D01*
X154555048Y-115547820D01*
X154555047Y-115547820D01*
X154555051Y-115547816D01*
X154651557Y-115358412D01*
X154717246Y-115156243D01*
X154750500Y-114946287D01*
X154750500Y-114733713D01*
X154717246Y-114523757D01*
X154651557Y-114321588D01*
X154555051Y-114132184D01*
X154555049Y-114132181D01*
X154555048Y-114132179D01*
X154430109Y-113960213D01*
X154279786Y-113809890D01*
X154107820Y-113684951D01*
X154107115Y-113684591D01*
X154099054Y-113680485D01*
X154048259Y-113632512D01*
X154031463Y-113564692D01*
X154053999Y-113498556D01*
X154099054Y-113459515D01*
X154107816Y-113455051D01*
X154221751Y-113372273D01*
X154279786Y-113330109D01*
X154279788Y-113330106D01*
X154279792Y-113330104D01*
X154430104Y-113179792D01*
X154430106Y-113179788D01*
X154430109Y-113179786D01*
X154555048Y-113007820D01*
X154555047Y-113007820D01*
X154555051Y-113007816D01*
X154651557Y-112818412D01*
X154717246Y-112616243D01*
X154750500Y-112406287D01*
X154750500Y-112193713D01*
X154717246Y-111983757D01*
X154651557Y-111781588D01*
X154555051Y-111592184D01*
X154555049Y-111592181D01*
X154555048Y-111592179D01*
X154430109Y-111420213D01*
X154279786Y-111269890D01*
X154107820Y-111144951D01*
X154107115Y-111144591D01*
X154099054Y-111140485D01*
X154048259Y-111092512D01*
X154031463Y-111024692D01*
X154053999Y-110958556D01*
X154099054Y-110919515D01*
X154107816Y-110915051D01*
X154221751Y-110832273D01*
X154279786Y-110790109D01*
X154279788Y-110790106D01*
X154279792Y-110790104D01*
X154430104Y-110639792D01*
X154430106Y-110639788D01*
X154430109Y-110639786D01*
X154488661Y-110559193D01*
X154555051Y-110467816D01*
X154555349Y-110467230D01*
X154575235Y-110428205D01*
X154623209Y-110377409D01*
X154685719Y-110360500D01*
X155459903Y-110360500D01*
X155526942Y-110380185D01*
X155547584Y-110396819D01*
X156515139Y-111364374D01*
X156515149Y-111364385D01*
X156519479Y-111368715D01*
X156519480Y-111368716D01*
X156631284Y-111480520D01*
X156718095Y-111530639D01*
X156718097Y-111530641D01*
X156756151Y-111552611D01*
X156768215Y-111559577D01*
X156920943Y-111600501D01*
X156920946Y-111600501D01*
X157086653Y-111600501D01*
X157086669Y-111600500D01*
X157651436Y-111600500D01*
X157718475Y-111620185D01*
X157764230Y-111672989D01*
X157770512Y-111689905D01*
X157798254Y-111785393D01*
X157798255Y-111785396D01*
X157798256Y-111785398D01*
X157811537Y-111807855D01*
X157881917Y-111926862D01*
X157881923Y-111926870D01*
X157998129Y-112043076D01*
X157998133Y-112043079D01*
X157998135Y-112043081D01*
X158139602Y-112126744D01*
X158181224Y-112138836D01*
X158297426Y-112172597D01*
X158297429Y-112172597D01*
X158297431Y-112172598D01*
X158334306Y-112175500D01*
X158334314Y-112175500D01*
X158765686Y-112175500D01*
X158765694Y-112175500D01*
X158802569Y-112172598D01*
X158802571Y-112172597D01*
X158802573Y-112172597D01*
X158894907Y-112145771D01*
X158960398Y-112126744D01*
X159101865Y-112043081D01*
X159218081Y-111926865D01*
X159301744Y-111785398D01*
X159347598Y-111627569D01*
X159350500Y-111590694D01*
X159350500Y-111590649D01*
X159650000Y-111590649D01*
X159652899Y-111627489D01*
X159652900Y-111627495D01*
X159698716Y-111785193D01*
X159698717Y-111785196D01*
X159782314Y-111926552D01*
X159782321Y-111926561D01*
X159898438Y-112042678D01*
X159898447Y-112042685D01*
X160039801Y-112126281D01*
X160197514Y-112172100D01*
X160197511Y-112172100D01*
X160199998Y-112172295D01*
X160200000Y-112172295D01*
X160700000Y-112172295D01*
X160700001Y-112172295D01*
X160702486Y-112172100D01*
X160860198Y-112126281D01*
X161001552Y-112042685D01*
X161001561Y-112042678D01*
X161117678Y-111926561D01*
X161117685Y-111926552D01*
X161201282Y-111785196D01*
X161201283Y-111785193D01*
X161247099Y-111627495D01*
X161247100Y-111627489D01*
X161249999Y-111590649D01*
X161250000Y-111590634D01*
X161250000Y-111187500D01*
X160700000Y-111187500D01*
X160700000Y-112172295D01*
X160200000Y-112172295D01*
X160200000Y-111187500D01*
X159650000Y-111187500D01*
X159650000Y-111590649D01*
X159350500Y-111590649D01*
X159350500Y-110424500D01*
X159370185Y-110357461D01*
X159422989Y-110311706D01*
X159474500Y-110300500D01*
X159526000Y-110300500D01*
X159593039Y-110320185D01*
X159638794Y-110372989D01*
X159650000Y-110424500D01*
X159650000Y-110687500D01*
X160200000Y-110687500D01*
X160700000Y-110687500D01*
X161250000Y-110687500D01*
X161250000Y-110381902D01*
X161999500Y-110381902D01*
X161999500Y-110618097D01*
X162036446Y-110851368D01*
X162109433Y-111075996D01*
X162208228Y-111269890D01*
X162216657Y-111286433D01*
X162355483Y-111477510D01*
X162522490Y-111644517D01*
X162557127Y-111669683D01*
X162599792Y-111725013D01*
X162605771Y-111794626D01*
X162573165Y-111856421D01*
X162557130Y-111870315D01*
X162539365Y-111883222D01*
X162522488Y-111895484D01*
X162355485Y-112062487D01*
X162355485Y-112062488D01*
X162355483Y-112062490D01*
X162309136Y-112126281D01*
X162216657Y-112253566D01*
X162109433Y-112464003D01*
X162036446Y-112688631D01*
X161999500Y-112921902D01*
X161999500Y-113158097D01*
X162036446Y-113391368D01*
X162109433Y-113615996D01*
X162208228Y-113809890D01*
X162216657Y-113826433D01*
X162355483Y-114017510D01*
X162522490Y-114184517D01*
X162557127Y-114209683D01*
X162599792Y-114265013D01*
X162605771Y-114334626D01*
X162573165Y-114396421D01*
X162557130Y-114410315D01*
X162539365Y-114423222D01*
X162522488Y-114435484D01*
X162355485Y-114602487D01*
X162355485Y-114602488D01*
X162355483Y-114602490D01*
X162299320Y-114679792D01*
X162216657Y-114793566D01*
X162109433Y-115004003D01*
X162036446Y-115228631D01*
X161999500Y-115461902D01*
X161999500Y-115698097D01*
X162036446Y-115931368D01*
X162109433Y-116155996D01*
X162208228Y-116349890D01*
X162216657Y-116366433D01*
X162355483Y-116557510D01*
X162522490Y-116724517D01*
X162557127Y-116749683D01*
X162599792Y-116805013D01*
X162605771Y-116874626D01*
X162573165Y-116936421D01*
X162557130Y-116950315D01*
X162539365Y-116963222D01*
X162522488Y-116975484D01*
X162355485Y-117142487D01*
X162355485Y-117142488D01*
X162355483Y-117142490D01*
X162299320Y-117219792D01*
X162216657Y-117333566D01*
X162109433Y-117544003D01*
X162036446Y-117768631D01*
X161999500Y-118001902D01*
X161999500Y-118238097D01*
X162036446Y-118471368D01*
X162109433Y-118695996D01*
X162208228Y-118889890D01*
X162216657Y-118906433D01*
X162355483Y-119097510D01*
X162522490Y-119264517D01*
X162557127Y-119289683D01*
X162599792Y-119345013D01*
X162605771Y-119414626D01*
X162573165Y-119476421D01*
X162557130Y-119490315D01*
X162539365Y-119503222D01*
X162522488Y-119515484D01*
X162355485Y-119682487D01*
X162355485Y-119682488D01*
X162355483Y-119682490D01*
X162299320Y-119759792D01*
X162216657Y-119873566D01*
X162109433Y-120084003D01*
X162036446Y-120308631D01*
X161999500Y-120541902D01*
X161999500Y-120778097D01*
X162036446Y-121011368D01*
X162109433Y-121235996D01*
X162208228Y-121429890D01*
X162216657Y-121446433D01*
X162355483Y-121637510D01*
X162522490Y-121804517D01*
X162557127Y-121829683D01*
X162599792Y-121885013D01*
X162605771Y-121954626D01*
X162573165Y-122016421D01*
X162557130Y-122030315D01*
X162539365Y-122043222D01*
X162522488Y-122055484D01*
X162355485Y-122222487D01*
X162355485Y-122222488D01*
X162355483Y-122222490D01*
X162299320Y-122299792D01*
X162216657Y-122413566D01*
X162109433Y-122624003D01*
X162036446Y-122848631D01*
X161999500Y-123081902D01*
X161999500Y-123318097D01*
X162036446Y-123551368D01*
X162109433Y-123775996D01*
X162181701Y-123917828D01*
X162216657Y-123986433D01*
X162355483Y-124177510D01*
X162522490Y-124344517D01*
X162713567Y-124483343D01*
X162812991Y-124534002D01*
X162924003Y-124590566D01*
X162924005Y-124590566D01*
X162924008Y-124590568D01*
X163044412Y-124629689D01*
X163148631Y-124663553D01*
X163381903Y-124700500D01*
X163381908Y-124700500D01*
X163618097Y-124700500D01*
X163851368Y-124663553D01*
X164075992Y-124590568D01*
X164286433Y-124483343D01*
X164477510Y-124344517D01*
X164644517Y-124177510D01*
X164669682Y-124142872D01*
X164725011Y-124100207D01*
X164794625Y-124094228D01*
X164856420Y-124126833D01*
X164870315Y-124142870D01*
X164895483Y-124177510D01*
X165062490Y-124344517D01*
X165253567Y-124483343D01*
X165352991Y-124534002D01*
X165464003Y-124590566D01*
X165464005Y-124590566D01*
X165464008Y-124590568D01*
X165584412Y-124629689D01*
X165688631Y-124663553D01*
X165921903Y-124700500D01*
X165921908Y-124700500D01*
X166158097Y-124700500D01*
X166391368Y-124663553D01*
X166615992Y-124590568D01*
X166826433Y-124483343D01*
X167017510Y-124344517D01*
X167184517Y-124177510D01*
X167209682Y-124142872D01*
X167265011Y-124100207D01*
X167334625Y-124094228D01*
X167396420Y-124126833D01*
X167410315Y-124142870D01*
X167435483Y-124177510D01*
X167602490Y-124344517D01*
X167793567Y-124483343D01*
X167892991Y-124534002D01*
X168004003Y-124590566D01*
X168004005Y-124590566D01*
X168004008Y-124590568D01*
X168124412Y-124629689D01*
X168228631Y-124663553D01*
X168461903Y-124700500D01*
X168461908Y-124700500D01*
X168698097Y-124700500D01*
X168931368Y-124663553D01*
X169155992Y-124590568D01*
X169366433Y-124483343D01*
X169557510Y-124344517D01*
X169724517Y-124177510D01*
X169749682Y-124142872D01*
X169805011Y-124100207D01*
X169874625Y-124094228D01*
X169936420Y-124126833D01*
X169950315Y-124142870D01*
X169975483Y-124177510D01*
X170142490Y-124344517D01*
X170333567Y-124483343D01*
X170432991Y-124534002D01*
X170544003Y-124590566D01*
X170544005Y-124590566D01*
X170544008Y-124590568D01*
X170664412Y-124629689D01*
X170768631Y-124663553D01*
X171001903Y-124700500D01*
X171001908Y-124700500D01*
X171238097Y-124700500D01*
X171471368Y-124663553D01*
X171695992Y-124590568D01*
X171906433Y-124483343D01*
X172097510Y-124344517D01*
X172264517Y-124177510D01*
X172289682Y-124142872D01*
X172345011Y-124100207D01*
X172414625Y-124094228D01*
X172476420Y-124126833D01*
X172490315Y-124142870D01*
X172515483Y-124177510D01*
X172682490Y-124344517D01*
X172873567Y-124483343D01*
X172972991Y-124534002D01*
X173084003Y-124590566D01*
X173084005Y-124590566D01*
X173084008Y-124590568D01*
X173204412Y-124629689D01*
X173308631Y-124663553D01*
X173541903Y-124700500D01*
X173541908Y-124700500D01*
X173778097Y-124700500D01*
X174011368Y-124663553D01*
X174235992Y-124590568D01*
X174446433Y-124483343D01*
X174637510Y-124344517D01*
X174804517Y-124177510D01*
X174829682Y-124142872D01*
X174885011Y-124100207D01*
X174954625Y-124094228D01*
X175016420Y-124126833D01*
X175030315Y-124142870D01*
X175055483Y-124177510D01*
X175222490Y-124344517D01*
X175413567Y-124483343D01*
X175512991Y-124534002D01*
X175624003Y-124590566D01*
X175624005Y-124590566D01*
X175624008Y-124590568D01*
X175744412Y-124629689D01*
X175848631Y-124663553D01*
X176081903Y-124700500D01*
X176081908Y-124700500D01*
X176318097Y-124700500D01*
X176551368Y-124663553D01*
X176775992Y-124590568D01*
X176986433Y-124483343D01*
X177177510Y-124344517D01*
X177344517Y-124177510D01*
X177369682Y-124142872D01*
X177425011Y-124100207D01*
X177494625Y-124094228D01*
X177556420Y-124126833D01*
X177570315Y-124142870D01*
X177595483Y-124177510D01*
X177762490Y-124344517D01*
X177953567Y-124483343D01*
X178052991Y-124534002D01*
X178164003Y-124590566D01*
X178164005Y-124590566D01*
X178164008Y-124590568D01*
X178284412Y-124629689D01*
X178388631Y-124663553D01*
X178621903Y-124700500D01*
X178621908Y-124700500D01*
X178858097Y-124700500D01*
X179016003Y-124675490D01*
X179091368Y-124663553D01*
X179315992Y-124590568D01*
X179526433Y-124483343D01*
X179717510Y-124344517D01*
X179884517Y-124177510D01*
X180023343Y-123986433D01*
X180130568Y-123775992D01*
X180203553Y-123551368D01*
X180218451Y-123457304D01*
X180240500Y-123318097D01*
X180240500Y-123081902D01*
X180203553Y-122848631D01*
X180130566Y-122624003D01*
X180023342Y-122413566D01*
X179979856Y-122353713D01*
X179884517Y-122222490D01*
X179717510Y-122055483D01*
X179682872Y-122030317D01*
X179640207Y-121974989D01*
X179634228Y-121905375D01*
X179666833Y-121843580D01*
X179682873Y-121829682D01*
X179717510Y-121804517D01*
X179884517Y-121637510D01*
X180023343Y-121446433D01*
X180130568Y-121235992D01*
X180203553Y-121011368D01*
X180206577Y-120992273D01*
X180240500Y-120778097D01*
X180240500Y-120541902D01*
X180203553Y-120308631D01*
X180130566Y-120084003D01*
X180023342Y-119873566D01*
X179999254Y-119840412D01*
X179884517Y-119682490D01*
X179717510Y-119515483D01*
X179682872Y-119490317D01*
X179640207Y-119434989D01*
X179634228Y-119365375D01*
X179666833Y-119303580D01*
X179682873Y-119289682D01*
X179717510Y-119264517D01*
X179884517Y-119097510D01*
X180023343Y-118906433D01*
X180130568Y-118695992D01*
X180203553Y-118471368D01*
X180206577Y-118452273D01*
X180240500Y-118238097D01*
X180240500Y-118001902D01*
X180203553Y-117768631D01*
X180130566Y-117544003D01*
X180023342Y-117333566D01*
X179979856Y-117273713D01*
X179884517Y-117142490D01*
X179839710Y-117097683D01*
X185156800Y-117097683D01*
X185156800Y-119297701D01*
X185156801Y-119297718D01*
X185167300Y-119400496D01*
X185167301Y-119400499D01*
X185222485Y-119567031D01*
X185222487Y-119567036D01*
X185245137Y-119603757D01*
X185314588Y-119716356D01*
X185438644Y-119840412D01*
X185587966Y-119932514D01*
X185754503Y-119987699D01*
X185857291Y-119998200D01*
X188057308Y-119998199D01*
X188160097Y-119987699D01*
X188326634Y-119932514D01*
X188475956Y-119840412D01*
X188600012Y-119716356D01*
X188692114Y-119567034D01*
X188747299Y-119400497D01*
X188757800Y-119297709D01*
X188757799Y-117097692D01*
X188747299Y-116994903D01*
X188692114Y-116828366D01*
X188600012Y-116679044D01*
X188475956Y-116554988D01*
X188354716Y-116480207D01*
X188326636Y-116462887D01*
X188326631Y-116462885D01*
X188325162Y-116462398D01*
X188160097Y-116407701D01*
X188160095Y-116407700D01*
X188057310Y-116397200D01*
X185857298Y-116397200D01*
X185857281Y-116397201D01*
X185754503Y-116407700D01*
X185754500Y-116407701D01*
X185587968Y-116462885D01*
X185587963Y-116462887D01*
X185438642Y-116554989D01*
X185314589Y-116679042D01*
X185222487Y-116828363D01*
X185222485Y-116828368D01*
X185200409Y-116894989D01*
X185167301Y-116994903D01*
X185167301Y-116994904D01*
X185167300Y-116994904D01*
X185156800Y-117097683D01*
X179839710Y-117097683D01*
X179717510Y-116975483D01*
X179682872Y-116950317D01*
X179640207Y-116894989D01*
X179634228Y-116825375D01*
X179666833Y-116763580D01*
X179682873Y-116749682D01*
X179717510Y-116724517D01*
X179884517Y-116557510D01*
X180023343Y-116366433D01*
X180130568Y-116155992D01*
X180203553Y-115931368D01*
X180206577Y-115912273D01*
X180240500Y-115698097D01*
X180240500Y-115461902D01*
X180203553Y-115228631D01*
X180130566Y-115004003D01*
X180023342Y-114793566D01*
X180009999Y-114775201D01*
X179884517Y-114602490D01*
X179717510Y-114435483D01*
X179682872Y-114410317D01*
X179640207Y-114354989D01*
X179634228Y-114285375D01*
X179666833Y-114223580D01*
X179682873Y-114209682D01*
X179717510Y-114184517D01*
X179884517Y-114017510D01*
X180023343Y-113826433D01*
X180130568Y-113615992D01*
X180203553Y-113391368D01*
X180206577Y-113372273D01*
X180240500Y-113158097D01*
X180240500Y-112999695D01*
X185156800Y-112999695D01*
X185156800Y-113235704D01*
X185156801Y-113235720D01*
X185187606Y-113469710D01*
X185248694Y-113697693D01*
X185339014Y-113915745D01*
X185339019Y-113915756D01*
X185364684Y-113960208D01*
X185457027Y-114120150D01*
X185457029Y-114120153D01*
X185457030Y-114120154D01*
X185600706Y-114307397D01*
X185600712Y-114307404D01*
X185767595Y-114474287D01*
X185767601Y-114474292D01*
X185954850Y-114617973D01*
X186061924Y-114679792D01*
X186159243Y-114735980D01*
X186159248Y-114735982D01*
X186159251Y-114735984D01*
X186377307Y-114826306D01*
X186605286Y-114887393D01*
X186839289Y-114918200D01*
X186839296Y-114918200D01*
X187075304Y-114918200D01*
X187075311Y-114918200D01*
X187309314Y-114887393D01*
X187537293Y-114826306D01*
X187755349Y-114735984D01*
X187759283Y-114733713D01*
X187760299Y-114733126D01*
X187959750Y-114617973D01*
X188146999Y-114474292D01*
X188313892Y-114307399D01*
X188457573Y-114120150D01*
X188575584Y-113915749D01*
X188665906Y-113697693D01*
X188726993Y-113469714D01*
X188757800Y-113235711D01*
X188757800Y-112999689D01*
X188726993Y-112765686D01*
X188665906Y-112537707D01*
X188575584Y-112319651D01*
X188575582Y-112319648D01*
X188575580Y-112319643D01*
X188526827Y-112235201D01*
X188457573Y-112115250D01*
X188313892Y-111928001D01*
X188313887Y-111927995D01*
X188147004Y-111761112D01*
X188146997Y-111761106D01*
X187959754Y-111617430D01*
X187959753Y-111617429D01*
X187959750Y-111617427D01*
X187859551Y-111559577D01*
X187755356Y-111499419D01*
X187755345Y-111499414D01*
X187537293Y-111409094D01*
X187504126Y-111400207D01*
X187309314Y-111348007D01*
X187309313Y-111348006D01*
X187309310Y-111348006D01*
X187075320Y-111317201D01*
X187075317Y-111317200D01*
X187075311Y-111317200D01*
X186839289Y-111317200D01*
X186839283Y-111317200D01*
X186839279Y-111317201D01*
X186605289Y-111348006D01*
X186377306Y-111409094D01*
X186159254Y-111499414D01*
X186159243Y-111499419D01*
X185954845Y-111617430D01*
X185767602Y-111761106D01*
X185767595Y-111761112D01*
X185600712Y-111927995D01*
X185600706Y-111928002D01*
X185457030Y-112115245D01*
X185339019Y-112319643D01*
X185339014Y-112319654D01*
X185248694Y-112537706D01*
X185187606Y-112765689D01*
X185156801Y-112999679D01*
X185156800Y-112999695D01*
X180240500Y-112999695D01*
X180240500Y-112921902D01*
X180203553Y-112688631D01*
X180130566Y-112464003D01*
X180023342Y-112253566D01*
X179979856Y-112193713D01*
X179884517Y-112062490D01*
X179717510Y-111895483D01*
X179682872Y-111870317D01*
X179640207Y-111814989D01*
X179634228Y-111745375D01*
X179666833Y-111683580D01*
X179682873Y-111669682D01*
X179686197Y-111667267D01*
X179717510Y-111644517D01*
X179884517Y-111477510D01*
X180023343Y-111286433D01*
X180130568Y-111075992D01*
X180203553Y-110851368D01*
X180206577Y-110832273D01*
X180240500Y-110618097D01*
X180240500Y-110381902D01*
X180203553Y-110148631D01*
X180145087Y-109968693D01*
X180130568Y-109924008D01*
X180130566Y-109924005D01*
X180130566Y-109924003D01*
X180071150Y-109807393D01*
X180023343Y-109713567D01*
X179884517Y-109522490D01*
X179717510Y-109355483D01*
X179526433Y-109216657D01*
X179494570Y-109200422D01*
X179315996Y-109109433D01*
X179091368Y-109036446D01*
X178858097Y-108999500D01*
X178858092Y-108999500D01*
X178621908Y-108999500D01*
X178621903Y-108999500D01*
X178388631Y-109036446D01*
X178164003Y-109109433D01*
X177953566Y-109216657D01*
X177877420Y-109271981D01*
X177762490Y-109355483D01*
X177762488Y-109355485D01*
X177762487Y-109355485D01*
X177595484Y-109522488D01*
X177570318Y-109557127D01*
X177514987Y-109599792D01*
X177445374Y-109605771D01*
X177383579Y-109573165D01*
X177369682Y-109557127D01*
X177355763Y-109537969D01*
X177344517Y-109522490D01*
X177177510Y-109355483D01*
X176986433Y-109216657D01*
X176954570Y-109200422D01*
X176775996Y-109109433D01*
X176551368Y-109036446D01*
X176318097Y-108999500D01*
X176318092Y-108999500D01*
X176081908Y-108999500D01*
X176081903Y-108999500D01*
X175848631Y-109036446D01*
X175624003Y-109109433D01*
X175413566Y-109216657D01*
X175337420Y-109271981D01*
X175222490Y-109355483D01*
X175222488Y-109355485D01*
X175222487Y-109355485D01*
X175055484Y-109522488D01*
X175030318Y-109557127D01*
X174974987Y-109599792D01*
X174905374Y-109605771D01*
X174843579Y-109573165D01*
X174829682Y-109557127D01*
X174815763Y-109537969D01*
X174804517Y-109522490D01*
X174637510Y-109355483D01*
X174446433Y-109216657D01*
X174414570Y-109200422D01*
X174235996Y-109109433D01*
X174011368Y-109036446D01*
X173778097Y-108999500D01*
X173778092Y-108999500D01*
X173541908Y-108999500D01*
X173541903Y-108999500D01*
X173308631Y-109036446D01*
X173084003Y-109109433D01*
X172873566Y-109216657D01*
X172797420Y-109271981D01*
X172682490Y-109355483D01*
X172682488Y-109355485D01*
X172682487Y-109355485D01*
X172515484Y-109522488D01*
X172490318Y-109557127D01*
X172434987Y-109599792D01*
X172365374Y-109605771D01*
X172303579Y-109573165D01*
X172289682Y-109557127D01*
X172275763Y-109537969D01*
X172264517Y-109522490D01*
X172097510Y-109355483D01*
X171906433Y-109216657D01*
X171874570Y-109200422D01*
X171695996Y-109109433D01*
X171471368Y-109036446D01*
X171238097Y-108999500D01*
X171238092Y-108999500D01*
X171001908Y-108999500D01*
X171001903Y-108999500D01*
X170768631Y-109036446D01*
X170544003Y-109109433D01*
X170333566Y-109216657D01*
X170257420Y-109271981D01*
X170142490Y-109355483D01*
X170142488Y-109355485D01*
X170142487Y-109355485D01*
X169975484Y-109522488D01*
X169950318Y-109557127D01*
X169894987Y-109599792D01*
X169825374Y-109605771D01*
X169763579Y-109573165D01*
X169749682Y-109557127D01*
X169735763Y-109537969D01*
X169724517Y-109522490D01*
X169557510Y-109355483D01*
X169366433Y-109216657D01*
X169334570Y-109200422D01*
X169155996Y-109109433D01*
X168931368Y-109036446D01*
X168698097Y-108999500D01*
X168698092Y-108999500D01*
X168461908Y-108999500D01*
X168461903Y-108999500D01*
X168228631Y-109036446D01*
X168004003Y-109109433D01*
X167793566Y-109216657D01*
X167717420Y-109271981D01*
X167602490Y-109355483D01*
X167602488Y-109355485D01*
X167602487Y-109355485D01*
X167435484Y-109522488D01*
X167410318Y-109557127D01*
X167354987Y-109599792D01*
X167285374Y-109605771D01*
X167223579Y-109573165D01*
X167209682Y-109557127D01*
X167195763Y-109537969D01*
X167184517Y-109522490D01*
X167017510Y-109355483D01*
X166826433Y-109216657D01*
X166794570Y-109200422D01*
X166615996Y-109109433D01*
X166391368Y-109036446D01*
X166158097Y-108999500D01*
X166158092Y-108999500D01*
X165921908Y-108999500D01*
X165921903Y-108999500D01*
X165688631Y-109036446D01*
X165464003Y-109109433D01*
X165253566Y-109216657D01*
X165177420Y-109271981D01*
X165062490Y-109355483D01*
X165062488Y-109355485D01*
X165062487Y-109355485D01*
X164895484Y-109522488D01*
X164870318Y-109557127D01*
X164814987Y-109599792D01*
X164745374Y-109605771D01*
X164683579Y-109573165D01*
X164669682Y-109557127D01*
X164655763Y-109537969D01*
X164644517Y-109522490D01*
X164477510Y-109355483D01*
X164286433Y-109216657D01*
X164254570Y-109200422D01*
X164075996Y-109109433D01*
X163851368Y-109036446D01*
X163618097Y-108999500D01*
X163618092Y-108999500D01*
X163381908Y-108999500D01*
X163381903Y-108999500D01*
X163148631Y-109036446D01*
X162924003Y-109109433D01*
X162713566Y-109216657D01*
X162637420Y-109271981D01*
X162522490Y-109355483D01*
X162522488Y-109355485D01*
X162522487Y-109355485D01*
X162355485Y-109522487D01*
X162355485Y-109522488D01*
X162355483Y-109522490D01*
X162316969Y-109575500D01*
X162216657Y-109713566D01*
X162109433Y-109924003D01*
X162036446Y-110148631D01*
X161999500Y-110381902D01*
X161250000Y-110381902D01*
X161250000Y-110284365D01*
X161249999Y-110284350D01*
X161247100Y-110247510D01*
X161247099Y-110247504D01*
X161201283Y-110089806D01*
X161201282Y-110089803D01*
X161117685Y-109948447D01*
X161117678Y-109948438D01*
X161001561Y-109832321D01*
X161001552Y-109832314D01*
X160860196Y-109748717D01*
X160860193Y-109748716D01*
X160702494Y-109702900D01*
X160702497Y-109702900D01*
X160700000Y-109702703D01*
X160700000Y-110687500D01*
X160200000Y-110687500D01*
X160200000Y-110031814D01*
X160217267Y-109968694D01*
X160251744Y-109910398D01*
X160297598Y-109752569D01*
X160300500Y-109715694D01*
X160300500Y-108409306D01*
X160297598Y-108372431D01*
X160297473Y-108372002D01*
X160251745Y-108214606D01*
X160251744Y-108214603D01*
X160251744Y-108214602D01*
X160168081Y-108073135D01*
X160168079Y-108073133D01*
X160168076Y-108073129D01*
X160136819Y-108041872D01*
X160122115Y-108014944D01*
X160105523Y-107989126D01*
X160104631Y-107982925D01*
X160103334Y-107980549D01*
X160100500Y-107954191D01*
X160100500Y-107919695D01*
X185156800Y-107919695D01*
X185156800Y-108155704D01*
X185156801Y-108155720D01*
X185187606Y-108389710D01*
X185248694Y-108617693D01*
X185339014Y-108835745D01*
X185339019Y-108835756D01*
X185364684Y-108880208D01*
X185457027Y-109040150D01*
X185457029Y-109040153D01*
X185457030Y-109040154D01*
X185600706Y-109227397D01*
X185600712Y-109227404D01*
X185767595Y-109394287D01*
X185767601Y-109394292D01*
X185954850Y-109537973D01*
X186061924Y-109599792D01*
X186159243Y-109655980D01*
X186159248Y-109655982D01*
X186159251Y-109655984D01*
X186377307Y-109746306D01*
X186605286Y-109807393D01*
X186839289Y-109838200D01*
X186839296Y-109838200D01*
X187075304Y-109838200D01*
X187075311Y-109838200D01*
X187309314Y-109807393D01*
X187537293Y-109746306D01*
X187755349Y-109655984D01*
X187959750Y-109537973D01*
X188146999Y-109394292D01*
X188313892Y-109227399D01*
X188457573Y-109040150D01*
X188575584Y-108835749D01*
X188665906Y-108617693D01*
X188726993Y-108389714D01*
X188757800Y-108155711D01*
X188757800Y-107919689D01*
X188726993Y-107685686D01*
X188665906Y-107457707D01*
X188575584Y-107239651D01*
X188575582Y-107239648D01*
X188575580Y-107239643D01*
X188533418Y-107166618D01*
X188457573Y-107035250D01*
X188313892Y-106848001D01*
X188313887Y-106847995D01*
X188147004Y-106681112D01*
X188146997Y-106681106D01*
X187959754Y-106537430D01*
X187959753Y-106537429D01*
X187959750Y-106537427D01*
X187859208Y-106479379D01*
X187755356Y-106419419D01*
X187755345Y-106419414D01*
X187537293Y-106329094D01*
X187309310Y-106268006D01*
X187075320Y-106237201D01*
X187075317Y-106237200D01*
X187075311Y-106237200D01*
X186839289Y-106237200D01*
X186839283Y-106237200D01*
X186839279Y-106237201D01*
X186605289Y-106268006D01*
X186377306Y-106329094D01*
X186159254Y-106419414D01*
X186159243Y-106419419D01*
X185954845Y-106537430D01*
X185767602Y-106681106D01*
X185767595Y-106681112D01*
X185600712Y-106847995D01*
X185600706Y-106848002D01*
X185457030Y-107035245D01*
X185339019Y-107239643D01*
X185339014Y-107239654D01*
X185248694Y-107457706D01*
X185187606Y-107685689D01*
X185156801Y-107919679D01*
X185156800Y-107919695D01*
X160100500Y-107919695D01*
X160100500Y-99660096D01*
X160120185Y-99593057D01*
X160136814Y-99572420D01*
X162682819Y-97026414D01*
X162744142Y-96992930D01*
X162813834Y-96997914D01*
X162869767Y-97039786D01*
X162894184Y-97105250D01*
X162894500Y-97114096D01*
X162894500Y-97261287D01*
X162927754Y-97471243D01*
X162992304Y-97669908D01*
X162993444Y-97673414D01*
X163089951Y-97862820D01*
X163214890Y-98034786D01*
X163365213Y-98185109D01*
X163537182Y-98310050D01*
X163545946Y-98314516D01*
X163596742Y-98362491D01*
X163613536Y-98430312D01*
X163590998Y-98496447D01*
X163545946Y-98535484D01*
X163537182Y-98539949D01*
X163365213Y-98664890D01*
X163214890Y-98815213D01*
X163089951Y-98987179D01*
X162993444Y-99176585D01*
X162927753Y-99378760D01*
X162909187Y-99495984D01*
X162894500Y-99588713D01*
X162894500Y-99801287D01*
X162927754Y-100011243D01*
X162992304Y-100209908D01*
X162993444Y-100213414D01*
X163089951Y-100402820D01*
X163214890Y-100574786D01*
X163365213Y-100725109D01*
X163537182Y-100850050D01*
X163545946Y-100854516D01*
X163596742Y-100902491D01*
X163613536Y-100970312D01*
X163590998Y-101036447D01*
X163545946Y-101075484D01*
X163537182Y-101079949D01*
X163365213Y-101204890D01*
X163214890Y-101355213D01*
X163089951Y-101527179D01*
X162993444Y-101716585D01*
X162993443Y-101716587D01*
X162993443Y-101716588D01*
X162969279Y-101790957D01*
X162927753Y-101918760D01*
X162894500Y-102128713D01*
X162894500Y-102341287D01*
X162927754Y-102551243D01*
X162992304Y-102749908D01*
X162993444Y-102753414D01*
X163089951Y-102942820D01*
X163214890Y-103114786D01*
X163365213Y-103265109D01*
X163537182Y-103390050D01*
X163545946Y-103394516D01*
X163596742Y-103442491D01*
X163613536Y-103510312D01*
X163590998Y-103576447D01*
X163545946Y-103615484D01*
X163537182Y-103619949D01*
X163365213Y-103744890D01*
X163214890Y-103895213D01*
X163089951Y-104067179D01*
X162993444Y-104256585D01*
X162927753Y-104458760D01*
X162894500Y-104668713D01*
X162894500Y-104881286D01*
X162927735Y-105091127D01*
X162927754Y-105091243D01*
X162992304Y-105289908D01*
X162993444Y-105293414D01*
X163089951Y-105482820D01*
X163214890Y-105654786D01*
X163365213Y-105805109D01*
X163537179Y-105930048D01*
X163537181Y-105930049D01*
X163537184Y-105930051D01*
X163726588Y-106026557D01*
X163928757Y-106092246D01*
X164138713Y-106125500D01*
X164138714Y-106125500D01*
X164351286Y-106125500D01*
X164351287Y-106125500D01*
X164561243Y-106092246D01*
X164763412Y-106026557D01*
X164952816Y-105930051D01*
X165011395Y-105887491D01*
X165124786Y-105805109D01*
X165124788Y-105805106D01*
X165124792Y-105805104D01*
X165275104Y-105654792D01*
X165275106Y-105654788D01*
X165275109Y-105654786D01*
X165400048Y-105482820D01*
X165400047Y-105482820D01*
X165400051Y-105482816D01*
X165496557Y-105293412D01*
X165562246Y-105091243D01*
X165595500Y-104881287D01*
X165595500Y-104668713D01*
X165562246Y-104458757D01*
X165496557Y-104256588D01*
X165400051Y-104067184D01*
X165400049Y-104067181D01*
X165400048Y-104067179D01*
X165275109Y-103895213D01*
X165124786Y-103744890D01*
X164952820Y-103619951D01*
X164952115Y-103619591D01*
X164944054Y-103615485D01*
X164893259Y-103567512D01*
X164876463Y-103499692D01*
X164898999Y-103433556D01*
X164944054Y-103394515D01*
X164952816Y-103390051D01*
X165011395Y-103347491D01*
X165124786Y-103265109D01*
X165124788Y-103265106D01*
X165124792Y-103265104D01*
X165275104Y-103114792D01*
X165275106Y-103114788D01*
X165275109Y-103114786D01*
X165400048Y-102942820D01*
X165400049Y-102942819D01*
X165400051Y-102942816D01*
X165496557Y-102753412D01*
X165562246Y-102551243D01*
X165595500Y-102341287D01*
X165595500Y-102128713D01*
X165562246Y-101918757D01*
X165496557Y-101716588D01*
X165400051Y-101527184D01*
X165400049Y-101527181D01*
X165400048Y-101527179D01*
X165275109Y-101355213D01*
X165124786Y-101204890D01*
X164952820Y-101079951D01*
X164952115Y-101079591D01*
X164944054Y-101075485D01*
X164893259Y-101027512D01*
X164876463Y-100959692D01*
X164898999Y-100893556D01*
X164944054Y-100854515D01*
X164952816Y-100850051D01*
X165011395Y-100807491D01*
X165124786Y-100725109D01*
X165124788Y-100725106D01*
X165124792Y-100725104D01*
X165275104Y-100574792D01*
X165275106Y-100574788D01*
X165275109Y-100574786D01*
X165400048Y-100402820D01*
X165400047Y-100402820D01*
X165400051Y-100402816D01*
X165496557Y-100213412D01*
X165562246Y-100011243D01*
X165595500Y-99801287D01*
X165595500Y-99588713D01*
X165562246Y-99378757D01*
X165496557Y-99176588D01*
X165400051Y-98987184D01*
X165400049Y-98987181D01*
X165400048Y-98987179D01*
X165275109Y-98815213D01*
X165124786Y-98664890D01*
X164952820Y-98539951D01*
X164952115Y-98539591D01*
X164944054Y-98535485D01*
X164893259Y-98487512D01*
X164876463Y-98419692D01*
X164898999Y-98353556D01*
X164944054Y-98314515D01*
X164952816Y-98310051D01*
X165011395Y-98267491D01*
X165124786Y-98185109D01*
X165124788Y-98185106D01*
X165124792Y-98185104D01*
X165275104Y-98034792D01*
X165275106Y-98034788D01*
X165275109Y-98034786D01*
X165400048Y-97862820D01*
X165400049Y-97862819D01*
X165400051Y-97862816D01*
X165496557Y-97673412D01*
X165562246Y-97471243D01*
X165595500Y-97261287D01*
X165595500Y-97048713D01*
X165562246Y-96838757D01*
X165496557Y-96636588D01*
X165400051Y-96447184D01*
X165400049Y-96447181D01*
X165400048Y-96447179D01*
X165275109Y-96275213D01*
X165124786Y-96124890D01*
X164952820Y-95999951D01*
X164952115Y-95999591D01*
X164944054Y-95995485D01*
X164893259Y-95947512D01*
X164876463Y-95879692D01*
X164898999Y-95813556D01*
X164944054Y-95774515D01*
X164952816Y-95770051D01*
X165011395Y-95727491D01*
X165124786Y-95645109D01*
X165124788Y-95645106D01*
X165124792Y-95645104D01*
X165275104Y-95494792D01*
X165275106Y-95494788D01*
X165275109Y-95494786D01*
X165400048Y-95322820D01*
X165400047Y-95322820D01*
X165400051Y-95322816D01*
X165496557Y-95133412D01*
X165562246Y-94931243D01*
X165595500Y-94721287D01*
X165595500Y-94508713D01*
X165562246Y-94298757D01*
X165496557Y-94096588D01*
X165400051Y-93907184D01*
X165400049Y-93907181D01*
X165400048Y-93907179D01*
X165275109Y-93735213D01*
X165124786Y-93584890D01*
X164952820Y-93459951D01*
X164952115Y-93459591D01*
X164944054Y-93455485D01*
X164893259Y-93407512D01*
X164876463Y-93339692D01*
X164898999Y-93273556D01*
X164944054Y-93234515D01*
X164952816Y-93230051D01*
X165036158Y-93169500D01*
X165124786Y-93105109D01*
X165124788Y-93105106D01*
X165124792Y-93105104D01*
X165275104Y-92954792D01*
X165275106Y-92954788D01*
X165275109Y-92954786D01*
X165400048Y-92782820D01*
X165400049Y-92782819D01*
X165400051Y-92782816D01*
X165496557Y-92593412D01*
X165562246Y-92391243D01*
X165595500Y-92181287D01*
X165595500Y-91968713D01*
X165562246Y-91758757D01*
X165496557Y-91556588D01*
X165400051Y-91367184D01*
X165400049Y-91367181D01*
X165400048Y-91367179D01*
X165275109Y-91195213D01*
X165124786Y-91044890D01*
X164952820Y-90919951D01*
X164952115Y-90919591D01*
X164944054Y-90915485D01*
X164893259Y-90867512D01*
X164876463Y-90799692D01*
X164898999Y-90733556D01*
X164944054Y-90694515D01*
X164952816Y-90690051D01*
X165011017Y-90647766D01*
X165124786Y-90565109D01*
X165124788Y-90565106D01*
X165124792Y-90565104D01*
X165275104Y-90414792D01*
X165275106Y-90414788D01*
X165275109Y-90414786D01*
X165400048Y-90242820D01*
X165400047Y-90242820D01*
X165400051Y-90242816D01*
X165496557Y-90053412D01*
X165562246Y-89851243D01*
X165595500Y-89641287D01*
X165595500Y-89428713D01*
X165562246Y-89218757D01*
X165496557Y-89016588D01*
X165400051Y-88827184D01*
X165400049Y-88827181D01*
X165400048Y-88827179D01*
X165275109Y-88655213D01*
X165124786Y-88504890D01*
X164952820Y-88379951D01*
X164952115Y-88379591D01*
X164944054Y-88375485D01*
X164893259Y-88327512D01*
X164876463Y-88259692D01*
X164898999Y-88193556D01*
X164944054Y-88154515D01*
X164952816Y-88150051D01*
X165035533Y-88089954D01*
X165124786Y-88025109D01*
X165124788Y-88025106D01*
X165124792Y-88025104D01*
X165275104Y-87874792D01*
X165275106Y-87874788D01*
X165275109Y-87874786D01*
X165400048Y-87702820D01*
X165400047Y-87702820D01*
X165400051Y-87702816D01*
X165496557Y-87513412D01*
X165562246Y-87311243D01*
X165595500Y-87101287D01*
X165595500Y-86888713D01*
X165562246Y-86678757D01*
X165496557Y-86476588D01*
X165400051Y-86287184D01*
X165400049Y-86287181D01*
X165400048Y-86287179D01*
X165275109Y-86115213D01*
X165124786Y-85964890D01*
X164952820Y-85839951D01*
X164952115Y-85839591D01*
X164944054Y-85835485D01*
X164893259Y-85787512D01*
X164876463Y-85719692D01*
X164898999Y-85653556D01*
X164944054Y-85614515D01*
X164952816Y-85610051D01*
X164974789Y-85594086D01*
X165124786Y-85485109D01*
X165124788Y-85485106D01*
X165124792Y-85485104D01*
X165275104Y-85334792D01*
X165275106Y-85334788D01*
X165275109Y-85334786D01*
X165400048Y-85162820D01*
X165400047Y-85162820D01*
X165400051Y-85162816D01*
X165496557Y-84973412D01*
X165562246Y-84771243D01*
X165595500Y-84561287D01*
X165595500Y-84348713D01*
X165562246Y-84138757D01*
X165496557Y-83936588D01*
X165400051Y-83747184D01*
X165400049Y-83747181D01*
X165400048Y-83747179D01*
X165275109Y-83575213D01*
X165161569Y-83461673D01*
X165128084Y-83400350D01*
X165133068Y-83330658D01*
X165174940Y-83274725D01*
X165205915Y-83257810D01*
X165337331Y-83208796D01*
X165452546Y-83122546D01*
X165538796Y-83007331D01*
X165589091Y-82872483D01*
X165595500Y-82812873D01*
X165595499Y-81017135D01*
X174649500Y-81017135D01*
X174649500Y-82812870D01*
X174649501Y-82812876D01*
X174655908Y-82872483D01*
X174706202Y-83007328D01*
X174706206Y-83007335D01*
X174792452Y-83122544D01*
X174792455Y-83122547D01*
X174907664Y-83208793D01*
X174907671Y-83208797D01*
X175039082Y-83257810D01*
X175095016Y-83299681D01*
X175119433Y-83365145D01*
X175104582Y-83433418D01*
X175083431Y-83461673D01*
X174969889Y-83575215D01*
X174844951Y-83747179D01*
X174748444Y-83936585D01*
X174682753Y-84138760D01*
X174649500Y-84348713D01*
X174649500Y-84561286D01*
X174682753Y-84771239D01*
X174682753Y-84771241D01*
X174682754Y-84771243D01*
X174737431Y-84939522D01*
X174748444Y-84973414D01*
X174844951Y-85162820D01*
X174969890Y-85334786D01*
X175120213Y-85485109D01*
X175292182Y-85610050D01*
X175300946Y-85614516D01*
X175351742Y-85662491D01*
X175368536Y-85730312D01*
X175345998Y-85796447D01*
X175300946Y-85835484D01*
X175292182Y-85839949D01*
X175120213Y-85964890D01*
X174969890Y-86115213D01*
X174844951Y-86287179D01*
X174748444Y-86476585D01*
X174748443Y-86476587D01*
X174748443Y-86476588D01*
X174715598Y-86577672D01*
X174682753Y-86678760D01*
X174676974Y-86715250D01*
X174649500Y-86888713D01*
X174649500Y-87101287D01*
X174655268Y-87137706D01*
X174682753Y-87311239D01*
X174748444Y-87513414D01*
X174844951Y-87702820D01*
X174969890Y-87874786D01*
X175120213Y-88025109D01*
X175292182Y-88150050D01*
X175300946Y-88154516D01*
X175351742Y-88202491D01*
X175368536Y-88270312D01*
X175345998Y-88336447D01*
X175300946Y-88375484D01*
X175292182Y-88379949D01*
X175120213Y-88504890D01*
X174969890Y-88655213D01*
X174844951Y-88827179D01*
X174748444Y-89016585D01*
X174682753Y-89218760D01*
X174649500Y-89428713D01*
X174649500Y-89641286D01*
X174673212Y-89791001D01*
X174682754Y-89851243D01*
X174747304Y-90049908D01*
X174748444Y-90053414D01*
X174844951Y-90242820D01*
X174969890Y-90414786D01*
X175120213Y-90565109D01*
X175292182Y-90690050D01*
X175300946Y-90694516D01*
X175351742Y-90742491D01*
X175368536Y-90810312D01*
X175345998Y-90876447D01*
X175300946Y-90915484D01*
X175292182Y-90919949D01*
X175120213Y-91044890D01*
X174969890Y-91195213D01*
X174844951Y-91367179D01*
X174748444Y-91556585D01*
X174682753Y-91758760D01*
X174652907Y-91947200D01*
X174649500Y-91968713D01*
X174649500Y-92181287D01*
X174659534Y-92244644D01*
X174681503Y-92383349D01*
X174682754Y-92391243D01*
X174700521Y-92445925D01*
X174748444Y-92593414D01*
X174844951Y-92782820D01*
X174969890Y-92954786D01*
X175120213Y-93105109D01*
X175292182Y-93230050D01*
X175300946Y-93234516D01*
X175351742Y-93282491D01*
X175368536Y-93350312D01*
X175345998Y-93416447D01*
X175300946Y-93455484D01*
X175292182Y-93459949D01*
X175120213Y-93584890D01*
X174969890Y-93735213D01*
X174844951Y-93907179D01*
X174748444Y-94096585D01*
X174682753Y-94298760D01*
X174664258Y-94415534D01*
X174649500Y-94508713D01*
X174649500Y-94721287D01*
X174682754Y-94931243D01*
X174747304Y-95129908D01*
X174748444Y-95133414D01*
X174844951Y-95322820D01*
X174969890Y-95494786D01*
X175120213Y-95645109D01*
X175292182Y-95770050D01*
X175300946Y-95774516D01*
X175351742Y-95822491D01*
X175368536Y-95890312D01*
X175345998Y-95956447D01*
X175300946Y-95995484D01*
X175292182Y-95999949D01*
X175120213Y-96124890D01*
X174969890Y-96275213D01*
X174844951Y-96447179D01*
X174748444Y-96636585D01*
X174748443Y-96636587D01*
X174748443Y-96636588D01*
X174724279Y-96710957D01*
X174682753Y-96838760D01*
X174658335Y-96992930D01*
X174649500Y-97048713D01*
X174649500Y-97261287D01*
X174682754Y-97471243D01*
X174747304Y-97669908D01*
X174748444Y-97673414D01*
X174844951Y-97862820D01*
X174969890Y-98034786D01*
X175120213Y-98185109D01*
X175292182Y-98310050D01*
X175300946Y-98314516D01*
X175351742Y-98362491D01*
X175368536Y-98430312D01*
X175345998Y-98496447D01*
X175300946Y-98535484D01*
X175292182Y-98539949D01*
X175120213Y-98664890D01*
X174969890Y-98815213D01*
X174844951Y-98987179D01*
X174748444Y-99176585D01*
X174682753Y-99378760D01*
X174664187Y-99495984D01*
X174649500Y-99588713D01*
X174649500Y-99801287D01*
X174682754Y-100011243D01*
X174747304Y-100209908D01*
X174748444Y-100213414D01*
X174844951Y-100402820D01*
X174969890Y-100574786D01*
X175120213Y-100725109D01*
X175292182Y-100850050D01*
X175300946Y-100854516D01*
X175351742Y-100902491D01*
X175368536Y-100970312D01*
X175345998Y-101036447D01*
X175300946Y-101075484D01*
X175292182Y-101079949D01*
X175120213Y-101204890D01*
X174969890Y-101355213D01*
X174844951Y-101527179D01*
X174748444Y-101716585D01*
X174748443Y-101716587D01*
X174748443Y-101716588D01*
X174724279Y-101790957D01*
X174682753Y-101918760D01*
X174649500Y-102128713D01*
X174649500Y-102341287D01*
X174682754Y-102551243D01*
X174747304Y-102749908D01*
X174748444Y-102753414D01*
X174844951Y-102942820D01*
X174969890Y-103114786D01*
X175120213Y-103265109D01*
X175292179Y-103390048D01*
X175292181Y-103390049D01*
X175292184Y-103390051D01*
X175301493Y-103394794D01*
X175352290Y-103442766D01*
X175369087Y-103510587D01*
X175346552Y-103576722D01*
X175301505Y-103615760D01*
X175292446Y-103620376D01*
X175292440Y-103620380D01*
X175238282Y-103659727D01*
X175238282Y-103659728D01*
X175870591Y-104292037D01*
X175807007Y-104309075D01*
X175692993Y-104374901D01*
X175599901Y-104467993D01*
X175534075Y-104582007D01*
X175517037Y-104645591D01*
X174884728Y-104013282D01*
X174884727Y-104013282D01*
X174845380Y-104067439D01*
X174748904Y-104256782D01*
X174683242Y-104458869D01*
X174683242Y-104458872D01*
X174650000Y-104668753D01*
X174650000Y-104881246D01*
X174683242Y-105091127D01*
X174683242Y-105091130D01*
X174748904Y-105293217D01*
X174845375Y-105482550D01*
X174884728Y-105536716D01*
X175517037Y-104904408D01*
X175534075Y-104967993D01*
X175599901Y-105082007D01*
X175692993Y-105175099D01*
X175807007Y-105240925D01*
X175870590Y-105257962D01*
X175238282Y-105890269D01*
X175238282Y-105890270D01*
X175292449Y-105929624D01*
X175481782Y-106026095D01*
X175683870Y-106091757D01*
X175893754Y-106125000D01*
X176106246Y-106125000D01*
X176316127Y-106091757D01*
X176316130Y-106091757D01*
X176518217Y-106026095D01*
X176707554Y-105929622D01*
X176761716Y-105890270D01*
X176761717Y-105890270D01*
X176129408Y-105257962D01*
X176192993Y-105240925D01*
X176307007Y-105175099D01*
X176400099Y-105082007D01*
X176465925Y-104967993D01*
X176482962Y-104904408D01*
X177115270Y-105536717D01*
X177115270Y-105536716D01*
X177154622Y-105482554D01*
X177251095Y-105293217D01*
X177316757Y-105091130D01*
X177316757Y-105091127D01*
X177350000Y-104881246D01*
X177350000Y-104668753D01*
X177316757Y-104458872D01*
X177316757Y-104458869D01*
X177251095Y-104256782D01*
X177154624Y-104067449D01*
X177115270Y-104013282D01*
X177115269Y-104013282D01*
X176482962Y-104645590D01*
X176465925Y-104582007D01*
X176400099Y-104467993D01*
X176307007Y-104374901D01*
X176192993Y-104309075D01*
X176129409Y-104292037D01*
X176761716Y-103659728D01*
X176707547Y-103620373D01*
X176707547Y-103620372D01*
X176698500Y-103615763D01*
X176647706Y-103567788D01*
X176630912Y-103499966D01*
X176653451Y-103433832D01*
X176698508Y-103394793D01*
X176707816Y-103390051D01*
X176823839Y-103305756D01*
X176879786Y-103265109D01*
X176879788Y-103265106D01*
X176879792Y-103265104D01*
X177030104Y-103114792D01*
X177030106Y-103114788D01*
X177030109Y-103114786D01*
X177122955Y-102986992D01*
X177155051Y-102942816D01*
X177207594Y-102839695D01*
X185156800Y-102839695D01*
X185156800Y-103075704D01*
X185156801Y-103075720D01*
X185187085Y-103305756D01*
X185187607Y-103309714D01*
X185220864Y-103433832D01*
X185248694Y-103537693D01*
X185339014Y-103755745D01*
X185339019Y-103755756D01*
X185364684Y-103800208D01*
X185457027Y-103960150D01*
X185457029Y-103960153D01*
X185457030Y-103960154D01*
X185600706Y-104147397D01*
X185600712Y-104147404D01*
X185767595Y-104314287D01*
X185767601Y-104314292D01*
X185954850Y-104457973D01*
X186086218Y-104533818D01*
X186159243Y-104575980D01*
X186159248Y-104575982D01*
X186159251Y-104575984D01*
X186377307Y-104666306D01*
X186605286Y-104727393D01*
X186839289Y-104758200D01*
X186839296Y-104758200D01*
X187075304Y-104758200D01*
X187075311Y-104758200D01*
X187309314Y-104727393D01*
X187537293Y-104666306D01*
X187755349Y-104575984D01*
X187759283Y-104573713D01*
X187760299Y-104573126D01*
X187959750Y-104457973D01*
X188146999Y-104314292D01*
X188313892Y-104147399D01*
X188457573Y-103960150D01*
X188575584Y-103755749D01*
X188665906Y-103537693D01*
X188726993Y-103309714D01*
X188757800Y-103075711D01*
X188757800Y-102839689D01*
X188726993Y-102605686D01*
X188665906Y-102377707D01*
X188575584Y-102159651D01*
X188575582Y-102159648D01*
X188575580Y-102159643D01*
X188533418Y-102086618D01*
X188457573Y-101955250D01*
X188313892Y-101768001D01*
X188313887Y-101767995D01*
X188147004Y-101601112D01*
X188146997Y-101601106D01*
X187959754Y-101457430D01*
X187959753Y-101457429D01*
X187959750Y-101457427D01*
X187859208Y-101399379D01*
X187755356Y-101339419D01*
X187755345Y-101339414D01*
X187537293Y-101249094D01*
X187309310Y-101188006D01*
X187075320Y-101157201D01*
X187075317Y-101157200D01*
X187075311Y-101157200D01*
X186839289Y-101157200D01*
X186839283Y-101157200D01*
X186839279Y-101157201D01*
X186605289Y-101188006D01*
X186377306Y-101249094D01*
X186159254Y-101339414D01*
X186159243Y-101339419D01*
X185954845Y-101457430D01*
X185767602Y-101601106D01*
X185767595Y-101601112D01*
X185600712Y-101767995D01*
X185600706Y-101768002D01*
X185457030Y-101955245D01*
X185339019Y-102159643D01*
X185339014Y-102159654D01*
X185248694Y-102377706D01*
X185187606Y-102605689D01*
X185156801Y-102839679D01*
X185156800Y-102839695D01*
X177207594Y-102839695D01*
X177232087Y-102791625D01*
X177238349Y-102779335D01*
X177238350Y-102779333D01*
X177251554Y-102753417D01*
X177251557Y-102753412D01*
X177317246Y-102551243D01*
X177350500Y-102341287D01*
X177350500Y-102128713D01*
X177317246Y-101918757D01*
X177251557Y-101716588D01*
X177155051Y-101527184D01*
X177155049Y-101527181D01*
X177155048Y-101527179D01*
X177030109Y-101355213D01*
X176879786Y-101204890D01*
X176707820Y-101079951D01*
X176707115Y-101079591D01*
X176699054Y-101075485D01*
X176648259Y-101027512D01*
X176631463Y-100959692D01*
X176653999Y-100893556D01*
X176699054Y-100854515D01*
X176707816Y-100850051D01*
X176766395Y-100807491D01*
X176879786Y-100725109D01*
X176879788Y-100725106D01*
X176879792Y-100725104D01*
X177030104Y-100574792D01*
X177030106Y-100574788D01*
X177030109Y-100574786D01*
X177155048Y-100402820D01*
X177155047Y-100402820D01*
X177155051Y-100402816D01*
X177251557Y-100213412D01*
X177317246Y-100011243D01*
X177350500Y-99801287D01*
X177350500Y-99588713D01*
X177317246Y-99378757D01*
X177251557Y-99176588D01*
X177155051Y-98987184D01*
X177155049Y-98987181D01*
X177155048Y-98987179D01*
X177030109Y-98815213D01*
X176879786Y-98664890D01*
X176707820Y-98539951D01*
X176707115Y-98539591D01*
X176699054Y-98535485D01*
X176648259Y-98487512D01*
X176631463Y-98419692D01*
X176653999Y-98353556D01*
X176699054Y-98314515D01*
X176707816Y-98310051D01*
X176766395Y-98267491D01*
X176879786Y-98185109D01*
X176879788Y-98185106D01*
X176879792Y-98185104D01*
X177030104Y-98034792D01*
X177030106Y-98034788D01*
X177030109Y-98034786D01*
X177122955Y-97906992D01*
X177155051Y-97862816D01*
X177207594Y-97759695D01*
X185156800Y-97759695D01*
X185156800Y-97995704D01*
X185156801Y-97995720D01*
X185187085Y-98225756D01*
X185187607Y-98229714D01*
X185222440Y-98359712D01*
X185248694Y-98457693D01*
X185339014Y-98675745D01*
X185339019Y-98675756D01*
X185364684Y-98720208D01*
X185457027Y-98880150D01*
X185457029Y-98880153D01*
X185457030Y-98880154D01*
X185600706Y-99067397D01*
X185600712Y-99067404D01*
X185767595Y-99234287D01*
X185767601Y-99234292D01*
X185954850Y-99377973D01*
X186060651Y-99439057D01*
X186159243Y-99495980D01*
X186159248Y-99495982D01*
X186159251Y-99495984D01*
X186377307Y-99586306D01*
X186605286Y-99647393D01*
X186839289Y-99678200D01*
X186839296Y-99678200D01*
X187075304Y-99678200D01*
X187075311Y-99678200D01*
X187309314Y-99647393D01*
X187537293Y-99586306D01*
X187755349Y-99495984D01*
X187759283Y-99493713D01*
X187760299Y-99493126D01*
X187959750Y-99377973D01*
X188146999Y-99234292D01*
X188313892Y-99067399D01*
X188457573Y-98880150D01*
X188575584Y-98675749D01*
X188665906Y-98457693D01*
X188726993Y-98229714D01*
X188757800Y-97995711D01*
X188757800Y-97759689D01*
X188726993Y-97525686D01*
X188665906Y-97297707D01*
X188575584Y-97079651D01*
X188575582Y-97079648D01*
X188575580Y-97079643D01*
X188528393Y-96997914D01*
X188457573Y-96875250D01*
X188313892Y-96688001D01*
X188313887Y-96687995D01*
X188147004Y-96521112D01*
X188146997Y-96521106D01*
X187959754Y-96377430D01*
X187959753Y-96377429D01*
X187959750Y-96377427D01*
X187859208Y-96319379D01*
X187755356Y-96259419D01*
X187755345Y-96259414D01*
X187537293Y-96169094D01*
X187309310Y-96108006D01*
X187075320Y-96077201D01*
X187075317Y-96077200D01*
X187075311Y-96077200D01*
X186839289Y-96077200D01*
X186839283Y-96077200D01*
X186839279Y-96077201D01*
X186605289Y-96108006D01*
X186377306Y-96169094D01*
X186159254Y-96259414D01*
X186159243Y-96259419D01*
X185954845Y-96377430D01*
X185767602Y-96521106D01*
X185767595Y-96521112D01*
X185600712Y-96687995D01*
X185600706Y-96688002D01*
X185457030Y-96875245D01*
X185339019Y-97079643D01*
X185339014Y-97079654D01*
X185248694Y-97297706D01*
X185187606Y-97525689D01*
X185156801Y-97759679D01*
X185156800Y-97759695D01*
X177207594Y-97759695D01*
X177232087Y-97711625D01*
X177238349Y-97699335D01*
X177238350Y-97699333D01*
X177251554Y-97673417D01*
X177251557Y-97673412D01*
X177317246Y-97471243D01*
X177350500Y-97261287D01*
X177350500Y-97048713D01*
X177317246Y-96838757D01*
X177251557Y-96636588D01*
X177155051Y-96447184D01*
X177155049Y-96447181D01*
X177155048Y-96447179D01*
X177030109Y-96275213D01*
X176879786Y-96124890D01*
X176707820Y-95999951D01*
X176707115Y-95999591D01*
X176699054Y-95995485D01*
X176648259Y-95947512D01*
X176631463Y-95879692D01*
X176653999Y-95813556D01*
X176699054Y-95774515D01*
X176707816Y-95770051D01*
X176766395Y-95727491D01*
X176879786Y-95645109D01*
X176879788Y-95645106D01*
X176879792Y-95645104D01*
X177030104Y-95494792D01*
X177030106Y-95494788D01*
X177030109Y-95494786D01*
X177155048Y-95322820D01*
X177155047Y-95322820D01*
X177155051Y-95322816D01*
X177251557Y-95133412D01*
X177317246Y-94931243D01*
X177350500Y-94721287D01*
X177350500Y-94508713D01*
X177317246Y-94298757D01*
X177251557Y-94096588D01*
X177155051Y-93907184D01*
X177155049Y-93907181D01*
X177155048Y-93907179D01*
X177030109Y-93735213D01*
X176879786Y-93584890D01*
X176707820Y-93459951D01*
X176707115Y-93459591D01*
X176699054Y-93455485D01*
X176648259Y-93407512D01*
X176631463Y-93339692D01*
X176653999Y-93273556D01*
X176699054Y-93234515D01*
X176707816Y-93230051D01*
X176791158Y-93169500D01*
X176879786Y-93105109D01*
X176879788Y-93105106D01*
X176879792Y-93105104D01*
X177030104Y-92954792D01*
X177030106Y-92954788D01*
X177030109Y-92954786D01*
X177144237Y-92797700D01*
X177155051Y-92782816D01*
X177207584Y-92679714D01*
X185157300Y-92679714D01*
X185157300Y-92915685D01*
X185188099Y-93149614D01*
X185249170Y-93377537D01*
X185339460Y-93595519D01*
X185339465Y-93595528D01*
X185457444Y-93799871D01*
X185457445Y-93799872D01*
X185520021Y-93881423D01*
X186356258Y-93045187D01*
X186381278Y-93105590D01*
X186452412Y-93212051D01*
X186542949Y-93302588D01*
X186649410Y-93373722D01*
X186709811Y-93398741D01*
X185873575Y-94234977D01*
X185955127Y-94297554D01*
X185955128Y-94297555D01*
X186159471Y-94415534D01*
X186159480Y-94415539D01*
X186377463Y-94505829D01*
X186377461Y-94505829D01*
X186605385Y-94566900D01*
X186839314Y-94597699D01*
X186839329Y-94597700D01*
X187075271Y-94597700D01*
X187075285Y-94597699D01*
X187309214Y-94566900D01*
X187537137Y-94505829D01*
X187755119Y-94415539D01*
X187755128Y-94415534D01*
X187959481Y-94297550D01*
X188041023Y-94234979D01*
X188041023Y-94234976D01*
X187204787Y-93398741D01*
X187265190Y-93373722D01*
X187371651Y-93302588D01*
X187462188Y-93212051D01*
X187533322Y-93105590D01*
X187558341Y-93045188D01*
X188394576Y-93881423D01*
X188394579Y-93881423D01*
X188457150Y-93799881D01*
X188575134Y-93595528D01*
X188575139Y-93595519D01*
X188665429Y-93377537D01*
X188726500Y-93149614D01*
X188757299Y-92915685D01*
X188757300Y-92915671D01*
X188757300Y-92679728D01*
X188757299Y-92679714D01*
X188726500Y-92445785D01*
X188665429Y-92217862D01*
X188575139Y-91999880D01*
X188575134Y-91999871D01*
X188457155Y-91795528D01*
X188457154Y-91795527D01*
X188394577Y-91713975D01*
X187558341Y-92550211D01*
X187533322Y-92489810D01*
X187462188Y-92383349D01*
X187371651Y-92292812D01*
X187265190Y-92221678D01*
X187204788Y-92196658D01*
X188041023Y-91360421D01*
X187959472Y-91297845D01*
X187959471Y-91297844D01*
X187755128Y-91179865D01*
X187755119Y-91179860D01*
X187537136Y-91089570D01*
X187537138Y-91089570D01*
X187309214Y-91028499D01*
X187075285Y-90997700D01*
X186839314Y-90997700D01*
X186605385Y-91028499D01*
X186377462Y-91089570D01*
X186159480Y-91179860D01*
X186159471Y-91179865D01*
X185955128Y-91297844D01*
X185955118Y-91297850D01*
X185873575Y-91360420D01*
X185873575Y-91360421D01*
X186709812Y-92196658D01*
X186649410Y-92221678D01*
X186542949Y-92292812D01*
X186452412Y-92383349D01*
X186381278Y-92489810D01*
X186356258Y-92550211D01*
X185520021Y-91713975D01*
X185520020Y-91713975D01*
X185457450Y-91795518D01*
X185457444Y-91795528D01*
X185339465Y-91999871D01*
X185339460Y-91999880D01*
X185249170Y-92217862D01*
X185188099Y-92445785D01*
X185157300Y-92679714D01*
X177207584Y-92679714D01*
X177251557Y-92593412D01*
X177317246Y-92391243D01*
X177350500Y-92181287D01*
X177350500Y-91968713D01*
X177317246Y-91758757D01*
X177251557Y-91556588D01*
X177155051Y-91367184D01*
X177155049Y-91367181D01*
X177155048Y-91367179D01*
X177030109Y-91195213D01*
X176879786Y-91044890D01*
X176707820Y-90919951D01*
X176707115Y-90919591D01*
X176699054Y-90915485D01*
X176648259Y-90867512D01*
X176631463Y-90799692D01*
X176653999Y-90733556D01*
X176699054Y-90694515D01*
X176707816Y-90690051D01*
X176766017Y-90647766D01*
X176879786Y-90565109D01*
X176879788Y-90565106D01*
X176879792Y-90565104D01*
X177030104Y-90414792D01*
X177030106Y-90414788D01*
X177030109Y-90414786D01*
X177155048Y-90242820D01*
X177155047Y-90242820D01*
X177155051Y-90242816D01*
X177251557Y-90053412D01*
X177317246Y-89851243D01*
X177350500Y-89641287D01*
X177350500Y-89428713D01*
X177317246Y-89218757D01*
X177251557Y-89016588D01*
X177155051Y-88827184D01*
X177155049Y-88827181D01*
X177155048Y-88827179D01*
X177030109Y-88655213D01*
X176879786Y-88504890D01*
X176707820Y-88379951D01*
X176707115Y-88379591D01*
X176699054Y-88375485D01*
X176648259Y-88327512D01*
X176631463Y-88259692D01*
X176653999Y-88193556D01*
X176699054Y-88154515D01*
X176707816Y-88150051D01*
X176790533Y-88089954D01*
X176879786Y-88025109D01*
X176879788Y-88025106D01*
X176879792Y-88025104D01*
X177030104Y-87874792D01*
X177030106Y-87874788D01*
X177030109Y-87874786D01*
X177155048Y-87702820D01*
X177155047Y-87702820D01*
X177155051Y-87702816D01*
X177251557Y-87513412D01*
X177317246Y-87311243D01*
X177350500Y-87101287D01*
X177350500Y-86954098D01*
X177370185Y-86887059D01*
X177422989Y-86841304D01*
X177492147Y-86831360D01*
X177555703Y-86860385D01*
X177562181Y-86866417D01*
X178893984Y-88198220D01*
X178893986Y-88198221D01*
X178893990Y-88198224D01*
X179005288Y-88262481D01*
X179030916Y-88277277D01*
X179183643Y-88318201D01*
X179183645Y-88318201D01*
X179349354Y-88318201D01*
X179349370Y-88318200D01*
X185174334Y-88318200D01*
X185241373Y-88337885D01*
X185287128Y-88390689D01*
X185288895Y-88394747D01*
X185339014Y-88515745D01*
X185339019Y-88515756D01*
X185364684Y-88560208D01*
X185457027Y-88720150D01*
X185457029Y-88720153D01*
X185457030Y-88720154D01*
X185600706Y-88907397D01*
X185600712Y-88907404D01*
X185767595Y-89074287D01*
X185767601Y-89074292D01*
X185954850Y-89217973D01*
X186086218Y-89293818D01*
X186159243Y-89335980D01*
X186159248Y-89335982D01*
X186159251Y-89335984D01*
X186377307Y-89426306D01*
X186605286Y-89487393D01*
X186839289Y-89518200D01*
X186839296Y-89518200D01*
X187075304Y-89518200D01*
X187075311Y-89518200D01*
X187309314Y-89487393D01*
X187537293Y-89426306D01*
X187755349Y-89335984D01*
X187759283Y-89333713D01*
X187760299Y-89333126D01*
X187959750Y-89217973D01*
X188146999Y-89074292D01*
X188313892Y-88907399D01*
X188457573Y-88720150D01*
X188575584Y-88515749D01*
X188665906Y-88297693D01*
X188726993Y-88069714D01*
X188757800Y-87835711D01*
X188757800Y-87599689D01*
X188726993Y-87365686D01*
X188665906Y-87137707D01*
X188575584Y-86919651D01*
X188575582Y-86919648D01*
X188575580Y-86919643D01*
X188524609Y-86831360D01*
X188457573Y-86715250D01*
X188313892Y-86528001D01*
X188313887Y-86527995D01*
X188147004Y-86361112D01*
X188146997Y-86361106D01*
X187959754Y-86217430D01*
X187959753Y-86217429D01*
X187959750Y-86217427D01*
X187878257Y-86170377D01*
X187755356Y-86099419D01*
X187755345Y-86099414D01*
X187537293Y-86009094D01*
X187309310Y-85948006D01*
X187075320Y-85917201D01*
X187075317Y-85917200D01*
X187075311Y-85917200D01*
X186839289Y-85917200D01*
X186839283Y-85917200D01*
X186839279Y-85917201D01*
X186605289Y-85948006D01*
X186377306Y-86009094D01*
X186159254Y-86099414D01*
X186159243Y-86099419D01*
X185954845Y-86217430D01*
X185767602Y-86361106D01*
X185767595Y-86361112D01*
X185600712Y-86527995D01*
X185600706Y-86528002D01*
X185457030Y-86715245D01*
X185339019Y-86919643D01*
X185339014Y-86919654D01*
X185288895Y-87040653D01*
X185245054Y-87095056D01*
X185178760Y-87117121D01*
X185174334Y-87117200D01*
X179562798Y-87117200D01*
X179495759Y-87097515D01*
X179475117Y-87080881D01*
X178493650Y-86099414D01*
X177333756Y-84939521D01*
X177300272Y-84878199D01*
X177303507Y-84813523D01*
X177317246Y-84771243D01*
X177350500Y-84561287D01*
X177350500Y-84348713D01*
X177317246Y-84138757D01*
X177251557Y-83936588D01*
X177155051Y-83747184D01*
X177155049Y-83747181D01*
X177155048Y-83747179D01*
X177030109Y-83575213D01*
X176916569Y-83461673D01*
X176883084Y-83400350D01*
X176888068Y-83330658D01*
X176929940Y-83274725D01*
X176960915Y-83257810D01*
X177092331Y-83208796D01*
X177207546Y-83122546D01*
X177293796Y-83007331D01*
X177344091Y-82872483D01*
X177350500Y-82812873D01*
X177350499Y-81017128D01*
X177344091Y-80957517D01*
X177299830Y-80838848D01*
X177293797Y-80822671D01*
X177293793Y-80822664D01*
X177207547Y-80707455D01*
X177207544Y-80707452D01*
X177092335Y-80621206D01*
X177092328Y-80621202D01*
X176957482Y-80570908D01*
X176957483Y-80570908D01*
X176897883Y-80564501D01*
X176897881Y-80564500D01*
X176897873Y-80564500D01*
X176897864Y-80564500D01*
X175102129Y-80564500D01*
X175102123Y-80564501D01*
X175042516Y-80570908D01*
X174907671Y-80621202D01*
X174907664Y-80621206D01*
X174792455Y-80707452D01*
X174792452Y-80707455D01*
X174706206Y-80822664D01*
X174706202Y-80822671D01*
X174655908Y-80957517D01*
X174649501Y-81017116D01*
X174649501Y-81017123D01*
X174649500Y-81017135D01*
X165595499Y-81017135D01*
X165595499Y-81017128D01*
X165589091Y-80957517D01*
X165544830Y-80838848D01*
X165538797Y-80822671D01*
X165538793Y-80822664D01*
X165452547Y-80707455D01*
X165452544Y-80707452D01*
X165337335Y-80621206D01*
X165337328Y-80621202D01*
X165202482Y-80570908D01*
X165202483Y-80570908D01*
X165142883Y-80564501D01*
X165142881Y-80564500D01*
X165142873Y-80564500D01*
X165142864Y-80564500D01*
X163347129Y-80564500D01*
X163347123Y-80564501D01*
X163287516Y-80570908D01*
X163152671Y-80621202D01*
X163152664Y-80621206D01*
X163037455Y-80707452D01*
X163037452Y-80707455D01*
X162951206Y-80822664D01*
X162951202Y-80822671D01*
X162900908Y-80957517D01*
X162894501Y-81017116D01*
X162894501Y-81017123D01*
X162894500Y-81017135D01*
X162894500Y-81190500D01*
X162874815Y-81257539D01*
X162822011Y-81303294D01*
X162770500Y-81314500D01*
X128479457Y-81314500D01*
X128321342Y-81314500D01*
X128168615Y-81355423D01*
X128168614Y-81355423D01*
X128168612Y-81355424D01*
X128168609Y-81355425D01*
X128118496Y-81384359D01*
X128118495Y-81384360D01*
X128075089Y-81409420D01*
X128031685Y-81434479D01*
X128031682Y-81434481D01*
X125519481Y-83946682D01*
X125519479Y-83946685D01*
X125469361Y-84033494D01*
X125469359Y-84033496D01*
X125440425Y-84083609D01*
X125440424Y-84083610D01*
X125425647Y-84138760D01*
X125399499Y-84236343D01*
X125399499Y-84236345D01*
X125399499Y-84404446D01*
X125399500Y-84404459D01*
X125399500Y-87699903D01*
X125379815Y-87766942D01*
X125363181Y-87787584D01*
X124355084Y-88795681D01*
X124293761Y-88829166D01*
X124267403Y-88832000D01*
X123321378Y-88832000D01*
X123254339Y-88812315D01*
X123217445Y-88774622D01*
X123217291Y-88774735D01*
X123216528Y-88773685D01*
X123215648Y-88772786D01*
X123214430Y-88770800D01*
X123214427Y-88770793D01*
X123097621Y-88610023D01*
X122957104Y-88469506D01*
X122796334Y-88352700D01*
X122764436Y-88336447D01*
X122619272Y-88262481D01*
X122619269Y-88262480D01*
X122430277Y-88201074D01*
X122332138Y-88185530D01*
X122234001Y-88169987D01*
X121659279Y-88169987D01*
X121593854Y-88180349D01*
X121463002Y-88201074D01*
X121274010Y-88262480D01*
X121274007Y-88262481D01*
X121096945Y-88352700D01*
X120936173Y-88469508D01*
X120795661Y-88610020D01*
X120678854Y-88770791D01*
X120677632Y-88772786D01*
X120676969Y-88773385D01*
X120675989Y-88774735D01*
X120675705Y-88774529D01*
X120625822Y-88819663D01*
X120571902Y-88832000D01*
X117242710Y-88832000D01*
X117175671Y-88812315D01*
X117132225Y-88764295D01*
X117115861Y-88732179D01*
X117099151Y-88699384D01*
X117067059Y-88655213D01*
X116974209Y-88527413D01*
X116823886Y-88377090D01*
X116651920Y-88252151D01*
X116462514Y-88155644D01*
X116462513Y-88155643D01*
X116462512Y-88155643D01*
X116260343Y-88089954D01*
X116260341Y-88089953D01*
X116260340Y-88089953D01*
X116099057Y-88064408D01*
X116050387Y-88056700D01*
X115837813Y-88056700D01*
X115789142Y-88064408D01*
X115627860Y-88089953D01*
X115425685Y-88155644D01*
X115236279Y-88252151D01*
X115064313Y-88377090D01*
X114913990Y-88527413D01*
X114789051Y-88699379D01*
X114692544Y-88888785D01*
X114626853Y-89090960D01*
X114621659Y-89123757D01*
X114593600Y-89300913D01*
X112500500Y-89300913D01*
X112500500Y-79874038D01*
X114399500Y-79874038D01*
X114399500Y-80125961D01*
X114438910Y-80374785D01*
X114516760Y-80614383D01*
X114595413Y-80768747D01*
X114622885Y-80822664D01*
X114631132Y-80838848D01*
X114779201Y-81042649D01*
X114779205Y-81042654D01*
X114957345Y-81220794D01*
X114957350Y-81220798D01*
X115070897Y-81303294D01*
X115161155Y-81368870D01*
X115289920Y-81434479D01*
X115385616Y-81483239D01*
X115385618Y-81483239D01*
X115385621Y-81483241D01*
X115625215Y-81561090D01*
X115874038Y-81600500D01*
X115874039Y-81600500D01*
X116125961Y-81600500D01*
X116125962Y-81600500D01*
X116374785Y-81561090D01*
X116614379Y-81483241D01*
X116838845Y-81368870D01*
X117042656Y-81220793D01*
X117220793Y-81042656D01*
X117368870Y-80838845D01*
X117483241Y-80614379D01*
X117561090Y-80374785D01*
X117600500Y-80125962D01*
X117600500Y-79874038D01*
X186386500Y-79874038D01*
X186386500Y-80125961D01*
X186425910Y-80374785D01*
X186503760Y-80614383D01*
X186582413Y-80768747D01*
X186609885Y-80822664D01*
X186618132Y-80838848D01*
X186766201Y-81042649D01*
X186766205Y-81042654D01*
X186944345Y-81220794D01*
X186944350Y-81220798D01*
X187057897Y-81303294D01*
X187148155Y-81368870D01*
X187276920Y-81434479D01*
X187372616Y-81483239D01*
X187372618Y-81483239D01*
X187372621Y-81483241D01*
X187612215Y-81561090D01*
X187861038Y-81600500D01*
X187861039Y-81600500D01*
X188112961Y-81600500D01*
X188112962Y-81600500D01*
X188361785Y-81561090D01*
X188601379Y-81483241D01*
X188825845Y-81368870D01*
X189029656Y-81220793D01*
X189207793Y-81042656D01*
X189355870Y-80838845D01*
X189470241Y-80614379D01*
X189548090Y-80374785D01*
X189587500Y-80125962D01*
X189587500Y-79874038D01*
X189548090Y-79625215D01*
X189470241Y-79385621D01*
X189470239Y-79385618D01*
X189470239Y-79385616D01*
X189428747Y-79304184D01*
X189355870Y-79161155D01*
X189241509Y-79003750D01*
X189207798Y-78957350D01*
X189207794Y-78957345D01*
X189029654Y-78779205D01*
X189029649Y-78779201D01*
X188825848Y-78631132D01*
X188825847Y-78631131D01*
X188825845Y-78631130D01*
X188755747Y-78595413D01*
X188601383Y-78516760D01*
X188361785Y-78438910D01*
X188112962Y-78399500D01*
X187861038Y-78399500D01*
X187736626Y-78419205D01*
X187612214Y-78438910D01*
X187372616Y-78516760D01*
X187148151Y-78631132D01*
X186944350Y-78779201D01*
X186944345Y-78779205D01*
X186766205Y-78957345D01*
X186766201Y-78957350D01*
X186618132Y-79161151D01*
X186503760Y-79385616D01*
X186425910Y-79625214D01*
X186386500Y-79874038D01*
X117600500Y-79874038D01*
X117561090Y-79625215D01*
X117483241Y-79385621D01*
X117483239Y-79385618D01*
X117483239Y-79385616D01*
X117441747Y-79304184D01*
X117368870Y-79161155D01*
X117254509Y-79003750D01*
X117220798Y-78957350D01*
X117220794Y-78957345D01*
X117042654Y-78779205D01*
X117042649Y-78779201D01*
X116838848Y-78631132D01*
X116838847Y-78631131D01*
X116838845Y-78631130D01*
X116768747Y-78595413D01*
X116614383Y-78516760D01*
X116374785Y-78438910D01*
X116125962Y-78399500D01*
X115874038Y-78399500D01*
X115749626Y-78419205D01*
X115625214Y-78438910D01*
X115385616Y-78516760D01*
X115161151Y-78631132D01*
X114957350Y-78779201D01*
X114957345Y-78779205D01*
X114779205Y-78957345D01*
X114779201Y-78957350D01*
X114631132Y-79161151D01*
X114516760Y-79385616D01*
X114438910Y-79625214D01*
X114399500Y-79874038D01*
X112500500Y-79874038D01*
X112500500Y-79003750D01*
X112500726Y-78996263D01*
X112513855Y-78779207D01*
X112518271Y-78706201D01*
X112520076Y-78691340D01*
X112552070Y-78516759D01*
X112571780Y-78409198D01*
X112575364Y-78394664D01*
X112660699Y-78120812D01*
X112665997Y-78106842D01*
X112783727Y-77845258D01*
X112790680Y-77832012D01*
X112830959Y-77765381D01*
X112939075Y-77586534D01*
X112947567Y-77574230D01*
X113124481Y-77348417D01*
X113134396Y-77337226D01*
X113337226Y-77134396D01*
X113348417Y-77124481D01*
X113574230Y-76947567D01*
X113586534Y-76939075D01*
X113832012Y-76790680D01*
X113845258Y-76783727D01*
X114106842Y-76665997D01*
X114120812Y-76660699D01*
X114394668Y-76575362D01*
X114409198Y-76571780D01*
X114691344Y-76520075D01*
X114706201Y-76518271D01*
X114996264Y-76500726D01*
X115003751Y-76500500D01*
X115065892Y-76500500D01*
X190934108Y-76500500D01*
X190996249Y-76500500D01*
X191003736Y-76500726D01*
G37*
%TD.AperFunction*%
%TD*%
M02*
