%TF.GenerationSoftware,KiCad,Pcbnew,10.0.2*%
%TF.CreationDate,2026-05-22T13:30:26+05:30*%
%TF.ProjectId,pcb,7063622e-6b69-4636-9164-5f7063625858,rev?*%
%TF.SameCoordinates,Original*%
%TF.FileFunction,Legend,Top*%
%TF.FilePolarity,Positive*%
%FSLAX46Y46*%
G04 Gerber Fmt 4.6, Leading zero omitted, Abs format (unit mm)*
G04 Created by KiCad (PCBNEW 10.0.2) date 2026-05-22 13:30:26*
%MOMM*%
%LPD*%
G01*
G04 APERTURE LIST*
%ADD10C,0.100000*%
%ADD11C,0.080000*%
%ADD12C,0.150000*%
%ADD13C,0.120000*%
%ADD14C,0.200000*%
G04 APERTURE END LIST*
D10*
X162000000Y-109000000D02*
X180000000Y-109000000D01*
X180000000Y-124500000D01*
X162000000Y-124500000D01*
X162000000Y-109000000D01*
D11*
X166128821Y-81597935D02*
X166395488Y-82397935D01*
X166395488Y-82397935D02*
X166662154Y-81597935D01*
X167385964Y-82321744D02*
X167347868Y-82359840D01*
X167347868Y-82359840D02*
X167233583Y-82397935D01*
X167233583Y-82397935D02*
X167157392Y-82397935D01*
X167157392Y-82397935D02*
X167043106Y-82359840D01*
X167043106Y-82359840D02*
X166966916Y-82283649D01*
X166966916Y-82283649D02*
X166928821Y-82207459D01*
X166928821Y-82207459D02*
X166890725Y-82055078D01*
X166890725Y-82055078D02*
X166890725Y-81940792D01*
X166890725Y-81940792D02*
X166928821Y-81788411D01*
X166928821Y-81788411D02*
X166966916Y-81712220D01*
X166966916Y-81712220D02*
X167043106Y-81636030D01*
X167043106Y-81636030D02*
X167157392Y-81597935D01*
X167157392Y-81597935D02*
X167233583Y-81597935D01*
X167233583Y-81597935D02*
X167347868Y-81636030D01*
X167347868Y-81636030D02*
X167385964Y-81674125D01*
X168185964Y-82321744D02*
X168147868Y-82359840D01*
X168147868Y-82359840D02*
X168033583Y-82397935D01*
X168033583Y-82397935D02*
X167957392Y-82397935D01*
X167957392Y-82397935D02*
X167843106Y-82359840D01*
X167843106Y-82359840D02*
X167766916Y-82283649D01*
X167766916Y-82283649D02*
X167728821Y-82207459D01*
X167728821Y-82207459D02*
X167690725Y-82055078D01*
X167690725Y-82055078D02*
X167690725Y-81940792D01*
X167690725Y-81940792D02*
X167728821Y-81788411D01*
X167728821Y-81788411D02*
X167766916Y-81712220D01*
X167766916Y-81712220D02*
X167843106Y-81636030D01*
X167843106Y-81636030D02*
X167957392Y-81597935D01*
X167957392Y-81597935D02*
X168033583Y-81597935D01*
X168033583Y-81597935D02*
X168147868Y-81636030D01*
X168147868Y-81636030D02*
X168185964Y-81674125D01*
X168490725Y-82169363D02*
X168871678Y-82169363D01*
X168414535Y-82397935D02*
X168681202Y-81597935D01*
X168681202Y-81597935D02*
X168947868Y-82397935D01*
X170014535Y-82664601D02*
X170014535Y-81521744D01*
X171081202Y-81597935D02*
X171347869Y-82397935D01*
X171347869Y-82397935D02*
X171614535Y-81597935D01*
X172338345Y-82321744D02*
X172300249Y-82359840D01*
X172300249Y-82359840D02*
X172185964Y-82397935D01*
X172185964Y-82397935D02*
X172109773Y-82397935D01*
X172109773Y-82397935D02*
X171995487Y-82359840D01*
X171995487Y-82359840D02*
X171919297Y-82283649D01*
X171919297Y-82283649D02*
X171881202Y-82207459D01*
X171881202Y-82207459D02*
X171843106Y-82055078D01*
X171843106Y-82055078D02*
X171843106Y-81940792D01*
X171843106Y-81940792D02*
X171881202Y-81788411D01*
X171881202Y-81788411D02*
X171919297Y-81712220D01*
X171919297Y-81712220D02*
X171995487Y-81636030D01*
X171995487Y-81636030D02*
X172109773Y-81597935D01*
X172109773Y-81597935D02*
X172185964Y-81597935D01*
X172185964Y-81597935D02*
X172300249Y-81636030D01*
X172300249Y-81636030D02*
X172338345Y-81674125D01*
X173138345Y-82321744D02*
X173100249Y-82359840D01*
X173100249Y-82359840D02*
X172985964Y-82397935D01*
X172985964Y-82397935D02*
X172909773Y-82397935D01*
X172909773Y-82397935D02*
X172795487Y-82359840D01*
X172795487Y-82359840D02*
X172719297Y-82283649D01*
X172719297Y-82283649D02*
X172681202Y-82207459D01*
X172681202Y-82207459D02*
X172643106Y-82055078D01*
X172643106Y-82055078D02*
X172643106Y-81940792D01*
X172643106Y-81940792D02*
X172681202Y-81788411D01*
X172681202Y-81788411D02*
X172719297Y-81712220D01*
X172719297Y-81712220D02*
X172795487Y-81636030D01*
X172795487Y-81636030D02*
X172909773Y-81597935D01*
X172909773Y-81597935D02*
X172985964Y-81597935D01*
X172985964Y-81597935D02*
X173100249Y-81636030D01*
X173100249Y-81636030D02*
X173138345Y-81674125D01*
X173747868Y-81978887D02*
X173862154Y-82016982D01*
X173862154Y-82016982D02*
X173900249Y-82055078D01*
X173900249Y-82055078D02*
X173938345Y-82131268D01*
X173938345Y-82131268D02*
X173938345Y-82245554D01*
X173938345Y-82245554D02*
X173900249Y-82321744D01*
X173900249Y-82321744D02*
X173862154Y-82359840D01*
X173862154Y-82359840D02*
X173785964Y-82397935D01*
X173785964Y-82397935D02*
X173481202Y-82397935D01*
X173481202Y-82397935D02*
X173481202Y-81597935D01*
X173481202Y-81597935D02*
X173747868Y-81597935D01*
X173747868Y-81597935D02*
X173824059Y-81636030D01*
X173824059Y-81636030D02*
X173862154Y-81674125D01*
X173862154Y-81674125D02*
X173900249Y-81750316D01*
X173900249Y-81750316D02*
X173900249Y-81826506D01*
X173900249Y-81826506D02*
X173862154Y-81902697D01*
X173862154Y-81902697D02*
X173824059Y-81940792D01*
X173824059Y-81940792D02*
X173747868Y-81978887D01*
X173747868Y-81978887D02*
X173481202Y-81978887D01*
D10*
X153875312Y-135622419D02*
X153541979Y-135146228D01*
X153303884Y-135622419D02*
X153303884Y-134622419D01*
X153303884Y-134622419D02*
X153684836Y-134622419D01*
X153684836Y-134622419D02*
X153780074Y-134670038D01*
X153780074Y-134670038D02*
X153827693Y-134717657D01*
X153827693Y-134717657D02*
X153875312Y-134812895D01*
X153875312Y-134812895D02*
X153875312Y-134955752D01*
X153875312Y-134955752D02*
X153827693Y-135050990D01*
X153827693Y-135050990D02*
X153780074Y-135098609D01*
X153780074Y-135098609D02*
X153684836Y-135146228D01*
X153684836Y-135146228D02*
X153303884Y-135146228D01*
X155827694Y-135622419D02*
X155827694Y-134622419D01*
X156399122Y-135622419D02*
X155970551Y-135050990D01*
X156399122Y-134622419D02*
X155827694Y-135193847D01*
X158875313Y-134670038D02*
X158780075Y-134622419D01*
X158780075Y-134622419D02*
X158637218Y-134622419D01*
X158637218Y-134622419D02*
X158494361Y-134670038D01*
X158494361Y-134670038D02*
X158399123Y-134765276D01*
X158399123Y-134765276D02*
X158351504Y-134860514D01*
X158351504Y-134860514D02*
X158303885Y-135050990D01*
X158303885Y-135050990D02*
X158303885Y-135193847D01*
X158303885Y-135193847D02*
X158351504Y-135384323D01*
X158351504Y-135384323D02*
X158399123Y-135479561D01*
X158399123Y-135479561D02*
X158494361Y-135574800D01*
X158494361Y-135574800D02*
X158637218Y-135622419D01*
X158637218Y-135622419D02*
X158732456Y-135622419D01*
X158732456Y-135622419D02*
X158875313Y-135574800D01*
X158875313Y-135574800D02*
X158922932Y-135527180D01*
X158922932Y-135527180D02*
X158922932Y-135193847D01*
X158922932Y-135193847D02*
X158732456Y-135193847D01*
X161208647Y-135098609D02*
X161351504Y-135146228D01*
X161351504Y-135146228D02*
X161399123Y-135193847D01*
X161399123Y-135193847D02*
X161446742Y-135289085D01*
X161446742Y-135289085D02*
X161446742Y-135431942D01*
X161446742Y-135431942D02*
X161399123Y-135527180D01*
X161399123Y-135527180D02*
X161351504Y-135574800D01*
X161351504Y-135574800D02*
X161256266Y-135622419D01*
X161256266Y-135622419D02*
X160875314Y-135622419D01*
X160875314Y-135622419D02*
X160875314Y-134622419D01*
X160875314Y-134622419D02*
X161208647Y-134622419D01*
X161208647Y-134622419D02*
X161303885Y-134670038D01*
X161303885Y-134670038D02*
X161351504Y-134717657D01*
X161351504Y-134717657D02*
X161399123Y-134812895D01*
X161399123Y-134812895D02*
X161399123Y-134908133D01*
X161399123Y-134908133D02*
X161351504Y-135003371D01*
X161351504Y-135003371D02*
X161303885Y-135050990D01*
X161303885Y-135050990D02*
X161208647Y-135098609D01*
X161208647Y-135098609D02*
X160875314Y-135098609D01*
X192675200Y-87056265D02*
X192627580Y-87199122D01*
X192627580Y-87199122D02*
X192627580Y-87437217D01*
X192627580Y-87437217D02*
X192675200Y-87532455D01*
X192675200Y-87532455D02*
X192722819Y-87580074D01*
X192722819Y-87580074D02*
X192818057Y-87627693D01*
X192818057Y-87627693D02*
X192913295Y-87627693D01*
X192913295Y-87627693D02*
X193008533Y-87580074D01*
X193008533Y-87580074D02*
X193056152Y-87532455D01*
X193056152Y-87532455D02*
X193103771Y-87437217D01*
X193103771Y-87437217D02*
X193151390Y-87246741D01*
X193151390Y-87246741D02*
X193199009Y-87151503D01*
X193199009Y-87151503D02*
X193246628Y-87103884D01*
X193246628Y-87103884D02*
X193341866Y-87056265D01*
X193341866Y-87056265D02*
X193437104Y-87056265D01*
X193437104Y-87056265D02*
X193532342Y-87103884D01*
X193532342Y-87103884D02*
X193579961Y-87151503D01*
X193579961Y-87151503D02*
X193627580Y-87246741D01*
X193627580Y-87246741D02*
X193627580Y-87484836D01*
X193627580Y-87484836D02*
X193579961Y-87627693D01*
X193627580Y-87913408D02*
X192627580Y-88246741D01*
X192627580Y-88246741D02*
X193627580Y-88580074D01*
X192722819Y-92175312D02*
X192675200Y-92127693D01*
X192675200Y-92127693D02*
X192627580Y-91984836D01*
X192627580Y-91984836D02*
X192627580Y-91889598D01*
X192627580Y-91889598D02*
X192675200Y-91746741D01*
X192675200Y-91746741D02*
X192770438Y-91651503D01*
X192770438Y-91651503D02*
X192865676Y-91603884D01*
X192865676Y-91603884D02*
X193056152Y-91556265D01*
X193056152Y-91556265D02*
X193199009Y-91556265D01*
X193199009Y-91556265D02*
X193389485Y-91603884D01*
X193389485Y-91603884D02*
X193484723Y-91651503D01*
X193484723Y-91651503D02*
X193579961Y-91746741D01*
X193579961Y-91746741D02*
X193627580Y-91889598D01*
X193627580Y-91889598D02*
X193627580Y-91984836D01*
X193627580Y-91984836D02*
X193579961Y-92127693D01*
X193579961Y-92127693D02*
X193532342Y-92175312D01*
X193627580Y-92794360D02*
X193627580Y-92984836D01*
X193627580Y-92984836D02*
X193579961Y-93080074D01*
X193579961Y-93080074D02*
X193484723Y-93175312D01*
X193484723Y-93175312D02*
X193294247Y-93222931D01*
X193294247Y-93222931D02*
X192960914Y-93222931D01*
X192960914Y-93222931D02*
X192770438Y-93175312D01*
X192770438Y-93175312D02*
X192675200Y-93080074D01*
X192675200Y-93080074D02*
X192627580Y-92984836D01*
X192627580Y-92984836D02*
X192627580Y-92794360D01*
X192627580Y-92794360D02*
X192675200Y-92699122D01*
X192675200Y-92699122D02*
X192770438Y-92603884D01*
X192770438Y-92603884D02*
X192960914Y-92556265D01*
X192960914Y-92556265D02*
X193294247Y-92556265D01*
X193294247Y-92556265D02*
X193484723Y-92603884D01*
X193484723Y-92603884D02*
X193579961Y-92699122D01*
X193579961Y-92699122D02*
X193627580Y-92794360D01*
X192627580Y-93651503D02*
X193627580Y-93651503D01*
X193627580Y-93651503D02*
X192913295Y-93984836D01*
X192913295Y-93984836D02*
X193627580Y-94318169D01*
X193627580Y-94318169D02*
X192627580Y-94318169D01*
X192913295Y-97056265D02*
X192913295Y-97532455D01*
X192627580Y-96961027D02*
X193627580Y-97294360D01*
X193627580Y-97294360D02*
X192627580Y-97627693D01*
X192627580Y-98437217D02*
X192627580Y-97961027D01*
X192627580Y-97961027D02*
X193627580Y-97961027D01*
X192627580Y-98770551D02*
X193627580Y-98770551D01*
X193627580Y-98770551D02*
X192913295Y-99103884D01*
X192913295Y-99103884D02*
X193627580Y-99437217D01*
X193627580Y-99437217D02*
X192627580Y-99437217D01*
X192675200Y-101056265D02*
X192627580Y-101199122D01*
X192627580Y-101199122D02*
X192627580Y-101437217D01*
X192627580Y-101437217D02*
X192675200Y-101532455D01*
X192675200Y-101532455D02*
X192722819Y-101580074D01*
X192722819Y-101580074D02*
X192818057Y-101627693D01*
X192818057Y-101627693D02*
X192913295Y-101627693D01*
X192913295Y-101627693D02*
X193008533Y-101580074D01*
X193008533Y-101580074D02*
X193056152Y-101532455D01*
X193056152Y-101532455D02*
X193103771Y-101437217D01*
X193103771Y-101437217D02*
X193151390Y-101246741D01*
X193151390Y-101246741D02*
X193199009Y-101151503D01*
X193199009Y-101151503D02*
X193246628Y-101103884D01*
X193246628Y-101103884D02*
X193341866Y-101056265D01*
X193341866Y-101056265D02*
X193437104Y-101056265D01*
X193437104Y-101056265D02*
X193532342Y-101103884D01*
X193532342Y-101103884D02*
X193579961Y-101151503D01*
X193579961Y-101151503D02*
X193627580Y-101246741D01*
X193627580Y-101246741D02*
X193627580Y-101484836D01*
X193627580Y-101484836D02*
X193579961Y-101627693D01*
X192627580Y-102056265D02*
X193627580Y-102056265D01*
X193627580Y-102056265D02*
X193627580Y-102437217D01*
X193627580Y-102437217D02*
X193579961Y-102532455D01*
X193579961Y-102532455D02*
X193532342Y-102580074D01*
X193532342Y-102580074D02*
X193437104Y-102627693D01*
X193437104Y-102627693D02*
X193294247Y-102627693D01*
X193294247Y-102627693D02*
X193199009Y-102580074D01*
X193199009Y-102580074D02*
X193151390Y-102532455D01*
X193151390Y-102532455D02*
X193103771Y-102437217D01*
X193103771Y-102437217D02*
X193103771Y-102056265D01*
X193151390Y-103056265D02*
X193151390Y-103389598D01*
X192627580Y-103532455D02*
X192627580Y-103056265D01*
X192627580Y-103056265D02*
X193627580Y-103056265D01*
X193627580Y-103056265D02*
X193627580Y-103532455D01*
X193151390Y-103961027D02*
X193151390Y-104294360D01*
X192627580Y-104437217D02*
X192627580Y-103961027D01*
X192627580Y-103961027D02*
X193627580Y-103961027D01*
X193627580Y-103961027D02*
X193627580Y-104437217D01*
X192627580Y-104865789D02*
X193627580Y-104865789D01*
X193627580Y-104865789D02*
X193627580Y-105103884D01*
X193627580Y-105103884D02*
X193579961Y-105246741D01*
X193579961Y-105246741D02*
X193484723Y-105341979D01*
X193484723Y-105341979D02*
X193389485Y-105389598D01*
X193389485Y-105389598D02*
X193199009Y-105437217D01*
X193199009Y-105437217D02*
X193056152Y-105437217D01*
X193056152Y-105437217D02*
X192865676Y-105389598D01*
X192865676Y-105389598D02*
X192770438Y-105341979D01*
X192770438Y-105341979D02*
X192675200Y-105246741D01*
X192675200Y-105246741D02*
X192627580Y-105103884D01*
X192627580Y-105103884D02*
X192627580Y-104865789D01*
X193151390Y-107937217D02*
X193103771Y-108080074D01*
X193103771Y-108080074D02*
X193056152Y-108127693D01*
X193056152Y-108127693D02*
X192960914Y-108175312D01*
X192960914Y-108175312D02*
X192818057Y-108175312D01*
X192818057Y-108175312D02*
X192722819Y-108127693D01*
X192722819Y-108127693D02*
X192675200Y-108080074D01*
X192675200Y-108080074D02*
X192627580Y-107984836D01*
X192627580Y-107984836D02*
X192627580Y-107603884D01*
X192627580Y-107603884D02*
X193627580Y-107603884D01*
X193627580Y-107603884D02*
X193627580Y-107937217D01*
X193627580Y-107937217D02*
X193579961Y-108032455D01*
X193579961Y-108032455D02*
X193532342Y-108080074D01*
X193532342Y-108080074D02*
X193437104Y-108127693D01*
X193437104Y-108127693D02*
X193341866Y-108127693D01*
X193341866Y-108127693D02*
X193246628Y-108080074D01*
X193246628Y-108080074D02*
X193199009Y-108032455D01*
X193199009Y-108032455D02*
X193151390Y-107937217D01*
X193151390Y-107937217D02*
X193151390Y-107603884D01*
X192627580Y-109175312D02*
X193103771Y-108841979D01*
X192627580Y-108603884D02*
X193627580Y-108603884D01*
X193627580Y-108603884D02*
X193627580Y-108984836D01*
X193627580Y-108984836D02*
X193579961Y-109080074D01*
X193579961Y-109080074D02*
X193532342Y-109127693D01*
X193532342Y-109127693D02*
X193437104Y-109175312D01*
X193437104Y-109175312D02*
X193294247Y-109175312D01*
X193294247Y-109175312D02*
X193199009Y-109127693D01*
X193199009Y-109127693D02*
X193151390Y-109080074D01*
X193151390Y-109080074D02*
X193103771Y-108984836D01*
X193103771Y-108984836D02*
X193103771Y-108603884D01*
X192627580Y-109603884D02*
X193627580Y-109603884D01*
X192627580Y-110175312D02*
X193199009Y-109746741D01*
X193627580Y-110175312D02*
X193056152Y-109603884D01*
X193151390Y-112603884D02*
X193151390Y-112937217D01*
X192627580Y-113080074D02*
X192627580Y-112603884D01*
X192627580Y-112603884D02*
X193627580Y-112603884D01*
X193627580Y-112603884D02*
X193627580Y-113080074D01*
X192627580Y-113508646D02*
X193627580Y-113508646D01*
X193627580Y-113508646D02*
X192627580Y-114080074D01*
X192627580Y-114080074D02*
X193627580Y-114080074D01*
X192752313Y-127547855D02*
X192704693Y-127690712D01*
X192704693Y-127690712D02*
X192704693Y-127928807D01*
X192704693Y-127928807D02*
X192752313Y-128024045D01*
X192752313Y-128024045D02*
X192799932Y-128071664D01*
X192799932Y-128071664D02*
X192895170Y-128119283D01*
X192895170Y-128119283D02*
X192990408Y-128119283D01*
X192990408Y-128119283D02*
X193085646Y-128071664D01*
X193085646Y-128071664D02*
X193133265Y-128024045D01*
X193133265Y-128024045D02*
X193180884Y-127928807D01*
X193180884Y-127928807D02*
X193228503Y-127738331D01*
X193228503Y-127738331D02*
X193276122Y-127643093D01*
X193276122Y-127643093D02*
X193323741Y-127595474D01*
X193323741Y-127595474D02*
X193418979Y-127547855D01*
X193418979Y-127547855D02*
X193514217Y-127547855D01*
X193514217Y-127547855D02*
X193609455Y-127595474D01*
X193609455Y-127595474D02*
X193657074Y-127643093D01*
X193657074Y-127643093D02*
X193704693Y-127738331D01*
X193704693Y-127738331D02*
X193704693Y-127976426D01*
X193704693Y-127976426D02*
X193657074Y-128119283D01*
X193704693Y-128452617D02*
X192704693Y-128690712D01*
X192704693Y-128690712D02*
X193418979Y-128881188D01*
X193418979Y-128881188D02*
X192704693Y-129071664D01*
X192704693Y-129071664D02*
X193704693Y-129309760D01*
X192704693Y-129690712D02*
X193704693Y-129690712D01*
X193704693Y-130024045D02*
X193704693Y-130595473D01*
X192704693Y-130309759D02*
X193704693Y-130309759D01*
X192799932Y-131500235D02*
X192752313Y-131452616D01*
X192752313Y-131452616D02*
X192704693Y-131309759D01*
X192704693Y-131309759D02*
X192704693Y-131214521D01*
X192704693Y-131214521D02*
X192752313Y-131071664D01*
X192752313Y-131071664D02*
X192847551Y-130976426D01*
X192847551Y-130976426D02*
X192942789Y-130928807D01*
X192942789Y-130928807D02*
X193133265Y-130881188D01*
X193133265Y-130881188D02*
X193276122Y-130881188D01*
X193276122Y-130881188D02*
X193466598Y-130928807D01*
X193466598Y-130928807D02*
X193561836Y-130976426D01*
X193561836Y-130976426D02*
X193657074Y-131071664D01*
X193657074Y-131071664D02*
X193704693Y-131214521D01*
X193704693Y-131214521D02*
X193704693Y-131309759D01*
X193704693Y-131309759D02*
X193657074Y-131452616D01*
X193657074Y-131452616D02*
X193609455Y-131500235D01*
X192704693Y-131928807D02*
X193704693Y-131928807D01*
X193228503Y-131928807D02*
X193228503Y-132500235D01*
X192704693Y-132500235D02*
X193704693Y-132500235D01*
X193251390Y-117437217D02*
X193251390Y-117103884D01*
X192727580Y-117103884D02*
X193727580Y-117103884D01*
X193727580Y-117103884D02*
X193727580Y-117580074D01*
X193775200Y-118675312D02*
X192489485Y-117818170D01*
X192727580Y-119580074D02*
X193203771Y-119246741D01*
X192727580Y-119008646D02*
X193727580Y-119008646D01*
X193727580Y-119008646D02*
X193727580Y-119389598D01*
X193727580Y-119389598D02*
X193679961Y-119484836D01*
X193679961Y-119484836D02*
X193632342Y-119532455D01*
X193632342Y-119532455D02*
X193537104Y-119580074D01*
X193537104Y-119580074D02*
X193394247Y-119580074D01*
X193394247Y-119580074D02*
X193299009Y-119532455D01*
X193299009Y-119532455D02*
X193251390Y-119484836D01*
X193251390Y-119484836D02*
X193203771Y-119389598D01*
X193203771Y-119389598D02*
X193203771Y-119008646D01*
D12*
X180092119Y-103291033D02*
X180806404Y-103291033D01*
X180806404Y-103291033D02*
X180949261Y-103338652D01*
X180949261Y-103338652D02*
X181044500Y-103433890D01*
X181044500Y-103433890D02*
X181092119Y-103576747D01*
X181092119Y-103576747D02*
X181092119Y-103671985D01*
X180092119Y-102910080D02*
X180092119Y-102291033D01*
X180092119Y-102291033D02*
X180473071Y-102624366D01*
X180473071Y-102624366D02*
X180473071Y-102481509D01*
X180473071Y-102481509D02*
X180520690Y-102386271D01*
X180520690Y-102386271D02*
X180568309Y-102338652D01*
X180568309Y-102338652D02*
X180663547Y-102291033D01*
X180663547Y-102291033D02*
X180901642Y-102291033D01*
X180901642Y-102291033D02*
X180996880Y-102338652D01*
X180996880Y-102338652D02*
X181044500Y-102386271D01*
X181044500Y-102386271D02*
X181092119Y-102481509D01*
X181092119Y-102481509D02*
X181092119Y-102767223D01*
X181092119Y-102767223D02*
X181044500Y-102862461D01*
X181044500Y-102862461D02*
X180996880Y-102910080D01*
X175666666Y-78989819D02*
X175666666Y-79704104D01*
X175666666Y-79704104D02*
X175619047Y-79846961D01*
X175619047Y-79846961D02*
X175523809Y-79942200D01*
X175523809Y-79942200D02*
X175380952Y-79989819D01*
X175380952Y-79989819D02*
X175285714Y-79989819D01*
X176095238Y-79085057D02*
X176142857Y-79037438D01*
X176142857Y-79037438D02*
X176238095Y-78989819D01*
X176238095Y-78989819D02*
X176476190Y-78989819D01*
X176476190Y-78989819D02*
X176571428Y-79037438D01*
X176571428Y-79037438D02*
X176619047Y-79085057D01*
X176619047Y-79085057D02*
X176666666Y-79180295D01*
X176666666Y-79180295D02*
X176666666Y-79275533D01*
X176666666Y-79275533D02*
X176619047Y-79418390D01*
X176619047Y-79418390D02*
X176047619Y-79989819D01*
X176047619Y-79989819D02*
X176666666Y-79989819D01*
X115238095Y-84104819D02*
X115238095Y-83104819D01*
X115238095Y-83581009D02*
X115809523Y-83581009D01*
X115809523Y-84104819D02*
X115809523Y-83104819D01*
X116809523Y-84104819D02*
X116238095Y-84104819D01*
X116523809Y-84104819D02*
X116523809Y-83104819D01*
X116523809Y-83104819D02*
X116428571Y-83247676D01*
X116428571Y-83247676D02*
X116333333Y-83342914D01*
X116333333Y-83342914D02*
X116238095Y-83390533D01*
X150494819Y-133333333D02*
X151209104Y-133333333D01*
X151209104Y-133333333D02*
X151351961Y-133380952D01*
X151351961Y-133380952D02*
X151447200Y-133476190D01*
X151447200Y-133476190D02*
X151494819Y-133619047D01*
X151494819Y-133619047D02*
X151494819Y-133714285D01*
X150923390Y-132714285D02*
X150875771Y-132809523D01*
X150875771Y-132809523D02*
X150828152Y-132857142D01*
X150828152Y-132857142D02*
X150732914Y-132904761D01*
X150732914Y-132904761D02*
X150685295Y-132904761D01*
X150685295Y-132904761D02*
X150590057Y-132857142D01*
X150590057Y-132857142D02*
X150542438Y-132809523D01*
X150542438Y-132809523D02*
X150494819Y-132714285D01*
X150494819Y-132714285D02*
X150494819Y-132523809D01*
X150494819Y-132523809D02*
X150542438Y-132428571D01*
X150542438Y-132428571D02*
X150590057Y-132380952D01*
X150590057Y-132380952D02*
X150685295Y-132333333D01*
X150685295Y-132333333D02*
X150732914Y-132333333D01*
X150732914Y-132333333D02*
X150828152Y-132380952D01*
X150828152Y-132380952D02*
X150875771Y-132428571D01*
X150875771Y-132428571D02*
X150923390Y-132523809D01*
X150923390Y-132523809D02*
X150923390Y-132714285D01*
X150923390Y-132714285D02*
X150971009Y-132809523D01*
X150971009Y-132809523D02*
X151018628Y-132857142D01*
X151018628Y-132857142D02*
X151113866Y-132904761D01*
X151113866Y-132904761D02*
X151304342Y-132904761D01*
X151304342Y-132904761D02*
X151399580Y-132857142D01*
X151399580Y-132857142D02*
X151447200Y-132809523D01*
X151447200Y-132809523D02*
X151494819Y-132714285D01*
X151494819Y-132714285D02*
X151494819Y-132523809D01*
X151494819Y-132523809D02*
X151447200Y-132428571D01*
X151447200Y-132428571D02*
X151399580Y-132380952D01*
X151399580Y-132380952D02*
X151304342Y-132333333D01*
X151304342Y-132333333D02*
X151113866Y-132333333D01*
X151113866Y-132333333D02*
X151018628Y-132380952D01*
X151018628Y-132380952D02*
X150971009Y-132428571D01*
X150971009Y-132428571D02*
X150923390Y-132523809D01*
X187225095Y-84104819D02*
X187225095Y-83104819D01*
X187225095Y-83581009D02*
X187796523Y-83581009D01*
X187796523Y-84104819D02*
X187796523Y-83104819D01*
X188177476Y-83104819D02*
X188796523Y-83104819D01*
X188796523Y-83104819D02*
X188463190Y-83485771D01*
X188463190Y-83485771D02*
X188606047Y-83485771D01*
X188606047Y-83485771D02*
X188701285Y-83533390D01*
X188701285Y-83533390D02*
X188748904Y-83581009D01*
X188748904Y-83581009D02*
X188796523Y-83676247D01*
X188796523Y-83676247D02*
X188796523Y-83914342D01*
X188796523Y-83914342D02*
X188748904Y-84009580D01*
X188748904Y-84009580D02*
X188701285Y-84057200D01*
X188701285Y-84057200D02*
X188606047Y-84104819D01*
X188606047Y-84104819D02*
X188320333Y-84104819D01*
X188320333Y-84104819D02*
X188225095Y-84057200D01*
X188225095Y-84057200D02*
X188177476Y-84009580D01*
X113166666Y-124454819D02*
X113166666Y-125169104D01*
X113166666Y-125169104D02*
X113119047Y-125311961D01*
X113119047Y-125311961D02*
X113023809Y-125407200D01*
X113023809Y-125407200D02*
X112880952Y-125454819D01*
X112880952Y-125454819D02*
X112785714Y-125454819D01*
X114119047Y-124454819D02*
X113642857Y-124454819D01*
X113642857Y-124454819D02*
X113595238Y-124931009D01*
X113595238Y-124931009D02*
X113642857Y-124883390D01*
X113642857Y-124883390D02*
X113738095Y-124835771D01*
X113738095Y-124835771D02*
X113976190Y-124835771D01*
X113976190Y-124835771D02*
X114071428Y-124883390D01*
X114071428Y-124883390D02*
X114119047Y-124931009D01*
X114119047Y-124931009D02*
X114166666Y-125026247D01*
X114166666Y-125026247D02*
X114166666Y-125264342D01*
X114166666Y-125264342D02*
X114119047Y-125359580D01*
X114119047Y-125359580D02*
X114071428Y-125407200D01*
X114071428Y-125407200D02*
X113976190Y-125454819D01*
X113976190Y-125454819D02*
X113738095Y-125454819D01*
X113738095Y-125454819D02*
X113642857Y-125407200D01*
X113642857Y-125407200D02*
X113595238Y-125359580D01*
X163911666Y-78989819D02*
X163911666Y-79704104D01*
X163911666Y-79704104D02*
X163864047Y-79846961D01*
X163864047Y-79846961D02*
X163768809Y-79942200D01*
X163768809Y-79942200D02*
X163625952Y-79989819D01*
X163625952Y-79989819D02*
X163530714Y-79989819D01*
X164911666Y-79989819D02*
X164340238Y-79989819D01*
X164625952Y-79989819D02*
X164625952Y-78989819D01*
X164625952Y-78989819D02*
X164530714Y-79132676D01*
X164530714Y-79132676D02*
X164435476Y-79227914D01*
X164435476Y-79227914D02*
X164340238Y-79275533D01*
X133601459Y-108609391D02*
X134410982Y-108609391D01*
X134410982Y-108609391D02*
X134506220Y-108561772D01*
X134506220Y-108561772D02*
X134553840Y-108514153D01*
X134553840Y-108514153D02*
X134601459Y-108418915D01*
X134601459Y-108418915D02*
X134601459Y-108228439D01*
X134601459Y-108228439D02*
X134553840Y-108133201D01*
X134553840Y-108133201D02*
X134506220Y-108085582D01*
X134506220Y-108085582D02*
X134410982Y-108037963D01*
X134410982Y-108037963D02*
X133601459Y-108037963D01*
X134601459Y-107037963D02*
X134601459Y-107609391D01*
X134601459Y-107323677D02*
X133601459Y-107323677D01*
X133601459Y-107323677D02*
X133744316Y-107418915D01*
X133744316Y-107418915D02*
X133839554Y-107514153D01*
X133839554Y-107514153D02*
X133887173Y-107609391D01*
D10*
X126196168Y-90079880D02*
X125515215Y-90079880D01*
X125515215Y-90079880D02*
X125881882Y-89698928D01*
X125881882Y-89698928D02*
X125724739Y-89698928D01*
X125724739Y-89698928D02*
X125619977Y-89651309D01*
X125619977Y-89651309D02*
X125567596Y-89603690D01*
X125567596Y-89603690D02*
X125515215Y-89508452D01*
X125515215Y-89508452D02*
X125515215Y-89270357D01*
X125515215Y-89270357D02*
X125567596Y-89175119D01*
X125567596Y-89175119D02*
X125619977Y-89127500D01*
X125619977Y-89127500D02*
X125724739Y-89079880D01*
X125724739Y-89079880D02*
X126039025Y-89079880D01*
X126039025Y-89079880D02*
X126143787Y-89127500D01*
X126143787Y-89127500D02*
X126196168Y-89175119D01*
X125043787Y-89175119D02*
X124991406Y-89127500D01*
X124991406Y-89127500D02*
X125043787Y-89079880D01*
X125043787Y-89079880D02*
X125096168Y-89127500D01*
X125096168Y-89127500D02*
X125043787Y-89175119D01*
X125043787Y-89175119D02*
X125043787Y-89079880D01*
X124624739Y-90079880D02*
X123943786Y-90079880D01*
X123943786Y-90079880D02*
X124310453Y-89698928D01*
X124310453Y-89698928D02*
X124153310Y-89698928D01*
X124153310Y-89698928D02*
X124048548Y-89651309D01*
X124048548Y-89651309D02*
X123996167Y-89603690D01*
X123996167Y-89603690D02*
X123943786Y-89508452D01*
X123943786Y-89508452D02*
X123943786Y-89270357D01*
X123943786Y-89270357D02*
X123996167Y-89175119D01*
X123996167Y-89175119D02*
X124048548Y-89127500D01*
X124048548Y-89127500D02*
X124153310Y-89079880D01*
X124153310Y-89079880D02*
X124467596Y-89079880D01*
X124467596Y-89079880D02*
X124572358Y-89127500D01*
X124572358Y-89127500D02*
X124624739Y-89175119D01*
X123577120Y-89746547D02*
X123315215Y-89079880D01*
X123315215Y-89079880D02*
X123053310Y-89746547D01*
X125515215Y-92532261D02*
X125619977Y-92579880D01*
X125619977Y-92579880D02*
X125777120Y-92579880D01*
X125777120Y-92579880D02*
X125934263Y-92532261D01*
X125934263Y-92532261D02*
X126039025Y-92437023D01*
X126039025Y-92437023D02*
X126091406Y-92341785D01*
X126091406Y-92341785D02*
X126143787Y-92151309D01*
X126143787Y-92151309D02*
X126143787Y-92008452D01*
X126143787Y-92008452D02*
X126091406Y-91817976D01*
X126091406Y-91817976D02*
X126039025Y-91722738D01*
X126039025Y-91722738D02*
X125934263Y-91627500D01*
X125934263Y-91627500D02*
X125777120Y-91579880D01*
X125777120Y-91579880D02*
X125672358Y-91579880D01*
X125672358Y-91579880D02*
X125515215Y-91627500D01*
X125515215Y-91627500D02*
X125462834Y-91675119D01*
X125462834Y-91675119D02*
X125462834Y-92008452D01*
X125462834Y-92008452D02*
X125672358Y-92008452D01*
X124991406Y-91579880D02*
X124991406Y-92579880D01*
X124991406Y-92579880D02*
X124362834Y-91579880D01*
X124362834Y-91579880D02*
X124362834Y-92579880D01*
X123839025Y-91579880D02*
X123839025Y-92579880D01*
X123839025Y-92579880D02*
X123577120Y-92579880D01*
X123577120Y-92579880D02*
X123419977Y-92532261D01*
X123419977Y-92532261D02*
X123315215Y-92437023D01*
X123315215Y-92437023D02*
X123262834Y-92341785D01*
X123262834Y-92341785D02*
X123210453Y-92151309D01*
X123210453Y-92151309D02*
X123210453Y-92008452D01*
X123210453Y-92008452D02*
X123262834Y-91817976D01*
X123262834Y-91817976D02*
X123315215Y-91722738D01*
X123315215Y-91722738D02*
X123419977Y-91627500D01*
X123419977Y-91627500D02*
X123577120Y-91579880D01*
X123577120Y-91579880D02*
X123839025Y-91579880D01*
X127015215Y-97532261D02*
X127119977Y-97579880D01*
X127119977Y-97579880D02*
X127277120Y-97579880D01*
X127277120Y-97579880D02*
X127434263Y-97532261D01*
X127434263Y-97532261D02*
X127539025Y-97437023D01*
X127539025Y-97437023D02*
X127591406Y-97341785D01*
X127591406Y-97341785D02*
X127643787Y-97151309D01*
X127643787Y-97151309D02*
X127643787Y-97008452D01*
X127643787Y-97008452D02*
X127591406Y-96817976D01*
X127591406Y-96817976D02*
X127539025Y-96722738D01*
X127539025Y-96722738D02*
X127434263Y-96627500D01*
X127434263Y-96627500D02*
X127277120Y-96579880D01*
X127277120Y-96579880D02*
X127172358Y-96579880D01*
X127172358Y-96579880D02*
X127015215Y-96627500D01*
X127015215Y-96627500D02*
X126962834Y-96675119D01*
X126962834Y-96675119D02*
X126962834Y-97008452D01*
X126962834Y-97008452D02*
X127172358Y-97008452D01*
X126491406Y-96579880D02*
X126491406Y-97579880D01*
X126491406Y-97579880D02*
X126072358Y-97579880D01*
X126072358Y-97579880D02*
X125967596Y-97532261D01*
X125967596Y-97532261D02*
X125915215Y-97484642D01*
X125915215Y-97484642D02*
X125862834Y-97389404D01*
X125862834Y-97389404D02*
X125862834Y-97246547D01*
X125862834Y-97246547D02*
X125915215Y-97151309D01*
X125915215Y-97151309D02*
X125967596Y-97103690D01*
X125967596Y-97103690D02*
X126072358Y-97056071D01*
X126072358Y-97056071D02*
X126491406Y-97056071D01*
X125391406Y-96579880D02*
X125391406Y-97579880D01*
X124658072Y-97579880D02*
X124448548Y-97579880D01*
X124448548Y-97579880D02*
X124343786Y-97532261D01*
X124343786Y-97532261D02*
X124239024Y-97437023D01*
X124239024Y-97437023D02*
X124186643Y-97246547D01*
X124186643Y-97246547D02*
X124186643Y-96913214D01*
X124186643Y-96913214D02*
X124239024Y-96722738D01*
X124239024Y-96722738D02*
X124343786Y-96627500D01*
X124343786Y-96627500D02*
X124448548Y-96579880D01*
X124448548Y-96579880D02*
X124658072Y-96579880D01*
X124658072Y-96579880D02*
X124762834Y-96627500D01*
X124762834Y-96627500D02*
X124867596Y-96722738D01*
X124867596Y-96722738D02*
X124919977Y-96913214D01*
X124919977Y-96913214D02*
X124919977Y-97246547D01*
X124919977Y-97246547D02*
X124867596Y-97437023D01*
X124867596Y-97437023D02*
X124762834Y-97532261D01*
X124762834Y-97532261D02*
X124658072Y-97579880D01*
X123767596Y-97484642D02*
X123715215Y-97532261D01*
X123715215Y-97532261D02*
X123610453Y-97579880D01*
X123610453Y-97579880D02*
X123348548Y-97579880D01*
X123348548Y-97579880D02*
X123243786Y-97532261D01*
X123243786Y-97532261D02*
X123191405Y-97484642D01*
X123191405Y-97484642D02*
X123139024Y-97389404D01*
X123139024Y-97389404D02*
X123139024Y-97294166D01*
X123139024Y-97294166D02*
X123191405Y-97151309D01*
X123191405Y-97151309D02*
X123819977Y-96579880D01*
X123819977Y-96579880D02*
X123139024Y-96579880D01*
X127015215Y-100032261D02*
X127119977Y-100079880D01*
X127119977Y-100079880D02*
X127277120Y-100079880D01*
X127277120Y-100079880D02*
X127434263Y-100032261D01*
X127434263Y-100032261D02*
X127539025Y-99937023D01*
X127539025Y-99937023D02*
X127591406Y-99841785D01*
X127591406Y-99841785D02*
X127643787Y-99651309D01*
X127643787Y-99651309D02*
X127643787Y-99508452D01*
X127643787Y-99508452D02*
X127591406Y-99317976D01*
X127591406Y-99317976D02*
X127539025Y-99222738D01*
X127539025Y-99222738D02*
X127434263Y-99127500D01*
X127434263Y-99127500D02*
X127277120Y-99079880D01*
X127277120Y-99079880D02*
X127172358Y-99079880D01*
X127172358Y-99079880D02*
X127015215Y-99127500D01*
X127015215Y-99127500D02*
X126962834Y-99175119D01*
X126962834Y-99175119D02*
X126962834Y-99508452D01*
X126962834Y-99508452D02*
X127172358Y-99508452D01*
X126491406Y-99079880D02*
X126491406Y-100079880D01*
X126491406Y-100079880D02*
X126072358Y-100079880D01*
X126072358Y-100079880D02*
X125967596Y-100032261D01*
X125967596Y-100032261D02*
X125915215Y-99984642D01*
X125915215Y-99984642D02*
X125862834Y-99889404D01*
X125862834Y-99889404D02*
X125862834Y-99746547D01*
X125862834Y-99746547D02*
X125915215Y-99651309D01*
X125915215Y-99651309D02*
X125967596Y-99603690D01*
X125967596Y-99603690D02*
X126072358Y-99556071D01*
X126072358Y-99556071D02*
X126491406Y-99556071D01*
X125391406Y-99079880D02*
X125391406Y-100079880D01*
X124658072Y-100079880D02*
X124448548Y-100079880D01*
X124448548Y-100079880D02*
X124343786Y-100032261D01*
X124343786Y-100032261D02*
X124239024Y-99937023D01*
X124239024Y-99937023D02*
X124186643Y-99746547D01*
X124186643Y-99746547D02*
X124186643Y-99413214D01*
X124186643Y-99413214D02*
X124239024Y-99222738D01*
X124239024Y-99222738D02*
X124343786Y-99127500D01*
X124343786Y-99127500D02*
X124448548Y-99079880D01*
X124448548Y-99079880D02*
X124658072Y-99079880D01*
X124658072Y-99079880D02*
X124762834Y-99127500D01*
X124762834Y-99127500D02*
X124867596Y-99222738D01*
X124867596Y-99222738D02*
X124919977Y-99413214D01*
X124919977Y-99413214D02*
X124919977Y-99746547D01*
X124919977Y-99746547D02*
X124867596Y-99937023D01*
X124867596Y-99937023D02*
X124762834Y-100032261D01*
X124762834Y-100032261D02*
X124658072Y-100079880D01*
X123243786Y-99746547D02*
X123243786Y-99079880D01*
X123505691Y-100127500D02*
X123767596Y-99413214D01*
X123767596Y-99413214D02*
X123086643Y-99413214D01*
X127015215Y-107532261D02*
X127119977Y-107579880D01*
X127119977Y-107579880D02*
X127277120Y-107579880D01*
X127277120Y-107579880D02*
X127434263Y-107532261D01*
X127434263Y-107532261D02*
X127539025Y-107437023D01*
X127539025Y-107437023D02*
X127591406Y-107341785D01*
X127591406Y-107341785D02*
X127643787Y-107151309D01*
X127643787Y-107151309D02*
X127643787Y-107008452D01*
X127643787Y-107008452D02*
X127591406Y-106817976D01*
X127591406Y-106817976D02*
X127539025Y-106722738D01*
X127539025Y-106722738D02*
X127434263Y-106627500D01*
X127434263Y-106627500D02*
X127277120Y-106579880D01*
X127277120Y-106579880D02*
X127172358Y-106579880D01*
X127172358Y-106579880D02*
X127015215Y-106627500D01*
X127015215Y-106627500D02*
X126962834Y-106675119D01*
X126962834Y-106675119D02*
X126962834Y-107008452D01*
X126962834Y-107008452D02*
X127172358Y-107008452D01*
X126491406Y-106579880D02*
X126491406Y-107579880D01*
X126491406Y-107579880D02*
X126072358Y-107579880D01*
X126072358Y-107579880D02*
X125967596Y-107532261D01*
X125967596Y-107532261D02*
X125915215Y-107484642D01*
X125915215Y-107484642D02*
X125862834Y-107389404D01*
X125862834Y-107389404D02*
X125862834Y-107246547D01*
X125862834Y-107246547D02*
X125915215Y-107151309D01*
X125915215Y-107151309D02*
X125967596Y-107103690D01*
X125967596Y-107103690D02*
X126072358Y-107056071D01*
X126072358Y-107056071D02*
X126491406Y-107056071D01*
X125391406Y-106579880D02*
X125391406Y-107579880D01*
X124658072Y-107579880D02*
X124448548Y-107579880D01*
X124448548Y-107579880D02*
X124343786Y-107532261D01*
X124343786Y-107532261D02*
X124239024Y-107437023D01*
X124239024Y-107437023D02*
X124186643Y-107246547D01*
X124186643Y-107246547D02*
X124186643Y-106913214D01*
X124186643Y-106913214D02*
X124239024Y-106722738D01*
X124239024Y-106722738D02*
X124343786Y-106627500D01*
X124343786Y-106627500D02*
X124448548Y-106579880D01*
X124448548Y-106579880D02*
X124658072Y-106579880D01*
X124658072Y-106579880D02*
X124762834Y-106627500D01*
X124762834Y-106627500D02*
X124867596Y-106722738D01*
X124867596Y-106722738D02*
X124919977Y-106913214D01*
X124919977Y-106913214D02*
X124919977Y-107246547D01*
X124919977Y-107246547D02*
X124867596Y-107437023D01*
X124867596Y-107437023D02*
X124762834Y-107532261D01*
X124762834Y-107532261D02*
X124658072Y-107579880D01*
X123191405Y-107579880D02*
X123715215Y-107579880D01*
X123715215Y-107579880D02*
X123767596Y-107103690D01*
X123767596Y-107103690D02*
X123715215Y-107151309D01*
X123715215Y-107151309D02*
X123610453Y-107198928D01*
X123610453Y-107198928D02*
X123348548Y-107198928D01*
X123348548Y-107198928D02*
X123243786Y-107151309D01*
X123243786Y-107151309D02*
X123191405Y-107103690D01*
X123191405Y-107103690D02*
X123139024Y-107008452D01*
X123139024Y-107008452D02*
X123139024Y-106770357D01*
X123139024Y-106770357D02*
X123191405Y-106675119D01*
X123191405Y-106675119D02*
X123243786Y-106627500D01*
X123243786Y-106627500D02*
X123348548Y-106579880D01*
X123348548Y-106579880D02*
X123610453Y-106579880D01*
X123610453Y-106579880D02*
X123715215Y-106627500D01*
X123715215Y-106627500D02*
X123767596Y-106675119D01*
X127015215Y-117532261D02*
X127119977Y-117579880D01*
X127119977Y-117579880D02*
X127277120Y-117579880D01*
X127277120Y-117579880D02*
X127434263Y-117532261D01*
X127434263Y-117532261D02*
X127539025Y-117437023D01*
X127539025Y-117437023D02*
X127591406Y-117341785D01*
X127591406Y-117341785D02*
X127643787Y-117151309D01*
X127643787Y-117151309D02*
X127643787Y-117008452D01*
X127643787Y-117008452D02*
X127591406Y-116817976D01*
X127591406Y-116817976D02*
X127539025Y-116722738D01*
X127539025Y-116722738D02*
X127434263Y-116627500D01*
X127434263Y-116627500D02*
X127277120Y-116579880D01*
X127277120Y-116579880D02*
X127172358Y-116579880D01*
X127172358Y-116579880D02*
X127015215Y-116627500D01*
X127015215Y-116627500D02*
X126962834Y-116675119D01*
X126962834Y-116675119D02*
X126962834Y-117008452D01*
X126962834Y-117008452D02*
X127172358Y-117008452D01*
X126491406Y-116579880D02*
X126491406Y-117579880D01*
X126491406Y-117579880D02*
X126072358Y-117579880D01*
X126072358Y-117579880D02*
X125967596Y-117532261D01*
X125967596Y-117532261D02*
X125915215Y-117484642D01*
X125915215Y-117484642D02*
X125862834Y-117389404D01*
X125862834Y-117389404D02*
X125862834Y-117246547D01*
X125862834Y-117246547D02*
X125915215Y-117151309D01*
X125915215Y-117151309D02*
X125967596Y-117103690D01*
X125967596Y-117103690D02*
X126072358Y-117056071D01*
X126072358Y-117056071D02*
X126491406Y-117056071D01*
X125391406Y-116579880D02*
X125391406Y-117579880D01*
X124658072Y-117579880D02*
X124448548Y-117579880D01*
X124448548Y-117579880D02*
X124343786Y-117532261D01*
X124343786Y-117532261D02*
X124239024Y-117437023D01*
X124239024Y-117437023D02*
X124186643Y-117246547D01*
X124186643Y-117246547D02*
X124186643Y-116913214D01*
X124186643Y-116913214D02*
X124239024Y-116722738D01*
X124239024Y-116722738D02*
X124343786Y-116627500D01*
X124343786Y-116627500D02*
X124448548Y-116579880D01*
X124448548Y-116579880D02*
X124658072Y-116579880D01*
X124658072Y-116579880D02*
X124762834Y-116627500D01*
X124762834Y-116627500D02*
X124867596Y-116722738D01*
X124867596Y-116722738D02*
X124919977Y-116913214D01*
X124919977Y-116913214D02*
X124919977Y-117246547D01*
X124919977Y-117246547D02*
X124867596Y-117437023D01*
X124867596Y-117437023D02*
X124762834Y-117532261D01*
X124762834Y-117532261D02*
X124658072Y-117579880D01*
X123819977Y-117579880D02*
X123139024Y-117579880D01*
X123139024Y-117579880D02*
X123505691Y-117198928D01*
X123505691Y-117198928D02*
X123348548Y-117198928D01*
X123348548Y-117198928D02*
X123243786Y-117151309D01*
X123243786Y-117151309D02*
X123191405Y-117103690D01*
X123191405Y-117103690D02*
X123139024Y-117008452D01*
X123139024Y-117008452D02*
X123139024Y-116770357D01*
X123139024Y-116770357D02*
X123191405Y-116675119D01*
X123191405Y-116675119D02*
X123243786Y-116627500D01*
X123243786Y-116627500D02*
X123348548Y-116579880D01*
X123348548Y-116579880D02*
X123662834Y-116579880D01*
X123662834Y-116579880D02*
X123767596Y-116627500D01*
X123767596Y-116627500D02*
X123819977Y-116675119D01*
X127015215Y-120532261D02*
X127119977Y-120579880D01*
X127119977Y-120579880D02*
X127277120Y-120579880D01*
X127277120Y-120579880D02*
X127434263Y-120532261D01*
X127434263Y-120532261D02*
X127539025Y-120437023D01*
X127539025Y-120437023D02*
X127591406Y-120341785D01*
X127591406Y-120341785D02*
X127643787Y-120151309D01*
X127643787Y-120151309D02*
X127643787Y-120008452D01*
X127643787Y-120008452D02*
X127591406Y-119817976D01*
X127591406Y-119817976D02*
X127539025Y-119722738D01*
X127539025Y-119722738D02*
X127434263Y-119627500D01*
X127434263Y-119627500D02*
X127277120Y-119579880D01*
X127277120Y-119579880D02*
X127172358Y-119579880D01*
X127172358Y-119579880D02*
X127015215Y-119627500D01*
X127015215Y-119627500D02*
X126962834Y-119675119D01*
X126962834Y-119675119D02*
X126962834Y-120008452D01*
X126962834Y-120008452D02*
X127172358Y-120008452D01*
X126491406Y-119579880D02*
X126491406Y-120579880D01*
X126491406Y-120579880D02*
X126072358Y-120579880D01*
X126072358Y-120579880D02*
X125967596Y-120532261D01*
X125967596Y-120532261D02*
X125915215Y-120484642D01*
X125915215Y-120484642D02*
X125862834Y-120389404D01*
X125862834Y-120389404D02*
X125862834Y-120246547D01*
X125862834Y-120246547D02*
X125915215Y-120151309D01*
X125915215Y-120151309D02*
X125967596Y-120103690D01*
X125967596Y-120103690D02*
X126072358Y-120056071D01*
X126072358Y-120056071D02*
X126491406Y-120056071D01*
X125391406Y-119579880D02*
X125391406Y-120579880D01*
X124658072Y-120579880D02*
X124448548Y-120579880D01*
X124448548Y-120579880D02*
X124343786Y-120532261D01*
X124343786Y-120532261D02*
X124239024Y-120437023D01*
X124239024Y-120437023D02*
X124186643Y-120246547D01*
X124186643Y-120246547D02*
X124186643Y-119913214D01*
X124186643Y-119913214D02*
X124239024Y-119722738D01*
X124239024Y-119722738D02*
X124343786Y-119627500D01*
X124343786Y-119627500D02*
X124448548Y-119579880D01*
X124448548Y-119579880D02*
X124658072Y-119579880D01*
X124658072Y-119579880D02*
X124762834Y-119627500D01*
X124762834Y-119627500D02*
X124867596Y-119722738D01*
X124867596Y-119722738D02*
X124919977Y-119913214D01*
X124919977Y-119913214D02*
X124919977Y-120246547D01*
X124919977Y-120246547D02*
X124867596Y-120437023D01*
X124867596Y-120437023D02*
X124762834Y-120532261D01*
X124762834Y-120532261D02*
X124658072Y-120579880D01*
X123139024Y-119579880D02*
X123767596Y-119579880D01*
X123453310Y-119579880D02*
X123453310Y-120579880D01*
X123453310Y-120579880D02*
X123558072Y-120437023D01*
X123558072Y-120437023D02*
X123662834Y-120341785D01*
X123662834Y-120341785D02*
X123767596Y-120294166D01*
X128015215Y-95032261D02*
X128119977Y-95079880D01*
X128119977Y-95079880D02*
X128277120Y-95079880D01*
X128277120Y-95079880D02*
X128434263Y-95032261D01*
X128434263Y-95032261D02*
X128539025Y-94937023D01*
X128539025Y-94937023D02*
X128591406Y-94841785D01*
X128591406Y-94841785D02*
X128643787Y-94651309D01*
X128643787Y-94651309D02*
X128643787Y-94508452D01*
X128643787Y-94508452D02*
X128591406Y-94317976D01*
X128591406Y-94317976D02*
X128539025Y-94222738D01*
X128539025Y-94222738D02*
X128434263Y-94127500D01*
X128434263Y-94127500D02*
X128277120Y-94079880D01*
X128277120Y-94079880D02*
X128172358Y-94079880D01*
X128172358Y-94079880D02*
X128015215Y-94127500D01*
X128015215Y-94127500D02*
X127962834Y-94175119D01*
X127962834Y-94175119D02*
X127962834Y-94508452D01*
X127962834Y-94508452D02*
X128172358Y-94508452D01*
X127491406Y-94079880D02*
X127491406Y-95079880D01*
X127491406Y-95079880D02*
X127072358Y-95079880D01*
X127072358Y-95079880D02*
X126967596Y-95032261D01*
X126967596Y-95032261D02*
X126915215Y-94984642D01*
X126915215Y-94984642D02*
X126862834Y-94889404D01*
X126862834Y-94889404D02*
X126862834Y-94746547D01*
X126862834Y-94746547D02*
X126915215Y-94651309D01*
X126915215Y-94651309D02*
X126967596Y-94603690D01*
X126967596Y-94603690D02*
X127072358Y-94556071D01*
X127072358Y-94556071D02*
X127491406Y-94556071D01*
X126391406Y-94079880D02*
X126391406Y-95079880D01*
X125658072Y-95079880D02*
X125448548Y-95079880D01*
X125448548Y-95079880D02*
X125343786Y-95032261D01*
X125343786Y-95032261D02*
X125239024Y-94937023D01*
X125239024Y-94937023D02*
X125186643Y-94746547D01*
X125186643Y-94746547D02*
X125186643Y-94413214D01*
X125186643Y-94413214D02*
X125239024Y-94222738D01*
X125239024Y-94222738D02*
X125343786Y-94127500D01*
X125343786Y-94127500D02*
X125448548Y-94079880D01*
X125448548Y-94079880D02*
X125658072Y-94079880D01*
X125658072Y-94079880D02*
X125762834Y-94127500D01*
X125762834Y-94127500D02*
X125867596Y-94222738D01*
X125867596Y-94222738D02*
X125919977Y-94413214D01*
X125919977Y-94413214D02*
X125919977Y-94746547D01*
X125919977Y-94746547D02*
X125867596Y-94937023D01*
X125867596Y-94937023D02*
X125762834Y-95032261D01*
X125762834Y-95032261D02*
X125658072Y-95079880D01*
X124139024Y-94079880D02*
X124767596Y-94079880D01*
X124453310Y-94079880D02*
X124453310Y-95079880D01*
X124453310Y-95079880D02*
X124558072Y-94937023D01*
X124558072Y-94937023D02*
X124662834Y-94841785D01*
X124662834Y-94841785D02*
X124767596Y-94794166D01*
X123143786Y-95079880D02*
X123667596Y-95079880D01*
X123667596Y-95079880D02*
X123719977Y-94603690D01*
X123719977Y-94603690D02*
X123667596Y-94651309D01*
X123667596Y-94651309D02*
X123562834Y-94698928D01*
X123562834Y-94698928D02*
X123300929Y-94698928D01*
X123300929Y-94698928D02*
X123196167Y-94651309D01*
X123196167Y-94651309D02*
X123143786Y-94603690D01*
X123143786Y-94603690D02*
X123091405Y-94508452D01*
X123091405Y-94508452D02*
X123091405Y-94270357D01*
X123091405Y-94270357D02*
X123143786Y-94175119D01*
X123143786Y-94175119D02*
X123196167Y-94127500D01*
X123196167Y-94127500D02*
X123300929Y-94079880D01*
X123300929Y-94079880D02*
X123562834Y-94079880D01*
X123562834Y-94079880D02*
X123667596Y-94127500D01*
X123667596Y-94127500D02*
X123719977Y-94175119D01*
X128015215Y-102532261D02*
X128119977Y-102579880D01*
X128119977Y-102579880D02*
X128277120Y-102579880D01*
X128277120Y-102579880D02*
X128434263Y-102532261D01*
X128434263Y-102532261D02*
X128539025Y-102437023D01*
X128539025Y-102437023D02*
X128591406Y-102341785D01*
X128591406Y-102341785D02*
X128643787Y-102151309D01*
X128643787Y-102151309D02*
X128643787Y-102008452D01*
X128643787Y-102008452D02*
X128591406Y-101817976D01*
X128591406Y-101817976D02*
X128539025Y-101722738D01*
X128539025Y-101722738D02*
X128434263Y-101627500D01*
X128434263Y-101627500D02*
X128277120Y-101579880D01*
X128277120Y-101579880D02*
X128172358Y-101579880D01*
X128172358Y-101579880D02*
X128015215Y-101627500D01*
X128015215Y-101627500D02*
X127962834Y-101675119D01*
X127962834Y-101675119D02*
X127962834Y-102008452D01*
X127962834Y-102008452D02*
X128172358Y-102008452D01*
X127491406Y-101579880D02*
X127491406Y-102579880D01*
X127491406Y-102579880D02*
X127072358Y-102579880D01*
X127072358Y-102579880D02*
X126967596Y-102532261D01*
X126967596Y-102532261D02*
X126915215Y-102484642D01*
X126915215Y-102484642D02*
X126862834Y-102389404D01*
X126862834Y-102389404D02*
X126862834Y-102246547D01*
X126862834Y-102246547D02*
X126915215Y-102151309D01*
X126915215Y-102151309D02*
X126967596Y-102103690D01*
X126967596Y-102103690D02*
X127072358Y-102056071D01*
X127072358Y-102056071D02*
X127491406Y-102056071D01*
X126391406Y-101579880D02*
X126391406Y-102579880D01*
X125658072Y-102579880D02*
X125448548Y-102579880D01*
X125448548Y-102579880D02*
X125343786Y-102532261D01*
X125343786Y-102532261D02*
X125239024Y-102437023D01*
X125239024Y-102437023D02*
X125186643Y-102246547D01*
X125186643Y-102246547D02*
X125186643Y-101913214D01*
X125186643Y-101913214D02*
X125239024Y-101722738D01*
X125239024Y-101722738D02*
X125343786Y-101627500D01*
X125343786Y-101627500D02*
X125448548Y-101579880D01*
X125448548Y-101579880D02*
X125658072Y-101579880D01*
X125658072Y-101579880D02*
X125762834Y-101627500D01*
X125762834Y-101627500D02*
X125867596Y-101722738D01*
X125867596Y-101722738D02*
X125919977Y-101913214D01*
X125919977Y-101913214D02*
X125919977Y-102246547D01*
X125919977Y-102246547D02*
X125867596Y-102437023D01*
X125867596Y-102437023D02*
X125762834Y-102532261D01*
X125762834Y-102532261D02*
X125658072Y-102579880D01*
X124139024Y-101579880D02*
X124767596Y-101579880D01*
X124453310Y-101579880D02*
X124453310Y-102579880D01*
X124453310Y-102579880D02*
X124558072Y-102437023D01*
X124558072Y-102437023D02*
X124662834Y-102341785D01*
X124662834Y-102341785D02*
X124767596Y-102294166D01*
X123196167Y-102579880D02*
X123405691Y-102579880D01*
X123405691Y-102579880D02*
X123510453Y-102532261D01*
X123510453Y-102532261D02*
X123562834Y-102484642D01*
X123562834Y-102484642D02*
X123667596Y-102341785D01*
X123667596Y-102341785D02*
X123719977Y-102151309D01*
X123719977Y-102151309D02*
X123719977Y-101770357D01*
X123719977Y-101770357D02*
X123667596Y-101675119D01*
X123667596Y-101675119D02*
X123615215Y-101627500D01*
X123615215Y-101627500D02*
X123510453Y-101579880D01*
X123510453Y-101579880D02*
X123300929Y-101579880D01*
X123300929Y-101579880D02*
X123196167Y-101627500D01*
X123196167Y-101627500D02*
X123143786Y-101675119D01*
X123143786Y-101675119D02*
X123091405Y-101770357D01*
X123091405Y-101770357D02*
X123091405Y-102008452D01*
X123091405Y-102008452D02*
X123143786Y-102103690D01*
X123143786Y-102103690D02*
X123196167Y-102151309D01*
X123196167Y-102151309D02*
X123300929Y-102198928D01*
X123300929Y-102198928D02*
X123510453Y-102198928D01*
X123510453Y-102198928D02*
X123615215Y-102151309D01*
X123615215Y-102151309D02*
X123667596Y-102103690D01*
X123667596Y-102103690D02*
X123719977Y-102008452D01*
X128015215Y-105032261D02*
X128119977Y-105079880D01*
X128119977Y-105079880D02*
X128277120Y-105079880D01*
X128277120Y-105079880D02*
X128434263Y-105032261D01*
X128434263Y-105032261D02*
X128539025Y-104937023D01*
X128539025Y-104937023D02*
X128591406Y-104841785D01*
X128591406Y-104841785D02*
X128643787Y-104651309D01*
X128643787Y-104651309D02*
X128643787Y-104508452D01*
X128643787Y-104508452D02*
X128591406Y-104317976D01*
X128591406Y-104317976D02*
X128539025Y-104222738D01*
X128539025Y-104222738D02*
X128434263Y-104127500D01*
X128434263Y-104127500D02*
X128277120Y-104079880D01*
X128277120Y-104079880D02*
X128172358Y-104079880D01*
X128172358Y-104079880D02*
X128015215Y-104127500D01*
X128015215Y-104127500D02*
X127962834Y-104175119D01*
X127962834Y-104175119D02*
X127962834Y-104508452D01*
X127962834Y-104508452D02*
X128172358Y-104508452D01*
X127491406Y-104079880D02*
X127491406Y-105079880D01*
X127491406Y-105079880D02*
X127072358Y-105079880D01*
X127072358Y-105079880D02*
X126967596Y-105032261D01*
X126967596Y-105032261D02*
X126915215Y-104984642D01*
X126915215Y-104984642D02*
X126862834Y-104889404D01*
X126862834Y-104889404D02*
X126862834Y-104746547D01*
X126862834Y-104746547D02*
X126915215Y-104651309D01*
X126915215Y-104651309D02*
X126967596Y-104603690D01*
X126967596Y-104603690D02*
X127072358Y-104556071D01*
X127072358Y-104556071D02*
X127491406Y-104556071D01*
X126391406Y-104079880D02*
X126391406Y-105079880D01*
X125658072Y-105079880D02*
X125448548Y-105079880D01*
X125448548Y-105079880D02*
X125343786Y-105032261D01*
X125343786Y-105032261D02*
X125239024Y-104937023D01*
X125239024Y-104937023D02*
X125186643Y-104746547D01*
X125186643Y-104746547D02*
X125186643Y-104413214D01*
X125186643Y-104413214D02*
X125239024Y-104222738D01*
X125239024Y-104222738D02*
X125343786Y-104127500D01*
X125343786Y-104127500D02*
X125448548Y-104079880D01*
X125448548Y-104079880D02*
X125658072Y-104079880D01*
X125658072Y-104079880D02*
X125762834Y-104127500D01*
X125762834Y-104127500D02*
X125867596Y-104222738D01*
X125867596Y-104222738D02*
X125919977Y-104413214D01*
X125919977Y-104413214D02*
X125919977Y-104746547D01*
X125919977Y-104746547D02*
X125867596Y-104937023D01*
X125867596Y-104937023D02*
X125762834Y-105032261D01*
X125762834Y-105032261D02*
X125658072Y-105079880D01*
X124139024Y-104079880D02*
X124767596Y-104079880D01*
X124453310Y-104079880D02*
X124453310Y-105079880D01*
X124453310Y-105079880D02*
X124558072Y-104937023D01*
X124558072Y-104937023D02*
X124662834Y-104841785D01*
X124662834Y-104841785D02*
X124767596Y-104794166D01*
X123772358Y-105079880D02*
X123039024Y-105079880D01*
X123039024Y-105079880D02*
X123510453Y-104079880D01*
X128015215Y-110032261D02*
X128119977Y-110079880D01*
X128119977Y-110079880D02*
X128277120Y-110079880D01*
X128277120Y-110079880D02*
X128434263Y-110032261D01*
X128434263Y-110032261D02*
X128539025Y-109937023D01*
X128539025Y-109937023D02*
X128591406Y-109841785D01*
X128591406Y-109841785D02*
X128643787Y-109651309D01*
X128643787Y-109651309D02*
X128643787Y-109508452D01*
X128643787Y-109508452D02*
X128591406Y-109317976D01*
X128591406Y-109317976D02*
X128539025Y-109222738D01*
X128539025Y-109222738D02*
X128434263Y-109127500D01*
X128434263Y-109127500D02*
X128277120Y-109079880D01*
X128277120Y-109079880D02*
X128172358Y-109079880D01*
X128172358Y-109079880D02*
X128015215Y-109127500D01*
X128015215Y-109127500D02*
X127962834Y-109175119D01*
X127962834Y-109175119D02*
X127962834Y-109508452D01*
X127962834Y-109508452D02*
X128172358Y-109508452D01*
X127491406Y-109079880D02*
X127491406Y-110079880D01*
X127491406Y-110079880D02*
X127072358Y-110079880D01*
X127072358Y-110079880D02*
X126967596Y-110032261D01*
X126967596Y-110032261D02*
X126915215Y-109984642D01*
X126915215Y-109984642D02*
X126862834Y-109889404D01*
X126862834Y-109889404D02*
X126862834Y-109746547D01*
X126862834Y-109746547D02*
X126915215Y-109651309D01*
X126915215Y-109651309D02*
X126967596Y-109603690D01*
X126967596Y-109603690D02*
X127072358Y-109556071D01*
X127072358Y-109556071D02*
X127491406Y-109556071D01*
X126391406Y-109079880D02*
X126391406Y-110079880D01*
X125658072Y-110079880D02*
X125448548Y-110079880D01*
X125448548Y-110079880D02*
X125343786Y-110032261D01*
X125343786Y-110032261D02*
X125239024Y-109937023D01*
X125239024Y-109937023D02*
X125186643Y-109746547D01*
X125186643Y-109746547D02*
X125186643Y-109413214D01*
X125186643Y-109413214D02*
X125239024Y-109222738D01*
X125239024Y-109222738D02*
X125343786Y-109127500D01*
X125343786Y-109127500D02*
X125448548Y-109079880D01*
X125448548Y-109079880D02*
X125658072Y-109079880D01*
X125658072Y-109079880D02*
X125762834Y-109127500D01*
X125762834Y-109127500D02*
X125867596Y-109222738D01*
X125867596Y-109222738D02*
X125919977Y-109413214D01*
X125919977Y-109413214D02*
X125919977Y-109746547D01*
X125919977Y-109746547D02*
X125867596Y-109937023D01*
X125867596Y-109937023D02*
X125762834Y-110032261D01*
X125762834Y-110032261D02*
X125658072Y-110079880D01*
X124139024Y-109079880D02*
X124767596Y-109079880D01*
X124453310Y-109079880D02*
X124453310Y-110079880D01*
X124453310Y-110079880D02*
X124558072Y-109937023D01*
X124558072Y-109937023D02*
X124662834Y-109841785D01*
X124662834Y-109841785D02*
X124767596Y-109794166D01*
X123510453Y-109651309D02*
X123615215Y-109698928D01*
X123615215Y-109698928D02*
X123667596Y-109746547D01*
X123667596Y-109746547D02*
X123719977Y-109841785D01*
X123719977Y-109841785D02*
X123719977Y-109889404D01*
X123719977Y-109889404D02*
X123667596Y-109984642D01*
X123667596Y-109984642D02*
X123615215Y-110032261D01*
X123615215Y-110032261D02*
X123510453Y-110079880D01*
X123510453Y-110079880D02*
X123300929Y-110079880D01*
X123300929Y-110079880D02*
X123196167Y-110032261D01*
X123196167Y-110032261D02*
X123143786Y-109984642D01*
X123143786Y-109984642D02*
X123091405Y-109889404D01*
X123091405Y-109889404D02*
X123091405Y-109841785D01*
X123091405Y-109841785D02*
X123143786Y-109746547D01*
X123143786Y-109746547D02*
X123196167Y-109698928D01*
X123196167Y-109698928D02*
X123300929Y-109651309D01*
X123300929Y-109651309D02*
X123510453Y-109651309D01*
X123510453Y-109651309D02*
X123615215Y-109603690D01*
X123615215Y-109603690D02*
X123667596Y-109556071D01*
X123667596Y-109556071D02*
X123719977Y-109460833D01*
X123719977Y-109460833D02*
X123719977Y-109270357D01*
X123719977Y-109270357D02*
X123667596Y-109175119D01*
X123667596Y-109175119D02*
X123615215Y-109127500D01*
X123615215Y-109127500D02*
X123510453Y-109079880D01*
X123510453Y-109079880D02*
X123300929Y-109079880D01*
X123300929Y-109079880D02*
X123196167Y-109127500D01*
X123196167Y-109127500D02*
X123143786Y-109175119D01*
X123143786Y-109175119D02*
X123091405Y-109270357D01*
X123091405Y-109270357D02*
X123091405Y-109460833D01*
X123091405Y-109460833D02*
X123143786Y-109556071D01*
X123143786Y-109556071D02*
X123196167Y-109603690D01*
X123196167Y-109603690D02*
X123300929Y-109651309D01*
X128015215Y-112532261D02*
X128119977Y-112579880D01*
X128119977Y-112579880D02*
X128277120Y-112579880D01*
X128277120Y-112579880D02*
X128434263Y-112532261D01*
X128434263Y-112532261D02*
X128539025Y-112437023D01*
X128539025Y-112437023D02*
X128591406Y-112341785D01*
X128591406Y-112341785D02*
X128643787Y-112151309D01*
X128643787Y-112151309D02*
X128643787Y-112008452D01*
X128643787Y-112008452D02*
X128591406Y-111817976D01*
X128591406Y-111817976D02*
X128539025Y-111722738D01*
X128539025Y-111722738D02*
X128434263Y-111627500D01*
X128434263Y-111627500D02*
X128277120Y-111579880D01*
X128277120Y-111579880D02*
X128172358Y-111579880D01*
X128172358Y-111579880D02*
X128015215Y-111627500D01*
X128015215Y-111627500D02*
X127962834Y-111675119D01*
X127962834Y-111675119D02*
X127962834Y-112008452D01*
X127962834Y-112008452D02*
X128172358Y-112008452D01*
X127491406Y-111579880D02*
X127491406Y-112579880D01*
X127491406Y-112579880D02*
X127072358Y-112579880D01*
X127072358Y-112579880D02*
X126967596Y-112532261D01*
X126967596Y-112532261D02*
X126915215Y-112484642D01*
X126915215Y-112484642D02*
X126862834Y-112389404D01*
X126862834Y-112389404D02*
X126862834Y-112246547D01*
X126862834Y-112246547D02*
X126915215Y-112151309D01*
X126915215Y-112151309D02*
X126967596Y-112103690D01*
X126967596Y-112103690D02*
X127072358Y-112056071D01*
X127072358Y-112056071D02*
X127491406Y-112056071D01*
X126391406Y-111579880D02*
X126391406Y-112579880D01*
X125658072Y-112579880D02*
X125448548Y-112579880D01*
X125448548Y-112579880D02*
X125343786Y-112532261D01*
X125343786Y-112532261D02*
X125239024Y-112437023D01*
X125239024Y-112437023D02*
X125186643Y-112246547D01*
X125186643Y-112246547D02*
X125186643Y-111913214D01*
X125186643Y-111913214D02*
X125239024Y-111722738D01*
X125239024Y-111722738D02*
X125343786Y-111627500D01*
X125343786Y-111627500D02*
X125448548Y-111579880D01*
X125448548Y-111579880D02*
X125658072Y-111579880D01*
X125658072Y-111579880D02*
X125762834Y-111627500D01*
X125762834Y-111627500D02*
X125867596Y-111722738D01*
X125867596Y-111722738D02*
X125919977Y-111913214D01*
X125919977Y-111913214D02*
X125919977Y-112246547D01*
X125919977Y-112246547D02*
X125867596Y-112437023D01*
X125867596Y-112437023D02*
X125762834Y-112532261D01*
X125762834Y-112532261D02*
X125658072Y-112579880D01*
X124139024Y-111579880D02*
X124767596Y-111579880D01*
X124453310Y-111579880D02*
X124453310Y-112579880D01*
X124453310Y-112579880D02*
X124558072Y-112437023D01*
X124558072Y-112437023D02*
X124662834Y-112341785D01*
X124662834Y-112341785D02*
X124767596Y-112294166D01*
X123615215Y-111579880D02*
X123405691Y-111579880D01*
X123405691Y-111579880D02*
X123300929Y-111627500D01*
X123300929Y-111627500D02*
X123248548Y-111675119D01*
X123248548Y-111675119D02*
X123143786Y-111817976D01*
X123143786Y-111817976D02*
X123091405Y-112008452D01*
X123091405Y-112008452D02*
X123091405Y-112389404D01*
X123091405Y-112389404D02*
X123143786Y-112484642D01*
X123143786Y-112484642D02*
X123196167Y-112532261D01*
X123196167Y-112532261D02*
X123300929Y-112579880D01*
X123300929Y-112579880D02*
X123510453Y-112579880D01*
X123510453Y-112579880D02*
X123615215Y-112532261D01*
X123615215Y-112532261D02*
X123667596Y-112484642D01*
X123667596Y-112484642D02*
X123719977Y-112389404D01*
X123719977Y-112389404D02*
X123719977Y-112151309D01*
X123719977Y-112151309D02*
X123667596Y-112056071D01*
X123667596Y-112056071D02*
X123615215Y-112008452D01*
X123615215Y-112008452D02*
X123510453Y-111960833D01*
X123510453Y-111960833D02*
X123300929Y-111960833D01*
X123300929Y-111960833D02*
X123196167Y-112008452D01*
X123196167Y-112008452D02*
X123143786Y-112056071D01*
X123143786Y-112056071D02*
X123091405Y-112151309D01*
X128015215Y-115032261D02*
X128119977Y-115079880D01*
X128119977Y-115079880D02*
X128277120Y-115079880D01*
X128277120Y-115079880D02*
X128434263Y-115032261D01*
X128434263Y-115032261D02*
X128539025Y-114937023D01*
X128539025Y-114937023D02*
X128591406Y-114841785D01*
X128591406Y-114841785D02*
X128643787Y-114651309D01*
X128643787Y-114651309D02*
X128643787Y-114508452D01*
X128643787Y-114508452D02*
X128591406Y-114317976D01*
X128591406Y-114317976D02*
X128539025Y-114222738D01*
X128539025Y-114222738D02*
X128434263Y-114127500D01*
X128434263Y-114127500D02*
X128277120Y-114079880D01*
X128277120Y-114079880D02*
X128172358Y-114079880D01*
X128172358Y-114079880D02*
X128015215Y-114127500D01*
X128015215Y-114127500D02*
X127962834Y-114175119D01*
X127962834Y-114175119D02*
X127962834Y-114508452D01*
X127962834Y-114508452D02*
X128172358Y-114508452D01*
X127491406Y-114079880D02*
X127491406Y-115079880D01*
X127491406Y-115079880D02*
X127072358Y-115079880D01*
X127072358Y-115079880D02*
X126967596Y-115032261D01*
X126967596Y-115032261D02*
X126915215Y-114984642D01*
X126915215Y-114984642D02*
X126862834Y-114889404D01*
X126862834Y-114889404D02*
X126862834Y-114746547D01*
X126862834Y-114746547D02*
X126915215Y-114651309D01*
X126915215Y-114651309D02*
X126967596Y-114603690D01*
X126967596Y-114603690D02*
X127072358Y-114556071D01*
X127072358Y-114556071D02*
X127491406Y-114556071D01*
X126391406Y-114079880D02*
X126391406Y-115079880D01*
X125658072Y-115079880D02*
X125448548Y-115079880D01*
X125448548Y-115079880D02*
X125343786Y-115032261D01*
X125343786Y-115032261D02*
X125239024Y-114937023D01*
X125239024Y-114937023D02*
X125186643Y-114746547D01*
X125186643Y-114746547D02*
X125186643Y-114413214D01*
X125186643Y-114413214D02*
X125239024Y-114222738D01*
X125239024Y-114222738D02*
X125343786Y-114127500D01*
X125343786Y-114127500D02*
X125448548Y-114079880D01*
X125448548Y-114079880D02*
X125658072Y-114079880D01*
X125658072Y-114079880D02*
X125762834Y-114127500D01*
X125762834Y-114127500D02*
X125867596Y-114222738D01*
X125867596Y-114222738D02*
X125919977Y-114413214D01*
X125919977Y-114413214D02*
X125919977Y-114746547D01*
X125919977Y-114746547D02*
X125867596Y-114937023D01*
X125867596Y-114937023D02*
X125762834Y-115032261D01*
X125762834Y-115032261D02*
X125658072Y-115079880D01*
X124767596Y-114984642D02*
X124715215Y-115032261D01*
X124715215Y-115032261D02*
X124610453Y-115079880D01*
X124610453Y-115079880D02*
X124348548Y-115079880D01*
X124348548Y-115079880D02*
X124243786Y-115032261D01*
X124243786Y-115032261D02*
X124191405Y-114984642D01*
X124191405Y-114984642D02*
X124139024Y-114889404D01*
X124139024Y-114889404D02*
X124139024Y-114794166D01*
X124139024Y-114794166D02*
X124191405Y-114651309D01*
X124191405Y-114651309D02*
X124819977Y-114079880D01*
X124819977Y-114079880D02*
X124139024Y-114079880D01*
X123091405Y-114079880D02*
X123719977Y-114079880D01*
X123405691Y-114079880D02*
X123405691Y-115079880D01*
X123405691Y-115079880D02*
X123510453Y-114937023D01*
X123510453Y-114937023D02*
X123615215Y-114841785D01*
X123615215Y-114841785D02*
X123719977Y-114794166D01*
X128015215Y-123032261D02*
X128119977Y-123079880D01*
X128119977Y-123079880D02*
X128277120Y-123079880D01*
X128277120Y-123079880D02*
X128434263Y-123032261D01*
X128434263Y-123032261D02*
X128539025Y-122937023D01*
X128539025Y-122937023D02*
X128591406Y-122841785D01*
X128591406Y-122841785D02*
X128643787Y-122651309D01*
X128643787Y-122651309D02*
X128643787Y-122508452D01*
X128643787Y-122508452D02*
X128591406Y-122317976D01*
X128591406Y-122317976D02*
X128539025Y-122222738D01*
X128539025Y-122222738D02*
X128434263Y-122127500D01*
X128434263Y-122127500D02*
X128277120Y-122079880D01*
X128277120Y-122079880D02*
X128172358Y-122079880D01*
X128172358Y-122079880D02*
X128015215Y-122127500D01*
X128015215Y-122127500D02*
X127962834Y-122175119D01*
X127962834Y-122175119D02*
X127962834Y-122508452D01*
X127962834Y-122508452D02*
X128172358Y-122508452D01*
X127491406Y-122079880D02*
X127491406Y-123079880D01*
X127491406Y-123079880D02*
X127072358Y-123079880D01*
X127072358Y-123079880D02*
X126967596Y-123032261D01*
X126967596Y-123032261D02*
X126915215Y-122984642D01*
X126915215Y-122984642D02*
X126862834Y-122889404D01*
X126862834Y-122889404D02*
X126862834Y-122746547D01*
X126862834Y-122746547D02*
X126915215Y-122651309D01*
X126915215Y-122651309D02*
X126967596Y-122603690D01*
X126967596Y-122603690D02*
X127072358Y-122556071D01*
X127072358Y-122556071D02*
X127491406Y-122556071D01*
X126391406Y-122079880D02*
X126391406Y-123079880D01*
X125658072Y-123079880D02*
X125448548Y-123079880D01*
X125448548Y-123079880D02*
X125343786Y-123032261D01*
X125343786Y-123032261D02*
X125239024Y-122937023D01*
X125239024Y-122937023D02*
X125186643Y-122746547D01*
X125186643Y-122746547D02*
X125186643Y-122413214D01*
X125186643Y-122413214D02*
X125239024Y-122222738D01*
X125239024Y-122222738D02*
X125343786Y-122127500D01*
X125343786Y-122127500D02*
X125448548Y-122079880D01*
X125448548Y-122079880D02*
X125658072Y-122079880D01*
X125658072Y-122079880D02*
X125762834Y-122127500D01*
X125762834Y-122127500D02*
X125867596Y-122222738D01*
X125867596Y-122222738D02*
X125919977Y-122413214D01*
X125919977Y-122413214D02*
X125919977Y-122746547D01*
X125919977Y-122746547D02*
X125867596Y-122937023D01*
X125867596Y-122937023D02*
X125762834Y-123032261D01*
X125762834Y-123032261D02*
X125658072Y-123079880D01*
X124767596Y-122984642D02*
X124715215Y-123032261D01*
X124715215Y-123032261D02*
X124610453Y-123079880D01*
X124610453Y-123079880D02*
X124348548Y-123079880D01*
X124348548Y-123079880D02*
X124243786Y-123032261D01*
X124243786Y-123032261D02*
X124191405Y-122984642D01*
X124191405Y-122984642D02*
X124139024Y-122889404D01*
X124139024Y-122889404D02*
X124139024Y-122794166D01*
X124139024Y-122794166D02*
X124191405Y-122651309D01*
X124191405Y-122651309D02*
X124819977Y-122079880D01*
X124819977Y-122079880D02*
X124139024Y-122079880D01*
X123719977Y-122984642D02*
X123667596Y-123032261D01*
X123667596Y-123032261D02*
X123562834Y-123079880D01*
X123562834Y-123079880D02*
X123300929Y-123079880D01*
X123300929Y-123079880D02*
X123196167Y-123032261D01*
X123196167Y-123032261D02*
X123143786Y-122984642D01*
X123143786Y-122984642D02*
X123091405Y-122889404D01*
X123091405Y-122889404D02*
X123091405Y-122794166D01*
X123091405Y-122794166D02*
X123143786Y-122651309D01*
X123143786Y-122651309D02*
X123772358Y-122079880D01*
X123772358Y-122079880D02*
X123091405Y-122079880D01*
X128015215Y-125532261D02*
X128119977Y-125579880D01*
X128119977Y-125579880D02*
X128277120Y-125579880D01*
X128277120Y-125579880D02*
X128434263Y-125532261D01*
X128434263Y-125532261D02*
X128539025Y-125437023D01*
X128539025Y-125437023D02*
X128591406Y-125341785D01*
X128591406Y-125341785D02*
X128643787Y-125151309D01*
X128643787Y-125151309D02*
X128643787Y-125008452D01*
X128643787Y-125008452D02*
X128591406Y-124817976D01*
X128591406Y-124817976D02*
X128539025Y-124722738D01*
X128539025Y-124722738D02*
X128434263Y-124627500D01*
X128434263Y-124627500D02*
X128277120Y-124579880D01*
X128277120Y-124579880D02*
X128172358Y-124579880D01*
X128172358Y-124579880D02*
X128015215Y-124627500D01*
X128015215Y-124627500D02*
X127962834Y-124675119D01*
X127962834Y-124675119D02*
X127962834Y-125008452D01*
X127962834Y-125008452D02*
X128172358Y-125008452D01*
X127491406Y-124579880D02*
X127491406Y-125579880D01*
X127491406Y-125579880D02*
X127072358Y-125579880D01*
X127072358Y-125579880D02*
X126967596Y-125532261D01*
X126967596Y-125532261D02*
X126915215Y-125484642D01*
X126915215Y-125484642D02*
X126862834Y-125389404D01*
X126862834Y-125389404D02*
X126862834Y-125246547D01*
X126862834Y-125246547D02*
X126915215Y-125151309D01*
X126915215Y-125151309D02*
X126967596Y-125103690D01*
X126967596Y-125103690D02*
X127072358Y-125056071D01*
X127072358Y-125056071D02*
X127491406Y-125056071D01*
X126391406Y-124579880D02*
X126391406Y-125579880D01*
X125658072Y-125579880D02*
X125448548Y-125579880D01*
X125448548Y-125579880D02*
X125343786Y-125532261D01*
X125343786Y-125532261D02*
X125239024Y-125437023D01*
X125239024Y-125437023D02*
X125186643Y-125246547D01*
X125186643Y-125246547D02*
X125186643Y-124913214D01*
X125186643Y-124913214D02*
X125239024Y-124722738D01*
X125239024Y-124722738D02*
X125343786Y-124627500D01*
X125343786Y-124627500D02*
X125448548Y-124579880D01*
X125448548Y-124579880D02*
X125658072Y-124579880D01*
X125658072Y-124579880D02*
X125762834Y-124627500D01*
X125762834Y-124627500D02*
X125867596Y-124722738D01*
X125867596Y-124722738D02*
X125919977Y-124913214D01*
X125919977Y-124913214D02*
X125919977Y-125246547D01*
X125919977Y-125246547D02*
X125867596Y-125437023D01*
X125867596Y-125437023D02*
X125762834Y-125532261D01*
X125762834Y-125532261D02*
X125658072Y-125579880D01*
X124767596Y-125484642D02*
X124715215Y-125532261D01*
X124715215Y-125532261D02*
X124610453Y-125579880D01*
X124610453Y-125579880D02*
X124348548Y-125579880D01*
X124348548Y-125579880D02*
X124243786Y-125532261D01*
X124243786Y-125532261D02*
X124191405Y-125484642D01*
X124191405Y-125484642D02*
X124139024Y-125389404D01*
X124139024Y-125389404D02*
X124139024Y-125294166D01*
X124139024Y-125294166D02*
X124191405Y-125151309D01*
X124191405Y-125151309D02*
X124819977Y-124579880D01*
X124819977Y-124579880D02*
X124139024Y-124579880D01*
X123772358Y-125579880D02*
X123091405Y-125579880D01*
X123091405Y-125579880D02*
X123458072Y-125198928D01*
X123458072Y-125198928D02*
X123300929Y-125198928D01*
X123300929Y-125198928D02*
X123196167Y-125151309D01*
X123196167Y-125151309D02*
X123143786Y-125103690D01*
X123143786Y-125103690D02*
X123091405Y-125008452D01*
X123091405Y-125008452D02*
X123091405Y-124770357D01*
X123091405Y-124770357D02*
X123143786Y-124675119D01*
X123143786Y-124675119D02*
X123196167Y-124627500D01*
X123196167Y-124627500D02*
X123300929Y-124579880D01*
X123300929Y-124579880D02*
X123615215Y-124579880D01*
X123615215Y-124579880D02*
X123719977Y-124627500D01*
X123719977Y-124627500D02*
X123772358Y-124675119D01*
X135615215Y-83079880D02*
X135615215Y-82270357D01*
X135615215Y-82270357D02*
X135567596Y-82175119D01*
X135567596Y-82175119D02*
X135519977Y-82127500D01*
X135519977Y-82127500D02*
X135424739Y-82079880D01*
X135424739Y-82079880D02*
X135234263Y-82079880D01*
X135234263Y-82079880D02*
X135139025Y-82127500D01*
X135139025Y-82127500D02*
X135091406Y-82175119D01*
X135091406Y-82175119D02*
X135043787Y-82270357D01*
X135043787Y-82270357D02*
X135043787Y-83079880D01*
X134615215Y-82127500D02*
X134472358Y-82079880D01*
X134472358Y-82079880D02*
X134234263Y-82079880D01*
X134234263Y-82079880D02*
X134139025Y-82127500D01*
X134139025Y-82127500D02*
X134091406Y-82175119D01*
X134091406Y-82175119D02*
X134043787Y-82270357D01*
X134043787Y-82270357D02*
X134043787Y-82365595D01*
X134043787Y-82365595D02*
X134091406Y-82460833D01*
X134091406Y-82460833D02*
X134139025Y-82508452D01*
X134139025Y-82508452D02*
X134234263Y-82556071D01*
X134234263Y-82556071D02*
X134424739Y-82603690D01*
X134424739Y-82603690D02*
X134519977Y-82651309D01*
X134519977Y-82651309D02*
X134567596Y-82698928D01*
X134567596Y-82698928D02*
X134615215Y-82794166D01*
X134615215Y-82794166D02*
X134615215Y-82889404D01*
X134615215Y-82889404D02*
X134567596Y-82984642D01*
X134567596Y-82984642D02*
X134519977Y-83032261D01*
X134519977Y-83032261D02*
X134424739Y-83079880D01*
X134424739Y-83079880D02*
X134186644Y-83079880D01*
X134186644Y-83079880D02*
X134043787Y-83032261D01*
X133281882Y-82603690D02*
X133139025Y-82556071D01*
X133139025Y-82556071D02*
X133091406Y-82508452D01*
X133091406Y-82508452D02*
X133043787Y-82413214D01*
X133043787Y-82413214D02*
X133043787Y-82270357D01*
X133043787Y-82270357D02*
X133091406Y-82175119D01*
X133091406Y-82175119D02*
X133139025Y-82127500D01*
X133139025Y-82127500D02*
X133234263Y-82079880D01*
X133234263Y-82079880D02*
X133615215Y-82079880D01*
X133615215Y-82079880D02*
X133615215Y-83079880D01*
X133615215Y-83079880D02*
X133281882Y-83079880D01*
X133281882Y-83079880D02*
X133186644Y-83032261D01*
X133186644Y-83032261D02*
X133139025Y-82984642D01*
X133139025Y-82984642D02*
X133091406Y-82889404D01*
X133091406Y-82889404D02*
X133091406Y-82794166D01*
X133091406Y-82794166D02*
X133139025Y-82698928D01*
X133139025Y-82698928D02*
X133186644Y-82651309D01*
X133186644Y-82651309D02*
X133281882Y-82603690D01*
X133281882Y-82603690D02*
X133615215Y-82603690D01*
X145748549Y-90079880D02*
X145381882Y-89079880D01*
X145381882Y-89079880D02*
X145015215Y-90079880D01*
X144648549Y-89079880D02*
X144648549Y-90079880D01*
X144124739Y-89079880D02*
X144124739Y-90079880D01*
X144124739Y-90079880D02*
X143496167Y-89079880D01*
X143496167Y-89079880D02*
X143496167Y-90079880D01*
X145515215Y-92532261D02*
X145619977Y-92579880D01*
X145619977Y-92579880D02*
X145777120Y-92579880D01*
X145777120Y-92579880D02*
X145934263Y-92532261D01*
X145934263Y-92532261D02*
X146039025Y-92437023D01*
X146039025Y-92437023D02*
X146091406Y-92341785D01*
X146091406Y-92341785D02*
X146143787Y-92151309D01*
X146143787Y-92151309D02*
X146143787Y-92008452D01*
X146143787Y-92008452D02*
X146091406Y-91817976D01*
X146091406Y-91817976D02*
X146039025Y-91722738D01*
X146039025Y-91722738D02*
X145934263Y-91627500D01*
X145934263Y-91627500D02*
X145777120Y-91579880D01*
X145777120Y-91579880D02*
X145672358Y-91579880D01*
X145672358Y-91579880D02*
X145515215Y-91627500D01*
X145515215Y-91627500D02*
X145462834Y-91675119D01*
X145462834Y-91675119D02*
X145462834Y-92008452D01*
X145462834Y-92008452D02*
X145672358Y-92008452D01*
X144991406Y-91579880D02*
X144991406Y-92579880D01*
X144991406Y-92579880D02*
X144362834Y-91579880D01*
X144362834Y-91579880D02*
X144362834Y-92579880D01*
X143839025Y-91579880D02*
X143839025Y-92579880D01*
X143839025Y-92579880D02*
X143577120Y-92579880D01*
X143577120Y-92579880D02*
X143419977Y-92532261D01*
X143419977Y-92532261D02*
X143315215Y-92437023D01*
X143315215Y-92437023D02*
X143262834Y-92341785D01*
X143262834Y-92341785D02*
X143210453Y-92151309D01*
X143210453Y-92151309D02*
X143210453Y-92008452D01*
X143210453Y-92008452D02*
X143262834Y-91817976D01*
X143262834Y-91817976D02*
X143315215Y-91722738D01*
X143315215Y-91722738D02*
X143419977Y-91627500D01*
X143419977Y-91627500D02*
X143577120Y-91579880D01*
X143577120Y-91579880D02*
X143839025Y-91579880D01*
X145515215Y-95032261D02*
X145619977Y-95079880D01*
X145619977Y-95079880D02*
X145777120Y-95079880D01*
X145777120Y-95079880D02*
X145934263Y-95032261D01*
X145934263Y-95032261D02*
X146039025Y-94937023D01*
X146039025Y-94937023D02*
X146091406Y-94841785D01*
X146091406Y-94841785D02*
X146143787Y-94651309D01*
X146143787Y-94651309D02*
X146143787Y-94508452D01*
X146143787Y-94508452D02*
X146091406Y-94317976D01*
X146091406Y-94317976D02*
X146039025Y-94222738D01*
X146039025Y-94222738D02*
X145934263Y-94127500D01*
X145934263Y-94127500D02*
X145777120Y-94079880D01*
X145777120Y-94079880D02*
X145672358Y-94079880D01*
X145672358Y-94079880D02*
X145515215Y-94127500D01*
X145515215Y-94127500D02*
X145462834Y-94175119D01*
X145462834Y-94175119D02*
X145462834Y-94508452D01*
X145462834Y-94508452D02*
X145672358Y-94508452D01*
X144991406Y-94079880D02*
X144991406Y-95079880D01*
X144991406Y-95079880D02*
X144572358Y-95079880D01*
X144572358Y-95079880D02*
X144467596Y-95032261D01*
X144467596Y-95032261D02*
X144415215Y-94984642D01*
X144415215Y-94984642D02*
X144362834Y-94889404D01*
X144362834Y-94889404D02*
X144362834Y-94746547D01*
X144362834Y-94746547D02*
X144415215Y-94651309D01*
X144415215Y-94651309D02*
X144467596Y-94603690D01*
X144467596Y-94603690D02*
X144572358Y-94556071D01*
X144572358Y-94556071D02*
X144991406Y-94556071D01*
X143891406Y-94079880D02*
X143891406Y-95079880D01*
X143158072Y-95079880D02*
X142948548Y-95079880D01*
X142948548Y-95079880D02*
X142843786Y-95032261D01*
X142843786Y-95032261D02*
X142739024Y-94937023D01*
X142739024Y-94937023D02*
X142686643Y-94746547D01*
X142686643Y-94746547D02*
X142686643Y-94413214D01*
X142686643Y-94413214D02*
X142739024Y-94222738D01*
X142739024Y-94222738D02*
X142843786Y-94127500D01*
X142843786Y-94127500D02*
X142948548Y-94079880D01*
X142948548Y-94079880D02*
X143158072Y-94079880D01*
X143158072Y-94079880D02*
X143262834Y-94127500D01*
X143262834Y-94127500D02*
X143367596Y-94222738D01*
X143367596Y-94222738D02*
X143419977Y-94413214D01*
X143419977Y-94413214D02*
X143419977Y-94746547D01*
X143419977Y-94746547D02*
X143367596Y-94937023D01*
X143367596Y-94937023D02*
X143262834Y-95032261D01*
X143262834Y-95032261D02*
X143158072Y-95079880D01*
X141639024Y-94079880D02*
X142267596Y-94079880D01*
X141953310Y-94079880D02*
X141953310Y-95079880D01*
X141953310Y-95079880D02*
X142058072Y-94937023D01*
X142058072Y-94937023D02*
X142162834Y-94841785D01*
X142162834Y-94841785D02*
X142267596Y-94794166D01*
X141272358Y-95079880D02*
X140591405Y-95079880D01*
X140591405Y-95079880D02*
X140958072Y-94698928D01*
X140958072Y-94698928D02*
X140800929Y-94698928D01*
X140800929Y-94698928D02*
X140696167Y-94651309D01*
X140696167Y-94651309D02*
X140643786Y-94603690D01*
X140643786Y-94603690D02*
X140591405Y-94508452D01*
X140591405Y-94508452D02*
X140591405Y-94270357D01*
X140591405Y-94270357D02*
X140643786Y-94175119D01*
X140643786Y-94175119D02*
X140696167Y-94127500D01*
X140696167Y-94127500D02*
X140800929Y-94079880D01*
X140800929Y-94079880D02*
X141115215Y-94079880D01*
X141115215Y-94079880D02*
X141219977Y-94127500D01*
X141219977Y-94127500D02*
X141272358Y-94175119D01*
X145515215Y-97532261D02*
X145619977Y-97579880D01*
X145619977Y-97579880D02*
X145777120Y-97579880D01*
X145777120Y-97579880D02*
X145934263Y-97532261D01*
X145934263Y-97532261D02*
X146039025Y-97437023D01*
X146039025Y-97437023D02*
X146091406Y-97341785D01*
X146091406Y-97341785D02*
X146143787Y-97151309D01*
X146143787Y-97151309D02*
X146143787Y-97008452D01*
X146143787Y-97008452D02*
X146091406Y-96817976D01*
X146091406Y-96817976D02*
X146039025Y-96722738D01*
X146039025Y-96722738D02*
X145934263Y-96627500D01*
X145934263Y-96627500D02*
X145777120Y-96579880D01*
X145777120Y-96579880D02*
X145672358Y-96579880D01*
X145672358Y-96579880D02*
X145515215Y-96627500D01*
X145515215Y-96627500D02*
X145462834Y-96675119D01*
X145462834Y-96675119D02*
X145462834Y-97008452D01*
X145462834Y-97008452D02*
X145672358Y-97008452D01*
X144991406Y-96579880D02*
X144991406Y-97579880D01*
X144991406Y-97579880D02*
X144572358Y-97579880D01*
X144572358Y-97579880D02*
X144467596Y-97532261D01*
X144467596Y-97532261D02*
X144415215Y-97484642D01*
X144415215Y-97484642D02*
X144362834Y-97389404D01*
X144362834Y-97389404D02*
X144362834Y-97246547D01*
X144362834Y-97246547D02*
X144415215Y-97151309D01*
X144415215Y-97151309D02*
X144467596Y-97103690D01*
X144467596Y-97103690D02*
X144572358Y-97056071D01*
X144572358Y-97056071D02*
X144991406Y-97056071D01*
X143891406Y-96579880D02*
X143891406Y-97579880D01*
X143158072Y-97579880D02*
X142948548Y-97579880D01*
X142948548Y-97579880D02*
X142843786Y-97532261D01*
X142843786Y-97532261D02*
X142739024Y-97437023D01*
X142739024Y-97437023D02*
X142686643Y-97246547D01*
X142686643Y-97246547D02*
X142686643Y-96913214D01*
X142686643Y-96913214D02*
X142739024Y-96722738D01*
X142739024Y-96722738D02*
X142843786Y-96627500D01*
X142843786Y-96627500D02*
X142948548Y-96579880D01*
X142948548Y-96579880D02*
X143158072Y-96579880D01*
X143158072Y-96579880D02*
X143262834Y-96627500D01*
X143262834Y-96627500D02*
X143367596Y-96722738D01*
X143367596Y-96722738D02*
X143419977Y-96913214D01*
X143419977Y-96913214D02*
X143419977Y-97246547D01*
X143419977Y-97246547D02*
X143367596Y-97437023D01*
X143367596Y-97437023D02*
X143262834Y-97532261D01*
X143262834Y-97532261D02*
X143158072Y-97579880D01*
X141639024Y-96579880D02*
X142267596Y-96579880D01*
X141953310Y-96579880D02*
X141953310Y-97579880D01*
X141953310Y-97579880D02*
X142058072Y-97437023D01*
X142058072Y-97437023D02*
X142162834Y-97341785D01*
X142162834Y-97341785D02*
X142267596Y-97294166D01*
X141219977Y-97484642D02*
X141167596Y-97532261D01*
X141167596Y-97532261D02*
X141062834Y-97579880D01*
X141062834Y-97579880D02*
X140800929Y-97579880D01*
X140800929Y-97579880D02*
X140696167Y-97532261D01*
X140696167Y-97532261D02*
X140643786Y-97484642D01*
X140643786Y-97484642D02*
X140591405Y-97389404D01*
X140591405Y-97389404D02*
X140591405Y-97294166D01*
X140591405Y-97294166D02*
X140643786Y-97151309D01*
X140643786Y-97151309D02*
X141272358Y-96579880D01*
X141272358Y-96579880D02*
X140591405Y-96579880D01*
X145515215Y-100032261D02*
X145619977Y-100079880D01*
X145619977Y-100079880D02*
X145777120Y-100079880D01*
X145777120Y-100079880D02*
X145934263Y-100032261D01*
X145934263Y-100032261D02*
X146039025Y-99937023D01*
X146039025Y-99937023D02*
X146091406Y-99841785D01*
X146091406Y-99841785D02*
X146143787Y-99651309D01*
X146143787Y-99651309D02*
X146143787Y-99508452D01*
X146143787Y-99508452D02*
X146091406Y-99317976D01*
X146091406Y-99317976D02*
X146039025Y-99222738D01*
X146039025Y-99222738D02*
X145934263Y-99127500D01*
X145934263Y-99127500D02*
X145777120Y-99079880D01*
X145777120Y-99079880D02*
X145672358Y-99079880D01*
X145672358Y-99079880D02*
X145515215Y-99127500D01*
X145515215Y-99127500D02*
X145462834Y-99175119D01*
X145462834Y-99175119D02*
X145462834Y-99508452D01*
X145462834Y-99508452D02*
X145672358Y-99508452D01*
X144991406Y-99079880D02*
X144991406Y-100079880D01*
X144991406Y-100079880D02*
X144572358Y-100079880D01*
X144572358Y-100079880D02*
X144467596Y-100032261D01*
X144467596Y-100032261D02*
X144415215Y-99984642D01*
X144415215Y-99984642D02*
X144362834Y-99889404D01*
X144362834Y-99889404D02*
X144362834Y-99746547D01*
X144362834Y-99746547D02*
X144415215Y-99651309D01*
X144415215Y-99651309D02*
X144467596Y-99603690D01*
X144467596Y-99603690D02*
X144572358Y-99556071D01*
X144572358Y-99556071D02*
X144991406Y-99556071D01*
X143891406Y-99079880D02*
X143891406Y-100079880D01*
X143158072Y-100079880D02*
X142948548Y-100079880D01*
X142948548Y-100079880D02*
X142843786Y-100032261D01*
X142843786Y-100032261D02*
X142739024Y-99937023D01*
X142739024Y-99937023D02*
X142686643Y-99746547D01*
X142686643Y-99746547D02*
X142686643Y-99413214D01*
X142686643Y-99413214D02*
X142739024Y-99222738D01*
X142739024Y-99222738D02*
X142843786Y-99127500D01*
X142843786Y-99127500D02*
X142948548Y-99079880D01*
X142948548Y-99079880D02*
X143158072Y-99079880D01*
X143158072Y-99079880D02*
X143262834Y-99127500D01*
X143262834Y-99127500D02*
X143367596Y-99222738D01*
X143367596Y-99222738D02*
X143419977Y-99413214D01*
X143419977Y-99413214D02*
X143419977Y-99746547D01*
X143419977Y-99746547D02*
X143367596Y-99937023D01*
X143367596Y-99937023D02*
X143262834Y-100032261D01*
X143262834Y-100032261D02*
X143158072Y-100079880D01*
X141639024Y-99079880D02*
X142267596Y-99079880D01*
X141953310Y-99079880D02*
X141953310Y-100079880D01*
X141953310Y-100079880D02*
X142058072Y-99937023D01*
X142058072Y-99937023D02*
X142162834Y-99841785D01*
X142162834Y-99841785D02*
X142267596Y-99794166D01*
X140696167Y-99746547D02*
X140696167Y-99079880D01*
X140958072Y-100127500D02*
X141219977Y-99413214D01*
X141219977Y-99413214D02*
X140539024Y-99413214D01*
X145515215Y-102532261D02*
X145619977Y-102579880D01*
X145619977Y-102579880D02*
X145777120Y-102579880D01*
X145777120Y-102579880D02*
X145934263Y-102532261D01*
X145934263Y-102532261D02*
X146039025Y-102437023D01*
X146039025Y-102437023D02*
X146091406Y-102341785D01*
X146091406Y-102341785D02*
X146143787Y-102151309D01*
X146143787Y-102151309D02*
X146143787Y-102008452D01*
X146143787Y-102008452D02*
X146091406Y-101817976D01*
X146091406Y-101817976D02*
X146039025Y-101722738D01*
X146039025Y-101722738D02*
X145934263Y-101627500D01*
X145934263Y-101627500D02*
X145777120Y-101579880D01*
X145777120Y-101579880D02*
X145672358Y-101579880D01*
X145672358Y-101579880D02*
X145515215Y-101627500D01*
X145515215Y-101627500D02*
X145462834Y-101675119D01*
X145462834Y-101675119D02*
X145462834Y-102008452D01*
X145462834Y-102008452D02*
X145672358Y-102008452D01*
X144991406Y-101579880D02*
X144991406Y-102579880D01*
X144991406Y-102579880D02*
X144572358Y-102579880D01*
X144572358Y-102579880D02*
X144467596Y-102532261D01*
X144467596Y-102532261D02*
X144415215Y-102484642D01*
X144415215Y-102484642D02*
X144362834Y-102389404D01*
X144362834Y-102389404D02*
X144362834Y-102246547D01*
X144362834Y-102246547D02*
X144415215Y-102151309D01*
X144415215Y-102151309D02*
X144467596Y-102103690D01*
X144467596Y-102103690D02*
X144572358Y-102056071D01*
X144572358Y-102056071D02*
X144991406Y-102056071D01*
X143891406Y-101579880D02*
X143891406Y-102579880D01*
X143158072Y-102579880D02*
X142948548Y-102579880D01*
X142948548Y-102579880D02*
X142843786Y-102532261D01*
X142843786Y-102532261D02*
X142739024Y-102437023D01*
X142739024Y-102437023D02*
X142686643Y-102246547D01*
X142686643Y-102246547D02*
X142686643Y-101913214D01*
X142686643Y-101913214D02*
X142739024Y-101722738D01*
X142739024Y-101722738D02*
X142843786Y-101627500D01*
X142843786Y-101627500D02*
X142948548Y-101579880D01*
X142948548Y-101579880D02*
X143158072Y-101579880D01*
X143158072Y-101579880D02*
X143262834Y-101627500D01*
X143262834Y-101627500D02*
X143367596Y-101722738D01*
X143367596Y-101722738D02*
X143419977Y-101913214D01*
X143419977Y-101913214D02*
X143419977Y-102246547D01*
X143419977Y-102246547D02*
X143367596Y-102437023D01*
X143367596Y-102437023D02*
X143262834Y-102532261D01*
X143262834Y-102532261D02*
X143158072Y-102579880D01*
X142267596Y-102484642D02*
X142215215Y-102532261D01*
X142215215Y-102532261D02*
X142110453Y-102579880D01*
X142110453Y-102579880D02*
X141848548Y-102579880D01*
X141848548Y-102579880D02*
X141743786Y-102532261D01*
X141743786Y-102532261D02*
X141691405Y-102484642D01*
X141691405Y-102484642D02*
X141639024Y-102389404D01*
X141639024Y-102389404D02*
X141639024Y-102294166D01*
X141639024Y-102294166D02*
X141691405Y-102151309D01*
X141691405Y-102151309D02*
X142319977Y-101579880D01*
X142319977Y-101579880D02*
X141639024Y-101579880D01*
X141272358Y-102579880D02*
X140539024Y-102579880D01*
X140539024Y-102579880D02*
X141010453Y-101579880D01*
X145515215Y-105032261D02*
X145619977Y-105079880D01*
X145619977Y-105079880D02*
X145777120Y-105079880D01*
X145777120Y-105079880D02*
X145934263Y-105032261D01*
X145934263Y-105032261D02*
X146039025Y-104937023D01*
X146039025Y-104937023D02*
X146091406Y-104841785D01*
X146091406Y-104841785D02*
X146143787Y-104651309D01*
X146143787Y-104651309D02*
X146143787Y-104508452D01*
X146143787Y-104508452D02*
X146091406Y-104317976D01*
X146091406Y-104317976D02*
X146039025Y-104222738D01*
X146039025Y-104222738D02*
X145934263Y-104127500D01*
X145934263Y-104127500D02*
X145777120Y-104079880D01*
X145777120Y-104079880D02*
X145672358Y-104079880D01*
X145672358Y-104079880D02*
X145515215Y-104127500D01*
X145515215Y-104127500D02*
X145462834Y-104175119D01*
X145462834Y-104175119D02*
X145462834Y-104508452D01*
X145462834Y-104508452D02*
X145672358Y-104508452D01*
X144991406Y-104079880D02*
X144991406Y-105079880D01*
X144991406Y-105079880D02*
X144572358Y-105079880D01*
X144572358Y-105079880D02*
X144467596Y-105032261D01*
X144467596Y-105032261D02*
X144415215Y-104984642D01*
X144415215Y-104984642D02*
X144362834Y-104889404D01*
X144362834Y-104889404D02*
X144362834Y-104746547D01*
X144362834Y-104746547D02*
X144415215Y-104651309D01*
X144415215Y-104651309D02*
X144467596Y-104603690D01*
X144467596Y-104603690D02*
X144572358Y-104556071D01*
X144572358Y-104556071D02*
X144991406Y-104556071D01*
X143891406Y-104079880D02*
X143891406Y-105079880D01*
X143158072Y-105079880D02*
X142948548Y-105079880D01*
X142948548Y-105079880D02*
X142843786Y-105032261D01*
X142843786Y-105032261D02*
X142739024Y-104937023D01*
X142739024Y-104937023D02*
X142686643Y-104746547D01*
X142686643Y-104746547D02*
X142686643Y-104413214D01*
X142686643Y-104413214D02*
X142739024Y-104222738D01*
X142739024Y-104222738D02*
X142843786Y-104127500D01*
X142843786Y-104127500D02*
X142948548Y-104079880D01*
X142948548Y-104079880D02*
X143158072Y-104079880D01*
X143158072Y-104079880D02*
X143262834Y-104127500D01*
X143262834Y-104127500D02*
X143367596Y-104222738D01*
X143367596Y-104222738D02*
X143419977Y-104413214D01*
X143419977Y-104413214D02*
X143419977Y-104746547D01*
X143419977Y-104746547D02*
X143367596Y-104937023D01*
X143367596Y-104937023D02*
X143262834Y-105032261D01*
X143262834Y-105032261D02*
X143158072Y-105079880D01*
X142267596Y-104984642D02*
X142215215Y-105032261D01*
X142215215Y-105032261D02*
X142110453Y-105079880D01*
X142110453Y-105079880D02*
X141848548Y-105079880D01*
X141848548Y-105079880D02*
X141743786Y-105032261D01*
X141743786Y-105032261D02*
X141691405Y-104984642D01*
X141691405Y-104984642D02*
X141639024Y-104889404D01*
X141639024Y-104889404D02*
X141639024Y-104794166D01*
X141639024Y-104794166D02*
X141691405Y-104651309D01*
X141691405Y-104651309D02*
X142319977Y-104079880D01*
X142319977Y-104079880D02*
X141639024Y-104079880D01*
X140696167Y-105079880D02*
X140905691Y-105079880D01*
X140905691Y-105079880D02*
X141010453Y-105032261D01*
X141010453Y-105032261D02*
X141062834Y-104984642D01*
X141062834Y-104984642D02*
X141167596Y-104841785D01*
X141167596Y-104841785D02*
X141219977Y-104651309D01*
X141219977Y-104651309D02*
X141219977Y-104270357D01*
X141219977Y-104270357D02*
X141167596Y-104175119D01*
X141167596Y-104175119D02*
X141115215Y-104127500D01*
X141115215Y-104127500D02*
X141010453Y-104079880D01*
X141010453Y-104079880D02*
X140800929Y-104079880D01*
X140800929Y-104079880D02*
X140696167Y-104127500D01*
X140696167Y-104127500D02*
X140643786Y-104175119D01*
X140643786Y-104175119D02*
X140591405Y-104270357D01*
X140591405Y-104270357D02*
X140591405Y-104508452D01*
X140591405Y-104508452D02*
X140643786Y-104603690D01*
X140643786Y-104603690D02*
X140696167Y-104651309D01*
X140696167Y-104651309D02*
X140800929Y-104698928D01*
X140800929Y-104698928D02*
X141010453Y-104698928D01*
X141010453Y-104698928D02*
X141115215Y-104651309D01*
X141115215Y-104651309D02*
X141167596Y-104603690D01*
X141167596Y-104603690D02*
X141219977Y-104508452D01*
X145515215Y-107532261D02*
X145619977Y-107579880D01*
X145619977Y-107579880D02*
X145777120Y-107579880D01*
X145777120Y-107579880D02*
X145934263Y-107532261D01*
X145934263Y-107532261D02*
X146039025Y-107437023D01*
X146039025Y-107437023D02*
X146091406Y-107341785D01*
X146091406Y-107341785D02*
X146143787Y-107151309D01*
X146143787Y-107151309D02*
X146143787Y-107008452D01*
X146143787Y-107008452D02*
X146091406Y-106817976D01*
X146091406Y-106817976D02*
X146039025Y-106722738D01*
X146039025Y-106722738D02*
X145934263Y-106627500D01*
X145934263Y-106627500D02*
X145777120Y-106579880D01*
X145777120Y-106579880D02*
X145672358Y-106579880D01*
X145672358Y-106579880D02*
X145515215Y-106627500D01*
X145515215Y-106627500D02*
X145462834Y-106675119D01*
X145462834Y-106675119D02*
X145462834Y-107008452D01*
X145462834Y-107008452D02*
X145672358Y-107008452D01*
X144991406Y-106579880D02*
X144991406Y-107579880D01*
X144991406Y-107579880D02*
X144572358Y-107579880D01*
X144572358Y-107579880D02*
X144467596Y-107532261D01*
X144467596Y-107532261D02*
X144415215Y-107484642D01*
X144415215Y-107484642D02*
X144362834Y-107389404D01*
X144362834Y-107389404D02*
X144362834Y-107246547D01*
X144362834Y-107246547D02*
X144415215Y-107151309D01*
X144415215Y-107151309D02*
X144467596Y-107103690D01*
X144467596Y-107103690D02*
X144572358Y-107056071D01*
X144572358Y-107056071D02*
X144991406Y-107056071D01*
X143891406Y-106579880D02*
X143891406Y-107579880D01*
X143158072Y-107579880D02*
X142948548Y-107579880D01*
X142948548Y-107579880D02*
X142843786Y-107532261D01*
X142843786Y-107532261D02*
X142739024Y-107437023D01*
X142739024Y-107437023D02*
X142686643Y-107246547D01*
X142686643Y-107246547D02*
X142686643Y-106913214D01*
X142686643Y-106913214D02*
X142739024Y-106722738D01*
X142739024Y-106722738D02*
X142843786Y-106627500D01*
X142843786Y-106627500D02*
X142948548Y-106579880D01*
X142948548Y-106579880D02*
X143158072Y-106579880D01*
X143158072Y-106579880D02*
X143262834Y-106627500D01*
X143262834Y-106627500D02*
X143367596Y-106722738D01*
X143367596Y-106722738D02*
X143419977Y-106913214D01*
X143419977Y-106913214D02*
X143419977Y-107246547D01*
X143419977Y-107246547D02*
X143367596Y-107437023D01*
X143367596Y-107437023D02*
X143262834Y-107532261D01*
X143262834Y-107532261D02*
X143158072Y-107579880D01*
X142267596Y-107484642D02*
X142215215Y-107532261D01*
X142215215Y-107532261D02*
X142110453Y-107579880D01*
X142110453Y-107579880D02*
X141848548Y-107579880D01*
X141848548Y-107579880D02*
X141743786Y-107532261D01*
X141743786Y-107532261D02*
X141691405Y-107484642D01*
X141691405Y-107484642D02*
X141639024Y-107389404D01*
X141639024Y-107389404D02*
X141639024Y-107294166D01*
X141639024Y-107294166D02*
X141691405Y-107151309D01*
X141691405Y-107151309D02*
X142319977Y-106579880D01*
X142319977Y-106579880D02*
X141639024Y-106579880D01*
X140643786Y-107579880D02*
X141167596Y-107579880D01*
X141167596Y-107579880D02*
X141219977Y-107103690D01*
X141219977Y-107103690D02*
X141167596Y-107151309D01*
X141167596Y-107151309D02*
X141062834Y-107198928D01*
X141062834Y-107198928D02*
X140800929Y-107198928D01*
X140800929Y-107198928D02*
X140696167Y-107151309D01*
X140696167Y-107151309D02*
X140643786Y-107103690D01*
X140643786Y-107103690D02*
X140591405Y-107008452D01*
X140591405Y-107008452D02*
X140591405Y-106770357D01*
X140591405Y-106770357D02*
X140643786Y-106675119D01*
X140643786Y-106675119D02*
X140696167Y-106627500D01*
X140696167Y-106627500D02*
X140800929Y-106579880D01*
X140800929Y-106579880D02*
X141062834Y-106579880D01*
X141062834Y-106579880D02*
X141167596Y-106627500D01*
X141167596Y-106627500D02*
X141219977Y-106675119D01*
X145515215Y-110032261D02*
X145619977Y-110079880D01*
X145619977Y-110079880D02*
X145777120Y-110079880D01*
X145777120Y-110079880D02*
X145934263Y-110032261D01*
X145934263Y-110032261D02*
X146039025Y-109937023D01*
X146039025Y-109937023D02*
X146091406Y-109841785D01*
X146091406Y-109841785D02*
X146143787Y-109651309D01*
X146143787Y-109651309D02*
X146143787Y-109508452D01*
X146143787Y-109508452D02*
X146091406Y-109317976D01*
X146091406Y-109317976D02*
X146039025Y-109222738D01*
X146039025Y-109222738D02*
X145934263Y-109127500D01*
X145934263Y-109127500D02*
X145777120Y-109079880D01*
X145777120Y-109079880D02*
X145672358Y-109079880D01*
X145672358Y-109079880D02*
X145515215Y-109127500D01*
X145515215Y-109127500D02*
X145462834Y-109175119D01*
X145462834Y-109175119D02*
X145462834Y-109508452D01*
X145462834Y-109508452D02*
X145672358Y-109508452D01*
X144991406Y-109079880D02*
X144991406Y-110079880D01*
X144991406Y-110079880D02*
X144572358Y-110079880D01*
X144572358Y-110079880D02*
X144467596Y-110032261D01*
X144467596Y-110032261D02*
X144415215Y-109984642D01*
X144415215Y-109984642D02*
X144362834Y-109889404D01*
X144362834Y-109889404D02*
X144362834Y-109746547D01*
X144362834Y-109746547D02*
X144415215Y-109651309D01*
X144415215Y-109651309D02*
X144467596Y-109603690D01*
X144467596Y-109603690D02*
X144572358Y-109556071D01*
X144572358Y-109556071D02*
X144991406Y-109556071D01*
X143891406Y-109079880D02*
X143891406Y-110079880D01*
X143158072Y-110079880D02*
X142948548Y-110079880D01*
X142948548Y-110079880D02*
X142843786Y-110032261D01*
X142843786Y-110032261D02*
X142739024Y-109937023D01*
X142739024Y-109937023D02*
X142686643Y-109746547D01*
X142686643Y-109746547D02*
X142686643Y-109413214D01*
X142686643Y-109413214D02*
X142739024Y-109222738D01*
X142739024Y-109222738D02*
X142843786Y-109127500D01*
X142843786Y-109127500D02*
X142948548Y-109079880D01*
X142948548Y-109079880D02*
X143158072Y-109079880D01*
X143158072Y-109079880D02*
X143262834Y-109127500D01*
X143262834Y-109127500D02*
X143367596Y-109222738D01*
X143367596Y-109222738D02*
X143419977Y-109413214D01*
X143419977Y-109413214D02*
X143419977Y-109746547D01*
X143419977Y-109746547D02*
X143367596Y-109937023D01*
X143367596Y-109937023D02*
X143262834Y-110032261D01*
X143262834Y-110032261D02*
X143158072Y-110079880D01*
X142319977Y-110079880D02*
X141639024Y-110079880D01*
X141639024Y-110079880D02*
X142005691Y-109698928D01*
X142005691Y-109698928D02*
X141848548Y-109698928D01*
X141848548Y-109698928D02*
X141743786Y-109651309D01*
X141743786Y-109651309D02*
X141691405Y-109603690D01*
X141691405Y-109603690D02*
X141639024Y-109508452D01*
X141639024Y-109508452D02*
X141639024Y-109270357D01*
X141639024Y-109270357D02*
X141691405Y-109175119D01*
X141691405Y-109175119D02*
X141743786Y-109127500D01*
X141743786Y-109127500D02*
X141848548Y-109079880D01*
X141848548Y-109079880D02*
X142162834Y-109079880D01*
X142162834Y-109079880D02*
X142267596Y-109127500D01*
X142267596Y-109127500D02*
X142319977Y-109175119D01*
X141272358Y-110079880D02*
X140591405Y-110079880D01*
X140591405Y-110079880D02*
X140958072Y-109698928D01*
X140958072Y-109698928D02*
X140800929Y-109698928D01*
X140800929Y-109698928D02*
X140696167Y-109651309D01*
X140696167Y-109651309D02*
X140643786Y-109603690D01*
X140643786Y-109603690D02*
X140591405Y-109508452D01*
X140591405Y-109508452D02*
X140591405Y-109270357D01*
X140591405Y-109270357D02*
X140643786Y-109175119D01*
X140643786Y-109175119D02*
X140696167Y-109127500D01*
X140696167Y-109127500D02*
X140800929Y-109079880D01*
X140800929Y-109079880D02*
X141115215Y-109079880D01*
X141115215Y-109079880D02*
X141219977Y-109127500D01*
X141219977Y-109127500D02*
X141272358Y-109175119D01*
X145515215Y-112532261D02*
X145619977Y-112579880D01*
X145619977Y-112579880D02*
X145777120Y-112579880D01*
X145777120Y-112579880D02*
X145934263Y-112532261D01*
X145934263Y-112532261D02*
X146039025Y-112437023D01*
X146039025Y-112437023D02*
X146091406Y-112341785D01*
X146091406Y-112341785D02*
X146143787Y-112151309D01*
X146143787Y-112151309D02*
X146143787Y-112008452D01*
X146143787Y-112008452D02*
X146091406Y-111817976D01*
X146091406Y-111817976D02*
X146039025Y-111722738D01*
X146039025Y-111722738D02*
X145934263Y-111627500D01*
X145934263Y-111627500D02*
X145777120Y-111579880D01*
X145777120Y-111579880D02*
X145672358Y-111579880D01*
X145672358Y-111579880D02*
X145515215Y-111627500D01*
X145515215Y-111627500D02*
X145462834Y-111675119D01*
X145462834Y-111675119D02*
X145462834Y-112008452D01*
X145462834Y-112008452D02*
X145672358Y-112008452D01*
X144991406Y-111579880D02*
X144991406Y-112579880D01*
X144991406Y-112579880D02*
X144572358Y-112579880D01*
X144572358Y-112579880D02*
X144467596Y-112532261D01*
X144467596Y-112532261D02*
X144415215Y-112484642D01*
X144415215Y-112484642D02*
X144362834Y-112389404D01*
X144362834Y-112389404D02*
X144362834Y-112246547D01*
X144362834Y-112246547D02*
X144415215Y-112151309D01*
X144415215Y-112151309D02*
X144467596Y-112103690D01*
X144467596Y-112103690D02*
X144572358Y-112056071D01*
X144572358Y-112056071D02*
X144991406Y-112056071D01*
X143891406Y-111579880D02*
X143891406Y-112579880D01*
X143158072Y-112579880D02*
X142948548Y-112579880D01*
X142948548Y-112579880D02*
X142843786Y-112532261D01*
X142843786Y-112532261D02*
X142739024Y-112437023D01*
X142739024Y-112437023D02*
X142686643Y-112246547D01*
X142686643Y-112246547D02*
X142686643Y-111913214D01*
X142686643Y-111913214D02*
X142739024Y-111722738D01*
X142739024Y-111722738D02*
X142843786Y-111627500D01*
X142843786Y-111627500D02*
X142948548Y-111579880D01*
X142948548Y-111579880D02*
X143158072Y-111579880D01*
X143158072Y-111579880D02*
X143262834Y-111627500D01*
X143262834Y-111627500D02*
X143367596Y-111722738D01*
X143367596Y-111722738D02*
X143419977Y-111913214D01*
X143419977Y-111913214D02*
X143419977Y-112246547D01*
X143419977Y-112246547D02*
X143367596Y-112437023D01*
X143367596Y-112437023D02*
X143262834Y-112532261D01*
X143262834Y-112532261D02*
X143158072Y-112579880D01*
X142319977Y-112579880D02*
X141639024Y-112579880D01*
X141639024Y-112579880D02*
X142005691Y-112198928D01*
X142005691Y-112198928D02*
X141848548Y-112198928D01*
X141848548Y-112198928D02*
X141743786Y-112151309D01*
X141743786Y-112151309D02*
X141691405Y-112103690D01*
X141691405Y-112103690D02*
X141639024Y-112008452D01*
X141639024Y-112008452D02*
X141639024Y-111770357D01*
X141639024Y-111770357D02*
X141691405Y-111675119D01*
X141691405Y-111675119D02*
X141743786Y-111627500D01*
X141743786Y-111627500D02*
X141848548Y-111579880D01*
X141848548Y-111579880D02*
X142162834Y-111579880D01*
X142162834Y-111579880D02*
X142267596Y-111627500D01*
X142267596Y-111627500D02*
X142319977Y-111675119D01*
X141219977Y-112484642D02*
X141167596Y-112532261D01*
X141167596Y-112532261D02*
X141062834Y-112579880D01*
X141062834Y-112579880D02*
X140800929Y-112579880D01*
X140800929Y-112579880D02*
X140696167Y-112532261D01*
X140696167Y-112532261D02*
X140643786Y-112484642D01*
X140643786Y-112484642D02*
X140591405Y-112389404D01*
X140591405Y-112389404D02*
X140591405Y-112294166D01*
X140591405Y-112294166D02*
X140643786Y-112151309D01*
X140643786Y-112151309D02*
X141272358Y-111579880D01*
X141272358Y-111579880D02*
X140591405Y-111579880D01*
X145515215Y-115032261D02*
X145619977Y-115079880D01*
X145619977Y-115079880D02*
X145777120Y-115079880D01*
X145777120Y-115079880D02*
X145934263Y-115032261D01*
X145934263Y-115032261D02*
X146039025Y-114937023D01*
X146039025Y-114937023D02*
X146091406Y-114841785D01*
X146091406Y-114841785D02*
X146143787Y-114651309D01*
X146143787Y-114651309D02*
X146143787Y-114508452D01*
X146143787Y-114508452D02*
X146091406Y-114317976D01*
X146091406Y-114317976D02*
X146039025Y-114222738D01*
X146039025Y-114222738D02*
X145934263Y-114127500D01*
X145934263Y-114127500D02*
X145777120Y-114079880D01*
X145777120Y-114079880D02*
X145672358Y-114079880D01*
X145672358Y-114079880D02*
X145515215Y-114127500D01*
X145515215Y-114127500D02*
X145462834Y-114175119D01*
X145462834Y-114175119D02*
X145462834Y-114508452D01*
X145462834Y-114508452D02*
X145672358Y-114508452D01*
X144991406Y-114079880D02*
X144991406Y-115079880D01*
X144991406Y-115079880D02*
X144572358Y-115079880D01*
X144572358Y-115079880D02*
X144467596Y-115032261D01*
X144467596Y-115032261D02*
X144415215Y-114984642D01*
X144415215Y-114984642D02*
X144362834Y-114889404D01*
X144362834Y-114889404D02*
X144362834Y-114746547D01*
X144362834Y-114746547D02*
X144415215Y-114651309D01*
X144415215Y-114651309D02*
X144467596Y-114603690D01*
X144467596Y-114603690D02*
X144572358Y-114556071D01*
X144572358Y-114556071D02*
X144991406Y-114556071D01*
X143891406Y-114079880D02*
X143891406Y-115079880D01*
X143158072Y-115079880D02*
X142948548Y-115079880D01*
X142948548Y-115079880D02*
X142843786Y-115032261D01*
X142843786Y-115032261D02*
X142739024Y-114937023D01*
X142739024Y-114937023D02*
X142686643Y-114746547D01*
X142686643Y-114746547D02*
X142686643Y-114413214D01*
X142686643Y-114413214D02*
X142739024Y-114222738D01*
X142739024Y-114222738D02*
X142843786Y-114127500D01*
X142843786Y-114127500D02*
X142948548Y-114079880D01*
X142948548Y-114079880D02*
X143158072Y-114079880D01*
X143158072Y-114079880D02*
X143262834Y-114127500D01*
X143262834Y-114127500D02*
X143367596Y-114222738D01*
X143367596Y-114222738D02*
X143419977Y-114413214D01*
X143419977Y-114413214D02*
X143419977Y-114746547D01*
X143419977Y-114746547D02*
X143367596Y-114937023D01*
X143367596Y-114937023D02*
X143262834Y-115032261D01*
X143262834Y-115032261D02*
X143158072Y-115079880D01*
X142319977Y-115079880D02*
X141639024Y-115079880D01*
X141639024Y-115079880D02*
X142005691Y-114698928D01*
X142005691Y-114698928D02*
X141848548Y-114698928D01*
X141848548Y-114698928D02*
X141743786Y-114651309D01*
X141743786Y-114651309D02*
X141691405Y-114603690D01*
X141691405Y-114603690D02*
X141639024Y-114508452D01*
X141639024Y-114508452D02*
X141639024Y-114270357D01*
X141639024Y-114270357D02*
X141691405Y-114175119D01*
X141691405Y-114175119D02*
X141743786Y-114127500D01*
X141743786Y-114127500D02*
X141848548Y-114079880D01*
X141848548Y-114079880D02*
X142162834Y-114079880D01*
X142162834Y-114079880D02*
X142267596Y-114127500D01*
X142267596Y-114127500D02*
X142319977Y-114175119D01*
X140643786Y-115079880D02*
X141167596Y-115079880D01*
X141167596Y-115079880D02*
X141219977Y-114603690D01*
X141219977Y-114603690D02*
X141167596Y-114651309D01*
X141167596Y-114651309D02*
X141062834Y-114698928D01*
X141062834Y-114698928D02*
X140800929Y-114698928D01*
X140800929Y-114698928D02*
X140696167Y-114651309D01*
X140696167Y-114651309D02*
X140643786Y-114603690D01*
X140643786Y-114603690D02*
X140591405Y-114508452D01*
X140591405Y-114508452D02*
X140591405Y-114270357D01*
X140591405Y-114270357D02*
X140643786Y-114175119D01*
X140643786Y-114175119D02*
X140696167Y-114127500D01*
X140696167Y-114127500D02*
X140800929Y-114079880D01*
X140800929Y-114079880D02*
X141062834Y-114079880D01*
X141062834Y-114079880D02*
X141167596Y-114127500D01*
X141167596Y-114127500D02*
X141219977Y-114175119D01*
X145515215Y-117532261D02*
X145619977Y-117579880D01*
X145619977Y-117579880D02*
X145777120Y-117579880D01*
X145777120Y-117579880D02*
X145934263Y-117532261D01*
X145934263Y-117532261D02*
X146039025Y-117437023D01*
X146039025Y-117437023D02*
X146091406Y-117341785D01*
X146091406Y-117341785D02*
X146143787Y-117151309D01*
X146143787Y-117151309D02*
X146143787Y-117008452D01*
X146143787Y-117008452D02*
X146091406Y-116817976D01*
X146091406Y-116817976D02*
X146039025Y-116722738D01*
X146039025Y-116722738D02*
X145934263Y-116627500D01*
X145934263Y-116627500D02*
X145777120Y-116579880D01*
X145777120Y-116579880D02*
X145672358Y-116579880D01*
X145672358Y-116579880D02*
X145515215Y-116627500D01*
X145515215Y-116627500D02*
X145462834Y-116675119D01*
X145462834Y-116675119D02*
X145462834Y-117008452D01*
X145462834Y-117008452D02*
X145672358Y-117008452D01*
X144991406Y-116579880D02*
X144991406Y-117579880D01*
X144991406Y-117579880D02*
X144572358Y-117579880D01*
X144572358Y-117579880D02*
X144467596Y-117532261D01*
X144467596Y-117532261D02*
X144415215Y-117484642D01*
X144415215Y-117484642D02*
X144362834Y-117389404D01*
X144362834Y-117389404D02*
X144362834Y-117246547D01*
X144362834Y-117246547D02*
X144415215Y-117151309D01*
X144415215Y-117151309D02*
X144467596Y-117103690D01*
X144467596Y-117103690D02*
X144572358Y-117056071D01*
X144572358Y-117056071D02*
X144991406Y-117056071D01*
X143891406Y-116579880D02*
X143891406Y-117579880D01*
X143158072Y-117579880D02*
X142948548Y-117579880D01*
X142948548Y-117579880D02*
X142843786Y-117532261D01*
X142843786Y-117532261D02*
X142739024Y-117437023D01*
X142739024Y-117437023D02*
X142686643Y-117246547D01*
X142686643Y-117246547D02*
X142686643Y-116913214D01*
X142686643Y-116913214D02*
X142739024Y-116722738D01*
X142739024Y-116722738D02*
X142843786Y-116627500D01*
X142843786Y-116627500D02*
X142948548Y-116579880D01*
X142948548Y-116579880D02*
X143158072Y-116579880D01*
X143158072Y-116579880D02*
X143262834Y-116627500D01*
X143262834Y-116627500D02*
X143367596Y-116722738D01*
X143367596Y-116722738D02*
X143419977Y-116913214D01*
X143419977Y-116913214D02*
X143419977Y-117246547D01*
X143419977Y-117246547D02*
X143367596Y-117437023D01*
X143367596Y-117437023D02*
X143262834Y-117532261D01*
X143262834Y-117532261D02*
X143158072Y-117579880D01*
X142319977Y-117579880D02*
X141639024Y-117579880D01*
X141639024Y-117579880D02*
X142005691Y-117198928D01*
X142005691Y-117198928D02*
X141848548Y-117198928D01*
X141848548Y-117198928D02*
X141743786Y-117151309D01*
X141743786Y-117151309D02*
X141691405Y-117103690D01*
X141691405Y-117103690D02*
X141639024Y-117008452D01*
X141639024Y-117008452D02*
X141639024Y-116770357D01*
X141639024Y-116770357D02*
X141691405Y-116675119D01*
X141691405Y-116675119D02*
X141743786Y-116627500D01*
X141743786Y-116627500D02*
X141848548Y-116579880D01*
X141848548Y-116579880D02*
X142162834Y-116579880D01*
X142162834Y-116579880D02*
X142267596Y-116627500D01*
X142267596Y-116627500D02*
X142319977Y-116675119D01*
X140696167Y-117246547D02*
X140696167Y-116579880D01*
X140958072Y-117627500D02*
X141219977Y-116913214D01*
X141219977Y-116913214D02*
X140539024Y-116913214D01*
X145515215Y-120032261D02*
X145619977Y-120079880D01*
X145619977Y-120079880D02*
X145777120Y-120079880D01*
X145777120Y-120079880D02*
X145934263Y-120032261D01*
X145934263Y-120032261D02*
X146039025Y-119937023D01*
X146039025Y-119937023D02*
X146091406Y-119841785D01*
X146091406Y-119841785D02*
X146143787Y-119651309D01*
X146143787Y-119651309D02*
X146143787Y-119508452D01*
X146143787Y-119508452D02*
X146091406Y-119317976D01*
X146091406Y-119317976D02*
X146039025Y-119222738D01*
X146039025Y-119222738D02*
X145934263Y-119127500D01*
X145934263Y-119127500D02*
X145777120Y-119079880D01*
X145777120Y-119079880D02*
X145672358Y-119079880D01*
X145672358Y-119079880D02*
X145515215Y-119127500D01*
X145515215Y-119127500D02*
X145462834Y-119175119D01*
X145462834Y-119175119D02*
X145462834Y-119508452D01*
X145462834Y-119508452D02*
X145672358Y-119508452D01*
X144991406Y-119079880D02*
X144991406Y-120079880D01*
X144991406Y-120079880D02*
X144572358Y-120079880D01*
X144572358Y-120079880D02*
X144467596Y-120032261D01*
X144467596Y-120032261D02*
X144415215Y-119984642D01*
X144415215Y-119984642D02*
X144362834Y-119889404D01*
X144362834Y-119889404D02*
X144362834Y-119746547D01*
X144362834Y-119746547D02*
X144415215Y-119651309D01*
X144415215Y-119651309D02*
X144467596Y-119603690D01*
X144467596Y-119603690D02*
X144572358Y-119556071D01*
X144572358Y-119556071D02*
X144991406Y-119556071D01*
X143891406Y-119079880D02*
X143891406Y-120079880D01*
X143158072Y-120079880D02*
X142948548Y-120079880D01*
X142948548Y-120079880D02*
X142843786Y-120032261D01*
X142843786Y-120032261D02*
X142739024Y-119937023D01*
X142739024Y-119937023D02*
X142686643Y-119746547D01*
X142686643Y-119746547D02*
X142686643Y-119413214D01*
X142686643Y-119413214D02*
X142739024Y-119222738D01*
X142739024Y-119222738D02*
X142843786Y-119127500D01*
X142843786Y-119127500D02*
X142948548Y-119079880D01*
X142948548Y-119079880D02*
X143158072Y-119079880D01*
X143158072Y-119079880D02*
X143262834Y-119127500D01*
X143262834Y-119127500D02*
X143367596Y-119222738D01*
X143367596Y-119222738D02*
X143419977Y-119413214D01*
X143419977Y-119413214D02*
X143419977Y-119746547D01*
X143419977Y-119746547D02*
X143367596Y-119937023D01*
X143367596Y-119937023D02*
X143262834Y-120032261D01*
X143262834Y-120032261D02*
X143158072Y-120079880D01*
X142319977Y-120079880D02*
X141639024Y-120079880D01*
X141639024Y-120079880D02*
X142005691Y-119698928D01*
X142005691Y-119698928D02*
X141848548Y-119698928D01*
X141848548Y-119698928D02*
X141743786Y-119651309D01*
X141743786Y-119651309D02*
X141691405Y-119603690D01*
X141691405Y-119603690D02*
X141639024Y-119508452D01*
X141639024Y-119508452D02*
X141639024Y-119270357D01*
X141639024Y-119270357D02*
X141691405Y-119175119D01*
X141691405Y-119175119D02*
X141743786Y-119127500D01*
X141743786Y-119127500D02*
X141848548Y-119079880D01*
X141848548Y-119079880D02*
X142162834Y-119079880D01*
X142162834Y-119079880D02*
X142267596Y-119127500D01*
X142267596Y-119127500D02*
X142319977Y-119175119D01*
X141115215Y-119079880D02*
X140905691Y-119079880D01*
X140905691Y-119079880D02*
X140800929Y-119127500D01*
X140800929Y-119127500D02*
X140748548Y-119175119D01*
X140748548Y-119175119D02*
X140643786Y-119317976D01*
X140643786Y-119317976D02*
X140591405Y-119508452D01*
X140591405Y-119508452D02*
X140591405Y-119889404D01*
X140591405Y-119889404D02*
X140643786Y-119984642D01*
X140643786Y-119984642D02*
X140696167Y-120032261D01*
X140696167Y-120032261D02*
X140800929Y-120079880D01*
X140800929Y-120079880D02*
X141010453Y-120079880D01*
X141010453Y-120079880D02*
X141115215Y-120032261D01*
X141115215Y-120032261D02*
X141167596Y-119984642D01*
X141167596Y-119984642D02*
X141219977Y-119889404D01*
X141219977Y-119889404D02*
X141219977Y-119651309D01*
X141219977Y-119651309D02*
X141167596Y-119556071D01*
X141167596Y-119556071D02*
X141115215Y-119508452D01*
X141115215Y-119508452D02*
X141010453Y-119460833D01*
X141010453Y-119460833D02*
X140800929Y-119460833D01*
X140800929Y-119460833D02*
X140696167Y-119508452D01*
X140696167Y-119508452D02*
X140643786Y-119556071D01*
X140643786Y-119556071D02*
X140591405Y-119651309D01*
X145515215Y-122532261D02*
X145619977Y-122579880D01*
X145619977Y-122579880D02*
X145777120Y-122579880D01*
X145777120Y-122579880D02*
X145934263Y-122532261D01*
X145934263Y-122532261D02*
X146039025Y-122437023D01*
X146039025Y-122437023D02*
X146091406Y-122341785D01*
X146091406Y-122341785D02*
X146143787Y-122151309D01*
X146143787Y-122151309D02*
X146143787Y-122008452D01*
X146143787Y-122008452D02*
X146091406Y-121817976D01*
X146091406Y-121817976D02*
X146039025Y-121722738D01*
X146039025Y-121722738D02*
X145934263Y-121627500D01*
X145934263Y-121627500D02*
X145777120Y-121579880D01*
X145777120Y-121579880D02*
X145672358Y-121579880D01*
X145672358Y-121579880D02*
X145515215Y-121627500D01*
X145515215Y-121627500D02*
X145462834Y-121675119D01*
X145462834Y-121675119D02*
X145462834Y-122008452D01*
X145462834Y-122008452D02*
X145672358Y-122008452D01*
X144991406Y-121579880D02*
X144991406Y-122579880D01*
X144991406Y-122579880D02*
X144572358Y-122579880D01*
X144572358Y-122579880D02*
X144467596Y-122532261D01*
X144467596Y-122532261D02*
X144415215Y-122484642D01*
X144415215Y-122484642D02*
X144362834Y-122389404D01*
X144362834Y-122389404D02*
X144362834Y-122246547D01*
X144362834Y-122246547D02*
X144415215Y-122151309D01*
X144415215Y-122151309D02*
X144467596Y-122103690D01*
X144467596Y-122103690D02*
X144572358Y-122056071D01*
X144572358Y-122056071D02*
X144991406Y-122056071D01*
X143891406Y-121579880D02*
X143891406Y-122579880D01*
X143158072Y-122579880D02*
X142948548Y-122579880D01*
X142948548Y-122579880D02*
X142843786Y-122532261D01*
X142843786Y-122532261D02*
X142739024Y-122437023D01*
X142739024Y-122437023D02*
X142686643Y-122246547D01*
X142686643Y-122246547D02*
X142686643Y-121913214D01*
X142686643Y-121913214D02*
X142739024Y-121722738D01*
X142739024Y-121722738D02*
X142843786Y-121627500D01*
X142843786Y-121627500D02*
X142948548Y-121579880D01*
X142948548Y-121579880D02*
X143158072Y-121579880D01*
X143158072Y-121579880D02*
X143262834Y-121627500D01*
X143262834Y-121627500D02*
X143367596Y-121722738D01*
X143367596Y-121722738D02*
X143419977Y-121913214D01*
X143419977Y-121913214D02*
X143419977Y-122246547D01*
X143419977Y-122246547D02*
X143367596Y-122437023D01*
X143367596Y-122437023D02*
X143262834Y-122532261D01*
X143262834Y-122532261D02*
X143158072Y-122579880D01*
X142319977Y-122579880D02*
X141639024Y-122579880D01*
X141639024Y-122579880D02*
X142005691Y-122198928D01*
X142005691Y-122198928D02*
X141848548Y-122198928D01*
X141848548Y-122198928D02*
X141743786Y-122151309D01*
X141743786Y-122151309D02*
X141691405Y-122103690D01*
X141691405Y-122103690D02*
X141639024Y-122008452D01*
X141639024Y-122008452D02*
X141639024Y-121770357D01*
X141639024Y-121770357D02*
X141691405Y-121675119D01*
X141691405Y-121675119D02*
X141743786Y-121627500D01*
X141743786Y-121627500D02*
X141848548Y-121579880D01*
X141848548Y-121579880D02*
X142162834Y-121579880D01*
X142162834Y-121579880D02*
X142267596Y-121627500D01*
X142267596Y-121627500D02*
X142319977Y-121675119D01*
X140696167Y-122579880D02*
X140905691Y-122579880D01*
X140905691Y-122579880D02*
X141010453Y-122532261D01*
X141010453Y-122532261D02*
X141062834Y-122484642D01*
X141062834Y-122484642D02*
X141167596Y-122341785D01*
X141167596Y-122341785D02*
X141219977Y-122151309D01*
X141219977Y-122151309D02*
X141219977Y-121770357D01*
X141219977Y-121770357D02*
X141167596Y-121675119D01*
X141167596Y-121675119D02*
X141115215Y-121627500D01*
X141115215Y-121627500D02*
X141010453Y-121579880D01*
X141010453Y-121579880D02*
X140800929Y-121579880D01*
X140800929Y-121579880D02*
X140696167Y-121627500D01*
X140696167Y-121627500D02*
X140643786Y-121675119D01*
X140643786Y-121675119D02*
X140591405Y-121770357D01*
X140591405Y-121770357D02*
X140591405Y-122008452D01*
X140591405Y-122008452D02*
X140643786Y-122103690D01*
X140643786Y-122103690D02*
X140696167Y-122151309D01*
X140696167Y-122151309D02*
X140800929Y-122198928D01*
X140800929Y-122198928D02*
X141010453Y-122198928D01*
X141010453Y-122198928D02*
X141115215Y-122151309D01*
X141115215Y-122151309D02*
X141167596Y-122103690D01*
X141167596Y-122103690D02*
X141219977Y-122008452D01*
X146091406Y-124603690D02*
X145724739Y-124603690D01*
X145567596Y-124079880D02*
X146091406Y-124079880D01*
X146091406Y-124079880D02*
X146091406Y-125079880D01*
X146091406Y-125079880D02*
X145567596Y-125079880D01*
X145096168Y-124079880D02*
X145096168Y-125079880D01*
X145096168Y-125079880D02*
X144467596Y-124079880D01*
X144467596Y-124079880D02*
X144467596Y-125079880D01*
D12*
X157650057Y-110095238D02*
X157602438Y-110190476D01*
X157602438Y-110190476D02*
X157507200Y-110285714D01*
X157507200Y-110285714D02*
X157364342Y-110428571D01*
X157364342Y-110428571D02*
X157316723Y-110523809D01*
X157316723Y-110523809D02*
X157316723Y-110619047D01*
X157554819Y-110571428D02*
X157507200Y-110666666D01*
X157507200Y-110666666D02*
X157411961Y-110761904D01*
X157411961Y-110761904D02*
X157221485Y-110809523D01*
X157221485Y-110809523D02*
X156888152Y-110809523D01*
X156888152Y-110809523D02*
X156697676Y-110761904D01*
X156697676Y-110761904D02*
X156602438Y-110666666D01*
X156602438Y-110666666D02*
X156554819Y-110571428D01*
X156554819Y-110571428D02*
X156554819Y-110380952D01*
X156554819Y-110380952D02*
X156602438Y-110285714D01*
X156602438Y-110285714D02*
X156697676Y-110190476D01*
X156697676Y-110190476D02*
X156888152Y-110142857D01*
X156888152Y-110142857D02*
X157221485Y-110142857D01*
X157221485Y-110142857D02*
X157411961Y-110190476D01*
X157411961Y-110190476D02*
X157507200Y-110285714D01*
X157507200Y-110285714D02*
X157554819Y-110380952D01*
X157554819Y-110380952D02*
X157554819Y-110571428D01*
X157554819Y-109190476D02*
X157554819Y-109761904D01*
X157554819Y-109476190D02*
X156554819Y-109476190D01*
X156554819Y-109476190D02*
X156697676Y-109571428D01*
X156697676Y-109571428D02*
X156792914Y-109666666D01*
X156792914Y-109666666D02*
X156840533Y-109761904D01*
X153066666Y-126834819D02*
X153066666Y-127549104D01*
X153066666Y-127549104D02*
X153019047Y-127691961D01*
X153019047Y-127691961D02*
X152923809Y-127787200D01*
X152923809Y-127787200D02*
X152780952Y-127834819D01*
X152780952Y-127834819D02*
X152685714Y-127834819D01*
X153971428Y-126834819D02*
X153780952Y-126834819D01*
X153780952Y-126834819D02*
X153685714Y-126882438D01*
X153685714Y-126882438D02*
X153638095Y-126930057D01*
X153638095Y-126930057D02*
X153542857Y-127072914D01*
X153542857Y-127072914D02*
X153495238Y-127263390D01*
X153495238Y-127263390D02*
X153495238Y-127644342D01*
X153495238Y-127644342D02*
X153542857Y-127739580D01*
X153542857Y-127739580D02*
X153590476Y-127787200D01*
X153590476Y-127787200D02*
X153685714Y-127834819D01*
X153685714Y-127834819D02*
X153876190Y-127834819D01*
X153876190Y-127834819D02*
X153971428Y-127787200D01*
X153971428Y-127787200D02*
X154019047Y-127739580D01*
X154019047Y-127739580D02*
X154066666Y-127644342D01*
X154066666Y-127644342D02*
X154066666Y-127406247D01*
X154066666Y-127406247D02*
X154019047Y-127311009D01*
X154019047Y-127311009D02*
X153971428Y-127263390D01*
X153971428Y-127263390D02*
X153876190Y-127215771D01*
X153876190Y-127215771D02*
X153685714Y-127215771D01*
X153685714Y-127215771D02*
X153590476Y-127263390D01*
X153590476Y-127263390D02*
X153542857Y-127311009D01*
X153542857Y-127311009D02*
X153495238Y-127406247D01*
X180134819Y-127793333D02*
X180849104Y-127793333D01*
X180849104Y-127793333D02*
X180991961Y-127840952D01*
X180991961Y-127840952D02*
X181087200Y-127936190D01*
X181087200Y-127936190D02*
X181134819Y-128079047D01*
X181134819Y-128079047D02*
X181134819Y-128174285D01*
X180134819Y-127412380D02*
X180134819Y-126745714D01*
X180134819Y-126745714D02*
X181134819Y-127174285D01*
X176301295Y-127304819D02*
X176301295Y-126304819D01*
X176301295Y-126781009D02*
X176872723Y-126781009D01*
X176872723Y-127304819D02*
X176872723Y-126304819D01*
X177777485Y-126638152D02*
X177777485Y-127304819D01*
X177539390Y-126257200D02*
X177301295Y-126971485D01*
X177301295Y-126971485D02*
X177920342Y-126971485D01*
X115225095Y-128804819D02*
X115225095Y-127804819D01*
X115225095Y-128281009D02*
X115796523Y-128281009D01*
X115796523Y-128804819D02*
X115796523Y-127804819D01*
X116225095Y-127900057D02*
X116272714Y-127852438D01*
X116272714Y-127852438D02*
X116367952Y-127804819D01*
X116367952Y-127804819D02*
X116606047Y-127804819D01*
X116606047Y-127804819D02*
X116701285Y-127852438D01*
X116701285Y-127852438D02*
X116748904Y-127900057D01*
X116748904Y-127900057D02*
X116796523Y-127995295D01*
X116796523Y-127995295D02*
X116796523Y-128090533D01*
X116796523Y-128090533D02*
X116748904Y-128233390D01*
X116748904Y-128233390D02*
X116177476Y-128804819D01*
X116177476Y-128804819D02*
X116796523Y-128804819D01*
%TO.C,J3*%
D13*
X181637300Y-85057700D02*
X191677300Y-85057700D01*
X181637300Y-120857700D02*
X181637300Y-85057700D01*
X184657300Y-120857700D02*
X184657300Y-85057700D01*
X189557300Y-120857700D02*
X189557300Y-85057700D01*
X191057300Y-120857700D02*
X191057300Y-85057700D01*
X191677300Y-85057700D02*
X191677300Y-117897700D01*
X191677300Y-118497700D02*
X191677300Y-120857700D01*
X191677300Y-120857700D02*
X181637300Y-120857700D01*
X191677300Y-118197700D02*
X192287300Y-117757700D01*
X192287300Y-118637700D01*
X191677300Y-118197700D01*
G36*
X192287300Y-118637700D02*
G01*
X191677300Y-118197700D01*
X192287300Y-117757700D01*
X192287300Y-118637700D01*
G37*
%TO.C,J2*%
X174620000Y-80535000D02*
X176000000Y-80535000D01*
X174620000Y-81915000D02*
X174620000Y-80535000D01*
X174620000Y-83185000D02*
X174620000Y-106155000D01*
X174620000Y-83185000D02*
X177380000Y-83185000D01*
X174620000Y-106155000D02*
X177380000Y-106155000D01*
X177380000Y-83185000D02*
X177380000Y-106155000D01*
%TO.C,J8*%
X152040000Y-134380000D02*
X152040000Y-133000000D01*
X153420000Y-134380000D02*
X152040000Y-134380000D01*
X154690000Y-131620000D02*
X162420000Y-131620000D01*
X154690000Y-134380000D02*
X154690000Y-131620000D01*
X154690000Y-134380000D02*
X162420000Y-134380000D01*
X162420000Y-134380000D02*
X162420000Y-131620000D01*
%TO.C,J5*%
X114564100Y-123697200D02*
X114564100Y-88027200D01*
X117324100Y-88027200D02*
X114564100Y-88027200D01*
X117324100Y-123697200D02*
X114564100Y-123697200D01*
X117324100Y-123697200D02*
X117324100Y-88027200D01*
X117324100Y-124967200D02*
X117324100Y-126347200D01*
X117324100Y-126347200D02*
X115944100Y-126347200D01*
%TO.C,J1*%
X162865000Y-80535000D02*
X164245000Y-80535000D01*
X162865000Y-81915000D02*
X162865000Y-80535000D01*
X162865000Y-83185000D02*
X162865000Y-106155000D01*
X162865000Y-83185000D02*
X165625000Y-83185000D01*
X162865000Y-106155000D02*
X165625000Y-106155000D01*
X165625000Y-83185000D02*
X165625000Y-106155000D01*
%TO.C,U1*%
D10*
X130609100Y-80338121D02*
X138229100Y-80338121D01*
X138229100Y-84592300D01*
X130609100Y-84592300D01*
X130609100Y-80338121D01*
D14*
X120449100Y-81352300D02*
X148749100Y-81352300D01*
X148749100Y-132852300D01*
X120449100Y-132852300D01*
X120449100Y-81352300D01*
%TO.C,Q1*%
D13*
X157940000Y-109240000D02*
X158940000Y-109240000D01*
X157940000Y-110760000D02*
X157940000Y-109240000D01*
X157990000Y-110760000D02*
X157940000Y-110760000D01*
X159890000Y-110760000D02*
X159110000Y-110760000D01*
X160060000Y-109240000D02*
X161060000Y-109240000D01*
X161060000Y-109240000D02*
X161060000Y-110760000D01*
X161060000Y-110760000D02*
X161010000Y-110760000D01*
X159120000Y-111300000D02*
X159450000Y-111060000D01*
X159450000Y-111540000D01*
X159120000Y-111300000D01*
G36*
X159450000Y-111540000D02*
G01*
X159120000Y-111300000D01*
X159450000Y-111060000D01*
X159450000Y-111540000D01*
G37*
%TO.C,J6*%
X152020000Y-123730000D02*
X152020000Y-88060000D01*
X154780000Y-88060000D02*
X152020000Y-88060000D01*
X154780000Y-123730000D02*
X152020000Y-123730000D01*
X154780000Y-123730000D02*
X154780000Y-88060000D01*
X154780000Y-125000000D02*
X154780000Y-126380000D01*
X154780000Y-126380000D02*
X153400000Y-126380000D01*
%TO.C,J7*%
X181680000Y-122260000D02*
X191720000Y-122260000D01*
X181680000Y-132660000D02*
X181680000Y-122260000D01*
X184700000Y-132660000D02*
X184700000Y-122260000D01*
X189600000Y-132660000D02*
X189600000Y-122260000D01*
X191100000Y-132660000D02*
X191100000Y-122260000D01*
X191720000Y-122260000D02*
X191720000Y-129700000D01*
X191720000Y-130300000D02*
X191720000Y-132660000D01*
X191720000Y-132660000D02*
X181680000Y-132660000D01*
X191720000Y-130000000D02*
X192330000Y-129560000D01*
X192330000Y-130440000D01*
X191720000Y-130000000D01*
G36*
X192330000Y-130440000D02*
G01*
X191720000Y-130000000D01*
X192330000Y-129560000D01*
X192330000Y-130440000D01*
G37*
%TD*%
M02*
